  0
SECTION
  2
HEADER
  9
$ANGBASE
  50
0.0
  9
$ANGDIR
  70
1
  9
$MEASUREMENT
  70
0
  0
ENDSEC
  0
SECTION
  2
TABLES
  0
TABLE
  2
LTYPE
  70
4
  0
LTYPE
  5
40F
  2
CONTINUOUS
  70
0
  3
Solid line
  72
65
  73
0
  40
0.0
  0
LTYPE
  5
410
  2
DASHDOT
 70
0
  3
Dash Dot ____ _ ____ _
 72
65
 73
4
 40
2.0
 49
1.25
 49
-0.25
 49
0.25
 49
-0.25
  0
LTYPE
  5
411
  2
DASHED
 70
0
  3
Dashed __ __ __ __ __
 72
65
 73
2
 40
0.75
 49
0.5
 49
-0.25
  0
LTYPE
  5
43B
  2
DOTTED
 70
0
  3
Dotted .  .  .  .
 72
65
 73
2
 40
0.2
 49
0.0
 49
-0.2
  0
ENDTAB
  0
TABLE
  2
STYLE
  70
4
  0
STYLE
  2
KICAD
  70
0
  40
0
  41
1
  42
1
  50
0
  71
0
  3
isocp.shx
  0
STYLE
  2
KICADB
  70
0
  40
0
  41
1
  42
1
  50
0
  71
0
  3
isocp.shx
  0
STYLE
  2
KICADI
  70
0
  40
0
  41
1
  42
1
  50
15
  71
0
  3
isocp.shx
  0
STYLE
  2
KICADBI
  70
0
  40
0
  41
1
  42
1
  50
15
  71
0
  3
isocp.shx
  0
ENDTAB
  0
TABLE
  2
LAYER
  70
1
  0
LAYER
  2
BLACK
  70
0
  62
7
  6
CONTINUOUS
  0
ENDTAB
  0
ENDSEC
  0
SECTION
  2
ENTITIES
0
LINE
8
BLACK
6
CONTINUOUS
10
0.1129223622047244
20
0.057248031496063
11
0.1221473622047244
21
0.0540811023622047
0
LINE
8
BLACK
6
CONTINUOUS
10
0.1221473622047244
20
0.0540811023622047
11
0.1307252755905512
21
0.0494389763779528
0
LINE
8
BLACK
6
CONTINUOUS
10
0.1307252755905512
20
0.0494389763779528
11
0.138422125984252
21
0.0434482677165354
0
LINE
8
BLACK
6
CONTINUOUS
10
0.138422125984252
20
0.0434482677165354
11
0.1450279921259842
21
0.0362724015748032
0
LINE
8
BLACK
6
CONTINUOUS
10
0.1450279921259842
20
0.0362724015748032
11
0.1503626377952756
21
0.028107125984252
0
LINE
8
BLACK
6
CONTINUOUS
10
0.1503626377952756
20
0.028107125984252
11
0.1542805511811024
21
0.019175157480315
0
LINE
8
BLACK
6
CONTINUOUS
10
0.1542805511811024
20
0.019175157480315
11
0.1566748818897638
21
0.009720157480315
0
LINE
8
BLACK
6
CONTINUOUS
10
0.1566748818897638
20
0.009720157480315
11
0.1574803149606299
21
0.
0
LINE
8
BLACK
6
CONTINUOUS
10
0.1574803149606299
20
0.
11
0.1566748818897638
21
-0.009720157480315
0
LINE
8
BLACK
6
CONTINUOUS
10
0.1566748818897638
20
-0.009720157480315
11
0.1542805511811024
21
-0.019175157480315
0
LINE
8
BLACK
6
CONTINUOUS
10
0.1542805511811024
20
-0.019175157480315
11
0.1503626377952756
21
-0.028107125984252
0
LINE
8
BLACK
6
CONTINUOUS
10
0.1503626377952756
20
-0.028107125984252
11
0.1450279921259842
21
-0.0362724015748032
0
LINE
8
BLACK
6
CONTINUOUS
10
0.1450279921259842
20
-0.0362724015748032
11
0.138422125984252
21
-0.0434482677165354
0
LINE
8
BLACK
6
CONTINUOUS
10
0.138422125984252
20
-0.0434482677165354
11
0.1307252755905512
21
-0.0494389763779528
0
LINE
8
BLACK
6
CONTINUOUS
10
0.1307252755905512
20
-0.0494389763779528
11
0.1221473622047244
21
-0.0540811023622047
0
LINE
8
BLACK
6
CONTINUOUS
10
0.1221473622047244
20
-0.0540811023622047
11
0.1129223622047244
21
-0.057248031496063
0
LINE
8
BLACK
6
CONTINUOUS
10
0.1129223622047244
20
-0.057248031496063
11
0.1033019291338583
21
-0.0588534251968504
0
LINE
8
BLACK
6
CONTINUOUS
10
0.1033019291338583
20
-0.0588534251968504
11
0.0935484645669291
21
-0.0588534251968504
0
LINE
8
BLACK
6
CONTINUOUS
10
0.0935484645669291
20
-0.0588534251968504
11
0.083928031496063
21
-0.057248031496063
0
LINE
8
BLACK
6
CONTINUOUS
10
0.083928031496063
20
-0.057248031496063
11
0.074703031496063
21
-0.0540811023622047
0
LINE
8
BLACK
6
CONTINUOUS
10
0.074703031496063
20
-0.0540811023622047
11
0.0661251181102362
21
-0.0494389763779528
0
LINE
8
BLACK
6
CONTINUOUS
10
0.0661251181102362
20
-0.0494389763779528
11
0.0584282677165354
21
-0.0434482677165354
0
LINE
8
BLACK
6
CONTINUOUS
10
0.0584282677165354
20
-0.0434482677165354
11
0.0518224015748031
21
-0.0362724015748032
0
LINE
8
BLACK
6
CONTINUOUS
10
0.0518224015748031
20
-0.0362724015748032
11
0.0464877559055118
21
-0.028107125984252
0
LINE
8
BLACK
6
CONTINUOUS
10
0.0464877559055118
20
-0.028107125984252
11
0.042569842519685
21
-0.019175157480315
0
LINE
8
BLACK
6
CONTINUOUS
10
0.042569842519685
20
-0.019175157480315
11
0.0401755118110236
21
-0.009720157480315
0
LINE
8
BLACK
6
CONTINUOUS
10
0.0401755118110236
20
-0.009720157480315
11
0.0393700787401575
21
0.
0
LINE
8
BLACK
6
CONTINUOUS
10
0.0393700787401575
20
0.
11
0.0401755118110236
21
0.009720157480315
0
LINE
8
BLACK
6
CONTINUOUS
10
0.0401755118110236
20
0.009720157480315
11
0.042569842519685
21
0.019175157480315
0
LINE
8
BLACK
6
CONTINUOUS
10
0.042569842519685
20
0.019175157480315
11
0.0464877559055118
21
0.028107125984252
0
LINE
8
BLACK
6
CONTINUOUS
10
0.0464877559055118
20
0.028107125984252
11
0.0518224015748031
21
0.0362724015748032
0
LINE
8
BLACK
6
CONTINUOUS
10
0.0518224015748031
20
0.0362724015748032
11
0.0584282677165354
21
0.0434482677165354
0
LINE
8
BLACK
6
CONTINUOUS
10
0.0584282677165354
20
0.0434482677165354
11
0.0661251181102362
21
0.0494389763779528
0
LINE
8
BLACK
6
CONTINUOUS
10
0.0661251181102362
20
0.0494389763779528
11
0.074703031496063
21
0.0540811023622047
0
LINE
8
BLACK
6
CONTINUOUS
10
0.074703031496063
20
0.0540811023622047
11
0.083928031496063
21
0.057248031496063
0
LINE
8
BLACK
6
CONTINUOUS
10
0.083928031496063
20
0.057248031496063
11
0.0935484645669291
21
0.0588534251968504
0
LINE
8
BLACK
6
CONTINUOUS
10
0.0935484645669291
20
0.0588534251968504
11
0.1033019291338583
21
0.0588534251968504
0
LINE
8
BLACK
6
CONTINUOUS
10
0.1033019291338583
20
0.0588534251968504
11
0.1129223622047244
21
0.057248031496063
0
LINE
8
BLACK
6
CONTINUOUS
10
0.5066231496062992
20
0.057248031496063
11
0.5158481496062992
21
0.0540811023622047
0
LINE
8
BLACK
6
CONTINUOUS
10
0.5158481496062992
20
0.0540811023622047
11
0.524426062992126
21
0.0494389763779528
0
LINE
8
BLACK
6
CONTINUOUS
10
0.524426062992126
20
0.0494389763779528
11
0.5321229133858267
21
0.0434482677165354
0
LINE
8
BLACK
6
CONTINUOUS
10
0.5321229133858267
20
0.0434482677165354
11
0.538728779527559
21
0.0362724015748032
0
LINE
8
BLACK
6
CONTINUOUS
10
0.538728779527559
20
0.0362724015748032
11
0.5440634251968504
21
0.028107125984252
0
LINE
8
BLACK
6
CONTINUOUS
10
0.5440634251968504
20
0.028107125984252
11
0.5479813385826772
21
0.019175157480315
0
LINE
8
BLACK
6
CONTINUOUS
10
0.5479813385826772
20
0.019175157480315
11
0.5503756692913385
21
0.009720157480315
0
LINE
8
BLACK
6
CONTINUOUS
10
0.5503756692913385
20
0.009720157480315
11
0.5511811023622047
21
0.
0
LINE
8
BLACK
6
CONTINUOUS
10
0.5511811023622047
20
0.
11
0.5503756692913385
21
-0.009720157480315
0
LINE
8
BLACK
6
CONTINUOUS
10
0.5503756692913385
20
-0.009720157480315
11
0.5479813385826772
21
-0.019175157480315
0
LINE
8
BLACK
6
CONTINUOUS
10
0.5479813385826772
20
-0.019175157480315
11
0.5440634251968504
21
-0.028107125984252
0
LINE
8
BLACK
6
CONTINUOUS
10
0.5440634251968504
20
-0.028107125984252
11
0.538728779527559
21
-0.0362724015748032
0
LINE
8
BLACK
6
CONTINUOUS
10
0.538728779527559
20
-0.0362724015748032
11
0.5321229133858267
21
-0.0434482677165354
0
LINE
8
BLACK
6
CONTINUOUS
10
0.5321229133858267
20
-0.0434482677165354
11
0.524426062992126
21
-0.0494389763779528
0
LINE
8
BLACK
6
CONTINUOUS
10
0.524426062992126
20
-0.0494389763779528
11
0.5158481496062992
21
-0.0540811023622047
0
LINE
8
BLACK
6
CONTINUOUS
10
0.5158481496062992
20
-0.0540811023622047
11
0.5066231496062992
21
-0.057248031496063
0
LINE
8
BLACK
6
CONTINUOUS
10
0.5066231496062992
20
-0.057248031496063
11
0.497002716535433
21
-0.0588534251968504
0
LINE
8
BLACK
6
CONTINUOUS
10
0.497002716535433
20
-0.0588534251968504
11
0.4872492519685039
21
-0.0588534251968504
0
LINE
8
BLACK
6
CONTINUOUS
10
0.4872492519685039
20
-0.0588534251968504
11
0.4776288188976378
21
-0.057248031496063
0
LINE
8
BLACK
6
CONTINUOUS
10
0.4776288188976378
20
-0.057248031496063
11
0.4684038188976378
21
-0.0540811023622047
0
LINE
8
BLACK
6
CONTINUOUS
10
0.4684038188976378
20
-0.0540811023622047
11
0.459825905511811
21
-0.0494389763779528
0
LINE
8
BLACK
6
CONTINUOUS
10
0.459825905511811
20
-0.0494389763779528
11
0.4521290551181102
21
-0.0434482677165354
0
LINE
8
BLACK
6
CONTINUOUS
10
0.4521290551181102
20
-0.0434482677165354
11
0.4455231889763779
21
-0.0362724015748032
0
LINE
8
BLACK
6
CONTINUOUS
10
0.4455231889763779
20
-0.0362724015748032
11
0.4401885433070866
21
-0.028107125984252
0
LINE
8
BLACK
6
CONTINUOUS
10
0.4401885433070866
20
-0.028107125984252
11
0.4362706299212598
21
-0.019175157480315
0
LINE
8
BLACK
6
CONTINUOUS
10
0.4362706299212598
20
-0.019175157480315
11
0.4338762992125984
21
-0.009720157480315
0
LINE
8
BLACK
6
CONTINUOUS
10
0.4338762992125984
20
-0.009720157480315
11
0.4330708661417323
21
0.
0
LINE
8
BLACK
6
CONTINUOUS
10
0.4330708661417323
20
0.
11
0.4338762992125984
21
0.009720157480315
0
LINE
8
BLACK
6
CONTINUOUS
10
0.4338762992125984
20
0.009720157480315
11
0.4362706299212598
21
0.019175157480315
0
LINE
8
BLACK
6
CONTINUOUS
10
0.4362706299212598
20
0.019175157480315
11
0.4401885433070866
21
0.028107125984252
0
LINE
8
BLACK
6
CONTINUOUS
10
0.4401885433070866
20
0.028107125984252
11
0.4455231889763779
21
0.0362724015748032
0
LINE
8
BLACK
6
CONTINUOUS
10
0.4455231889763779
20
0.0362724015748032
11
0.4521290551181102
21
0.0434482677165354
0
LINE
8
BLACK
6
CONTINUOUS
10
0.4521290551181102
20
0.0434482677165354
11
0.459825905511811
21
0.0494389763779528
0
LINE
8
BLACK
6
CONTINUOUS
10
0.459825905511811
20
0.0494389763779528
11
0.4684038188976378
21
0.0540811023622047
0
LINE
8
BLACK
6
CONTINUOUS
10
0.4684038188976378
20
0.0540811023622047
11
0.4776288188976378
21
0.057248031496063
0
LINE
8
BLACK
6
CONTINUOUS
10
0.4776288188976378
20
0.057248031496063
11
0.4872492519685039
21
0.0588534251968504
0
LINE
8
BLACK
6
CONTINUOUS
10
0.4872492519685039
20
0.0588534251968504
11
0.497002716535433
21
0.0588534251968504
0
LINE
8
BLACK
6
CONTINUOUS
10
0.497002716535433
20
0.0588534251968504
11
0.5066231496062992
21
0.057248031496063
0
LINE
8
BLACK
6
CONTINUOUS
10
0.9003239370078739
20
0.057248031496063
11
0.909548937007874
21
0.0540811023622047
0
LINE
8
BLACK
6
CONTINUOUS
10
0.909548937007874
20
0.0540811023622047
11
0.9181268503937008
21
0.0494389763779528
0
LINE
8
BLACK
6
CONTINUOUS
10
0.9181268503937008
20
0.0494389763779528
11
0.9258237007874015
21
0.0434482677165354
0
LINE
8
BLACK
6
CONTINUOUS
10
0.9258237007874015
20
0.0434482677165354
11
0.9324295669291338
21
0.0362724015748032
0
LINE
8
BLACK
6
CONTINUOUS
10
0.9324295669291338
20
0.0362724015748032
11
0.9377642125984251
21
0.028107125984252
0
LINE
8
BLACK
6
CONTINUOUS
10
0.9377642125984251
20
0.028107125984252
11
0.9416821259842519
21
0.019175157480315
0
LINE
8
BLACK
6
CONTINUOUS
10
0.9416821259842519
20
0.019175157480315
11
0.9440764566929134
21
0.009720157480315
0
LINE
8
BLACK
6
CONTINUOUS
10
0.9440764566929134
20
0.009720157480315
11
0.9448818897637795
21
0.
0
LINE
8
BLACK
6
CONTINUOUS
10
0.9448818897637795
20
0.
11
0.9440764566929134
21
-0.009720157480315
0
LINE
8
BLACK
6
CONTINUOUS
10
0.9440764566929134
20
-0.009720157480315
11
0.9416821259842519
21
-0.019175157480315
0
LINE
8
BLACK
6
CONTINUOUS
10
0.9416821259842519
20
-0.019175157480315
11
0.9377642125984251
21
-0.028107125984252
0
LINE
8
BLACK
6
CONTINUOUS
10
0.9377642125984251
20
-0.028107125984252
11
0.9324295669291338
21
-0.0362724015748032
0
LINE
8
BLACK
6
CONTINUOUS
10
0.9324295669291338
20
-0.0362724015748032
11
0.9258237007874015
21
-0.0434482677165354
0
LINE
8
BLACK
6
CONTINUOUS
10
0.9258237007874015
20
-0.0434482677165354
11
0.9181268503937008
21
-0.0494389763779528
0
LINE
8
BLACK
6
CONTINUOUS
10
0.9181268503937008
20
-0.0494389763779528
11
0.909548937007874
21
-0.0540811023622047
0
LINE
8
BLACK
6
CONTINUOUS
10
0.909548937007874
20
-0.0540811023622047
11
0.9003239370078739
21
-0.057248031496063
0
LINE
8
BLACK
6
CONTINUOUS
10
0.9003239370078739
20
-0.057248031496063
11
0.8907035039370078
21
-0.0588534251968504
0
LINE
8
BLACK
6
CONTINUOUS
10
0.8907035039370078
20
-0.0588534251968504
11
0.8809500393700788
21
-0.0588534251968504
0
LINE
8
BLACK
6
CONTINUOUS
10
0.8809500393700788
20
-0.0588534251968504
11
0.8713296062992126
21
-0.057248031496063
0
LINE
8
BLACK
6
CONTINUOUS
10
0.8713296062992126
20
-0.057248031496063
11
0.8621046062992126
21
-0.0540811023622047
0
LINE
8
BLACK
6
CONTINUOUS
10
0.8621046062992126
20
-0.0540811023622047
11
0.8535266929133858
21
-0.0494389763779528
0
LINE
8
BLACK
6
CONTINUOUS
10
0.8535266929133858
20
-0.0494389763779528
11
0.8458298425196851
21
-0.0434482677165354
0
LINE
8
BLACK
6
CONTINUOUS
10
0.8458298425196851
20
-0.0434482677165354
11
0.8392239763779528
21
-0.0362724015748032
0
LINE
8
BLACK
6
CONTINUOUS
10
0.8392239763779528
20
-0.0362724015748032
11
0.8338893307086614
21
-0.028107125984252
0
LINE
8
BLACK
6
CONTINUOUS
10
0.8338893307086614
20
-0.028107125984252
11
0.8299714173228346
21
-0.019175157480315
0
LINE
8
BLACK
6
CONTINUOUS
10
0.8299714173228346
20
-0.019175157480315
11
0.8275770866141732
21
-0.009720157480315
0
LINE
8
BLACK
6
CONTINUOUS
10
0.8275770866141732
20
-0.009720157480315
11
0.8267716535433071
21
0.
0
LINE
8
BLACK
6
CONTINUOUS
10
0.8267716535433071
20
0.
11
0.8275770866141732
21
0.009720157480315
0
LINE
8
BLACK
6
CONTINUOUS
10
0.8275770866141732
20
0.009720157480315
11
0.8299714173228346
21
0.019175157480315
0
LINE
8
BLACK
6
CONTINUOUS
10
0.8299714173228346
20
0.019175157480315
11
0.8338893307086614
21
0.028107125984252
0
LINE
8
BLACK
6
CONTINUOUS
10
0.8338893307086614
20
0.028107125984252
11
0.8392239763779528
21
0.0362724015748032
0
LINE
8
BLACK
6
CONTINUOUS
10
0.8392239763779528
20
0.0362724015748032
11
0.8458298425196851
21
0.0434482677165354
0
LINE
8
BLACK
6
CONTINUOUS
10
0.8458298425196851
20
0.0434482677165354
11
0.8535266929133858
21
0.0494389763779528
0
LINE
8
BLACK
6
CONTINUOUS
10
0.8535266929133858
20
0.0494389763779528
11
0.8621046062992126
21
0.0540811023622047
0
LINE
8
BLACK
6
CONTINUOUS
10
0.8621046062992126
20
0.0540811023622047
11
0.8713296062992126
21
0.057248031496063
0
LINE
8
BLACK
6
CONTINUOUS
10
0.8713296062992126
20
0.057248031496063
11
0.8809500393700788
21
0.0588534251968504
0
LINE
8
BLACK
6
CONTINUOUS
10
0.8809500393700788
20
0.0588534251968504
11
0.8907035039370078
21
0.0588534251968504
0
LINE
8
BLACK
6
CONTINUOUS
10
0.8907035039370078
20
0.0588534251968504
11
0.9003239370078739
21
0.057248031496063
0
LINE
8
BLACK
6
CONTINUOUS
10
0.1114511811023622
20
0.1758722440944882
11
0.1164358661417323
21
0.174128031496063
0
LINE
8
BLACK
6
CONTINUOUS
10
0.1164358661417323
20
0.174128031496063
11
0.1206849606299213
21
0.1709920472440945
0
LINE
8
BLACK
6
CONTINUOUS
10
0.1206849606299213
20
0.1709920472440945
11
0.1238209448818898
21
0.1667429527559055
0
LINE
8
BLACK
6
CONTINUOUS
10
0.1238209448818898
20
0.1667429527559055
11
0.125565157480315
21
0.1617582677165354
0
LINE
8
BLACK
6
CONTINUOUS
10
0.125565157480315
20
0.1617582677165354
11
0.1258740157480315
21
0.1584645669291339
0
LINE
8
BLACK
6
CONTINUOUS
10
0.1258740157480315
20
0.1584645669291339
11
0.1258740157480315
21
0.1387795275590551
0
LINE
8
BLACK
6
CONTINUOUS
10
0.1258740157480315
20
0.1387795275590551
11
0.125565157480315
21
0.1354858267716536
0
LINE
8
BLACK
6
CONTINUOUS
10
0.125565157480315
20
0.1354858267716536
11
0.1238209448818898
21
0.1305011417322835
0
LINE
8
BLACK
6
CONTINUOUS
10
0.1238209448818898
20
0.1305011417322835
11
0.1206849606299213
21
0.1262520472440945
0
LINE
8
BLACK
6
CONTINUOUS
10
0.1206849606299213
20
0.1262520472440945
11
0.1164358661417323
21
0.123116062992126
0
LINE
8
BLACK
6
CONTINUOUS
10
0.1164358661417323
20
0.123116062992126
11
0.1114511811023622
21
0.1213718503937008
0
LINE
8
BLACK
6
CONTINUOUS
10
0.1114511811023622
20
0.1213718503937008
11
0.1081574803149606
21
0.1210629921259842
0
LINE
8
BLACK
6
CONTINUOUS
10
0.1081574803149606
20
0.1210629921259842
11
0.0215433070866142
21
0.1210629921259842
0
LINE
8
BLACK
6
CONTINUOUS
10
0.0215433070866142
20
0.1210629921259842
11
0.0182496062992126
21
0.1213718503937008
0
LINE
8
BLACK
6
CONTINUOUS
10
0.0182496062992126
20
0.1213718503937008
11
0.0132649212598425
21
0.123116062992126
0
LINE
8
BLACK
6
CONTINUOUS
10
0.0132649212598425
20
0.123116062992126
11
0.0090158267716535
21
0.1262520472440945
0
LINE
8
BLACK
6
CONTINUOUS
10
0.0090158267716535
20
0.1262520472440945
11
0.005879842519685
21
0.1305011417322835
0
LINE
8
BLACK
6
CONTINUOUS
10
0.005879842519685
20
0.1305011417322835
11
0.0041356299212598
21
0.1354858267716536
0
LINE
8
BLACK
6
CONTINUOUS
10
0.0041356299212598
20
0.1354858267716536
11
0.0038267716535433
21
0.1387795275590551
0
LINE
8
BLACK
6
CONTINUOUS
10
0.0038267716535433
20
0.1387795275590551
11
0.0038267716535433
21
0.1584645669291339
0
LINE
8
BLACK
6
CONTINUOUS
10
0.0038267716535433
20
0.1584645669291339
11
0.0041356299212598
21
0.1617582677165354
0
LINE
8
BLACK
6
CONTINUOUS
10
0.0041356299212598
20
0.1617582677165354
11
0.005879842519685
21
0.1667429527559055
0
LINE
8
BLACK
6
CONTINUOUS
10
0.005879842519685
20
0.1667429527559055
11
0.0090158267716535
21
0.1709920472440945
0
LINE
8
BLACK
6
CONTINUOUS
10
0.0090158267716535
20
0.1709920472440945
11
0.0132649212598425
21
0.174128031496063
0
LINE
8
BLACK
6
CONTINUOUS
10
0.0132649212598425
20
0.174128031496063
11
0.0182496062992126
21
0.1758722440944882
0
LINE
8
BLACK
6
CONTINUOUS
10
0.0182496062992126
20
0.1758722440944882
11
0.0215433070866142
21
0.1761811023622047
0
LINE
8
BLACK
6
CONTINUOUS
10
0.0215433070866142
20
0.1761811023622047
11
0.1081574803149606
21
0.1761811023622047
0
LINE
8
BLACK
6
CONTINUOUS
10
0.1081574803149606
20
0.1761811023622047
11
0.1114511811023622
21
0.1758722440944882
0
LINE
8
BLACK
6
CONTINUOUS
10
0.2223255118110236
20
0.2405688976377953
11
0.2264006692913386
21
0.2385766535433071
0
LINE
8
BLACK
6
CONTINUOUS
10
0.2264006692913386
20
0.2385766535433071
11
0.2296081496062992
21
0.2353691732283464
0
LINE
8
BLACK
6
CONTINUOUS
10
0.2296081496062992
20
0.2353691732283464
11
0.2316003937007874
21
0.2312940157480315
0
LINE
8
BLACK
6
CONTINUOUS
10
0.2316003937007874
20
0.2312940157480315
11
0.2321732283464567
21
0.2273622047244094
0
LINE
8
BLACK
6
CONTINUOUS
10
0.2321732283464567
20
0.2273622047244094
11
0.2321732283464567
21
0.2155511811023622
0
LINE
8
BLACK
6
CONTINUOUS
10
0.2321732283464567
20
0.2155511811023622
11
0.2316003937007874
21
0.2116193700787402
0
LINE
8
BLACK
6
CONTINUOUS
10
0.2316003937007874
20
0.2116193700787402
11
0.2296081496062992
21
0.2075442125984252
0
LINE
8
BLACK
6
CONTINUOUS
10
0.2296081496062992
20
0.2075442125984252
11
0.2264006692913386
21
0.2043367322834646
0
LINE
8
BLACK
6
CONTINUOUS
10
0.2264006692913386
20
0.2043367322834646
11
0.2223255118110236
21
0.2023444881889764
0
LINE
8
BLACK
6
CONTINUOUS
10
0.2223255118110236
20
0.2023444881889764
11
0.2183937007874016
21
0.2017716535433071
0
LINE
8
BLACK
6
CONTINUOUS
10
0.2183937007874016
20
0.2017716535433071
11
0.1632755905511811
21
0.2017716535433071
0
LINE
8
BLACK
6
CONTINUOUS
10
0.1632755905511811
20
0.2017716535433071
11
0.159343779527559
21
0.2023444881889764
0
LINE
8
BLACK
6
CONTINUOUS
10
0.159343779527559
20
0.2023444881889764
11
0.1552686220472441
21
0.2043367322834646
0
LINE
8
BLACK
6
CONTINUOUS
10
0.1552686220472441
20
0.2043367322834646
11
0.1520611417322835
21
0.2075442125984252
0
LINE
8
BLACK
6
CONTINUOUS
10
0.1520611417322835
20
0.2075442125984252
11
0.1500688976377953
21
0.2116193700787402
0
LINE
8
BLACK
6
CONTINUOUS
10
0.1500688976377953
20
0.2116193700787402
11
0.149496062992126
21
0.2155511811023622
0
LINE
8
BLACK
6
CONTINUOUS
10
0.149496062992126
20
0.2155511811023622
11
0.149496062992126
21
0.2273622047244094
0
LINE
8
BLACK
6
CONTINUOUS
10
0.149496062992126
20
0.2273622047244094
11
0.1500688976377953
21
0.2312940157480315
0
LINE
8
BLACK
6
CONTINUOUS
10
0.1500688976377953
20
0.2312940157480315
11
0.1520611417322835
21
0.2353691732283464
0
LINE
8
BLACK
6
CONTINUOUS
10
0.1520611417322835
20
0.2353691732283464
11
0.1552686220472441
21
0.2385766535433071
0
LINE
8
BLACK
6
CONTINUOUS
10
0.1552686220472441
20
0.2385766535433071
11
0.159343779527559
21
0.2405688976377953
0
LINE
8
BLACK
6
CONTINUOUS
10
0.159343779527559
20
0.2405688976377953
11
0.1632755905511811
21
0.2411417322834646
0
LINE
8
BLACK
6
CONTINUOUS
10
0.1632755905511811
20
0.2411417322834646
11
0.2183937007874016
21
0.2411417322834646
0
LINE
8
BLACK
6
CONTINUOUS
10
0.2183937007874016
20
0.2411417322834646
11
0.2223255118110236
21
0.2405688976377953
0
LINE
8
BLACK
6
CONTINUOUS
10
0.2223255118110236
20
0.2897814960629921
11
0.2264006692913386
21
0.2877892519685039
0
LINE
8
BLACK
6
CONTINUOUS
10
0.2264006692913386
20
0.2877892519685039
11
0.2296081496062992
21
0.2845817716535433
0
LINE
8
BLACK
6
CONTINUOUS
10
0.2296081496062992
20
0.2845817716535433
11
0.2316003937007874
21
0.2805066141732284
0
LINE
8
BLACK
6
CONTINUOUS
10
0.2316003937007874
20
0.2805066141732284
11
0.2321732283464567
21
0.2765748031496063
0
LINE
8
BLACK
6
CONTINUOUS
10
0.2321732283464567
20
0.2765748031496063
11
0.2321732283464567
21
0.264763779527559
0
LINE
8
BLACK
6
CONTINUOUS
10
0.2321732283464567
20
0.264763779527559
11
0.2316003937007874
21
0.260831968503937
0
LINE
8
BLACK
6
CONTINUOUS
10
0.2316003937007874
20
0.260831968503937
11
0.2296081496062992
21
0.256756811023622
0
LINE
8
BLACK
6
CONTINUOUS
10
0.2296081496062992
20
0.256756811023622
11
0.2264006692913386
21
0.2535493307086614
0
LINE
8
BLACK
6
CONTINUOUS
10
0.2264006692913386
20
0.2535493307086614
11
0.2223255118110236
21
0.2515570866141732
0
LINE
8
BLACK
6
CONTINUOUS
10
0.2223255118110236
20
0.2515570866141732
11
0.2183937007874016
21
0.2509842519685039
0
LINE
8
BLACK
6
CONTINUOUS
10
0.2183937007874016
20
0.2509842519685039
11
0.1632755905511811
21
0.2509842519685039
0
LINE
8
BLACK
6
CONTINUOUS
10
0.1632755905511811
20
0.2509842519685039
11
0.159343779527559
21
0.2515570866141732
0
LINE
8
BLACK
6
CONTINUOUS
10
0.159343779527559
20
0.2515570866141732
11
0.1552686220472441
21
0.2535493307086614
0
LINE
8
BLACK
6
CONTINUOUS
10
0.1552686220472441
20
0.2535493307086614
11
0.1520611417322835
21
0.256756811023622
0
LINE
8
BLACK
6
CONTINUOUS
10
0.1520611417322835
20
0.256756811023622
11
0.1500688976377953
21
0.260831968503937
0
LINE
8
BLACK
6
CONTINUOUS
10
0.1500688976377953
20
0.260831968503937
11
0.149496062992126
21
0.264763779527559
0
LINE
8
BLACK
6
CONTINUOUS
10
0.149496062992126
20
0.264763779527559
11
0.149496062992126
21
0.2765748031496063
0
LINE
8
BLACK
6
CONTINUOUS
10
0.149496062992126
20
0.2765748031496063
11
0.1500688976377953
21
0.2805066141732284
0
LINE
8
BLACK
6
CONTINUOUS
10
0.1500688976377953
20
0.2805066141732284
11
0.1520611417322835
21
0.2845817716535433
0
LINE
8
BLACK
6
CONTINUOUS
10
0.1520611417322835
20
0.2845817716535433
11
0.1552686220472441
21
0.2877892519685039
0
LINE
8
BLACK
6
CONTINUOUS
10
0.1552686220472441
20
0.2877892519685039
11
0.159343779527559
21
0.2897814960629921
0
LINE
8
BLACK
6
CONTINUOUS
10
0.159343779527559
20
0.2897814960629921
11
0.1632755905511811
21
0.2903543307086614
0
LINE
8
BLACK
6
CONTINUOUS
10
0.1632755905511811
20
0.2903543307086614
11
0.2183937007874016
21
0.2903543307086614
0
LINE
8
BLACK
6
CONTINUOUS
10
0.2183937007874016
20
0.2903543307086614
11
0.2223255118110236
21
0.2897814960629921
0
LINE
8
BLACK
6
CONTINUOUS
10
0.2223255118110236
20
0.338994094488189
11
0.2264006692913386
21
0.3370018503937008
0
LINE
8
BLACK
6
CONTINUOUS
10
0.2264006692913386
20
0.3370018503937008
11
0.2296081496062992
21
0.3337943700787401
0
LINE
8
BLACK
6
CONTINUOUS
10
0.2296081496062992
20
0.3337943700787401
11
0.2316003937007874
21
0.3297192125984252
0
LINE
8
BLACK
6
CONTINUOUS
10
0.2316003937007874
20
0.3297192125984252
11
0.2321732283464567
21
0.3257874015748031
0
LINE
8
BLACK
6
CONTINUOUS
10
0.2321732283464567
20
0.3257874015748031
11
0.2321732283464567
21
0.3139763779527559
0
LINE
8
BLACK
6
CONTINUOUS
10
0.2321732283464567
20
0.3139763779527559
11
0.2316003937007874
21
0.3100445669291338
0
LINE
8
BLACK
6
CONTINUOUS
10
0.2316003937007874
20
0.3100445669291338
11
0.2296081496062992
21
0.3059694094488189
0
LINE
8
BLACK
6
CONTINUOUS
10
0.2296081496062992
20
0.3059694094488189
11
0.2264006692913386
21
0.3027619291338582
0
LINE
8
BLACK
6
CONTINUOUS
10
0.2264006692913386
20
0.3027619291338582
11
0.2223255118110236
21
0.3007696850393701
0
LINE
8
BLACK
6
CONTINUOUS
10
0.2223255118110236
20
0.3007696850393701
11
0.2183937007874016
21
0.3001968503937008
0
LINE
8
BLACK
6
CONTINUOUS
10
0.2183937007874016
20
0.3001968503937008
11
0.1632755905511811
21
0.3001968503937008
0
LINE
8
BLACK
6
CONTINUOUS
10
0.1632755905511811
20
0.3001968503937008
11
0.159343779527559
21
0.3007696850393701
0
LINE
8
BLACK
6
CONTINUOUS
10
0.159343779527559
20
0.3007696850393701
11
0.1552686220472441
21
0.3027619291338582
0
LINE
8
BLACK
6
CONTINUOUS
10
0.1552686220472441
20
0.3027619291338582
11
0.1520611417322835
21
0.3059694094488189
0
LINE
8
BLACK
6
CONTINUOUS
10
0.1520611417322835
20
0.3059694094488189
11
0.1500688976377953
21
0.3100445669291338
0
LINE
8
BLACK
6
CONTINUOUS
10
0.1500688976377953
20
0.3100445669291338
11
0.149496062992126
21
0.3139763779527559
0
LINE
8
BLACK
6
CONTINUOUS
10
0.149496062992126
20
0.3139763779527559
11
0.149496062992126
21
0.3257874015748031
0
LINE
8
BLACK
6
CONTINUOUS
10
0.149496062992126
20
0.3257874015748031
11
0.1500688976377953
21
0.3297192125984252
0
LINE
8
BLACK
6
CONTINUOUS
10
0.1500688976377953
20
0.3297192125984252
11
0.1520611417322835
21
0.3337943700787401
0
LINE
8
BLACK
6
CONTINUOUS
10
0.1520611417322835
20
0.3337943700787401
11
0.1552686220472441
21
0.3370018503937008
0
LINE
8
BLACK
6
CONTINUOUS
10
0.1552686220472441
20
0.3370018503937008
11
0.159343779527559
21
0.338994094488189
0
LINE
8
BLACK
6
CONTINUOUS
10
0.159343779527559
20
0.338994094488189
11
0.1632755905511811
21
0.3395669291338583
0
LINE
8
BLACK
6
CONTINUOUS
10
0.1632755905511811
20
0.3395669291338583
11
0.2183937007874016
21
0.3395669291338583
0
LINE
8
BLACK
6
CONTINUOUS
10
0.2183937007874016
20
0.3395669291338583
11
0.2223255118110236
21
0.338994094488189
0
LINE
8
BLACK
6
CONTINUOUS
10
0.2223255118110236
20
0.3882066929133858
11
0.2264006692913386
21
0.3862144488188976
0
LINE
8
BLACK
6
CONTINUOUS
10
0.2264006692913386
20
0.3862144488188976
11
0.2296081496062992
21
0.383006968503937
0
LINE
8
BLACK
6
CONTINUOUS
10
0.2296081496062992
20
0.383006968503937
11
0.2316003937007874
21
0.3789318110236221
0
LINE
8
BLACK
6
CONTINUOUS
10
0.2316003937007874
20
0.3789318110236221
11
0.2321732283464567
21
0.375
0
LINE
8
BLACK
6
CONTINUOUS
10
0.2321732283464567
20
0.375
11
0.2321732283464567
21
0.3631889763779527
0
LINE
8
BLACK
6
CONTINUOUS
10
0.2321732283464567
20
0.3631889763779527
11
0.2316003937007874
21
0.3592571653543307
0
LINE
8
BLACK
6
CONTINUOUS
10
0.2316003937007874
20
0.3592571653543307
11
0.2296081496062992
21
0.3551820078740157
0
LINE
8
BLACK
6
CONTINUOUS
10
0.2296081496062992
20
0.3551820078740157
11
0.2264006692913386
21
0.3519745275590551
0
LINE
8
BLACK
6
CONTINUOUS
10
0.2264006692913386
20
0.3519745275590551
11
0.2223255118110236
21
0.3499822834645669
0
LINE
8
BLACK
6
CONTINUOUS
10
0.2223255118110236
20
0.3499822834645669
11
0.2183937007874016
21
0.3494094488188976
0
LINE
8
BLACK
6
CONTINUOUS
10
0.2183937007874016
20
0.3494094488188976
11
0.1632755905511811
21
0.3494094488188976
0
LINE
8
BLACK
6
CONTINUOUS
10
0.1632755905511811
20
0.3494094488188976
11
0.159343779527559
21
0.3499822834645669
0
LINE
8
BLACK
6
CONTINUOUS
10
0.159343779527559
20
0.3499822834645669
11
0.1552686220472441
21
0.3519745275590551
0
LINE
8
BLACK
6
CONTINUOUS
10
0.1552686220472441
20
0.3519745275590551
11
0.1520611417322835
21
0.3551820078740157
0
LINE
8
BLACK
6
CONTINUOUS
10
0.1520611417322835
20
0.3551820078740157
11
0.1500688976377953
21
0.3592571653543307
0
LINE
8
BLACK
6
CONTINUOUS
10
0.1500688976377953
20
0.3592571653543307
11
0.149496062992126
21
0.3631889763779527
0
LINE
8
BLACK
6
CONTINUOUS
10
0.149496062992126
20
0.3631889763779527
11
0.149496062992126
21
0.375
0
LINE
8
BLACK
6
CONTINUOUS
10
0.149496062992126
20
0.375
11
0.1500688976377953
21
0.3789318110236221
0
LINE
8
BLACK
6
CONTINUOUS
10
0.1500688976377953
20
0.3789318110236221
11
0.1520611417322835
21
0.383006968503937
0
LINE
8
BLACK
6
CONTINUOUS
10
0.1520611417322835
20
0.383006968503937
11
0.1552686220472441
21
0.3862144488188976
0
LINE
8
BLACK
6
CONTINUOUS
10
0.1552686220472441
20
0.3862144488188976
11
0.159343779527559
21
0.3882066929133858
0
LINE
8
BLACK
6
CONTINUOUS
10
0.159343779527559
20
0.3882066929133858
11
0.1632755905511811
21
0.3887795275590551
0
LINE
8
BLACK
6
CONTINUOUS
10
0.1632755905511811
20
0.3887795275590551
11
0.2183937007874016
21
0.3887795275590551
0
LINE
8
BLACK
6
CONTINUOUS
10
0.2183937007874016
20
0.3887795275590551
11
0.2223255118110236
21
0.3882066929133858
0
LINE
8
BLACK
6
CONTINUOUS
10
0.1114511811023622
20
0.4691793307086614
11
0.1164358661417323
21
0.4674351181102362
0
LINE
8
BLACK
6
CONTINUOUS
10
0.1164358661417323
20
0.4674351181102362
11
0.1206849606299213
21
0.4642991338582677
0
LINE
8
BLACK
6
CONTINUOUS
10
0.1206849606299213
20
0.4642991338582677
11
0.1238209448818898
21
0.4600500393700787
0
LINE
8
BLACK
6
CONTINUOUS
10
0.1238209448818898
20
0.4600500393700787
11
0.125565157480315
21
0.4550653543307087
0
LINE
8
BLACK
6
CONTINUOUS
10
0.125565157480315
20
0.4550653543307087
11
0.1258740157480315
21
0.4517716535433071
0
LINE
8
BLACK
6
CONTINUOUS
10
0.1258740157480315
20
0.4517716535433071
11
0.1258740157480315
21
0.4320866141732284
0
LINE
8
BLACK
6
CONTINUOUS
10
0.1258740157480315
20
0.4320866141732284
11
0.125565157480315
21
0.4287929133858268
0
LINE
8
BLACK
6
CONTINUOUS
10
0.125565157480315
20
0.4287929133858268
11
0.1238209448818898
21
0.4238082283464567
0
LINE
8
BLACK
6
CONTINUOUS
10
0.1238209448818898
20
0.4238082283464567
11
0.1206849606299213
21
0.4195591338582677
0
LINE
8
BLACK
6
CONTINUOUS
10
0.1206849606299213
20
0.4195591338582677
11
0.1164358661417323
21
0.4164231496062992
0
LINE
8
BLACK
6
CONTINUOUS
10
0.1164358661417323
20
0.4164231496062992
11
0.1114511811023622
21
0.414678937007874
0
LINE
8
BLACK
6
CONTINUOUS
10
0.1114511811023622
20
0.414678937007874
11
0.1081574803149606
21
0.4143700787401575
0
LINE
8
BLACK
6
CONTINUOUS
10
0.1081574803149606
20
0.4143700787401575
11
0.0215433070866142
21
0.4143700787401575
0
LINE
8
BLACK
6
CONTINUOUS
10
0.0215433070866142
20
0.4143700787401575
11
0.0182496062992126
21
0.414678937007874
0
LINE
8
BLACK
6
CONTINUOUS
10
0.0182496062992126
20
0.414678937007874
11
0.0132649212598425
21
0.4164231496062992
0
LINE
8
BLACK
6
CONTINUOUS
10
0.0132649212598425
20
0.4164231496062992
11
0.0090158267716535
21
0.4195591338582677
0
LINE
8
BLACK
6
CONTINUOUS
10
0.0090158267716535
20
0.4195591338582677
11
0.005879842519685
21
0.4238082283464567
0
LINE
8
BLACK
6
CONTINUOUS
10
0.005879842519685
20
0.4238082283464567
11
0.0041356299212598
21
0.4287929133858268
0
LINE
8
BLACK
6
CONTINUOUS
10
0.0041356299212598
20
0.4287929133858268
11
0.0038267716535433
21
0.4320866141732284
0
LINE
8
BLACK
6
CONTINUOUS
10
0.0038267716535433
20
0.4320866141732284
11
0.0038267716535433
21
0.4517716535433071
0
LINE
8
BLACK
6
CONTINUOUS
10
0.0038267716535433
20
0.4517716535433071
11
0.0041356299212598
21
0.4550653543307087
0
LINE
8
BLACK
6
CONTINUOUS
10
0.0041356299212598
20
0.4550653543307087
11
0.005879842519685
21
0.4600500393700787
0
LINE
8
BLACK
6
CONTINUOUS
10
0.005879842519685
20
0.4600500393700787
11
0.0090158267716535
21
0.4642991338582677
0
LINE
8
BLACK
6
CONTINUOUS
10
0.0090158267716535
20
0.4642991338582677
11
0.0132649212598425
21
0.4674351181102362
0
LINE
8
BLACK
6
CONTINUOUS
10
0.0132649212598425
20
0.4674351181102362
11
0.0182496062992126
21
0.4691793307086614
0
LINE
8
BLACK
6
CONTINUOUS
10
0.0182496062992126
20
0.4691793307086614
11
0.0215433070866142
21
0.469488188976378
0
LINE
8
BLACK
6
CONTINUOUS
10
0.0215433070866142
20
0.469488188976378
11
0.1081574803149606
21
0.469488188976378
0
LINE
8
BLACK
6
CONTINUOUS
10
0.1081574803149606
20
0.469488188976378
11
0.1114511811023622
21
0.4691793307086614
0
LINE
8
BLACK
6
CONTINUOUS
10
0.1129223622047244
20
0.6477992125984252
11
0.1221473622047244
21
0.6446322834645669
0
LINE
8
BLACK
6
CONTINUOUS
10
0.1221473622047244
20
0.6446322834645669
11
0.1307252755905512
21
0.639990157480315
0
LINE
8
BLACK
6
CONTINUOUS
10
0.1307252755905512
20
0.639990157480315
11
0.138422125984252
21
0.6339994488188976
0
LINE
8
BLACK
6
CONTINUOUS
10
0.138422125984252
20
0.6339994488188976
11
0.1450279921259842
21
0.6268235826771653
0
LINE
8
BLACK
6
CONTINUOUS
10
0.1450279921259842
20
0.6268235826771653
11
0.1503626377952756
21
0.6186583070866142
0
LINE
8
BLACK
6
CONTINUOUS
10
0.1503626377952756
20
0.6186583070866142
11
0.1542805511811024
21
0.6097263385826771
0
LINE
8
BLACK
6
CONTINUOUS
10
0.1542805511811024
20
0.6097263385826771
11
0.1566748818897638
21
0.6002713385826771
0
LINE
8
BLACK
6
CONTINUOUS
10
0.1566748818897638
20
0.6002713385826771
11
0.1574803149606299
21
0.5905511811023622
0
LINE
8
BLACK
6
CONTINUOUS
10
0.1574803149606299
20
0.5905511811023622
11
0.1566748818897638
21
0.5808310236220472
0
LINE
8
BLACK
6
CONTINUOUS
10
0.1566748818897638
20
0.5808310236220472
11
0.1542805511811024
21
0.5713760236220472
0
LINE
8
BLACK
6
CONTINUOUS
10
0.1542805511811024
20
0.5713760236220472
11
0.1503626377952756
21
0.5624440551181102
0
LINE
8
BLACK
6
CONTINUOUS
10
0.1503626377952756
20
0.5624440551181102
11
0.1450279921259842
21
0.554278779527559
0
LINE
8
BLACK
6
CONTINUOUS
10
0.1450279921259842
20
0.554278779527559
11
0.138422125984252
21
0.5471029133858267
0
LINE
8
BLACK
6
CONTINUOUS
10
0.138422125984252
20
0.5471029133858267
11
0.1307252755905512
21
0.5411122047244095
0
LINE
8
BLACK
6
CONTINUOUS
10
0.1307252755905512
20
0.5411122047244095
11
0.1221473622047244
21
0.5364700787401575
0
LINE
8
BLACK
6
CONTINUOUS
10
0.1221473622047244
20
0.5364700787401575
11
0.1129223622047244
21
0.5333031496062992
0
LINE
8
BLACK
6
CONTINUOUS
10
0.1129223622047244
20
0.5333031496062992
11
0.1033019291338583
21
0.5316977559055118
0
LINE
8
BLACK
6
CONTINUOUS
10
0.1033019291338583
20
0.5316977559055118
11
0.0935484645669291
21
0.5316977559055118
0
LINE
8
BLACK
6
CONTINUOUS
10
0.0935484645669291
20
0.5316977559055118
11
0.083928031496063
21
0.5333031496062992
0
LINE
8
BLACK
6
CONTINUOUS
10
0.083928031496063
20
0.5333031496062992
11
0.074703031496063
21
0.5364700787401575
0
LINE
8
BLACK
6
CONTINUOUS
10
0.074703031496063
20
0.5364700787401575
11
0.0661251181102362
21
0.5411122047244095
0
LINE
8
BLACK
6
CONTINUOUS
10
0.0661251181102362
20
0.5411122047244095
11
0.0584282677165354
21
0.5471029133858267
0
LINE
8
BLACK
6
CONTINUOUS
10
0.0584282677165354
20
0.5471029133858267
11
0.0518224015748031
21
0.554278779527559
0
LINE
8
BLACK
6
CONTINUOUS
10
0.0518224015748031
20
0.554278779527559
11
0.0464877559055118
21
0.5624440551181102
0
LINE
8
BLACK
6
CONTINUOUS
10
0.0464877559055118
20
0.5624440551181102
11
0.042569842519685
21
0.5713760236220472
0
LINE
8
BLACK
6
CONTINUOUS
10
0.042569842519685
20
0.5713760236220472
11
0.0401755118110236
21
0.5808310236220472
0
LINE
8
BLACK
6
CONTINUOUS
10
0.0401755118110236
20
0.5808310236220472
11
0.0393700787401575
21
0.5905511811023622
0
LINE
8
BLACK
6
CONTINUOUS
10
0.0393700787401575
20
0.5905511811023622
11
0.0401755118110236
21
0.6002713385826771
0
LINE
8
BLACK
6
CONTINUOUS
10
0.0401755118110236
20
0.6002713385826771
11
0.042569842519685
21
0.6097263385826771
0
LINE
8
BLACK
6
CONTINUOUS
10
0.042569842519685
20
0.6097263385826771
11
0.0464877559055118
21
0.6186583070866142
0
LINE
8
BLACK
6
CONTINUOUS
10
0.0464877559055118
20
0.6186583070866142
11
0.0518224015748031
21
0.6268235826771653
0
LINE
8
BLACK
6
CONTINUOUS
10
0.0518224015748031
20
0.6268235826771653
11
0.0584282677165354
21
0.6339994488188976
0
LINE
8
BLACK
6
CONTINUOUS
10
0.0584282677165354
20
0.6339994488188976
11
0.0661251181102362
21
0.639990157480315
0
LINE
8
BLACK
6
CONTINUOUS
10
0.0661251181102362
20
0.639990157480315
11
0.074703031496063
21
0.6446322834645669
0
LINE
8
BLACK
6
CONTINUOUS
10
0.074703031496063
20
0.6446322834645669
11
0.083928031496063
21
0.6477992125984252
0
LINE
8
BLACK
6
CONTINUOUS
10
0.083928031496063
20
0.6477992125984252
11
0.0935484645669291
21
0.6494046062992126
0
LINE
8
BLACK
6
CONTINUOUS
10
0.0935484645669291
20
0.6494046062992126
11
0.1033019291338583
21
0.6494046062992126
0
LINE
8
BLACK
6
CONTINUOUS
10
0.1033019291338583
20
0.6494046062992126
11
0.1129223622047244
21
0.6477992125984252
0
LINE
8
BLACK
6
CONTINUOUS
10
0.5066231496062992
20
0.6477992125984252
11
0.5158481496062992
21
0.6446322834645669
0
LINE
8
BLACK
6
CONTINUOUS
10
0.5158481496062992
20
0.6446322834645669
11
0.524426062992126
21
0.639990157480315
0
LINE
8
BLACK
6
CONTINUOUS
10
0.524426062992126
20
0.639990157480315
11
0.5321229133858267
21
0.6339994488188976
0
LINE
8
BLACK
6
CONTINUOUS
10
0.5321229133858267
20
0.6339994488188976
11
0.538728779527559
21
0.6268235826771653
0
LINE
8
BLACK
6
CONTINUOUS
10
0.538728779527559
20
0.6268235826771653
11
0.5440634251968504
21
0.6186583070866142
0
LINE
8
BLACK
6
CONTINUOUS
10
0.5440634251968504
20
0.6186583070866142
11
0.5479813385826772
21
0.6097263385826771
0
LINE
8
BLACK
6
CONTINUOUS
10
0.5479813385826772
20
0.6097263385826771
11
0.5503756692913385
21
0.6002713385826771
0
LINE
8
BLACK
6
CONTINUOUS
10
0.5503756692913385
20
0.6002713385826771
11
0.5511811023622047
21
0.5905511811023622
0
LINE
8
BLACK
6
CONTINUOUS
10
0.5511811023622047
20
0.5905511811023622
11
0.5503756692913385
21
0.5808310236220472
0
LINE
8
BLACK
6
CONTINUOUS
10
0.5503756692913385
20
0.5808310236220472
11
0.5479813385826772
21
0.5713760236220472
0
LINE
8
BLACK
6
CONTINUOUS
10
0.5479813385826772
20
0.5713760236220472
11
0.5440634251968504
21
0.5624440551181102
0
LINE
8
BLACK
6
CONTINUOUS
10
0.5440634251968504
20
0.5624440551181102
11
0.538728779527559
21
0.554278779527559
0
LINE
8
BLACK
6
CONTINUOUS
10
0.538728779527559
20
0.554278779527559
11
0.5321229133858267
21
0.5471029133858267
0
LINE
8
BLACK
6
CONTINUOUS
10
0.5321229133858267
20
0.5471029133858267
11
0.524426062992126
21
0.5411122047244095
0
LINE
8
BLACK
6
CONTINUOUS
10
0.524426062992126
20
0.5411122047244095
11
0.5158481496062992
21
0.5364700787401575
0
LINE
8
BLACK
6
CONTINUOUS
10
0.5158481496062992
20
0.5364700787401575
11
0.5066231496062992
21
0.5333031496062992
0
LINE
8
BLACK
6
CONTINUOUS
10
0.5066231496062992
20
0.5333031496062992
11
0.497002716535433
21
0.5316977559055118
0
LINE
8
BLACK
6
CONTINUOUS
10
0.497002716535433
20
0.5316977559055118
11
0.4872492519685039
21
0.5316977559055118
0
LINE
8
BLACK
6
CONTINUOUS
10
0.4872492519685039
20
0.5316977559055118
11
0.4776288188976378
21
0.5333031496062992
0
LINE
8
BLACK
6
CONTINUOUS
10
0.4776288188976378
20
0.5333031496062992
11
0.4684038188976378
21
0.5364700787401575
0
LINE
8
BLACK
6
CONTINUOUS
10
0.4684038188976378
20
0.5364700787401575
11
0.459825905511811
21
0.5411122047244095
0
LINE
8
BLACK
6
CONTINUOUS
10
0.459825905511811
20
0.5411122047244095
11
0.4521290551181102
21
0.5471029133858267
0
LINE
8
BLACK
6
CONTINUOUS
10
0.4521290551181102
20
0.5471029133858267
11
0.4455231889763779
21
0.554278779527559
0
LINE
8
BLACK
6
CONTINUOUS
10
0.4455231889763779
20
0.554278779527559
11
0.4401885433070866
21
0.5624440551181102
0
LINE
8
BLACK
6
CONTINUOUS
10
0.4401885433070866
20
0.5624440551181102
11
0.4362706299212598
21
0.5713760236220472
0
LINE
8
BLACK
6
CONTINUOUS
10
0.4362706299212598
20
0.5713760236220472
11
0.4338762992125984
21
0.5808310236220472
0
LINE
8
BLACK
6
CONTINUOUS
10
0.4338762992125984
20
0.5808310236220472
11
0.4330708661417323
21
0.5905511811023622
0
LINE
8
BLACK
6
CONTINUOUS
10
0.4330708661417323
20
0.5905511811023622
11
0.4338762992125984
21
0.6002713385826771
0
LINE
8
BLACK
6
CONTINUOUS
10
0.4338762992125984
20
0.6002713385826771
11
0.4362706299212598
21
0.6097263385826771
0
LINE
8
BLACK
6
CONTINUOUS
10
0.4362706299212598
20
0.6097263385826771
11
0.4401885433070866
21
0.6186583070866142
0
LINE
8
BLACK
6
CONTINUOUS
10
0.4401885433070866
20
0.6186583070866142
11
0.4455231889763779
21
0.6268235826771653
0
LINE
8
BLACK
6
CONTINUOUS
10
0.4455231889763779
20
0.6268235826771653
11
0.4521290551181102
21
0.6339994488188976
0
LINE
8
BLACK
6
CONTINUOUS
10
0.4521290551181102
20
0.6339994488188976
11
0.459825905511811
21
0.639990157480315
0
LINE
8
BLACK
6
CONTINUOUS
10
0.459825905511811
20
0.639990157480315
11
0.4684038188976378
21
0.6446322834645669
0
LINE
8
BLACK
6
CONTINUOUS
10
0.4684038188976378
20
0.6446322834645669
11
0.4776288188976378
21
0.6477992125984252
0
LINE
8
BLACK
6
CONTINUOUS
10
0.4776288188976378
20
0.6477992125984252
11
0.4872492519685039
21
0.6494046062992126
0
LINE
8
BLACK
6
CONTINUOUS
10
0.4872492519685039
20
0.6494046062992126
11
0.497002716535433
21
0.6494046062992126
0
LINE
8
BLACK
6
CONTINUOUS
10
0.497002716535433
20
0.6494046062992126
11
0.5066231496062992
21
0.6477992125984252
0
LINE
8
BLACK
6
CONTINUOUS
10
0.9003239370078739
20
0.6477992125984252
11
0.909548937007874
21
0.6446322834645669
0
LINE
8
BLACK
6
CONTINUOUS
10
0.909548937007874
20
0.6446322834645669
11
0.9181268503937008
21
0.639990157480315
0
LINE
8
BLACK
6
CONTINUOUS
10
0.9181268503937008
20
0.639990157480315
11
0.9258237007874015
21
0.6339994488188976
0
LINE
8
BLACK
6
CONTINUOUS
10
0.9258237007874015
20
0.6339994488188976
11
0.9324295669291338
21
0.6268235826771653
0
LINE
8
BLACK
6
CONTINUOUS
10
0.9324295669291338
20
0.6268235826771653
11
0.9377642125984251
21
0.6186583070866142
0
LINE
8
BLACK
6
CONTINUOUS
10
0.9377642125984251
20
0.6186583070866142
11
0.9416821259842519
21
0.6097263385826771
0
LINE
8
BLACK
6
CONTINUOUS
10
0.9416821259842519
20
0.6097263385826771
11
0.9440764566929134
21
0.6002713385826771
0
LINE
8
BLACK
6
CONTINUOUS
10
0.9440764566929134
20
0.6002713385826771
11
0.9448818897637795
21
0.5905511811023622
0
LINE
8
BLACK
6
CONTINUOUS
10
0.9448818897637795
20
0.5905511811023622
11
0.9440764566929134
21
0.5808310236220472
0
LINE
8
BLACK
6
CONTINUOUS
10
0.9440764566929134
20
0.5808310236220472
11
0.9416821259842519
21
0.5713760236220472
0
LINE
8
BLACK
6
CONTINUOUS
10
0.9416821259842519
20
0.5713760236220472
11
0.9377642125984251
21
0.5624440551181102
0
LINE
8
BLACK
6
CONTINUOUS
10
0.9377642125984251
20
0.5624440551181102
11
0.9324295669291338
21
0.554278779527559
0
LINE
8
BLACK
6
CONTINUOUS
10
0.9324295669291338
20
0.554278779527559
11
0.9258237007874015
21
0.5471029133858267
0
LINE
8
BLACK
6
CONTINUOUS
10
0.9258237007874015
20
0.5471029133858267
11
0.9181268503937008
21
0.5411122047244095
0
LINE
8
BLACK
6
CONTINUOUS
10
0.9181268503937008
20
0.5411122047244095
11
0.909548937007874
21
0.5364700787401575
0
LINE
8
BLACK
6
CONTINUOUS
10
0.909548937007874
20
0.5364700787401575
11
0.9003239370078739
21
0.5333031496062992
0
LINE
8
BLACK
6
CONTINUOUS
10
0.9003239370078739
20
0.5333031496062992
11
0.8907035039370078
21
0.5316977559055118
0
LINE
8
BLACK
6
CONTINUOUS
10
0.8907035039370078
20
0.5316977559055118
11
0.8809500393700788
21
0.5316977559055118
0
LINE
8
BLACK
6
CONTINUOUS
10
0.8809500393700788
20
0.5316977559055118
11
0.8713296062992126
21
0.5333031496062992
0
LINE
8
BLACK
6
CONTINUOUS
10
0.8713296062992126
20
0.5333031496062992
11
0.8621046062992126
21
0.5364700787401575
0
LINE
8
BLACK
6
CONTINUOUS
10
0.8621046062992126
20
0.5364700787401575
11
0.8535266929133858
21
0.5411122047244095
0
LINE
8
BLACK
6
CONTINUOUS
10
0.8535266929133858
20
0.5411122047244095
11
0.8458298425196851
21
0.5471029133858267
0
LINE
8
BLACK
6
CONTINUOUS
10
0.8458298425196851
20
0.5471029133858267
11
0.8392239763779528
21
0.554278779527559
0
LINE
8
BLACK
6
CONTINUOUS
10
0.8392239763779528
20
0.554278779527559
11
0.8338893307086614
21
0.5624440551181102
0
LINE
8
BLACK
6
CONTINUOUS
10
0.8338893307086614
20
0.5624440551181102
11
0.8299714173228346
21
0.5713760236220472
0
LINE
8
BLACK
6
CONTINUOUS
10
0.8299714173228346
20
0.5713760236220472
11
0.8275770866141732
21
0.5808310236220472
0
LINE
8
BLACK
6
CONTINUOUS
10
0.8275770866141732
20
0.5808310236220472
11
0.8267716535433071
21
0.5905511811023622
0
LINE
8
BLACK
6
CONTINUOUS
10
0.8267716535433071
20
0.5905511811023622
11
0.8275770866141732
21
0.6002713385826771
0
LINE
8
BLACK
6
CONTINUOUS
10
0.8275770866141732
20
0.6002713385826771
11
0.8299714173228346
21
0.6097263385826771
0
LINE
8
BLACK
6
CONTINUOUS
10
0.8299714173228346
20
0.6097263385826771
11
0.8338893307086614
21
0.6186583070866142
0
LINE
8
BLACK
6
CONTINUOUS
10
0.8338893307086614
20
0.6186583070866142
11
0.8392239763779528
21
0.6268235826771653
0
LINE
8
BLACK
6
CONTINUOUS
10
0.8392239763779528
20
0.6268235826771653
11
0.8458298425196851
21
0.6339994488188976
0
LINE
8
BLACK
6
CONTINUOUS
10
0.8458298425196851
20
0.6339994488188976
11
0.8535266929133858
21
0.639990157480315
0
LINE
8
BLACK
6
CONTINUOUS
10
0.8535266929133858
20
0.639990157480315
11
0.8621046062992126
21
0.6446322834645669
0
LINE
8
BLACK
6
CONTINUOUS
10
0.8621046062992126
20
0.6446322834645669
11
0.8713296062992126
21
0.6477992125984252
0
LINE
8
BLACK
6
CONTINUOUS
10
0.8713296062992126
20
0.6477992125984252
11
0.8809500393700788
21
0.6494046062992126
0
LINE
8
BLACK
6
CONTINUOUS
10
0.8809500393700788
20
0.6494046062992126
11
0.8907035039370078
21
0.6494046062992126
0
LINE
8
BLACK
6
CONTINUOUS
10
0.8907035039370078
20
0.6494046062992126
11
0.9003239370078739
21
0.6477992125984252
  0
ENDSEC
  0
EOF
