  0
SECTION
  2
HEADER
  9
$ANGBASE
  50
0.0
  9
$ANGDIR
  70
1
  9
$MEASUREMENT
  70
0
  0
ENDSEC
  0
SECTION
  2
TABLES
  0
TABLE
  2
LTYPE
  70
4
  0
LTYPE
  5
40F
  2
CONTINUOUS
  70
0
  3
Solid line
  72
65
  73
0
  40
0.0
  0
LTYPE
  5
410
  2
DASHDOT
 70
0
  3
Dash Dot ____ _ ____ _
 72
65
 73
4
 40
2.0
 49
1.25
 49
-0.25
 49
0.25
 49
-0.25
  0
LTYPE
  5
411
  2
DASHED
 70
0
  3
Dashed __ __ __ __ __
 72
65
 73
2
 40
0.75
 49
0.5
 49
-0.25
  0
LTYPE
  5
43B
  2
DOTTED
 70
0
  3
Dotted .  .  .  .
 72
65
 73
2
 40
0.2
 49
0.0
 49
-0.2
  0
ENDTAB
  0
TABLE
  2
STYLE
  70
4
  0
STYLE
  2
KICAD
  70
0
  40
0
  41
1
  42
1
  50
0
  71
0
  3
isocp.shx
  0
STYLE
  2
KICADB
  70
0
  40
0
  41
1
  42
1
  50
0
  71
0
  3
isocp.shx
  0
STYLE
  2
KICADI
  70
0
  40
0
  41
1
  42
1
  50
15
  71
0
  3
isocp.shx
  0
STYLE
  2
KICADBI
  70
0
  40
0
  41
1
  42
1
  50
15
  71
0
  3
isocp.shx
  0
ENDTAB
  0
TABLE
  2
LAYER
  70
1
  0
LAYER
  2
BLACK
  70
0
  62
7
  6
CONTINUOUS
  0
ENDTAB
  0
ENDSEC
  0
SECTION
  2
ENTITIES
0
LINE
8
BLACK
6
CONTINUOUS
10
1.1510065748031495
20
0.506814842519685
11
1.1515392519685039
21
0.5062821653543307
0
LINE
8
BLACK
6
CONTINUOUS
10
1.1515392519685039
20
0.5062821653543307
11
1.1516141732283465
21
0.5059055118110236
0
LINE
8
BLACK
6
CONTINUOUS
10
1.1516141732283465
20
0.5059055118110236
11
1.1516141732283465
21
0.0846456692913386
0
LINE
8
BLACK
6
CONTINUOUS
10
1.1516141732283465
20
0.0846456692913386
11
1.1515392519685039
21
0.0842690157480315
0
LINE
8
BLACK
6
CONTINUOUS
10
1.1515392519685039
20
0.0842690157480315
11
1.1510065748031495
21
0.0837363385826772
0
LINE
8
BLACK
6
CONTINUOUS
10
1.1510065748031495
20
0.0837363385826772
11
1.1506299212598425
21
0.0836614173228346
0
LINE
8
BLACK
6
CONTINUOUS
10
1.1506299212598425
20
0.0836614173228346
11
0.7293700787401575
21
0.0836614173228346
0
LINE
8
BLACK
6
CONTINUOUS
10
0.7293700787401575
20
0.0836614173228346
11
0.7289934251968504
21
0.0837363385826772
0
LINE
8
BLACK
6
CONTINUOUS
10
0.7289934251968504
20
0.0837363385826772
11
0.7284607480314961
21
0.0842690157480315
0
LINE
8
BLACK
6
CONTINUOUS
10
0.7284607480314961
20
0.0842690157480315
11
0.7283858267716535
21
0.0846456692913386
0
LINE
8
BLACK
6
CONTINUOUS
10
0.7283858267716535
20
0.0846456692913386
11
0.7283858267716535
21
0.5059055118110236
0
LINE
8
BLACK
6
CONTINUOUS
10
0.7283858267716535
20
0.5059055118110236
11
0.7284607480314961
21
0.5062821653543307
0
LINE
8
BLACK
6
CONTINUOUS
10
0.7284607480314961
20
0.5062821653543307
11
0.7289934251968504
21
0.506814842519685
0
LINE
8
BLACK
6
CONTINUOUS
10
0.7289934251968504
20
0.506814842519685
11
0.7293700787401575
21
0.5068897637795275
0
LINE
8
BLACK
6
CONTINUOUS
10
0.7293700787401575
20
0.5068897637795275
11
1.1506299212598425
21
0.5068897637795275
0
LINE
8
BLACK
6
CONTINUOUS
10
1.1506299212598425
20
0.5068897637795275
11
1.1510065748031495
21
0.506814842519685
0
LINE
8
BLACK
6
CONTINUOUS
10
0.7303543307086614
20
0.5049212598425197
11
0.7303543307086614
21
0.0856299212598425
0
LINE
8
BLACK
6
CONTINUOUS
10
0.7303543307086614
20
0.0856299212598425
11
1.1496456692913386
21
0.0856299212598425
0
LINE
8
BLACK
6
CONTINUOUS
10
1.1496456692913386
20
0.0856299212598425
11
1.1496456692913386
21
0.5049212598425197
0
LINE
8
BLACK
6
CONTINUOUS
10
1.1496456692913386
20
0.5049212598425197
11
0.7303543307086614
21
0.5049212598425197
0
LINE
8
BLACK
6
CONTINUOUS
10
0.244360905511811
20
0.4820116929133858
11
0.2448935826771654
21
0.4814790157480315
0
LINE
8
BLACK
6
CONTINUOUS
10
0.2448935826771654
20
0.4814790157480315
11
0.2449685039370079
21
0.4811023622047244
0
LINE
8
BLACK
6
CONTINUOUS
10
0.2449685039370079
20
0.4811023622047244
11
0.2449685039370079
21
0.1094488188976378
0
LINE
8
BLACK
6
CONTINUOUS
10
0.2449685039370079
20
0.1094488188976378
11
0.2448935826771654
21
0.1090721653543307
0
LINE
8
BLACK
6
CONTINUOUS
10
0.2448935826771654
20
0.1090721653543307
11
0.244360905511811
21
0.1085394881889764
0
LINE
8
BLACK
6
CONTINUOUS
10
0.244360905511811
20
0.1085394881889764
11
0.2439842519685039
21
0.1084645669291339
0
LINE
8
BLACK
6
CONTINUOUS
10
0.2439842519685039
20
0.1084645669291339
11
-0.0079842519685039
21
0.1084645669291339
0
LINE
8
BLACK
6
CONTINUOUS
10
-0.0079842519685039
20
0.1084645669291339
11
-0.008360905511811
21
0.1085394881889764
0
LINE
8
BLACK
6
CONTINUOUS
10
-0.008360905511811
20
0.1085394881889764
11
-0.0088935826771654
21
0.1090721653543307
0
LINE
8
BLACK
6
CONTINUOUS
10
-0.0088935826771654
20
0.1090721653543307
11
-0.0089685039370079
21
0.1094488188976378
0
LINE
8
BLACK
6
CONTINUOUS
10
-0.0089685039370079
20
0.1094488188976378
11
-0.0089685039370079
21
0.4811023622047244
0
LINE
8
BLACK
6
CONTINUOUS
10
-0.0089685039370079
20
0.4811023622047244
11
-0.0088935826771654
21
0.4814790157480315
0
LINE
8
BLACK
6
CONTINUOUS
10
-0.0088935826771654
20
0.4814790157480315
11
-0.008360905511811
21
0.4820116929133858
0
LINE
8
BLACK
6
CONTINUOUS
10
-0.008360905511811
20
0.4820116929133858
11
-0.0079842519685039
21
0.4820866141732283
0
LINE
8
BLACK
6
CONTINUOUS
10
-0.0079842519685039
20
0.4820866141732283
11
0.2439842519685039
21
0.4820866141732283
0
LINE
8
BLACK
6
CONTINUOUS
10
0.2439842519685039
20
0.4820866141732283
11
0.244360905511811
21
0.4820116929133858
0
LINE
8
BLACK
6
CONTINUOUS
10
-0.007
20
0.4801181102362205
11
-0.007
21
0.1104330708661417
0
LINE
8
BLACK
6
CONTINUOUS
10
-0.007
20
0.1104330708661417
11
0.243
21
0.1104330708661417
0
LINE
8
BLACK
6
CONTINUOUS
10
0.243
20
0.1104330708661417
11
0.243
21
0.4801181102362205
0
LINE
8
BLACK
6
CONTINUOUS
10
0.243
20
0.4801181102362205
11
-0.007
21
0.4801181102362205
0
LINE
8
BLACK
6
CONTINUOUS
10
0.689116811023622
20
0.2491770472440945
11
0.6896494881889763
21
0.2486443700787402
0
LINE
8
BLACK
6
CONTINUOUS
10
0.6896494881889763
20
0.2486443700787402
11
0.6897244094488189
21
0.2482677165354331
0
LINE
8
BLACK
6
CONTINUOUS
10
0.6897244094488189
20
0.2482677165354331
11
0.6897244094488189
21
0.1317322834645669
0
LINE
8
BLACK
6
CONTINUOUS
10
0.6897244094488189
20
0.1317322834645669
11
0.6896494881889763
21
0.1313556299212598
0
LINE
8
BLACK
6
CONTINUOUS
10
0.6896494881889763
20
0.1313556299212598
11
0.689116811023622
21
0.1308229527559055
0
LINE
8
BLACK
6
CONTINUOUS
10
0.689116811023622
20
0.1308229527559055
11
0.6887401574803149
21
0.130748031496063
0
LINE
8
BLACK
6
CONTINUOUS
10
0.6887401574803149
20
0.130748031496063
11
0.631259842519685
21
0.130748031496063
0
LINE
8
BLACK
6
CONTINUOUS
10
0.631259842519685
20
0.130748031496063
11
0.630883188976378
21
0.1308229527559055
0
LINE
8
BLACK
6
CONTINUOUS
10
0.630883188976378
20
0.1308229527559055
11
0.6303505118110236
21
0.1313556299212598
0
LINE
8
BLACK
6
CONTINUOUS
10
0.6303505118110236
20
0.1313556299212598
11
0.6302755905511811
21
0.1317322834645669
0
LINE
8
BLACK
6
CONTINUOUS
10
0.6302755905511811
20
0.1317322834645669
11
0.6302755905511811
21
0.2482677165354331
0
LINE
8
BLACK
6
CONTINUOUS
10
0.6302755905511811
20
0.2482677165354331
11
0.6303505118110236
21
0.2486443700787402
0
LINE
8
BLACK
6
CONTINUOUS
10
0.6303505118110236
20
0.2486443700787402
11
0.630883188976378
21
0.2491770472440945
0
LINE
8
BLACK
6
CONTINUOUS
10
0.630883188976378
20
0.2491770472440945
11
0.631259842519685
21
0.249251968503937
0
LINE
8
BLACK
6
CONTINUOUS
10
0.631259842519685
20
0.249251968503937
11
0.6887401574803149
21
0.249251968503937
0
LINE
8
BLACK
6
CONTINUOUS
10
0.6887401574803149
20
0.249251968503937
11
0.689116811023622
21
0.2491770472440945
0
LINE
8
BLACK
6
CONTINUOUS
10
0.632244094488189
20
0.2472834645669291
11
0.632244094488189
21
0.1327165354330709
0
LINE
8
BLACK
6
CONTINUOUS
10
0.632244094488189
20
0.1327165354330709
11
0.687755905511811
21
0.1327165354330709
0
LINE
8
BLACK
6
CONTINUOUS
10
0.687755905511811
20
0.1327165354330709
11
0.687755905511811
21
0.2472834645669291
0
LINE
8
BLACK
6
CONTINUOUS
10
0.687755905511811
20
0.2472834645669291
11
0.632244094488189
21
0.2472834645669291
0
LINE
8
BLACK
6
CONTINUOUS
10
0.494116811023622
20
0.2701809842519685
11
0.4946494881889764
21
0.2696483070866142
0
LINE
8
BLACK
6
CONTINUOUS
10
0.4946494881889764
20
0.2696483070866142
11
0.4947244094488189
21
0.2692716535433071
0
LINE
8
BLACK
6
CONTINUOUS
10
0.4947244094488189
20
0.2692716535433071
11
0.4947244094488189
21
0.152736220472441
0
LINE
8
BLACK
6
CONTINUOUS
10
0.4947244094488189
20
0.152736220472441
11
0.4946494881889764
21
0.1523595669291339
0
LINE
8
BLACK
6
CONTINUOUS
10
0.4946494881889764
20
0.1523595669291339
11
0.494116811023622
21
0.1518268897637795
0
LINE
8
BLACK
6
CONTINUOUS
10
0.494116811023622
20
0.1518268897637795
11
0.493740157480315
21
0.151751968503937
0
LINE
8
BLACK
6
CONTINUOUS
10
0.493740157480315
20
0.151751968503937
11
0.436259842519685
21
0.151751968503937
0
LINE
8
BLACK
6
CONTINUOUS
10
0.436259842519685
20
0.151751968503937
11
0.435883188976378
21
0.1518268897637795
0
LINE
8
BLACK
6
CONTINUOUS
10
0.435883188976378
20
0.1518268897637795
11
0.4353505118110236
21
0.1523595669291339
0
LINE
8
BLACK
6
CONTINUOUS
10
0.4353505118110236
20
0.1523595669291339
11
0.4352755905511811
21
0.152736220472441
0
LINE
8
BLACK
6
CONTINUOUS
10
0.4352755905511811
20
0.152736220472441
11
0.4352755905511811
21
0.2692716535433071
0
LINE
8
BLACK
6
CONTINUOUS
10
0.4352755905511811
20
0.2692716535433071
11
0.4353505118110236
21
0.2696483070866142
0
LINE
8
BLACK
6
CONTINUOUS
10
0.4353505118110236
20
0.2696483070866142
11
0.435883188976378
21
0.2701809842519685
0
LINE
8
BLACK
6
CONTINUOUS
10
0.435883188976378
20
0.2701809842519685
11
0.436259842519685
21
0.270255905511811
0
LINE
8
BLACK
6
CONTINUOUS
10
0.436259842519685
20
0.270255905511811
11
0.493740157480315
21
0.270255905511811
0
LINE
8
BLACK
6
CONTINUOUS
10
0.493740157480315
20
0.270255905511811
11
0.494116811023622
21
0.2701809842519685
0
LINE
8
BLACK
6
CONTINUOUS
10
0.437244094488189
20
0.2682874015748031
11
0.437244094488189
21
0.1537204724409449
0
LINE
8
BLACK
6
CONTINUOUS
10
0.437244094488189
20
0.1537204724409449
11
0.492755905511811
21
0.1537204724409449
0
LINE
8
BLACK
6
CONTINUOUS
10
0.492755905511811
20
0.1537204724409449
11
0.492755905511811
21
0.2682874015748031
0
LINE
8
BLACK
6
CONTINUOUS
10
0.492755905511811
20
0.2682874015748031
11
0.437244094488189
21
0.2682874015748031
0
LINE
8
BLACK
6
CONTINUOUS
10
0.4262427952755906
20
0.3157124803149606
11
0.4267754724409449
21
0.3151798031496063
0
LINE
8
BLACK
6
CONTINUOUS
10
0.4267754724409449
20
0.3151798031496063
11
0.4268503937007874
21
0.3148031496062992
0
LINE
8
BLACK
6
CONTINUOUS
10
0.4268503937007874
20
0.3148031496062992
11
0.4268503937007874
21
0.1651968503937008
0
LINE
8
BLACK
6
CONTINUOUS
10
0.4268503937007874
20
0.1651968503937008
11
0.4267754724409449
21
0.1648201968503937
0
LINE
8
BLACK
6
CONTINUOUS
10
0.4267754724409449
20
0.1648201968503937
11
0.4262427952755906
21
0.1642875196850394
0
LINE
8
BLACK
6
CONTINUOUS
10
0.4262427952755906
20
0.1642875196850394
11
0.4258661417322834
21
0.1642125984251968
0
LINE
8
BLACK
6
CONTINUOUS
10
0.4258661417322834
20
0.1642125984251968
11
0.2841338582677165
21
0.1642125984251968
0
LINE
8
BLACK
6
CONTINUOUS
10
0.2841338582677165
20
0.1642125984251968
11
0.2837572047244095
21
0.1642875196850394
0
LINE
8
BLACK
6
CONTINUOUS
10
0.2837572047244095
20
0.1642875196850394
11
0.2832245275590551
21
0.1648201968503937
0
LINE
8
BLACK
6
CONTINUOUS
10
0.2832245275590551
20
0.1648201968503937
11
0.2831496062992126
21
0.1651968503937008
0
LINE
8
BLACK
6
CONTINUOUS
10
0.2831496062992126
20
0.1651968503937008
11
0.2831496062992126
21
0.3148031496062992
0
LINE
8
BLACK
6
CONTINUOUS
10
0.2831496062992126
20
0.3148031496062992
11
0.2832245275590551
21
0.3151798031496063
0
LINE
8
BLACK
6
CONTINUOUS
10
0.2832245275590551
20
0.3151798031496063
11
0.2837572047244095
21
0.3157124803149606
0
LINE
8
BLACK
6
CONTINUOUS
10
0.2837572047244095
20
0.3157124803149606
11
0.2841338582677165
21
0.3157874015748031
0
LINE
8
BLACK
6
CONTINUOUS
10
0.2841338582677165
20
0.3157874015748031
11
0.4258661417322834
21
0.3157874015748031
0
LINE
8
BLACK
6
CONTINUOUS
10
0.4258661417322834
20
0.3157874015748031
11
0.4262427952755906
21
0.3157124803149606
0
LINE
8
BLACK
6
CONTINUOUS
10
0.2851181102362205
20
0.3138188976377952
11
0.2851181102362205
21
0.1661811023622047
0
LINE
8
BLACK
6
CONTINUOUS
10
0.2851181102362205
20
0.1661811023622047
11
0.4248818897637795
21
0.1661811023622047
0
LINE
8
BLACK
6
CONTINUOUS
10
0.4248818897637795
20
0.1661811023622047
11
0.4248818897637795
21
0.3138188976377952
0
LINE
8
BLACK
6
CONTINUOUS
10
0.4248818897637795
20
0.3138188976377952
11
0.2851181102362205
21
0.3138188976377952
0
LINE
8
BLACK
6
CONTINUOUS
10
0.5368333464566929
20
0.4430353149606299
11
0.5373660236220472
21
0.4425026377952756
0
LINE
8
BLACK
6
CONTINUOUS
10
0.5373660236220472
20
0.4425026377952756
11
0.5374409448818898
21
0.4421259842519685
0
LINE
8
BLACK
6
CONTINUOUS
10
0.5374409448818898
20
0.4421259842519685
11
0.5374409448818898
21
0.3255905511811024
0
LINE
8
BLACK
6
CONTINUOUS
10
0.5374409448818898
20
0.3255905511811024
11
0.5373660236220472
21
0.3252138976377953
0
LINE
8
BLACK
6
CONTINUOUS
10
0.5373660236220472
20
0.3252138976377953
11
0.5368333464566929
21
0.3246812204724409
0
LINE
8
BLACK
6
CONTINUOUS
10
0.5368333464566929
20
0.3246812204724409
11
0.5364566929133858
21
0.3246062992125984
0
LINE
8
BLACK
6
CONTINUOUS
10
0.5364566929133858
20
0.3246062992125984
11
0.4789763779527559
21
0.3246062992125984
0
LINE
8
BLACK
6
CONTINUOUS
10
0.4789763779527559
20
0.3246062992125984
11
0.4785997244094488
21
0.3246812204724409
0
LINE
8
BLACK
6
CONTINUOUS
10
0.4785997244094488
20
0.3246812204724409
11
0.4780670472440945
21
0.3252138976377953
0
LINE
8
BLACK
6
CONTINUOUS
10
0.4780670472440945
20
0.3252138976377953
11
0.4779921259842519
21
0.3255905511811024
0
LINE
8
BLACK
6
CONTINUOUS
10
0.4779921259842519
20
0.3255905511811024
11
0.4779921259842519
21
0.4421259842519685
0
LINE
8
BLACK
6
CONTINUOUS
10
0.4779921259842519
20
0.4421259842519685
11
0.4780670472440945
21
0.4425026377952756
0
LINE
8
BLACK
6
CONTINUOUS
10
0.4780670472440945
20
0.4425026377952756
11
0.4785997244094488
21
0.4430353149606299
0
LINE
8
BLACK
6
CONTINUOUS
10
0.4785997244094488
20
0.4430353149606299
11
0.4789763779527559
21
0.4431102362204724
0
LINE
8
BLACK
6
CONTINUOUS
10
0.4789763779527559
20
0.4431102362204724
11
0.5364566929133858
21
0.4431102362204724
0
LINE
8
BLACK
6
CONTINUOUS
10
0.5364566929133858
20
0.4431102362204724
11
0.5368333464566929
21
0.4430353149606299
0
LINE
8
BLACK
6
CONTINUOUS
10
0.4799606299212598
20
0.4411417322834645
11
0.4799606299212598
21
0.3265748031496063
0
LINE
8
BLACK
6
CONTINUOUS
10
0.4799606299212598
20
0.3265748031496063
11
0.5354724409448819
21
0.3265748031496063
0
LINE
8
BLACK
6
CONTINUOUS
10
0.5354724409448819
20
0.3265748031496063
11
0.5354724409448819
21
0.4411417322834645
0
LINE
8
BLACK
6
CONTINUOUS
10
0.5354724409448819
20
0.4411417322834645
11
0.4799606299212598
21
0.4411417322834645
0
LINE
8
BLACK
6
CONTINUOUS
10
0.609116811023622
20
0.4441770472440945
11
0.6096494881889764
21
0.4436443700787401
0
LINE
8
BLACK
6
CONTINUOUS
10
0.6096494881889764
20
0.4436443700787401
11
0.6097244094488189
21
0.4432677165354331
0
LINE
8
BLACK
6
CONTINUOUS
10
0.6097244094488189
20
0.4432677165354331
11
0.6097244094488189
21
0.3267322834645669
0
LINE
8
BLACK
6
CONTINUOUS
10
0.6097244094488189
20
0.3267322834645669
11
0.6096494881889764
21
0.3263556299212598
0
LINE
8
BLACK
6
CONTINUOUS
10
0.6096494881889764
20
0.3263556299212598
11
0.609116811023622
21
0.3258229527559055
0
LINE
8
BLACK
6
CONTINUOUS
10
0.609116811023622
20
0.3258229527559055
11
0.608740157480315
21
0.325748031496063
0
LINE
8
BLACK
6
CONTINUOUS
10
0.608740157480315
20
0.325748031496063
11
0.5512598425196851
21
0.325748031496063
0
LINE
8
BLACK
6
CONTINUOUS
10
0.5512598425196851
20
0.325748031496063
11
0.5508831889763779
21
0.3258229527559055
0
LINE
8
BLACK
6
CONTINUOUS
10
0.5508831889763779
20
0.3258229527559055
11
0.5503505118110236
21
0.3263556299212598
0
LINE
8
BLACK
6
CONTINUOUS
10
0.5503505118110236
20
0.3263556299212598
11
0.5502755905511811
21
0.3267322834645669
0
LINE
8
BLACK
6
CONTINUOUS
10
0.5502755905511811
20
0.3267322834645669
11
0.5502755905511811
21
0.4432677165354331
0
LINE
8
BLACK
6
CONTINUOUS
10
0.5502755905511811
20
0.4432677165354331
11
0.5503505118110236
21
0.4436443700787401
0
LINE
8
BLACK
6
CONTINUOUS
10
0.5503505118110236
20
0.4436443700787401
11
0.5508831889763779
21
0.4441770472440945
0
LINE
8
BLACK
6
CONTINUOUS
10
0.5508831889763779
20
0.4441770472440945
11
0.5512598425196851
21
0.444251968503937
0
LINE
8
BLACK
6
CONTINUOUS
10
0.5512598425196851
20
0.444251968503937
11
0.608740157480315
21
0.444251968503937
0
LINE
8
BLACK
6
CONTINUOUS
10
0.608740157480315
20
0.444251968503937
11
0.609116811023622
21
0.4441770472440945
0
LINE
8
BLACK
6
CONTINUOUS
10
0.552244094488189
20
0.4422834645669291
11
0.552244094488189
21
0.3277165354330708
0
LINE
8
BLACK
6
CONTINUOUS
10
0.552244094488189
20
0.3277165354330708
11
0.607755905511811
21
0.3277165354330708
0
LINE
8
BLACK
6
CONTINUOUS
10
0.607755905511811
20
0.3277165354330708
11
0.607755905511811
21
0.4422834645669291
0
LINE
8
BLACK
6
CONTINUOUS
10
0.607755905511811
20
0.4422834645669291
11
0.552244094488189
21
0.4422834645669291
0
LINE
8
BLACK
6
CONTINUOUS
10
0.684116811023622
20
0.4441770472440945
11
0.6846494881889763
21
0.4436443700787401
0
LINE
8
BLACK
6
CONTINUOUS
10
0.6846494881889763
20
0.4436443700787401
11
0.6847244094488188
21
0.4432677165354331
0
LINE
8
BLACK
6
CONTINUOUS
10
0.6847244094488188
20
0.4432677165354331
11
0.6847244094488188
21
0.3267322834645669
0
LINE
8
BLACK
6
CONTINUOUS
10
0.6847244094488188
20
0.3267322834645669
11
0.6846494881889763
21
0.3263556299212598
0
LINE
8
BLACK
6
CONTINUOUS
10
0.6846494881889763
20
0.3263556299212598
11
0.684116811023622
21
0.3258229527559055
0
LINE
8
BLACK
6
CONTINUOUS
10
0.684116811023622
20
0.3258229527559055
11
0.6837401574803149
21
0.325748031496063
0
LINE
8
BLACK
6
CONTINUOUS
10
0.6837401574803149
20
0.325748031496063
11
0.626259842519685
21
0.325748031496063
0
LINE
8
BLACK
6
CONTINUOUS
10
0.626259842519685
20
0.325748031496063
11
0.625883188976378
21
0.3258229527559055
0
LINE
8
BLACK
6
CONTINUOUS
10
0.625883188976378
20
0.3258229527559055
11
0.6253505118110236
21
0.3263556299212598
0
LINE
8
BLACK
6
CONTINUOUS
10
0.6253505118110236
20
0.3263556299212598
11
0.6252755905511811
21
0.3267322834645669
0
LINE
8
BLACK
6
CONTINUOUS
10
0.6252755905511811
20
0.3267322834645669
11
0.6252755905511811
21
0.4432677165354331
0
LINE
8
BLACK
6
CONTINUOUS
10
0.6252755905511811
20
0.4432677165354331
11
0.6253505118110236
21
0.4436443700787401
0
LINE
8
BLACK
6
CONTINUOUS
10
0.6253505118110236
20
0.4436443700787401
11
0.625883188976378
21
0.4441770472440945
0
LINE
8
BLACK
6
CONTINUOUS
10
0.625883188976378
20
0.4441770472440945
11
0.626259842519685
21
0.444251968503937
0
LINE
8
BLACK
6
CONTINUOUS
10
0.626259842519685
20
0.444251968503937
11
0.6837401574803149
21
0.444251968503937
0
LINE
8
BLACK
6
CONTINUOUS
10
0.6837401574803149
20
0.444251968503937
11
0.684116811023622
21
0.4441770472440945
0
LINE
8
BLACK
6
CONTINUOUS
10
0.627244094488189
20
0.4422834645669291
11
0.627244094488189
21
0.3277165354330708
0
LINE
8
BLACK
6
CONTINUOUS
10
0.627244094488189
20
0.3277165354330708
11
0.682755905511811
21
0.3277165354330708
0
LINE
8
BLACK
6
CONTINUOUS
10
0.682755905511811
20
0.3277165354330708
11
0.682755905511811
21
0.4422834645669291
0
LINE
8
BLACK
6
CONTINUOUS
10
0.682755905511811
20
0.4422834645669291
11
0.627244094488189
21
0.4422834645669291
0
LINE
8
BLACK
6
CONTINUOUS
10
0.3212821653543307
20
0.4469723228346457
11
0.321814842519685
21
0.4464396456692913
0
LINE
8
BLACK
6
CONTINUOUS
10
0.321814842519685
20
0.4464396456692913
11
0.3218897637795275
21
0.4460629921259842
0
LINE
8
BLACK
6
CONTINUOUS
10
0.3218897637795275
20
0.4460629921259842
11
0.3218897637795275
21
0.3295275590551181
0
LINE
8
BLACK
6
CONTINUOUS
10
0.3218897637795275
20
0.3295275590551181
11
0.321814842519685
21
0.329150905511811
0
LINE
8
BLACK
6
CONTINUOUS
10
0.321814842519685
20
0.329150905511811
11
0.3212821653543307
21
0.3286182283464567
0
LINE
8
BLACK
6
CONTINUOUS
10
0.3212821653543307
20
0.3286182283464567
11
0.3209055118110236
21
0.3285433070866142
0
LINE
8
BLACK
6
CONTINUOUS
10
0.3209055118110236
20
0.3285433070866142
11
0.2634251968503937
21
0.3285433070866142
0
LINE
8
BLACK
6
CONTINUOUS
10
0.2634251968503937
20
0.3285433070866142
11
0.2630485433070866
21
0.3286182283464567
0
LINE
8
BLACK
6
CONTINUOUS
10
0.2630485433070866
20
0.3286182283464567
11
0.2625158661417323
21
0.329150905511811
0
LINE
8
BLACK
6
CONTINUOUS
10
0.2625158661417323
20
0.329150905511811
11
0.2624409448818897
21
0.3295275590551181
0
LINE
8
BLACK
6
CONTINUOUS
10
0.2624409448818897
20
0.3295275590551181
11
0.2624409448818897
21
0.4460629921259842
0
LINE
8
BLACK
6
CONTINUOUS
10
0.2624409448818897
20
0.4460629921259842
11
0.2625158661417323
21
0.4464396456692913
0
LINE
8
BLACK
6
CONTINUOUS
10
0.2625158661417323
20
0.4464396456692913
11
0.2630485433070866
21
0.4469723228346457
0
LINE
8
BLACK
6
CONTINUOUS
10
0.2630485433070866
20
0.4469723228346457
11
0.2634251968503937
21
0.4470472440944882
0
LINE
8
BLACK
6
CONTINUOUS
10
0.2634251968503937
20
0.4470472440944882
11
0.3209055118110236
21
0.4470472440944882
0
LINE
8
BLACK
6
CONTINUOUS
10
0.3209055118110236
20
0.4470472440944882
11
0.3212821653543307
21
0.4469723228346457
0
LINE
8
BLACK
6
CONTINUOUS
10
0.2644094488188976
20
0.4450787401574803
11
0.2644094488188976
21
0.330511811023622
0
LINE
8
BLACK
6
CONTINUOUS
10
0.2644094488188976
20
0.330511811023622
11
0.3199212598425197
21
0.330511811023622
0
LINE
8
BLACK
6
CONTINUOUS
10
0.3199212598425197
20
0.330511811023622
11
0.3199212598425197
21
0.4450787401574803
0
LINE
8
BLACK
6
CONTINUOUS
10
0.3199212598425197
20
0.4450787401574803
11
0.2644094488188976
21
0.4450787401574803
0
LINE
8
BLACK
6
CONTINUOUS
10
0.3850616929133858
20
0.4349644488188976
11
0.3855943700787401
21
0.4344317716535433
0
LINE
8
BLACK
6
CONTINUOUS
10
0.3855943700787401
20
0.4344317716535433
11
0.3856692913385827
21
0.4340551181102362
0
LINE
8
BLACK
6
CONTINUOUS
10
0.3856692913385827
20
0.4340551181102362
11
0.3856692913385827
21
0.3356299212598425
0
LINE
8
BLACK
6
CONTINUOUS
10
0.3856692913385827
20
0.3356299212598425
11
0.3855943700787401
21
0.3352532677165354
0
LINE
8
BLACK
6
CONTINUOUS
10
0.3855943700787401
20
0.3352532677165354
11
0.3850616929133858
21
0.3347205905511811
0
LINE
8
BLACK
6
CONTINUOUS
10
0.3850616929133858
20
0.3347205905511811
11
0.3846850393700788
21
0.3346456692913386
0
LINE
8
BLACK
6
CONTINUOUS
10
0.3846850393700788
20
0.3346456692913386
11
0.3295669291338583
21
0.3346456692913386
0
LINE
8
BLACK
6
CONTINUOUS
10
0.3295669291338583
20
0.3346456692913386
11
0.3291902755905512
21
0.3347205905511811
0
LINE
8
BLACK
6
CONTINUOUS
10
0.3291902755905512
20
0.3347205905511811
11
0.3286575984251968
21
0.3352532677165354
0
LINE
8
BLACK
6
CONTINUOUS
10
0.3286575984251968
20
0.3352532677165354
11
0.3285826771653543
21
0.3356299212598425
0
LINE
8
BLACK
6
CONTINUOUS
10
0.3285826771653543
20
0.3356299212598425
11
0.3285826771653543
21
0.4340551181102362
0
LINE
8
BLACK
6
CONTINUOUS
10
0.3285826771653543
20
0.4340551181102362
11
0.3286575984251968
21
0.4344317716535433
0
LINE
8
BLACK
6
CONTINUOUS
10
0.3286575984251968
20
0.4344317716535433
11
0.3291902755905512
21
0.4349644488188976
0
LINE
8
BLACK
6
CONTINUOUS
10
0.3291902755905512
20
0.4349644488188976
11
0.3295669291338583
21
0.4350393700787402
0
LINE
8
BLACK
6
CONTINUOUS
10
0.3295669291338583
20
0.4350393700787402
11
0.3846850393700788
21
0.4350393700787402
0
LINE
8
BLACK
6
CONTINUOUS
10
0.3846850393700788
20
0.4350393700787402
11
0.3850616929133858
21
0.4349644488188976
0
LINE
8
BLACK
6
CONTINUOUS
10
0.3305511811023622
20
0.4330708661417323
11
0.3305511811023622
21
0.3366141732283465
0
LINE
8
BLACK
6
CONTINUOUS
10
0.3305511811023622
20
0.3366141732283465
11
0.3837007874015748
21
0.3366141732283465
0
LINE
8
BLACK
6
CONTINUOUS
10
0.3837007874015748
20
0.3366141732283465
11
0.3837007874015748
21
0.4330708661417323
0
LINE
8
BLACK
6
CONTINUOUS
10
0.3837007874015748
20
0.4330708661417323
11
0.3305511811023622
21
0.4330708661417323
0
CIRCLE
8
BLACK
10
0.4921259842519685
20
0.5905511811023622
40
0.0068897637795276
0
CIRCLE
8
BLACK
10
0.4921259842519685
20
0.
40
0.0068897637795276
0
CIRCLE
8
BLACK
10
0.0984251968503937
20
0.5905511811023622
40
0.0068897637795276
0
CIRCLE
8
BLACK
10
0.8858267716535433
20
0.
40
0.0068897637795276
0
CIRCLE
8
BLACK
10
0.8858267716535433
20
0.5905511811023622
40
0.0068897637795276
0
CIRCLE
8
BLACK
10
0.0984251968503937
20
0.
40
0.0068897637795276
  0
ENDSEC
  0
EOF
