  0
SECTION
  2
HEADER
  9
$ANGBASE
  50
0.0
  9
$ANGDIR
  70
1
  9
$MEASUREMENT
  70
0
  0
ENDSEC
  0
SECTION
  2
TABLES
  0
TABLE
  2
LTYPE
  70
4
  0
LTYPE
  5
40F
  2
CONTINUOUS
  70
0
  3
Solid line
  72
65
  73
0
  40
0.0
  0
LTYPE
  5
410
  2
DASHDOT
 70
0
  3
Dash Dot ____ _ ____ _
 72
65
 73
4
 40
2.0
 49
1.25
 49
-0.25
 49
0.25
 49
-0.25
  0
LTYPE
  5
411
  2
DASHED
 70
0
  3
Dashed __ __ __ __ __
 72
65
 73
2
 40
0.75
 49
0.5
 49
-0.25
  0
LTYPE
  5
43B
  2
DOTTED
 70
0
  3
Dotted .  .  .  .
 72
65
 73
2
 40
0.2
 49
0.0
 49
-0.2
  0
ENDTAB
  0
TABLE
  2
STYLE
  70
4
  0
STYLE
  2
KICAD
  70
0
  40
0
  41
1
  42
1
  50
0
  71
0
  3
isocp.shx
  0
STYLE
  2
KICADB
  70
0
  40
0
  41
1
  42
1
  50
0
  71
0
  3
isocp.shx
  0
STYLE
  2
KICADI
  70
0
  40
0
  41
1
  42
1
  50
15
  71
0
  3
isocp.shx
  0
STYLE
  2
KICADBI
  70
0
  40
0
  41
1
  42
1
  50
15
  71
0
  3
isocp.shx
  0
ENDTAB
  0
TABLE
  2
LAYER
  70
1
  0
LAYER
  2
BLACK
  70
0
  62
7
  6
CONTINUOUS
  0
ENDTAB
  0
ENDSEC
  0
SECTION
  2
ENTITIES
0
LINE
8
BLACK
6
CONTINUOUS
10
0.958536
20
0.290617
11
0.958671
21
0.290629
0
LINE
8
BLACK
6
CONTINUOUS
10
0.958671
20
0.290629
11
0.959399
21
0.290119
0
LINE
8
BLACK
6
CONTINUOUS
10
0.959399
20
0.290119
11
0.960168
21
0.289675
0
LINE
8
BLACK
6
CONTINUOUS
10
0.960168
20
0.289675
11
0.960214
21
0.289548
0
LINE
8
BLACK
6
CONTINUOUS
10
0.960214
20
0.289548
11
0.960325
21
0.28947
0
LINE
8
BLACK
6
CONTINUOUS
10
0.960325
20
0.28947
11
0.960555
21
0.288612
0
LINE
8
BLACK
6
CONTINUOUS
10
0.960555
20
0.288612
11
0.960859
21
0.287777
0
LINE
8
BLACK
6
CONTINUOUS
10
0.960859
20
0.287777
11
0.960859
21
0.263405
0
LINE
8
BLACK
6
CONTINUOUS
10
0.960859
20
0.263405
11
0.960681
21
0.262395
0
LINE
8
BLACK
6
CONTINUOUS
10
0.960681
20
0.262395
11
0.959383
21
0.260847
0
LINE
8
BLACK
6
CONTINUOUS
10
0.959383
20
0.260847
11
0.957394
21
0.260497
0
LINE
8
BLACK
6
CONTINUOUS
10
0.957394
20
0.260497
11
0.955644
21
0.261507
0
LINE
8
BLACK
6
CONTINUOUS
10
0.955644
20
0.261507
11
0.954954
21
0.263405
0
LINE
8
BLACK
6
CONTINUOUS
10
0.954954
20
0.263405
11
0.954954
21
0.280648
0
LINE
8
BLACK
6
CONTINUOUS
10
0.954954
20
0.280648
11
0.937497
21
0.263191
0
LINE
8
BLACK
6
CONTINUOUS
10
0.937497
20
0.263191
11
0.936657
21
0.262603
0
LINE
8
BLACK
6
CONTINUOUS
10
0.936657
20
0.262603
11
0.936481
21
0.262588
0
LINE
8
BLACK
6
CONTINUOUS
10
0.936481
20
0.262588
11
0.936343
21
0.262478
0
LINE
8
BLACK
6
CONTINUOUS
10
0.936343
20
0.262478
11
0.930719
21
0.260603
0
LINE
8
BLACK
6
CONTINUOUS
10
0.930719
20
0.260603
11
0.929845
21
0.260474
0
LINE
8
BLACK
6
CONTINUOUS
10
0.929845
20
0.260474
11
0.929785
21
0.260452
0
LINE
8
BLACK
6
CONTINUOUS
10
0.929785
20
0.260452
11
0.926035
21
0.260452
0
LINE
8
BLACK
6
CONTINUOUS
10
0.926035
20
0.260452
11
0.925025
21
0.26063
0
LINE
8
BLACK
6
CONTINUOUS
10
0.925025
20
0.26063
11
0.92489
21
0.260743
0
LINE
8
BLACK
6
CONTINUOUS
10
0.92489
20
0.260743
11
0.924715
21
0.260764
0
LINE
8
BLACK
6
CONTINUOUS
10
0.924715
20
0.260764
11
0.920965
21
0.262638
0
LINE
8
BLACK
6
CONTINUOUS
10
0.920965
20
0.262638
11
0.920256
21
0.263164
0
LINE
8
BLACK
6
CONTINUOUS
10
0.920256
20
0.263164
11
0.920198
21
0.263191
0
LINE
8
BLACK
6
CONTINUOUS
10
0.920198
20
0.263191
11
0.918323
21
0.265066
0
LINE
8
BLACK
6
CONTINUOUS
10
0.918323
20
0.265066
11
0.917817
21
0.265789
0
LINE
8
BLACK
6
CONTINUOUS
10
0.917817
20
0.265789
11
0.91777
21
0.265834
0
LINE
8
BLACK
6
CONTINUOUS
10
0.91777
20
0.265834
11
0.915895
21
0.269583
0
LINE
8
BLACK
6
CONTINUOUS
10
0.915895
20
0.269583
11
0.915603
21
0.270566
0
LINE
8
BLACK
6
CONTINUOUS
10
0.915603
20
0.270566
11
0.915644
21
0.270738
0
LINE
8
BLACK
6
CONTINUOUS
10
0.915644
20
0.270738
11
0.915583
21
0.270904
0
LINE
8
BLACK
6
CONTINUOUS
10
0.915583
20
0.270904
11
0.915583
21
0.280277
0
LINE
8
BLACK
6
CONTINUOUS
10
0.915583
20
0.280277
11
0.915761
21
0.281287
0
LINE
8
BLACK
6
CONTINUOUS
10
0.915761
20
0.281287
11
0.915875
21
0.281423
0
LINE
8
BLACK
6
CONTINUOUS
10
0.915875
20
0.281423
11
0.915895
21
0.281598
0
LINE
8
BLACK
6
CONTINUOUS
10
0.915895
20
0.281598
11
0.91777
21
0.285348
0
LINE
8
BLACK
6
CONTINUOUS
10
0.91777
20
0.285348
11
0.918296
21
0.286057
0
LINE
8
BLACK
6
CONTINUOUS
10
0.918296
20
0.286057
11
0.918323
21
0.286115
0
LINE
8
BLACK
6
CONTINUOUS
10
0.918323
20
0.286115
11
0.920198
21
0.28799
0
LINE
8
BLACK
6
CONTINUOUS
10
0.920198
20
0.28799
11
0.921038
21
0.288578
0
LINE
8
BLACK
6
CONTINUOUS
10
0.921038
20
0.288578
11
0.92305
21
0.288754
0
LINE
8
BLACK
6
CONTINUOUS
10
0.92305
20
0.288754
11
0.924704
21
0.287595
0
LINE
8
BLACK
6
CONTINUOUS
10
0.924704
20
0.287595
11
0.925227
21
0.285644
0
LINE
8
BLACK
6
CONTINUOUS
10
0.925227
20
0.285644
11
0.924374
21
0.283814
0
LINE
8
BLACK
6
CONTINUOUS
10
0.924374
20
0.283814
11
0.922838
21
0.282278
0
LINE
8
BLACK
6
CONTINUOUS
10
0.922838
20
0.282278
11
0.921489
21
0.27958
0
LINE
8
BLACK
6
CONTINUOUS
10
0.921489
20
0.27958
11
0.921489
21
0.271601
0
LINE
8
BLACK
6
CONTINUOUS
10
0.921489
20
0.271601
11
0.922838
21
0.268903
0
LINE
8
BLACK
6
CONTINUOUS
10
0.922838
20
0.268903
11
0.924035
21
0.267706
0
LINE
8
BLACK
6
CONTINUOUS
10
0.924035
20
0.267706
11
0.926732
21
0.266357
0
LINE
8
BLACK
6
CONTINUOUS
10
0.926732
20
0.266357
11
0.929306
21
0.266357
0
LINE
8
BLACK
6
CONTINUOUS
10
0.929306
20
0.266357
11
0.933814
21
0.26786
0
LINE
8
BLACK
6
CONTINUOUS
10
0.933814
20
0.26786
11
0.955818
21
0.289864
0
LINE
8
BLACK
6
CONTINUOUS
10
0.955818
20
0.289864
11
0.956346
21
0.290234
0
LINE
8
BLACK
6
CONTINUOUS
10
0.956346
20
0.290234
11
0.95643
21
0.290334
0
LINE
8
BLACK
6
CONTINUOUS
10
0.95643
20
0.290334
11
0.956508
21
0.290348
0
LINE
8
BLACK
6
CONTINUOUS
10
0.956508
20
0.290348
11
0.956658
21
0.290453
0
LINE
8
BLACK
6
CONTINUOUS
10
0.956658
20
0.290453
11
0.957544
21
0.29053
0
LINE
8
BLACK
6
CONTINUOUS
10
0.957544
20
0.29053
11
0.958419
21
0.290684
0
LINE
8
BLACK
6
CONTINUOUS
10
0.958419
20
0.290684
11
0.958536
21
0.290617
0
LINE
8
BLACK
6
CONTINUOUS
10
0.951417
20
0.328047
11
0.951552
21
0.327933
0
LINE
8
BLACK
6
CONTINUOUS
10
0.951552
20
0.327933
11
0.951728
21
0.327913
0
LINE
8
BLACK
6
CONTINUOUS
10
0.951728
20
0.327913
11
0.955477
21
0.326038
0
LINE
8
BLACK
6
CONTINUOUS
10
0.955477
20
0.326038
11
0.956186
21
0.325512
0
LINE
8
BLACK
6
CONTINUOUS
10
0.956186
20
0.325512
11
0.956245
21
0.325485
0
LINE
8
BLACK
6
CONTINUOUS
10
0.956245
20
0.325485
11
0.958119
21
0.32361
0
LINE
8
BLACK
6
CONTINUOUS
10
0.958119
20
0.32361
11
0.958626
21
0.322887
0
LINE
8
BLACK
6
CONTINUOUS
10
0.958626
20
0.322887
11
0.958673
21
0.322843
0
LINE
8
BLACK
6
CONTINUOUS
10
0.958673
20
0.322843
11
0.960547
21
0.319093
0
LINE
8
BLACK
6
CONTINUOUS
10
0.960547
20
0.319093
11
0.96084
21
0.31811
0
LINE
8
BLACK
6
CONTINUOUS
10
0.96084
20
0.31811
11
0.960799
21
0.317939
0
LINE
8
BLACK
6
CONTINUOUS
10
0.960799
20
0.317939
11
0.960859
21
0.317773
0
LINE
8
BLACK
6
CONTINUOUS
10
0.960859
20
0.317773
11
0.960859
21
0.310274
0
LINE
8
BLACK
6
CONTINUOUS
10
0.960859
20
0.310274
11
0.960681
21
0.309264
0
LINE
8
BLACK
6
CONTINUOUS
10
0.960681
20
0.309264
11
0.960567
21
0.309129
0
LINE
8
BLACK
6
CONTINUOUS
10
0.960567
20
0.309129
11
0.960547
21
0.308953
0
LINE
8
BLACK
6
CONTINUOUS
10
0.960547
20
0.308953
11
0.958673
21
0.305204
0
LINE
8
BLACK
6
CONTINUOUS
10
0.958673
20
0.305204
11
0.958147
21
0.304495
0
LINE
8
BLACK
6
CONTINUOUS
10
0.958147
20
0.304495
11
0.958119
21
0.304436
0
LINE
8
BLACK
6
CONTINUOUS
10
0.958119
20
0.304436
11
0.956245
21
0.302561
0
LINE
8
BLACK
6
CONTINUOUS
10
0.956245
20
0.302561
11
0.955521
21
0.302055
0
LINE
8
BLACK
6
CONTINUOUS
10
0.955521
20
0.302055
11
0.955477
21
0.302008
0
LINE
8
BLACK
6
CONTINUOUS
10
0.955477
20
0.302008
11
0.951728
21
0.300134
0
LINE
8
BLACK
6
CONTINUOUS
10
0.951728
20
0.300134
11
0.950745
21
0.299841
0
LINE
8
BLACK
6
CONTINUOUS
10
0.950745
20
0.299841
11
0.950573
21
0.299882
0
LINE
8
BLACK
6
CONTINUOUS
10
0.950573
20
0.299882
11
0.950407
21
0.299822
0
LINE
8
BLACK
6
CONTINUOUS
10
0.950407
20
0.299822
11
0.918536
21
0.299822
0
LINE
8
BLACK
6
CONTINUOUS
10
0.918536
20
0.299822
11
0.917526
21
0.3
0
LINE
8
BLACK
6
CONTINUOUS
10
0.917526
20
0.3
11
0.915979
21
0.301298
0
LINE
8
BLACK
6
CONTINUOUS
10
0.915979
20
0.301298
11
0.915628
21
0.303287
0
LINE
8
BLACK
6
CONTINUOUS
10
0.915628
20
0.303287
11
0.916638
21
0.305037
0
LINE
8
BLACK
6
CONTINUOUS
10
0.916638
20
0.305037
11
0.918536
21
0.305727
0
LINE
8
BLACK
6
CONTINUOUS
10
0.918536
20
0.305727
11
0.94971
21
0.305727
0
LINE
8
BLACK
6
CONTINUOUS
10
0.94971
20
0.305727
11
0.952408
21
0.307076
0
LINE
8
BLACK
6
CONTINUOUS
10
0.952408
20
0.307076
11
0.953605
21
0.308273
0
LINE
8
BLACK
6
CONTINUOUS
10
0.953605
20
0.308273
11
0.954954
21
0.310971
0
LINE
8
BLACK
6
CONTINUOUS
10
0.954954
20
0.310971
11
0.954954
21
0.317076
0
LINE
8
BLACK
6
CONTINUOUS
10
0.954954
20
0.317076
11
0.953605
21
0.319773
0
LINE
8
BLACK
6
CONTINUOUS
10
0.953605
20
0.319773
11
0.952408
21
0.32097
0
LINE
8
BLACK
6
CONTINUOUS
10
0.952408
20
0.32097
11
0.94971
21
0.322319
0
LINE
8
BLACK
6
CONTINUOUS
10
0.94971
20
0.322319
11
0.918536
21
0.322319
0
LINE
8
BLACK
6
CONTINUOUS
10
0.918536
20
0.322319
11
0.917526
21
0.322497
0
LINE
8
BLACK
6
CONTINUOUS
10
0.917526
20
0.322497
11
0.915979
21
0.323795
0
LINE
8
BLACK
6
CONTINUOUS
10
0.915979
20
0.323795
11
0.915628
21
0.325785
0
LINE
8
BLACK
6
CONTINUOUS
10
0.915628
20
0.325785
11
0.916638
21
0.327534
0
LINE
8
BLACK
6
CONTINUOUS
10
0.916638
20
0.327534
11
0.918536
21
0.328225
0
LINE
8
BLACK
6
CONTINUOUS
10
0.918536
20
0.328225
11
0.950407
21
0.328225
0
LINE
8
BLACK
6
CONTINUOUS
10
0.950407
20
0.328225
11
0.951417
21
0.328047
0
LINE
8
BLACK
6
CONTINUOUS
10
1.13882
20
0.496063
11
1.14021
21
0.495486
0
LINE
8
BLACK
6
CONTINUOUS
10
1.14021
20
0.495486
11
1.14079
21
0.494094
0
LINE
8
BLACK
6
CONTINUOUS
10
1.14079
20
0.494094
11
1.14079
21
0.135827
0
LINE
8
BLACK
6
CONTINUOUS
10
1.14079
20
0.135827
11
1.14079
21
0.135827
0
LINE
8
BLACK
6
CONTINUOUS
10
1.14079
20
0.135827
11
1.14021
21
0.134435
0
LINE
8
BLACK
6
CONTINUOUS
10
1.14021
20
0.134435
11
1.10084
21
0.0950648
0
LINE
8
BLACK
6
CONTINUOUS
10
1.10084
20
0.0950648
11
1.09945
21
0.0944882
0
LINE
8
BLACK
6
CONTINUOUS
10
1.09945
20
0.0944882
11
0.741181
21
0.0944882
0
LINE
8
BLACK
6
CONTINUOUS
10
0.741181
20
0.0944882
11
0.739789
21
0.0950648
0
LINE
8
BLACK
6
CONTINUOUS
10
0.739789
20
0.0950648
11
0.739213
21
0.0964567
0
LINE
8
BLACK
6
CONTINUOUS
10
0.739213
20
0.0964567
11
0.739213
21
0.494094
0
LINE
8
BLACK
6
CONTINUOUS
10
0.739213
20
0.494094
11
0.739789
21
0.495486
0
LINE
8
BLACK
6
CONTINUOUS
10
0.739789
20
0.495486
11
0.741181
21
0.496063
0
LINE
8
BLACK
6
CONTINUOUS
10
0.741181
20
0.496063
11
1.13882
21
0.496063
0
LINE
8
BLACK
6
CONTINUOUS
10
0.74315
20
0.492126
11
0.74315
21
0.0984252
0
LINE
8
BLACK
6
CONTINUOUS
10
0.74315
20
0.0984252
11
1.09863
21
0.0984252
0
LINE
8
BLACK
6
CONTINUOUS
10
1.09863
20
0.0984252
11
1.13685
21
0.136642
0
LINE
8
BLACK
6
CONTINUOUS
10
1.13685
20
0.136642
11
1.13685
21
0.492126
0
LINE
8
BLACK
6
CONTINUOUS
10
1.13685
20
0.492126
11
0.74315
21
0.492126
0
LINE
8
BLACK
6
CONTINUOUS
10
0.720347
20
0.127512
11
0.720482
21
0.127524
0
LINE
8
BLACK
6
CONTINUOUS
10
0.720482
20
0.127524
11
0.72121
21
0.127014
0
LINE
8
BLACK
6
CONTINUOUS
10
0.72121
20
0.127014
11
0.721979
21
0.12657
0
LINE
8
BLACK
6
CONTINUOUS
10
0.721979
20
0.12657
11
0.722025
21
0.126443
0
LINE
8
BLACK
6
CONTINUOUS
10
0.722025
20
0.126443
11
0.722136
21
0.126366
0
LINE
8
BLACK
6
CONTINUOUS
10
0.722136
20
0.126366
11
0.722366
21
0.125507
0
LINE
8
BLACK
6
CONTINUOUS
10
0.722366
20
0.125507
11
0.72267
21
0.124672
0
LINE
8
BLACK
6
CONTINUOUS
10
0.72267
20
0.124672
11
0.72267
21
0.1003
0
LINE
8
BLACK
6
CONTINUOUS
10
0.72267
20
0.1003
11
0.722492
21
0.0992901
0
LINE
8
BLACK
6
CONTINUOUS
10
0.722492
20
0.0992901
11
0.721194
21
0.0977428
0
LINE
8
BLACK
6
CONTINUOUS
10
0.721194
20
0.0977428
11
0.719205
21
0.0973921
0
LINE
8
BLACK
6
CONTINUOUS
10
0.719205
20
0.0973921
11
0.717455
21
0.098402
0
LINE
8
BLACK
6
CONTINUOUS
10
0.717455
20
0.098402
11
0.716765
21
0.1003
0
LINE
8
BLACK
6
CONTINUOUS
10
0.716765
20
0.1003
11
0.716765
21
0.117543
0
LINE
8
BLACK
6
CONTINUOUS
10
0.716765
20
0.117543
11
0.699308
21
0.100087
0
LINE
8
BLACK
6
CONTINUOUS
10
0.699308
20
0.100087
11
0.698468
21
0.0994987
0
LINE
8
BLACK
6
CONTINUOUS
10
0.698468
20
0.0994987
11
0.698292
21
0.0994833
0
LINE
8
BLACK
6
CONTINUOUS
10
0.698292
20
0.0994833
11
0.698154
21
0.0993735
0
LINE
8
BLACK
6
CONTINUOUS
10
0.698154
20
0.0993735
11
0.69253
21
0.0974988
0
LINE
8
BLACK
6
CONTINUOUS
10
0.69253
20
0.0974988
11
0.691656
21
0.0973693
0
LINE
8
BLACK
6
CONTINUOUS
10
0.691656
20
0.0973693
11
0.691596
21
0.0973472
0
LINE
8
BLACK
6
CONTINUOUS
10
0.691596
20
0.0973472
11
0.687846
21
0.0973472
0
LINE
8
BLACK
6
CONTINUOUS
10
0.687846
20
0.0973472
11
0.686836
21
0.0975253
0
LINE
8
BLACK
6
CONTINUOUS
10
0.686836
20
0.0975253
11
0.686701
21
0.0976388
0
LINE
8
BLACK
6
CONTINUOUS
10
0.686701
20
0.0976388
11
0.686526
21
0.097659
0
LINE
8
BLACK
6
CONTINUOUS
10
0.686526
20
0.097659
11
0.682776
21
0.0995337
0
LINE
8
BLACK
6
CONTINUOUS
10
0.682776
20
0.0995337
11
0.682067
21
0.10006
0
LINE
8
BLACK
6
CONTINUOUS
10
0.682067
20
0.10006
11
0.682009
21
0.100087
0
LINE
8
BLACK
6
CONTINUOUS
10
0.682009
20
0.100087
11
0.680134
21
0.101962
0
LINE
8
BLACK
6
CONTINUOUS
10
0.680134
20
0.101962
11
0.679628
21
0.102685
0
LINE
8
BLACK
6
CONTINUOUS
10
0.679628
20
0.102685
11
0.679581
21
0.102729
0
LINE
8
BLACK
6
CONTINUOUS
10
0.679581
20
0.102729
11
0.677706
21
0.106479
0
LINE
8
BLACK
6
CONTINUOUS
10
0.677706
20
0.106479
11
0.677414
21
0.107461
0
LINE
8
BLACK
6
CONTINUOUS
10
0.677414
20
0.107461
11
0.677455
21
0.107633
0
LINE
8
BLACK
6
CONTINUOUS
10
0.677455
20
0.107633
11
0.677394
21
0.107799
0
LINE
8
BLACK
6
CONTINUOUS
10
0.677394
20
0.107799
11
0.677394
21
0.117173
0
LINE
8
BLACK
6
CONTINUOUS
10
0.677394
20
0.117173
11
0.677573
21
0.118183
0
LINE
8
BLACK
6
CONTINUOUS
10
0.677573
20
0.118183
11
0.677686
21
0.118318
0
LINE
8
BLACK
6
CONTINUOUS
10
0.677686
20
0.118318
11
0.677706
21
0.118493
0
LINE
8
BLACK
6
CONTINUOUS
10
0.677706
20
0.118493
11
0.679581
21
0.122243
0
LINE
8
BLACK
6
CONTINUOUS
10
0.679581
20
0.122243
11
0.680107
21
0.122952
0
LINE
8
BLACK
6
CONTINUOUS
10
0.680107
20
0.122952
11
0.680134
21
0.12301
0
LINE
8
BLACK
6
CONTINUOUS
10
0.680134
20
0.12301
11
0.682009
21
0.124885
0
LINE
8
BLACK
6
CONTINUOUS
10
0.682009
20
0.124885
11
0.682849
21
0.125473
0
LINE
8
BLACK
6
CONTINUOUS
10
0.682849
20
0.125473
11
0.684861
21
0.125649
0
LINE
8
BLACK
6
CONTINUOUS
10
0.684861
20
0.125649
11
0.686516
21
0.124491
0
LINE
8
BLACK
6
CONTINUOUS
10
0.686516
20
0.124491
11
0.687038
21
0.12254
0
LINE
8
BLACK
6
CONTINUOUS
10
0.687038
20
0.12254
11
0.686185
21
0.120709
0
LINE
8
BLACK
6
CONTINUOUS
10
0.686185
20
0.120709
11
0.684649
21
0.119173
0
LINE
8
BLACK
6
CONTINUOUS
10
0.684649
20
0.119173
11
0.6833
21
0.116476
0
LINE
8
BLACK
6
CONTINUOUS
10
0.6833
20
0.116476
11
0.6833
21
0.108496
0
LINE
8
BLACK
6
CONTINUOUS
10
0.6833
20
0.108496
11
0.684649
21
0.105799
0
LINE
8
BLACK
6
CONTINUOUS
10
0.684649
20
0.105799
11
0.685846
21
0.104601
0
LINE
8
BLACK
6
CONTINUOUS
10
0.685846
20
0.104601
11
0.688543
21
0.103253
0
LINE
8
BLACK
6
CONTINUOUS
10
0.688543
20
0.103253
11
0.691117
21
0.103253
0
LINE
8
BLACK
6
CONTINUOUS
10
0.691117
20
0.103253
11
0.695625
21
0.104756
0
LINE
8
BLACK
6
CONTINUOUS
10
0.695625
20
0.104756
11
0.717629
21
0.12676
0
LINE
8
BLACK
6
CONTINUOUS
10
0.717629
20
0.12676
11
0.718157
21
0.12713
0
LINE
8
BLACK
6
CONTINUOUS
10
0.718157
20
0.12713
11
0.718241
21
0.127229
0
LINE
8
BLACK
6
CONTINUOUS
10
0.718241
20
0.127229
11
0.718319
21
0.127243
0
LINE
8
BLACK
6
CONTINUOUS
10
0.718319
20
0.127243
11
0.718469
21
0.127348
0
LINE
8
BLACK
6
CONTINUOUS
10
0.718469
20
0.127348
11
0.719355
21
0.127426
0
LINE
8
BLACK
6
CONTINUOUS
10
0.719355
20
0.127426
11
0.72023
21
0.12758
0
LINE
8
BLACK
6
CONTINUOUS
10
0.72023
20
0.12758
11
0.720347
21
0.127512
0
LINE
8
BLACK
6
CONTINUOUS
10
0.109544
20
0.293898
11
0.110657
21
0.292212
0
LINE
8
BLACK
6
CONTINUOUS
10
0.110657
20
0.292212
11
0.110426
21
0.290206
0
LINE
8
BLACK
6
CONTINUOUS
10
0.110426
20
0.290206
11
0.108551
21
0.286456
0
LINE
8
BLACK
6
CONTINUOUS
10
0.108551
20
0.286456
11
0.108025
21
0.285747
0
LINE
8
BLACK
6
CONTINUOUS
10
0.108025
20
0.285747
11
0.107998
21
0.285689
0
LINE
8
BLACK
6
CONTINUOUS
10
0.107998
20
0.285689
11
0.10554
21
0.28323
0
LINE
8
BLACK
6
CONTINUOUS
10
0.10554
20
0.28323
11
0.132954
21
0.28323
0
LINE
8
BLACK
6
CONTINUOUS
10
0.132954
20
0.28323
11
0.132954
21
0.291526
0
LINE
8
BLACK
6
CONTINUOUS
10
0.132954
20
0.291526
11
0.133132
21
0.292536
0
LINE
8
BLACK
6
CONTINUOUS
10
0.133132
20
0.292536
11
0.13443
21
0.294083
0
LINE
8
BLACK
6
CONTINUOUS
10
0.13443
20
0.294083
11
0.136419
21
0.294434
0
LINE
8
BLACK
6
CONTINUOUS
10
0.136419
20
0.294434
11
0.138168
21
0.293424
0
LINE
8
BLACK
6
CONTINUOUS
10
0.138168
20
0.293424
11
0.138859
21
0.291526
0
LINE
8
BLACK
6
CONTINUOUS
10
0.138859
20
0.291526
11
0.138859
21
0.269029
0
LINE
8
BLACK
6
CONTINUOUS
10
0.138859
20
0.269029
11
0.138681
21
0.268019
0
LINE
8
BLACK
6
CONTINUOUS
10
0.138681
20
0.268019
11
0.137383
21
0.266472
0
LINE
8
BLACK
6
CONTINUOUS
10
0.137383
20
0.266472
11
0.135394
21
0.266121
0
LINE
8
BLACK
6
CONTINUOUS
10
0.135394
20
0.266121
11
0.133644
21
0.267131
0
LINE
8
BLACK
6
CONTINUOUS
10
0.133644
20
0.267131
11
0.132954
21
0.269029
0
LINE
8
BLACK
6
CONTINUOUS
10
0.132954
20
0.269029
11
0.132954
21
0.277325
0
LINE
8
BLACK
6
CONTINUOUS
10
0.132954
20
0.277325
11
0.0965362
21
0.277325
0
LINE
8
BLACK
6
CONTINUOUS
10
0.0965362
20
0.277325
11
0.0955263
21
0.277503
0
LINE
8
BLACK
6
CONTINUOUS
10
0.0955263
20
0.277503
11
0.0953962
21
0.277612
0
LINE
8
BLACK
6
CONTINUOUS
10
0.0953962
20
0.277612
11
0.0952274
21
0.277631
0
LINE
8
BLACK
6
CONTINUOUS
10
0.0952274
20
0.277631
11
0.0946355
21
0.27825
0
LINE
8
BLACK
6
CONTINUOUS
10
0.0946355
20
0.27825
11
0.093979
21
0.278801
0
LINE
8
BLACK
6
CONTINUOUS
10
0.093979
20
0.278801
11
0.0939495
21
0.278968
0
LINE
8
BLACK
6
CONTINUOUS
10
0.0939495
20
0.278968
11
0.0938322
21
0.279091
0
LINE
8
BLACK
6
CONTINUOUS
10
0.0938322
20
0.279091
11
0.0937771
21
0.279946
0
LINE
8
BLACK
6
CONTINUOUS
10
0.0937771
20
0.279946
11
0.0936283
21
0.28079
0
LINE
8
BLACK
6
CONTINUOUS
10
0.0936283
20
0.28079
11
0.0937131
21
0.280937
0
LINE
8
BLACK
6
CONTINUOUS
10
0.0937131
20
0.280937
11
0.0937022
21
0.281107
0
LINE
8
BLACK
6
CONTINUOUS
10
0.0937022
20
0.281107
11
0.0942097
21
0.281797
0
LINE
8
BLACK
6
CONTINUOUS
10
0.0942097
20
0.281797
11
0.0946382
21
0.282539
0
LINE
8
BLACK
6
CONTINUOUS
10
0.0946382
20
0.282539
11
0.0947977
21
0.282597
0
LINE
8
BLACK
6
CONTINUOUS
10
0.0947977
20
0.282597
11
0.0948983
21
0.282734
0
LINE
8
BLACK
6
CONTINUOUS
10
0.0948983
20
0.282734
11
0.100279
21
0.286322
0
LINE
8
BLACK
6
CONTINUOUS
10
0.100279
20
0.286322
11
0.103483
21
0.289526
0
LINE
8
BLACK
6
CONTINUOUS
10
0.103483
20
0.289526
11
0.105144
21
0.292847
0
LINE
8
BLACK
6
CONTINUOUS
10
0.105144
20
0.292847
11
0.105755
21
0.29367
0
LINE
8
BLACK
6
CONTINUOUS
10
0.105755
20
0.29367
11
0.107608
21
0.294474
0
LINE
8
BLACK
6
CONTINUOUS
10
0.107608
20
0.294474
11
0.109544
21
0.293898
0
LINE
8
BLACK
6
CONTINUOUS
10
0.138168
20
0.325295
11
0.138859
21
0.323397
0
LINE
8
BLACK
6
CONTINUOUS
10
0.138859
20
0.323397
11
0.138859
21
0.319648
0
LINE
8
BLACK
6
CONTINUOUS
10
0.138859
20
0.319648
11
0.138706
21
0.318778
0
LINE
8
BLACK
6
CONTINUOUS
10
0.138706
20
0.318778
11
0.138707
21
0.318714
0
LINE
8
BLACK
6
CONTINUOUS
10
0.138707
20
0.318714
11
0.136833
21
0.31309
0
LINE
8
BLACK
6
CONTINUOUS
10
0.136833
20
0.31309
11
0.136344
21
0.312188
0
LINE
8
BLACK
6
CONTINUOUS
10
0.136344
20
0.312188
11
0.136194
21
0.312095
0
LINE
8
BLACK
6
CONTINUOUS
10
0.136194
20
0.312095
11
0.136119
21
0.311935
0
LINE
8
BLACK
6
CONTINUOUS
10
0.136119
20
0.311935
11
0.13237
21
0.308186
0
LINE
8
BLACK
6
CONTINUOUS
10
0.13237
20
0.308186
11
0.13153
21
0.307598
0
LINE
8
BLACK
6
CONTINUOUS
10
0.13153
20
0.307598
11
0.131354
21
0.307582
0
LINE
8
BLACK
6
CONTINUOUS
10
0.131354
20
0.307582
11
0.131216
21
0.307473
0
LINE
8
BLACK
6
CONTINUOUS
10
0.131216
20
0.307473
11
0.125591
21
0.305598
0
LINE
8
BLACK
6
CONTINUOUS
10
0.125591
20
0.305598
11
0.124718
21
0.305468
0
LINE
8
BLACK
6
CONTINUOUS
10
0.124718
20
0.305468
11
0.124658
21
0.305446
0
LINE
8
BLACK
6
CONTINUOUS
10
0.124658
20
0.305446
11
0.0965362
21
0.305446
0
LINE
8
BLACK
6
CONTINUOUS
10
0.0965362
20
0.305446
11
0.0955263
21
0.305624
0
LINE
8
BLACK
6
CONTINUOUS
10
0.0955263
20
0.305624
11
0.093979
21
0.306923
0
LINE
8
BLACK
6
CONTINUOUS
10
0.093979
20
0.306923
11
0.0936283
21
0.308912
0
LINE
8
BLACK
6
CONTINUOUS
10
0.0936283
20
0.308912
11
0.0946382
21
0.310661
0
LINE
8
BLACK
6
CONTINUOUS
10
0.0946382
20
0.310661
11
0.0965362
21
0.311352
0
LINE
8
BLACK
6
CONTINUOUS
10
0.0965362
20
0.311352
11
0.124179
21
0.311352
0
LINE
8
BLACK
6
CONTINUOUS
10
0.124179
20
0.311352
11
0.128687
21
0.312855
0
LINE
8
BLACK
6
CONTINUOUS
10
0.128687
20
0.312855
11
0.131451
21
0.315618
0
LINE
8
BLACK
6
CONTINUOUS
10
0.131451
20
0.315618
11
0.132954
21
0.320127
0
LINE
8
BLACK
6
CONTINUOUS
10
0.132954
20
0.320127
11
0.132954
21
0.323397
0
LINE
8
BLACK
6
CONTINUOUS
10
0.132954
20
0.323397
11
0.133132
21
0.324407
0
LINE
8
BLACK
6
CONTINUOUS
10
0.133132
20
0.324407
11
0.13443
21
0.325954
0
LINE
8
BLACK
6
CONTINUOUS
10
0.13443
20
0.325954
11
0.136419
21
0.326305
0
LINE
8
BLACK
6
CONTINUOUS
10
0.136419
20
0.326305
11
0.138168
21
0.325295
0
LINE
8
BLACK
6
CONTINUOUS
10
0.180992
20
0.459646
11
0.182384
21
0.459069
0
LINE
8
BLACK
6
CONTINUOUS
10
0.182384
20
0.459069
11
0.182961
21
0.457677
0
LINE
8
BLACK
6
CONTINUOUS
10
0.182961
20
0.457677
11
0.182961
21
0.132874
0
LINE
8
BLACK
6
CONTINUOUS
10
0.182961
20
0.132874
11
0.182384
21
0.131482
0
LINE
8
BLACK
6
CONTINUOUS
10
0.182384
20
0.131482
11
0.180992
21
0.130906
0
LINE
8
BLACK
6
CONTINUOUS
10
0.180992
20
0.130906
11
0.0215433
21
0.130906
0
LINE
8
BLACK
6
CONTINUOUS
10
0.0215433
20
0.130906
11
0.0201514
21
0.131482
0
LINE
8
BLACK
6
CONTINUOUS
10
0.0201514
20
0.131482
11
0.0195748
21
0.132874
0
LINE
8
BLACK
6
CONTINUOUS
10
0.0195748
20
0.132874
11
0.0195748
21
0.457677
0
LINE
8
BLACK
6
CONTINUOUS
10
0.0195748
20
0.457677
11
0.0201514
21
0.459069
0
LINE
8
BLACK
6
CONTINUOUS
10
0.0201514
20
0.459069
11
0.0215433
21
0.459646
0
LINE
8
BLACK
6
CONTINUOUS
10
0.0215433
20
0.459646
11
0.180992
21
0.459646
0
LINE
8
BLACK
6
CONTINUOUS
10
0.0235118
20
0.455709
11
0.0235118
21
0.134843
0
LINE
8
BLACK
6
CONTINUOUS
10
0.0235118
20
0.134843
11
0.179024
21
0.134843
0
LINE
8
BLACK
6
CONTINUOUS
10
0.179024
20
0.134843
11
0.179024
21
0.200753
0
LINE
8
BLACK
6
CONTINUOUS
10
0.179024
20
0.200753
11
0.152017
21
0.219849
0
LINE
8
BLACK
6
CONTINUOUS
10
0.152017
20
0.219849
11
0.151835
21
0.220138
0
LINE
8
BLACK
6
CONTINUOUS
10
0.151835
20
0.220138
11
0.151546
21
0.22032
0
LINE
8
BLACK
6
CONTINUOUS
10
0.151546
20
0.22032
11
0.151448
21
0.220751
0
LINE
8
BLACK
6
CONTINUOUS
10
0.151448
20
0.220751
11
0.151213
21
0.221124
0
LINE
8
BLACK
6
CONTINUOUS
10
0.151213
20
0.221124
11
0.151289
21
0.221457
0
LINE
8
BLACK
6
CONTINUOUS
10
0.151289
20
0.221457
11
0.151213
21
0.22179
0
LINE
8
BLACK
6
CONTINUOUS
10
0.151213
20
0.22179
11
0.151448
21
0.222163
0
LINE
8
BLACK
6
CONTINUOUS
10
0.151448
20
0.222163
11
0.151546
21
0.222593
0
LINE
8
BLACK
6
CONTINUOUS
10
0.151546
20
0.222593
11
0.151835
21
0.222775
0
LINE
8
BLACK
6
CONTINUOUS
10
0.151835
20
0.222775
11
0.152017
21
0.223064
0
LINE
8
BLACK
6
CONTINUOUS
10
0.152017
20
0.223064
11
0.179024
21
0.242161
0
LINE
8
BLACK
6
CONTINUOUS
10
0.179024
20
0.242161
11
0.179024
21
0.455709
0
LINE
8
BLACK
6
CONTINUOUS
10
0.179024
20
0.455709
11
0.0235118
21
0.455709
0
LINE
8
BLACK
6
CONTINUOUS
10
0.156563
20
0.221457
11
0.179024
21
0.205575
0
LINE
8
BLACK
6
CONTINUOUS
10
0.179024
20
0.205575
11
0.179024
21
0.237339
0
LINE
8
BLACK
6
CONTINUOUS
10
0.179024
20
0.237339
11
0.156563
21
0.221457
0
LINE
8
BLACK
6
CONTINUOUS
10
0.666498
20
0.187461
11
0.667248
21
0.186711
0
LINE
8
BLACK
6
CONTINUOUS
10
0.667248
20
0.186711
11
0.667322
21
0.186531
0
LINE
8
BLACK
6
CONTINUOUS
10
0.667322
20
0.186531
11
0.667469
21
0.186404
0
LINE
8
BLACK
6
CONTINUOUS
10
0.667469
20
0.186404
11
0.668219
21
0.184904
0
LINE
8
BLACK
6
CONTINUOUS
10
0.668219
20
0.184904
11
0.668238
21
0.18463
0
LINE
8
BLACK
6
CONTINUOUS
10
0.668238
20
0.18463
11
0.668344
21
0.184376
0
LINE
8
BLACK
6
CONTINUOUS
10
0.668344
20
0.184376
11
0.668344
21
0.180626
0
LINE
8
BLACK
6
CONTINUOUS
10
0.668344
20
0.180626
11
0.668238
21
0.180372
0
LINE
8
BLACK
6
CONTINUOUS
10
0.668238
20
0.180372
11
0.668219
21
0.180098
0
LINE
8
BLACK
6
CONTINUOUS
10
0.668219
20
0.180098
11
0.667469
21
0.178598
0
LINE
8
BLACK
6
CONTINUOUS
10
0.667469
20
0.178598
11
0.667322
21
0.178471
0
LINE
8
BLACK
6
CONTINUOUS
10
0.667322
20
0.178471
11
0.667248
21
0.178291
0
LINE
8
BLACK
6
CONTINUOUS
10
0.667248
20
0.178291
11
0.666498
21
0.177541
0
LINE
8
BLACK
6
CONTINUOUS
10
0.666498
20
0.177541
11
0.666318
21
0.177467
0
LINE
8
BLACK
6
CONTINUOUS
10
0.666318
20
0.177467
11
0.666191
21
0.17732
0
LINE
8
BLACK
6
CONTINUOUS
10
0.666191
20
0.17732
11
0.664691
21
0.17657
0
LINE
8
BLACK
6
CONTINUOUS
10
0.664691
20
0.17657
11
0.664417
21
0.176551
0
LINE
8
BLACK
6
CONTINUOUS
10
0.664417
20
0.176551
11
0.664163
21
0.176445
0
LINE
8
BLACK
6
CONTINUOUS
10
0.664163
20
0.176445
11
0.660413
21
0.176445
0
LINE
8
BLACK
6
CONTINUOUS
10
0.660413
20
0.176445
11
0.660159
21
0.176551
0
LINE
8
BLACK
6
CONTINUOUS
10
0.660159
20
0.176551
11
0.659885
21
0.17657
0
LINE
8
BLACK
6
CONTINUOUS
10
0.659885
20
0.17657
11
0.658385
21
0.17732
0
LINE
8
BLACK
6
CONTINUOUS
10
0.658385
20
0.17732
11
0.658258
21
0.177467
0
LINE
8
BLACK
6
CONTINUOUS
10
0.658258
20
0.177467
11
0.658078
21
0.177541
0
LINE
8
BLACK
6
CONTINUOUS
10
0.658078
20
0.177541
11
0.657328
21
0.178291
0
LINE
8
BLACK
6
CONTINUOUS
10
0.657328
20
0.178291
11
0.657254
21
0.178471
0
LINE
8
BLACK
6
CONTINUOUS
10
0.657254
20
0.178471
11
0.657107
21
0.178598
0
LINE
8
BLACK
6
CONTINUOUS
10
0.657107
20
0.178598
11
0.656357
21
0.180098
0
LINE
8
BLACK
6
CONTINUOUS
10
0.656357
20
0.180098
11
0.656338
21
0.180372
0
LINE
8
BLACK
6
CONTINUOUS
10
0.656338
20
0.180372
11
0.656233
21
0.180626
0
LINE
8
BLACK
6
CONTINUOUS
10
0.656233
20
0.180626
11
0.656233
21
0.184376
0
LINE
8
BLACK
6
CONTINUOUS
10
0.656233
20
0.184376
11
0.656338
21
0.18463
0
LINE
8
BLACK
6
CONTINUOUS
10
0.656338
20
0.18463
11
0.656357
21
0.184904
0
LINE
8
BLACK
6
CONTINUOUS
10
0.656357
20
0.184904
11
0.656504
21
0.185198
0
LINE
8
BLACK
6
CONTINUOUS
10
0.656504
20
0.185198
11
0.652596
21
0.184807
0
LINE
8
BLACK
6
CONTINUOUS
10
0.652596
20
0.184807
11
0.652596
21
0.178376
0
LINE
8
BLACK
6
CONTINUOUS
10
0.652596
20
0.178376
11
0.65225
21
0.177541
0
LINE
8
BLACK
6
CONTINUOUS
10
0.65225
20
0.177541
11
0.651414
21
0.177195
0
LINE
8
BLACK
6
CONTINUOUS
10
0.651414
20
0.177195
11
0.650579
21
0.177541
0
LINE
8
BLACK
6
CONTINUOUS
10
0.650579
20
0.177541
11
0.650233
21
0.178376
0
LINE
8
BLACK
6
CONTINUOUS
10
0.650233
20
0.178376
11
0.650233
21
0.185876
0
LINE
8
BLACK
6
CONTINUOUS
10
0.650233
20
0.185876
11
0.650385
21
0.186243
0
LINE
8
BLACK
6
CONTINUOUS
10
0.650385
20
0.186243
11
0.6505
21
0.186623
0
LINE
8
BLACK
6
CONTINUOUS
10
0.6505
20
0.186623
11
0.650555
21
0.186653
0
LINE
8
BLACK
6
CONTINUOUS
10
0.650555
20
0.186653
11
0.650579
21
0.186711
0
LINE
8
BLACK
6
CONTINUOUS
10
0.650579
20
0.186711
11
0.650947
21
0.186863
0
LINE
8
BLACK
6
CONTINUOUS
10
0.650947
20
0.186863
11
0.651297
21
0.187051
0
LINE
8
BLACK
6
CONTINUOUS
10
0.651297
20
0.187051
11
0.658796
21
0.187801
0
LINE
8
BLACK
6
CONTINUOUS
10
0.658796
20
0.187801
11
0.658856
21
0.187783
0
LINE
8
BLACK
6
CONTINUOUS
10
0.658856
20
0.187783
11
0.658913
21
0.187807
0
LINE
8
BLACK
6
CONTINUOUS
10
0.658913
20
0.187807
11
0.659281
21
0.187654
0
LINE
8
BLACK
6
CONTINUOUS
10
0.659281
20
0.187654
11
0.659661
21
0.18754
0
LINE
8
BLACK
6
CONTINUOUS
10
0.659661
20
0.18754
11
0.659691
21
0.187485
0
LINE
8
BLACK
6
CONTINUOUS
10
0.659691
20
0.187485
11
0.659749
21
0.187461
0
LINE
8
BLACK
6
CONTINUOUS
10
0.659749
20
0.187461
11
0.659901
21
0.187093
0
LINE
8
BLACK
6
CONTINUOUS
10
0.659901
20
0.187093
11
0.660089
21
0.186743
0
LINE
8
BLACK
6
CONTINUOUS
10
0.660089
20
0.186743
11
0.660071
21
0.186683
0
LINE
8
BLACK
6
CONTINUOUS
10
0.660071
20
0.186683
11
0.660095
21
0.186625
0
LINE
8
BLACK
6
CONTINUOUS
10
0.660095
20
0.186625
11
0.659942
21
0.186258
0
LINE
8
BLACK
6
CONTINUOUS
10
0.659942
20
0.186258
11
0.659828
21
0.185878
0
LINE
8
BLACK
6
CONTINUOUS
10
0.659828
20
0.185878
11
0.659773
21
0.185848
0
LINE
8
BLACK
6
CONTINUOUS
10
0.659773
20
0.185848
11
0.659749
21
0.18579
0
LINE
8
BLACK
6
CONTINUOUS
10
0.659749
20
0.18579
11
0.659134
21
0.185176
0
LINE
8
BLACK
6
CONTINUOUS
10
0.659134
20
0.185176
11
0.658595
21
0.184097
0
LINE
8
BLACK
6
CONTINUOUS
10
0.658595
20
0.184097
11
0.658595
21
0.180905
0
LINE
8
BLACK
6
CONTINUOUS
10
0.658595
20
0.180905
11
0.659134
21
0.179826
0
LINE
8
BLACK
6
CONTINUOUS
10
0.659134
20
0.179826
11
0.659613
21
0.179347
0
LINE
8
BLACK
6
CONTINUOUS
10
0.659613
20
0.179347
11
0.660692
21
0.178808
0
LINE
8
BLACK
6
CONTINUOUS
10
0.660692
20
0.178808
11
0.663884
21
0.178808
0
LINE
8
BLACK
6
CONTINUOUS
10
0.663884
20
0.178808
11
0.664963
21
0.179347
0
LINE
8
BLACK
6
CONTINUOUS
10
0.664963
20
0.179347
11
0.665442
21
0.179826
0
LINE
8
BLACK
6
CONTINUOUS
10
0.665442
20
0.179826
11
0.665981
21
0.180905
0
LINE
8
BLACK
6
CONTINUOUS
10
0.665981
20
0.180905
11
0.665981
21
0.184097
0
LINE
8
BLACK
6
CONTINUOUS
10
0.665981
20
0.184097
11
0.665442
21
0.185176
0
LINE
8
BLACK
6
CONTINUOUS
10
0.665442
20
0.185176
11
0.664828
21
0.18579
0
LINE
8
BLACK
6
CONTINUOUS
10
0.664828
20
0.18579
11
0.664482
21
0.186625
0
LINE
8
BLACK
6
CONTINUOUS
10
0.664482
20
0.186625
11
0.664828
21
0.187461
0
LINE
8
BLACK
6
CONTINUOUS
10
0.664828
20
0.187461
11
0.665663
21
0.187807
0
LINE
8
BLACK
6
CONTINUOUS
10
0.665663
20
0.187807
11
0.666498
21
0.187461
0
LINE
8
BLACK
6
CONTINUOUS
10
0.660552
20
0.203497
11
0.6607
21
0.203519
0
LINE
8
BLACK
6
CONTINUOUS
10
0.6607
20
0.203519
11
0.663699
21
0.202769
0
LINE
8
BLACK
6
CONTINUOUS
10
0.663699
20
0.202769
11
0.663807
21
0.202689
0
LINE
8
BLACK
6
CONTINUOUS
10
0.663807
20
0.202689
11
0.663941
21
0.20268
0
LINE
8
BLACK
6
CONTINUOUS
10
0.663941
20
0.20268
11
0.665441
21
0.20193
0
LINE
8
BLACK
6
CONTINUOUS
10
0.665441
20
0.20193
11
0.665568
21
0.201783
0
LINE
8
BLACK
6
CONTINUOUS
10
0.665568
20
0.201783
11
0.665748
21
0.201709
0
LINE
8
BLACK
6
CONTINUOUS
10
0.665748
20
0.201709
11
0.667248
21
0.200209
0
LINE
8
BLACK
6
CONTINUOUS
10
0.667248
20
0.200209
11
0.667353
21
0.199955
0
LINE
8
BLACK
6
CONTINUOUS
10
0.667353
20
0.199955
11
0.667533
21
0.199747
0
LINE
8
BLACK
6
CONTINUOUS
10
0.667533
20
0.199747
11
0.668283
21
0.197498
0
LINE
8
BLACK
6
CONTINUOUS
10
0.668283
20
0.197498
11
0.668269
21
0.197304
0
LINE
8
BLACK
6
CONTINUOUS
10
0.668269
20
0.197304
11
0.668344
21
0.197124
0
LINE
8
BLACK
6
CONTINUOUS
10
0.668344
20
0.197124
11
0.668344
21
0.195624
0
LINE
8
BLACK
6
CONTINUOUS
10
0.668344
20
0.195624
11
0.668269
21
0.195445
0
LINE
8
BLACK
6
CONTINUOUS
10
0.668269
20
0.195445
11
0.668283
21
0.195251
0
LINE
8
BLACK
6
CONTINUOUS
10
0.668283
20
0.195251
11
0.667533
21
0.193001
0
LINE
8
BLACK
6
CONTINUOUS
10
0.667533
20
0.193001
11
0.667353
21
0.192793
0
LINE
8
BLACK
6
CONTINUOUS
10
0.667353
20
0.192793
11
0.667248
21
0.192539
0
LINE
8
BLACK
6
CONTINUOUS
10
0.667248
20
0.192539
11
0.666498
21
0.19179
0
LINE
8
BLACK
6
CONTINUOUS
10
0.666498
20
0.19179
11
0.665663
21
0.191444
0
LINE
8
BLACK
6
CONTINUOUS
10
0.665663
20
0.191444
11
0.664828
21
0.19179
0
LINE
8
BLACK
6
CONTINUOUS
10
0.664828
20
0.19179
11
0.664482
21
0.192625
0
LINE
8
BLACK
6
CONTINUOUS
10
0.664482
20
0.192625
11
0.664828
21
0.19346
0
LINE
8
BLACK
6
CONTINUOUS
10
0.664828
20
0.19346
11
0.66538
21
0.194013
0
LINE
8
BLACK
6
CONTINUOUS
10
0.66538
20
0.194013
11
0.665981
21
0.195816
0
LINE
8
BLACK
6
CONTINUOUS
10
0.665981
20
0.195816
11
0.665981
21
0.196932
0
LINE
8
BLACK
6
CONTINUOUS
10
0.665981
20
0.196932
11
0.66538
21
0.198736
0
LINE
8
BLACK
6
CONTINUOUS
10
0.66538
20
0.198736
11
0.664213
21
0.199903
0
LINE
8
BLACK
6
CONTINUOUS
10
0.664213
20
0.199903
11
0.663001
21
0.200509
0
LINE
8
BLACK
6
CONTINUOUS
10
0.663001
20
0.200509
11
0.660268
21
0.201192
0
LINE
8
BLACK
6
CONTINUOUS
10
0.660268
20
0.201192
11
0.658309
21
0.201192
0
LINE
8
BLACK
6
CONTINUOUS
10
0.658309
20
0.201192
11
0.655576
21
0.200509
0
LINE
8
BLACK
6
CONTINUOUS
10
0.655576
20
0.200509
11
0.654364
21
0.199903
0
LINE
8
BLACK
6
CONTINUOUS
10
0.654364
20
0.199903
11
0.653197
21
0.198736
0
LINE
8
BLACK
6
CONTINUOUS
10
0.653197
20
0.198736
11
0.652596
21
0.196933
0
LINE
8
BLACK
6
CONTINUOUS
10
0.652596
20
0.196933
11
0.652596
21
0.195816
0
LINE
8
BLACK
6
CONTINUOUS
10
0.652596
20
0.195816
11
0.653197
21
0.194013
0
LINE
8
BLACK
6
CONTINUOUS
10
0.653197
20
0.194013
11
0.653749
21
0.19346
0
LINE
8
BLACK
6
CONTINUOUS
10
0.653749
20
0.19346
11
0.654095
21
0.192625
0
LINE
8
BLACK
6
CONTINUOUS
10
0.654095
20
0.192625
11
0.653749
21
0.191789
0
LINE
8
BLACK
6
CONTINUOUS
10
0.653749
20
0.191789
11
0.652914
21
0.191444
0
LINE
8
BLACK
6
CONTINUOUS
10
0.652914
20
0.191444
11
0.652079
21
0.19179
0
LINE
8
BLACK
6
CONTINUOUS
10
0.652079
20
0.19179
11
0.651329
21
0.192539
0
LINE
8
BLACK
6
CONTINUOUS
10
0.651329
20
0.192539
11
0.651224
21
0.192794
0
LINE
8
BLACK
6
CONTINUOUS
10
0.651224
20
0.192794
11
0.651044
21
0.193001
0
LINE
8
BLACK
6
CONTINUOUS
10
0.651044
20
0.193001
11
0.650294
21
0.195251
0
LINE
8
BLACK
6
CONTINUOUS
10
0.650294
20
0.195251
11
0.650308
21
0.195445
0
LINE
8
BLACK
6
CONTINUOUS
10
0.650308
20
0.195445
11
0.650233
21
0.195624
0
LINE
8
BLACK
6
CONTINUOUS
10
0.650233
20
0.195624
11
0.650233
21
0.197124
0
LINE
8
BLACK
6
CONTINUOUS
10
0.650233
20
0.197124
11
0.650308
21
0.197304
0
LINE
8
BLACK
6
CONTINUOUS
10
0.650308
20
0.197304
11
0.650294
21
0.197498
0
LINE
8
BLACK
6
CONTINUOUS
10
0.650294
20
0.197498
11
0.651044
21
0.199747
0
LINE
8
BLACK
6
CONTINUOUS
10
0.651044
20
0.199747
11
0.651224
21
0.199955
0
LINE
8
BLACK
6
CONTINUOUS
10
0.651224
20
0.199955
11
0.651329
21
0.200209
0
LINE
8
BLACK
6
CONTINUOUS
10
0.651329
20
0.200209
11
0.652829
21
0.201709
0
LINE
8
BLACK
6
CONTINUOUS
10
0.652829
20
0.201709
11
0.653009
21
0.201783
0
LINE
8
BLACK
6
CONTINUOUS
10
0.653009
20
0.201783
11
0.653136
21
0.20193
0
LINE
8
BLACK
6
CONTINUOUS
10
0.653136
20
0.20193
11
0.654636
21
0.20268
0
LINE
8
BLACK
6
CONTINUOUS
10
0.654636
20
0.20268
11
0.65477
21
0.202689
0
LINE
8
BLACK
6
CONTINUOUS
10
0.65477
20
0.202689
11
0.654878
21
0.202769
0
LINE
8
BLACK
6
CONTINUOUS
10
0.654878
20
0.202769
11
0.657877
21
0.203519
0
LINE
8
BLACK
6
CONTINUOUS
10
0.657877
20
0.203519
11
0.658025
21
0.203497
0
LINE
8
BLACK
6
CONTINUOUS
10
0.658025
20
0.203497
11
0.658164
21
0.203555
0
LINE
8
BLACK
6
CONTINUOUS
10
0.658164
20
0.203555
11
0.660413
21
0.203555
0
LINE
8
BLACK
6
CONTINUOUS
10
0.660413
20
0.203555
11
0.660552
21
0.203497
0
LINE
8
BLACK
6
CONTINUOUS
10
0.675748
20
0.223465
11
0.67714
21
0.222888
0
LINE
8
BLACK
6
CONTINUOUS
10
0.67714
20
0.222888
11
0.677717
21
0.221496
0
LINE
8
BLACK
6
CONTINUOUS
10
0.677717
20
0.221496
11
0.677717
21
0.161474
0
LINE
8
BLACK
6
CONTINUOUS
10
0.677717
20
0.161474
11
0.678066
21
0.16189
0
LINE
8
BLACK
6
CONTINUOUS
10
0.678066
20
0.16189
11
0.678449
21
0.162554
0
LINE
8
BLACK
6
CONTINUOUS
10
0.678449
20
0.162554
11
0.6787
21
0.162646
0
LINE
8
BLACK
6
CONTINUOUS
10
0.6787
20
0.162646
11
0.678871
21
0.16285
0
LINE
8
BLACK
6
CONTINUOUS
10
0.678871
20
0.16285
11
0.679626
21
0.162983
0
LINE
8
BLACK
6
CONTINUOUS
10
0.679626
20
0.162983
11
0.680347
21
0.163245
0
LINE
8
BLACK
6
CONTINUOUS
10
0.680347
20
0.163245
11
0.719717
21
0.163245
0
LINE
8
BLACK
6
CONTINUOUS
10
0.719717
20
0.163245
11
0.720727
21
0.163067
0
LINE
8
BLACK
6
CONTINUOUS
10
0.720727
20
0.163067
11
0.722274
21
0.161769
0
LINE
8
BLACK
6
CONTINUOUS
10
0.722274
20
0.161769
11
0.722625
21
0.15978
0
LINE
8
BLACK
6
CONTINUOUS
10
0.722625
20
0.15978
11
0.721615
21
0.158031
0
LINE
8
BLACK
6
CONTINUOUS
10
0.721615
20
0.158031
11
0.719717
21
0.15734
0
LINE
8
BLACK
6
CONTINUOUS
10
0.719717
20
0.15734
11
0.703922
21
0.15734
0
LINE
8
BLACK
6
CONTINUOUS
10
0.703922
20
0.15734
11
0.703922
21
0.152456
0
LINE
8
BLACK
6
CONTINUOUS
10
0.703922
20
0.152456
11
0.721411
21
0.140214
0
LINE
8
BLACK
6
CONTINUOUS
10
0.721411
20
0.140214
11
0.722136
21
0.139489
0
LINE
8
BLACK
6
CONTINUOUS
10
0.722136
20
0.139489
11
0.722659
21
0.137538
0
LINE
8
BLACK
6
CONTINUOUS
10
0.722659
20
0.137538
11
0.721806
21
0.135708
0
LINE
8
BLACK
6
CONTINUOUS
10
0.721806
20
0.135708
11
0.719975
21
0.134854
0
LINE
8
BLACK
6
CONTINUOUS
10
0.719975
20
0.134854
11
0.718024
21
0.135376
0
LINE
8
BLACK
6
CONTINUOUS
10
0.718024
20
0.135376
11
0.703915
21
0.145253
0
LINE
8
BLACK
6
CONTINUOUS
10
0.703915
20
0.145253
11
0.703744
21
0.144284
0
LINE
8
BLACK
6
CONTINUOUS
10
0.703744
20
0.144284
11
0.703631
21
0.144149
0
LINE
8
BLACK
6
CONTINUOUS
10
0.703631
20
0.144149
11
0.703611
21
0.143974
0
LINE
8
BLACK
6
CONTINUOUS
10
0.703611
20
0.143974
11
0.701736
21
0.140224
0
LINE
8
BLACK
6
CONTINUOUS
10
0.701736
20
0.140224
11
0.70121
21
0.139515
0
LINE
8
BLACK
6
CONTINUOUS
10
0.70121
20
0.139515
11
0.701183
21
0.139457
0
LINE
8
BLACK
6
CONTINUOUS
10
0.701183
20
0.139457
11
0.699308
21
0.137582
0
LINE
8
BLACK
6
CONTINUOUS
10
0.699308
20
0.137582
11
0.698585
21
0.137076
0
LINE
8
BLACK
6
CONTINUOUS
10
0.698585
20
0.137076
11
0.698541
21
0.137029
0
LINE
8
BLACK
6
CONTINUOUS
10
0.698541
20
0.137029
11
0.694791
21
0.135154
0
LINE
8
BLACK
6
CONTINUOUS
10
0.694791
20
0.135154
11
0.693808
21
0.134862
0
LINE
8
BLACK
6
CONTINUOUS
10
0.693808
20
0.134862
11
0.693636
21
0.134903
0
LINE
8
BLACK
6
CONTINUOUS
10
0.693636
20
0.134903
11
0.693471
21
0.134843
0
LINE
8
BLACK
6
CONTINUOUS
10
0.693471
20
0.134843
11
0.687846
21
0.134843
0
LINE
8
BLACK
6
CONTINUOUS
10
0.687846
20
0.134843
11
0.686836
21
0.135021
0
LINE
8
BLACK
6
CONTINUOUS
10
0.686836
20
0.135021
11
0.686701
21
0.135134
0
LINE
8
BLACK
6
CONTINUOUS
10
0.686701
20
0.135134
11
0.686526
21
0.135154
0
LINE
8
BLACK
6
CONTINUOUS
10
0.686526
20
0.135154
11
0.682776
21
0.137029
0
LINE
8
BLACK
6
CONTINUOUS
10
0.682776
20
0.137029
11
0.682067
21
0.137555
0
LINE
8
BLACK
6
CONTINUOUS
10
0.682067
20
0.137555
11
0.682009
21
0.137582
0
LINE
8
BLACK
6
CONTINUOUS
10
0.682009
20
0.137582
11
0.680134
21
0.139457
0
LINE
8
BLACK
6
CONTINUOUS
10
0.680134
20
0.139457
11
0.679628
21
0.14018
0
LINE
8
BLACK
6
CONTINUOUS
10
0.679628
20
0.14018
11
0.679581
21
0.140224
0
LINE
8
BLACK
6
CONTINUOUS
10
0.679581
20
0.140224
11
0.677706
21
0.143974
0
LINE
8
BLACK
6
CONTINUOUS
10
0.677706
20
0.143974
11
0.677414
21
0.144957
0
LINE
8
BLACK
6
CONTINUOUS
10
0.677414
20
0.144957
11
0.677455
21
0.145129
0
LINE
8
BLACK
6
CONTINUOUS
10
0.677455
20
0.145129
11
0.677394
21
0.145294
0
LINE
8
BLACK
6
CONTINUOUS
10
0.677394
20
0.145294
11
0.677394
21
0.157726
0
LINE
8
BLACK
6
CONTINUOUS
10
0.677394
20
0.157726
11
0.67714
21
0.157112
0
LINE
8
BLACK
6
CONTINUOUS
10
0.67714
20
0.157112
11
0.675748
21
0.156535
0
LINE
8
BLACK
6
CONTINUOUS
10
0.675748
20
0.156535
11
0.644252
21
0.156535
0
LINE
8
BLACK
6
CONTINUOUS
10
0.644252
20
0.156535
11
0.64286
21
0.157112
0
LINE
8
BLACK
6
CONTINUOUS
10
0.64286
20
0.157112
11
0.642283
21
0.158504
0
LINE
8
BLACK
6
CONTINUOUS
10
0.642283
20
0.158504
11
0.642283
21
0.221496
0
LINE
8
BLACK
6
CONTINUOUS
10
0.642283
20
0.221496
11
0.64286
21
0.222888
0
LINE
8
BLACK
6
CONTINUOUS
10
0.64286
20
0.222888
11
0.644252
21
0.223465
0
LINE
8
BLACK
6
CONTINUOUS
10
0.644252
20
0.223465
11
0.675748
21
0.223465
0
LINE
8
BLACK
6
CONTINUOUS
10
0.6833
20
0.145991
11
0.684649
21
0.143294
0
LINE
8
BLACK
6
CONTINUOUS
10
0.684649
20
0.143294
11
0.685846
21
0.142097
0
LINE
8
BLACK
6
CONTINUOUS
10
0.685846
20
0.142097
11
0.688543
21
0.140748
0
LINE
8
BLACK
6
CONTINUOUS
10
0.688543
20
0.140748
11
0.692774
21
0.140748
0
LINE
8
BLACK
6
CONTINUOUS
10
0.692774
20
0.140748
11
0.695471
21
0.142097
0
LINE
8
BLACK
6
CONTINUOUS
10
0.695471
20
0.142097
11
0.696668
21
0.143294
0
LINE
8
BLACK
6
CONTINUOUS
10
0.696668
20
0.143294
11
0.698017
21
0.145991
0
LINE
8
BLACK
6
CONTINUOUS
10
0.698017
20
0.145991
11
0.698017
21
0.15734
0
LINE
8
BLACK
6
CONTINUOUS
10
0.698017
20
0.15734
11
0.6833
21
0.15734
0
LINE
8
BLACK
6
CONTINUOUS
10
0.6833
20
0.15734
11
0.6833
21
0.145991
0
LINE
8
BLACK
6
CONTINUOUS
10
0.64622
20
0.219528
11
0.64622
21
0.160472
0
LINE
8
BLACK
6
CONTINUOUS
10
0.64622
20
0.160472
11
0.67378
21
0.160472
0
LINE
8
BLACK
6
CONTINUOUS
10
0.67378
20
0.160472
11
0.67378
21
0.219528
0
LINE
8
BLACK
6
CONTINUOUS
10
0.67378
20
0.219528
11
0.64622
21
0.219528
0
LINE
8
BLACK
6
CONTINUOUS
10
0.706981
20
0.210934
11
0.707672
21
0.209036
0
LINE
8
BLACK
6
CONTINUOUS
10
0.707672
20
0.209036
11
0.707672
21
0.17904
0
LINE
8
BLACK
6
CONTINUOUS
10
0.707672
20
0.17904
11
0.707494
21
0.17803
0
LINE
8
BLACK
6
CONTINUOUS
10
0.707494
20
0.17803
11
0.706196
21
0.176483
0
LINE
8
BLACK
6
CONTINUOUS
10
0.706196
20
0.176483
11
0.704206
21
0.176132
0
LINE
8
BLACK
6
CONTINUOUS
10
0.704206
20
0.176132
11
0.702457
21
0.177142
0
LINE
8
BLACK
6
CONTINUOUS
10
0.702457
20
0.177142
11
0.701766
21
0.17904
0
LINE
8
BLACK
6
CONTINUOUS
10
0.701766
20
0.17904
11
0.701766
21
0.209036
0
LINE
8
BLACK
6
CONTINUOUS
10
0.701766
20
0.209036
11
0.701944
21
0.210046
0
LINE
8
BLACK
6
CONTINUOUS
10
0.701944
20
0.210046
11
0.703243
21
0.211594
0
LINE
8
BLACK
6
CONTINUOUS
10
0.703243
20
0.211594
11
0.705232
21
0.211944
0
LINE
8
BLACK
6
CONTINUOUS
10
0.705232
20
0.211944
11
0.706981
21
0.210934
0
LINE
8
BLACK
6
CONTINUOUS
10
0.467167
20
0.208705
11
0.467441
21
0.208686
0
LINE
8
BLACK
6
CONTINUOUS
10
0.467441
20
0.208686
11
0.467569
21
0.208539
0
LINE
8
BLACK
6
CONTINUOUS
10
0.467569
20
0.208539
11
0.467748
21
0.208465
0
LINE
8
BLACK
6
CONTINUOUS
10
0.467748
20
0.208465
11
0.467854
21
0.208211
0
LINE
8
BLACK
6
CONTINUOUS
10
0.467854
20
0.208211
11
0.468034
21
0.208003
0
LINE
8
BLACK
6
CONTINUOUS
10
0.468034
20
0.208003
11
0.46802
21
0.207809
0
LINE
8
BLACK
6
CONTINUOUS
10
0.46802
20
0.207809
11
0.468094
21
0.207629
0
LINE
8
BLACK
6
CONTINUOUS
10
0.468094
20
0.207629
11
0.468094
21
0.201311
0
LINE
8
BLACK
6
CONTINUOUS
10
0.468094
20
0.201311
11
0.472162
21
0.201311
0
LINE
8
BLACK
6
CONTINUOUS
10
0.472162
20
0.201311
11
0.472998
21
0.200965
0
LINE
8
BLACK
6
CONTINUOUS
10
0.472998
20
0.200965
11
0.473344
21
0.20013
0
LINE
8
BLACK
6
CONTINUOUS
10
0.473344
20
0.20013
11
0.472998
21
0.199295
0
LINE
8
BLACK
6
CONTINUOUS
10
0.472998
20
0.199295
11
0.472162
21
0.198949
0
LINE
8
BLACK
6
CONTINUOUS
10
0.472162
20
0.198949
11
0.468094
21
0.198949
0
LINE
8
BLACK
6
CONTINUOUS
10
0.468094
20
0.198949
11
0.468094
21
0.197881
0
LINE
8
BLACK
6
CONTINUOUS
10
0.468094
20
0.197881
11
0.467748
21
0.197045
0
LINE
8
BLACK
6
CONTINUOUS
10
0.467748
20
0.197045
11
0.466913
21
0.196699
0
LINE
8
BLACK
6
CONTINUOUS
10
0.466913
20
0.196699
11
0.466078
21
0.197045
0
LINE
8
BLACK
6
CONTINUOUS
10
0.466078
20
0.197045
11
0.465732
21
0.197881
0
LINE
8
BLACK
6
CONTINUOUS
10
0.465732
20
0.197881
11
0.465732
21
0.198949
0
LINE
8
BLACK
6
CONTINUOUS
10
0.465732
20
0.198949
11
0.461664
21
0.198949
0
LINE
8
BLACK
6
CONTINUOUS
10
0.461664
20
0.198949
11
0.460829
21
0.199295
0
LINE
8
BLACK
6
CONTINUOUS
10
0.460829
20
0.199295
11
0.460483
21
0.20013
0
LINE
8
BLACK
6
CONTINUOUS
10
0.460483
20
0.20013
11
0.460829
21
0.200965
0
LINE
8
BLACK
6
CONTINUOUS
10
0.460829
20
0.200965
11
0.461664
21
0.201311
0
LINE
8
BLACK
6
CONTINUOUS
10
0.461664
20
0.201311
11
0.465732
21
0.201311
0
LINE
8
BLACK
6
CONTINUOUS
10
0.465732
20
0.201311
11
0.465732
21
0.205991
0
LINE
8
BLACK
6
CONTINUOUS
10
0.465732
20
0.205991
11
0.456038
21
0.202759
0
LINE
8
BLACK
6
CONTINUOUS
10
0.456038
20
0.202759
11
0.455136
21
0.202823
0
LINE
8
BLACK
6
CONTINUOUS
10
0.455136
20
0.202823
11
0.454544
21
0.203506
0
LINE
8
BLACK
6
CONTINUOUS
10
0.454544
20
0.203506
11
0.454608
21
0.204408
0
LINE
8
BLACK
6
CONTINUOUS
10
0.454608
20
0.204408
11
0.455291
21
0.205
0
LINE
8
BLACK
6
CONTINUOUS
10
0.455291
20
0.205
11
0.46654
21
0.20875
0
LINE
8
BLACK
6
CONTINUOUS
10
0.46654
20
0.20875
11
0.466734
21
0.208736
0
LINE
8
BLACK
6
CONTINUOUS
10
0.466734
20
0.208736
11
0.466913
21
0.20881
0
LINE
8
BLACK
6
CONTINUOUS
10
0.466913
20
0.20881
11
0.467167
21
0.208705
0
LINE
8
BLACK
6
CONTINUOUS
10
0.465552
20
0.224501
11
0.4657
21
0.224523
0
LINE
8
BLACK
6
CONTINUOUS
10
0.4657
20
0.224523
11
0.468699
21
0.223773
0
LINE
8
BLACK
6
CONTINUOUS
10
0.468699
20
0.223773
11
0.468807
21
0.223693
0
LINE
8
BLACK
6
CONTINUOUS
10
0.468807
20
0.223693
11
0.468941
21
0.223684
0
LINE
8
BLACK
6
CONTINUOUS
10
0.468941
20
0.223684
11
0.470441
21
0.222934
0
LINE
8
BLACK
6
CONTINUOUS
10
0.470441
20
0.222934
11
0.470568
21
0.222787
0
LINE
8
BLACK
6
CONTINUOUS
10
0.470568
20
0.222787
11
0.470748
21
0.222713
0
LINE
8
BLACK
6
CONTINUOUS
10
0.470748
20
0.222713
11
0.472248
21
0.221213
0
LINE
8
BLACK
6
CONTINUOUS
10
0.472248
20
0.221213
11
0.472353
21
0.220959
0
LINE
8
BLACK
6
CONTINUOUS
10
0.472353
20
0.220959
11
0.472533
21
0.220751
0
LINE
8
BLACK
6
CONTINUOUS
10
0.472533
20
0.220751
11
0.473283
21
0.218502
0
LINE
8
BLACK
6
CONTINUOUS
10
0.473283
20
0.218502
11
0.473269
21
0.218308
0
LINE
8
BLACK
6
CONTINUOUS
10
0.473269
20
0.218308
11
0.473344
21
0.218128
0
LINE
8
BLACK
6
CONTINUOUS
10
0.473344
20
0.218128
11
0.473344
21
0.216628
0
LINE
8
BLACK
6
CONTINUOUS
10
0.473344
20
0.216628
11
0.473269
21
0.216449
0
LINE
8
BLACK
6
CONTINUOUS
10
0.473269
20
0.216449
11
0.473283
21
0.216255
0
LINE
8
BLACK
6
CONTINUOUS
10
0.473283
20
0.216255
11
0.472533
21
0.214005
0
LINE
8
BLACK
6
CONTINUOUS
10
0.472533
20
0.214005
11
0.472353
21
0.213797
0
LINE
8
BLACK
6
CONTINUOUS
10
0.472353
20
0.213797
11
0.472248
21
0.213543
0
LINE
8
BLACK
6
CONTINUOUS
10
0.472248
20
0.213543
11
0.471498
21
0.212793
0
LINE
8
BLACK
6
CONTINUOUS
10
0.471498
20
0.212793
11
0.470663
21
0.212448
0
LINE
8
BLACK
6
CONTINUOUS
10
0.470663
20
0.212448
11
0.469828
21
0.212793
0
LINE
8
BLACK
6
CONTINUOUS
10
0.469828
20
0.212793
11
0.469482
21
0.213629
0
LINE
8
BLACK
6
CONTINUOUS
10
0.469482
20
0.213629
11
0.469828
21
0.214464
0
LINE
8
BLACK
6
CONTINUOUS
10
0.469828
20
0.214464
11
0.47038
21
0.215016
0
LINE
8
BLACK
6
CONTINUOUS
10
0.47038
20
0.215016
11
0.470981
21
0.21682
0
LINE
8
BLACK
6
CONTINUOUS
10
0.470981
20
0.21682
11
0.470981
21
0.217936
0
LINE
8
BLACK
6
CONTINUOUS
10
0.470981
20
0.217936
11
0.47038
21
0.21974
0
LINE
8
BLACK
6
CONTINUOUS
10
0.47038
20
0.21974
11
0.469213
21
0.220907
0
LINE
8
BLACK
6
CONTINUOUS
10
0.469213
20
0.220907
11
0.468001
21
0.221513
0
LINE
8
BLACK
6
CONTINUOUS
10
0.468001
20
0.221513
11
0.465268
21
0.222196
0
LINE
8
BLACK
6
CONTINUOUS
10
0.465268
20
0.222196
11
0.463309
21
0.222196
0
LINE
8
BLACK
6
CONTINUOUS
10
0.463309
20
0.222196
11
0.460576
21
0.221513
0
LINE
8
BLACK
6
CONTINUOUS
10
0.460576
20
0.221513
11
0.459364
21
0.220907
0
LINE
8
BLACK
6
CONTINUOUS
10
0.459364
20
0.220907
11
0.458197
21
0.21974
0
LINE
8
BLACK
6
CONTINUOUS
10
0.458197
20
0.21974
11
0.457596
21
0.217936
0
LINE
8
BLACK
6
CONTINUOUS
10
0.457596
20
0.217936
11
0.457596
21
0.21682
0
LINE
8
BLACK
6
CONTINUOUS
10
0.457596
20
0.21682
11
0.458197
21
0.215017
0
LINE
8
BLACK
6
CONTINUOUS
10
0.458197
20
0.215017
11
0.458749
21
0.214464
0
LINE
8
BLACK
6
CONTINUOUS
10
0.458749
20
0.214464
11
0.459095
21
0.213629
0
LINE
8
BLACK
6
CONTINUOUS
10
0.459095
20
0.213629
11
0.458749
21
0.212793
0
LINE
8
BLACK
6
CONTINUOUS
10
0.458749
20
0.212793
11
0.457914
21
0.212448
0
LINE
8
BLACK
6
CONTINUOUS
10
0.457914
20
0.212448
11
0.457079
21
0.212794
0
LINE
8
BLACK
6
CONTINUOUS
10
0.457079
20
0.212794
11
0.456329
21
0.213543
0
LINE
8
BLACK
6
CONTINUOUS
10
0.456329
20
0.213543
11
0.456224
21
0.213797
0
LINE
8
BLACK
6
CONTINUOUS
10
0.456224
20
0.213797
11
0.456044
21
0.214005
0
LINE
8
BLACK
6
CONTINUOUS
10
0.456044
20
0.214005
11
0.455294
21
0.216255
0
LINE
8
BLACK
6
CONTINUOUS
10
0.455294
20
0.216255
11
0.455308
21
0.216449
0
LINE
8
BLACK
6
CONTINUOUS
10
0.455308
20
0.216449
11
0.455233
21
0.216628
0
LINE
8
BLACK
6
CONTINUOUS
10
0.455233
20
0.216628
11
0.455233
21
0.218128
0
LINE
8
BLACK
6
CONTINUOUS
10
0.455233
20
0.218128
11
0.455308
21
0.218308
0
LINE
8
BLACK
6
CONTINUOUS
10
0.455308
20
0.218308
11
0.455294
21
0.218502
0
LINE
8
BLACK
6
CONTINUOUS
10
0.455294
20
0.218502
11
0.456044
21
0.220751
0
LINE
8
BLACK
6
CONTINUOUS
10
0.456044
20
0.220751
11
0.456224
21
0.220959
0
LINE
8
BLACK
6
CONTINUOUS
10
0.456224
20
0.220959
11
0.456329
21
0.221213
0
LINE
8
BLACK
6
CONTINUOUS
10
0.456329
20
0.221213
11
0.457829
21
0.222713
0
LINE
8
BLACK
6
CONTINUOUS
10
0.457829
20
0.222713
11
0.458009
21
0.222787
0
LINE
8
BLACK
6
CONTINUOUS
10
0.458009
20
0.222787
11
0.458136
21
0.222934
0
LINE
8
BLACK
6
CONTINUOUS
10
0.458136
20
0.222934
11
0.459636
21
0.223684
0
LINE
8
BLACK
6
CONTINUOUS
10
0.459636
20
0.223684
11
0.45977
21
0.223693
0
LINE
8
BLACK
6
CONTINUOUS
10
0.45977
20
0.223693
11
0.459878
21
0.223773
0
LINE
8
BLACK
6
CONTINUOUS
10
0.459878
20
0.223773
11
0.462877
21
0.224523
0
LINE
8
BLACK
6
CONTINUOUS
10
0.462877
20
0.224523
11
0.463025
21
0.224501
0
LINE
8
BLACK
6
CONTINUOUS
10
0.463025
20
0.224501
11
0.463164
21
0.224559
0
LINE
8
BLACK
6
CONTINUOUS
10
0.463164
20
0.224559
11
0.465413
21
0.224559
0
LINE
8
BLACK
6
CONTINUOUS
10
0.465413
20
0.224559
11
0.465552
21
0.224501
0
LINE
8
BLACK
6
CONTINUOUS
10
0.480748
20
0.244469
11
0.48214
21
0.243892
0
LINE
8
BLACK
6
CONTINUOUS
10
0.48214
20
0.243892
11
0.482717
21
0.2425
0
LINE
8
BLACK
6
CONTINUOUS
10
0.482717
20
0.2425
11
0.482717
21
0.179508
0
LINE
8
BLACK
6
CONTINUOUS
10
0.482717
20
0.179508
11
0.48214
21
0.178116
0
LINE
8
BLACK
6
CONTINUOUS
10
0.48214
20
0.178116
11
0.480748
21
0.177539
0
LINE
8
BLACK
6
CONTINUOUS
10
0.480748
20
0.177539
11
0.449252
21
0.177539
0
LINE
8
BLACK
6
CONTINUOUS
10
0.449252
20
0.177539
11
0.44786
21
0.178116
0
LINE
8
BLACK
6
CONTINUOUS
10
0.44786
20
0.178116
11
0.447283
21
0.179508
0
LINE
8
BLACK
6
CONTINUOUS
10
0.447283
20
0.179508
11
0.447283
21
0.2425
0
LINE
8
BLACK
6
CONTINUOUS
10
0.447283
20
0.2425
11
0.44786
21
0.243892
0
LINE
8
BLACK
6
CONTINUOUS
10
0.44786
20
0.243892
11
0.449252
21
0.244469
0
LINE
8
BLACK
6
CONTINUOUS
10
0.449252
20
0.244469
11
0.480748
21
0.244469
0
LINE
8
BLACK
6
CONTINUOUS
10
0.45122
20
0.240531
11
0.45122
21
0.181476
0
LINE
8
BLACK
6
CONTINUOUS
10
0.45122
20
0.181476
11
0.47878
21
0.181476
0
LINE
8
BLACK
6
CONTINUOUS
10
0.47878
20
0.181476
11
0.47878
21
0.240531
0
LINE
8
BLACK
6
CONTINUOUS
10
0.47878
20
0.240531
11
0.45122
21
0.240531
0
LINE
8
BLACK
6
CONTINUOUS
10
0.352294
20
0.251776
11
0.352727
21
0.250732
0
LINE
8
BLACK
6
CONTINUOUS
10
0.352727
20
0.250732
11
0.352294
21
0.249688
0
LINE
8
BLACK
6
CONTINUOUS
10
0.352294
20
0.249688
11
0.35125
21
0.249256
0
LINE
8
BLACK
6
CONTINUOUS
10
0.35125
20
0.249256
11
0.342318
21
0.249256
0
LINE
8
BLACK
6
CONTINUOUS
10
0.342318
20
0.249256
11
0.346737
21
0.244205
0
LINE
8
BLACK
6
CONTINUOUS
10
0.346737
20
0.244205
11
0.346904
21
0.243713
0
LINE
8
BLACK
6
CONTINUOUS
10
0.346904
20
0.243713
11
0.347103
21
0.243233
0
LINE
8
BLACK
6
CONTINUOUS
10
0.347103
20
0.243233
11
0.347082
21
0.243184
0
LINE
8
BLACK
6
CONTINUOUS
10
0.347082
20
0.243184
11
0.347099
21
0.243135
0
LINE
8
BLACK
6
CONTINUOUS
10
0.347099
20
0.243135
11
0.346869
21
0.242669
0
LINE
8
BLACK
6
CONTINUOUS
10
0.346869
20
0.242669
11
0.34667
21
0.242189
0
LINE
8
BLACK
6
CONTINUOUS
10
0.34667
20
0.242189
11
0.346622
21
0.242169
0
LINE
8
BLACK
6
CONTINUOUS
10
0.346622
20
0.242169
11
0.346598
21
0.242122
0
LINE
8
BLACK
6
CONTINUOUS
10
0.346598
20
0.242122
11
0.346106
21
0.241955
0
LINE
8
BLACK
6
CONTINUOUS
10
0.346106
20
0.241955
11
0.345626
21
0.241756
0
LINE
8
BLACK
6
CONTINUOUS
10
0.345626
20
0.241756
11
0.343163
21
0.241756
0
LINE
8
BLACK
6
CONTINUOUS
10
0.343163
20
0.241756
11
0.341814
21
0.241082
0
LINE
8
BLACK
6
CONTINUOUS
10
0.341814
20
0.241082
11
0.341215
21
0.240484
0
LINE
8
BLACK
6
CONTINUOUS
10
0.341215
20
0.240484
11
0.340541
21
0.239135
0
LINE
8
BLACK
6
CONTINUOUS
10
0.340541
20
0.239135
11
0.340541
21
0.235145
0
LINE
8
BLACK
6
CONTINUOUS
10
0.340541
20
0.235145
11
0.341215
21
0.233796
0
LINE
8
BLACK
6
CONTINUOUS
10
0.341215
20
0.233796
11
0.341814
21
0.233198
0
LINE
8
BLACK
6
CONTINUOUS
10
0.341814
20
0.233198
11
0.343162
21
0.232523
0
LINE
8
BLACK
6
CONTINUOUS
10
0.343162
20
0.232523
11
0.34809
21
0.232523
0
LINE
8
BLACK
6
CONTINUOUS
10
0.34809
20
0.232523
11
0.349438
21
0.233198
0
LINE
8
BLACK
6
CONTINUOUS
10
0.349438
20
0.233198
11
0.350206
21
0.233966
0
LINE
8
BLACK
6
CONTINUOUS
10
0.350206
20
0.233966
11
0.35125
21
0.234398
0
LINE
8
BLACK
6
CONTINUOUS
10
0.35125
20
0.234398
11
0.352294
21
0.233966
0
LINE
8
BLACK
6
CONTINUOUS
10
0.352294
20
0.233966
11
0.352727
21
0.232922
0
LINE
8
BLACK
6
CONTINUOUS
10
0.352727
20
0.232922
11
0.352294
21
0.231878
0
LINE
8
BLACK
6
CONTINUOUS
10
0.352294
20
0.231878
11
0.351357
21
0.23094
0
LINE
8
BLACK
6
CONTINUOUS
10
0.351357
20
0.23094
11
0.351132
21
0.230847
0
LINE
8
BLACK
6
CONTINUOUS
10
0.351132
20
0.230847
11
0.350973
21
0.230664
0
LINE
8
BLACK
6
CONTINUOUS
10
0.350973
20
0.230664
11
0.349099
21
0.229726
0
LINE
8
BLACK
6
CONTINUOUS
10
0.349099
20
0.229726
11
0.348756
21
0.229702
0
LINE
8
BLACK
6
CONTINUOUS
10
0.348756
20
0.229702
11
0.348438
21
0.229571
0
LINE
8
BLACK
6
CONTINUOUS
10
0.348438
20
0.229571
11
0.342814
21
0.229571
0
LINE
8
BLACK
6
CONTINUOUS
10
0.342814
20
0.229571
11
0.342496
21
0.229702
0
LINE
8
BLACK
6
CONTINUOUS
10
0.342496
20
0.229702
11
0.342154
21
0.229726
0
LINE
8
BLACK
6
CONTINUOUS
10
0.342154
20
0.229726
11
0.340279
21
0.230664
0
LINE
8
BLACK
6
CONTINUOUS
10
0.340279
20
0.230664
11
0.34012
21
0.230847
0
LINE
8
BLACK
6
CONTINUOUS
10
0.34012
20
0.230847
11
0.339895
21
0.23094
0
LINE
8
BLACK
6
CONTINUOUS
10
0.339895
20
0.23094
11
0.338958
21
0.231878
0
LINE
8
BLACK
6
CONTINUOUS
10
0.338958
20
0.231878
11
0.338865
21
0.232102
0
LINE
8
BLACK
6
CONTINUOUS
10
0.338865
20
0.232102
11
0.338681
21
0.232261
0
LINE
8
BLACK
6
CONTINUOUS
10
0.338681
20
0.232261
11
0.337744
21
0.234136
0
LINE
8
BLACK
6
CONTINUOUS
10
0.337744
20
0.234136
11
0.33772
21
0.234479
0
LINE
8
BLACK
6
CONTINUOUS
10
0.33772
20
0.234479
11
0.337588
21
0.234796
0
LINE
8
BLACK
6
CONTINUOUS
10
0.337588
20
0.234796
11
0.337588
21
0.239483
0
LINE
8
BLACK
6
CONTINUOUS
10
0.337588
20
0.239483
11
0.33772
21
0.239801
0
LINE
8
BLACK
6
CONTINUOUS
10
0.33772
20
0.239801
11
0.337744
21
0.240144
0
LINE
8
BLACK
6
CONTINUOUS
10
0.337744
20
0.240144
11
0.338681
21
0.242018
0
LINE
8
BLACK
6
CONTINUOUS
10
0.338681
20
0.242018
11
0.338865
21
0.242178
0
LINE
8
BLACK
6
CONTINUOUS
10
0.338865
20
0.242178
11
0.338958
21
0.242402
0
LINE
8
BLACK
6
CONTINUOUS
10
0.338958
20
0.242402
11
0.339895
21
0.243339
0
LINE
8
BLACK
6
CONTINUOUS
10
0.339895
20
0.243339
11
0.34012
21
0.243432
0
LINE
8
BLACK
6
CONTINUOUS
10
0.34012
20
0.243432
11
0.340279
21
0.243616
0
LINE
8
BLACK
6
CONTINUOUS
10
0.340279
20
0.243616
11
0.342154
21
0.244553
0
LINE
8
BLACK
6
CONTINUOUS
10
0.342154
20
0.244553
11
0.342488
21
0.244577
0
LINE
8
BLACK
6
CONTINUOUS
10
0.342488
20
0.244577
11
0.337953
21
0.24976
0
LINE
8
BLACK
6
CONTINUOUS
10
0.337953
20
0.24976
11
0.337787
21
0.250252
0
LINE
8
BLACK
6
CONTINUOUS
10
0.337787
20
0.250252
11
0.337588
21
0.250732
0
LINE
8
BLACK
6
CONTINUOUS
10
0.337588
20
0.250732
11
0.337608
21
0.25078
0
LINE
8
BLACK
6
CONTINUOUS
10
0.337608
20
0.25078
11
0.337591
21
0.25083
0
LINE
8
BLACK
6
CONTINUOUS
10
0.337591
20
0.25083
11
0.337822
21
0.251296
0
LINE
8
BLACK
6
CONTINUOUS
10
0.337822
20
0.251296
11
0.33802
21
0.251776
0
LINE
8
BLACK
6
CONTINUOUS
10
0.33802
20
0.251776
11
0.338069
21
0.251796
0
LINE
8
BLACK
6
CONTINUOUS
10
0.338069
20
0.251796
11
0.338092
21
0.251843
0
LINE
8
BLACK
6
CONTINUOUS
10
0.338092
20
0.251843
11
0.338585
21
0.25201
0
LINE
8
BLACK
6
CONTINUOUS
10
0.338585
20
0.25201
11
0.339064
21
0.252208
0
LINE
8
BLACK
6
CONTINUOUS
10
0.339064
20
0.252208
11
0.35125
21
0.252208
0
LINE
8
BLACK
6
CONTINUOUS
10
0.35125
20
0.252208
11
0.352294
21
0.251776
0
LINE
8
BLACK
6
CONTINUOUS
10
0.371042
20
0.251776
11
0.371474
21
0.250732
0
LINE
8
BLACK
6
CONTINUOUS
10
0.371474
20
0.250732
11
0.371474
21
0.234796
0
LINE
8
BLACK
6
CONTINUOUS
10
0.371474
20
0.234796
11
0.371343
21
0.234479
0
LINE
8
BLACK
6
CONTINUOUS
10
0.371343
20
0.234479
11
0.371319
21
0.234136
0
LINE
8
BLACK
6
CONTINUOUS
10
0.371319
20
0.234136
11
0.370381
21
0.232261
0
LINE
8
BLACK
6
CONTINUOUS
10
0.370381
20
0.232261
11
0.370198
21
0.232102
0
LINE
8
BLACK
6
CONTINUOUS
10
0.370198
20
0.232102
11
0.370105
21
0.231878
0
LINE
8
BLACK
6
CONTINUOUS
10
0.370105
20
0.231878
11
0.369167
21
0.23094
0
LINE
8
BLACK
6
CONTINUOUS
10
0.369167
20
0.23094
11
0.368943
21
0.230847
0
LINE
8
BLACK
6
CONTINUOUS
10
0.368943
20
0.230847
11
0.368784
21
0.230664
0
LINE
8
BLACK
6
CONTINUOUS
10
0.368784
20
0.230664
11
0.366909
21
0.229726
0
LINE
8
BLACK
6
CONTINUOUS
10
0.366909
20
0.229726
11
0.366566
21
0.229702
0
LINE
8
BLACK
6
CONTINUOUS
10
0.366566
20
0.229702
11
0.366249
21
0.229571
0
LINE
8
BLACK
6
CONTINUOUS
10
0.366249
20
0.229571
11
0.362499
21
0.229571
0
LINE
8
BLACK
6
CONTINUOUS
10
0.362499
20
0.229571
11
0.362182
21
0.229702
0
LINE
8
BLACK
6
CONTINUOUS
10
0.362182
20
0.229702
11
0.361839
21
0.229726
0
LINE
8
BLACK
6
CONTINUOUS
10
0.361839
20
0.229726
11
0.359964
21
0.230664
0
LINE
8
BLACK
6
CONTINUOUS
10
0.359964
20
0.230664
11
0.359805
21
0.230847
0
LINE
8
BLACK
6
CONTINUOUS
10
0.359805
20
0.230847
11
0.35958
21
0.23094
0
LINE
8
BLACK
6
CONTINUOUS
10
0.35958
20
0.23094
11
0.358643
21
0.231878
0
LINE
8
BLACK
6
CONTINUOUS
10
0.358643
20
0.231878
11
0.35855
21
0.232102
0
LINE
8
BLACK
6
CONTINUOUS
10
0.35855
20
0.232102
11
0.358366
21
0.232261
0
LINE
8
BLACK
6
CONTINUOUS
10
0.358366
20
0.232261
11
0.357429
21
0.234136
0
LINE
8
BLACK
6
CONTINUOUS
10
0.357429
20
0.234136
11
0.357405
21
0.234479
0
LINE
8
BLACK
6
CONTINUOUS
10
0.357405
20
0.234479
11
0.357273
21
0.234796
0
LINE
8
BLACK
6
CONTINUOUS
10
0.357273
20
0.234796
11
0.357273
21
0.250732
0
LINE
8
BLACK
6
CONTINUOUS
10
0.357273
20
0.250732
11
0.357706
21
0.251776
0
LINE
8
BLACK
6
CONTINUOUS
10
0.357706
20
0.251776
11
0.35875
21
0.252208
0
LINE
8
BLACK
6
CONTINUOUS
10
0.35875
20
0.252208
11
0.359794
21
0.251776
0
LINE
8
BLACK
6
CONTINUOUS
10
0.359794
20
0.251776
11
0.360226
21
0.250732
0
LINE
8
BLACK
6
CONTINUOUS
10
0.360226
20
0.250732
11
0.360226
21
0.235145
0
LINE
8
BLACK
6
CONTINUOUS
10
0.360226
20
0.235145
11
0.3609
21
0.233796
0
LINE
8
BLACK
6
CONTINUOUS
10
0.3609
20
0.233796
11
0.361499
21
0.233198
0
LINE
8
BLACK
6
CONTINUOUS
10
0.361499
20
0.233198
11
0.362848
21
0.232523
0
LINE
8
BLACK
6
CONTINUOUS
10
0.362848
20
0.232523
11
0.3659
21
0.232523
0
LINE
8
BLACK
6
CONTINUOUS
10
0.3659
20
0.232523
11
0.367249
21
0.233198
0
LINE
8
BLACK
6
CONTINUOUS
10
0.367249
20
0.233198
11
0.367847
21
0.233796
0
LINE
8
BLACK
6
CONTINUOUS
10
0.367847
20
0.233796
11
0.368522
21
0.235145
0
LINE
8
BLACK
6
CONTINUOUS
10
0.368522
20
0.235145
11
0.368522
21
0.250732
0
LINE
8
BLACK
6
CONTINUOUS
10
0.368522
20
0.250732
11
0.368954
21
0.251776
0
LINE
8
BLACK
6
CONTINUOUS
10
0.368954
20
0.251776
11
0.369998
21
0.252208
0
LINE
8
BLACK
6
CONTINUOUS
10
0.369998
20
0.252208
11
0.371042
21
0.251776
0
LINE
8
BLACK
6
CONTINUOUS
10
0.416024
20
0.277402
11
0.417416
21
0.276825
0
LINE
8
BLACK
6
CONTINUOUS
10
0.417416
20
0.276825
11
0.417992
21
0.275433
0
LINE
8
BLACK
6
CONTINUOUS
10
0.417992
20
0.275433
11
0.417992
21
0.230157
0
LINE
8
BLACK
6
CONTINUOUS
10
0.417992
20
0.230157
11
0.417416
21
0.228766
0
LINE
8
BLACK
6
CONTINUOUS
10
0.417416
20
0.228766
11
0.391825
21
0.203175
0
LINE
8
BLACK
6
CONTINUOUS
10
0.391825
20
0.203175
11
0.390433
21
0.202598
0
LINE
8
BLACK
6
CONTINUOUS
10
0.390433
20
0.202598
11
0.293976
21
0.202598
0
LINE
8
BLACK
6
CONTINUOUS
10
0.293976
20
0.202598
11
0.292584
21
0.203175
0
LINE
8
BLACK
6
CONTINUOUS
10
0.292584
20
0.203175
11
0.292008
21
0.204567
0
LINE
8
BLACK
6
CONTINUOUS
10
0.292008
20
0.204567
11
0.292008
21
0.275433
0
LINE
8
BLACK
6
CONTINUOUS
10
0.292008
20
0.275433
11
0.292584
21
0.276825
0
LINE
8
BLACK
6
CONTINUOUS
10
0.292584
20
0.276825
11
0.293976
21
0.277402
0
LINE
8
BLACK
6
CONTINUOUS
10
0.293976
20
0.277402
11
0.416024
21
0.277402
0
LINE
8
BLACK
6
CONTINUOUS
10
0.295945
20
0.273465
11
0.295945
21
0.206535
0
LINE
8
BLACK
6
CONTINUOUS
10
0.295945
20
0.206535
11
0.389618
21
0.206535
0
LINE
8
BLACK
6
CONTINUOUS
10
0.389618
20
0.206535
11
0.414055
21
0.230973
0
LINE
8
BLACK
6
CONTINUOUS
10
0.414055
20
0.230973
11
0.414055
21
0.273465
0
LINE
8
BLACK
6
CONTINUOUS
10
0.414055
20
0.273465
11
0.295945
21
0.273465
0
LINE
8
BLACK
6
CONTINUOUS
10
0.720101
20
0.251292
11
0.72023
21
0.251314
0
LINE
8
BLACK
6
CONTINUOUS
10
0.72023
20
0.251314
11
0.720344
21
0.251249
0
LINE
8
BLACK
6
CONTINUOUS
10
0.720344
20
0.251249
11
0.720727
21
0.251181
0
LINE
8
BLACK
6
CONTINUOUS
10
0.720727
20
0.251181
11
0.721315
21
0.250688
0
LINE
8
BLACK
6
CONTINUOUS
10
0.721315
20
0.250688
11
0.721979
21
0.250304
0
LINE
8
BLACK
6
CONTINUOUS
10
0.721979
20
0.250304
11
0.72207
21
0.250054
0
LINE
8
BLACK
6
CONTINUOUS
10
0.72207
20
0.250054
11
0.722274
21
0.249883
0
LINE
8
BLACK
6
CONTINUOUS
10
0.722274
20
0.249883
11
0.722408
21
0.249127
0
LINE
8
BLACK
6
CONTINUOUS
10
0.722408
20
0.249127
11
0.72267
21
0.248406
0
LINE
8
BLACK
6
CONTINUOUS
10
0.72267
20
0.248406
11
0.72267
21
0.239033
0
LINE
8
BLACK
6
CONTINUOUS
10
0.72267
20
0.239033
11
0.722517
21
0.238163
0
LINE
8
BLACK
6
CONTINUOUS
10
0.722517
20
0.238163
11
0.722519
21
0.238099
0
LINE
8
BLACK
6
CONTINUOUS
10
0.722519
20
0.238099
11
0.720644
21
0.232475
0
LINE
8
BLACK
6
CONTINUOUS
10
0.720644
20
0.232475
11
0.720155
21
0.231573
0
LINE
8
BLACK
6
CONTINUOUS
10
0.720155
20
0.231573
11
0.720005
21
0.23148
0
LINE
8
BLACK
6
CONTINUOUS
10
0.720005
20
0.23148
11
0.71993
21
0.23132
0
LINE
8
BLACK
6
CONTINUOUS
10
0.71993
20
0.23132
11
0.716181
21
0.227571
0
LINE
8
BLACK
6
CONTINUOUS
10
0.716181
20
0.227571
11
0.715458
21
0.227065
0
LINE
8
BLACK
6
CONTINUOUS
10
0.715458
20
0.227065
11
0.715413
21
0.227018
0
LINE
8
BLACK
6
CONTINUOUS
10
0.715413
20
0.227018
11
0.711664
21
0.225143
0
LINE
8
BLACK
6
CONTINUOUS
10
0.711664
20
0.225143
11
0.711175
21
0.224998
0
LINE
8
BLACK
6
CONTINUOUS
10
0.711175
20
0.224998
11
0.71106
21
0.224919
0
LINE
8
BLACK
6
CONTINUOUS
10
0.71106
20
0.224919
11
0.703561
21
0.223045
0
LINE
8
BLACK
6
CONTINUOUS
10
0.703561
20
0.223045
11
0.702973
21
0.223003
0
LINE
8
BLACK
6
CONTINUOUS
10
0.702973
20
0.223003
11
0.702844
21
0.222957
0
LINE
8
BLACK
6
CONTINUOUS
10
0.702844
20
0.222957
11
0.69722
21
0.222957
0
LINE
8
BLACK
6
CONTINUOUS
10
0.69722
20
0.222957
11
0.69664
21
0.223059
0
LINE
8
BLACK
6
CONTINUOUS
10
0.69664
20
0.223059
11
0.696504
21
0.223045
0
LINE
8
BLACK
6
CONTINUOUS
10
0.696504
20
0.223045
11
0.689005
21
0.224919
0
LINE
8
BLACK
6
CONTINUOUS
10
0.689005
20
0.224919
11
0.688539
21
0.225127
0
LINE
8
BLACK
6
CONTINUOUS
10
0.688539
20
0.225127
11
0.688401
21
0.225143
0
LINE
8
BLACK
6
CONTINUOUS
10
0.688401
20
0.225143
11
0.684651
21
0.227018
0
LINE
8
BLACK
6
CONTINUOUS
10
0.684651
20
0.227018
11
0.683942
21
0.227544
0
LINE
8
BLACK
6
CONTINUOUS
10
0.683942
20
0.227544
11
0.683884
21
0.227571
0
LINE
8
BLACK
6
CONTINUOUS
10
0.683884
20
0.227571
11
0.680134
21
0.23132
0
LINE
8
BLACK
6
CONTINUOUS
10
0.680134
20
0.23132
11
0.679546
21
0.23216
0
LINE
8
BLACK
6
CONTINUOUS
10
0.679546
20
0.23216
11
0.67953
21
0.232336
0
LINE
8
BLACK
6
CONTINUOUS
10
0.67953
20
0.232336
11
0.679421
21
0.232475
0
LINE
8
BLACK
6
CONTINUOUS
10
0.679421
20
0.232475
11
0.677546
21
0.238099
0
LINE
8
BLACK
6
CONTINUOUS
10
0.677546
20
0.238099
11
0.677416
21
0.238972
0
LINE
8
BLACK
6
CONTINUOUS
10
0.677416
20
0.238972
11
0.677394
21
0.239033
0
LINE
8
BLACK
6
CONTINUOUS
10
0.677394
20
0.239033
11
0.677394
21
0.248406
0
LINE
8
BLACK
6
CONTINUOUS
10
0.677394
20
0.248406
11
0.677462
21
0.24879
0
LINE
8
BLACK
6
CONTINUOUS
10
0.677462
20
0.24879
11
0.677439
21
0.248919
0
LINE
8
BLACK
6
CONTINUOUS
10
0.677439
20
0.248919
11
0.677505
21
0.249033
0
LINE
8
BLACK
6
CONTINUOUS
10
0.677505
20
0.249033
11
0.677573
21
0.249416
0
LINE
8
BLACK
6
CONTINUOUS
10
0.677573
20
0.249416
11
0.678066
21
0.250004
0
LINE
8
BLACK
6
CONTINUOUS
10
0.678066
20
0.250004
11
0.678449
21
0.250668
0
LINE
8
BLACK
6
CONTINUOUS
10
0.678449
20
0.250668
11
0.6787
21
0.25076
0
LINE
8
BLACK
6
CONTINUOUS
10
0.6787
20
0.25076
11
0.678871
21
0.250964
0
LINE
8
BLACK
6
CONTINUOUS
10
0.678871
20
0.250964
11
0.679626
21
0.251097
0
LINE
8
BLACK
6
CONTINUOUS
10
0.679626
20
0.251097
11
0.680347
21
0.251359
0
LINE
8
BLACK
6
CONTINUOUS
10
0.680347
20
0.251359
11
0.719717
21
0.251359
0
LINE
8
BLACK
6
CONTINUOUS
10
0.719717
20
0.251359
11
0.720101
21
0.251292
0
LINE
8
BLACK
6
CONTINUOUS
10
0.6833
20
0.239512
11
0.684803
21
0.235003
0
LINE
8
BLACK
6
CONTINUOUS
10
0.684803
20
0.235003
11
0.687721
21
0.232086
0
LINE
8
BLACK
6
CONTINUOUS
10
0.687721
20
0.232086
11
0.690752
21
0.23057
0
LINE
8
BLACK
6
CONTINUOUS
10
0.690752
20
0.23057
11
0.697584
21
0.228862
0
LINE
8
BLACK
6
CONTINUOUS
10
0.697584
20
0.228862
11
0.702481
21
0.228862
0
LINE
8
BLACK
6
CONTINUOUS
10
0.702481
20
0.228862
11
0.709313
21
0.23057
0
LINE
8
BLACK
6
CONTINUOUS
10
0.709313
20
0.23057
11
0.712344
21
0.232086
0
LINE
8
BLACK
6
CONTINUOUS
10
0.712344
20
0.232086
11
0.715262
21
0.235003
0
LINE
8
BLACK
6
CONTINUOUS
10
0.715262
20
0.235003
11
0.716765
21
0.239512
0
LINE
8
BLACK
6
CONTINUOUS
10
0.716765
20
0.239512
11
0.716765
21
0.245454
0
LINE
8
BLACK
6
CONTINUOUS
10
0.716765
20
0.245454
11
0.6833
21
0.245454
0
LINE
8
BLACK
6
CONTINUOUS
10
0.6833
20
0.245454
11
0.6833
21
0.239512
0
LINE
8
BLACK
6
CONTINUOUS
10
0.706981
20
0.299048
11
0.707672
21
0.29715
0
LINE
8
BLACK
6
CONTINUOUS
10
0.707672
20
0.29715
11
0.707672
21
0.267154
0
LINE
8
BLACK
6
CONTINUOUS
10
0.707672
20
0.267154
11
0.707494
21
0.266144
0
LINE
8
BLACK
6
CONTINUOUS
10
0.707494
20
0.266144
11
0.706196
21
0.264597
0
LINE
8
BLACK
6
CONTINUOUS
10
0.706196
20
0.264597
11
0.704206
21
0.264246
0
LINE
8
BLACK
6
CONTINUOUS
10
0.704206
20
0.264246
11
0.702457
21
0.265256
0
LINE
8
BLACK
6
CONTINUOUS
10
0.702457
20
0.265256
11
0.701766
21
0.267154
0
LINE
8
BLACK
6
CONTINUOUS
10
0.701766
20
0.267154
11
0.701766
21
0.29715
0
LINE
8
BLACK
6
CONTINUOUS
10
0.701766
20
0.29715
11
0.701944
21
0.29816
0
LINE
8
BLACK
6
CONTINUOUS
10
0.701944
20
0.29816
11
0.703243
21
0.299708
0
LINE
8
BLACK
6
CONTINUOUS
10
0.703243
20
0.299708
11
0.705232
21
0.300058
0
LINE
8
BLACK
6
CONTINUOUS
10
0.705232
20
0.300058
11
0.706981
21
0.299048
0
LINE
8
BLACK
6
CONTINUOUS
10
0.693355
20
0.338892
11
0.694468
21
0.337206
0
LINE
8
BLACK
6
CONTINUOUS
10
0.694468
20
0.337206
11
0.694237
21
0.3352
0
LINE
8
BLACK
6
CONTINUOUS
10
0.694237
20
0.3352
11
0.692362
21
0.33145
0
LINE
8
BLACK
6
CONTINUOUS
10
0.692362
20
0.33145
11
0.691836
21
0.330741
0
LINE
8
BLACK
6
CONTINUOUS
10
0.691836
20
0.330741
11
0.691809
21
0.330683
0
LINE
8
BLACK
6
CONTINUOUS
10
0.691809
20
0.330683
11
0.689351
21
0.328225
0
LINE
8
BLACK
6
CONTINUOUS
10
0.689351
20
0.328225
11
0.716765
21
0.328225
0
LINE
8
BLACK
6
CONTINUOUS
10
0.716765
20
0.328225
11
0.716765
21
0.33652
0
LINE
8
BLACK
6
CONTINUOUS
10
0.716765
20
0.33652
11
0.716943
21
0.33753
0
LINE
8
BLACK
6
CONTINUOUS
10
0.716943
20
0.33753
11
0.718241
21
0.339078
0
LINE
8
BLACK
6
CONTINUOUS
10
0.718241
20
0.339078
11
0.72023
21
0.339428
0
LINE
8
BLACK
6
CONTINUOUS
10
0.72023
20
0.339428
11
0.721979
21
0.338418
0
LINE
8
BLACK
6
CONTINUOUS
10
0.721979
20
0.338418
11
0.72267
21
0.33652
0
LINE
8
BLACK
6
CONTINUOUS
10
0.72267
20
0.33652
11
0.72267
21
0.314023
0
LINE
8
BLACK
6
CONTINUOUS
10
0.72267
20
0.314023
11
0.722492
21
0.313013
0
LINE
8
BLACK
6
CONTINUOUS
10
0.722492
20
0.313013
11
0.721194
21
0.311466
0
LINE
8
BLACK
6
CONTINUOUS
10
0.721194
20
0.311466
11
0.719205
21
0.311115
0
LINE
8
BLACK
6
CONTINUOUS
10
0.719205
20
0.311115
11
0.717455
21
0.312125
0
LINE
8
BLACK
6
CONTINUOUS
10
0.717455
20
0.312125
11
0.716765
21
0.314023
0
LINE
8
BLACK
6
CONTINUOUS
10
0.716765
20
0.314023
11
0.716765
21
0.322319
0
LINE
8
BLACK
6
CONTINUOUS
10
0.716765
20
0.322319
11
0.680347
21
0.322319
0
LINE
8
BLACK
6
CONTINUOUS
10
0.680347
20
0.322319
11
0.679337
21
0.322497
0
LINE
8
BLACK
6
CONTINUOUS
10
0.679337
20
0.322497
11
0.679207
21
0.322606
0
LINE
8
BLACK
6
CONTINUOUS
10
0.679207
20
0.322606
11
0.679038
21
0.322625
0
LINE
8
BLACK
6
CONTINUOUS
10
0.679038
20
0.322625
11
0.678447
21
0.323245
0
LINE
8
BLACK
6
CONTINUOUS
10
0.678447
20
0.323245
11
0.67779
21
0.323795
0
LINE
8
BLACK
6
CONTINUOUS
10
0.67779
20
0.323795
11
0.677761
21
0.323963
0
LINE
8
BLACK
6
CONTINUOUS
10
0.677761
20
0.323963
11
0.677643
21
0.324085
0
LINE
8
BLACK
6
CONTINUOUS
10
0.677643
20
0.324085
11
0.677588
21
0.324941
0
LINE
8
BLACK
6
CONTINUOUS
10
0.677588
20
0.324941
11
0.677439
21
0.325785
0
LINE
8
BLACK
6
CONTINUOUS
10
0.677439
20
0.325785
11
0.677524
21
0.325932
0
LINE
8
BLACK
6
CONTINUOUS
10
0.677524
20
0.325932
11
0.677513
21
0.326101
0
LINE
8
BLACK
6
CONTINUOUS
10
0.677513
20
0.326101
11
0.678021
21
0.326792
0
LINE
8
BLACK
6
CONTINUOUS
10
0.678021
20
0.326792
11
0.678449
21
0.327534
0
LINE
8
BLACK
6
CONTINUOUS
10
0.678449
20
0.327534
11
0.678609
21
0.327592
0
LINE
8
BLACK
6
CONTINUOUS
10
0.678609
20
0.327592
11
0.678709
21
0.327729
0
LINE
8
BLACK
6
CONTINUOUS
10
0.678709
20
0.327729
11
0.68409
21
0.331316
0
LINE
8
BLACK
6
CONTINUOUS
10
0.68409
20
0.331316
11
0.687294
21
0.33452
0
LINE
8
BLACK
6
CONTINUOUS
10
0.687294
20
0.33452
11
0.688955
21
0.337841
0
LINE
8
BLACK
6
CONTINUOUS
10
0.688955
20
0.337841
11
0.689566
21
0.338665
0
LINE
8
BLACK
6
CONTINUOUS
10
0.689566
20
0.338665
11
0.691419
21
0.339468
0
LINE
8
BLACK
6
CONTINUOUS
10
0.691419
20
0.339468
11
0.693355
21
0.338892
0
LINE
8
BLACK
6
CONTINUOUS
10
0.458286
20
0.371662
11
0.458976
21
0.369764
0
LINE
8
BLACK
6
CONTINUOUS
10
0.458976
20
0.369764
11
0.458976
21
0.329764
0
LINE
8
BLACK
6
CONTINUOUS
10
0.458976
20
0.329764
11
0.458909
21
0.32938
0
LINE
8
BLACK
6
CONTINUOUS
10
0.458909
20
0.32938
11
0.458932
21
0.329251
0
LINE
8
BLACK
6
CONTINUOUS
10
0.458932
20
0.329251
11
0.458866
21
0.329137
0
LINE
8
BLACK
6
CONTINUOUS
10
0.458866
20
0.329137
11
0.458798
21
0.328754
0
LINE
8
BLACK
6
CONTINUOUS
10
0.458798
20
0.328754
11
0.458305
21
0.328166
0
LINE
8
BLACK
6
CONTINUOUS
10
0.458305
20
0.328166
11
0.457922
21
0.327502
0
LINE
8
BLACK
6
CONTINUOUS
10
0.457922
20
0.327502
11
0.457671
21
0.327411
0
LINE
8
BLACK
6
CONTINUOUS
10
0.457671
20
0.327411
11
0.4575
21
0.327207
0
LINE
8
BLACK
6
CONTINUOUS
10
0.4575
20
0.327207
11
0.456744
21
0.327073
0
LINE
8
BLACK
6
CONTINUOUS
10
0.456744
20
0.327073
11
0.456024
21
0.326811
0
LINE
8
BLACK
6
CONTINUOUS
10
0.456024
20
0.326811
11
0.396024
21
0.326811
0
LINE
8
BLACK
6
CONTINUOUS
10
0.396024
20
0.326811
11
0.39564
21
0.326879
0
LINE
8
BLACK
6
CONTINUOUS
10
0.39564
20
0.326879
11
0.395511
21
0.326856
0
LINE
8
BLACK
6
CONTINUOUS
10
0.395511
20
0.326856
11
0.395397
21
0.326921
0
LINE
8
BLACK
6
CONTINUOUS
10
0.395397
20
0.326921
11
0.395014
21
0.326989
0
LINE
8
BLACK
6
CONTINUOUS
10
0.395014
20
0.326989
11
0.394426
21
0.327482
0
LINE
8
BLACK
6
CONTINUOUS
10
0.394426
20
0.327482
11
0.393762
21
0.327866
0
LINE
8
BLACK
6
CONTINUOUS
10
0.393762
20
0.327866
11
0.393671
21
0.328116
0
LINE
8
BLACK
6
CONTINUOUS
10
0.393671
20
0.328116
11
0.393466
21
0.328287
0
LINE
8
BLACK
6
CONTINUOUS
10
0.393466
20
0.328287
11
0.393333
21
0.329043
0
LINE
8
BLACK
6
CONTINUOUS
10
0.393333
20
0.329043
11
0.393071
21
0.329764
0
LINE
8
BLACK
6
CONTINUOUS
10
0.393071
20
0.329764
11
0.393071
21
0.369764
0
LINE
8
BLACK
6
CONTINUOUS
10
0.393071
20
0.369764
11
0.393249
21
0.370774
0
LINE
8
BLACK
6
CONTINUOUS
10
0.393249
20
0.370774
11
0.394547
21
0.372321
0
LINE
8
BLACK
6
CONTINUOUS
10
0.394547
20
0.372321
11
0.396536
21
0.372672
0
LINE
8
BLACK
6
CONTINUOUS
10
0.396536
20
0.372672
11
0.398286
21
0.371662
0
LINE
8
BLACK
6
CONTINUOUS
10
0.398286
20
0.371662
11
0.398976
21
0.369764
0
LINE
8
BLACK
6
CONTINUOUS
10
0.398976
20
0.369764
11
0.398976
21
0.332717
0
LINE
8
BLACK
6
CONTINUOUS
10
0.398976
20
0.332717
11
0.453071
21
0.332717
0
LINE
8
BLACK
6
CONTINUOUS
10
0.453071
20
0.332717
11
0.453071
21
0.369764
0
LINE
8
BLACK
6
CONTINUOUS
10
0.453071
20
0.369764
11
0.453249
21
0.370774
0
LINE
8
BLACK
6
CONTINUOUS
10
0.453249
20
0.370774
11
0.454547
21
0.372321
0
LINE
8
BLACK
6
CONTINUOUS
10
0.454547
20
0.372321
11
0.456536
21
0.372672
0
LINE
8
BLACK
6
CONTINUOUS
10
0.456536
20
0.372672
11
0.458286
21
0.371662
0
LINE
8
BLACK
6
CONTINUOUS
10
0.706884
20
0.376884
11
0.707107
21
0.376924
0
LINE
8
BLACK
6
CONTINUOUS
10
0.707107
20
0.376924
11
0.707804
21
0.376521
0
LINE
8
BLACK
6
CONTINUOUS
10
0.707804
20
0.376521
11
0.708553
21
0.376225
0
LINE
8
BLACK
6
CONTINUOUS
10
0.708553
20
0.376225
11
0.70866
21
0.376027
0
LINE
8
BLACK
6
CONTINUOUS
10
0.70866
20
0.376027
11
0.708856
21
0.375914
0
LINE
8
BLACK
6
CONTINUOUS
10
0.708856
20
0.375914
11
0.709131
21
0.375157
0
LINE
8
BLACK
6
CONTINUOUS
10
0.709131
20
0.375157
11
0.709515
21
0.374449
0
LINE
8
BLACK
6
CONTINUOUS
10
0.709515
20
0.374449
11
0.709469
21
0.374228
0
LINE
8
BLACK
6
CONTINUOUS
10
0.709469
20
0.374228
11
0.709547
21
0.374016
0
LINE
8
BLACK
6
CONTINUOUS
10
0.709547
20
0.374016
11
0.709547
21
0.358221
0
LINE
8
BLACK
6
CONTINUOUS
10
0.709547
20
0.358221
11
0.719717
21
0.358221
0
LINE
8
BLACK
6
CONTINUOUS
10
0.719717
20
0.358221
11
0.720727
21
0.358043
0
LINE
8
BLACK
6
CONTINUOUS
10
0.720727
20
0.358043
11
0.722274
21
0.356744
0
LINE
8
BLACK
6
CONTINUOUS
10
0.722274
20
0.356744
11
0.722625
21
0.354755
0
LINE
8
BLACK
6
CONTINUOUS
10
0.722625
20
0.354755
11
0.721615
21
0.353006
0
LINE
8
BLACK
6
CONTINUOUS
10
0.721615
20
0.353006
11
0.719717
21
0.352315
0
LINE
8
BLACK
6
CONTINUOUS
10
0.719717
20
0.352315
11
0.709547
21
0.352315
0
LINE
8
BLACK
6
CONTINUOUS
10
0.709547
20
0.352315
11
0.709547
21
0.349644
0
LINE
8
BLACK
6
CONTINUOUS
10
0.709547
20
0.349644
11
0.709369
21
0.348634
0
LINE
8
BLACK
6
CONTINUOUS
10
0.709369
20
0.348634
11
0.70807
21
0.347087
0
LINE
8
BLACK
6
CONTINUOUS
10
0.70807
20
0.347087
11
0.706081
21
0.346736
0
LINE
8
BLACK
6
CONTINUOUS
10
0.706081
20
0.346736
11
0.704332
21
0.347746
0
LINE
8
BLACK
6
CONTINUOUS
10
0.704332
20
0.347746
11
0.703641
21
0.349644
0
LINE
8
BLACK
6
CONTINUOUS
10
0.703641
20
0.349644
11
0.703641
21
0.352315
0
LINE
8
BLACK
6
CONTINUOUS
10
0.703641
20
0.352315
11
0.693471
21
0.352315
0
LINE
8
BLACK
6
CONTINUOUS
10
0.693471
20
0.352315
11
0.692461
21
0.352493
0
LINE
8
BLACK
6
CONTINUOUS
10
0.692461
20
0.352493
11
0.690913
21
0.353792
0
LINE
8
BLACK
6
CONTINUOUS
10
0.690913
20
0.353792
11
0.690563
21
0.355781
0
LINE
8
BLACK
6
CONTINUOUS
10
0.690563
20
0.355781
11
0.691573
21
0.35753
0
LINE
8
BLACK
6
CONTINUOUS
10
0.691573
20
0.35753
11
0.693471
21
0.358221
0
LINE
8
BLACK
6
CONTINUOUS
10
0.693471
20
0.358221
11
0.703641
21
0.358221
0
LINE
8
BLACK
6
CONTINUOUS
10
0.703641
20
0.358221
11
0.703641
21
0.369919
0
LINE
8
BLACK
6
CONTINUOUS
10
0.703641
20
0.369919
11
0.679406
21
0.361841
0
LINE
8
BLACK
6
CONTINUOUS
10
0.679406
20
0.361841
11
0.678392
21
0.36169
0
LINE
8
BLACK
6
CONTINUOUS
10
0.678392
20
0.36169
11
0.676513
21
0.362433
0
LINE
8
BLACK
6
CONTINUOUS
10
0.676513
20
0.362433
11
0.675552
21
0.364209
0
LINE
8
BLACK
6
CONTINUOUS
10
0.675552
20
0.364209
11
0.675957
21
0.366188
0
LINE
8
BLACK
6
CONTINUOUS
10
0.675957
20
0.366188
11
0.677539
21
0.367443
0
LINE
8
BLACK
6
CONTINUOUS
10
0.677539
20
0.367443
11
0.70566
21
0.376817
0
LINE
8
BLACK
6
CONTINUOUS
10
0.70566
20
0.376817
11
0.706675
21
0.376967
0
LINE
8
BLACK
6
CONTINUOUS
10
0.706675
20
0.376967
11
0.706884
21
0.376884
0
LINE
8
BLACK
6
CONTINUOUS
10
0.300163
20
0.385256
11
0.300509
21
0.384421
0
LINE
8
BLACK
6
CONTINUOUS
10
0.300509
20
0.384421
11
0.300509
21
0.375422
0
LINE
8
BLACK
6
CONTINUOUS
10
0.300509
20
0.375422
11
0.300163
21
0.374587
0
LINE
8
BLACK
6
CONTINUOUS
10
0.300163
20
0.374587
11
0.299328
21
0.374241
0
LINE
8
BLACK
6
CONTINUOUS
10
0.299328
20
0.374241
11
0.298493
21
0.374587
0
LINE
8
BLACK
6
CONTINUOUS
10
0.298493
20
0.374587
11
0.298147
21
0.375422
0
LINE
8
BLACK
6
CONTINUOUS
10
0.298147
20
0.375422
11
0.298147
21
0.37874
0
LINE
8
BLACK
6
CONTINUOUS
10
0.298147
20
0.37874
11
0.28358
21
0.37874
0
LINE
8
BLACK
6
CONTINUOUS
10
0.28358
20
0.37874
11
0.283467
21
0.378787
0
LINE
8
BLACK
6
CONTINUOUS
10
0.283467
20
0.378787
11
0.283348
21
0.378763
0
LINE
8
BLACK
6
CONTINUOUS
10
0.283348
20
0.378763
11
0.283062
21
0.378954
0
LINE
8
BLACK
6
CONTINUOUS
10
0.283062
20
0.378954
11
0.282745
21
0.379086
0
LINE
8
BLACK
6
CONTINUOUS
10
0.282745
20
0.379086
11
0.282698
21
0.379198
0
LINE
8
BLACK
6
CONTINUOUS
10
0.282698
20
0.379198
11
0.282597
21
0.379266
0
LINE
8
BLACK
6
CONTINUOUS
10
0.282597
20
0.379266
11
0.28253
21
0.379603
0
LINE
8
BLACK
6
CONTINUOUS
10
0.28253
20
0.379603
11
0.282399
21
0.379921
0
LINE
8
BLACK
6
CONTINUOUS
10
0.282399
20
0.379921
11
0.282445
21
0.380034
0
LINE
8
BLACK
6
CONTINUOUS
10
0.282445
20
0.380034
11
0.282422
21
0.380153
0
LINE
8
BLACK
6
CONTINUOUS
10
0.282422
20
0.380153
11
0.282613
21
0.380439
0
LINE
8
BLACK
6
CONTINUOUS
10
0.282613
20
0.380439
11
0.282745
21
0.380756
0
LINE
8
BLACK
6
CONTINUOUS
10
0.282745
20
0.380756
11
0.282857
21
0.380803
0
LINE
8
BLACK
6
CONTINUOUS
10
0.282857
20
0.380803
11
0.282925
21
0.380904
0
LINE
8
BLACK
6
CONTINUOUS
10
0.282925
20
0.380904
11
0.285077
21
0.382339
0
LINE
8
BLACK
6
CONTINUOUS
10
0.285077
20
0.382339
11
0.286359
21
0.383621
0
LINE
8
BLACK
6
CONTINUOUS
10
0.286359
20
0.383621
11
0.287023
21
0.384949
0
LINE
8
BLACK
6
CONTINUOUS
10
0.287023
20
0.384949
11
0.287706
21
0.385541
0
LINE
8
BLACK
6
CONTINUOUS
10
0.287706
20
0.385541
11
0.288607
21
0.385477
0
LINE
8
BLACK
6
CONTINUOUS
10
0.288607
20
0.385477
11
0.2892
21
0.384794
0
LINE
8
BLACK
6
CONTINUOUS
10
0.2892
20
0.384794
11
0.289136
21
0.383893
0
LINE
8
BLACK
6
CONTINUOUS
10
0.289136
20
0.383893
11
0.288386
21
0.382393
0
LINE
8
BLACK
6
CONTINUOUS
10
0.288386
20
0.382393
11
0.288239
21
0.382265
0
LINE
8
BLACK
6
CONTINUOUS
10
0.288239
20
0.382265
11
0.288164
21
0.382086
0
LINE
8
BLACK
6
CONTINUOUS
10
0.288164
20
0.382086
11
0.287181
21
0.381102
0
LINE
8
BLACK
6
CONTINUOUS
10
0.287181
20
0.381102
11
0.298147
21
0.381102
0
LINE
8
BLACK
6
CONTINUOUS
10
0.298147
20
0.381102
11
0.298147
21
0.384421
0
LINE
8
BLACK
6
CONTINUOUS
10
0.298147
20
0.384421
11
0.298493
21
0.385256
0
LINE
8
BLACK
6
CONTINUOUS
10
0.298493
20
0.385256
11
0.299328
21
0.385602
0
LINE
8
BLACK
6
CONTINUOUS
10
0.299328
20
0.385602
11
0.300163
21
0.385256
0
LINE
8
BLACK
6
CONTINUOUS
10
0.307913
20
0.42126
11
0.309305
21
0.420683
0
LINE
8
BLACK
6
CONTINUOUS
10
0.309305
20
0.420683
11
0.309882
21
0.419291
0
LINE
8
BLACK
6
CONTINUOUS
10
0.309882
20
0.419291
11
0.309882
21
0.412878
0
LINE
8
BLACK
6
CONTINUOUS
10
0.309882
20
0.412878
11
0.330938
21
0.412878
0
LINE
8
BLACK
6
CONTINUOUS
10
0.330938
20
0.412878
11
0.331321
21
0.41281
0
LINE
8
BLACK
6
CONTINUOUS
10
0.331321
20
0.41281
11
0.331451
21
0.412833
0
LINE
8
BLACK
6
CONTINUOUS
10
0.331451
20
0.412833
11
0.331564
21
0.412767
0
LINE
8
BLACK
6
CONTINUOUS
10
0.331564
20
0.412767
11
0.331948
21
0.4127
0
LINE
8
BLACK
6
CONTINUOUS
10
0.331948
20
0.4127
11
0.332535
21
0.412207
0
LINE
8
BLACK
6
CONTINUOUS
10
0.332535
20
0.412207
11
0.3332
21
0.411823
0
LINE
8
BLACK
6
CONTINUOUS
10
0.3332
20
0.411823
11
0.333291
21
0.411573
0
LINE
8
BLACK
6
CONTINUOUS
10
0.333291
20
0.411573
11
0.333495
21
0.411401
0
LINE
8
BLACK
6
CONTINUOUS
10
0.333495
20
0.411401
11
0.333628
21
0.410646
0
LINE
8
BLACK
6
CONTINUOUS
10
0.333628
20
0.410646
11
0.333891
21
0.409925
0
LINE
8
BLACK
6
CONTINUOUS
10
0.333891
20
0.409925
11
0.333891
21
0.400551
0
LINE
8
BLACK
6
CONTINUOUS
10
0.333891
20
0.400551
11
0.333737
21
0.399682
0
LINE
8
BLACK
6
CONTINUOUS
10
0.333737
20
0.399682
11
0.333739
21
0.399617
0
LINE
8
BLACK
6
CONTINUOUS
10
0.333739
20
0.399617
11
0.331864
21
0.393993
0
LINE
8
BLACK
6
CONTINUOUS
10
0.331864
20
0.393993
11
0.331376
21
0.393091
0
LINE
8
BLACK
6
CONTINUOUS
10
0.331376
20
0.393091
11
0.331226
21
0.392999
0
LINE
8
BLACK
6
CONTINUOUS
10
0.331226
20
0.392999
11
0.331151
21
0.392839
0
LINE
8
BLACK
6
CONTINUOUS
10
0.331151
20
0.392839
11
0.327401
21
0.389089
0
LINE
8
BLACK
6
CONTINUOUS
10
0.327401
20
0.389089
11
0.326678
21
0.388583
0
LINE
8
BLACK
6
CONTINUOUS
10
0.326678
20
0.388583
11
0.326634
21
0.388536
0
LINE
8
BLACK
6
CONTINUOUS
10
0.326634
20
0.388536
11
0.322884
21
0.386662
0
LINE
8
BLACK
6
CONTINUOUS
10
0.322884
20
0.386662
11
0.322396
21
0.386516
0
LINE
8
BLACK
6
CONTINUOUS
10
0.322396
20
0.386516
11
0.32228
21
0.386438
0
LINE
8
BLACK
6
CONTINUOUS
10
0.32228
20
0.386438
11
0.314781
21
0.384563
0
LINE
8
BLACK
6
CONTINUOUS
10
0.314781
20
0.384563
11
0.314193
21
0.384522
0
LINE
8
BLACK
6
CONTINUOUS
10
0.314193
20
0.384522
11
0.314065
21
0.384475
0
LINE
8
BLACK
6
CONTINUOUS
10
0.314065
20
0.384475
11
0.309882
21
0.384475
0
LINE
8
BLACK
6
CONTINUOUS
10
0.309882
20
0.384475
11
0.309882
21
0.364134
0
LINE
8
BLACK
6
CONTINUOUS
10
0.309882
20
0.364134
11
0.327985
21
0.364134
0
LINE
8
BLACK
6
CONTINUOUS
10
0.327985
20
0.364134
11
0.327985
21
0.37243
0
LINE
8
BLACK
6
CONTINUOUS
10
0.327985
20
0.37243
11
0.328163
21
0.37344
0
LINE
8
BLACK
6
CONTINUOUS
10
0.328163
20
0.37344
11
0.329461
21
0.374987
0
LINE
8
BLACK
6
CONTINUOUS
10
0.329461
20
0.374987
11
0.331451
21
0.375338
0
LINE
8
BLACK
6
CONTINUOUS
10
0.331451
20
0.375338
11
0.3332
21
0.374328
0
LINE
8
BLACK
6
CONTINUOUS
10
0.3332
20
0.374328
11
0.333891
21
0.37243
0
LINE
8
BLACK
6
CONTINUOUS
10
0.333891
20
0.37243
11
0.333891
21
0.349933
0
LINE
8
BLACK
6
CONTINUOUS
10
0.333891
20
0.349933
11
0.333712
21
0.348923
0
LINE
8
BLACK
6
CONTINUOUS
10
0.333712
20
0.348923
11
0.332414
21
0.347375
0
LINE
8
BLACK
6
CONTINUOUS
10
0.332414
20
0.347375
11
0.330425
21
0.347025
0
LINE
8
BLACK
6
CONTINUOUS
10
0.330425
20
0.347025
11
0.328676
21
0.348035
0
LINE
8
BLACK
6
CONTINUOUS
10
0.328676
20
0.348035
11
0.327985
21
0.349933
0
LINE
8
BLACK
6
CONTINUOUS
10
0.327985
20
0.349933
11
0.327985
21
0.358228
0
LINE
8
BLACK
6
CONTINUOUS
10
0.327985
20
0.358228
11
0.309882
21
0.358228
0
LINE
8
BLACK
6
CONTINUOUS
10
0.309882
20
0.358228
11
0.309882
21
0.356299
0
LINE
8
BLACK
6
CONTINUOUS
10
0.309882
20
0.356299
11
0.309305
21
0.354907
0
LINE
8
BLACK
6
CONTINUOUS
10
0.309305
20
0.354907
11
0.307913
21
0.354331
0
LINE
8
BLACK
6
CONTINUOUS
10
0.307913
20
0.354331
11
0.276417
21
0.354331
0
LINE
8
BLACK
6
CONTINUOUS
10
0.276417
20
0.354331
11
0.275025
21
0.354907
0
LINE
8
BLACK
6
CONTINUOUS
10
0.275025
20
0.354907
11
0.274449
21
0.356299
0
LINE
8
BLACK
6
CONTINUOUS
10
0.274449
20
0.356299
11
0.274449
21
0.419291
0
LINE
8
BLACK
6
CONTINUOUS
10
0.274449
20
0.419291
11
0.275025
21
0.420683
0
LINE
8
BLACK
6
CONTINUOUS
10
0.275025
20
0.420683
11
0.276417
21
0.42126
0
LINE
8
BLACK
6
CONTINUOUS
10
0.276417
20
0.42126
11
0.307913
21
0.42126
0
LINE
8
BLACK
6
CONTINUOUS
10
0.278386
20
0.417323
11
0.278386
21
0.358268
0
LINE
8
BLACK
6
CONTINUOUS
10
0.278386
20
0.358268
11
0.291344
21
0.358268
0
LINE
8
BLACK
6
CONTINUOUS
10
0.291344
20
0.358268
11
0.290558
21
0.358406
0
LINE
8
BLACK
6
CONTINUOUS
10
0.290558
20
0.358406
11
0.290428
21
0.358516
0
LINE
8
BLACK
6
CONTINUOUS
10
0.290428
20
0.358516
11
0.290259
21
0.358534
0
LINE
8
BLACK
6
CONTINUOUS
10
0.290259
20
0.358534
11
0.289667
21
0.359154
0
LINE
8
BLACK
6
CONTINUOUS
10
0.289667
20
0.359154
11
0.289011
21
0.359705
0
LINE
8
BLACK
6
CONTINUOUS
10
0.289011
20
0.359705
11
0.288981
21
0.359872
0
LINE
8
BLACK
6
CONTINUOUS
10
0.288981
20
0.359872
11
0.288864
21
0.359995
0
LINE
8
BLACK
6
CONTINUOUS
10
0.288864
20
0.359995
11
0.288809
21
0.36085
0
LINE
8
BLACK
6
CONTINUOUS
10
0.288809
20
0.36085
11
0.28866
21
0.361694
0
LINE
8
BLACK
6
CONTINUOUS
10
0.28866
20
0.361694
11
0.288745
21
0.361841
0
LINE
8
BLACK
6
CONTINUOUS
10
0.288745
20
0.361841
11
0.288734
21
0.36201
0
LINE
8
BLACK
6
CONTINUOUS
10
0.288734
20
0.36201
11
0.289241
21
0.362701
0
LINE
8
BLACK
6
CONTINUOUS
10
0.289241
20
0.362701
11
0.28967
21
0.363443
0
LINE
8
BLACK
6
CONTINUOUS
10
0.28967
20
0.363443
11
0.289829
21
0.363501
0
LINE
8
BLACK
6
CONTINUOUS
10
0.289829
20
0.363501
11
0.28993
21
0.363638
0
LINE
8
BLACK
6
CONTINUOUS
10
0.28993
20
0.363638
11
0.295311
21
0.367225
0
LINE
8
BLACK
6
CONTINUOUS
10
0.295311
20
0.367225
11
0.298515
21
0.370429
0
LINE
8
BLACK
6
CONTINUOUS
10
0.298515
20
0.370429
11
0.300175
21
0.37375
0
LINE
8
BLACK
6
CONTINUOUS
10
0.300175
20
0.37375
11
0.300786
21
0.374574
0
LINE
8
BLACK
6
CONTINUOUS
10
0.300786
20
0.374574
11
0.302639
21
0.375377
0
LINE
8
BLACK
6
CONTINUOUS
10
0.302639
20
0.375377
11
0.304575
21
0.374801
0
LINE
8
BLACK
6
CONTINUOUS
10
0.304575
20
0.374801
11
0.305688
21
0.373116
0
LINE
8
BLACK
6
CONTINUOUS
10
0.305688
20
0.373116
11
0.305457
21
0.371109
0
LINE
8
BLACK
6
CONTINUOUS
10
0.305457
20
0.371109
11
0.303583
21
0.36736
0
LINE
8
BLACK
6
CONTINUOUS
10
0.303583
20
0.36736
11
0.303057
21
0.366651
0
LINE
8
BLACK
6
CONTINUOUS
10
0.303057
20
0.366651
11
0.303029
21
0.366592
0
LINE
8
BLACK
6
CONTINUOUS
10
0.303029
20
0.366592
11
0.300571
21
0.364134
0
LINE
8
BLACK
6
CONTINUOUS
10
0.300571
20
0.364134
11
0.305945
21
0.364134
0
LINE
8
BLACK
6
CONTINUOUS
10
0.305945
20
0.364134
11
0.305945
21
0.385008
0
LINE
8
BLACK
6
CONTINUOUS
10
0.305945
20
0.385008
11
0.300225
21
0.386438
0
LINE
8
BLACK
6
CONTINUOUS
10
0.300225
20
0.386438
11
0.29976
21
0.386646
0
LINE
8
BLACK
6
CONTINUOUS
10
0.29976
20
0.386646
11
0.299621
21
0.386662
0
LINE
8
BLACK
6
CONTINUOUS
10
0.299621
20
0.386662
11
0.295871
21
0.388536
0
LINE
8
BLACK
6
CONTINUOUS
10
0.295871
20
0.388536
11
0.295162
21
0.389062
0
LINE
8
BLACK
6
CONTINUOUS
10
0.295162
20
0.389062
11
0.295104
21
0.389089
0
LINE
8
BLACK
6
CONTINUOUS
10
0.295104
20
0.389089
11
0.292357
21
0.391836
0
LINE
8
BLACK
6
CONTINUOUS
10
0.292357
20
0.391836
11
0.292135
21
0.391392
0
LINE
8
BLACK
6
CONTINUOUS
10
0.292135
20
0.391392
11
0.291988
21
0.391264
0
LINE
8
BLACK
6
CONTINUOUS
10
0.291988
20
0.391264
11
0.291914
21
0.391085
0
LINE
8
BLACK
6
CONTINUOUS
10
0.291914
20
0.391085
11
0.291164
21
0.390335
0
LINE
8
BLACK
6
CONTINUOUS
10
0.291164
20
0.390335
11
0.290985
21
0.39026
0
LINE
8
BLACK
6
CONTINUOUS
10
0.290985
20
0.39026
11
0.290857
21
0.390113
0
LINE
8
BLACK
6
CONTINUOUS
10
0.290857
20
0.390113
11
0.289357
21
0.389364
0
LINE
8
BLACK
6
CONTINUOUS
10
0.289357
20
0.389364
11
0.289083
21
0.389344
0
LINE
8
BLACK
6
CONTINUOUS
10
0.289083
20
0.389344
11
0.288829
21
0.389239
0
LINE
8
BLACK
6
CONTINUOUS
10
0.288829
20
0.389239
11
0.286579
21
0.389239
0
LINE
8
BLACK
6
CONTINUOUS
10
0.286579
20
0.389239
11
0.286325
21
0.389344
0
LINE
8
BLACK
6
CONTINUOUS
10
0.286325
20
0.389344
11
0.286051
21
0.389364
0
LINE
8
BLACK
6
CONTINUOUS
10
0.286051
20
0.389364
11
0.284551
21
0.390113
0
LINE
8
BLACK
6
CONTINUOUS
10
0.284551
20
0.390113
11
0.284424
21
0.39026
0
LINE
8
BLACK
6
CONTINUOUS
10
0.284424
20
0.39026
11
0.284244
21
0.390335
0
LINE
8
BLACK
6
CONTINUOUS
10
0.284244
20
0.390335
11
0.283495
21
0.391085
0
LINE
8
BLACK
6
CONTINUOUS
10
0.283495
20
0.391085
11
0.28342
21
0.391264
0
LINE
8
BLACK
6
CONTINUOUS
10
0.28342
20
0.391264
11
0.283273
21
0.391392
0
LINE
8
BLACK
6
CONTINUOUS
10
0.283273
20
0.391392
11
0.282523
21
0.392891
0
LINE
8
BLACK
6
CONTINUOUS
10
0.282523
20
0.392891
11
0.282504
21
0.393166
0
LINE
8
BLACK
6
CONTINUOUS
10
0.282504
20
0.393166
11
0.282399
21
0.39342
0
LINE
8
BLACK
6
CONTINUOUS
10
0.282399
20
0.39342
11
0.282399
21
0.399419
0
LINE
8
BLACK
6
CONTINUOUS
10
0.282399
20
0.399419
11
0.282745
21
0.400254
0
LINE
8
BLACK
6
CONTINUOUS
10
0.282745
20
0.400254
11
0.28358
21
0.4006
0
LINE
8
BLACK
6
CONTINUOUS
10
0.28358
20
0.4006
11
0.288615
21
0.4006
0
LINE
8
BLACK
6
CONTINUOUS
10
0.288615
20
0.4006
11
0.288615
21
0.409925
0
LINE
8
BLACK
6
CONTINUOUS
10
0.288615
20
0.409925
11
0.288683
21
0.410309
0
LINE
8
BLACK
6
CONTINUOUS
10
0.288683
20
0.410309
11
0.28866
21
0.410438
0
LINE
8
BLACK
6
CONTINUOUS
10
0.28866
20
0.410438
11
0.288725
21
0.410551
0
LINE
8
BLACK
6
CONTINUOUS
10
0.288725
20
0.410551
11
0.288793
21
0.410935
0
LINE
8
BLACK
6
CONTINUOUS
10
0.288793
20
0.410935
11
0.289286
21
0.411523
0
LINE
8
BLACK
6
CONTINUOUS
10
0.289286
20
0.411523
11
0.28967
21
0.412187
0
LINE
8
BLACK
6
CONTINUOUS
10
0.28967
20
0.412187
11
0.28992
21
0.412278
0
LINE
8
BLACK
6
CONTINUOUS
10
0.28992
20
0.412278
11
0.290091
21
0.412482
0
LINE
8
BLACK
6
CONTINUOUS
10
0.290091
20
0.412482
11
0.290847
21
0.412615
0
LINE
8
BLACK
6
CONTINUOUS
10
0.290847
20
0.412615
11
0.291568
21
0.412878
0
LINE
8
BLACK
6
CONTINUOUS
10
0.291568
20
0.412878
11
0.305945
21
0.412878
0
LINE
8
BLACK
6
CONTINUOUS
10
0.305945
20
0.412878
11
0.305945
21
0.417323
0
LINE
8
BLACK
6
CONTINUOUS
10
0.305945
20
0.417323
11
0.278386
21
0.417323
0
LINE
8
BLACK
6
CONTINUOUS
10
0.309882
20
0.390381
11
0.313701
21
0.390381
0
LINE
8
BLACK
6
CONTINUOUS
10
0.313701
20
0.390381
11
0.320533
21
0.392089
0
LINE
8
BLACK
6
CONTINUOUS
10
0.320533
20
0.392089
11
0.323564
21
0.393604
0
LINE
8
BLACK
6
CONTINUOUS
10
0.323564
20
0.393604
11
0.326482
21
0.396522
0
LINE
8
BLACK
6
CONTINUOUS
10
0.326482
20
0.396522
11
0.327985
21
0.40103
0
LINE
8
BLACK
6
CONTINUOUS
10
0.327985
20
0.40103
11
0.327985
21
0.406972
0
LINE
8
BLACK
6
CONTINUOUS
10
0.327985
20
0.406972
11
0.309882
21
0.406972
0
LINE
8
BLACK
6
CONTINUOUS
10
0.309882
20
0.406972
11
0.309882
21
0.390381
0
LINE
8
BLACK
6
CONTINUOUS
10
0.29452
20
0.40103
11
0.294664
21
0.4006
0
LINE
8
BLACK
6
CONTINUOUS
10
0.294664
20
0.4006
11
0.299328
21
0.4006
0
LINE
8
BLACK
6
CONTINUOUS
10
0.299328
20
0.4006
11
0.300163
21
0.400254
0
LINE
8
BLACK
6
CONTINUOUS
10
0.300163
20
0.400254
11
0.300509
21
0.399419
0
LINE
8
BLACK
6
CONTINUOUS
10
0.300509
20
0.399419
11
0.300163
21
0.398584
0
LINE
8
BLACK
6
CONTINUOUS
10
0.300163
20
0.398584
11
0.299328
21
0.398238
0
LINE
8
BLACK
6
CONTINUOUS
10
0.299328
20
0.398238
11
0.295451
21
0.398238
0
LINE
8
BLACK
6
CONTINUOUS
10
0.295451
20
0.398238
11
0.296023
21
0.396522
0
LINE
8
BLACK
6
CONTINUOUS
10
0.296023
20
0.396522
11
0.298941
21
0.393604
0
LINE
8
BLACK
6
CONTINUOUS
10
0.298941
20
0.393604
11
0.301972
21
0.392089
0
LINE
8
BLACK
6
CONTINUOUS
10
0.301972
20
0.392089
11
0.305945
21
0.391095
0
LINE
8
BLACK
6
CONTINUOUS
10
0.305945
20
0.391095
11
0.305945
21
0.406972
0
LINE
8
BLACK
6
CONTINUOUS
10
0.305945
20
0.406972
11
0.29452
21
0.406972
0
LINE
8
BLACK
6
CONTINUOUS
10
0.29452
20
0.406972
11
0.29452
21
0.40103
0
LINE
8
BLACK
6
CONTINUOUS
10
0.284761
20
0.393698
11
0.2853
21
0.392619
0
LINE
8
BLACK
6
CONTINUOUS
10
0.2853
20
0.392619
11
0.285779
21
0.392141
0
LINE
8
BLACK
6
CONTINUOUS
10
0.285779
20
0.392141
11
0.286858
21
0.391601
0
LINE
8
BLACK
6
CONTINUOUS
10
0.286858
20
0.391601
11
0.28855
21
0.391601
0
LINE
8
BLACK
6
CONTINUOUS
10
0.28855
20
0.391601
11
0.289629
21
0.392141
0
LINE
8
BLACK
6
CONTINUOUS
10
0.289629
20
0.392141
11
0.290108
21
0.392619
0
LINE
8
BLACK
6
CONTINUOUS
10
0.290108
20
0.392619
11
0.290648
21
0.393698
0
LINE
8
BLACK
6
CONTINUOUS
10
0.290648
20
0.393698
11
0.290648
21
0.393985
0
LINE
8
BLACK
6
CONTINUOUS
10
0.290648
20
0.393985
11
0.290641
21
0.393993
0
LINE
8
BLACK
6
CONTINUOUS
10
0.290641
20
0.393993
11
0.289226
21
0.398238
0
LINE
8
BLACK
6
CONTINUOUS
10
0.289226
20
0.398238
11
0.284761
21
0.398238
0
LINE
8
BLACK
6
CONTINUOUS
10
0.284761
20
0.398238
11
0.284761
21
0.393698
0
LINE
8
BLACK
6
CONTINUOUS
10
0.515714
20
0.381319
11
0.51606
21
0.380484
0
LINE
8
BLACK
6
CONTINUOUS
10
0.51606
20
0.380484
11
0.51606
21
0.371485
0
LINE
8
BLACK
6
CONTINUOUS
10
0.51606
20
0.371485
11
0.515714
21
0.37065
0
LINE
8
BLACK
6
CONTINUOUS
10
0.515714
20
0.37065
11
0.514879
21
0.370304
0
LINE
8
BLACK
6
CONTINUOUS
10
0.514879
20
0.370304
11
0.514044
21
0.37065
0
LINE
8
BLACK
6
CONTINUOUS
10
0.514044
20
0.37065
11
0.513698
21
0.371485
0
LINE
8
BLACK
6
CONTINUOUS
10
0.513698
20
0.371485
11
0.513698
21
0.374803
0
LINE
8
BLACK
6
CONTINUOUS
10
0.513698
20
0.374803
11
0.499131
21
0.374803
0
LINE
8
BLACK
6
CONTINUOUS
10
0.499131
20
0.374803
11
0.499019
21
0.37485
0
LINE
8
BLACK
6
CONTINUOUS
10
0.499019
20
0.37485
11
0.498899
21
0.374826
0
LINE
8
BLACK
6
CONTINUOUS
10
0.498899
20
0.374826
11
0.498614
21
0.375017
0
LINE
8
BLACK
6
CONTINUOUS
10
0.498614
20
0.375017
11
0.498296
21
0.375149
0
LINE
8
BLACK
6
CONTINUOUS
10
0.498296
20
0.375149
11
0.498249
21
0.375261
0
LINE
8
BLACK
6
CONTINUOUS
10
0.498249
20
0.375261
11
0.498148
21
0.375329
0
LINE
8
BLACK
6
CONTINUOUS
10
0.498148
20
0.375329
11
0.498081
21
0.375666
0
LINE
8
BLACK
6
CONTINUOUS
10
0.498081
20
0.375666
11
0.49795
21
0.375984
0
LINE
8
BLACK
6
CONTINUOUS
10
0.49795
20
0.375984
11
0.497996
21
0.376097
0
LINE
8
BLACK
6
CONTINUOUS
10
0.497996
20
0.376097
11
0.497973
21
0.376216
0
LINE
8
BLACK
6
CONTINUOUS
10
0.497973
20
0.376216
11
0.498164
21
0.376502
0
LINE
8
BLACK
6
CONTINUOUS
10
0.498164
20
0.376502
11
0.498296
21
0.376819
0
LINE
8
BLACK
6
CONTINUOUS
10
0.498296
20
0.376819
11
0.498408
21
0.376866
0
LINE
8
BLACK
6
CONTINUOUS
10
0.498408
20
0.376866
11
0.498476
21
0.376967
0
LINE
8
BLACK
6
CONTINUOUS
10
0.498476
20
0.376967
11
0.500628
21
0.378402
0
LINE
8
BLACK
6
CONTINUOUS
10
0.500628
20
0.378402
11
0.50191
21
0.379684
0
LINE
8
BLACK
6
CONTINUOUS
10
0.50191
20
0.379684
11
0.502574
21
0.381012
0
LINE
8
BLACK
6
CONTINUOUS
10
0.502574
20
0.381012
11
0.503257
21
0.381604
0
LINE
8
BLACK
6
CONTINUOUS
10
0.503257
20
0.381604
11
0.504159
21
0.38154
0
LINE
8
BLACK
6
CONTINUOUS
10
0.504159
20
0.38154
11
0.504751
21
0.380857
0
LINE
8
BLACK
6
CONTINUOUS
10
0.504751
20
0.380857
11
0.504687
21
0.379956
0
LINE
8
BLACK
6
CONTINUOUS
10
0.504687
20
0.379956
11
0.503937
21
0.378456
0
LINE
8
BLACK
6
CONTINUOUS
10
0.503937
20
0.378456
11
0.50379
21
0.378328
0
LINE
8
BLACK
6
CONTINUOUS
10
0.50379
20
0.378328
11
0.503716
21
0.378149
0
LINE
8
BLACK
6
CONTINUOUS
10
0.503716
20
0.378149
11
0.502732
21
0.377165
0
LINE
8
BLACK
6
CONTINUOUS
10
0.502732
20
0.377165
11
0.513698
21
0.377165
0
LINE
8
BLACK
6
CONTINUOUS
10
0.513698
20
0.377165
11
0.513698
21
0.380484
0
LINE
8
BLACK
6
CONTINUOUS
10
0.513698
20
0.380484
11
0.514044
21
0.381319
0
LINE
8
BLACK
6
CONTINUOUS
10
0.514044
20
0.381319
11
0.514879
21
0.381665
0
LINE
8
BLACK
6
CONTINUOUS
10
0.514879
20
0.381665
11
0.515714
21
0.381319
0
LINE
8
BLACK
6
CONTINUOUS
10
0.508268
20
0.397356
11
0.508416
21
0.397378
0
LINE
8
BLACK
6
CONTINUOUS
10
0.508416
20
0.397378
11
0.511416
21
0.396628
0
LINE
8
BLACK
6
CONTINUOUS
10
0.511416
20
0.396628
11
0.511524
21
0.396548
0
LINE
8
BLACK
6
CONTINUOUS
10
0.511524
20
0.396548
11
0.511658
21
0.396538
0
LINE
8
BLACK
6
CONTINUOUS
10
0.511658
20
0.396538
11
0.513157
21
0.395788
0
LINE
8
BLACK
6
CONTINUOUS
10
0.513157
20
0.395788
11
0.513285
21
0.395641
0
LINE
8
BLACK
6
CONTINUOUS
10
0.513285
20
0.395641
11
0.513464
21
0.395567
0
LINE
8
BLACK
6
CONTINUOUS
10
0.513464
20
0.395567
11
0.514964
21
0.394067
0
LINE
8
BLACK
6
CONTINUOUS
10
0.514964
20
0.394067
11
0.515069
21
0.393813
0
LINE
8
BLACK
6
CONTINUOUS
10
0.515069
20
0.393813
11
0.51525
21
0.393606
0
LINE
8
BLACK
6
CONTINUOUS
10
0.51525
20
0.393606
11
0.516
21
0.391356
0
LINE
8
BLACK
6
CONTINUOUS
10
0.516
20
0.391356
11
0.515986
21
0.391162
0
LINE
8
BLACK
6
CONTINUOUS
10
0.515986
20
0.391162
11
0.51606
21
0.390982
0
LINE
8
BLACK
6
CONTINUOUS
10
0.51606
20
0.390982
11
0.51606
21
0.389483
0
LINE
8
BLACK
6
CONTINUOUS
10
0.51606
20
0.389483
11
0.515986
21
0.389303
0
LINE
8
BLACK
6
CONTINUOUS
10
0.515986
20
0.389303
11
0.516
21
0.389109
0
LINE
8
BLACK
6
CONTINUOUS
10
0.516
20
0.389109
11
0.51525
21
0.386859
0
LINE
8
BLACK
6
CONTINUOUS
10
0.51525
20
0.386859
11
0.515069
21
0.386652
0
LINE
8
BLACK
6
CONTINUOUS
10
0.515069
20
0.386652
11
0.514964
21
0.386398
0
LINE
8
BLACK
6
CONTINUOUS
10
0.514964
20
0.386398
11
0.514214
21
0.385648
0
LINE
8
BLACK
6
CONTINUOUS
10
0.514214
20
0.385648
11
0.513379
21
0.385302
0
LINE
8
BLACK
6
CONTINUOUS
10
0.513379
20
0.385302
11
0.512544
21
0.385648
0
LINE
8
BLACK
6
CONTINUOUS
10
0.512544
20
0.385648
11
0.512198
21
0.386483
0
LINE
8
BLACK
6
CONTINUOUS
10
0.512198
20
0.386483
11
0.512544
21
0.387318
0
LINE
8
BLACK
6
CONTINUOUS
10
0.512544
20
0.387318
11
0.513097
21
0.387871
0
LINE
8
BLACK
6
CONTINUOUS
10
0.513097
20
0.387871
11
0.513698
21
0.389674
0
LINE
8
BLACK
6
CONTINUOUS
10
0.513698
20
0.389674
11
0.513698
21
0.390791
0
LINE
8
BLACK
6
CONTINUOUS
10
0.513698
20
0.390791
11
0.513097
21
0.392594
0
LINE
8
BLACK
6
CONTINUOUS
10
0.513097
20
0.392594
11
0.51193
21
0.393761
0
LINE
8
BLACK
6
CONTINUOUS
10
0.51193
20
0.393761
11
0.510717
21
0.394367
0
LINE
8
BLACK
6
CONTINUOUS
10
0.510717
20
0.394367
11
0.507985
21
0.395051
0
LINE
8
BLACK
6
CONTINUOUS
10
0.507985
20
0.395051
11
0.506026
21
0.395051
0
LINE
8
BLACK
6
CONTINUOUS
10
0.506026
20
0.395051
11
0.503293
21
0.394367
0
LINE
8
BLACK
6
CONTINUOUS
10
0.503293
20
0.394367
11
0.50208
21
0.393761
0
LINE
8
BLACK
6
CONTINUOUS
10
0.50208
20
0.393761
11
0.500913
21
0.392594
0
LINE
8
BLACK
6
CONTINUOUS
10
0.500913
20
0.392594
11
0.500312
21
0.390791
0
LINE
8
BLACK
6
CONTINUOUS
10
0.500312
20
0.390791
11
0.500312
21
0.389674
0
LINE
8
BLACK
6
CONTINUOUS
10
0.500312
20
0.389674
11
0.500913
21
0.387871
0
LINE
8
BLACK
6
CONTINUOUS
10
0.500913
20
0.387871
11
0.501466
21
0.387318
0
LINE
8
BLACK
6
CONTINUOUS
10
0.501466
20
0.387318
11
0.501812
21
0.386483
0
LINE
8
BLACK
6
CONTINUOUS
10
0.501812
20
0.386483
11
0.501466
21
0.385648
0
LINE
8
BLACK
6
CONTINUOUS
10
0.501466
20
0.385648
11
0.500631
21
0.385302
0
LINE
8
BLACK
6
CONTINUOUS
10
0.500631
20
0.385302
11
0.499796
21
0.385648
0
LINE
8
BLACK
6
CONTINUOUS
10
0.499796
20
0.385648
11
0.499046
21
0.386398
0
LINE
8
BLACK
6
CONTINUOUS
10
0.499046
20
0.386398
11
0.49894
21
0.386652
0
LINE
8
BLACK
6
CONTINUOUS
10
0.49894
20
0.386652
11
0.49876
21
0.386859
0
LINE
8
BLACK
6
CONTINUOUS
10
0.49876
20
0.386859
11
0.498011
21
0.389109
0
LINE
8
BLACK
6
CONTINUOUS
10
0.498011
20
0.389109
11
0.498024
21
0.389303
0
LINE
8
BLACK
6
CONTINUOUS
10
0.498024
20
0.389303
11
0.49795
21
0.389483
0
LINE
8
BLACK
6
CONTINUOUS
10
0.49795
20
0.389483
11
0.49795
21
0.390982
0
LINE
8
BLACK
6
CONTINUOUS
10
0.49795
20
0.390982
11
0.498024
21
0.391162
0
LINE
8
BLACK
6
CONTINUOUS
10
0.498024
20
0.391162
11
0.498011
21
0.391356
0
LINE
8
BLACK
6
CONTINUOUS
10
0.498011
20
0.391356
11
0.49876
21
0.393606
0
LINE
8
BLACK
6
CONTINUOUS
10
0.49876
20
0.393606
11
0.498941
21
0.393813
0
LINE
8
BLACK
6
CONTINUOUS
10
0.498941
20
0.393813
11
0.499046
21
0.394067
0
LINE
8
BLACK
6
CONTINUOUS
10
0.499046
20
0.394067
11
0.500546
21
0.395567
0
LINE
8
BLACK
6
CONTINUOUS
10
0.500546
20
0.395567
11
0.500725
21
0.395641
0
LINE
8
BLACK
6
CONTINUOUS
10
0.500725
20
0.395641
11
0.500853
21
0.395788
0
LINE
8
BLACK
6
CONTINUOUS
10
0.500853
20
0.395788
11
0.502352
21
0.396538
0
LINE
8
BLACK
6
CONTINUOUS
10
0.502352
20
0.396538
11
0.502486
21
0.396548
0
LINE
8
BLACK
6
CONTINUOUS
10
0.502486
20
0.396548
11
0.502594
21
0.396628
0
LINE
8
BLACK
6
CONTINUOUS
10
0.502594
20
0.396628
11
0.505594
21
0.397378
0
LINE
8
BLACK
6
CONTINUOUS
10
0.505594
20
0.397378
11
0.505742
21
0.397356
0
LINE
8
BLACK
6
CONTINUOUS
10
0.505742
20
0.397356
11
0.50588
21
0.397413
0
LINE
8
BLACK
6
CONTINUOUS
10
0.50588
20
0.397413
11
0.50813
21
0.397413
0
LINE
8
BLACK
6
CONTINUOUS
10
0.50813
20
0.397413
11
0.508268
21
0.397356
0
LINE
8
BLACK
6
CONTINUOUS
10
0.523465
20
0.417323
11
0.524856
21
0.416746
0
LINE
8
BLACK
6
CONTINUOUS
10
0.524856
20
0.416746
11
0.525433
21
0.415354
0
LINE
8
BLACK
6
CONTINUOUS
10
0.525433
20
0.415354
11
0.525433
21
0.352362
0
LINE
8
BLACK
6
CONTINUOUS
10
0.525433
20
0.352362
11
0.524856
21
0.35097
0
LINE
8
BLACK
6
CONTINUOUS
10
0.524856
20
0.35097
11
0.523465
21
0.350394
0
LINE
8
BLACK
6
CONTINUOUS
10
0.523465
20
0.350394
11
0.491969
21
0.350394
0
LINE
8
BLACK
6
CONTINUOUS
10
0.491969
20
0.350394
11
0.490577
21
0.35097
0
LINE
8
BLACK
6
CONTINUOUS
10
0.490577
20
0.35097
11
0.49
21
0.352362
0
LINE
8
BLACK
6
CONTINUOUS
10
0.49
20
0.352362
11
0.49
21
0.415354
0
LINE
8
BLACK
6
CONTINUOUS
10
0.49
20
0.415354
11
0.490577
21
0.416746
0
LINE
8
BLACK
6
CONTINUOUS
10
0.490577
20
0.416746
11
0.491969
21
0.417323
0
LINE
8
BLACK
6
CONTINUOUS
10
0.491969
20
0.417323
11
0.523465
21
0.417323
0
LINE
8
BLACK
6
CONTINUOUS
10
0.493937
20
0.413386
11
0.493937
21
0.354331
0
LINE
8
BLACK
6
CONTINUOUS
10
0.493937
20
0.354331
11
0.521496
21
0.354331
0
LINE
8
BLACK
6
CONTINUOUS
10
0.521496
20
0.354331
11
0.521496
21
0.413386
0
LINE
8
BLACK
6
CONTINUOUS
10
0.521496
20
0.413386
11
0.493937
21
0.413386
0
LINE
8
BLACK
6
CONTINUOUS
10
0.581302
20
0.37525
11
0.58145
21
0.375272
0
LINE
8
BLACK
6
CONTINUOUS
10
0.58145
20
0.375272
11
0.584449
21
0.374522
0
LINE
8
BLACK
6
CONTINUOUS
10
0.584449
20
0.374522
11
0.584557
21
0.374442
0
LINE
8
BLACK
6
CONTINUOUS
10
0.584557
20
0.374442
11
0.584691
21
0.374433
0
LINE
8
BLACK
6
CONTINUOUS
10
0.584691
20
0.374433
11
0.586191
21
0.373683
0
LINE
8
BLACK
6
CONTINUOUS
10
0.586191
20
0.373683
11
0.586318
21
0.373536
0
LINE
8
BLACK
6
CONTINUOUS
10
0.586318
20
0.373536
11
0.586498
21
0.373462
0
LINE
8
BLACK
6
CONTINUOUS
10
0.586498
20
0.373462
11
0.587248
21
0.372712
0
LINE
8
BLACK
6
CONTINUOUS
10
0.587248
20
0.372712
11
0.587322
21
0.372532
0
LINE
8
BLACK
6
CONTINUOUS
10
0.587322
20
0.372532
11
0.587469
21
0.372405
0
LINE
8
BLACK
6
CONTINUOUS
10
0.587469
20
0.372405
11
0.588219
21
0.370905
0
LINE
8
BLACK
6
CONTINUOUS
10
0.588219
20
0.370905
11
0.588238
21
0.370631
0
LINE
8
BLACK
6
CONTINUOUS
10
0.588238
20
0.370631
11
0.588344
21
0.370377
0
LINE
8
BLACK
6
CONTINUOUS
10
0.588344
20
0.370377
11
0.588344
21
0.368877
0
LINE
8
BLACK
6
CONTINUOUS
10
0.588344
20
0.368877
11
0.588238
21
0.368623
0
LINE
8
BLACK
6
CONTINUOUS
10
0.588238
20
0.368623
11
0.588219
21
0.368349
0
LINE
8
BLACK
6
CONTINUOUS
10
0.588219
20
0.368349
11
0.587469
21
0.366849
0
LINE
8
BLACK
6
CONTINUOUS
10
0.587469
20
0.366849
11
0.587322
21
0.366722
0
LINE
8
BLACK
6
CONTINUOUS
10
0.587322
20
0.366722
11
0.587248
21
0.366542
0
LINE
8
BLACK
6
CONTINUOUS
10
0.587248
20
0.366542
11
0.586498
21
0.365792
0
LINE
8
BLACK
6
CONTINUOUS
10
0.586498
20
0.365792
11
0.586318
21
0.365718
0
LINE
8
BLACK
6
CONTINUOUS
10
0.586318
20
0.365718
11
0.586191
21
0.365571
0
LINE
8
BLACK
6
CONTINUOUS
10
0.586191
20
0.365571
11
0.584691
21
0.364821
0
LINE
8
BLACK
6
CONTINUOUS
10
0.584691
20
0.364821
11
0.584557
21
0.364811
0
LINE
8
BLACK
6
CONTINUOUS
10
0.584557
20
0.364811
11
0.584449
21
0.364732
0
LINE
8
BLACK
6
CONTINUOUS
10
0.584449
20
0.364732
11
0.58145
21
0.363982
0
LINE
8
BLACK
6
CONTINUOUS
10
0.58145
20
0.363982
11
0.581302
21
0.364004
0
LINE
8
BLACK
6
CONTINUOUS
10
0.581302
20
0.364004
11
0.581163
21
0.363946
0
LINE
8
BLACK
6
CONTINUOUS
10
0.581163
20
0.363946
11
0.577414
21
0.363946
0
LINE
8
BLACK
6
CONTINUOUS
10
0.577414
20
0.363946
11
0.577275
21
0.364004
0
LINE
8
BLACK
6
CONTINUOUS
10
0.577275
20
0.364004
11
0.577127
21
0.363982
0
LINE
8
BLACK
6
CONTINUOUS
10
0.577127
20
0.363982
11
0.574128
21
0.364732
0
LINE
8
BLACK
6
CONTINUOUS
10
0.574128
20
0.364732
11
0.57402
21
0.364811
0
LINE
8
BLACK
6
CONTINUOUS
10
0.57402
20
0.364811
11
0.573886
21
0.364821
0
LINE
8
BLACK
6
CONTINUOUS
10
0.573886
20
0.364821
11
0.572386
21
0.365571
0
LINE
8
BLACK
6
CONTINUOUS
10
0.572386
20
0.365571
11
0.572259
21
0.365718
0
LINE
8
BLACK
6
CONTINUOUS
10
0.572259
20
0.365718
11
0.572079
21
0.365792
0
LINE
8
BLACK
6
CONTINUOUS
10
0.572079
20
0.365792
11
0.571329
21
0.366542
0
LINE
8
BLACK
6
CONTINUOUS
10
0.571329
20
0.366542
11
0.571255
21
0.366722
0
LINE
8
BLACK
6
CONTINUOUS
10
0.571255
20
0.366722
11
0.571108
21
0.366849
0
LINE
8
BLACK
6
CONTINUOUS
10
0.571108
20
0.366849
11
0.570358
21
0.368349
0
LINE
8
BLACK
6
CONTINUOUS
10
0.570358
20
0.368349
11
0.570339
21
0.368623
0
LINE
8
BLACK
6
CONTINUOUS
10
0.570339
20
0.368623
11
0.570233
21
0.368877
0
LINE
8
BLACK
6
CONTINUOUS
10
0.570233
20
0.368877
11
0.570233
21
0.370377
0
LINE
8
BLACK
6
CONTINUOUS
10
0.570233
20
0.370377
11
0.570339
21
0.370631
0
LINE
8
BLACK
6
CONTINUOUS
10
0.570339
20
0.370631
11
0.570358
21
0.370905
0
LINE
8
BLACK
6
CONTINUOUS
10
0.570358
20
0.370905
11
0.571108
21
0.372405
0
LINE
8
BLACK
6
CONTINUOUS
10
0.571108
20
0.372405
11
0.571255
21
0.372532
0
LINE
8
BLACK
6
CONTINUOUS
10
0.571255
20
0.372532
11
0.571329
21
0.372712
0
LINE
8
BLACK
6
CONTINUOUS
10
0.571329
20
0.372712
11
0.572079
21
0.373462
0
LINE
8
BLACK
6
CONTINUOUS
10
0.572079
20
0.373462
11
0.572259
21
0.373536
0
LINE
8
BLACK
6
CONTINUOUS
10
0.572259
20
0.373536
11
0.572386
21
0.373683
0
LINE
8
BLACK
6
CONTINUOUS
10
0.572386
20
0.373683
11
0.573886
21
0.374433
0
LINE
8
BLACK
6
CONTINUOUS
10
0.573886
20
0.374433
11
0.57402
21
0.374442
0
LINE
8
BLACK
6
CONTINUOUS
10
0.57402
20
0.374442
11
0.574128
21
0.374522
0
LINE
8
BLACK
6
CONTINUOUS
10
0.574128
20
0.374522
11
0.577127
21
0.375272
0
LINE
8
BLACK
6
CONTINUOUS
10
0.577127
20
0.375272
11
0.577275
21
0.37525
0
LINE
8
BLACK
6
CONTINUOUS
10
0.577275
20
0.37525
11
0.577414
21
0.375307
0
LINE
8
BLACK
6
CONTINUOUS
10
0.577414
20
0.375307
11
0.581163
21
0.375307
0
LINE
8
BLACK
6
CONTINUOUS
10
0.581163
20
0.375307
11
0.581302
21
0.37525
0
LINE
8
BLACK
6
CONTINUOUS
10
0.574826
20
0.372262
11
0.573614
21
0.371656
0
LINE
8
BLACK
6
CONTINUOUS
10
0.573614
20
0.371656
11
0.573135
21
0.371177
0
LINE
8
BLACK
6
CONTINUOUS
10
0.573135
20
0.371177
11
0.572596
21
0.370098
0
LINE
8
BLACK
6
CONTINUOUS
10
0.572596
20
0.370098
11
0.572596
21
0.369156
0
LINE
8
BLACK
6
CONTINUOUS
10
0.572596
20
0.369156
11
0.573135
21
0.368077
0
LINE
8
BLACK
6
CONTINUOUS
10
0.573135
20
0.368077
11
0.573614
21
0.367598
0
LINE
8
BLACK
6
CONTINUOUS
10
0.573614
20
0.367598
11
0.574826
21
0.366992
0
LINE
8
BLACK
6
CONTINUOUS
10
0.574826
20
0.366992
11
0.577559
21
0.366309
0
LINE
8
BLACK
6
CONTINUOUS
10
0.577559
20
0.366309
11
0.581018
21
0.366309
0
LINE
8
BLACK
6
CONTINUOUS
10
0.581018
20
0.366309
11
0.583751
21
0.366992
0
LINE
8
BLACK
6
CONTINUOUS
10
0.583751
20
0.366992
11
0.584963
21
0.367598
0
LINE
8
BLACK
6
CONTINUOUS
10
0.584963
20
0.367598
11
0.585442
21
0.368077
0
LINE
8
BLACK
6
CONTINUOUS
10
0.585442
20
0.368077
11
0.585981
21
0.369156
0
LINE
8
BLACK
6
CONTINUOUS
10
0.585981
20
0.369156
11
0.585981
21
0.370098
0
LINE
8
BLACK
6
CONTINUOUS
10
0.585981
20
0.370098
11
0.585442
21
0.371177
0
LINE
8
BLACK
6
CONTINUOUS
10
0.585442
20
0.371177
11
0.584963
21
0.371656
0
LINE
8
BLACK
6
CONTINUOUS
10
0.584963
20
0.371656
11
0.583751
21
0.372262
0
LINE
8
BLACK
6
CONTINUOUS
10
0.583751
20
0.372262
11
0.581018
21
0.372945
0
LINE
8
BLACK
6
CONTINUOUS
10
0.581018
20
0.372945
11
0.577559
21
0.372945
0
LINE
8
BLACK
6
CONTINUOUS
10
0.577559
20
0.372945
11
0.574826
21
0.372262
0
LINE
8
BLACK
6
CONTINUOUS
10
0.587998
20
0.38996
11
0.588344
21
0.389124
0
LINE
8
BLACK
6
CONTINUOUS
10
0.588344
20
0.389124
11
0.588344
21
0.380126
0
LINE
8
BLACK
6
CONTINUOUS
10
0.588344
20
0.380126
11
0.587998
21
0.37929
0
LINE
8
BLACK
6
CONTINUOUS
10
0.587998
20
0.37929
11
0.587162
21
0.378945
0
LINE
8
BLACK
6
CONTINUOUS
10
0.587162
20
0.378945
11
0.586327
21
0.37929
0
LINE
8
BLACK
6
CONTINUOUS
10
0.586327
20
0.37929
11
0.585981
21
0.380126
0
LINE
8
BLACK
6
CONTINUOUS
10
0.585981
20
0.380126
11
0.585981
21
0.383444
0
LINE
8
BLACK
6
CONTINUOUS
10
0.585981
20
0.383444
11
0.571414
21
0.383444
0
LINE
8
BLACK
6
CONTINUOUS
10
0.571414
20
0.383444
11
0.571302
21
0.383491
0
LINE
8
BLACK
6
CONTINUOUS
10
0.571302
20
0.383491
11
0.571183
21
0.383467
0
LINE
8
BLACK
6
CONTINUOUS
10
0.571183
20
0.383467
11
0.570897
21
0.383658
0
LINE
8
BLACK
6
CONTINUOUS
10
0.570897
20
0.383658
11
0.570579
21
0.38379
0
LINE
8
BLACK
6
CONTINUOUS
10
0.570579
20
0.38379
11
0.570533
21
0.383902
0
LINE
8
BLACK
6
CONTINUOUS
10
0.570533
20
0.383902
11
0.570432
21
0.38397
0
LINE
8
BLACK
6
CONTINUOUS
10
0.570432
20
0.38397
11
0.570365
21
0.384307
0
LINE
8
BLACK
6
CONTINUOUS
10
0.570365
20
0.384307
11
0.570233
21
0.384625
0
LINE
8
BLACK
6
CONTINUOUS
10
0.570233
20
0.384625
11
0.57028
21
0.384737
0
LINE
8
BLACK
6
CONTINUOUS
10
0.57028
20
0.384737
11
0.570256
21
0.384857
0
LINE
8
BLACK
6
CONTINUOUS
10
0.570256
20
0.384857
11
0.570448
21
0.385142
0
LINE
8
BLACK
6
CONTINUOUS
10
0.570448
20
0.385142
11
0.570579
21
0.38546
0
LINE
8
BLACK
6
CONTINUOUS
10
0.570579
20
0.38546
11
0.570692
21
0.385507
0
LINE
8
BLACK
6
CONTINUOUS
10
0.570692
20
0.385507
11
0.570759
21
0.385608
0
LINE
8
BLACK
6
CONTINUOUS
10
0.570759
20
0.385608
11
0.572912
21
0.387043
0
LINE
8
BLACK
6
CONTINUOUS
10
0.572912
20
0.387043
11
0.574193
21
0.388324
0
LINE
8
BLACK
6
CONTINUOUS
10
0.574193
20
0.388324
11
0.574857
21
0.389653
0
LINE
8
BLACK
6
CONTINUOUS
10
0.574857
20
0.389653
11
0.57554
21
0.390245
0
LINE
8
BLACK
6
CONTINUOUS
10
0.57554
20
0.390245
11
0.576442
21
0.390181
0
LINE
8
BLACK
6
CONTINUOUS
10
0.576442
20
0.390181
11
0.577034
21
0.389498
0
LINE
8
BLACK
6
CONTINUOUS
10
0.577034
20
0.389498
11
0.57697
21
0.388596
0
LINE
8
BLACK
6
CONTINUOUS
10
0.57697
20
0.388596
11
0.57622
21
0.387096
0
LINE
8
BLACK
6
CONTINUOUS
10
0.57622
20
0.387096
11
0.576074
21
0.386969
0
LINE
8
BLACK
6
CONTINUOUS
10
0.576074
20
0.386969
11
0.575999
21
0.386789
0
LINE
8
BLACK
6
CONTINUOUS
10
0.575999
20
0.386789
11
0.575016
21
0.385806
0
LINE
8
BLACK
6
CONTINUOUS
10
0.575016
20
0.385806
11
0.585981
21
0.385806
0
LINE
8
BLACK
6
CONTINUOUS
10
0.585981
20
0.385806
11
0.585981
21
0.389124
0
LINE
8
BLACK
6
CONTINUOUS
10
0.585981
20
0.389124
11
0.586327
21
0.38996
0
LINE
8
BLACK
6
CONTINUOUS
10
0.586327
20
0.38996
11
0.587162
21
0.390306
0
LINE
8
BLACK
6
CONTINUOUS
10
0.587162
20
0.390306
11
0.587998
21
0.38996
0
LINE
8
BLACK
6
CONTINUOUS
10
0.587998
20
0.404958
11
0.588344
21
0.404123
0
LINE
8
BLACK
6
CONTINUOUS
10
0.588344
20
0.404123
11
0.587998
21
0.403287
0
LINE
8
BLACK
6
CONTINUOUS
10
0.587998
20
0.403287
11
0.587162
21
0.402941
0
LINE
8
BLACK
6
CONTINUOUS
10
0.587162
20
0.402941
11
0.580845
21
0.402941
0
LINE
8
BLACK
6
CONTINUOUS
10
0.580845
20
0.402941
11
0.580845
21
0.400988
0
LINE
8
BLACK
6
CONTINUOUS
10
0.580845
20
0.400988
11
0.58784
21
0.396091
0
LINE
8
BLACK
6
CONTINUOUS
10
0.58784
20
0.396091
11
0.588326
21
0.395329
0
LINE
8
BLACK
6
CONTINUOUS
10
0.588326
20
0.395329
11
0.58813
21
0.394446
0
LINE
8
BLACK
6
CONTINUOUS
10
0.58813
20
0.394446
11
0.587368
21
0.393961
0
LINE
8
BLACK
6
CONTINUOUS
10
0.587368
20
0.393961
11
0.586485
21
0.394156
0
LINE
8
BLACK
6
CONTINUOUS
10
0.586485
20
0.394156
11
0.580838
21
0.398109
0
LINE
8
BLACK
6
CONTINUOUS
10
0.580838
20
0.398109
11
0.580739
21
0.397869
0
LINE
8
BLACK
6
CONTINUOUS
10
0.580739
20
0.397869
11
0.58072
21
0.397595
0
LINE
8
BLACK
6
CONTINUOUS
10
0.58072
20
0.397595
11
0.57997
21
0.396095
0
LINE
8
BLACK
6
CONTINUOUS
10
0.57997
20
0.396095
11
0.579823
21
0.395968
0
LINE
8
BLACK
6
CONTINUOUS
10
0.579823
20
0.395968
11
0.579749
21
0.395788
0
LINE
8
BLACK
6
CONTINUOUS
10
0.579749
20
0.395788
11
0.578999
21
0.395039
0
LINE
8
BLACK
6
CONTINUOUS
10
0.578999
20
0.395039
11
0.578819
21
0.394964
0
LINE
8
BLACK
6
CONTINUOUS
10
0.578819
20
0.394964
11
0.578692
21
0.394817
0
LINE
8
BLACK
6
CONTINUOUS
10
0.578692
20
0.394817
11
0.577192
21
0.394067
0
LINE
8
BLACK
6
CONTINUOUS
10
0.577192
20
0.394067
11
0.576918
21
0.394048
0
LINE
8
BLACK
6
CONTINUOUS
10
0.576918
20
0.394048
11
0.576664
21
0.393943
0
LINE
8
BLACK
6
CONTINUOUS
10
0.576664
20
0.393943
11
0.574414
21
0.393943
0
LINE
8
BLACK
6
CONTINUOUS
10
0.574414
20
0.393943
11
0.57416
21
0.394048
0
LINE
8
BLACK
6
CONTINUOUS
10
0.57416
20
0.394048
11
0.573886
21
0.394067
0
LINE
8
BLACK
6
CONTINUOUS
10
0.573886
20
0.394067
11
0.572386
21
0.394817
0
LINE
8
BLACK
6
CONTINUOUS
10
0.572386
20
0.394817
11
0.572259
21
0.394964
0
LINE
8
BLACK
6
CONTINUOUS
10
0.572259
20
0.394964
11
0.572079
21
0.395038
0
LINE
8
BLACK
6
CONTINUOUS
10
0.572079
20
0.395038
11
0.571329
21
0.395788
0
LINE
8
BLACK
6
CONTINUOUS
10
0.571329
20
0.395788
11
0.571255
21
0.395968
0
LINE
8
BLACK
6
CONTINUOUS
10
0.571255
20
0.395968
11
0.571108
21
0.396095
0
LINE
8
BLACK
6
CONTINUOUS
10
0.571108
20
0.396095
11
0.570358
21
0.397595
0
LINE
8
BLACK
6
CONTINUOUS
10
0.570358
20
0.397595
11
0.570339
21
0.397869
0
LINE
8
BLACK
6
CONTINUOUS
10
0.570339
20
0.397869
11
0.570233
21
0.398123
0
LINE
8
BLACK
6
CONTINUOUS
10
0.570233
20
0.398123
11
0.570233
21
0.404123
0
LINE
8
BLACK
6
CONTINUOUS
10
0.570233
20
0.404123
11
0.570579
21
0.404958
0
LINE
8
BLACK
6
CONTINUOUS
10
0.570579
20
0.404958
11
0.571414
21
0.405304
0
LINE
8
BLACK
6
CONTINUOUS
10
0.571414
20
0.405304
11
0.587162
21
0.405304
0
LINE
8
BLACK
6
CONTINUOUS
10
0.587162
20
0.405304
11
0.587998
21
0.404958
0
LINE
8
BLACK
6
CONTINUOUS
10
0.572596
20
0.398402
11
0.573135
21
0.397323
0
LINE
8
BLACK
6
CONTINUOUS
10
0.573135
20
0.397323
11
0.573614
21
0.396844
0
LINE
8
BLACK
6
CONTINUOUS
10
0.573614
20
0.396844
11
0.574693
21
0.396305
0
LINE
8
BLACK
6
CONTINUOUS
10
0.574693
20
0.396305
11
0.576385
21
0.396305
0
LINE
8
BLACK
6
CONTINUOUS
10
0.576385
20
0.396305
11
0.577464
21
0.396844
0
LINE
8
BLACK
6
CONTINUOUS
10
0.577464
20
0.396844
11
0.577943
21
0.397323
0
LINE
8
BLACK
6
CONTINUOUS
10
0.577943
20
0.397323
11
0.578482
21
0.398402
0
LINE
8
BLACK
6
CONTINUOUS
10
0.578482
20
0.398402
11
0.578482
21
0.402941
0
LINE
8
BLACK
6
CONTINUOUS
10
0.578482
20
0.402941
11
0.572596
21
0.402941
0
LINE
8
BLACK
6
CONTINUOUS
10
0.572596
20
0.402941
11
0.572596
21
0.398402
0
LINE
8
BLACK
6
CONTINUOUS
10
0.595748
20
0.418465
11
0.59714
21
0.417888
0
LINE
8
BLACK
6
CONTINUOUS
10
0.59714
20
0.417888
11
0.597717
21
0.416496
0
LINE
8
BLACK
6
CONTINUOUS
10
0.597717
20
0.416496
11
0.597717
21
0.353504
0
LINE
8
BLACK
6
CONTINUOUS
10
0.597717
20
0.353504
11
0.59714
21
0.352112
0
LINE
8
BLACK
6
CONTINUOUS
10
0.59714
20
0.352112
11
0.595748
21
0.351535
0
LINE
8
BLACK
6
CONTINUOUS
10
0.595748
20
0.351535
11
0.564252
21
0.351535
0
LINE
8
BLACK
6
CONTINUOUS
10
0.564252
20
0.351535
11
0.56286
21
0.352112
0
LINE
8
BLACK
6
CONTINUOUS
10
0.56286
20
0.352112
11
0.562283
21
0.353504
0
LINE
8
BLACK
6
CONTINUOUS
10
0.562283
20
0.353504
11
0.562283
21
0.416496
0
LINE
8
BLACK
6
CONTINUOUS
10
0.562283
20
0.416496
11
0.56286
21
0.417888
0
LINE
8
BLACK
6
CONTINUOUS
10
0.56286
20
0.417888
11
0.564252
21
0.418465
0
LINE
8
BLACK
6
CONTINUOUS
10
0.564252
20
0.418465
11
0.595748
21
0.418465
0
LINE
8
BLACK
6
CONTINUOUS
10
0.56622
20
0.414528
11
0.56622
21
0.355472
0
LINE
8
BLACK
6
CONTINUOUS
10
0.56622
20
0.355472
11
0.59378
21
0.355472
0
LINE
8
BLACK
6
CONTINUOUS
10
0.59378
20
0.355472
11
0.59378
21
0.414528
0
LINE
8
BLACK
6
CONTINUOUS
10
0.59378
20
0.414528
11
0.56622
21
0.414528
0
LINE
8
BLACK
6
CONTINUOUS
10
0.661498
20
0.383211
11
0.662248
21
0.382461
0
LINE
8
BLACK
6
CONTINUOUS
10
0.662248
20
0.382461
11
0.662322
21
0.382281
0
LINE
8
BLACK
6
CONTINUOUS
10
0.662322
20
0.382281
11
0.662469
21
0.382154
0
LINE
8
BLACK
6
CONTINUOUS
10
0.662469
20
0.382154
11
0.663219
21
0.380654
0
LINE
8
BLACK
6
CONTINUOUS
10
0.663219
20
0.380654
11
0.663238
21
0.38038
0
LINE
8
BLACK
6
CONTINUOUS
10
0.663238
20
0.38038
11
0.663344
21
0.380126
0
LINE
8
BLACK
6
CONTINUOUS
10
0.663344
20
0.380126
11
0.663344
21
0.375626
0
LINE
8
BLACK
6
CONTINUOUS
10
0.663344
20
0.375626
11
0.663238
21
0.375372
0
LINE
8
BLACK
6
CONTINUOUS
10
0.663238
20
0.375372
11
0.663219
21
0.375098
0
LINE
8
BLACK
6
CONTINUOUS
10
0.663219
20
0.375098
11
0.662469
21
0.373598
0
LINE
8
BLACK
6
CONTINUOUS
10
0.662469
20
0.373598
11
0.662322
21
0.373471
0
LINE
8
BLACK
6
CONTINUOUS
10
0.662322
20
0.373471
11
0.662248
21
0.373291
0
LINE
8
BLACK
6
CONTINUOUS
10
0.662248
20
0.373291
11
0.661498
21
0.372541
0
LINE
8
BLACK
6
CONTINUOUS
10
0.661498
20
0.372541
11
0.661318
21
0.372467
0
LINE
8
BLACK
6
CONTINUOUS
10
0.661318
20
0.372467
11
0.661191
21
0.37232
0
LINE
8
BLACK
6
CONTINUOUS
10
0.661191
20
0.37232
11
0.659691
21
0.37157
0
LINE
8
BLACK
6
CONTINUOUS
10
0.659691
20
0.37157
11
0.659417
21
0.371551
0
LINE
8
BLACK
6
CONTINUOUS
10
0.659417
20
0.371551
11
0.659163
21
0.371445
0
LINE
8
BLACK
6
CONTINUOUS
10
0.659163
20
0.371445
11
0.655413
21
0.371445
0
LINE
8
BLACK
6
CONTINUOUS
10
0.655413
20
0.371445
11
0.655159
21
0.371551
0
LINE
8
BLACK
6
CONTINUOUS
10
0.655159
20
0.371551
11
0.654885
21
0.37157
0
LINE
8
BLACK
6
CONTINUOUS
10
0.654885
20
0.37157
11
0.653385
21
0.37232
0
LINE
8
BLACK
6
CONTINUOUS
10
0.653385
20
0.37232
11
0.653258
21
0.372467
0
LINE
8
BLACK
6
CONTINUOUS
10
0.653258
20
0.372467
11
0.653078
21
0.372541
0
LINE
8
BLACK
6
CONTINUOUS
10
0.653078
20
0.372541
11
0.652328
21
0.373291
0
LINE
8
BLACK
6
CONTINUOUS
10
0.652328
20
0.373291
11
0.652254
21
0.373471
0
LINE
8
BLACK
6
CONTINUOUS
10
0.652254
20
0.373471
11
0.652107
21
0.373598
0
LINE
8
BLACK
6
CONTINUOUS
10
0.652107
20
0.373598
11
0.651357
21
0.375098
0
LINE
8
BLACK
6
CONTINUOUS
10
0.651357
20
0.375098
11
0.651338
21
0.375366
0
LINE
8
BLACK
6
CONTINUOUS
10
0.651338
20
0.375366
11
0.647192
21
0.371738
0
LINE
8
BLACK
6
CONTINUOUS
10
0.647192
20
0.371738
11
0.646799
21
0.371605
0
LINE
8
BLACK
6
CONTINUOUS
10
0.646799
20
0.371605
11
0.646414
21
0.371445
0
LINE
8
BLACK
6
CONTINUOUS
10
0.646414
20
0.371445
11
0.646376
21
0.371462
0
LINE
8
BLACK
6
CONTINUOUS
10
0.646376
20
0.371462
11
0.646336
21
0.371448
0
LINE
8
BLACK
6
CONTINUOUS
10
0.646336
20
0.371448
11
0.645963
21
0.371632
0
LINE
8
BLACK
6
CONTINUOUS
10
0.645963
20
0.371632
11
0.645579
21
0.371791
0
LINE
8
BLACK
6
CONTINUOUS
10
0.645579
20
0.371791
11
0.645563
21
0.37183
0
LINE
8
BLACK
6
CONTINUOUS
10
0.645563
20
0.37183
11
0.645526
21
0.371849
0
LINE
8
BLACK
6
CONTINUOUS
10
0.645526
20
0.371849
11
0.645392
21
0.372242
0
LINE
8
BLACK
6
CONTINUOUS
10
0.645392
20
0.372242
11
0.645233
21
0.372627
0
LINE
8
BLACK
6
CONTINUOUS
10
0.645233
20
0.372627
11
0.645233
21
0.382375
0
LINE
8
BLACK
6
CONTINUOUS
10
0.645233
20
0.382375
11
0.645579
21
0.383211
0
LINE
8
BLACK
6
CONTINUOUS
10
0.645579
20
0.383211
11
0.646414
21
0.383556
0
LINE
8
BLACK
6
CONTINUOUS
10
0.646414
20
0.383556
11
0.64725
21
0.383211
0
LINE
8
BLACK
6
CONTINUOUS
10
0.64725
20
0.383211
11
0.647596
21
0.382375
0
LINE
8
BLACK
6
CONTINUOUS
10
0.647596
20
0.382375
11
0.647596
21
0.375229
0
LINE
8
BLACK
6
CONTINUOUS
10
0.647596
20
0.375229
11
0.651636
21
0.378765
0
LINE
8
BLACK
6
CONTINUOUS
10
0.651636
20
0.378765
11
0.652029
21
0.378898
0
LINE
8
BLACK
6
CONTINUOUS
10
0.652029
20
0.378898
11
0.652414
21
0.379057
0
LINE
8
BLACK
6
CONTINUOUS
10
0.652414
20
0.379057
11
0.652453
21
0.379041
0
LINE
8
BLACK
6
CONTINUOUS
10
0.652453
20
0.379041
11
0.652492
21
0.379054
0
LINE
8
BLACK
6
CONTINUOUS
10
0.652492
20
0.379054
11
0.652865
21
0.37887
0
LINE
8
BLACK
6
CONTINUOUS
10
0.652865
20
0.37887
11
0.653249
21
0.378711
0
LINE
8
BLACK
6
CONTINUOUS
10
0.653249
20
0.378711
11
0.653265
21
0.378672
0
LINE
8
BLACK
6
CONTINUOUS
10
0.653265
20
0.378672
11
0.653303
21
0.378654
0
LINE
8
BLACK
6
CONTINUOUS
10
0.653303
20
0.378654
11
0.653436
21
0.37826
0
LINE
8
BLACK
6
CONTINUOUS
10
0.653436
20
0.37826
11
0.653595
21
0.377876
0
LINE
8
BLACK
6
CONTINUOUS
10
0.653595
20
0.377876
11
0.653595
21
0.375905
0
LINE
8
BLACK
6
CONTINUOUS
10
0.653595
20
0.375905
11
0.654134
21
0.374826
0
LINE
8
BLACK
6
CONTINUOUS
10
0.654134
20
0.374826
11
0.654613
21
0.374347
0
LINE
8
BLACK
6
CONTINUOUS
10
0.654613
20
0.374347
11
0.655692
21
0.373808
0
LINE
8
BLACK
6
CONTINUOUS
10
0.655692
20
0.373808
11
0.658884
21
0.373808
0
LINE
8
BLACK
6
CONTINUOUS
10
0.658884
20
0.373808
11
0.659963
21
0.374347
0
LINE
8
BLACK
6
CONTINUOUS
10
0.659963
20
0.374347
11
0.660442
21
0.374826
0
LINE
8
BLACK
6
CONTINUOUS
10
0.660442
20
0.374826
11
0.660981
21
0.375905
0
LINE
8
BLACK
6
CONTINUOUS
10
0.660981
20
0.375905
11
0.660981
21
0.379847
0
LINE
8
BLACK
6
CONTINUOUS
10
0.660981
20
0.379847
11
0.660442
21
0.380926
0
LINE
8
BLACK
6
CONTINUOUS
10
0.660442
20
0.380926
11
0.659828
21
0.38154
0
LINE
8
BLACK
6
CONTINUOUS
10
0.659828
20
0.38154
11
0.659482
21
0.382375
0
LINE
8
BLACK
6
CONTINUOUS
10
0.659482
20
0.382375
11
0.659828
21
0.383211
0
LINE
8
BLACK
6
CONTINUOUS
10
0.659828
20
0.383211
11
0.660663
21
0.383556
0
LINE
8
BLACK
6
CONTINUOUS
10
0.660663
20
0.383556
11
0.661498
21
0.383211
0
LINE
8
BLACK
6
CONTINUOUS
10
0.662998
20
0.397459
11
0.663344
21
0.396624
0
LINE
8
BLACK
6
CONTINUOUS
10
0.663344
20
0.396624
11
0.662998
21
0.395788
0
LINE
8
BLACK
6
CONTINUOUS
10
0.662998
20
0.395788
11
0.662162
21
0.395442
0
LINE
8
BLACK
6
CONTINUOUS
10
0.662162
20
0.395442
11
0.655845
21
0.395442
0
LINE
8
BLACK
6
CONTINUOUS
10
0.655845
20
0.395442
11
0.655845
21
0.393489
0
LINE
8
BLACK
6
CONTINUOUS
10
0.655845
20
0.393489
11
0.66284
21
0.388592
0
LINE
8
BLACK
6
CONTINUOUS
10
0.66284
20
0.388592
11
0.663326
21
0.38783
0
LINE
8
BLACK
6
CONTINUOUS
10
0.663326
20
0.38783
11
0.66313
21
0.386947
0
LINE
8
BLACK
6
CONTINUOUS
10
0.66313
20
0.386947
11
0.662368
21
0.386462
0
LINE
8
BLACK
6
CONTINUOUS
10
0.662368
20
0.386462
11
0.661485
21
0.386657
0
LINE
8
BLACK
6
CONTINUOUS
10
0.661485
20
0.386657
11
0.655838
21
0.39061
0
LINE
8
BLACK
6
CONTINUOUS
10
0.655838
20
0.39061
11
0.655739
21
0.39037
0
LINE
8
BLACK
6
CONTINUOUS
10
0.655739
20
0.39037
11
0.65572
21
0.390096
0
LINE
8
BLACK
6
CONTINUOUS
10
0.65572
20
0.390096
11
0.65497
21
0.388596
0
LINE
8
BLACK
6
CONTINUOUS
10
0.65497
20
0.388596
11
0.654823
21
0.388469
0
LINE
8
BLACK
6
CONTINUOUS
10
0.654823
20
0.388469
11
0.654749
21
0.388289
0
LINE
8
BLACK
6
CONTINUOUS
10
0.654749
20
0.388289
11
0.653999
21
0.387539
0
LINE
8
BLACK
6
CONTINUOUS
10
0.653999
20
0.387539
11
0.653819
21
0.387465
0
LINE
8
BLACK
6
CONTINUOUS
10
0.653819
20
0.387465
11
0.653692
21
0.387318
0
LINE
8
BLACK
6
CONTINUOUS
10
0.653692
20
0.387318
11
0.652192
21
0.386568
0
LINE
8
BLACK
6
CONTINUOUS
10
0.652192
20
0.386568
11
0.651918
21
0.386549
0
LINE
8
BLACK
6
CONTINUOUS
10
0.651918
20
0.386549
11
0.651664
21
0.386444
0
LINE
8
BLACK
6
CONTINUOUS
10
0.651664
20
0.386444
11
0.649414
21
0.386444
0
LINE
8
BLACK
6
CONTINUOUS
10
0.649414
20
0.386444
11
0.64916
21
0.386549
0
LINE
8
BLACK
6
CONTINUOUS
10
0.64916
20
0.386549
11
0.648886
21
0.386568
0
LINE
8
BLACK
6
CONTINUOUS
10
0.648886
20
0.386568
11
0.647386
21
0.387318
0
LINE
8
BLACK
6
CONTINUOUS
10
0.647386
20
0.387318
11
0.647259
21
0.387465
0
LINE
8
BLACK
6
CONTINUOUS
10
0.647259
20
0.387465
11
0.647079
21
0.387539
0
LINE
8
BLACK
6
CONTINUOUS
10
0.647079
20
0.387539
11
0.646329
21
0.388289
0
LINE
8
BLACK
6
CONTINUOUS
10
0.646329
20
0.388289
11
0.646255
21
0.388469
0
LINE
8
BLACK
6
CONTINUOUS
10
0.646255
20
0.388469
11
0.646108
21
0.388596
0
LINE
8
BLACK
6
CONTINUOUS
10
0.646108
20
0.388596
11
0.645358
21
0.390096
0
LINE
8
BLACK
6
CONTINUOUS
10
0.645358
20
0.390096
11
0.645339
21
0.39037
0
LINE
8
BLACK
6
CONTINUOUS
10
0.645339
20
0.39037
11
0.645233
21
0.390624
0
LINE
8
BLACK
6
CONTINUOUS
10
0.645233
20
0.390624
11
0.645233
21
0.396624
0
LINE
8
BLACK
6
CONTINUOUS
10
0.645233
20
0.396624
11
0.645579
21
0.397459
0
LINE
8
BLACK
6
CONTINUOUS
10
0.645579
20
0.397459
11
0.646414
21
0.397805
0
LINE
8
BLACK
6
CONTINUOUS
10
0.646414
20
0.397805
11
0.662162
21
0.397805
0
LINE
8
BLACK
6
CONTINUOUS
10
0.662162
20
0.397805
11
0.662998
21
0.397459
0
LINE
8
BLACK
6
CONTINUOUS
10
0.647596
20
0.390903
11
0.648135
21
0.389824
0
LINE
8
BLACK
6
CONTINUOUS
10
0.648135
20
0.389824
11
0.648614
21
0.389345
0
LINE
8
BLACK
6
CONTINUOUS
10
0.648614
20
0.389345
11
0.649693
21
0.388806
0
LINE
8
BLACK
6
CONTINUOUS
10
0.649693
20
0.388806
11
0.651385
21
0.388806
0
LINE
8
BLACK
6
CONTINUOUS
10
0.651385
20
0.388806
11
0.652464
21
0.389345
0
LINE
8
BLACK
6
CONTINUOUS
10
0.652464
20
0.389345
11
0.652943
21
0.389824
0
LINE
8
BLACK
6
CONTINUOUS
10
0.652943
20
0.389824
11
0.653482
21
0.390903
0
LINE
8
BLACK
6
CONTINUOUS
10
0.653482
20
0.390903
11
0.653482
21
0.395442
0
LINE
8
BLACK
6
CONTINUOUS
10
0.653482
20
0.395442
11
0.647596
21
0.395442
0
LINE
8
BLACK
6
CONTINUOUS
10
0.647596
20
0.395442
11
0.647596
21
0.390903
0
LINE
8
BLACK
6
CONTINUOUS
10
0.670748
20
0.418465
11
0.67214
21
0.417888
0
LINE
8
BLACK
6
CONTINUOUS
10
0.67214
20
0.417888
11
0.672717
21
0.416496
0
LINE
8
BLACK
6
CONTINUOUS
10
0.672717
20
0.416496
11
0.672717
21
0.353504
0
LINE
8
BLACK
6
CONTINUOUS
10
0.672717
20
0.353504
11
0.67214
21
0.352112
0
LINE
8
BLACK
6
CONTINUOUS
10
0.67214
20
0.352112
11
0.670748
21
0.351535
0
LINE
8
BLACK
6
CONTINUOUS
10
0.670748
20
0.351535
11
0.639252
21
0.351535
0
LINE
8
BLACK
6
CONTINUOUS
10
0.639252
20
0.351535
11
0.63786
21
0.352112
0
LINE
8
BLACK
6
CONTINUOUS
10
0.63786
20
0.352112
11
0.637283
21
0.353504
0
LINE
8
BLACK
6
CONTINUOUS
10
0.637283
20
0.353504
11
0.637283
21
0.416496
0
LINE
8
BLACK
6
CONTINUOUS
10
0.637283
20
0.416496
11
0.63786
21
0.417888
0
LINE
8
BLACK
6
CONTINUOUS
10
0.63786
20
0.417888
11
0.639252
21
0.418465
0
LINE
8
BLACK
6
CONTINUOUS
10
0.639252
20
0.418465
11
0.670748
21
0.418465
0
LINE
8
BLACK
6
CONTINUOUS
10
0.64122
20
0.414528
11
0.64122
21
0.355472
0
LINE
8
BLACK
6
CONTINUOUS
10
0.64122
20
0.355472
11
0.66878
21
0.355472
0
LINE
8
BLACK
6
CONTINUOUS
10
0.66878
20
0.355472
11
0.66878
21
0.414528
0
LINE
8
BLACK
6
CONTINUOUS
10
0.66878
20
0.414528
11
0.64122
21
0.414528
0
LINE
8
BLACK
6
CONTINUOUS
10
0.358518
20
0.396077
11
0.359094
21
0.394685
0
LINE
8
BLACK
6
CONTINUOUS
10
0.359094
20
0.394685
11
0.359094
21
0.390748
0
LINE
8
BLACK
6
CONTINUOUS
10
0.359094
20
0.390748
11
0.365
21
0.390748
0
LINE
8
BLACK
6
CONTINUOUS
10
0.365
20
0.390748
11
0.36553
21
0.390529
0
LINE
8
BLACK
6
CONTINUOUS
10
0.36553
20
0.390529
11
0.366092
21
0.390417
0
LINE
8
BLACK
6
CONTINUOUS
10
0.366092
20
0.390417
11
0.366205
21
0.390249
0
LINE
8
BLACK
6
CONTINUOUS
10
0.366205
20
0.390249
11
0.366392
21
0.390171
0
LINE
8
BLACK
6
CONTINUOUS
10
0.366392
20
0.390171
11
0.366611
21
0.389642
0
LINE
8
BLACK
6
CONTINUOUS
10
0.366611
20
0.389642
11
0.36693
21
0.389166
0
LINE
8
BLACK
6
CONTINUOUS
10
0.36693
20
0.389166
11
0.366891
21
0.388967
0
LINE
8
BLACK
6
CONTINUOUS
10
0.366891
20
0.388967
11
0.366969
21
0.38878
0
LINE
8
BLACK
6
CONTINUOUS
10
0.366969
20
0.38878
11
0.366749
21
0.38825
0
LINE
8
BLACK
6
CONTINUOUS
10
0.366749
20
0.38825
11
0.366638
21
0.387688
0
LINE
8
BLACK
6
CONTINUOUS
10
0.366638
20
0.387688
11
0.360804
21
0.378937
0
LINE
8
BLACK
6
CONTINUOUS
10
0.360804
20
0.378937
11
0.365
21
0.378937
0
LINE
8
BLACK
6
CONTINUOUS
10
0.365
20
0.378937
11
0.366392
21
0.37836
0
LINE
8
BLACK
6
CONTINUOUS
10
0.366392
20
0.37836
11
0.366969
21
0.376969
0
LINE
8
BLACK
6
CONTINUOUS
10
0.366969
20
0.376969
11
0.366392
21
0.375577
0
LINE
8
BLACK
6
CONTINUOUS
10
0.366392
20
0.375577
11
0.365
21
0.375
0
LINE
8
BLACK
6
CONTINUOUS
10
0.365
20
0.375
11
0.359094
21
0.375
0
LINE
8
BLACK
6
CONTINUOUS
10
0.359094
20
0.375
11
0.359094
21
0.371063
0
LINE
8
BLACK
6
CONTINUOUS
10
0.359094
20
0.371063
11
0.358518
21
0.369671
0
LINE
8
BLACK
6
CONTINUOUS
10
0.358518
20
0.369671
11
0.357126
21
0.369094
0
LINE
8
BLACK
6
CONTINUOUS
10
0.357126
20
0.369094
11
0.355734
21
0.369671
0
LINE
8
BLACK
6
CONTINUOUS
10
0.355734
20
0.369671
11
0.355157
21
0.371063
0
LINE
8
BLACK
6
CONTINUOUS
10
0.355157
20
0.371063
11
0.355157
21
0.375
0
LINE
8
BLACK
6
CONTINUOUS
10
0.355157
20
0.375
11
0.349252
21
0.375
0
LINE
8
BLACK
6
CONTINUOUS
10
0.349252
20
0.375
11
0.34786
21
0.375577
0
LINE
8
BLACK
6
CONTINUOUS
10
0.34786
20
0.375577
11
0.347283
21
0.376969
0
LINE
8
BLACK
6
CONTINUOUS
10
0.347283
20
0.376969
11
0.34786
21
0.37836
0
LINE
8
BLACK
6
CONTINUOUS
10
0.34786
20
0.37836
11
0.349252
21
0.378937
0
LINE
8
BLACK
6
CONTINUOUS
10
0.349252
20
0.378937
11
0.353448
21
0.378937
0
LINE
8
BLACK
6
CONTINUOUS
10
0.353448
20
0.378937
11
0.347614
21
0.387688
0
LINE
8
BLACK
6
CONTINUOUS
10
0.347614
20
0.387688
11
0.347503
21
0.38825
0
LINE
8
BLACK
6
CONTINUOUS
10
0.347503
20
0.38825
11
0.347283
21
0.38878
0
LINE
8
BLACK
6
CONTINUOUS
10
0.347283
20
0.38878
11
0.347361
21
0.388967
0
LINE
8
BLACK
6
CONTINUOUS
10
0.347361
20
0.388967
11
0.347322
21
0.389166
0
LINE
8
BLACK
6
CONTINUOUS
10
0.347322
20
0.389166
11
0.347641
21
0.389642
0
LINE
8
BLACK
6
CONTINUOUS
10
0.347641
20
0.389642
11
0.34786
21
0.390171
0
LINE
8
BLACK
6
CONTINUOUS
10
0.34786
20
0.390171
11
0.348047
21
0.390249
0
LINE
8
BLACK
6
CONTINUOUS
10
0.348047
20
0.390249
11
0.34816
21
0.390417
0
LINE
8
BLACK
6
CONTINUOUS
10
0.34816
20
0.390417
11
0.348722
21
0.390529
0
LINE
8
BLACK
6
CONTINUOUS
10
0.348722
20
0.390529
11
0.349252
21
0.390748
0
LINE
8
BLACK
6
CONTINUOUS
10
0.349252
20
0.390748
11
0.355157
21
0.390748
0
LINE
8
BLACK
6
CONTINUOUS
10
0.355157
20
0.390748
11
0.355157
21
0.394685
0
LINE
8
BLACK
6
CONTINUOUS
10
0.355157
20
0.394685
11
0.355734
21
0.396077
0
LINE
8
BLACK
6
CONTINUOUS
10
0.355734
20
0.396077
11
0.357126
21
0.396654
0
LINE
8
BLACK
6
CONTINUOUS
10
0.357126
20
0.396654
11
0.358518
21
0.396077
0
LINE
8
BLACK
6
CONTINUOUS
10
0.357126
20
0.386811
11
0.35293
21
0.386811
0
LINE
8
BLACK
6
CONTINUOUS
10
0.35293
20
0.386811
11
0.357126
21
0.380517
0
LINE
8
BLACK
6
CONTINUOUS
10
0.357126
20
0.380517
11
0.361322
21
0.386811
0
LINE
8
BLACK
6
CONTINUOUS
10
0.361322
20
0.386811
11
0.357126
21
0.386811
0
LINE
8
BLACK
6
CONTINUOUS
10
0.374843
20
0.412402
11
0.376234
21
0.411825
0
LINE
8
BLACK
6
CONTINUOUS
10
0.376234
20
0.411825
11
0.376811
21
0.410433
0
LINE
8
BLACK
6
CONTINUOUS
10
0.376811
20
0.410433
11
0.376811
21
0.359252
0
LINE
8
BLACK
6
CONTINUOUS
10
0.376811
20
0.359252
11
0.376234
21
0.35786
0
LINE
8
BLACK
6
CONTINUOUS
10
0.376234
20
0.35786
11
0.374843
21
0.357283
0
LINE
8
BLACK
6
CONTINUOUS
10
0.374843
20
0.357283
11
0.339409
21
0.357283
0
LINE
8
BLACK
6
CONTINUOUS
10
0.339409
20
0.357283
11
0.338018
21
0.35786
0
LINE
8
BLACK
6
CONTINUOUS
10
0.338018
20
0.35786
11
0.337441
21
0.359252
0
LINE
8
BLACK
6
CONTINUOUS
10
0.337441
20
0.359252
11
0.337441
21
0.359252
0
LINE
8
BLACK
6
CONTINUOUS
10
0.337441
20
0.359252
11
0.337441
21
0.410433
0
LINE
8
BLACK
6
CONTINUOUS
10
0.337441
20
0.410433
11
0.338018
21
0.411825
0
LINE
8
BLACK
6
CONTINUOUS
10
0.338018
20
0.411825
11
0.339409
21
0.412402
0
LINE
8
BLACK
6
CONTINUOUS
10
0.339409
20
0.412402
11
0.374843
21
0.412402
0
LINE
8
BLACK
6
CONTINUOUS
10
0.341378
20
0.408465
11
0.341378
21
0.36122
0
LINE
8
BLACK
6
CONTINUOUS
10
0.341378
20
0.36122
11
0.372874
21
0.36122
0
LINE
8
BLACK
6
CONTINUOUS
10
0.372874
20
0.36122
11
0.372874
21
0.408465
0
LINE
8
BLACK
6
CONTINUOUS
10
0.372874
20
0.408465
11
0.341378
21
0.408465
0
LINE
8
BLACK
6
CONTINUOUS
10
0.435384
20
0.386091
11
0.436323
21
0.385153
0
LINE
8
BLACK
6
CONTINUOUS
10
0.436323
20
0.385153
11
0.436458
21
0.384826
0
LINE
8
BLACK
6
CONTINUOUS
10
0.436458
20
0.384826
11
0.436725
21
0.384594
0
LINE
8
BLACK
6
CONTINUOUS
10
0.436725
20
0.384594
11
0.437663
21
0.382718
0
LINE
8
BLACK
6
CONTINUOUS
10
0.437663
20
0.382718
11
0.437699
21
0.382219
0
LINE
8
BLACK
6
CONTINUOUS
10
0.437699
20
0.382219
11
0.43789
21
0.381757
0
LINE
8
BLACK
6
CONTINUOUS
10
0.43789
20
0.381757
11
0.43789
21
0.376128
0
LINE
8
BLACK
6
CONTINUOUS
10
0.43789
20
0.376128
11
0.437699
21
0.375666
0
LINE
8
BLACK
6
CONTINUOUS
10
0.437699
20
0.375666
11
0.437663
21
0.375167
0
LINE
8
BLACK
6
CONTINUOUS
10
0.437663
20
0.375167
11
0.436725
21
0.37329
0
LINE
8
BLACK
6
CONTINUOUS
10
0.436725
20
0.37329
11
0.436458
21
0.373059
0
LINE
8
BLACK
6
CONTINUOUS
10
0.436458
20
0.373059
11
0.436323
21
0.372732
0
LINE
8
BLACK
6
CONTINUOUS
10
0.436323
20
0.372732
11
0.435384
21
0.371794
0
LINE
8
BLACK
6
CONTINUOUS
10
0.435384
20
0.371794
11
0.435058
21
0.371658
0
LINE
8
BLACK
6
CONTINUOUS
10
0.435058
20
0.371658
11
0.434826
21
0.371391
0
LINE
8
BLACK
6
CONTINUOUS
10
0.434826
20
0.371391
11
0.432949
21
0.370453
0
LINE
8
BLACK
6
CONTINUOUS
10
0.432949
20
0.370453
11
0.43245
21
0.370417
0
LINE
8
BLACK
6
CONTINUOUS
10
0.43245
20
0.370417
11
0.431988
21
0.370226
0
LINE
8
BLACK
6
CONTINUOUS
10
0.431988
20
0.370226
11
0.427298
21
0.370226
0
LINE
8
BLACK
6
CONTINUOUS
10
0.427298
20
0.370226
11
0.426835
21
0.370417
0
LINE
8
BLACK
6
CONTINUOUS
10
0.426835
20
0.370417
11
0.426336
21
0.370453
0
LINE
8
BLACK
6
CONTINUOUS
10
0.426336
20
0.370453
11
0.42446
21
0.371391
0
LINE
8
BLACK
6
CONTINUOUS
10
0.42446
20
0.371391
11
0.424228
21
0.371658
0
LINE
8
BLACK
6
CONTINUOUS
10
0.424228
20
0.371658
11
0.423901
21
0.371794
0
LINE
8
BLACK
6
CONTINUOUS
10
0.423901
20
0.371794
11
0.422963
21
0.372732
0
LINE
8
BLACK
6
CONTINUOUS
10
0.422963
20
0.372732
11
0.422828
21
0.373059
0
LINE
8
BLACK
6
CONTINUOUS
10
0.422828
20
0.373059
11
0.42256
21
0.37329
0
LINE
8
BLACK
6
CONTINUOUS
10
0.42256
20
0.37329
11
0.421888
21
0.374635
0
LINE
8
BLACK
6
CONTINUOUS
10
0.421888
20
0.374635
11
0.417456
21
0.370758
0
LINE
8
BLACK
6
CONTINUOUS
10
0.417456
20
0.370758
11
0.416739
21
0.370515
0
LINE
8
BLACK
6
CONTINUOUS
10
0.416739
20
0.370515
11
0.41604
21
0.370226
0
LINE
8
BLACK
6
CONTINUOUS
10
0.41604
20
0.370226
11
0.41597
21
0.370255
0
LINE
8
BLACK
6
CONTINUOUS
10
0.41597
20
0.370255
11
0.415897
21
0.370231
0
LINE
8
BLACK
6
CONTINUOUS
10
0.415897
20
0.370231
11
0.415219
21
0.370566
0
LINE
8
BLACK
6
CONTINUOUS
10
0.415219
20
0.370566
11
0.41452
21
0.370856
0
LINE
8
BLACK
6
CONTINUOUS
10
0.41452
20
0.370856
11
0.414491
21
0.370926
0
LINE
8
BLACK
6
CONTINUOUS
10
0.414491
20
0.370926
11
0.414422
21
0.37096
0
LINE
8
BLACK
6
CONTINUOUS
10
0.414422
20
0.37096
11
0.41418
21
0.371677
0
LINE
8
BLACK
6
CONTINUOUS
10
0.41418
20
0.371677
11
0.41389
21
0.372376
0
LINE
8
BLACK
6
CONTINUOUS
10
0.41389
20
0.372376
11
0.41389
21
0.384571
0
LINE
8
BLACK
6
CONTINUOUS
10
0.41389
20
0.384571
11
0.41452
21
0.386091
0
LINE
8
BLACK
6
CONTINUOUS
10
0.41452
20
0.386091
11
0.41604
21
0.386721
0
LINE
8
BLACK
6
CONTINUOUS
10
0.41604
20
0.386721
11
0.417561
21
0.386091
0
LINE
8
BLACK
6
CONTINUOUS
10
0.417561
20
0.386091
11
0.41819
21
0.384571
0
LINE
8
BLACK
6
CONTINUOUS
10
0.41819
20
0.384571
11
0.41819
21
0.377114
0
LINE
8
BLACK
6
CONTINUOUS
10
0.41819
20
0.377114
11
0.422129
21
0.38056
0
LINE
8
BLACK
6
CONTINUOUS
10
0.422129
20
0.38056
11
0.422846
21
0.380803
0
LINE
8
BLACK
6
CONTINUOUS
10
0.422846
20
0.380803
11
0.423545
21
0.381092
0
LINE
8
BLACK
6
CONTINUOUS
10
0.423545
20
0.381092
11
0.423616
21
0.381063
0
LINE
8
BLACK
6
CONTINUOUS
10
0.423616
20
0.381063
11
0.423688
21
0.381088
0
LINE
8
BLACK
6
CONTINUOUS
10
0.423688
20
0.381088
11
0.424366
21
0.380752
0
LINE
8
BLACK
6
CONTINUOUS
10
0.424366
20
0.380752
11
0.425065
21
0.380463
0
LINE
8
BLACK
6
CONTINUOUS
10
0.425065
20
0.380463
11
0.425095
21
0.380392
0
LINE
8
BLACK
6
CONTINUOUS
10
0.425095
20
0.380392
11
0.425163
21
0.380358
0
LINE
8
BLACK
6
CONTINUOUS
10
0.425163
20
0.380358
11
0.425406
21
0.379642
0
LINE
8
BLACK
6
CONTINUOUS
10
0.425406
20
0.379642
11
0.425695
21
0.378942
0
LINE
8
BLACK
6
CONTINUOUS
10
0.425695
20
0.378942
11
0.425695
21
0.376636
0
LINE
8
BLACK
6
CONTINUOUS
10
0.425695
20
0.376636
11
0.42625
21
0.375526
0
LINE
8
BLACK
6
CONTINUOUS
10
0.42625
20
0.375526
11
0.426695
21
0.375081
0
LINE
8
BLACK
6
CONTINUOUS
10
0.426695
20
0.375081
11
0.427805
21
0.374526
0
LINE
8
BLACK
6
CONTINUOUS
10
0.427805
20
0.374526
11
0.43148
21
0.374526
0
LINE
8
BLACK
6
CONTINUOUS
10
0.43148
20
0.374526
11
0.432591
21
0.375081
0
LINE
8
BLACK
6
CONTINUOUS
10
0.432591
20
0.375081
11
0.433035
21
0.375526
0
LINE
8
BLACK
6
CONTINUOUS
10
0.433035
20
0.375526
11
0.43359
21
0.376636
0
LINE
8
BLACK
6
CONTINUOUS
10
0.43359
20
0.376636
11
0.43359
21
0.381249
0
LINE
8
BLACK
6
CONTINUOUS
10
0.43359
20
0.381249
11
0.433035
21
0.382359
0
LINE
8
BLACK
6
CONTINUOUS
10
0.433035
20
0.382359
11
0.432344
21
0.383051
0
LINE
8
BLACK
6
CONTINUOUS
10
0.432344
20
0.383051
11
0.431714
21
0.384571
0
LINE
8
BLACK
6
CONTINUOUS
10
0.431714
20
0.384571
11
0.432344
21
0.386091
0
LINE
8
BLACK
6
CONTINUOUS
10
0.432344
20
0.386091
11
0.433864
21
0.386721
0
LINE
8
BLACK
6
CONTINUOUS
10
0.433864
20
0.386721
11
0.435384
21
0.386091
0
LINE
8
BLACK
6
CONTINUOUS
10
0.720101
20
0.414396
11
0.72023
21
0.414419
0
LINE
8
BLACK
6
CONTINUOUS
10
0.72023
20
0.414419
11
0.720344
21
0.414353
0
LINE
8
BLACK
6
CONTINUOUS
10
0.720344
20
0.414353
11
0.720727
21
0.414286
0
LINE
8
BLACK
6
CONTINUOUS
10
0.720727
20
0.414286
11
0.721315
21
0.413793
0
LINE
8
BLACK
6
CONTINUOUS
10
0.721315
20
0.413793
11
0.721979
21
0.413409
0
LINE
8
BLACK
6
CONTINUOUS
10
0.721979
20
0.413409
11
0.72207
21
0.413159
0
LINE
8
BLACK
6
CONTINUOUS
10
0.72207
20
0.413159
11
0.722274
21
0.412987
0
LINE
8
BLACK
6
CONTINUOUS
10
0.722274
20
0.412987
11
0.722408
21
0.412232
0
LINE
8
BLACK
6
CONTINUOUS
10
0.722408
20
0.412232
11
0.72267
21
0.411511
0
LINE
8
BLACK
6
CONTINUOUS
10
0.72267
20
0.411511
11
0.72267
21
0.402137
0
LINE
8
BLACK
6
CONTINUOUS
10
0.72267
20
0.402137
11
0.722517
21
0.401268
0
LINE
8
BLACK
6
CONTINUOUS
10
0.722517
20
0.401268
11
0.722519
21
0.401203
0
LINE
8
BLACK
6
CONTINUOUS
10
0.722519
20
0.401203
11
0.720644
21
0.395579
0
LINE
8
BLACK
6
CONTINUOUS
10
0.720644
20
0.395579
11
0.720155
21
0.394677
0
LINE
8
BLACK
6
CONTINUOUS
10
0.720155
20
0.394677
11
0.720005
21
0.394585
0
LINE
8
BLACK
6
CONTINUOUS
10
0.720005
20
0.394585
11
0.71993
21
0.394425
0
LINE
8
BLACK
6
CONTINUOUS
10
0.71993
20
0.394425
11
0.716181
21
0.390676
0
LINE
8
BLACK
6
CONTINUOUS
10
0.716181
20
0.390676
11
0.715458
21
0.390169
0
LINE
8
BLACK
6
CONTINUOUS
10
0.715458
20
0.390169
11
0.715413
21
0.390122
0
LINE
8
BLACK
6
CONTINUOUS
10
0.715413
20
0.390122
11
0.711664
21
0.388248
0
LINE
8
BLACK
6
CONTINUOUS
10
0.711664
20
0.388248
11
0.711175
21
0.388102
0
LINE
8
BLACK
6
CONTINUOUS
10
0.711175
20
0.388102
11
0.71106
21
0.388024
0
LINE
8
BLACK
6
CONTINUOUS
10
0.71106
20
0.388024
11
0.703561
21
0.386149
0
LINE
8
BLACK
6
CONTINUOUS
10
0.703561
20
0.386149
11
0.702973
21
0.386108
0
LINE
8
BLACK
6
CONTINUOUS
10
0.702973
20
0.386108
11
0.702844
21
0.386061
0
LINE
8
BLACK
6
CONTINUOUS
10
0.702844
20
0.386061
11
0.69722
21
0.386061
0
LINE
8
BLACK
6
CONTINUOUS
10
0.69722
20
0.386061
11
0.69664
21
0.386164
0
LINE
8
BLACK
6
CONTINUOUS
10
0.69664
20
0.386164
11
0.696504
21
0.386149
0
LINE
8
BLACK
6
CONTINUOUS
10
0.696504
20
0.386149
11
0.689005
21
0.388024
0
LINE
8
BLACK
6
CONTINUOUS
10
0.689005
20
0.388024
11
0.688539
21
0.388232
0
LINE
8
BLACK
6
CONTINUOUS
10
0.688539
20
0.388232
11
0.688401
21
0.388248
0
LINE
8
BLACK
6
CONTINUOUS
10
0.688401
20
0.388248
11
0.684651
21
0.390122
0
LINE
8
BLACK
6
CONTINUOUS
10
0.684651
20
0.390122
11
0.683942
21
0.390648
0
LINE
8
BLACK
6
CONTINUOUS
10
0.683942
20
0.390648
11
0.683884
21
0.390676
0
LINE
8
BLACK
6
CONTINUOUS
10
0.683884
20
0.390676
11
0.680134
21
0.394425
0
LINE
8
BLACK
6
CONTINUOUS
10
0.680134
20
0.394425
11
0.679546
21
0.395265
0
LINE
8
BLACK
6
CONTINUOUS
10
0.679546
20
0.395265
11
0.67953
21
0.395441
0
LINE
8
BLACK
6
CONTINUOUS
10
0.67953
20
0.395441
11
0.679421
21
0.395579
0
LINE
8
BLACK
6
CONTINUOUS
10
0.679421
20
0.395579
11
0.677546
21
0.401204
0
LINE
8
BLACK
6
CONTINUOUS
10
0.677546
20
0.401204
11
0.677416
21
0.402077
0
LINE
8
BLACK
6
CONTINUOUS
10
0.677416
20
0.402077
11
0.677394
21
0.402137
0
LINE
8
BLACK
6
CONTINUOUS
10
0.677394
20
0.402137
11
0.677394
21
0.411511
0
LINE
8
BLACK
6
CONTINUOUS
10
0.677394
20
0.411511
11
0.677462
21
0.411895
0
LINE
8
BLACK
6
CONTINUOUS
10
0.677462
20
0.411895
11
0.677439
21
0.412024
0
LINE
8
BLACK
6
CONTINUOUS
10
0.677439
20
0.412024
11
0.677505
21
0.412137
0
LINE
8
BLACK
6
CONTINUOUS
10
0.677505
20
0.412137
11
0.677573
21
0.412521
0
LINE
8
BLACK
6
CONTINUOUS
10
0.677573
20
0.412521
11
0.678066
21
0.413109
0
LINE
8
BLACK
6
CONTINUOUS
10
0.678066
20
0.413109
11
0.678449
21
0.413773
0
LINE
8
BLACK
6
CONTINUOUS
10
0.678449
20
0.413773
11
0.6787
21
0.413864
0
LINE
8
BLACK
6
CONTINUOUS
10
0.6787
20
0.413864
11
0.678871
21
0.414068
0
LINE
8
BLACK
6
CONTINUOUS
10
0.678871
20
0.414068
11
0.679626
21
0.414201
0
LINE
8
BLACK
6
CONTINUOUS
10
0.679626
20
0.414201
11
0.680347
21
0.414464
0
LINE
8
BLACK
6
CONTINUOUS
10
0.680347
20
0.414464
11
0.719717
21
0.414464
0
LINE
8
BLACK
6
CONTINUOUS
10
0.719717
20
0.414464
11
0.720101
21
0.414396
0
LINE
8
BLACK
6
CONTINUOUS
10
0.6833
20
0.402616
11
0.684803
21
0.398108
0
LINE
8
BLACK
6
CONTINUOUS
10
0.684803
20
0.398108
11
0.687721
21
0.39519
0
LINE
8
BLACK
6
CONTINUOUS
10
0.687721
20
0.39519
11
0.690752
21
0.393675
0
LINE
8
BLACK
6
CONTINUOUS
10
0.690752
20
0.393675
11
0.697584
21
0.391967
0
LINE
8
BLACK
6
CONTINUOUS
10
0.697584
20
0.391967
11
0.702481
21
0.391967
0
LINE
8
BLACK
6
CONTINUOUS
10
0.702481
20
0.391967
11
0.709313
21
0.393675
0
LINE
8
BLACK
6
CONTINUOUS
10
0.709313
20
0.393675
11
0.712344
21
0.39519
0
LINE
8
BLACK
6
CONTINUOUS
10
0.712344
20
0.39519
11
0.715262
21
0.398108
0
LINE
8
BLACK
6
CONTINUOUS
10
0.715262
20
0.398108
11
0.716765
21
0.402616
0
LINE
8
BLACK
6
CONTINUOUS
10
0.716765
20
0.402616
11
0.716765
21
0.408558
0
LINE
8
BLACK
6
CONTINUOUS
10
0.716765
20
0.408558
11
0.6833
21
0.408558
0
LINE
8
BLACK
6
CONTINUOUS
10
0.6833
20
0.408558
11
0.6833
21
0.402616
0
LINE
8
BLACK
6
CONTINUOUS
10
0.427549
20
0.405379
11
0.427819
21
0.405419
0
LINE
8
BLACK
6
CONTINUOUS
10
0.427819
20
0.405419
11
0.431571
21
0.404481
0
LINE
8
BLACK
6
CONTINUOUS
10
0.431571
20
0.404481
11
0.431768
21
0.404335
0
LINE
8
BLACK
6
CONTINUOUS
10
0.431768
20
0.404335
11
0.432011
21
0.404318
0
LINE
8
BLACK
6
CONTINUOUS
10
0.432011
20
0.404318
11
0.433888
21
0.40338
0
LINE
8
BLACK
6
CONTINUOUS
10
0.433888
20
0.40338
11
0.434119
21
0.403112
0
LINE
8
BLACK
6
CONTINUOUS
10
0.434119
20
0.403112
11
0.434446
21
0.402977
0
LINE
8
BLACK
6
CONTINUOUS
10
0.434446
20
0.402977
11
0.436323
21
0.401101
0
LINE
8
BLACK
6
CONTINUOUS
10
0.436323
20
0.401101
11
0.436514
21
0.400639
0
LINE
8
BLACK
6
CONTINUOUS
10
0.436514
20
0.400639
11
0.436842
21
0.40026
0
LINE
8
BLACK
6
CONTINUOUS
10
0.436842
20
0.40026
11
0.43778
21
0.397446
0
LINE
8
BLACK
6
CONTINUOUS
10
0.43778
20
0.397446
11
0.437755
21
0.397093
0
LINE
8
BLACK
6
CONTINUOUS
10
0.437755
20
0.397093
11
0.43789
21
0.396766
0
LINE
8
BLACK
6
CONTINUOUS
10
0.43789
20
0.396766
11
0.43789
21
0.39489
0
LINE
8
BLACK
6
CONTINUOUS
10
0.43789
20
0.39489
11
0.437755
21
0.394563
0
LINE
8
BLACK
6
CONTINUOUS
10
0.437755
20
0.394563
11
0.43778
21
0.39421
0
LINE
8
BLACK
6
CONTINUOUS
10
0.43778
20
0.39421
11
0.436842
21
0.391396
0
LINE
8
BLACK
6
CONTINUOUS
10
0.436842
20
0.391396
11
0.436514
21
0.391018
0
LINE
8
BLACK
6
CONTINUOUS
10
0.436514
20
0.391018
11
0.436323
21
0.390556
0
LINE
8
BLACK
6
CONTINUOUS
10
0.436323
20
0.390556
11
0.435384
21
0.389617
0
LINE
8
BLACK
6
CONTINUOUS
10
0.435384
20
0.389617
11
0.433864
21
0.388988
0
LINE
8
BLACK
6
CONTINUOUS
10
0.433864
20
0.388988
11
0.432344
21
0.389617
0
LINE
8
BLACK
6
CONTINUOUS
10
0.432344
20
0.389617
11
0.431714
21
0.391138
0
LINE
8
BLACK
6
CONTINUOUS
10
0.431714
20
0.391138
11
0.432344
21
0.392658
0
LINE
8
BLACK
6
CONTINUOUS
10
0.432344
20
0.392658
11
0.432923
21
0.393237
0
LINE
8
BLACK
6
CONTINUOUS
10
0.432923
20
0.393237
11
0.43359
21
0.395239
0
LINE
8
BLACK
6
CONTINUOUS
10
0.43359
20
0.395239
11
0.43359
21
0.396417
0
LINE
8
BLACK
6
CONTINUOUS
10
0.43359
20
0.396417
11
0.432923
21
0.398419
0
LINE
8
BLACK
6
CONTINUOUS
10
0.432923
20
0.398419
11
0.431652
21
0.39969
0
LINE
8
BLACK
6
CONTINUOUS
10
0.431652
20
0.39969
11
0.430299
21
0.400366
0
LINE
8
BLACK
6
CONTINUOUS
10
0.430299
20
0.400366
11
0.427033
21
0.401183
0
LINE
8
BLACK
6
CONTINUOUS
10
0.427033
20
0.401183
11
0.424748
21
0.401183
0
LINE
8
BLACK
6
CONTINUOUS
10
0.424748
20
0.401183
11
0.421481
21
0.400366
0
LINE
8
BLACK
6
CONTINUOUS
10
0.421481
20
0.400366
11
0.420128
21
0.39969
0
LINE
8
BLACK
6
CONTINUOUS
10
0.420128
20
0.39969
11
0.418858
21
0.398419
0
LINE
8
BLACK
6
CONTINUOUS
10
0.418858
20
0.398419
11
0.41819
21
0.396417
0
LINE
8
BLACK
6
CONTINUOUS
10
0.41819
20
0.396417
11
0.41819
21
0.395239
0
LINE
8
BLACK
6
CONTINUOUS
10
0.41819
20
0.395239
11
0.418858
21
0.393237
0
LINE
8
BLACK
6
CONTINUOUS
10
0.418858
20
0.393237
11
0.419437
21
0.392658
0
LINE
8
BLACK
6
CONTINUOUS
10
0.419437
20
0.392658
11
0.420067
21
0.391138
0
LINE
8
BLACK
6
CONTINUOUS
10
0.420067
20
0.391138
11
0.419437
21
0.389617
0
LINE
8
BLACK
6
CONTINUOUS
10
0.419437
20
0.389617
11
0.417916
21
0.388988
0
LINE
8
BLACK
6
CONTINUOUS
10
0.417916
20
0.388988
11
0.416396
21
0.389617
0
LINE
8
BLACK
6
CONTINUOUS
10
0.416396
20
0.389617
11
0.415458
21
0.390556
0
LINE
8
BLACK
6
CONTINUOUS
10
0.415458
20
0.390556
11
0.415267
21
0.391018
0
LINE
8
BLACK
6
CONTINUOUS
10
0.415267
20
0.391018
11
0.414939
21
0.391396
0
LINE
8
BLACK
6
CONTINUOUS
10
0.414939
20
0.391396
11
0.414001
21
0.39421
0
LINE
8
BLACK
6
CONTINUOUS
10
0.414001
20
0.39421
11
0.414026
21
0.394563
0
LINE
8
BLACK
6
CONTINUOUS
10
0.414026
20
0.394563
11
0.41389
21
0.39489
0
LINE
8
BLACK
6
CONTINUOUS
10
0.41389
20
0.39489
11
0.41389
21
0.396766
0
LINE
8
BLACK
6
CONTINUOUS
10
0.41389
20
0.396766
11
0.414026
21
0.397093
0
LINE
8
BLACK
6
CONTINUOUS
10
0.414026
20
0.397093
11
0.414001
21
0.397446
0
LINE
8
BLACK
6
CONTINUOUS
10
0.414001
20
0.397446
11
0.414939
21
0.40026
0
LINE
8
BLACK
6
CONTINUOUS
10
0.414939
20
0.40026
11
0.415267
21
0.400639
0
LINE
8
BLACK
6
CONTINUOUS
10
0.415267
20
0.400639
11
0.415458
21
0.401101
0
LINE
8
BLACK
6
CONTINUOUS
10
0.415458
20
0.401101
11
0.417334
21
0.402977
0
LINE
8
BLACK
6
CONTINUOUS
10
0.417334
20
0.402977
11
0.417661
21
0.403112
0
LINE
8
BLACK
6
CONTINUOUS
10
0.417661
20
0.403112
11
0.417893
21
0.40338
0
LINE
8
BLACK
6
CONTINUOUS
10
0.417893
20
0.40338
11
0.419769
21
0.404318
0
LINE
8
BLACK
6
CONTINUOUS
10
0.419769
20
0.404318
11
0.420013
21
0.404335
0
LINE
8
BLACK
6
CONTINUOUS
10
0.420013
20
0.404335
11
0.420209
21
0.404481
0
LINE
8
BLACK
6
CONTINUOUS
10
0.420209
20
0.404481
11
0.423962
21
0.405419
0
LINE
8
BLACK
6
CONTINUOUS
10
0.423962
20
0.405419
11
0.424231
21
0.405379
0
LINE
8
BLACK
6
CONTINUOUS
10
0.424231
20
0.405379
11
0.424483
21
0.405483
0
LINE
8
BLACK
6
CONTINUOUS
10
0.424483
20
0.405483
11
0.427298
21
0.405483
0
LINE
8
BLACK
6
CONTINUOUS
10
0.427298
20
0.405483
11
0.427549
21
0.405379
0
LINE
8
BLACK
6
CONTINUOUS
10
0.456407
20
0.452649
11
0.456536
21
0.452672
0
LINE
8
BLACK
6
CONTINUOUS
10
0.456536
20
0.452672
11
0.45665
21
0.452606
0
LINE
8
BLACK
6
CONTINUOUS
10
0.45665
20
0.452606
11
0.457034
21
0.452538
0
LINE
8
BLACK
6
CONTINUOUS
10
0.457034
20
0.452538
11
0.457621
21
0.452045
0
LINE
8
BLACK
6
CONTINUOUS
10
0.457621
20
0.452045
11
0.458286
21
0.451662
0
LINE
8
BLACK
6
CONTINUOUS
10
0.458286
20
0.451662
11
0.458377
21
0.451411
0
LINE
8
BLACK
6
CONTINUOUS
10
0.458377
20
0.451411
11
0.458581
21
0.45124
0
LINE
8
BLACK
6
CONTINUOUS
10
0.458581
20
0.45124
11
0.458714
21
0.450485
0
LINE
8
BLACK
6
CONTINUOUS
10
0.458714
20
0.450485
11
0.458976
21
0.449764
0
LINE
8
BLACK
6
CONTINUOUS
10
0.458976
20
0.449764
11
0.458976
21
0.409764
0
LINE
8
BLACK
6
CONTINUOUS
10
0.458976
20
0.409764
11
0.458798
21
0.408754
0
LINE
8
BLACK
6
CONTINUOUS
10
0.458798
20
0.408754
11
0.4575
21
0.407207
0
LINE
8
BLACK
6
CONTINUOUS
10
0.4575
20
0.407207
11
0.455511
21
0.406856
0
LINE
8
BLACK
6
CONTINUOUS
10
0.455511
20
0.406856
11
0.453762
21
0.407866
0
LINE
8
BLACK
6
CONTINUOUS
10
0.453762
20
0.407866
11
0.453071
21
0.409764
0
LINE
8
BLACK
6
CONTINUOUS
10
0.453071
20
0.409764
11
0.453071
21
0.446811
0
LINE
8
BLACK
6
CONTINUOUS
10
0.453071
20
0.446811
11
0.398976
21
0.446811
0
LINE
8
BLACK
6
CONTINUOUS
10
0.398976
20
0.446811
11
0.398976
21
0.409764
0
LINE
8
BLACK
6
CONTINUOUS
10
0.398976
20
0.409764
11
0.398798
21
0.408754
0
LINE
8
BLACK
6
CONTINUOUS
10
0.398798
20
0.408754
11
0.3975
21
0.407207
0
LINE
8
BLACK
6
CONTINUOUS
10
0.3975
20
0.407207
11
0.395511
21
0.406856
0
LINE
8
BLACK
6
CONTINUOUS
10
0.395511
20
0.406856
11
0.393762
21
0.407866
0
LINE
8
BLACK
6
CONTINUOUS
10
0.393762
20
0.407866
11
0.393071
21
0.409764
0
LINE
8
BLACK
6
CONTINUOUS
10
0.393071
20
0.409764
11
0.393071
21
0.449764
0
LINE
8
BLACK
6
CONTINUOUS
10
0.393071
20
0.449764
11
0.393138
21
0.450147
0
LINE
8
BLACK
6
CONTINUOUS
10
0.393138
20
0.450147
11
0.393116
21
0.450277
0
LINE
8
BLACK
6
CONTINUOUS
10
0.393116
20
0.450277
11
0.393181
21
0.45039
0
LINE
8
BLACK
6
CONTINUOUS
10
0.393181
20
0.45039
11
0.393249
21
0.450774
0
LINE
8
BLACK
6
CONTINUOUS
10
0.393249
20
0.450774
11
0.393742
21
0.451361
0
LINE
8
BLACK
6
CONTINUOUS
10
0.393742
20
0.451361
11
0.394126
21
0.452026
0
LINE
8
BLACK
6
CONTINUOUS
10
0.394126
20
0.452026
11
0.394376
21
0.452117
0
LINE
8
BLACK
6
CONTINUOUS
10
0.394376
20
0.452117
11
0.394547
21
0.452321
0
LINE
8
BLACK
6
CONTINUOUS
10
0.394547
20
0.452321
11
0.395303
21
0.452454
0
LINE
8
BLACK
6
CONTINUOUS
10
0.395303
20
0.452454
11
0.396024
21
0.452717
0
LINE
8
BLACK
6
CONTINUOUS
10
0.396024
20
0.452717
11
0.456024
21
0.452717
0
LINE
8
BLACK
6
CONTINUOUS
10
0.456024
20
0.452717
11
0.456407
21
0.452649
0
LINE
8
BLACK
6
CONTINUOUS
10
0.703425
20
0.455606
11
0.703561
21
0.455621
0
LINE
8
BLACK
6
CONTINUOUS
10
0.703561
20
0.455621
11
0.71106
21
0.453746
0
LINE
8
BLACK
6
CONTINUOUS
10
0.71106
20
0.453746
11
0.711525
21
0.453538
0
LINE
8
BLACK
6
CONTINUOUS
10
0.711525
20
0.453538
11
0.711664
21
0.453522
0
LINE
8
BLACK
6
CONTINUOUS
10
0.711664
20
0.453522
11
0.715413
21
0.451647
0
LINE
8
BLACK
6
CONTINUOUS
10
0.715413
20
0.451647
11
0.716123
21
0.451121
0
LINE
8
BLACK
6
CONTINUOUS
10
0.716123
20
0.451121
11
0.716181
21
0.451094
0
LINE
8
BLACK
6
CONTINUOUS
10
0.716181
20
0.451094
11
0.71993
21
0.447345
0
LINE
8
BLACK
6
CONTINUOUS
10
0.71993
20
0.447345
11
0.720519
21
0.446505
0
LINE
8
BLACK
6
CONTINUOUS
10
0.720519
20
0.446505
11
0.720534
21
0.446329
0
LINE
8
BLACK
6
CONTINUOUS
10
0.720534
20
0.446329
11
0.720644
21
0.446191
0
LINE
8
BLACK
6
CONTINUOUS
10
0.720644
20
0.446191
11
0.722519
21
0.440566
0
LINE
8
BLACK
6
CONTINUOUS
10
0.722519
20
0.440566
11
0.722648
21
0.439693
0
LINE
8
BLACK
6
CONTINUOUS
10
0.722648
20
0.439693
11
0.72267
21
0.439633
0
LINE
8
BLACK
6
CONTINUOUS
10
0.72267
20
0.439633
11
0.72267
21
0.435883
0
LINE
8
BLACK
6
CONTINUOUS
10
0.72267
20
0.435883
11
0.722517
21
0.435014
0
LINE
8
BLACK
6
CONTINUOUS
10
0.722517
20
0.435014
11
0.722519
21
0.434949
0
LINE
8
BLACK
6
CONTINUOUS
10
0.722519
20
0.434949
11
0.720644
21
0.429325
0
LINE
8
BLACK
6
CONTINUOUS
10
0.720644
20
0.429325
11
0.720155
21
0.428423
0
LINE
8
BLACK
6
CONTINUOUS
10
0.720155
20
0.428423
11
0.720005
21
0.428331
0
LINE
8
BLACK
6
CONTINUOUS
10
0.720005
20
0.428331
11
0.71993
21
0.428171
0
LINE
8
BLACK
6
CONTINUOUS
10
0.71993
20
0.428171
11
0.718056
21
0.426296
0
LINE
8
BLACK
6
CONTINUOUS
10
0.718056
20
0.426296
11
0.717216
21
0.425708
0
LINE
8
BLACK
6
CONTINUOUS
10
0.717216
20
0.425708
11
0.715203
21
0.425532
0
LINE
8
BLACK
6
CONTINUOUS
10
0.715203
20
0.425532
11
0.713549
21
0.42669
0
LINE
8
BLACK
6
CONTINUOUS
10
0.713549
20
0.42669
11
0.713026
21
0.428641
0
LINE
8
BLACK
6
CONTINUOUS
10
0.713026
20
0.428641
11
0.71388
21
0.430472
0
LINE
8
BLACK
6
CONTINUOUS
10
0.71388
20
0.430472
11
0.715262
21
0.431854
0
LINE
8
BLACK
6
CONTINUOUS
10
0.715262
20
0.431854
11
0.716765
21
0.436362
0
LINE
8
BLACK
6
CONTINUOUS
10
0.716765
20
0.436362
11
0.716765
21
0.439153
0
LINE
8
BLACK
6
CONTINUOUS
10
0.716765
20
0.439153
11
0.715262
21
0.443662
0
LINE
8
BLACK
6
CONTINUOUS
10
0.715262
20
0.443662
11
0.712344
21
0.44658
0
LINE
8
BLACK
6
CONTINUOUS
10
0.712344
20
0.44658
11
0.709313
21
0.448095
0
LINE
8
BLACK
6
CONTINUOUS
10
0.709313
20
0.448095
11
0.702481
21
0.449803
0
LINE
8
BLACK
6
CONTINUOUS
10
0.702481
20
0.449803
11
0.697584
21
0.449803
0
LINE
8
BLACK
6
CONTINUOUS
10
0.697584
20
0.449803
11
0.690752
21
0.448095
0
LINE
8
BLACK
6
CONTINUOUS
10
0.690752
20
0.448095
11
0.687721
21
0.44658
0
LINE
8
BLACK
6
CONTINUOUS
10
0.687721
20
0.44658
11
0.684803
21
0.443662
0
LINE
8
BLACK
6
CONTINUOUS
10
0.684803
20
0.443662
11
0.6833
21
0.439153
0
LINE
8
BLACK
6
CONTINUOUS
10
0.6833
20
0.439153
11
0.6833
21
0.436362
0
LINE
8
BLACK
6
CONTINUOUS
10
0.6833
20
0.436362
11
0.684803
21
0.431854
0
LINE
8
BLACK
6
CONTINUOUS
10
0.684803
20
0.431854
11
0.686185
21
0.430472
0
LINE
8
BLACK
6
CONTINUOUS
10
0.686185
20
0.430472
11
0.686773
21
0.429632
0
LINE
8
BLACK
6
CONTINUOUS
10
0.686773
20
0.429632
11
0.686949
21
0.42762
0
LINE
8
BLACK
6
CONTINUOUS
10
0.686949
20
0.42762
11
0.68579
21
0.425965
0
LINE
8
BLACK
6
CONTINUOUS
10
0.68579
20
0.425965
11
0.683839
21
0.425442
0
LINE
8
BLACK
6
CONTINUOUS
10
0.683839
20
0.425442
11
0.682009
21
0.426296
0
LINE
8
BLACK
6
CONTINUOUS
10
0.682009
20
0.426296
11
0.680134
21
0.428171
0
LINE
8
BLACK
6
CONTINUOUS
10
0.680134
20
0.428171
11
0.679546
21
0.429011
0
LINE
8
BLACK
6
CONTINUOUS
10
0.679546
20
0.429011
11
0.67953
21
0.429187
0
LINE
8
BLACK
6
CONTINUOUS
10
0.67953
20
0.429187
11
0.679421
21
0.429325
0
LINE
8
BLACK
6
CONTINUOUS
10
0.679421
20
0.429325
11
0.677546
21
0.434949
0
LINE
8
BLACK
6
CONTINUOUS
10
0.677546
20
0.434949
11
0.677416
21
0.435822
0
LINE
8
BLACK
6
CONTINUOUS
10
0.677416
20
0.435822
11
0.677394
21
0.435883
0
LINE
8
BLACK
6
CONTINUOUS
10
0.677394
20
0.435883
11
0.677394
21
0.439633
0
LINE
8
BLACK
6
CONTINUOUS
10
0.677394
20
0.439633
11
0.677548
21
0.440502
0
LINE
8
BLACK
6
CONTINUOUS
10
0.677548
20
0.440502
11
0.677546
21
0.440566
0
LINE
8
BLACK
6
CONTINUOUS
10
0.677546
20
0.440566
11
0.679421
21
0.446191
0
LINE
8
BLACK
6
CONTINUOUS
10
0.679421
20
0.446191
11
0.679909
21
0.447092
0
LINE
8
BLACK
6
CONTINUOUS
10
0.679909
20
0.447092
11
0.680059
21
0.447185
0
LINE
8
BLACK
6
CONTINUOUS
10
0.680059
20
0.447185
11
0.680134
21
0.447345
0
LINE
8
BLACK
6
CONTINUOUS
10
0.680134
20
0.447345
11
0.683884
21
0.451094
0
LINE
8
BLACK
6
CONTINUOUS
10
0.683884
20
0.451094
11
0.684607
21
0.451601
0
LINE
8
BLACK
6
CONTINUOUS
10
0.684607
20
0.451601
11
0.684651
21
0.451647
0
LINE
8
BLACK
6
CONTINUOUS
10
0.684651
20
0.451647
11
0.688401
21
0.453522
0
LINE
8
BLACK
6
CONTINUOUS
10
0.688401
20
0.453522
11
0.688889
21
0.453667
0
LINE
8
BLACK
6
CONTINUOUS
10
0.688889
20
0.453667
11
0.689005
21
0.453746
0
LINE
8
BLACK
6
CONTINUOUS
10
0.689005
20
0.453746
11
0.696504
21
0.455621
0
LINE
8
BLACK
6
CONTINUOUS
10
0.696504
20
0.455621
11
0.697092
21
0.455662
0
LINE
8
BLACK
6
CONTINUOUS
10
0.697092
20
0.455662
11
0.69722
21
0.455709
0
LINE
8
BLACK
6
CONTINUOUS
10
0.69722
20
0.455709
11
0.702844
21
0.455709
0
LINE
8
BLACK
6
CONTINUOUS
10
0.702844
20
0.455709
11
0.703425
21
0.455606
0
LINE
8
BLACK
6
CONTINUOUS
10
0.394257
20
0.543075
11
0.417788
21
0.519544
0
LINE
8
BLACK
6
CONTINUOUS
10
0.417788
20
0.519544
11
0.417788
21
0.540987
0
LINE
8
BLACK
6
CONTINUOUS
10
0.417788
20
0.540987
11
0.417966
21
0.541997
0
LINE
8
BLACK
6
CONTINUOUS
10
0.417966
20
0.541997
11
0.419265
21
0.543544
0
LINE
8
BLACK
6
CONTINUOUS
10
0.419265
20
0.543544
11
0.421254
21
0.543895
0
LINE
8
BLACK
6
CONTINUOUS
10
0.421254
20
0.543895
11
0.423003
21
0.542885
0
LINE
8
BLACK
6
CONTINUOUS
10
0.423003
20
0.542885
11
0.423694
21
0.540987
0
LINE
8
BLACK
6
CONTINUOUS
10
0.423694
20
0.540987
11
0.423694
21
0.490987
0
LINE
8
BLACK
6
CONTINUOUS
10
0.423694
20
0.490987
11
0.423516
21
0.489977
0
LINE
8
BLACK
6
CONTINUOUS
10
0.423516
20
0.489977
11
0.422217
21
0.48843
0
LINE
8
BLACK
6
CONTINUOUS
10
0.422217
20
0.48843
11
0.420228
21
0.488079
0
LINE
8
BLACK
6
CONTINUOUS
10
0.420228
20
0.488079
11
0.418479
21
0.489089
0
LINE
8
BLACK
6
CONTINUOUS
10
0.418479
20
0.489089
11
0.417788
21
0.490987
0
LINE
8
BLACK
6
CONTINUOUS
10
0.417788
20
0.490987
11
0.417788
21
0.511193
0
LINE
8
BLACK
6
CONTINUOUS
10
0.417788
20
0.511193
11
0.413917
21
0.515063
0
LINE
8
BLACK
6
CONTINUOUS
10
0.413917
20
0.515063
11
0.394532
21
0.489216
0
LINE
8
BLACK
6
CONTINUOUS
10
0.394532
20
0.489216
11
0.393783
21
0.488514
0
LINE
8
BLACK
6
CONTINUOUS
10
0.393783
20
0.488514
11
0.391816
21
0.488056
0
LINE
8
BLACK
6
CONTINUOUS
10
0.391816
20
0.488056
11
0.390014
21
0.488969
0
LINE
8
BLACK
6
CONTINUOUS
10
0.390014
20
0.488969
11
0.389221
21
0.490826
0
LINE
8
BLACK
6
CONTINUOUS
10
0.389221
20
0.490826
11
0.389807
21
0.492759
0
LINE
8
BLACK
6
CONTINUOUS
10
0.389807
20
0.492759
11
0.409699
21
0.519282
0
LINE
8
BLACK
6
CONTINUOUS
10
0.409699
20
0.519282
11
0.390082
21
0.538899
0
LINE
8
BLACK
6
CONTINUOUS
10
0.390082
20
0.538899
11
0.389493
21
0.539739
0
LINE
8
BLACK
6
CONTINUOUS
10
0.389493
20
0.539739
11
0.389317
21
0.541751
0
LINE
8
BLACK
6
CONTINUOUS
10
0.389317
20
0.541751
11
0.390476
21
0.543406
0
LINE
8
BLACK
6
CONTINUOUS
10
0.390476
20
0.543406
11
0.392427
21
0.543929
0
LINE
8
BLACK
6
CONTINUOUS
10
0.392427
20
0.543929
11
0.394257
21
0.543075
0
LINE
8
BLACK
6
CONTINUOUS
10
0.433454
20
0.56194
11
0.433584
21
0.561963
0
LINE
8
BLACK
6
CONTINUOUS
10
0.433584
20
0.561963
11
0.433697
21
0.561897
0
LINE
8
BLACK
6
CONTINUOUS
10
0.433697
20
0.561897
11
0.434081
21
0.56183
0
LINE
8
BLACK
6
CONTINUOUS
10
0.434081
20
0.56183
11
0.434668
21
0.561337
0
LINE
8
BLACK
6
CONTINUOUS
10
0.434668
20
0.561337
11
0.435333
21
0.560953
0
LINE
8
BLACK
6
CONTINUOUS
10
0.435333
20
0.560953
11
0.435424
21
0.560703
0
LINE
8
BLACK
6
CONTINUOUS
10
0.435424
20
0.560703
11
0.435628
21
0.560531
0
LINE
8
BLACK
6
CONTINUOUS
10
0.435628
20
0.560531
11
0.435761
21
0.559776
0
LINE
8
BLACK
6
CONTINUOUS
10
0.435761
20
0.559776
11
0.436024
21
0.559055
0
LINE
8
BLACK
6
CONTINUOUS
10
0.436024
20
0.559055
11
0.436024
21
0.464567
0
LINE
8
BLACK
6
CONTINUOUS
10
0.436024
20
0.464567
11
0.435956
21
0.464183
0
LINE
8
BLACK
6
CONTINUOUS
10
0.435956
20
0.464183
11
0.435979
21
0.464054
0
LINE
8
BLACK
6
CONTINUOUS
10
0.435979
20
0.464054
11
0.435913
21
0.463941
0
LINE
8
BLACK
6
CONTINUOUS
10
0.435913
20
0.463941
11
0.435846
21
0.463557
0
LINE
8
BLACK
6
CONTINUOUS
10
0.435846
20
0.463557
11
0.435352
21
0.462969
0
LINE
8
BLACK
6
CONTINUOUS
10
0.435352
20
0.462969
11
0.434969
21
0.462305
0
LINE
8
BLACK
6
CONTINUOUS
10
0.434969
20
0.462305
11
0.434719
21
0.462214
0
LINE
8
BLACK
6
CONTINUOUS
10
0.434719
20
0.462214
11
0.434547
21
0.46201
0
LINE
8
BLACK
6
CONTINUOUS
10
0.434547
20
0.46201
11
0.433792
21
0.461877
0
LINE
8
BLACK
6
CONTINUOUS
10
0.433792
20
0.461877
11
0.433071
21
0.461614
0
LINE
8
BLACK
6
CONTINUOUS
10
0.433071
20
0.461614
11
0.23622
21
0.461614
0
LINE
8
BLACK
6
CONTINUOUS
10
0.23622
20
0.461614
11
0.235837
21
0.461682
0
LINE
8
BLACK
6
CONTINUOUS
10
0.235837
20
0.461682
11
0.235708
21
0.461659
0
LINE
8
BLACK
6
CONTINUOUS
10
0.235708
20
0.461659
11
0.235594
21
0.461725
0
LINE
8
BLACK
6
CONTINUOUS
10
0.235594
20
0.461725
11
0.235211
21
0.461792
0
LINE
8
BLACK
6
CONTINUOUS
10
0.235211
20
0.461792
11
0.234623
21
0.462285
0
LINE
8
BLACK
6
CONTINUOUS
10
0.234623
20
0.462285
11
0.233959
21
0.462669
0
LINE
8
BLACK
6
CONTINUOUS
10
0.233959
20
0.462669
11
0.233867
21
0.462919
0
LINE
8
BLACK
6
CONTINUOUS
10
0.233867
20
0.462919
11
0.233663
21
0.463091
0
LINE
8
BLACK
6
CONTINUOUS
10
0.233663
20
0.463091
11
0.23353
21
0.463846
0
LINE
8
BLACK
6
CONTINUOUS
10
0.23353
20
0.463846
11
0.233268
21
0.464567
0
LINE
8
BLACK
6
CONTINUOUS
10
0.233268
20
0.464567
11
0.233268
21
0.559055
0
LINE
8
BLACK
6
CONTINUOUS
10
0.233268
20
0.559055
11
0.233335
21
0.559439
0
LINE
8
BLACK
6
CONTINUOUS
10
0.233335
20
0.559439
11
0.233313
21
0.559568
0
LINE
8
BLACK
6
CONTINUOUS
10
0.233313
20
0.559568
11
0.233378
21
0.559681
0
LINE
8
BLACK
6
CONTINUOUS
10
0.233378
20
0.559681
11
0.233446
21
0.560065
0
LINE
8
BLACK
6
CONTINUOUS
10
0.233446
20
0.560065
11
0.233939
21
0.560653
0
LINE
8
BLACK
6
CONTINUOUS
10
0.233939
20
0.560653
11
0.234322
21
0.561317
0
LINE
8
BLACK
6
CONTINUOUS
10
0.234322
20
0.561317
11
0.234573
21
0.561408
0
LINE
8
BLACK
6
CONTINUOUS
10
0.234573
20
0.561408
11
0.234744
21
0.561612
0
LINE
8
BLACK
6
CONTINUOUS
10
0.234744
20
0.561612
11
0.2355
21
0.561746
0
LINE
8
BLACK
6
CONTINUOUS
10
0.2355
20
0.561746
11
0.23622
21
0.562008
0
LINE
8
BLACK
6
CONTINUOUS
10
0.23622
20
0.562008
11
0.433071
21
0.562008
0
LINE
8
BLACK
6
CONTINUOUS
10
0.433071
20
0.562008
11
0.433454
21
0.56194
0
LINE
8
BLACK
6
CONTINUOUS
10
0.239173
20
0.556102
11
0.239173
21
0.46752
0
LINE
8
BLACK
6
CONTINUOUS
10
0.239173
20
0.46752
11
0.430118
21
0.46752
0
LINE
8
BLACK
6
CONTINUOUS
10
0.430118
20
0.46752
11
0.430118
21
0.556102
0
LINE
8
BLACK
6
CONTINUOUS
10
0.430118
20
0.556102
11
0.239173
21
0.556102
0
LINE
8
BLACK
6
CONTINUOUS
10
0.692606
20
0.493026
11
0.692741
21
0.492912
0
LINE
8
BLACK
6
CONTINUOUS
10
0.692741
20
0.492912
11
0.692916
21
0.492892
0
LINE
8
BLACK
6
CONTINUOUS
10
0.692916
20
0.492892
11
0.696666
21
0.491017
0
LINE
8
BLACK
6
CONTINUOUS
10
0.696666
20
0.491017
11
0.697375
21
0.490492
0
LINE
8
BLACK
6
CONTINUOUS
10
0.697375
20
0.490492
11
0.697433
21
0.490464
0
LINE
8
BLACK
6
CONTINUOUS
10
0.697433
20
0.490464
11
0.699308
21
0.48859
0
LINE
8
BLACK
6
CONTINUOUS
10
0.699308
20
0.48859
11
0.699814
21
0.487867
0
LINE
8
BLACK
6
CONTINUOUS
10
0.699814
20
0.487867
11
0.699861
21
0.487822
0
LINE
8
BLACK
6
CONTINUOUS
10
0.699861
20
0.487822
11
0.701736
21
0.484073
0
LINE
8
BLACK
6
CONTINUOUS
10
0.701736
20
0.484073
11
0.701881
21
0.483584
0
LINE
8
BLACK
6
CONTINUOUS
10
0.701881
20
0.483584
11
0.701959
21
0.483468
0
LINE
8
BLACK
6
CONTINUOUS
10
0.701959
20
0.483468
11
0.703756
21
0.476284
0
LINE
8
BLACK
6
CONTINUOUS
10
0.703756
20
0.476284
11
0.705271
21
0.473253
0
LINE
8
BLACK
6
CONTINUOUS
10
0.705271
20
0.473253
11
0.706468
21
0.472056
0
LINE
8
BLACK
6
CONTINUOUS
10
0.706468
20
0.472056
11
0.709166
21
0.470707
0
LINE
8
BLACK
6
CONTINUOUS
10
0.709166
20
0.470707
11
0.711521
21
0.470707
0
LINE
8
BLACK
6
CONTINUOUS
10
0.711521
20
0.470707
11
0.714219
21
0.472056
0
LINE
8
BLACK
6
CONTINUOUS
10
0.714219
20
0.472056
11
0.715416
21
0.473253
0
LINE
8
BLACK
6
CONTINUOUS
10
0.715416
20
0.473253
11
0.716765
21
0.47595
0
LINE
8
BLACK
6
CONTINUOUS
10
0.716765
20
0.47595
11
0.716765
21
0.484148
0
LINE
8
BLACK
6
CONTINUOUS
10
0.716765
20
0.484148
11
0.715041
21
0.489317
0
LINE
8
BLACK
6
CONTINUOUS
10
0.715041
20
0.489317
11
0.714891
21
0.490332
0
LINE
8
BLACK
6
CONTINUOUS
10
0.714891
20
0.490332
11
0.715633
21
0.49221
0
LINE
8
BLACK
6
CONTINUOUS
10
0.715633
20
0.49221
11
0.717409
21
0.493172
0
LINE
8
BLACK
6
CONTINUOUS
10
0.717409
20
0.493172
11
0.719388
21
0.492767
0
LINE
8
BLACK
6
CONTINUOUS
10
0.719388
20
0.492767
11
0.720644
21
0.491185
0
LINE
8
BLACK
6
CONTINUOUS
10
0.720644
20
0.491185
11
0.722519
21
0.485561
0
LINE
8
BLACK
6
CONTINUOUS
10
0.722519
20
0.485561
11
0.722648
21
0.484687
0
LINE
8
BLACK
6
CONTINUOUS
10
0.722648
20
0.484687
11
0.72267
21
0.484627
0
LINE
8
BLACK
6
CONTINUOUS
10
0.72267
20
0.484627
11
0.72267
21
0.475253
0
LINE
8
BLACK
6
CONTINUOUS
10
0.72267
20
0.475253
11
0.722492
21
0.474243
0
LINE
8
BLACK
6
CONTINUOUS
10
0.722492
20
0.474243
11
0.722378
21
0.474108
0
LINE
8
BLACK
6
CONTINUOUS
10
0.722378
20
0.474108
11
0.722358
21
0.473933
0
LINE
8
BLACK
6
CONTINUOUS
10
0.722358
20
0.473933
11
0.720484
21
0.470183
0
LINE
8
BLACK
6
CONTINUOUS
10
0.720484
20
0.470183
11
0.719958
21
0.469474
0
LINE
8
BLACK
6
CONTINUOUS
10
0.719958
20
0.469474
11
0.71993
21
0.469416
0
LINE
8
BLACK
6
CONTINUOUS
10
0.71993
20
0.469416
11
0.718056
21
0.467541
0
LINE
8
BLACK
6
CONTINUOUS
10
0.718056
20
0.467541
11
0.717333
21
0.467035
0
LINE
8
BLACK
6
CONTINUOUS
10
0.717333
20
0.467035
11
0.717288
21
0.466988
0
LINE
8
BLACK
6
CONTINUOUS
10
0.717288
20
0.466988
11
0.713539
21
0.465113
0
LINE
8
BLACK
6
CONTINUOUS
10
0.713539
20
0.465113
11
0.712556
21
0.464821
0
LINE
8
BLACK
6
CONTINUOUS
10
0.712556
20
0.464821
11
0.712384
21
0.464862
0
LINE
8
BLACK
6
CONTINUOUS
10
0.712384
20
0.464862
11
0.712218
21
0.464801
0
LINE
8
BLACK
6
CONTINUOUS
10
0.712218
20
0.464801
11
0.708469
21
0.464801
0
LINE
8
BLACK
6
CONTINUOUS
10
0.708469
20
0.464801
11
0.707459
21
0.464979
0
LINE
8
BLACK
6
CONTINUOUS
10
0.707459
20
0.464979
11
0.707323
21
0.465093
0
LINE
8
BLACK
6
CONTINUOUS
10
0.707323
20
0.465093
11
0.707148
21
0.465113
0
LINE
8
BLACK
6
CONTINUOUS
10
0.707148
20
0.465113
11
0.703399
21
0.466988
0
LINE
8
BLACK
6
CONTINUOUS
10
0.703399
20
0.466988
11
0.70269
21
0.467514
0
LINE
8
BLACK
6
CONTINUOUS
10
0.70269
20
0.467514
11
0.702631
21
0.467541
0
LINE
8
BLACK
6
CONTINUOUS
10
0.702631
20
0.467541
11
0.700756
21
0.469416
0
LINE
8
BLACK
6
CONTINUOUS
10
0.700756
20
0.469416
11
0.70025
21
0.470139
0
LINE
8
BLACK
6
CONTINUOUS
10
0.70025
20
0.470139
11
0.700203
21
0.470183
0
LINE
8
BLACK
6
CONTINUOUS
10
0.700203
20
0.470183
11
0.698329
21
0.473933
0
LINE
8
BLACK
6
CONTINUOUS
10
0.698329
20
0.473933
11
0.698183
21
0.474421
0
LINE
8
BLACK
6
CONTINUOUS
10
0.698183
20
0.474421
11
0.698105
21
0.474537
0
LINE
8
BLACK
6
CONTINUOUS
10
0.698105
20
0.474537
11
0.696309
21
0.481722
0
LINE
8
BLACK
6
CONTINUOUS
10
0.696309
20
0.481722
11
0.694793
21
0.484753
0
LINE
8
BLACK
6
CONTINUOUS
10
0.694793
20
0.484753
11
0.693596
21
0.48595
0
LINE
8
BLACK
6
CONTINUOUS
10
0.693596
20
0.48595
11
0.690899
21
0.487298
0
LINE
8
BLACK
6
CONTINUOUS
10
0.690899
20
0.487298
11
0.688543
21
0.487298
0
LINE
8
BLACK
6
CONTINUOUS
10
0.688543
20
0.487298
11
0.685846
21
0.48595
0
LINE
8
BLACK
6
CONTINUOUS
10
0.685846
20
0.48595
11
0.684649
21
0.484753
0
LINE
8
BLACK
6
CONTINUOUS
10
0.684649
20
0.484753
11
0.6833
21
0.482055
0
LINE
8
BLACK
6
CONTINUOUS
10
0.6833
20
0.482055
11
0.6833
21
0.473858
0
LINE
8
BLACK
6
CONTINUOUS
10
0.6833
20
0.473858
11
0.685023
21
0.468688
0
LINE
8
BLACK
6
CONTINUOUS
10
0.685023
20
0.468688
11
0.685174
21
0.467673
0
LINE
8
BLACK
6
CONTINUOUS
10
0.685174
20
0.467673
11
0.684431
21
0.465795
0
LINE
8
BLACK
6
CONTINUOUS
10
0.684431
20
0.465795
11
0.682655
21
0.464833
0
LINE
8
BLACK
6
CONTINUOUS
10
0.682655
20
0.464833
11
0.680676
21
0.465238
0
LINE
8
BLACK
6
CONTINUOUS
10
0.680676
20
0.465238
11
0.679421
21
0.46682
0
LINE
8
BLACK
6
CONTINUOUS
10
0.679421
20
0.46682
11
0.677546
21
0.472445
0
LINE
8
BLACK
6
CONTINUOUS
10
0.677546
20
0.472445
11
0.677416
21
0.473318
0
LINE
8
BLACK
6
CONTINUOUS
10
0.677416
20
0.473318
11
0.677394
21
0.473378
0
LINE
8
BLACK
6
CONTINUOUS
10
0.677394
20
0.473378
11
0.677394
21
0.482752
0
LINE
8
BLACK
6
CONTINUOUS
10
0.677394
20
0.482752
11
0.677573
21
0.483762
0
LINE
8
BLACK
6
CONTINUOUS
10
0.677573
20
0.483762
11
0.677686
21
0.483897
0
LINE
8
BLACK
6
CONTINUOUS
10
0.677686
20
0.483897
11
0.677706
21
0.484073
0
LINE
8
BLACK
6
CONTINUOUS
10
0.677706
20
0.484073
11
0.679581
21
0.487822
0
LINE
8
BLACK
6
CONTINUOUS
10
0.679581
20
0.487822
11
0.680107
21
0.488531
0
LINE
8
BLACK
6
CONTINUOUS
10
0.680107
20
0.488531
11
0.680134
21
0.48859
0
LINE
8
BLACK
6
CONTINUOUS
10
0.680134
20
0.48859
11
0.682009
21
0.490464
0
LINE
8
BLACK
6
CONTINUOUS
10
0.682009
20
0.490464
11
0.682732
21
0.490971
0
LINE
8
BLACK
6
CONTINUOUS
10
0.682732
20
0.490971
11
0.682776
21
0.491017
0
LINE
8
BLACK
6
CONTINUOUS
10
0.682776
20
0.491017
11
0.686526
21
0.492892
0
LINE
8
BLACK
6
CONTINUOUS
10
0.686526
20
0.492892
11
0.687509
21
0.493185
0
LINE
8
BLACK
6
CONTINUOUS
10
0.687509
20
0.493185
11
0.68768
21
0.493144
0
LINE
8
BLACK
6
CONTINUOUS
10
0.68768
20
0.493144
11
0.687846
21
0.493204
0
LINE
8
BLACK
6
CONTINUOUS
10
0.687846
20
0.493204
11
0.691596
21
0.493204
0
LINE
8
BLACK
6
CONTINUOUS
10
0.691596
20
0.493204
11
0.692606
21
0.493026
  0
ENDSEC
  0
EOF
