  0
SECTION
  2
HEADER
  9
$ANGBASE
  50
0.0
  9
$ANGDIR
  70
1
  9
$MEASUREMENT
  70
0
  0
ENDSEC
  0
SECTION
  2
TABLES
  0
TABLE
  2
LTYPE
  70
4
  0
LTYPE
  5
40F
  2
CONTINUOUS
  70
0
  3
Solid line
  72
65
  73
0
  40
0.0
  0
LTYPE
  5
410
  2
DASHDOT
 70
0
  3
Dash Dot ____ _ ____ _
 72
65
 73
4
 40
2.0
 49
1.25
 49
-0.25
 49
0.25
 49
-0.25
  0
LTYPE
  5
411
  2
DASHED
 70
0
  3
Dashed __ __ __ __ __
 72
65
 73
2
 40
0.75
 49
0.5
 49
-0.25
  0
LTYPE
  5
43B
  2
DOTTED
 70
0
  3
Dotted .  .  .  .
 72
65
 73
2
 40
0.2
 49
0.0
 49
-0.2
  0
ENDTAB
  0
TABLE
  2
STYLE
  70
4
  0
STYLE
  2
KICAD
  70
0
  40
0
  41
1
  42
1
  50
0
  71
0
  3
isocp.shx
  0
STYLE
  2
KICADB
  70
0
  40
0
  41
1
  42
1
  50
0
  71
0
  3
isocp.shx
  0
STYLE
  2
KICADI
  70
0
  40
0
  41
1
  42
1
  50
15
  71
0
  3
isocp.shx
  0
STYLE
  2
KICADBI
  70
0
  40
0
  41
1
  42
1
  50
15
  71
0
  3
isocp.shx
  0
ENDTAB
  0
TABLE
  2
LAYER
  70
1
  0
LAYER
  2
BLACK
  70
0
  62
7
  6
CONTINUOUS
  0
ENDTAB
  0
ENDSEC
  0
SECTION
  2
ENTITIES
0
LINE
8
BLACK
6
CONTINUOUS
10
0.112922
20
0.057248
11
0.122147
21
0.0540811
0
LINE
8
BLACK
6
CONTINUOUS
10
0.122147
20
0.0540811
11
0.130725
21
0.049439
0
LINE
8
BLACK
6
CONTINUOUS
10
0.130725
20
0.049439
11
0.138422
21
0.0434483
0
LINE
8
BLACK
6
CONTINUOUS
10
0.138422
20
0.0434483
11
0.145028
21
0.0362724
0
LINE
8
BLACK
6
CONTINUOUS
10
0.145028
20
0.0362724
11
0.150363
21
0.0281071
0
LINE
8
BLACK
6
CONTINUOUS
10
0.150363
20
0.0281071
11
0.154281
21
0.0191752
0
LINE
8
BLACK
6
CONTINUOUS
10
0.154281
20
0.0191752
11
0.156675
21
0.00972016
0
LINE
8
BLACK
6
CONTINUOUS
10
0.156675
20
0.00972016
11
0.15748
21
0
0
LINE
8
BLACK
6
CONTINUOUS
10
0.15748
20
0
11
0.156675
21
-0.00972016
0
LINE
8
BLACK
6
CONTINUOUS
10
0.156675
20
-0.00972016
11
0.154281
21
-0.0191752
0
LINE
8
BLACK
6
CONTINUOUS
10
0.154281
20
-0.0191752
11
0.150363
21
-0.0281071
0
LINE
8
BLACK
6
CONTINUOUS
10
0.150363
20
-0.0281071
11
0.145028
21
-0.0362724
0
LINE
8
BLACK
6
CONTINUOUS
10
0.145028
20
-0.0362724
11
0.138422
21
-0.0434483
0
LINE
8
BLACK
6
CONTINUOUS
10
0.138422
20
-0.0434483
11
0.130725
21
-0.049439
0
LINE
8
BLACK
6
CONTINUOUS
10
0.130725
20
-0.049439
11
0.122147
21
-0.0540811
0
LINE
8
BLACK
6
CONTINUOUS
10
0.122147
20
-0.0540811
11
0.112922
21
-0.057248
0
LINE
8
BLACK
6
CONTINUOUS
10
0.112922
20
-0.057248
11
0.103302
21
-0.0588534
0
LINE
8
BLACK
6
CONTINUOUS
10
0.103302
20
-0.0588534
11
0.0935485
21
-0.0588534
0
LINE
8
BLACK
6
CONTINUOUS
10
0.0935485
20
-0.0588534
11
0.083928
21
-0.057248
0
LINE
8
BLACK
6
CONTINUOUS
10
0.083928
20
-0.057248
11
0.074703
21
-0.0540811
0
LINE
8
BLACK
6
CONTINUOUS
10
0.074703
20
-0.0540811
11
0.0661251
21
-0.049439
0
LINE
8
BLACK
6
CONTINUOUS
10
0.0661251
20
-0.049439
11
0.0584283
21
-0.0434483
0
LINE
8
BLACK
6
CONTINUOUS
10
0.0584283
20
-0.0434483
11
0.0518224
21
-0.0362724
0
LINE
8
BLACK
6
CONTINUOUS
10
0.0518224
20
-0.0362724
11
0.0464878
21
-0.0281071
0
LINE
8
BLACK
6
CONTINUOUS
10
0.0464878
20
-0.0281071
11
0.0425698
21
-0.0191752
0
LINE
8
BLACK
6
CONTINUOUS
10
0.0425698
20
-0.0191752
11
0.0401755
21
-0.00972016
0
LINE
8
BLACK
6
CONTINUOUS
10
0.0401755
20
-0.00972016
11
0.0393701
21
0
0
LINE
8
BLACK
6
CONTINUOUS
10
0.0393701
20
0
11
0.0401755
21
0.00972016
0
LINE
8
BLACK
6
CONTINUOUS
10
0.0401755
20
0.00972016
11
0.0425698
21
0.0191752
0
LINE
8
BLACK
6
CONTINUOUS
10
0.0425698
20
0.0191752
11
0.0464878
21
0.0281071
0
LINE
8
BLACK
6
CONTINUOUS
10
0.0464878
20
0.0281071
11
0.0518224
21
0.0362724
0
LINE
8
BLACK
6
CONTINUOUS
10
0.0518224
20
0.0362724
11
0.0584283
21
0.0434483
0
LINE
8
BLACK
6
CONTINUOUS
10
0.0584283
20
0.0434483
11
0.0661251
21
0.049439
0
LINE
8
BLACK
6
CONTINUOUS
10
0.0661251
20
0.049439
11
0.074703
21
0.0540811
0
LINE
8
BLACK
6
CONTINUOUS
10
0.074703
20
0.0540811
11
0.083928
21
0.057248
0
LINE
8
BLACK
6
CONTINUOUS
10
0.083928
20
0.057248
11
0.0935485
21
0.0588534
0
LINE
8
BLACK
6
CONTINUOUS
10
0.0935485
20
0.0588534
11
0.103302
21
0.0588534
0
LINE
8
BLACK
6
CONTINUOUS
10
0.103302
20
0.0588534
11
0.112922
21
0.057248
0
LINE
8
BLACK
6
CONTINUOUS
10
0.506623
20
0.057248
11
0.515848
21
0.0540811
0
LINE
8
BLACK
6
CONTINUOUS
10
0.515848
20
0.0540811
11
0.524426
21
0.049439
0
LINE
8
BLACK
6
CONTINUOUS
10
0.524426
20
0.049439
11
0.532123
21
0.0434483
0
LINE
8
BLACK
6
CONTINUOUS
10
0.532123
20
0.0434483
11
0.538729
21
0.0362724
0
LINE
8
BLACK
6
CONTINUOUS
10
0.538729
20
0.0362724
11
0.544063
21
0.0281071
0
LINE
8
BLACK
6
CONTINUOUS
10
0.544063
20
0.0281071
11
0.547981
21
0.0191752
0
LINE
8
BLACK
6
CONTINUOUS
10
0.547981
20
0.0191752
11
0.550376
21
0.00972016
0
LINE
8
BLACK
6
CONTINUOUS
10
0.550376
20
0.00972016
11
0.551181
21
0
0
LINE
8
BLACK
6
CONTINUOUS
10
0.551181
20
0
11
0.550376
21
-0.00972016
0
LINE
8
BLACK
6
CONTINUOUS
10
0.550376
20
-0.00972016
11
0.547981
21
-0.0191752
0
LINE
8
BLACK
6
CONTINUOUS
10
0.547981
20
-0.0191752
11
0.544063
21
-0.0281071
0
LINE
8
BLACK
6
CONTINUOUS
10
0.544063
20
-0.0281071
11
0.538729
21
-0.0362724
0
LINE
8
BLACK
6
CONTINUOUS
10
0.538729
20
-0.0362724
11
0.532123
21
-0.0434483
0
LINE
8
BLACK
6
CONTINUOUS
10
0.532123
20
-0.0434483
11
0.524426
21
-0.049439
0
LINE
8
BLACK
6
CONTINUOUS
10
0.524426
20
-0.049439
11
0.515848
21
-0.0540811
0
LINE
8
BLACK
6
CONTINUOUS
10
0.515848
20
-0.0540811
11
0.506623
21
-0.057248
0
LINE
8
BLACK
6
CONTINUOUS
10
0.506623
20
-0.057248
11
0.497003
21
-0.0588534
0
LINE
8
BLACK
6
CONTINUOUS
10
0.497003
20
-0.0588534
11
0.487249
21
-0.0588534
0
LINE
8
BLACK
6
CONTINUOUS
10
0.487249
20
-0.0588534
11
0.477629
21
-0.057248
0
LINE
8
BLACK
6
CONTINUOUS
10
0.477629
20
-0.057248
11
0.468404
21
-0.0540811
0
LINE
8
BLACK
6
CONTINUOUS
10
0.468404
20
-0.0540811
11
0.459826
21
-0.049439
0
LINE
8
BLACK
6
CONTINUOUS
10
0.459826
20
-0.049439
11
0.452129
21
-0.0434483
0
LINE
8
BLACK
6
CONTINUOUS
10
0.452129
20
-0.0434483
11
0.445523
21
-0.0362724
0
LINE
8
BLACK
6
CONTINUOUS
10
0.445523
20
-0.0362724
11
0.440189
21
-0.0281071
0
LINE
8
BLACK
6
CONTINUOUS
10
0.440189
20
-0.0281071
11
0.436271
21
-0.0191752
0
LINE
8
BLACK
6
CONTINUOUS
10
0.436271
20
-0.0191752
11
0.433876
21
-0.00972016
0
LINE
8
BLACK
6
CONTINUOUS
10
0.433876
20
-0.00972016
11
0.433071
21
0
0
LINE
8
BLACK
6
CONTINUOUS
10
0.433071
20
0
11
0.433876
21
0.00972016
0
LINE
8
BLACK
6
CONTINUOUS
10
0.433876
20
0.00972016
11
0.436271
21
0.0191752
0
LINE
8
BLACK
6
CONTINUOUS
10
0.436271
20
0.0191752
11
0.440189
21
0.0281071
0
LINE
8
BLACK
6
CONTINUOUS
10
0.440189
20
0.0281071
11
0.445523
21
0.0362724
0
LINE
8
BLACK
6
CONTINUOUS
10
0.445523
20
0.0362724
11
0.452129
21
0.0434483
0
LINE
8
BLACK
6
CONTINUOUS
10
0.452129
20
0.0434483
11
0.459826
21
0.049439
0
LINE
8
BLACK
6
CONTINUOUS
10
0.459826
20
0.049439
11
0.468404
21
0.0540811
0
LINE
8
BLACK
6
CONTINUOUS
10
0.468404
20
0.0540811
11
0.477629
21
0.057248
0
LINE
8
BLACK
6
CONTINUOUS
10
0.477629
20
0.057248
11
0.487249
21
0.0588534
0
LINE
8
BLACK
6
CONTINUOUS
10
0.487249
20
0.0588534
11
0.497003
21
0.0588534
0
LINE
8
BLACK
6
CONTINUOUS
10
0.497003
20
0.0588534
11
0.506623
21
0.057248
0
LINE
8
BLACK
6
CONTINUOUS
10
0.900324
20
0.057248
11
0.909549
21
0.0540811
0
LINE
8
BLACK
6
CONTINUOUS
10
0.909549
20
0.0540811
11
0.918127
21
0.049439
0
LINE
8
BLACK
6
CONTINUOUS
10
0.918127
20
0.049439
11
0.925824
21
0.0434483
0
LINE
8
BLACK
6
CONTINUOUS
10
0.925824
20
0.0434483
11
0.93243
21
0.0362724
0
LINE
8
BLACK
6
CONTINUOUS
10
0.93243
20
0.0362724
11
0.937764
21
0.0281071
0
LINE
8
BLACK
6
CONTINUOUS
10
0.937764
20
0.0281071
11
0.941682
21
0.0191752
0
LINE
8
BLACK
6
CONTINUOUS
10
0.941682
20
0.0191752
11
0.944076
21
0.00972016
0
LINE
8
BLACK
6
CONTINUOUS
10
0.944076
20
0.00972016
11
0.944882
21
0
0
LINE
8
BLACK
6
CONTINUOUS
10
0.944882
20
0
11
0.944076
21
-0.00972016
0
LINE
8
BLACK
6
CONTINUOUS
10
0.944076
20
-0.00972016
11
0.941682
21
-0.0191752
0
LINE
8
BLACK
6
CONTINUOUS
10
0.941682
20
-0.0191752
11
0.937764
21
-0.0281071
0
LINE
8
BLACK
6
CONTINUOUS
10
0.937764
20
-0.0281071
11
0.93243
21
-0.0362724
0
LINE
8
BLACK
6
CONTINUOUS
10
0.93243
20
-0.0362724
11
0.925824
21
-0.0434483
0
LINE
8
BLACK
6
CONTINUOUS
10
0.925824
20
-0.0434483
11
0.918127
21
-0.049439
0
LINE
8
BLACK
6
CONTINUOUS
10
0.918127
20
-0.049439
11
0.909549
21
-0.0540811
0
LINE
8
BLACK
6
CONTINUOUS
10
0.909549
20
-0.0540811
11
0.900324
21
-0.057248
0
LINE
8
BLACK
6
CONTINUOUS
10
0.900324
20
-0.057248
11
0.890704
21
-0.0588534
0
LINE
8
BLACK
6
CONTINUOUS
10
0.890704
20
-0.0588534
11
0.88095
21
-0.0588534
0
LINE
8
BLACK
6
CONTINUOUS
10
0.88095
20
-0.0588534
11
0.87133
21
-0.057248
0
LINE
8
BLACK
6
CONTINUOUS
10
0.87133
20
-0.057248
11
0.862105
21
-0.0540811
0
LINE
8
BLACK
6
CONTINUOUS
10
0.862105
20
-0.0540811
11
0.853527
21
-0.049439
0
LINE
8
BLACK
6
CONTINUOUS
10
0.853527
20
-0.049439
11
0.84583
21
-0.0434483
0
LINE
8
BLACK
6
CONTINUOUS
10
0.84583
20
-0.0434483
11
0.839224
21
-0.0362724
0
LINE
8
BLACK
6
CONTINUOUS
10
0.839224
20
-0.0362724
11
0.833889
21
-0.0281071
0
LINE
8
BLACK
6
CONTINUOUS
10
0.833889
20
-0.0281071
11
0.829971
21
-0.0191752
0
LINE
8
BLACK
6
CONTINUOUS
10
0.829971
20
-0.0191752
11
0.827577
21
-0.00972016
0
LINE
8
BLACK
6
CONTINUOUS
10
0.827577
20
-0.00972016
11
0.826772
21
0
0
LINE
8
BLACK
6
CONTINUOUS
10
0.826772
20
0
11
0.827577
21
0.00972016
0
LINE
8
BLACK
6
CONTINUOUS
10
0.827577
20
0.00972016
11
0.829971
21
0.0191752
0
LINE
8
BLACK
6
CONTINUOUS
10
0.829971
20
0.0191752
11
0.833889
21
0.0281071
0
LINE
8
BLACK
6
CONTINUOUS
10
0.833889
20
0.0281071
11
0.839224
21
0.0362724
0
LINE
8
BLACK
6
CONTINUOUS
10
0.839224
20
0.0362724
11
0.84583
21
0.0434483
0
LINE
8
BLACK
6
CONTINUOUS
10
0.84583
20
0.0434483
11
0.853527
21
0.049439
0
LINE
8
BLACK
6
CONTINUOUS
10
0.853527
20
0.049439
11
0.862105
21
0.0540811
0
LINE
8
BLACK
6
CONTINUOUS
10
0.862105
20
0.0540811
11
0.87133
21
0.057248
0
LINE
8
BLACK
6
CONTINUOUS
10
0.87133
20
0.057248
11
0.88095
21
0.0588534
0
LINE
8
BLACK
6
CONTINUOUS
10
0.88095
20
0.0588534
11
0.890704
21
0.0588534
0
LINE
8
BLACK
6
CONTINUOUS
10
0.890704
20
0.0588534
11
0.900324
21
0.057248
0
LINE
8
BLACK
6
CONTINUOUS
10
0.854959
20
0.176371
11
0.859487
21
0.174064
0
LINE
8
BLACK
6
CONTINUOUS
10
0.859487
20
0.174064
11
0.86308
21
0.170471
0
LINE
8
BLACK
6
CONTINUOUS
10
0.86308
20
0.170471
11
0.865386
21
0.165944
0
LINE
8
BLACK
6
CONTINUOUS
10
0.865386
20
0.165944
11
0.866181
21
0.160925
0
LINE
8
BLACK
6
CONTINUOUS
10
0.866181
20
0.160925
11
0.866976
21
0.165944
0
LINE
8
BLACK
6
CONTINUOUS
10
0.866976
20
0.165944
11
0.869283
21
0.170471
0
LINE
8
BLACK
6
CONTINUOUS
10
0.869283
20
0.170471
11
0.872876
21
0.174064
0
LINE
8
BLACK
6
CONTINUOUS
10
0.872876
20
0.174064
11
0.877403
21
0.176371
0
LINE
8
BLACK
6
CONTINUOUS
10
0.877403
20
0.176371
11
0.882421
21
0.177165
0
LINE
8
BLACK
6
CONTINUOUS
10
0.882421
20
0.177165
11
0.899154
21
0.177165
0
LINE
8
BLACK
6
CONTINUOUS
10
0.899154
20
0.177165
11
0.904172
21
0.176371
0
LINE
8
BLACK
6
CONTINUOUS
10
0.904172
20
0.176371
11
0.908699
21
0.174064
0
LINE
8
BLACK
6
CONTINUOUS
10
0.908699
20
0.174064
11
0.912292
21
0.170471
0
LINE
8
BLACK
6
CONTINUOUS
10
0.912292
20
0.170471
11
0.914599
21
0.165944
0
LINE
8
BLACK
6
CONTINUOUS
10
0.914599
20
0.165944
11
0.915394
21
0.160925
0
LINE
8
BLACK
6
CONTINUOUS
10
0.915394
20
0.160925
11
0.916189
21
0.165944
0
LINE
8
BLACK
6
CONTINUOUS
10
0.916189
20
0.165944
11
0.918495
21
0.170471
0
LINE
8
BLACK
6
CONTINUOUS
10
0.918495
20
0.170471
11
0.922088
21
0.174064
0
LINE
8
BLACK
6
CONTINUOUS
10
0.922088
20
0.174064
11
0.926615
21
0.176371
0
LINE
8
BLACK
6
CONTINUOUS
10
0.926615
20
0.176371
11
0.931634
21
0.177165
0
LINE
8
BLACK
6
CONTINUOUS
10
0.931634
20
0.177165
11
0.948366
21
0.177165
0
LINE
8
BLACK
6
CONTINUOUS
10
0.948366
20
0.177165
11
0.953385
21
0.176371
0
LINE
8
BLACK
6
CONTINUOUS
10
0.953385
20
0.176371
11
0.957912
21
0.174064
0
LINE
8
BLACK
6
CONTINUOUS
10
0.957912
20
0.174064
11
0.961505
21
0.170471
0
LINE
8
BLACK
6
CONTINUOUS
10
0.961505
20
0.170471
11
0.963811
21
0.165944
0
LINE
8
BLACK
6
CONTINUOUS
10
0.963811
20
0.165944
11
0.964606
21
0.160925
0
LINE
8
BLACK
6
CONTINUOUS
10
0.964606
20
0.160925
11
0.965401
21
0.165944
0
LINE
8
BLACK
6
CONTINUOUS
10
0.965401
20
0.165944
11
0.967708
21
0.170471
0
LINE
8
BLACK
6
CONTINUOUS
10
0.967708
20
0.170471
11
0.971301
21
0.174064
0
LINE
8
BLACK
6
CONTINUOUS
10
0.971301
20
0.174064
11
0.975828
21
0.176371
0
LINE
8
BLACK
6
CONTINUOUS
10
0.975828
20
0.176371
11
0.980846
21
0.177165
0
LINE
8
BLACK
6
CONTINUOUS
10
0.980846
20
0.177165
11
0.997579
21
0.177165
0
LINE
8
BLACK
6
CONTINUOUS
10
0.997579
20
0.177165
11
1.0026
21
0.176371
0
LINE
8
BLACK
6
CONTINUOUS
10
1.0026
20
0.176371
11
1.00712
21
0.174064
0
LINE
8
BLACK
6
CONTINUOUS
10
1.00712
20
0.174064
11
1.01072
21
0.170471
0
LINE
8
BLACK
6
CONTINUOUS
10
1.01072
20
0.170471
11
1.01302
21
0.165944
0
LINE
8
BLACK
6
CONTINUOUS
10
1.01302
20
0.165944
11
1.01382
21
0.160925
0
LINE
8
BLACK
6
CONTINUOUS
10
1.01382
20
0.160925
11
1.01461
21
0.165944
0
LINE
8
BLACK
6
CONTINUOUS
10
1.01461
20
0.165944
11
1.01692
21
0.170471
0
LINE
8
BLACK
6
CONTINUOUS
10
1.01692
20
0.170471
11
1.02051
21
0.174064
0
LINE
8
BLACK
6
CONTINUOUS
10
1.02051
20
0.174064
11
1.02504
21
0.176371
0
LINE
8
BLACK
6
CONTINUOUS
10
1.02504
20
0.176371
11
1.03006
21
0.177165
0
LINE
8
BLACK
6
CONTINUOUS
10
1.03006
20
0.177165
11
1.04679
21
0.177165
0
LINE
8
BLACK
6
CONTINUOUS
10
1.04679
20
0.177165
11
1.05181
21
0.176371
0
LINE
8
BLACK
6
CONTINUOUS
10
1.05181
20
0.176371
11
1.05634
21
0.174064
0
LINE
8
BLACK
6
CONTINUOUS
10
1.05634
20
0.174064
11
1.05993
21
0.170471
0
LINE
8
BLACK
6
CONTINUOUS
10
1.05993
20
0.170471
11
1.06224
21
0.165944
0
LINE
8
BLACK
6
CONTINUOUS
10
1.06224
20
0.165944
11
1.06303
21
0.160925
0
LINE
8
BLACK
6
CONTINUOUS
10
1.06303
20
0.160925
11
1.06303
21
0.102854
0
LINE
8
BLACK
6
CONTINUOUS
10
1.06303
20
0.102854
11
1.06224
21
0.0978358
0
LINE
8
BLACK
6
CONTINUOUS
10
1.06224
20
0.0978358
11
1.05993
21
0.0933086
0
LINE
8
BLACK
6
CONTINUOUS
10
1.05993
20
0.0933086
11
1.05634
21
0.0897157
0
LINE
8
BLACK
6
CONTINUOUS
10
1.05634
20
0.0897157
11
1.05181
21
0.087409
0
LINE
8
BLACK
6
CONTINUOUS
10
1.05181
20
0.087409
11
1.04679
21
0.0866142
0
LINE
8
BLACK
6
CONTINUOUS
10
1.04679
20
0.0866142
11
1.03006
21
0.0866142
0
LINE
8
BLACK
6
CONTINUOUS
10
1.03006
20
0.0866142
11
1.02504
21
0.087409
0
LINE
8
BLACK
6
CONTINUOUS
10
1.02504
20
0.087409
11
1.02051
21
0.0897157
0
LINE
8
BLACK
6
CONTINUOUS
10
1.02051
20
0.0897157
11
1.01692
21
0.0933086
0
LINE
8
BLACK
6
CONTINUOUS
10
1.01692
20
0.0933086
11
1.01461
21
0.0978358
0
LINE
8
BLACK
6
CONTINUOUS
10
1.01461
20
0.0978358
11
1.01382
21
0.102854
0
LINE
8
BLACK
6
CONTINUOUS
10
1.01382
20
0.102854
11
1.01302
21
0.0978358
0
LINE
8
BLACK
6
CONTINUOUS
10
1.01302
20
0.0978358
11
1.01072
21
0.0933086
0
LINE
8
BLACK
6
CONTINUOUS
10
1.01072
20
0.0933086
11
1.00712
21
0.0897157
0
LINE
8
BLACK
6
CONTINUOUS
10
1.00712
20
0.0897157
11
1.0026
21
0.087409
0
LINE
8
BLACK
6
CONTINUOUS
10
1.0026
20
0.087409
11
0.997579
21
0.0866142
0
LINE
8
BLACK
6
CONTINUOUS
10
0.997579
20
0.0866142
11
0.980846
21
0.0866142
0
LINE
8
BLACK
6
CONTINUOUS
10
0.980846
20
0.0866142
11
0.975828
21
0.087409
0
LINE
8
BLACK
6
CONTINUOUS
10
0.975828
20
0.087409
11
0.971301
21
0.0897157
0
LINE
8
BLACK
6
CONTINUOUS
10
0.971301
20
0.0897157
11
0.967708
21
0.0933086
0
LINE
8
BLACK
6
CONTINUOUS
10
0.967708
20
0.0933086
11
0.965401
21
0.0978358
0
LINE
8
BLACK
6
CONTINUOUS
10
0.965401
20
0.0978358
11
0.964606
21
0.102854
0
LINE
8
BLACK
6
CONTINUOUS
10
0.964606
20
0.102854
11
0.963811
21
0.0978358
0
LINE
8
BLACK
6
CONTINUOUS
10
0.963811
20
0.0978358
11
0.961505
21
0.0933086
0
LINE
8
BLACK
6
CONTINUOUS
10
0.961505
20
0.0933086
11
0.957912
21
0.0897157
0
LINE
8
BLACK
6
CONTINUOUS
10
0.957912
20
0.0897157
11
0.953385
21
0.087409
0
LINE
8
BLACK
6
CONTINUOUS
10
0.953385
20
0.087409
11
0.948366
21
0.0866142
0
LINE
8
BLACK
6
CONTINUOUS
10
0.948366
20
0.0866142
11
0.931634
21
0.0866142
0
LINE
8
BLACK
6
CONTINUOUS
10
0.931634
20
0.0866142
11
0.926615
21
0.087409
0
LINE
8
BLACK
6
CONTINUOUS
10
0.926615
20
0.087409
11
0.922088
21
0.0897157
0
LINE
8
BLACK
6
CONTINUOUS
10
0.922088
20
0.0897157
11
0.918495
21
0.0933086
0
LINE
8
BLACK
6
CONTINUOUS
10
0.918495
20
0.0933086
11
0.916189
21
0.0978358
0
LINE
8
BLACK
6
CONTINUOUS
10
0.916189
20
0.0978358
11
0.915394
21
0.102854
0
LINE
8
BLACK
6
CONTINUOUS
10
0.915394
20
0.102854
11
0.914599
21
0.0978358
0
LINE
8
BLACK
6
CONTINUOUS
10
0.914599
20
0.0978358
11
0.912292
21
0.0933086
0
LINE
8
BLACK
6
CONTINUOUS
10
0.912292
20
0.0933086
11
0.908699
21
0.0897157
0
LINE
8
BLACK
6
CONTINUOUS
10
0.908699
20
0.0897157
11
0.904172
21
0.087409
0
LINE
8
BLACK
6
CONTINUOUS
10
0.904172
20
0.087409
11
0.899154
21
0.0866142
0
LINE
8
BLACK
6
CONTINUOUS
10
0.899154
20
0.0866142
11
0.882421
21
0.0866142
0
LINE
8
BLACK
6
CONTINUOUS
10
0.882421
20
0.0866142
11
0.877403
21
0.087409
0
LINE
8
BLACK
6
CONTINUOUS
10
0.877403
20
0.087409
11
0.872876
21
0.0897157
0
LINE
8
BLACK
6
CONTINUOUS
10
0.872876
20
0.0897157
11
0.869283
21
0.0933086
0
LINE
8
BLACK
6
CONTINUOUS
10
0.869283
20
0.0933086
11
0.866976
21
0.0978358
0
LINE
8
BLACK
6
CONTINUOUS
10
0.866976
20
0.0978358
11
0.866181
21
0.102854
0
LINE
8
BLACK
6
CONTINUOUS
10
0.866181
20
0.102854
11
0.865386
21
0.0978358
0
LINE
8
BLACK
6
CONTINUOUS
10
0.865386
20
0.0978358
11
0.86308
21
0.0933086
0
LINE
8
BLACK
6
CONTINUOUS
10
0.86308
20
0.0933086
11
0.859487
21
0.0897157
0
LINE
8
BLACK
6
CONTINUOUS
10
0.859487
20
0.0897157
11
0.854959
21
0.087409
0
LINE
8
BLACK
6
CONTINUOUS
10
0.854959
20
0.087409
11
0.849941
21
0.0866142
0
LINE
8
BLACK
6
CONTINUOUS
10
0.849941
20
0.0866142
11
0.833209
21
0.0866142
0
LINE
8
BLACK
6
CONTINUOUS
10
0.833209
20
0.0866142
11
0.82819
21
0.087409
0
LINE
8
BLACK
6
CONTINUOUS
10
0.82819
20
0.087409
11
0.823663
21
0.0897157
0
LINE
8
BLACK
6
CONTINUOUS
10
0.823663
20
0.0897157
11
0.82007
21
0.0933086
0
LINE
8
BLACK
6
CONTINUOUS
10
0.82007
20
0.0933086
11
0.817763
21
0.0978358
0
LINE
8
BLACK
6
CONTINUOUS
10
0.817763
20
0.0978358
11
0.816969
21
0.102854
0
LINE
8
BLACK
6
CONTINUOUS
10
0.816969
20
0.102854
11
0.816969
21
0.160925
0
LINE
8
BLACK
6
CONTINUOUS
10
0.816969
20
0.160925
11
0.817763
21
0.165944
0
LINE
8
BLACK
6
CONTINUOUS
10
0.817763
20
0.165944
11
0.82007
21
0.170471
0
LINE
8
BLACK
6
CONTINUOUS
10
0.82007
20
0.170471
11
0.823663
21
0.174064
0
LINE
8
BLACK
6
CONTINUOUS
10
0.823663
20
0.174064
11
0.82819
21
0.176371
0
LINE
8
BLACK
6
CONTINUOUS
10
0.82819
20
0.176371
11
0.833209
21
0.177165
0
LINE
8
BLACK
6
CONTINUOUS
10
0.833209
20
0.177165
11
0.849941
21
0.177165
0
LINE
8
BLACK
6
CONTINUOUS
10
0.849941
20
0.177165
11
0.854959
21
0.176371
0
LINE
8
BLACK
6
CONTINUOUS
10
0.111451
20
0.175872
11
0.116436
21
0.174128
0
LINE
8
BLACK
6
CONTINUOUS
10
0.116436
20
0.174128
11
0.120685
21
0.170992
0
LINE
8
BLACK
6
CONTINUOUS
10
0.120685
20
0.170992
11
0.123821
21
0.166743
0
LINE
8
BLACK
6
CONTINUOUS
10
0.123821
20
0.166743
11
0.125565
21
0.161758
0
LINE
8
BLACK
6
CONTINUOUS
10
0.125565
20
0.161758
11
0.125874
21
0.158465
0
LINE
8
BLACK
6
CONTINUOUS
10
0.125874
20
0.158465
11
0.125874
21
0.13878
0
LINE
8
BLACK
6
CONTINUOUS
10
0.125874
20
0.13878
11
0.125565
21
0.135486
0
LINE
8
BLACK
6
CONTINUOUS
10
0.125565
20
0.135486
11
0.123821
21
0.130501
0
LINE
8
BLACK
6
CONTINUOUS
10
0.123821
20
0.130501
11
0.120685
21
0.126252
0
LINE
8
BLACK
6
CONTINUOUS
10
0.120685
20
0.126252
11
0.116436
21
0.123116
0
LINE
8
BLACK
6
CONTINUOUS
10
0.116436
20
0.123116
11
0.111451
21
0.121372
0
LINE
8
BLACK
6
CONTINUOUS
10
0.111451
20
0.121372
11
0.108157
21
0.121063
0
LINE
8
BLACK
6
CONTINUOUS
10
0.108157
20
0.121063
11
0.0215433
21
0.121063
0
LINE
8
BLACK
6
CONTINUOUS
10
0.0215433
20
0.121063
11
0.0182496
21
0.121372
0
LINE
8
BLACK
6
CONTINUOUS
10
0.0182496
20
0.121372
11
0.0132649
21
0.123116
0
LINE
8
BLACK
6
CONTINUOUS
10
0.0132649
20
0.123116
11
0.00901583
21
0.126252
0
LINE
8
BLACK
6
CONTINUOUS
10
0.00901583
20
0.126252
11
0.00587984
21
0.130501
0
LINE
8
BLACK
6
CONTINUOUS
10
0.00587984
20
0.130501
11
0.00413563
21
0.135486
0
LINE
8
BLACK
6
CONTINUOUS
10
0.00413563
20
0.135486
11
0.00382677
21
0.13878
0
LINE
8
BLACK
6
CONTINUOUS
10
0.00382677
20
0.13878
11
0.00382677
21
0.158465
0
LINE
8
BLACK
6
CONTINUOUS
10
0.00382677
20
0.158465
11
0.00413563
21
0.161758
0
LINE
8
BLACK
6
CONTINUOUS
10
0.00413563
20
0.161758
11
0.00587984
21
0.166743
0
LINE
8
BLACK
6
CONTINUOUS
10
0.00587984
20
0.166743
11
0.00901583
21
0.170992
0
LINE
8
BLACK
6
CONTINUOUS
10
0.00901583
20
0.170992
11
0.0132649
21
0.174128
0
LINE
8
BLACK
6
CONTINUOUS
10
0.0132649
20
0.174128
11
0.0182496
21
0.175872
0
LINE
8
BLACK
6
CONTINUOUS
10
0.0182496
20
0.175872
11
0.0215433
21
0.176181
0
LINE
8
BLACK
6
CONTINUOUS
10
0.0215433
20
0.176181
11
0.108157
21
0.176181
0
LINE
8
BLACK
6
CONTINUOUS
10
0.108157
20
0.176181
11
0.111451
21
0.175872
0
LINE
8
BLACK
6
CONTINUOUS
10
0.675183
20
0.183288
11
0.679779
21
0.180946
0
LINE
8
BLACK
6
CONTINUOUS
10
0.679779
20
0.180946
11
0.683426
21
0.177299
0
LINE
8
BLACK
6
CONTINUOUS
10
0.683426
20
0.177299
11
0.685768
21
0.172703
0
LINE
8
BLACK
6
CONTINUOUS
10
0.685768
20
0.172703
11
0.686575
21
0.167608
0
LINE
8
BLACK
6
CONTINUOUS
10
0.686575
20
0.167608
11
0.686575
21
0.150384
0
LINE
8
BLACK
6
CONTINUOUS
10
0.686575
20
0.150384
11
0.685768
21
0.145289
0
LINE
8
BLACK
6
CONTINUOUS
10
0.685768
20
0.145289
11
0.683426
21
0.140694
0
LINE
8
BLACK
6
CONTINUOUS
10
0.683426
20
0.140694
11
0.679779
21
0.137046
0
LINE
8
BLACK
6
CONTINUOUS
10
0.679779
20
0.137046
11
0.675183
21
0.134705
0
LINE
8
BLACK
6
CONTINUOUS
10
0.675183
20
0.134705
11
0.670089
21
0.133898
0
LINE
8
BLACK
6
CONTINUOUS
10
0.670089
20
0.133898
11
0.649911
21
0.133898
0
LINE
8
BLACK
6
CONTINUOUS
10
0.649911
20
0.133898
11
0.644817
21
0.134705
0
LINE
8
BLACK
6
CONTINUOUS
10
0.644817
20
0.134705
11
0.640221
21
0.137046
0
LINE
8
BLACK
6
CONTINUOUS
10
0.640221
20
0.137046
11
0.636574
21
0.140694
0
LINE
8
BLACK
6
CONTINUOUS
10
0.636574
20
0.140694
11
0.634232
21
0.145289
0
LINE
8
BLACK
6
CONTINUOUS
10
0.634232
20
0.145289
11
0.633425
21
0.150384
0
LINE
8
BLACK
6
CONTINUOUS
10
0.633425
20
0.150384
11
0.633425
21
0.167608
0
LINE
8
BLACK
6
CONTINUOUS
10
0.633425
20
0.167608
11
0.634232
21
0.172703
0
LINE
8
BLACK
6
CONTINUOUS
10
0.634232
20
0.172703
11
0.636574
21
0.177299
0
LINE
8
BLACK
6
CONTINUOUS
10
0.636574
20
0.177299
11
0.640221
21
0.180946
0
LINE
8
BLACK
6
CONTINUOUS
10
0.640221
20
0.180946
11
0.644817
21
0.183288
0
LINE
8
BLACK
6
CONTINUOUS
10
0.644817
20
0.183288
11
0.649911
21
0.184094
0
LINE
8
BLACK
6
CONTINUOUS
10
0.649911
20
0.184094
11
0.670089
21
0.184094
0
LINE
8
BLACK
6
CONTINUOUS
10
0.670089
20
0.184094
11
0.675183
21
0.183288
0
LINE
8
BLACK
6
CONTINUOUS
10
0.480183
20
0.204292
11
0.484779
21
0.20195
0
LINE
8
BLACK
6
CONTINUOUS
10
0.484779
20
0.20195
11
0.488426
21
0.198303
0
LINE
8
BLACK
6
CONTINUOUS
10
0.488426
20
0.198303
11
0.490768
21
0.193707
0
LINE
8
BLACK
6
CONTINUOUS
10
0.490768
20
0.193707
11
0.491575
21
0.188612
0
LINE
8
BLACK
6
CONTINUOUS
10
0.491575
20
0.188612
11
0.491575
21
0.171388
0
LINE
8
BLACK
6
CONTINUOUS
10
0.491575
20
0.171388
11
0.490768
21
0.166293
0
LINE
8
BLACK
6
CONTINUOUS
10
0.490768
20
0.166293
11
0.488426
21
0.161697
0
LINE
8
BLACK
6
CONTINUOUS
10
0.488426
20
0.161697
11
0.484779
21
0.15805
0
LINE
8
BLACK
6
CONTINUOUS
10
0.484779
20
0.15805
11
0.480183
21
0.155708
0
LINE
8
BLACK
6
CONTINUOUS
10
0.480183
20
0.155708
11
0.475089
21
0.154902
0
LINE
8
BLACK
6
CONTINUOUS
10
0.475089
20
0.154902
11
0.454911
21
0.154902
0
LINE
8
BLACK
6
CONTINUOUS
10
0.454911
20
0.154902
11
0.449817
21
0.155708
0
LINE
8
BLACK
6
CONTINUOUS
10
0.449817
20
0.155708
11
0.445221
21
0.15805
0
LINE
8
BLACK
6
CONTINUOUS
10
0.445221
20
0.15805
11
0.441574
21
0.161697
0
LINE
8
BLACK
6
CONTINUOUS
10
0.441574
20
0.161697
11
0.439232
21
0.166293
0
LINE
8
BLACK
6
CONTINUOUS
10
0.439232
20
0.166293
11
0.438425
21
0.171388
0
LINE
8
BLACK
6
CONTINUOUS
10
0.438425
20
0.171388
11
0.438425
21
0.188612
0
LINE
8
BLACK
6
CONTINUOUS
10
0.438425
20
0.188612
11
0.439232
21
0.193707
0
LINE
8
BLACK
6
CONTINUOUS
10
0.439232
20
0.193707
11
0.441574
21
0.198303
0
LINE
8
BLACK
6
CONTINUOUS
10
0.441574
20
0.198303
11
0.445221
21
0.20195
0
LINE
8
BLACK
6
CONTINUOUS
10
0.445221
20
0.20195
11
0.449817
21
0.204292
0
LINE
8
BLACK
6
CONTINUOUS
10
0.449817
20
0.204292
11
0.454911
21
0.205098
0
LINE
8
BLACK
6
CONTINUOUS
10
0.454911
20
0.205098
11
0.475089
21
0.205098
0
LINE
8
BLACK
6
CONTINUOUS
10
0.475089
20
0.205098
11
0.480183
21
0.204292
0
LINE
8
BLACK
6
CONTINUOUS
10
0.333407
20
0.224834
11
0.335961
21
0.223127
0
LINE
8
BLACK
6
CONTINUOUS
10
0.335961
20
0.223127
11
0.336299
21
0.222621
0
LINE
8
BLACK
6
CONTINUOUS
10
0.336299
20
0.222621
11
0.336637
21
0.223127
0
LINE
8
BLACK
6
CONTINUOUS
10
0.336637
20
0.223127
11
0.339191
21
0.224834
0
LINE
8
BLACK
6
CONTINUOUS
10
0.339191
20
0.224834
11
0.342205
21
0.225433
0
LINE
8
BLACK
6
CONTINUOUS
10
0.342205
20
0.225433
11
0.367795
21
0.225433
0
LINE
8
BLACK
6
CONTINUOUS
10
0.367795
20
0.225433
11
0.370809
21
0.224834
0
LINE
8
BLACK
6
CONTINUOUS
10
0.370809
20
0.224834
11
0.373363
21
0.223127
0
LINE
8
BLACK
6
CONTINUOUS
10
0.373363
20
0.223127
11
0.373701
21
0.222621
0
LINE
8
BLACK
6
CONTINUOUS
10
0.373701
20
0.222621
11
0.374039
21
0.223127
0
LINE
8
BLACK
6
CONTINUOUS
10
0.374039
20
0.223127
11
0.376593
21
0.224834
0
LINE
8
BLACK
6
CONTINUOUS
10
0.376593
20
0.224834
11
0.379606
21
0.225433
0
LINE
8
BLACK
6
CONTINUOUS
10
0.379606
20
0.225433
11
0.405197
21
0.225433
0
LINE
8
BLACK
6
CONTINUOUS
10
0.405197
20
0.225433
11
0.40821
21
0.224834
0
LINE
8
BLACK
6
CONTINUOUS
10
0.40821
20
0.224834
11
0.410765
21
0.223127
0
LINE
8
BLACK
6
CONTINUOUS
10
0.410765
20
0.223127
11
0.412471
21
0.220572
0
LINE
8
BLACK
6
CONTINUOUS
10
0.412471
20
0.220572
11
0.413071
21
0.217559
0
LINE
8
BLACK
6
CONTINUOUS
10
0.413071
20
0.217559
11
0.413071
21
0.175827
0
LINE
8
BLACK
6
CONTINUOUS
10
0.413071
20
0.175827
11
0.412471
21
0.172814
0
LINE
8
BLACK
6
CONTINUOUS
10
0.412471
20
0.172814
11
0.410765
21
0.170259
0
LINE
8
BLACK
6
CONTINUOUS
10
0.410765
20
0.170259
11
0.40821
21
0.168552
0
LINE
8
BLACK
6
CONTINUOUS
10
0.40821
20
0.168552
11
0.405197
21
0.167953
0
LINE
8
BLACK
6
CONTINUOUS
10
0.405197
20
0.167953
11
0.379606
21
0.167953
0
LINE
8
BLACK
6
CONTINUOUS
10
0.379606
20
0.167953
11
0.376593
21
0.168552
0
LINE
8
BLACK
6
CONTINUOUS
10
0.376593
20
0.168552
11
0.374039
21
0.170259
0
LINE
8
BLACK
6
CONTINUOUS
10
0.374039
20
0.170259
11
0.373701
21
0.170765
0
LINE
8
BLACK
6
CONTINUOUS
10
0.373701
20
0.170765
11
0.373363
21
0.170259
0
LINE
8
BLACK
6
CONTINUOUS
10
0.373363
20
0.170259
11
0.370809
21
0.168552
0
LINE
8
BLACK
6
CONTINUOUS
10
0.370809
20
0.168552
11
0.367795
21
0.167953
0
LINE
8
BLACK
6
CONTINUOUS
10
0.367795
20
0.167953
11
0.342205
21
0.167953
0
LINE
8
BLACK
6
CONTINUOUS
10
0.342205
20
0.167953
11
0.339191
21
0.168552
0
LINE
8
BLACK
6
CONTINUOUS
10
0.339191
20
0.168552
11
0.336637
21
0.170259
0
LINE
8
BLACK
6
CONTINUOUS
10
0.336637
20
0.170259
11
0.336299
21
0.170765
0
LINE
8
BLACK
6
CONTINUOUS
10
0.336299
20
0.170765
11
0.335961
21
0.170259
0
LINE
8
BLACK
6
CONTINUOUS
10
0.335961
20
0.170259
11
0.333407
21
0.168552
0
LINE
8
BLACK
6
CONTINUOUS
10
0.333407
20
0.168552
11
0.330394
21
0.167953
0
LINE
8
BLACK
6
CONTINUOUS
10
0.330394
20
0.167953
11
0.304803
21
0.167953
0
LINE
8
BLACK
6
CONTINUOUS
10
0.304803
20
0.167953
11
0.30179
21
0.168552
0
LINE
8
BLACK
6
CONTINUOUS
10
0.30179
20
0.168552
11
0.299235
21
0.170259
0
LINE
8
BLACK
6
CONTINUOUS
10
0.299235
20
0.170259
11
0.297529
21
0.172814
0
LINE
8
BLACK
6
CONTINUOUS
10
0.297529
20
0.172814
11
0.296929
21
0.175827
0
LINE
8
BLACK
6
CONTINUOUS
10
0.296929
20
0.175827
11
0.296929
21
0.217559
0
LINE
8
BLACK
6
CONTINUOUS
10
0.296929
20
0.217559
11
0.297529
21
0.220572
0
LINE
8
BLACK
6
CONTINUOUS
10
0.297529
20
0.220572
11
0.299235
21
0.223127
0
LINE
8
BLACK
6
CONTINUOUS
10
0.299235
20
0.223127
11
0.30179
21
0.224834
0
LINE
8
BLACK
6
CONTINUOUS
10
0.30179
20
0.224834
11
0.304803
21
0.225433
0
LINE
8
BLACK
6
CONTINUOUS
10
0.304803
20
0.225433
11
0.330394
21
0.225433
0
LINE
8
BLACK
6
CONTINUOUS
10
0.330394
20
0.225433
11
0.333407
21
0.224834
0
LINE
8
BLACK
6
CONTINUOUS
10
0.810668
20
0.220662
11
0.815195
21
0.218355
0
LINE
8
BLACK
6
CONTINUOUS
10
0.815195
20
0.218355
11
0.818788
21
0.214762
0
LINE
8
BLACK
6
CONTINUOUS
10
0.818788
20
0.214762
11
0.821095
21
0.210235
0
LINE
8
BLACK
6
CONTINUOUS
10
0.821095
20
0.210235
11
0.82189
21
0.205217
0
LINE
8
BLACK
6
CONTINUOUS
10
0.82189
20
0.205217
11
0.82189
21
0.188484
0
LINE
8
BLACK
6
CONTINUOUS
10
0.82189
20
0.188484
11
0.821095
21
0.183466
0
LINE
8
BLACK
6
CONTINUOUS
10
0.821095
20
0.183466
11
0.818788
21
0.178939
0
LINE
8
BLACK
6
CONTINUOUS
10
0.818788
20
0.178939
11
0.815195
21
0.175346
0
LINE
8
BLACK
6
CONTINUOUS
10
0.815195
20
0.175346
11
0.810668
21
0.173039
0
LINE
8
BLACK
6
CONTINUOUS
10
0.810668
20
0.173039
11
0.80565
21
0.172244
0
LINE
8
BLACK
6
CONTINUOUS
10
0.80565
20
0.172244
11
0.747579
21
0.172244
0
LINE
8
BLACK
6
CONTINUOUS
10
0.747579
20
0.172244
11
0.74256
21
0.173039
0
LINE
8
BLACK
6
CONTINUOUS
10
0.74256
20
0.173039
11
0.738033
21
0.175346
0
LINE
8
BLACK
6
CONTINUOUS
10
0.738033
20
0.175346
11
0.73444
21
0.178939
0
LINE
8
BLACK
6
CONTINUOUS
10
0.73444
20
0.178939
11
0.732133
21
0.183466
0
LINE
8
BLACK
6
CONTINUOUS
10
0.732133
20
0.183466
11
0.731339
21
0.188484
0
LINE
8
BLACK
6
CONTINUOUS
10
0.731339
20
0.188484
11
0.731339
21
0.205217
0
LINE
8
BLACK
6
CONTINUOUS
10
0.731339
20
0.205217
11
0.732133
21
0.210235
0
LINE
8
BLACK
6
CONTINUOUS
10
0.732133
20
0.210235
11
0.73444
21
0.214762
0
LINE
8
BLACK
6
CONTINUOUS
10
0.73444
20
0.214762
11
0.738033
21
0.218355
0
LINE
8
BLACK
6
CONTINUOUS
10
0.738033
20
0.218355
11
0.74256
21
0.220662
0
LINE
8
BLACK
6
CONTINUOUS
10
0.74256
20
0.220662
11
0.747579
21
0.221457
0
LINE
8
BLACK
6
CONTINUOUS
10
0.747579
20
0.221457
11
0.74256
21
0.222252
0
LINE
8
BLACK
6
CONTINUOUS
10
0.74256
20
0.222252
11
0.738033
21
0.224558
0
LINE
8
BLACK
6
CONTINUOUS
10
0.738033
20
0.224558
11
0.73444
21
0.228151
0
LINE
8
BLACK
6
CONTINUOUS
10
0.73444
20
0.228151
11
0.732133
21
0.232678
0
LINE
8
BLACK
6
CONTINUOUS
10
0.732133
20
0.232678
11
0.731339
21
0.237697
0
LINE
8
BLACK
6
CONTINUOUS
10
0.731339
20
0.237697
11
0.731339
21
0.254429
0
LINE
8
BLACK
6
CONTINUOUS
10
0.731339
20
0.254429
11
0.732133
21
0.259448
0
LINE
8
BLACK
6
CONTINUOUS
10
0.732133
20
0.259448
11
0.73444
21
0.263975
0
LINE
8
BLACK
6
CONTINUOUS
10
0.73444
20
0.263975
11
0.738033
21
0.267568
0
LINE
8
BLACK
6
CONTINUOUS
10
0.738033
20
0.267568
11
0.74256
21
0.269874
0
LINE
8
BLACK
6
CONTINUOUS
10
0.74256
20
0.269874
11
0.747579
21
0.270669
0
LINE
8
BLACK
6
CONTINUOUS
10
0.747579
20
0.270669
11
0.74256
21
0.271464
0
LINE
8
BLACK
6
CONTINUOUS
10
0.74256
20
0.271464
11
0.738033
21
0.273771
0
LINE
8
BLACK
6
CONTINUOUS
10
0.738033
20
0.273771
11
0.73444
21
0.277364
0
LINE
8
BLACK
6
CONTINUOUS
10
0.73444
20
0.277364
11
0.732133
21
0.281891
0
LINE
8
BLACK
6
CONTINUOUS
10
0.732133
20
0.281891
11
0.731339
21
0.286909
0
LINE
8
BLACK
6
CONTINUOUS
10
0.731339
20
0.286909
11
0.731339
21
0.303642
0
LINE
8
BLACK
6
CONTINUOUS
10
0.731339
20
0.303642
11
0.732133
21
0.30866
0
LINE
8
BLACK
6
CONTINUOUS
10
0.732133
20
0.30866
11
0.73444
21
0.313187
0
LINE
8
BLACK
6
CONTINUOUS
10
0.73444
20
0.313187
11
0.738033
21
0.31678
0
LINE
8
BLACK
6
CONTINUOUS
10
0.738033
20
0.31678
11
0.74256
21
0.319087
0
LINE
8
BLACK
6
CONTINUOUS
10
0.74256
20
0.319087
11
0.747579
21
0.319882
0
LINE
8
BLACK
6
CONTINUOUS
10
0.747579
20
0.319882
11
0.74256
21
0.320677
0
LINE
8
BLACK
6
CONTINUOUS
10
0.74256
20
0.320677
11
0.738033
21
0.322983
0
LINE
8
BLACK
6
CONTINUOUS
10
0.738033
20
0.322983
11
0.73444
21
0.326576
0
LINE
8
BLACK
6
CONTINUOUS
10
0.73444
20
0.326576
11
0.732133
21
0.331104
0
LINE
8
BLACK
6
CONTINUOUS
10
0.732133
20
0.331104
11
0.731339
21
0.336122
0
LINE
8
BLACK
6
CONTINUOUS
10
0.731339
20
0.336122
11
0.731339
21
0.352854
0
LINE
8
BLACK
6
CONTINUOUS
10
0.731339
20
0.352854
11
0.732133
21
0.357873
0
LINE
8
BLACK
6
CONTINUOUS
10
0.732133
20
0.357873
11
0.73444
21
0.3624
0
LINE
8
BLACK
6
CONTINUOUS
10
0.73444
20
0.3624
11
0.738033
21
0.365993
0
LINE
8
BLACK
6
CONTINUOUS
10
0.738033
20
0.365993
11
0.74256
21
0.3683
0
LINE
8
BLACK
6
CONTINUOUS
10
0.74256
20
0.3683
11
0.747579
21
0.369094
0
LINE
8
BLACK
6
CONTINUOUS
10
0.747579
20
0.369094
11
0.74256
21
0.369889
0
LINE
8
BLACK
6
CONTINUOUS
10
0.74256
20
0.369889
11
0.738033
21
0.372196
0
LINE
8
BLACK
6
CONTINUOUS
10
0.738033
20
0.372196
11
0.73444
21
0.375789
0
LINE
8
BLACK
6
CONTINUOUS
10
0.73444
20
0.375789
11
0.732133
21
0.380316
0
LINE
8
BLACK
6
CONTINUOUS
10
0.732133
20
0.380316
11
0.731339
21
0.385335
0
LINE
8
BLACK
6
CONTINUOUS
10
0.731339
20
0.385335
11
0.731339
21
0.402067
0
LINE
8
BLACK
6
CONTINUOUS
10
0.731339
20
0.402067
11
0.732133
21
0.407085
0
LINE
8
BLACK
6
CONTINUOUS
10
0.732133
20
0.407085
11
0.73444
21
0.411613
0
LINE
8
BLACK
6
CONTINUOUS
10
0.73444
20
0.411613
11
0.738033
21
0.415206
0
LINE
8
BLACK
6
CONTINUOUS
10
0.738033
20
0.415206
11
0.74256
21
0.417512
0
LINE
8
BLACK
6
CONTINUOUS
10
0.74256
20
0.417512
11
0.747579
21
0.418307
0
LINE
8
BLACK
6
CONTINUOUS
10
0.747579
20
0.418307
11
0.80565
21
0.418307
0
LINE
8
BLACK
6
CONTINUOUS
10
0.80565
20
0.418307
11
0.810668
21
0.417512
0
LINE
8
BLACK
6
CONTINUOUS
10
0.810668
20
0.417512
11
0.815195
21
0.415206
0
LINE
8
BLACK
6
CONTINUOUS
10
0.815195
20
0.415206
11
0.818788
21
0.411613
0
LINE
8
BLACK
6
CONTINUOUS
10
0.818788
20
0.411613
11
0.821095
21
0.407085
0
LINE
8
BLACK
6
CONTINUOUS
10
0.821095
20
0.407085
11
0.82189
21
0.402067
0
LINE
8
BLACK
6
CONTINUOUS
10
0.82189
20
0.402067
11
0.82189
21
0.385335
0
LINE
8
BLACK
6
CONTINUOUS
10
0.82189
20
0.385335
11
0.821095
21
0.380316
0
LINE
8
BLACK
6
CONTINUOUS
10
0.821095
20
0.380316
11
0.818788
21
0.375789
0
LINE
8
BLACK
6
CONTINUOUS
10
0.818788
20
0.375789
11
0.815195
21
0.372196
0
LINE
8
BLACK
6
CONTINUOUS
10
0.815195
20
0.372196
11
0.810668
21
0.369889
0
LINE
8
BLACK
6
CONTINUOUS
10
0.810668
20
0.369889
11
0.80565
21
0.369094
0
LINE
8
BLACK
6
CONTINUOUS
10
0.80565
20
0.369094
11
0.810668
21
0.3683
0
LINE
8
BLACK
6
CONTINUOUS
10
0.810668
20
0.3683
11
0.815195
21
0.365993
0
LINE
8
BLACK
6
CONTINUOUS
10
0.815195
20
0.365993
11
0.818788
21
0.3624
0
LINE
8
BLACK
6
CONTINUOUS
10
0.818788
20
0.3624
11
0.821095
21
0.357873
0
LINE
8
BLACK
6
CONTINUOUS
10
0.821095
20
0.357873
11
0.82189
21
0.352854
0
LINE
8
BLACK
6
CONTINUOUS
10
0.82189
20
0.352854
11
0.82189
21
0.336122
0
LINE
8
BLACK
6
CONTINUOUS
10
0.82189
20
0.336122
11
0.821095
21
0.331104
0
LINE
8
BLACK
6
CONTINUOUS
10
0.821095
20
0.331104
11
0.818788
21
0.326576
0
LINE
8
BLACK
6
CONTINUOUS
10
0.818788
20
0.326576
11
0.815195
21
0.322983
0
LINE
8
BLACK
6
CONTINUOUS
10
0.815195
20
0.322983
11
0.810668
21
0.320677
0
LINE
8
BLACK
6
CONTINUOUS
10
0.810668
20
0.320677
11
0.80565
21
0.319882
0
LINE
8
BLACK
6
CONTINUOUS
10
0.80565
20
0.319882
11
0.810668
21
0.319087
0
LINE
8
BLACK
6
CONTINUOUS
10
0.810668
20
0.319087
11
0.815195
21
0.31678
0
LINE
8
BLACK
6
CONTINUOUS
10
0.815195
20
0.31678
11
0.818788
21
0.313187
0
LINE
8
BLACK
6
CONTINUOUS
10
0.818788
20
0.313187
11
0.821095
21
0.30866
0
LINE
8
BLACK
6
CONTINUOUS
10
0.821095
20
0.30866
11
0.82189
21
0.303642
0
LINE
8
BLACK
6
CONTINUOUS
10
0.82189
20
0.303642
11
0.82189
21
0.286909
0
LINE
8
BLACK
6
CONTINUOUS
10
0.82189
20
0.286909
11
0.821095
21
0.281891
0
LINE
8
BLACK
6
CONTINUOUS
10
0.821095
20
0.281891
11
0.818788
21
0.277364
0
LINE
8
BLACK
6
CONTINUOUS
10
0.818788
20
0.277364
11
0.815195
21
0.273771
0
LINE
8
BLACK
6
CONTINUOUS
10
0.815195
20
0.273771
11
0.810668
21
0.271464
0
LINE
8
BLACK
6
CONTINUOUS
10
0.810668
20
0.271464
11
0.80565
21
0.270669
0
LINE
8
BLACK
6
CONTINUOUS
10
0.80565
20
0.270669
11
0.810668
21
0.269874
0
LINE
8
BLACK
6
CONTINUOUS
10
0.810668
20
0.269874
11
0.815195
21
0.267568
0
LINE
8
BLACK
6
CONTINUOUS
10
0.815195
20
0.267568
11
0.818788
21
0.263975
0
LINE
8
BLACK
6
CONTINUOUS
10
0.818788
20
0.263975
11
0.821095
21
0.259448
0
LINE
8
BLACK
6
CONTINUOUS
10
0.821095
20
0.259448
11
0.82189
21
0.254429
0
LINE
8
BLACK
6
CONTINUOUS
10
0.82189
20
0.254429
11
0.82189
21
0.237697
0
LINE
8
BLACK
6
CONTINUOUS
10
0.82189
20
0.237697
11
0.821095
21
0.232678
0
LINE
8
BLACK
6
CONTINUOUS
10
0.821095
20
0.232678
11
0.818788
21
0.228151
0
LINE
8
BLACK
6
CONTINUOUS
10
0.818788
20
0.228151
11
0.815195
21
0.224558
0
LINE
8
BLACK
6
CONTINUOUS
10
0.815195
20
0.224558
11
0.810668
21
0.222252
0
LINE
8
BLACK
6
CONTINUOUS
10
0.810668
20
0.222252
11
0.80565
21
0.221457
0
LINE
8
BLACK
6
CONTINUOUS
10
0.80565
20
0.221457
11
0.810668
21
0.220662
0
LINE
8
BLACK
6
CONTINUOUS
10
1.13744
20
0.220662
11
1.14197
21
0.218355
0
LINE
8
BLACK
6
CONTINUOUS
10
1.14197
20
0.218355
11
1.14556
21
0.214762
0
LINE
8
BLACK
6
CONTINUOUS
10
1.14556
20
0.214762
11
1.14787
21
0.210235
0
LINE
8
BLACK
6
CONTINUOUS
10
1.14787
20
0.210235
11
1.14866
21
0.205217
0
LINE
8
BLACK
6
CONTINUOUS
10
1.14866
20
0.205217
11
1.14866
21
0.188484
0
LINE
8
BLACK
6
CONTINUOUS
10
1.14866
20
0.188484
11
1.14787
21
0.183466
0
LINE
8
BLACK
6
CONTINUOUS
10
1.14787
20
0.183466
11
1.14556
21
0.178939
0
LINE
8
BLACK
6
CONTINUOUS
10
1.14556
20
0.178939
11
1.14197
21
0.175346
0
LINE
8
BLACK
6
CONTINUOUS
10
1.14197
20
0.175346
11
1.13744
21
0.173039
0
LINE
8
BLACK
6
CONTINUOUS
10
1.13744
20
0.173039
11
1.13242
21
0.172244
0
LINE
8
BLACK
6
CONTINUOUS
10
1.13242
20
0.172244
11
1.07435
21
0.172244
0
LINE
8
BLACK
6
CONTINUOUS
10
1.07435
20
0.172244
11
1.06933
21
0.173039
0
LINE
8
BLACK
6
CONTINUOUS
10
1.06933
20
0.173039
11
1.0648
21
0.175346
0
LINE
8
BLACK
6
CONTINUOUS
10
1.0648
20
0.175346
11
1.06121
21
0.178939
0
LINE
8
BLACK
6
CONTINUOUS
10
1.06121
20
0.178939
11
1.05891
21
0.183466
0
LINE
8
BLACK
6
CONTINUOUS
10
1.05891
20
0.183466
11
1.05811
21
0.188484
0
LINE
8
BLACK
6
CONTINUOUS
10
1.05811
20
0.188484
11
1.05811
21
0.205217
0
LINE
8
BLACK
6
CONTINUOUS
10
1.05811
20
0.205217
11
1.05891
21
0.210235
0
LINE
8
BLACK
6
CONTINUOUS
10
1.05891
20
0.210235
11
1.06121
21
0.214762
0
LINE
8
BLACK
6
CONTINUOUS
10
1.06121
20
0.214762
11
1.0648
21
0.218355
0
LINE
8
BLACK
6
CONTINUOUS
10
1.0648
20
0.218355
11
1.06933
21
0.220662
0
LINE
8
BLACK
6
CONTINUOUS
10
1.06933
20
0.220662
11
1.07435
21
0.221457
0
LINE
8
BLACK
6
CONTINUOUS
10
1.07435
20
0.221457
11
1.06933
21
0.222252
0
LINE
8
BLACK
6
CONTINUOUS
10
1.06933
20
0.222252
11
1.0648
21
0.224558
0
LINE
8
BLACK
6
CONTINUOUS
10
1.0648
20
0.224558
11
1.06121
21
0.228151
0
LINE
8
BLACK
6
CONTINUOUS
10
1.06121
20
0.228151
11
1.05891
21
0.232678
0
LINE
8
BLACK
6
CONTINUOUS
10
1.05891
20
0.232678
11
1.05811
21
0.237697
0
LINE
8
BLACK
6
CONTINUOUS
10
1.05811
20
0.237697
11
1.05811
21
0.254429
0
LINE
8
BLACK
6
CONTINUOUS
10
1.05811
20
0.254429
11
1.05891
21
0.259448
0
LINE
8
BLACK
6
CONTINUOUS
10
1.05891
20
0.259448
11
1.06121
21
0.263975
0
LINE
8
BLACK
6
CONTINUOUS
10
1.06121
20
0.263975
11
1.0648
21
0.267568
0
LINE
8
BLACK
6
CONTINUOUS
10
1.0648
20
0.267568
11
1.06933
21
0.269874
0
LINE
8
BLACK
6
CONTINUOUS
10
1.06933
20
0.269874
11
1.07435
21
0.270669
0
LINE
8
BLACK
6
CONTINUOUS
10
1.07435
20
0.270669
11
1.06933
21
0.271464
0
LINE
8
BLACK
6
CONTINUOUS
10
1.06933
20
0.271464
11
1.0648
21
0.273771
0
LINE
8
BLACK
6
CONTINUOUS
10
1.0648
20
0.273771
11
1.06121
21
0.277364
0
LINE
8
BLACK
6
CONTINUOUS
10
1.06121
20
0.277364
11
1.05891
21
0.281891
0
LINE
8
BLACK
6
CONTINUOUS
10
1.05891
20
0.281891
11
1.05811
21
0.286909
0
LINE
8
BLACK
6
CONTINUOUS
10
1.05811
20
0.286909
11
1.05811
21
0.303642
0
LINE
8
BLACK
6
CONTINUOUS
10
1.05811
20
0.303642
11
1.05891
21
0.30866
0
LINE
8
BLACK
6
CONTINUOUS
10
1.05891
20
0.30866
11
1.06121
21
0.313187
0
LINE
8
BLACK
6
CONTINUOUS
10
1.06121
20
0.313187
11
1.0648
21
0.31678
0
LINE
8
BLACK
6
CONTINUOUS
10
1.0648
20
0.31678
11
1.06933
21
0.319087
0
LINE
8
BLACK
6
CONTINUOUS
10
1.06933
20
0.319087
11
1.07435
21
0.319882
0
LINE
8
BLACK
6
CONTINUOUS
10
1.07435
20
0.319882
11
1.06933
21
0.320677
0
LINE
8
BLACK
6
CONTINUOUS
10
1.06933
20
0.320677
11
1.0648
21
0.322983
0
LINE
8
BLACK
6
CONTINUOUS
10
1.0648
20
0.322983
11
1.06121
21
0.326576
0
LINE
8
BLACK
6
CONTINUOUS
10
1.06121
20
0.326576
11
1.05891
21
0.331104
0
LINE
8
BLACK
6
CONTINUOUS
10
1.05891
20
0.331104
11
1.05811
21
0.336122
0
LINE
8
BLACK
6
CONTINUOUS
10
1.05811
20
0.336122
11
1.05811
21
0.352854
0
LINE
8
BLACK
6
CONTINUOUS
10
1.05811
20
0.352854
11
1.05891
21
0.357873
0
LINE
8
BLACK
6
CONTINUOUS
10
1.05891
20
0.357873
11
1.06121
21
0.3624
0
LINE
8
BLACK
6
CONTINUOUS
10
1.06121
20
0.3624
11
1.0648
21
0.365993
0
LINE
8
BLACK
6
CONTINUOUS
10
1.0648
20
0.365993
11
1.06933
21
0.3683
0
LINE
8
BLACK
6
CONTINUOUS
10
1.06933
20
0.3683
11
1.07435
21
0.369094
0
LINE
8
BLACK
6
CONTINUOUS
10
1.07435
20
0.369094
11
1.06933
21
0.369889
0
LINE
8
BLACK
6
CONTINUOUS
10
1.06933
20
0.369889
11
1.0648
21
0.372196
0
LINE
8
BLACK
6
CONTINUOUS
10
1.0648
20
0.372196
11
1.06121
21
0.375789
0
LINE
8
BLACK
6
CONTINUOUS
10
1.06121
20
0.375789
11
1.05891
21
0.380316
0
LINE
8
BLACK
6
CONTINUOUS
10
1.05891
20
0.380316
11
1.05811
21
0.385335
0
LINE
8
BLACK
6
CONTINUOUS
10
1.05811
20
0.385335
11
1.05811
21
0.402067
0
LINE
8
BLACK
6
CONTINUOUS
10
1.05811
20
0.402067
11
1.05891
21
0.407085
0
LINE
8
BLACK
6
CONTINUOUS
10
1.05891
20
0.407085
11
1.06121
21
0.411613
0
LINE
8
BLACK
6
CONTINUOUS
10
1.06121
20
0.411613
11
1.0648
21
0.415206
0
LINE
8
BLACK
6
CONTINUOUS
10
1.0648
20
0.415206
11
1.06933
21
0.417512
0
LINE
8
BLACK
6
CONTINUOUS
10
1.06933
20
0.417512
11
1.07435
21
0.418307
0
LINE
8
BLACK
6
CONTINUOUS
10
1.07435
20
0.418307
11
1.13242
21
0.418307
0
LINE
8
BLACK
6
CONTINUOUS
10
1.13242
20
0.418307
11
1.13744
21
0.417512
0
LINE
8
BLACK
6
CONTINUOUS
10
1.13744
20
0.417512
11
1.14197
21
0.415206
0
LINE
8
BLACK
6
CONTINUOUS
10
1.14197
20
0.415206
11
1.14556
21
0.411613
0
LINE
8
BLACK
6
CONTINUOUS
10
1.14556
20
0.411613
11
1.14787
21
0.407085
0
LINE
8
BLACK
6
CONTINUOUS
10
1.14787
20
0.407085
11
1.14866
21
0.402067
0
LINE
8
BLACK
6
CONTINUOUS
10
1.14866
20
0.402067
11
1.14866
21
0.385335
0
LINE
8
BLACK
6
CONTINUOUS
10
1.14866
20
0.385335
11
1.14787
21
0.380316
0
LINE
8
BLACK
6
CONTINUOUS
10
1.14787
20
0.380316
11
1.14556
21
0.375789
0
LINE
8
BLACK
6
CONTINUOUS
10
1.14556
20
0.375789
11
1.14197
21
0.372196
0
LINE
8
BLACK
6
CONTINUOUS
10
1.14197
20
0.372196
11
1.13744
21
0.369889
0
LINE
8
BLACK
6
CONTINUOUS
10
1.13744
20
0.369889
11
1.13242
21
0.369094
0
LINE
8
BLACK
6
CONTINUOUS
10
1.13242
20
0.369094
11
1.13744
21
0.3683
0
LINE
8
BLACK
6
CONTINUOUS
10
1.13744
20
0.3683
11
1.14197
21
0.365993
0
LINE
8
BLACK
6
CONTINUOUS
10
1.14197
20
0.365993
11
1.14556
21
0.3624
0
LINE
8
BLACK
6
CONTINUOUS
10
1.14556
20
0.3624
11
1.14787
21
0.357873
0
LINE
8
BLACK
6
CONTINUOUS
10
1.14787
20
0.357873
11
1.14866
21
0.352854
0
LINE
8
BLACK
6
CONTINUOUS
10
1.14866
20
0.352854
11
1.14866
21
0.336122
0
LINE
8
BLACK
6
CONTINUOUS
10
1.14866
20
0.336122
11
1.14787
21
0.331104
0
LINE
8
BLACK
6
CONTINUOUS
10
1.14787
20
0.331104
11
1.14556
21
0.326576
0
LINE
8
BLACK
6
CONTINUOUS
10
1.14556
20
0.326576
11
1.14197
21
0.322983
0
LINE
8
BLACK
6
CONTINUOUS
10
1.14197
20
0.322983
11
1.13744
21
0.320677
0
LINE
8
BLACK
6
CONTINUOUS
10
1.13744
20
0.320677
11
1.13242
21
0.319882
0
LINE
8
BLACK
6
CONTINUOUS
10
1.13242
20
0.319882
11
1.13744
21
0.319087
0
LINE
8
BLACK
6
CONTINUOUS
10
1.13744
20
0.319087
11
1.14197
21
0.31678
0
LINE
8
BLACK
6
CONTINUOUS
10
1.14197
20
0.31678
11
1.14556
21
0.313187
0
LINE
8
BLACK
6
CONTINUOUS
10
1.14556
20
0.313187
11
1.14787
21
0.30866
0
LINE
8
BLACK
6
CONTINUOUS
10
1.14787
20
0.30866
11
1.14866
21
0.303642
0
LINE
8
BLACK
6
CONTINUOUS
10
1.14866
20
0.303642
11
1.14866
21
0.286909
0
LINE
8
BLACK
6
CONTINUOUS
10
1.14866
20
0.286909
11
1.14787
21
0.281891
0
LINE
8
BLACK
6
CONTINUOUS
10
1.14787
20
0.281891
11
1.14556
21
0.277364
0
LINE
8
BLACK
6
CONTINUOUS
10
1.14556
20
0.277364
11
1.14197
21
0.273771
0
LINE
8
BLACK
6
CONTINUOUS
10
1.14197
20
0.273771
11
1.13744
21
0.271464
0
LINE
8
BLACK
6
CONTINUOUS
10
1.13744
20
0.271464
11
1.13242
21
0.270669
0
LINE
8
BLACK
6
CONTINUOUS
10
1.13242
20
0.270669
11
1.13744
21
0.269874
0
LINE
8
BLACK
6
CONTINUOUS
10
1.13744
20
0.269874
11
1.14197
21
0.267568
0
LINE
8
BLACK
6
CONTINUOUS
10
1.14197
20
0.267568
11
1.14556
21
0.263975
0
LINE
8
BLACK
6
CONTINUOUS
10
1.14556
20
0.263975
11
1.14787
21
0.259448
0
LINE
8
BLACK
6
CONTINUOUS
10
1.14787
20
0.259448
11
1.14866
21
0.254429
0
LINE
8
BLACK
6
CONTINUOUS
10
1.14866
20
0.254429
11
1.14866
21
0.237697
0
LINE
8
BLACK
6
CONTINUOUS
10
1.14866
20
0.237697
11
1.14787
21
0.232678
0
LINE
8
BLACK
6
CONTINUOUS
10
1.14787
20
0.232678
11
1.14556
21
0.228151
0
LINE
8
BLACK
6
CONTINUOUS
10
1.14556
20
0.228151
11
1.14197
21
0.224558
0
LINE
8
BLACK
6
CONTINUOUS
10
1.14197
20
0.224558
11
1.13744
21
0.222252
0
LINE
8
BLACK
6
CONTINUOUS
10
1.13744
20
0.222252
11
1.13242
21
0.221457
0
LINE
8
BLACK
6
CONTINUOUS
10
1.13242
20
0.221457
11
1.13744
21
0.220662
0
LINE
8
BLACK
6
CONTINUOUS
10
1.0375
20
0.397038
11
1.04006
21
0.395332
0
LINE
8
BLACK
6
CONTINUOUS
10
1.04006
20
0.395332
11
1.04176
21
0.392777
0
LINE
8
BLACK
6
CONTINUOUS
10
1.04176
20
0.392777
11
1.04236
21
0.389764
0
LINE
8
BLACK
6
CONTINUOUS
10
1.04236
20
0.389764
11
1.04236
21
0.200787
0
LINE
8
BLACK
6
CONTINUOUS
10
1.04236
20
0.200787
11
1.04176
21
0.197774
0
LINE
8
BLACK
6
CONTINUOUS
10
1.04176
20
0.197774
11
1.04006
21
0.19522
0
LINE
8
BLACK
6
CONTINUOUS
10
1.04006
20
0.19522
11
1.0375
21
0.193513
0
LINE
8
BLACK
6
CONTINUOUS
10
1.0375
20
0.193513
11
1.03449
21
0.192913
0
LINE
8
BLACK
6
CONTINUOUS
10
1.03449
20
0.192913
11
0.845512
21
0.192913
0
LINE
8
BLACK
6
CONTINUOUS
10
0.845512
20
0.192913
11
0.842499
21
0.193513
0
LINE
8
BLACK
6
CONTINUOUS
10
0.842499
20
0.193513
11
0.839944
21
0.19522
0
LINE
8
BLACK
6
CONTINUOUS
10
0.839944
20
0.19522
11
0.838237
21
0.197774
0
LINE
8
BLACK
6
CONTINUOUS
10
0.838237
20
0.197774
11
0.837638
21
0.200787
0
LINE
8
BLACK
6
CONTINUOUS
10
0.837638
20
0.200787
11
0.837638
21
0.389764
0
LINE
8
BLACK
6
CONTINUOUS
10
0.837638
20
0.389764
11
0.838237
21
0.392777
0
LINE
8
BLACK
6
CONTINUOUS
10
0.838237
20
0.392777
11
0.839944
21
0.395332
0
LINE
8
BLACK
6
CONTINUOUS
10
0.839944
20
0.395332
11
0.842499
21
0.397038
0
LINE
8
BLACK
6
CONTINUOUS
10
0.842499
20
0.397038
11
0.845512
21
0.397638
0
LINE
8
BLACK
6
CONTINUOUS
10
0.845512
20
0.397638
11
1.03449
21
0.397638
0
LINE
8
BLACK
6
CONTINUOUS
10
1.03449
20
0.397638
11
1.0375
21
0.397038
0
LINE
8
BLACK
6
CONTINUOUS
10
0.675183
20
0.245295
11
0.679779
21
0.242954
0
LINE
8
BLACK
6
CONTINUOUS
10
0.679779
20
0.242954
11
0.683426
21
0.239306
0
LINE
8
BLACK
6
CONTINUOUS
10
0.683426
20
0.239306
11
0.685768
21
0.234711
0
LINE
8
BLACK
6
CONTINUOUS
10
0.685768
20
0.234711
11
0.686575
21
0.229616
0
LINE
8
BLACK
6
CONTINUOUS
10
0.686575
20
0.229616
11
0.686575
21
0.212392
0
LINE
8
BLACK
6
CONTINUOUS
10
0.686575
20
0.212392
11
0.685768
21
0.207297
0
LINE
8
BLACK
6
CONTINUOUS
10
0.685768
20
0.207297
11
0.683426
21
0.202701
0
LINE
8
BLACK
6
CONTINUOUS
10
0.683426
20
0.202701
11
0.679779
21
0.199054
0
LINE
8
BLACK
6
CONTINUOUS
10
0.679779
20
0.199054
11
0.675183
21
0.196712
0
LINE
8
BLACK
6
CONTINUOUS
10
0.675183
20
0.196712
11
0.670089
21
0.195906
0
LINE
8
BLACK
6
CONTINUOUS
10
0.670089
20
0.195906
11
0.649911
21
0.195906
0
LINE
8
BLACK
6
CONTINUOUS
10
0.649911
20
0.195906
11
0.644817
21
0.196712
0
LINE
8
BLACK
6
CONTINUOUS
10
0.644817
20
0.196712
11
0.640221
21
0.199054
0
LINE
8
BLACK
6
CONTINUOUS
10
0.640221
20
0.199054
11
0.636574
21
0.202701
0
LINE
8
BLACK
6
CONTINUOUS
10
0.636574
20
0.202701
11
0.634232
21
0.207297
0
LINE
8
BLACK
6
CONTINUOUS
10
0.634232
20
0.207297
11
0.633425
21
0.212392
0
LINE
8
BLACK
6
CONTINUOUS
10
0.633425
20
0.212392
11
0.633425
21
0.229616
0
LINE
8
BLACK
6
CONTINUOUS
10
0.633425
20
0.229616
11
0.634232
21
0.234711
0
LINE
8
BLACK
6
CONTINUOUS
10
0.634232
20
0.234711
11
0.636574
21
0.239306
0
LINE
8
BLACK
6
CONTINUOUS
10
0.636574
20
0.239306
11
0.640221
21
0.242954
0
LINE
8
BLACK
6
CONTINUOUS
10
0.640221
20
0.242954
11
0.644817
21
0.245295
0
LINE
8
BLACK
6
CONTINUOUS
10
0.644817
20
0.245295
11
0.649911
21
0.246102
0
LINE
8
BLACK
6
CONTINUOUS
10
0.649911
20
0.246102
11
0.670089
21
0.246102
0
LINE
8
BLACK
6
CONTINUOUS
10
0.670089
20
0.246102
11
0.675183
21
0.245295
0
LINE
8
BLACK
6
CONTINUOUS
10
0.222326
20
0.240569
11
0.226401
21
0.238577
0
LINE
8
BLACK
6
CONTINUOUS
10
0.226401
20
0.238577
11
0.229608
21
0.235369
0
LINE
8
BLACK
6
CONTINUOUS
10
0.229608
20
0.235369
11
0.2316
21
0.231294
0
LINE
8
BLACK
6
CONTINUOUS
10
0.2316
20
0.231294
11
0.232173
21
0.227362
0
LINE
8
BLACK
6
CONTINUOUS
10
0.232173
20
0.227362
11
0.232173
21
0.215551
0
LINE
8
BLACK
6
CONTINUOUS
10
0.232173
20
0.215551
11
0.2316
21
0.211619
0
LINE
8
BLACK
6
CONTINUOUS
10
0.2316
20
0.211619
11
0.229608
21
0.207544
0
LINE
8
BLACK
6
CONTINUOUS
10
0.229608
20
0.207544
11
0.226401
21
0.204337
0
LINE
8
BLACK
6
CONTINUOUS
10
0.226401
20
0.204337
11
0.222326
21
0.202344
0
LINE
8
BLACK
6
CONTINUOUS
10
0.222326
20
0.202344
11
0.218394
21
0.201772
0
LINE
8
BLACK
6
CONTINUOUS
10
0.218394
20
0.201772
11
0.163276
21
0.201772
0
LINE
8
BLACK
6
CONTINUOUS
10
0.163276
20
0.201772
11
0.159344
21
0.202344
0
LINE
8
BLACK
6
CONTINUOUS
10
0.159344
20
0.202344
11
0.155269
21
0.204337
0
LINE
8
BLACK
6
CONTINUOUS
10
0.155269
20
0.204337
11
0.152061
21
0.207544
0
LINE
8
BLACK
6
CONTINUOUS
10
0.152061
20
0.207544
11
0.150069
21
0.211619
0
LINE
8
BLACK
6
CONTINUOUS
10
0.150069
20
0.211619
11
0.149496
21
0.215551
0
LINE
8
BLACK
6
CONTINUOUS
10
0.149496
20
0.215551
11
0.149496
21
0.227362
0
LINE
8
BLACK
6
CONTINUOUS
10
0.149496
20
0.227362
11
0.150069
21
0.231294
0
LINE
8
BLACK
6
CONTINUOUS
10
0.150069
20
0.231294
11
0.152061
21
0.235369
0
LINE
8
BLACK
6
CONTINUOUS
10
0.152061
20
0.235369
11
0.155269
21
0.238577
0
LINE
8
BLACK
6
CONTINUOUS
10
0.155269
20
0.238577
11
0.159344
21
0.240569
0
LINE
8
BLACK
6
CONTINUOUS
10
0.159344
20
0.240569
11
0.163276
21
0.241142
0
LINE
8
BLACK
6
CONTINUOUS
10
0.163276
20
0.241142
11
0.218394
21
0.241142
0
LINE
8
BLACK
6
CONTINUOUS
10
0.218394
20
0.241142
11
0.222326
21
0.240569
0
LINE
8
BLACK
6
CONTINUOUS
10
0.480183
20
0.266299
11
0.484779
21
0.263958
0
LINE
8
BLACK
6
CONTINUOUS
10
0.484779
20
0.263958
11
0.488426
21
0.26031
0
LINE
8
BLACK
6
CONTINUOUS
10
0.488426
20
0.26031
11
0.490768
21
0.255715
0
LINE
8
BLACK
6
CONTINUOUS
10
0.490768
20
0.255715
11
0.491575
21
0.25062
0
LINE
8
BLACK
6
CONTINUOUS
10
0.491575
20
0.25062
11
0.491575
21
0.233396
0
LINE
8
BLACK
6
CONTINUOUS
10
0.491575
20
0.233396
11
0.490768
21
0.228301
0
LINE
8
BLACK
6
CONTINUOUS
10
0.490768
20
0.228301
11
0.488426
21
0.223705
0
LINE
8
BLACK
6
CONTINUOUS
10
0.488426
20
0.223705
11
0.484779
21
0.220058
0
LINE
8
BLACK
6
CONTINUOUS
10
0.484779
20
0.220058
11
0.480183
21
0.217716
0
LINE
8
BLACK
6
CONTINUOUS
10
0.480183
20
0.217716
11
0.475089
21
0.216909
0
LINE
8
BLACK
6
CONTINUOUS
10
0.475089
20
0.216909
11
0.454911
21
0.216909
0
LINE
8
BLACK
6
CONTINUOUS
10
0.454911
20
0.216909
11
0.449817
21
0.217716
0
LINE
8
BLACK
6
CONTINUOUS
10
0.449817
20
0.217716
11
0.445221
21
0.220058
0
LINE
8
BLACK
6
CONTINUOUS
10
0.445221
20
0.220058
11
0.441574
21
0.223705
0
LINE
8
BLACK
6
CONTINUOUS
10
0.441574
20
0.223705
11
0.439232
21
0.228301
0
LINE
8
BLACK
6
CONTINUOUS
10
0.439232
20
0.228301
11
0.438425
21
0.233396
0
LINE
8
BLACK
6
CONTINUOUS
10
0.438425
20
0.233396
11
0.438425
21
0.25062
0
LINE
8
BLACK
6
CONTINUOUS
10
0.438425
20
0.25062
11
0.439232
21
0.255715
0
LINE
8
BLACK
6
CONTINUOUS
10
0.439232
20
0.255715
11
0.441574
21
0.26031
0
LINE
8
BLACK
6
CONTINUOUS
10
0.441574
20
0.26031
11
0.445221
21
0.263958
0
LINE
8
BLACK
6
CONTINUOUS
10
0.445221
20
0.263958
11
0.449817
21
0.266299
0
LINE
8
BLACK
6
CONTINUOUS
10
0.449817
20
0.266299
11
0.454911
21
0.267106
0
LINE
8
BLACK
6
CONTINUOUS
10
0.454911
20
0.267106
11
0.475089
21
0.267106
0
LINE
8
BLACK
6
CONTINUOUS
10
0.475089
20
0.267106
11
0.480183
21
0.266299
0
LINE
8
BLACK
6
CONTINUOUS
10
0.222326
20
0.289781
11
0.226401
21
0.287789
0
LINE
8
BLACK
6
CONTINUOUS
10
0.226401
20
0.287789
11
0.229608
21
0.284582
0
LINE
8
BLACK
6
CONTINUOUS
10
0.229608
20
0.284582
11
0.2316
21
0.280507
0
LINE
8
BLACK
6
CONTINUOUS
10
0.2316
20
0.280507
11
0.232173
21
0.276575
0
LINE
8
BLACK
6
CONTINUOUS
10
0.232173
20
0.276575
11
0.232173
21
0.264764
0
LINE
8
BLACK
6
CONTINUOUS
10
0.232173
20
0.264764
11
0.2316
21
0.260832
0
LINE
8
BLACK
6
CONTINUOUS
10
0.2316
20
0.260832
11
0.229608
21
0.256757
0
LINE
8
BLACK
6
CONTINUOUS
10
0.229608
20
0.256757
11
0.226401
21
0.253549
0
LINE
8
BLACK
6
CONTINUOUS
10
0.226401
20
0.253549
11
0.222326
21
0.251557
0
LINE
8
BLACK
6
CONTINUOUS
10
0.222326
20
0.251557
11
0.218394
21
0.250984
0
LINE
8
BLACK
6
CONTINUOUS
10
0.218394
20
0.250984
11
0.163276
21
0.250984
0
LINE
8
BLACK
6
CONTINUOUS
10
0.163276
20
0.250984
11
0.159344
21
0.251557
0
LINE
8
BLACK
6
CONTINUOUS
10
0.159344
20
0.251557
11
0.155269
21
0.253549
0
LINE
8
BLACK
6
CONTINUOUS
10
0.155269
20
0.253549
11
0.152061
21
0.256757
0
LINE
8
BLACK
6
CONTINUOUS
10
0.152061
20
0.256757
11
0.150069
21
0.260832
0
LINE
8
BLACK
6
CONTINUOUS
10
0.150069
20
0.260832
11
0.149496
21
0.264764
0
LINE
8
BLACK
6
CONTINUOUS
10
0.149496
20
0.264764
11
0.149496
21
0.276575
0
LINE
8
BLACK
6
CONTINUOUS
10
0.149496
20
0.276575
11
0.150069
21
0.280507
0
LINE
8
BLACK
6
CONTINUOUS
10
0.150069
20
0.280507
11
0.152061
21
0.284582
0
LINE
8
BLACK
6
CONTINUOUS
10
0.152061
20
0.284582
11
0.155269
21
0.287789
0
LINE
8
BLACK
6
CONTINUOUS
10
0.155269
20
0.287789
11
0.159344
21
0.289781
0
LINE
8
BLACK
6
CONTINUOUS
10
0.159344
20
0.289781
11
0.163276
21
0.290354
0
LINE
8
BLACK
6
CONTINUOUS
10
0.163276
20
0.290354
11
0.218394
21
0.290354
0
LINE
8
BLACK
6
CONTINUOUS
10
0.218394
20
0.290354
11
0.222326
21
0.289781
0
LINE
8
BLACK
6
CONTINUOUS
10
0.333407
20
0.311448
11
0.335961
21
0.309741
0
LINE
8
BLACK
6
CONTINUOUS
10
0.335961
20
0.309741
11
0.337668
21
0.307186
0
LINE
8
BLACK
6
CONTINUOUS
10
0.337668
20
0.307186
11
0.338268
21
0.304173
0
LINE
8
BLACK
6
CONTINUOUS
10
0.338268
20
0.304173
11
0.338268
21
0.262441
0
LINE
8
BLACK
6
CONTINUOUS
10
0.338268
20
0.262441
11
0.337668
21
0.259428
0
LINE
8
BLACK
6
CONTINUOUS
10
0.337668
20
0.259428
11
0.335961
21
0.256873
0
LINE
8
BLACK
6
CONTINUOUS
10
0.335961
20
0.256873
11
0.333407
21
0.255166
0
LINE
8
BLACK
6
CONTINUOUS
10
0.333407
20
0.255166
11
0.330394
21
0.254567
0
LINE
8
BLACK
6
CONTINUOUS
10
0.330394
20
0.254567
11
0.304803
21
0.254567
0
LINE
8
BLACK
6
CONTINUOUS
10
0.304803
20
0.254567
11
0.30179
21
0.255166
0
LINE
8
BLACK
6
CONTINUOUS
10
0.30179
20
0.255166
11
0.299235
21
0.256873
0
LINE
8
BLACK
6
CONTINUOUS
10
0.299235
20
0.256873
11
0.297529
21
0.259428
0
LINE
8
BLACK
6
CONTINUOUS
10
0.297529
20
0.259428
11
0.296929
21
0.262441
0
LINE
8
BLACK
6
CONTINUOUS
10
0.296929
20
0.262441
11
0.296929
21
0.304173
0
LINE
8
BLACK
6
CONTINUOUS
10
0.296929
20
0.304173
11
0.297529
21
0.307186
0
LINE
8
BLACK
6
CONTINUOUS
10
0.297529
20
0.307186
11
0.299235
21
0.309741
0
LINE
8
BLACK
6
CONTINUOUS
10
0.299235
20
0.309741
11
0.30179
21
0.311448
0
LINE
8
BLACK
6
CONTINUOUS
10
0.30179
20
0.311448
11
0.304803
21
0.312047
0
LINE
8
BLACK
6
CONTINUOUS
10
0.304803
20
0.312047
11
0.330394
21
0.312047
0
LINE
8
BLACK
6
CONTINUOUS
10
0.330394
20
0.312047
11
0.333407
21
0.311448
0
LINE
8
BLACK
6
CONTINUOUS
10
0.40821
20
0.311448
11
0.410765
21
0.309741
0
LINE
8
BLACK
6
CONTINUOUS
10
0.410765
20
0.309741
11
0.412471
21
0.307186
0
LINE
8
BLACK
6
CONTINUOUS
10
0.412471
20
0.307186
11
0.413071
21
0.304173
0
LINE
8
BLACK
6
CONTINUOUS
10
0.413071
20
0.304173
11
0.413071
21
0.262441
0
LINE
8
BLACK
6
CONTINUOUS
10
0.413071
20
0.262441
11
0.412471
21
0.259428
0
LINE
8
BLACK
6
CONTINUOUS
10
0.412471
20
0.259428
11
0.410765
21
0.256873
0
LINE
8
BLACK
6
CONTINUOUS
10
0.410765
20
0.256873
11
0.40821
21
0.255166
0
LINE
8
BLACK
6
CONTINUOUS
10
0.40821
20
0.255166
11
0.405197
21
0.254567
0
LINE
8
BLACK
6
CONTINUOUS
10
0.405197
20
0.254567
11
0.379606
21
0.254567
0
LINE
8
BLACK
6
CONTINUOUS
10
0.379606
20
0.254567
11
0.376593
21
0.255166
0
LINE
8
BLACK
6
CONTINUOUS
10
0.376593
20
0.255166
11
0.374039
21
0.256873
0
LINE
8
BLACK
6
CONTINUOUS
10
0.374039
20
0.256873
11
0.372332
21
0.259428
0
LINE
8
BLACK
6
CONTINUOUS
10
0.372332
20
0.259428
11
0.371732
21
0.262441
0
LINE
8
BLACK
6
CONTINUOUS
10
0.371732
20
0.262441
11
0.371732
21
0.304173
0
LINE
8
BLACK
6
CONTINUOUS
10
0.371732
20
0.304173
11
0.372332
21
0.307186
0
LINE
8
BLACK
6
CONTINUOUS
10
0.372332
20
0.307186
11
0.374039
21
0.309741
0
LINE
8
BLACK
6
CONTINUOUS
10
0.374039
20
0.309741
11
0.376593
21
0.311448
0
LINE
8
BLACK
6
CONTINUOUS
10
0.376593
20
0.311448
11
0.379606
21
0.312047
0
LINE
8
BLACK
6
CONTINUOUS
10
0.379606
20
0.312047
11
0.405197
21
0.312047
0
LINE
8
BLACK
6
CONTINUOUS
10
0.405197
20
0.312047
11
0.40821
21
0.311448
0
LINE
8
BLACK
6
CONTINUOUS
10
0.222326
20
0.338994
11
0.226401
21
0.337002
0
LINE
8
BLACK
6
CONTINUOUS
10
0.226401
20
0.337002
11
0.229608
21
0.333794
0
LINE
8
BLACK
6
CONTINUOUS
10
0.229608
20
0.333794
11
0.2316
21
0.329719
0
LINE
8
BLACK
6
CONTINUOUS
10
0.2316
20
0.329719
11
0.232173
21
0.325787
0
LINE
8
BLACK
6
CONTINUOUS
10
0.232173
20
0.325787
11
0.232173
21
0.313976
0
LINE
8
BLACK
6
CONTINUOUS
10
0.232173
20
0.313976
11
0.2316
21
0.310045
0
LINE
8
BLACK
6
CONTINUOUS
10
0.2316
20
0.310045
11
0.229608
21
0.305969
0
LINE
8
BLACK
6
CONTINUOUS
10
0.229608
20
0.305969
11
0.226401
21
0.302762
0
LINE
8
BLACK
6
CONTINUOUS
10
0.226401
20
0.302762
11
0.222326
21
0.30077
0
LINE
8
BLACK
6
CONTINUOUS
10
0.222326
20
0.30077
11
0.218394
21
0.300197
0
LINE
8
BLACK
6
CONTINUOUS
10
0.218394
20
0.300197
11
0.163276
21
0.300197
0
LINE
8
BLACK
6
CONTINUOUS
10
0.163276
20
0.300197
11
0.159344
21
0.30077
0
LINE
8
BLACK
6
CONTINUOUS
10
0.159344
20
0.30077
11
0.155269
21
0.302762
0
LINE
8
BLACK
6
CONTINUOUS
10
0.155269
20
0.302762
11
0.152061
21
0.305969
0
LINE
8
BLACK
6
CONTINUOUS
10
0.152061
20
0.305969
11
0.150069
21
0.310045
0
LINE
8
BLACK
6
CONTINUOUS
10
0.150069
20
0.310045
11
0.149496
21
0.313976
0
LINE
8
BLACK
6
CONTINUOUS
10
0.149496
20
0.313976
11
0.149496
21
0.325787
0
LINE
8
BLACK
6
CONTINUOUS
10
0.149496
20
0.325787
11
0.150069
21
0.329719
0
LINE
8
BLACK
6
CONTINUOUS
10
0.150069
20
0.329719
11
0.152061
21
0.333794
0
LINE
8
BLACK
6
CONTINUOUS
10
0.152061
20
0.333794
11
0.155269
21
0.337002
0
LINE
8
BLACK
6
CONTINUOUS
10
0.155269
20
0.337002
11
0.159344
21
0.338994
0
LINE
8
BLACK
6
CONTINUOUS
10
0.159344
20
0.338994
11
0.163276
21
0.339567
0
LINE
8
BLACK
6
CONTINUOUS
10
0.163276
20
0.339567
11
0.218394
21
0.339567
0
LINE
8
BLACK
6
CONTINUOUS
10
0.218394
20
0.339567
11
0.222326
21
0.338994
0
LINE
8
BLACK
6
CONTINUOUS
10
0.456537
20
0.377038
11
0.459091
21
0.375332
0
LINE
8
BLACK
6
CONTINUOUS
10
0.459091
20
0.375332
11
0.460798
21
0.372777
0
LINE
8
BLACK
6
CONTINUOUS
10
0.460798
20
0.372777
11
0.461398
21
0.369764
0
LINE
8
BLACK
6
CONTINUOUS
10
0.461398
20
0.369764
11
0.461398
21
0.334764
0
LINE
8
BLACK
6
CONTINUOUS
10
0.461398
20
0.334764
11
0.460798
21
0.331751
0
LINE
8
BLACK
6
CONTINUOUS
10
0.460798
20
0.331751
11
0.459091
21
0.329196
0
LINE
8
BLACK
6
CONTINUOUS
10
0.459091
20
0.329196
11
0.456537
21
0.327489
0
LINE
8
BLACK
6
CONTINUOUS
10
0.456537
20
0.327489
11
0.453524
21
0.32689
0
LINE
8
BLACK
6
CONTINUOUS
10
0.453524
20
0.32689
11
0.398524
21
0.32689
0
LINE
8
BLACK
6
CONTINUOUS
10
0.398524
20
0.32689
11
0.39551
21
0.327489
0
LINE
8
BLACK
6
CONTINUOUS
10
0.39551
20
0.327489
11
0.392956
21
0.329196
0
LINE
8
BLACK
6
CONTINUOUS
10
0.392956
20
0.329196
11
0.391249
21
0.331751
0
LINE
8
BLACK
6
CONTINUOUS
10
0.391249
20
0.331751
11
0.39065
21
0.334764
0
LINE
8
BLACK
6
CONTINUOUS
10
0.39065
20
0.334764
11
0.39065
21
0.369764
0
LINE
8
BLACK
6
CONTINUOUS
10
0.39065
20
0.369764
11
0.391249
21
0.372777
0
LINE
8
BLACK
6
CONTINUOUS
10
0.391249
20
0.372777
11
0.392956
21
0.375332
0
LINE
8
BLACK
6
CONTINUOUS
10
0.392956
20
0.375332
11
0.39551
21
0.377038
0
LINE
8
BLACK
6
CONTINUOUS
10
0.39551
20
0.377038
11
0.398524
21
0.377638
0
LINE
8
BLACK
6
CONTINUOUS
10
0.398524
20
0.377638
11
0.453524
21
0.377638
0
LINE
8
BLACK
6
CONTINUOUS
10
0.453524
20
0.377638
11
0.456537
21
0.377038
0
LINE
8
BLACK
6
CONTINUOUS
10
0.5229
20
0.377146
11
0.527495
21
0.374804
0
LINE
8
BLACK
6
CONTINUOUS
10
0.527495
20
0.374804
11
0.531143
21
0.371157
0
LINE
8
BLACK
6
CONTINUOUS
10
0.531143
20
0.371157
11
0.533484
21
0.366561
0
LINE
8
BLACK
6
CONTINUOUS
10
0.533484
20
0.366561
11
0.534291
21
0.361467
0
LINE
8
BLACK
6
CONTINUOUS
10
0.534291
20
0.361467
11
0.534291
21
0.344242
0
LINE
8
BLACK
6
CONTINUOUS
10
0.534291
20
0.344242
11
0.533484
21
0.339148
0
LINE
8
BLACK
6
CONTINUOUS
10
0.533484
20
0.339148
11
0.531143
21
0.334552
0
LINE
8
BLACK
6
CONTINUOUS
10
0.531143
20
0.334552
11
0.527495
21
0.330904
0
LINE
8
BLACK
6
CONTINUOUS
10
0.527495
20
0.330904
11
0.5229
21
0.328563
0
LINE
8
BLACK
6
CONTINUOUS
10
0.5229
20
0.328563
11
0.517805
21
0.327756
0
LINE
8
BLACK
6
CONTINUOUS
10
0.517805
20
0.327756
11
0.497628
21
0.327756
0
LINE
8
BLACK
6
CONTINUOUS
10
0.497628
20
0.327756
11
0.492533
21
0.328563
0
LINE
8
BLACK
6
CONTINUOUS
10
0.492533
20
0.328563
11
0.487938
21
0.330904
0
LINE
8
BLACK
6
CONTINUOUS
10
0.487938
20
0.330904
11
0.48429
21
0.334552
0
LINE
8
BLACK
6
CONTINUOUS
10
0.48429
20
0.334552
11
0.481949
21
0.339148
0
LINE
8
BLACK
6
CONTINUOUS
10
0.481949
20
0.339148
11
0.481142
21
0.344242
0
LINE
8
BLACK
6
CONTINUOUS
10
0.481142
20
0.344242
11
0.481142
21
0.361467
0
LINE
8
BLACK
6
CONTINUOUS
10
0.481142
20
0.361467
11
0.481949
21
0.366561
0
LINE
8
BLACK
6
CONTINUOUS
10
0.481949
20
0.366561
11
0.48429
21
0.371157
0
LINE
8
BLACK
6
CONTINUOUS
10
0.48429
20
0.371157
11
0.487938
21
0.374804
0
LINE
8
BLACK
6
CONTINUOUS
10
0.487938
20
0.374804
11
0.492533
21
0.377146
0
LINE
8
BLACK
6
CONTINUOUS
10
0.492533
20
0.377146
11
0.497628
21
0.377953
0
LINE
8
BLACK
6
CONTINUOUS
10
0.497628
20
0.377953
11
0.517805
21
0.377953
0
LINE
8
BLACK
6
CONTINUOUS
10
0.517805
20
0.377953
11
0.5229
21
0.377146
0
LINE
8
BLACK
6
CONTINUOUS
10
0.595183
20
0.378288
11
0.599779
21
0.375946
0
LINE
8
BLACK
6
CONTINUOUS
10
0.599779
20
0.375946
11
0.603426
21
0.372299
0
LINE
8
BLACK
6
CONTINUOUS
10
0.603426
20
0.372299
11
0.605768
21
0.367703
0
LINE
8
BLACK
6
CONTINUOUS
10
0.605768
20
0.367703
11
0.606575
21
0.362608
0
LINE
8
BLACK
6
CONTINUOUS
10
0.606575
20
0.362608
11
0.606575
21
0.345384
0
LINE
8
BLACK
6
CONTINUOUS
10
0.606575
20
0.345384
11
0.605768
21
0.340289
0
LINE
8
BLACK
6
CONTINUOUS
10
0.605768
20
0.340289
11
0.603426
21
0.335694
0
LINE
8
BLACK
6
CONTINUOUS
10
0.603426
20
0.335694
11
0.599779
21
0.332046
0
LINE
8
BLACK
6
CONTINUOUS
10
0.599779
20
0.332046
11
0.595183
21
0.329705
0
LINE
8
BLACK
6
CONTINUOUS
10
0.595183
20
0.329705
11
0.590089
21
0.328898
0
LINE
8
BLACK
6
CONTINUOUS
10
0.590089
20
0.328898
11
0.569911
21
0.328898
0
LINE
8
BLACK
6
CONTINUOUS
10
0.569911
20
0.328898
11
0.564817
21
0.329705
0
LINE
8
BLACK
6
CONTINUOUS
10
0.564817
20
0.329705
11
0.560221
21
0.332046
0
LINE
8
BLACK
6
CONTINUOUS
10
0.560221
20
0.332046
11
0.556574
21
0.335694
0
LINE
8
BLACK
6
CONTINUOUS
10
0.556574
20
0.335694
11
0.554232
21
0.340289
0
LINE
8
BLACK
6
CONTINUOUS
10
0.554232
20
0.340289
11
0.553425
21
0.345384
0
LINE
8
BLACK
6
CONTINUOUS
10
0.553425
20
0.345384
11
0.553425
21
0.362608
0
LINE
8
BLACK
6
CONTINUOUS
10
0.553425
20
0.362608
11
0.554232
21
0.367703
0
LINE
8
BLACK
6
CONTINUOUS
10
0.554232
20
0.367703
11
0.556574
21
0.372299
0
LINE
8
BLACK
6
CONTINUOUS
10
0.556574
20
0.372299
11
0.560221
21
0.375946
0
LINE
8
BLACK
6
CONTINUOUS
10
0.560221
20
0.375946
11
0.564817
21
0.378288
0
LINE
8
BLACK
6
CONTINUOUS
10
0.564817
20
0.378288
11
0.569911
21
0.379094
0
LINE
8
BLACK
6
CONTINUOUS
10
0.569911
20
0.379094
11
0.590089
21
0.379094
0
LINE
8
BLACK
6
CONTINUOUS
10
0.590089
20
0.379094
11
0.595183
21
0.378288
0
LINE
8
BLACK
6
CONTINUOUS
10
0.670183
20
0.378288
11
0.674779
21
0.375946
0
LINE
8
BLACK
6
CONTINUOUS
10
0.674779
20
0.375946
11
0.678426
21
0.372299
0
LINE
8
BLACK
6
CONTINUOUS
10
0.678426
20
0.372299
11
0.680768
21
0.367703
0
LINE
8
BLACK
6
CONTINUOUS
10
0.680768
20
0.367703
11
0.681575
21
0.362608
0
LINE
8
BLACK
6
CONTINUOUS
10
0.681575
20
0.362608
11
0.681575
21
0.345384
0
LINE
8
BLACK
6
CONTINUOUS
10
0.681575
20
0.345384
11
0.680768
21
0.340289
0
LINE
8
BLACK
6
CONTINUOUS
10
0.680768
20
0.340289
11
0.678426
21
0.335694
0
LINE
8
BLACK
6
CONTINUOUS
10
0.678426
20
0.335694
11
0.674779
21
0.332046
0
LINE
8
BLACK
6
CONTINUOUS
10
0.674779
20
0.332046
11
0.670183
21
0.329705
0
LINE
8
BLACK
6
CONTINUOUS
10
0.670183
20
0.329705
11
0.665089
21
0.328898
0
LINE
8
BLACK
6
CONTINUOUS
10
0.665089
20
0.328898
11
0.644911
21
0.328898
0
LINE
8
BLACK
6
CONTINUOUS
10
0.644911
20
0.328898
11
0.639817
21
0.329705
0
LINE
8
BLACK
6
CONTINUOUS
10
0.639817
20
0.329705
11
0.635221
21
0.332046
0
LINE
8
BLACK
6
CONTINUOUS
10
0.635221
20
0.332046
11
0.631574
21
0.335694
0
LINE
8
BLACK
6
CONTINUOUS
10
0.631574
20
0.335694
11
0.629232
21
0.340289
0
LINE
8
BLACK
6
CONTINUOUS
10
0.629232
20
0.340289
11
0.628425
21
0.345384
0
LINE
8
BLACK
6
CONTINUOUS
10
0.628425
20
0.345384
11
0.628425
21
0.362608
0
LINE
8
BLACK
6
CONTINUOUS
10
0.628425
20
0.362608
11
0.629232
21
0.367703
0
LINE
8
BLACK
6
CONTINUOUS
10
0.629232
20
0.367703
11
0.631574
21
0.372299
0
LINE
8
BLACK
6
CONTINUOUS
10
0.631574
20
0.372299
11
0.635221
21
0.375946
0
LINE
8
BLACK
6
CONTINUOUS
10
0.635221
20
0.375946
11
0.639817
21
0.378288
0
LINE
8
BLACK
6
CONTINUOUS
10
0.639817
20
0.378288
11
0.644911
21
0.379094
0
LINE
8
BLACK
6
CONTINUOUS
10
0.644911
20
0.379094
11
0.665089
21
0.379094
0
LINE
8
BLACK
6
CONTINUOUS
10
0.665089
20
0.379094
11
0.670183
21
0.378288
0
LINE
8
BLACK
6
CONTINUOUS
10
0.307348
20
0.381083
11
0.311944
21
0.378741
0
LINE
8
BLACK
6
CONTINUOUS
10
0.311944
20
0.378741
11
0.315592
21
0.375094
0
LINE
8
BLACK
6
CONTINUOUS
10
0.315592
20
0.375094
11
0.317933
21
0.370498
0
LINE
8
BLACK
6
CONTINUOUS
10
0.317933
20
0.370498
11
0.31874
21
0.365404
0
LINE
8
BLACK
6
CONTINUOUS
10
0.31874
20
0.365404
11
0.31874
21
0.348179
0
LINE
8
BLACK
6
CONTINUOUS
10
0.31874
20
0.348179
11
0.317933
21
0.343085
0
LINE
8
BLACK
6
CONTINUOUS
10
0.317933
20
0.343085
11
0.315592
21
0.338489
0
LINE
8
BLACK
6
CONTINUOUS
10
0.315592
20
0.338489
11
0.311944
21
0.334841
0
LINE
8
BLACK
6
CONTINUOUS
10
0.311944
20
0.334841
11
0.307348
21
0.3325
0
LINE
8
BLACK
6
CONTINUOUS
10
0.307348
20
0.3325
11
0.302254
21
0.331693
0
LINE
8
BLACK
6
CONTINUOUS
10
0.302254
20
0.331693
11
0.282077
21
0.331693
0
LINE
8
BLACK
6
CONTINUOUS
10
0.282077
20
0.331693
11
0.276982
21
0.3325
0
LINE
8
BLACK
6
CONTINUOUS
10
0.276982
20
0.3325
11
0.272386
21
0.334841
0
LINE
8
BLACK
6
CONTINUOUS
10
0.272386
20
0.334841
11
0.268739
21
0.338489
0
LINE
8
BLACK
6
CONTINUOUS
10
0.268739
20
0.338489
11
0.266397
21
0.343085
0
LINE
8
BLACK
6
CONTINUOUS
10
0.266397
20
0.343085
11
0.265591
21
0.348179
0
LINE
8
BLACK
6
CONTINUOUS
10
0.265591
20
0.348179
11
0.265591
21
0.365404
0
LINE
8
BLACK
6
CONTINUOUS
10
0.265591
20
0.365404
11
0.266397
21
0.370498
0
LINE
8
BLACK
6
CONTINUOUS
10
0.266397
20
0.370498
11
0.268739
21
0.375094
0
LINE
8
BLACK
6
CONTINUOUS
10
0.268739
20
0.375094
11
0.272386
21
0.378741
0
LINE
8
BLACK
6
CONTINUOUS
10
0.272386
20
0.378741
11
0.276982
21
0.381083
0
LINE
8
BLACK
6
CONTINUOUS
10
0.276982
20
0.381083
11
0.282077
21
0.38189
0
LINE
8
BLACK
6
CONTINUOUS
10
0.282077
20
0.38189
11
0.302254
21
0.38189
0
LINE
8
BLACK
6
CONTINUOUS
10
0.302254
20
0.38189
11
0.307348
21
0.381083
0
LINE
8
BLACK
6
CONTINUOUS
10
0.373919
20
0.376369
11
0.376473
21
0.374662
0
LINE
8
BLACK
6
CONTINUOUS
10
0.376473
20
0.374662
11
0.37818
21
0.372108
0
LINE
8
BLACK
6
CONTINUOUS
10
0.37818
20
0.372108
11
0.37878
21
0.369094
0
LINE
8
BLACK
6
CONTINUOUS
10
0.37878
20
0.369094
11
0.37878
21
0.345472
0
LINE
8
BLACK
6
CONTINUOUS
10
0.37878
20
0.345472
11
0.37818
21
0.342459
0
LINE
8
BLACK
6
CONTINUOUS
10
0.37818
20
0.342459
11
0.376473
21
0.339905
0
LINE
8
BLACK
6
CONTINUOUS
10
0.376473
20
0.339905
11
0.373919
21
0.338198
0
LINE
8
BLACK
6
CONTINUOUS
10
0.373919
20
0.338198
11
0.370906
21
0.337598
0
LINE
8
BLACK
6
CONTINUOUS
10
0.370906
20
0.337598
11
0.343346
21
0.337598
0
LINE
8
BLACK
6
CONTINUOUS
10
0.343346
20
0.337598
11
0.340333
21
0.338198
0
LINE
8
BLACK
6
CONTINUOUS
10
0.340333
20
0.338198
11
0.337779
21
0.339905
0
LINE
8
BLACK
6
CONTINUOUS
10
0.337779
20
0.339905
11
0.336072
21
0.342459
0
LINE
8
BLACK
6
CONTINUOUS
10
0.336072
20
0.342459
11
0.335472
21
0.345472
0
LINE
8
BLACK
6
CONTINUOUS
10
0.335472
20
0.345472
11
0.335472
21
0.369094
0
LINE
8
BLACK
6
CONTINUOUS
10
0.335472
20
0.369094
11
0.336072
21
0.372108
0
LINE
8
BLACK
6
CONTINUOUS
10
0.336072
20
0.372108
11
0.337779
21
0.374662
0
LINE
8
BLACK
6
CONTINUOUS
10
0.337779
20
0.374662
11
0.340333
21
0.376369
0
LINE
8
BLACK
6
CONTINUOUS
10
0.340333
20
0.376369
11
0.343346
21
0.376969
0
LINE
8
BLACK
6
CONTINUOUS
10
0.343346
20
0.376969
11
0.370906
21
0.376969
0
LINE
8
BLACK
6
CONTINUOUS
10
0.370906
20
0.376969
11
0.373919
21
0.376369
0
LINE
8
BLACK
6
CONTINUOUS
10
0.222326
20
0.388207
11
0.226401
21
0.386214
0
LINE
8
BLACK
6
CONTINUOUS
10
0.226401
20
0.386214
11
0.229608
21
0.383007
0
LINE
8
BLACK
6
CONTINUOUS
10
0.229608
20
0.383007
11
0.2316
21
0.378932
0
LINE
8
BLACK
6
CONTINUOUS
10
0.2316
20
0.378932
11
0.232173
21
0.375
0
LINE
8
BLACK
6
CONTINUOUS
10
0.232173
20
0.375
11
0.232173
21
0.363189
0
LINE
8
BLACK
6
CONTINUOUS
10
0.232173
20
0.363189
11
0.2316
21
0.359257
0
LINE
8
BLACK
6
CONTINUOUS
10
0.2316
20
0.359257
11
0.229608
21
0.355182
0
LINE
8
BLACK
6
CONTINUOUS
10
0.229608
20
0.355182
11
0.226401
21
0.351975
0
LINE
8
BLACK
6
CONTINUOUS
10
0.226401
20
0.351975
11
0.222326
21
0.349982
0
LINE
8
BLACK
6
CONTINUOUS
10
0.222326
20
0.349982
11
0.218394
21
0.349409
0
LINE
8
BLACK
6
CONTINUOUS
10
0.218394
20
0.349409
11
0.163276
21
0.349409
0
LINE
8
BLACK
6
CONTINUOUS
10
0.163276
20
0.349409
11
0.159344
21
0.349982
0
LINE
8
BLACK
6
CONTINUOUS
10
0.159344
20
0.349982
11
0.155269
21
0.351975
0
LINE
8
BLACK
6
CONTINUOUS
10
0.155269
20
0.351975
11
0.152061
21
0.355182
0
LINE
8
BLACK
6
CONTINUOUS
10
0.152061
20
0.355182
11
0.150069
21
0.359257
0
LINE
8
BLACK
6
CONTINUOUS
10
0.150069
20
0.359257
11
0.149496
21
0.363189
0
LINE
8
BLACK
6
CONTINUOUS
10
0.149496
20
0.363189
11
0.149496
21
0.375
0
LINE
8
BLACK
6
CONTINUOUS
10
0.149496
20
0.375
11
0.150069
21
0.378932
0
LINE
8
BLACK
6
CONTINUOUS
10
0.150069
20
0.378932
11
0.152061
21
0.383007
0
LINE
8
BLACK
6
CONTINUOUS
10
0.152061
20
0.383007
11
0.155269
21
0.386214
0
LINE
8
BLACK
6
CONTINUOUS
10
0.155269
20
0.386214
11
0.159344
21
0.388207
0
LINE
8
BLACK
6
CONTINUOUS
10
0.159344
20
0.388207
11
0.163276
21
0.38878
0
LINE
8
BLACK
6
CONTINUOUS
10
0.163276
20
0.38878
11
0.218394
21
0.38878
0
LINE
8
BLACK
6
CONTINUOUS
10
0.218394
20
0.38878
11
0.222326
21
0.388207
0
LINE
8
BLACK
6
CONTINUOUS
10
0.5229
20
0.439154
11
0.527495
21
0.436812
0
LINE
8
BLACK
6
CONTINUOUS
10
0.527495
20
0.436812
11
0.531143
21
0.433165
0
LINE
8
BLACK
6
CONTINUOUS
10
0.531143
20
0.433165
11
0.533484
21
0.428569
0
LINE
8
BLACK
6
CONTINUOUS
10
0.533484
20
0.428569
11
0.534291
21
0.423474
0
LINE
8
BLACK
6
CONTINUOUS
10
0.534291
20
0.423474
11
0.534291
21
0.40625
0
LINE
8
BLACK
6
CONTINUOUS
10
0.534291
20
0.40625
11
0.533484
21
0.401155
0
LINE
8
BLACK
6
CONTINUOUS
10
0.533484
20
0.401155
11
0.531143
21
0.39656
0
LINE
8
BLACK
6
CONTINUOUS
10
0.531143
20
0.39656
11
0.527495
21
0.392912
0
LINE
8
BLACK
6
CONTINUOUS
10
0.527495
20
0.392912
11
0.5229
21
0.390571
0
LINE
8
BLACK
6
CONTINUOUS
10
0.5229
20
0.390571
11
0.517805
21
0.389764
0
LINE
8
BLACK
6
CONTINUOUS
10
0.517805
20
0.389764
11
0.497628
21
0.389764
0
LINE
8
BLACK
6
CONTINUOUS
10
0.497628
20
0.389764
11
0.492533
21
0.390571
0
LINE
8
BLACK
6
CONTINUOUS
10
0.492533
20
0.390571
11
0.487938
21
0.392912
0
LINE
8
BLACK
6
CONTINUOUS
10
0.487938
20
0.392912
11
0.48429
21
0.39656
0
LINE
8
BLACK
6
CONTINUOUS
10
0.48429
20
0.39656
11
0.481949
21
0.401155
0
LINE
8
BLACK
6
CONTINUOUS
10
0.481949
20
0.401155
11
0.481142
21
0.40625
0
LINE
8
BLACK
6
CONTINUOUS
10
0.481142
20
0.40625
11
0.481142
21
0.423474
0
LINE
8
BLACK
6
CONTINUOUS
10
0.481142
20
0.423474
11
0.481949
21
0.428569
0
LINE
8
BLACK
6
CONTINUOUS
10
0.481949
20
0.428569
11
0.48429
21
0.433165
0
LINE
8
BLACK
6
CONTINUOUS
10
0.48429
20
0.433165
11
0.487938
21
0.436812
0
LINE
8
BLACK
6
CONTINUOUS
10
0.487938
20
0.436812
11
0.492533
21
0.439154
0
LINE
8
BLACK
6
CONTINUOUS
10
0.492533
20
0.439154
11
0.497628
21
0.439961
0
LINE
8
BLACK
6
CONTINUOUS
10
0.497628
20
0.439961
11
0.517805
21
0.439961
0
LINE
8
BLACK
6
CONTINUOUS
10
0.517805
20
0.439961
11
0.5229
21
0.439154
0
LINE
8
BLACK
6
CONTINUOUS
10
0.595183
20
0.440295
11
0.599779
21
0.437954
0
LINE
8
BLACK
6
CONTINUOUS
10
0.599779
20
0.437954
11
0.603426
21
0.434306
0
LINE
8
BLACK
6
CONTINUOUS
10
0.603426
20
0.434306
11
0.605768
21
0.429711
0
LINE
8
BLACK
6
CONTINUOUS
10
0.605768
20
0.429711
11
0.606575
21
0.424616
0
LINE
8
BLACK
6
CONTINUOUS
10
0.606575
20
0.424616
11
0.606575
21
0.407392
0
LINE
8
BLACK
6
CONTINUOUS
10
0.606575
20
0.407392
11
0.605768
21
0.402297
0
LINE
8
BLACK
6
CONTINUOUS
10
0.605768
20
0.402297
11
0.603426
21
0.397701
0
LINE
8
BLACK
6
CONTINUOUS
10
0.603426
20
0.397701
11
0.599779
21
0.394054
0
LINE
8
BLACK
6
CONTINUOUS
10
0.599779
20
0.394054
11
0.595183
21
0.391712
0
LINE
8
BLACK
6
CONTINUOUS
10
0.595183
20
0.391712
11
0.590089
21
0.390906
0
LINE
8
BLACK
6
CONTINUOUS
10
0.590089
20
0.390906
11
0.569911
21
0.390906
0
LINE
8
BLACK
6
CONTINUOUS
10
0.569911
20
0.390906
11
0.564817
21
0.391712
0
LINE
8
BLACK
6
CONTINUOUS
10
0.564817
20
0.391712
11
0.560221
21
0.394054
0
LINE
8
BLACK
6
CONTINUOUS
10
0.560221
20
0.394054
11
0.556574
21
0.397701
0
LINE
8
BLACK
6
CONTINUOUS
10
0.556574
20
0.397701
11
0.554232
21
0.402297
0
LINE
8
BLACK
6
CONTINUOUS
10
0.554232
20
0.402297
11
0.553425
21
0.407392
0
LINE
8
BLACK
6
CONTINUOUS
10
0.553425
20
0.407392
11
0.553425
21
0.424616
0
LINE
8
BLACK
6
CONTINUOUS
10
0.553425
20
0.424616
11
0.554232
21
0.429711
0
LINE
8
BLACK
6
CONTINUOUS
10
0.554232
20
0.429711
11
0.556574
21
0.434306
0
LINE
8
BLACK
6
CONTINUOUS
10
0.556574
20
0.434306
11
0.560221
21
0.437954
0
LINE
8
BLACK
6
CONTINUOUS
10
0.560221
20
0.437954
11
0.564817
21
0.440295
0
LINE
8
BLACK
6
CONTINUOUS
10
0.564817
20
0.440295
11
0.569911
21
0.441102
0
LINE
8
BLACK
6
CONTINUOUS
10
0.569911
20
0.441102
11
0.590089
21
0.441102
0
LINE
8
BLACK
6
CONTINUOUS
10
0.590089
20
0.441102
11
0.595183
21
0.440295
0
LINE
8
BLACK
6
CONTINUOUS
10
0.670183
20
0.440295
11
0.674779
21
0.437954
0
LINE
8
BLACK
6
CONTINUOUS
10
0.674779
20
0.437954
11
0.678426
21
0.434306
0
LINE
8
BLACK
6
CONTINUOUS
10
0.678426
20
0.434306
11
0.680768
21
0.429711
0
LINE
8
BLACK
6
CONTINUOUS
10
0.680768
20
0.429711
11
0.681575
21
0.424616
0
LINE
8
BLACK
6
CONTINUOUS
10
0.681575
20
0.424616
11
0.681575
21
0.407392
0
LINE
8
BLACK
6
CONTINUOUS
10
0.681575
20
0.407392
11
0.680768
21
0.402297
0
LINE
8
BLACK
6
CONTINUOUS
10
0.680768
20
0.402297
11
0.678426
21
0.397701
0
LINE
8
BLACK
6
CONTINUOUS
10
0.678426
20
0.397701
11
0.674779
21
0.394054
0
LINE
8
BLACK
6
CONTINUOUS
10
0.674779
20
0.394054
11
0.670183
21
0.391712
0
LINE
8
BLACK
6
CONTINUOUS
10
0.670183
20
0.391712
11
0.665089
21
0.390906
0
LINE
8
BLACK
6
CONTINUOUS
10
0.665089
20
0.390906
11
0.644911
21
0.390906
0
LINE
8
BLACK
6
CONTINUOUS
10
0.644911
20
0.390906
11
0.639817
21
0.391712
0
LINE
8
BLACK
6
CONTINUOUS
10
0.639817
20
0.391712
11
0.635221
21
0.394054
0
LINE
8
BLACK
6
CONTINUOUS
10
0.635221
20
0.394054
11
0.631574
21
0.397701
0
LINE
8
BLACK
6
CONTINUOUS
10
0.631574
20
0.397701
11
0.629232
21
0.402297
0
LINE
8
BLACK
6
CONTINUOUS
10
0.629232
20
0.402297
11
0.628425
21
0.407392
0
LINE
8
BLACK
6
CONTINUOUS
10
0.628425
20
0.407392
11
0.628425
21
0.424616
0
LINE
8
BLACK
6
CONTINUOUS
10
0.628425
20
0.424616
11
0.629232
21
0.429711
0
LINE
8
BLACK
6
CONTINUOUS
10
0.629232
20
0.429711
11
0.631574
21
0.434306
0
LINE
8
BLACK
6
CONTINUOUS
10
0.631574
20
0.434306
11
0.635221
21
0.437954
0
LINE
8
BLACK
6
CONTINUOUS
10
0.635221
20
0.437954
11
0.639817
21
0.440295
0
LINE
8
BLACK
6
CONTINUOUS
10
0.639817
20
0.440295
11
0.644911
21
0.441102
0
LINE
8
BLACK
6
CONTINUOUS
10
0.644911
20
0.441102
11
0.665089
21
0.441102
0
LINE
8
BLACK
6
CONTINUOUS
10
0.665089
20
0.441102
11
0.670183
21
0.440295
0
LINE
8
BLACK
6
CONTINUOUS
10
0.373919
20
0.431487
11
0.376473
21
0.42978
0
LINE
8
BLACK
6
CONTINUOUS
10
0.376473
20
0.42978
11
0.37818
21
0.427226
0
LINE
8
BLACK
6
CONTINUOUS
10
0.37818
20
0.427226
11
0.37878
21
0.424213
0
LINE
8
BLACK
6
CONTINUOUS
10
0.37878
20
0.424213
11
0.37878
21
0.400591
0
LINE
8
BLACK
6
CONTINUOUS
10
0.37878
20
0.400591
11
0.37818
21
0.397577
0
LINE
8
BLACK
6
CONTINUOUS
10
0.37818
20
0.397577
11
0.376473
21
0.395023
0
LINE
8
BLACK
6
CONTINUOUS
10
0.376473
20
0.395023
11
0.373919
21
0.393316
0
LINE
8
BLACK
6
CONTINUOUS
10
0.373919
20
0.393316
11
0.370906
21
0.392717
0
LINE
8
BLACK
6
CONTINUOUS
10
0.370906
20
0.392717
11
0.343346
21
0.392717
0
LINE
8
BLACK
6
CONTINUOUS
10
0.343346
20
0.392717
11
0.340333
21
0.393316
0
LINE
8
BLACK
6
CONTINUOUS
10
0.340333
20
0.393316
11
0.337779
21
0.395023
0
LINE
8
BLACK
6
CONTINUOUS
10
0.337779
20
0.395023
11
0.336072
21
0.397577
0
LINE
8
BLACK
6
CONTINUOUS
10
0.336072
20
0.397577
11
0.335472
21
0.400591
0
LINE
8
BLACK
6
CONTINUOUS
10
0.335472
20
0.400591
11
0.335472
21
0.424213
0
LINE
8
BLACK
6
CONTINUOUS
10
0.335472
20
0.424213
11
0.336072
21
0.427226
0
LINE
8
BLACK
6
CONTINUOUS
10
0.336072
20
0.427226
11
0.337779
21
0.42978
0
LINE
8
BLACK
6
CONTINUOUS
10
0.337779
20
0.42978
11
0.340333
21
0.431487
0
LINE
8
BLACK
6
CONTINUOUS
10
0.340333
20
0.431487
11
0.343346
21
0.432087
0
LINE
8
BLACK
6
CONTINUOUS
10
0.343346
20
0.432087
11
0.370906
21
0.432087
0
LINE
8
BLACK
6
CONTINUOUS
10
0.370906
20
0.432087
11
0.373919
21
0.431487
0
LINE
8
BLACK
6
CONTINUOUS
10
0.307348
20
0.443091
11
0.311944
21
0.440749
0
LINE
8
BLACK
6
CONTINUOUS
10
0.311944
20
0.440749
11
0.315592
21
0.437102
0
LINE
8
BLACK
6
CONTINUOUS
10
0.315592
20
0.437102
11
0.317933
21
0.432506
0
LINE
8
BLACK
6
CONTINUOUS
10
0.317933
20
0.432506
11
0.31874
21
0.427411
0
LINE
8
BLACK
6
CONTINUOUS
10
0.31874
20
0.427411
11
0.31874
21
0.410187
0
LINE
8
BLACK
6
CONTINUOUS
10
0.31874
20
0.410187
11
0.317933
21
0.405092
0
LINE
8
BLACK
6
CONTINUOUS
10
0.317933
20
0.405092
11
0.315592
21
0.400497
0
LINE
8
BLACK
6
CONTINUOUS
10
0.315592
20
0.400497
11
0.311944
21
0.396849
0
LINE
8
BLACK
6
CONTINUOUS
10
0.311944
20
0.396849
11
0.307348
21
0.394508
0
LINE
8
BLACK
6
CONTINUOUS
10
0.307348
20
0.394508
11
0.302254
21
0.393701
0
LINE
8
BLACK
6
CONTINUOUS
10
0.302254
20
0.393701
11
0.282077
21
0.393701
0
LINE
8
BLACK
6
CONTINUOUS
10
0.282077
20
0.393701
11
0.276982
21
0.394508
0
LINE
8
BLACK
6
CONTINUOUS
10
0.276982
20
0.394508
11
0.272386
21
0.396849
0
LINE
8
BLACK
6
CONTINUOUS
10
0.272386
20
0.396849
11
0.268739
21
0.400497
0
LINE
8
BLACK
6
CONTINUOUS
10
0.268739
20
0.400497
11
0.266397
21
0.405092
0
LINE
8
BLACK
6
CONTINUOUS
10
0.266397
20
0.405092
11
0.265591
21
0.410187
0
LINE
8
BLACK
6
CONTINUOUS
10
0.265591
20
0.410187
11
0.265591
21
0.427411
0
LINE
8
BLACK
6
CONTINUOUS
10
0.265591
20
0.427411
11
0.266397
21
0.432506
0
LINE
8
BLACK
6
CONTINUOUS
10
0.266397
20
0.432506
11
0.268739
21
0.437102
0
LINE
8
BLACK
6
CONTINUOUS
10
0.268739
20
0.437102
11
0.272386
21
0.440749
0
LINE
8
BLACK
6
CONTINUOUS
10
0.272386
20
0.440749
11
0.276982
21
0.443091
0
LINE
8
BLACK
6
CONTINUOUS
10
0.276982
20
0.443091
11
0.282077
21
0.443898
0
LINE
8
BLACK
6
CONTINUOUS
10
0.282077
20
0.443898
11
0.302254
21
0.443898
0
LINE
8
BLACK
6
CONTINUOUS
10
0.302254
20
0.443898
11
0.307348
21
0.443091
0
LINE
8
BLACK
6
CONTINUOUS
10
0.456537
20
0.452038
11
0.459091
21
0.450332
0
LINE
8
BLACK
6
CONTINUOUS
10
0.459091
20
0.450332
11
0.460798
21
0.447777
0
LINE
8
BLACK
6
CONTINUOUS
10
0.460798
20
0.447777
11
0.461398
21
0.444764
0
LINE
8
BLACK
6
CONTINUOUS
10
0.461398
20
0.444764
11
0.461398
21
0.409764
0
LINE
8
BLACK
6
CONTINUOUS
10
0.461398
20
0.409764
11
0.460798
21
0.406751
0
LINE
8
BLACK
6
CONTINUOUS
10
0.460798
20
0.406751
11
0.459091
21
0.404196
0
LINE
8
BLACK
6
CONTINUOUS
10
0.459091
20
0.404196
11
0.456537
21
0.402489
0
LINE
8
BLACK
6
CONTINUOUS
10
0.456537
20
0.402489
11
0.453524
21
0.40189
0
LINE
8
BLACK
6
CONTINUOUS
10
0.453524
20
0.40189
11
0.398524
21
0.40189
0
LINE
8
BLACK
6
CONTINUOUS
10
0.398524
20
0.40189
11
0.39551
21
0.402489
0
LINE
8
BLACK
6
CONTINUOUS
10
0.39551
20
0.402489
11
0.392956
21
0.404196
0
LINE
8
BLACK
6
CONTINUOUS
10
0.392956
20
0.404196
11
0.391249
21
0.406751
0
LINE
8
BLACK
6
CONTINUOUS
10
0.391249
20
0.406751
11
0.39065
21
0.409764
0
LINE
8
BLACK
6
CONTINUOUS
10
0.39065
20
0.409764
11
0.39065
21
0.444764
0
LINE
8
BLACK
6
CONTINUOUS
10
0.39065
20
0.444764
11
0.391249
21
0.447777
0
LINE
8
BLACK
6
CONTINUOUS
10
0.391249
20
0.447777
11
0.392956
21
0.450332
0
LINE
8
BLACK
6
CONTINUOUS
10
0.392956
20
0.450332
11
0.39551
21
0.452038
0
LINE
8
BLACK
6
CONTINUOUS
10
0.39551
20
0.452038
11
0.398524
21
0.452638
0
LINE
8
BLACK
6
CONTINUOUS
10
0.398524
20
0.452638
11
0.453524
21
0.452638
0
LINE
8
BLACK
6
CONTINUOUS
10
0.453524
20
0.452638
11
0.456537
21
0.452038
0
LINE
8
BLACK
6
CONTINUOUS
10
0.854959
20
0.503142
11
0.859487
21
0.500835
0
LINE
8
BLACK
6
CONTINUOUS
10
0.859487
20
0.500835
11
0.86308
21
0.497243
0
LINE
8
BLACK
6
CONTINUOUS
10
0.86308
20
0.497243
11
0.865386
21
0.492715
0
LINE
8
BLACK
6
CONTINUOUS
10
0.865386
20
0.492715
11
0.866181
21
0.487697
0
LINE
8
BLACK
6
CONTINUOUS
10
0.866181
20
0.487697
11
0.866976
21
0.492715
0
LINE
8
BLACK
6
CONTINUOUS
10
0.866976
20
0.492715
11
0.869283
21
0.497243
0
LINE
8
BLACK
6
CONTINUOUS
10
0.869283
20
0.497243
11
0.872876
21
0.500835
0
LINE
8
BLACK
6
CONTINUOUS
10
0.872876
20
0.500835
11
0.877403
21
0.503142
0
LINE
8
BLACK
6
CONTINUOUS
10
0.877403
20
0.503142
11
0.882421
21
0.503937
0
LINE
8
BLACK
6
CONTINUOUS
10
0.882421
20
0.503937
11
0.899154
21
0.503937
0
LINE
8
BLACK
6
CONTINUOUS
10
0.899154
20
0.503937
11
0.904172
21
0.503142
0
LINE
8
BLACK
6
CONTINUOUS
10
0.904172
20
0.503142
11
0.908699
21
0.500835
0
LINE
8
BLACK
6
CONTINUOUS
10
0.908699
20
0.500835
11
0.912292
21
0.497243
0
LINE
8
BLACK
6
CONTINUOUS
10
0.912292
20
0.497243
11
0.914599
21
0.492715
0
LINE
8
BLACK
6
CONTINUOUS
10
0.914599
20
0.492715
11
0.915394
21
0.487697
0
LINE
8
BLACK
6
CONTINUOUS
10
0.915394
20
0.487697
11
0.916189
21
0.492715
0
LINE
8
BLACK
6
CONTINUOUS
10
0.916189
20
0.492715
11
0.918495
21
0.497243
0
LINE
8
BLACK
6
CONTINUOUS
10
0.918495
20
0.497243
11
0.922088
21
0.500835
0
LINE
8
BLACK
6
CONTINUOUS
10
0.922088
20
0.500835
11
0.926615
21
0.503142
0
LINE
8
BLACK
6
CONTINUOUS
10
0.926615
20
0.503142
11
0.931634
21
0.503937
0
LINE
8
BLACK
6
CONTINUOUS
10
0.931634
20
0.503937
11
0.948366
21
0.503937
0
LINE
8
BLACK
6
CONTINUOUS
10
0.948366
20
0.503937
11
0.953385
21
0.503142
0
LINE
8
BLACK
6
CONTINUOUS
10
0.953385
20
0.503142
11
0.957912
21
0.500835
0
LINE
8
BLACK
6
CONTINUOUS
10
0.957912
20
0.500835
11
0.961505
21
0.497243
0
LINE
8
BLACK
6
CONTINUOUS
10
0.961505
20
0.497243
11
0.963811
21
0.492715
0
LINE
8
BLACK
6
CONTINUOUS
10
0.963811
20
0.492715
11
0.964606
21
0.487697
0
LINE
8
BLACK
6
CONTINUOUS
10
0.964606
20
0.487697
11
0.965401
21
0.492715
0
LINE
8
BLACK
6
CONTINUOUS
10
0.965401
20
0.492715
11
0.967708
21
0.497243
0
LINE
8
BLACK
6
CONTINUOUS
10
0.967708
20
0.497243
11
0.971301
21
0.500835
0
LINE
8
BLACK
6
CONTINUOUS
10
0.971301
20
0.500835
11
0.975828
21
0.503142
0
LINE
8
BLACK
6
CONTINUOUS
10
0.975828
20
0.503142
11
0.980846
21
0.503937
0
LINE
8
BLACK
6
CONTINUOUS
10
0.980846
20
0.503937
11
0.997579
21
0.503937
0
LINE
8
BLACK
6
CONTINUOUS
10
0.997579
20
0.503937
11
1.0026
21
0.503142
0
LINE
8
BLACK
6
CONTINUOUS
10
1.0026
20
0.503142
11
1.00712
21
0.500835
0
LINE
8
BLACK
6
CONTINUOUS
10
1.00712
20
0.500835
11
1.01072
21
0.497243
0
LINE
8
BLACK
6
CONTINUOUS
10
1.01072
20
0.497243
11
1.01302
21
0.492715
0
LINE
8
BLACK
6
CONTINUOUS
10
1.01302
20
0.492715
11
1.01382
21
0.487697
0
LINE
8
BLACK
6
CONTINUOUS
10
1.01382
20
0.487697
11
1.01461
21
0.492715
0
LINE
8
BLACK
6
CONTINUOUS
10
1.01461
20
0.492715
11
1.01692
21
0.497243
0
LINE
8
BLACK
6
CONTINUOUS
10
1.01692
20
0.497243
11
1.02051
21
0.500835
0
LINE
8
BLACK
6
CONTINUOUS
10
1.02051
20
0.500835
11
1.02504
21
0.503142
0
LINE
8
BLACK
6
CONTINUOUS
10
1.02504
20
0.503142
11
1.03006
21
0.503937
0
LINE
8
BLACK
6
CONTINUOUS
10
1.03006
20
0.503937
11
1.04679
21
0.503937
0
LINE
8
BLACK
6
CONTINUOUS
10
1.04679
20
0.503937
11
1.05181
21
0.503142
0
LINE
8
BLACK
6
CONTINUOUS
10
1.05181
20
0.503142
11
1.05634
21
0.500835
0
LINE
8
BLACK
6
CONTINUOUS
10
1.05634
20
0.500835
11
1.05993
21
0.497243
0
LINE
8
BLACK
6
CONTINUOUS
10
1.05993
20
0.497243
11
1.06224
21
0.492715
0
LINE
8
BLACK
6
CONTINUOUS
10
1.06224
20
0.492715
11
1.06303
21
0.487697
0
LINE
8
BLACK
6
CONTINUOUS
10
1.06303
20
0.487697
11
1.06303
21
0.429626
0
LINE
8
BLACK
6
CONTINUOUS
10
1.06303
20
0.429626
11
1.06224
21
0.424607
0
LINE
8
BLACK
6
CONTINUOUS
10
1.06224
20
0.424607
11
1.05993
21
0.42008
0
LINE
8
BLACK
6
CONTINUOUS
10
1.05993
20
0.42008
11
1.05634
21
0.416487
0
LINE
8
BLACK
6
CONTINUOUS
10
1.05634
20
0.416487
11
1.05181
21
0.414181
0
LINE
8
BLACK
6
CONTINUOUS
10
1.05181
20
0.414181
11
1.04679
21
0.413386
0
LINE
8
BLACK
6
CONTINUOUS
10
1.04679
20
0.413386
11
1.03006
21
0.413386
0
LINE
8
BLACK
6
CONTINUOUS
10
1.03006
20
0.413386
11
1.02504
21
0.414181
0
LINE
8
BLACK
6
CONTINUOUS
10
1.02504
20
0.414181
11
1.02051
21
0.416487
0
LINE
8
BLACK
6
CONTINUOUS
10
1.02051
20
0.416487
11
1.01692
21
0.42008
0
LINE
8
BLACK
6
CONTINUOUS
10
1.01692
20
0.42008
11
1.01461
21
0.424607
0
LINE
8
BLACK
6
CONTINUOUS
10
1.01461
20
0.424607
11
1.01382
21
0.429626
0
LINE
8
BLACK
6
CONTINUOUS
10
1.01382
20
0.429626
11
1.01302
21
0.424607
0
LINE
8
BLACK
6
CONTINUOUS
10
1.01302
20
0.424607
11
1.01072
21
0.42008
0
LINE
8
BLACK
6
CONTINUOUS
10
1.01072
20
0.42008
11
1.00712
21
0.416487
0
LINE
8
BLACK
6
CONTINUOUS
10
1.00712
20
0.416487
11
1.0026
21
0.414181
0
LINE
8
BLACK
6
CONTINUOUS
10
1.0026
20
0.414181
11
0.997579
21
0.413386
0
LINE
8
BLACK
6
CONTINUOUS
10
0.997579
20
0.413386
11
0.980846
21
0.413386
0
LINE
8
BLACK
6
CONTINUOUS
10
0.980846
20
0.413386
11
0.975828
21
0.414181
0
LINE
8
BLACK
6
CONTINUOUS
10
0.975828
20
0.414181
11
0.971301
21
0.416487
0
LINE
8
BLACK
6
CONTINUOUS
10
0.971301
20
0.416487
11
0.967708
21
0.42008
0
LINE
8
BLACK
6
CONTINUOUS
10
0.967708
20
0.42008
11
0.965401
21
0.424607
0
LINE
8
BLACK
6
CONTINUOUS
10
0.965401
20
0.424607
11
0.964606
21
0.429626
0
LINE
8
BLACK
6
CONTINUOUS
10
0.964606
20
0.429626
11
0.963811
21
0.424607
0
LINE
8
BLACK
6
CONTINUOUS
10
0.963811
20
0.424607
11
0.961505
21
0.42008
0
LINE
8
BLACK
6
CONTINUOUS
10
0.961505
20
0.42008
11
0.957912
21
0.416487
0
LINE
8
BLACK
6
CONTINUOUS
10
0.957912
20
0.416487
11
0.953385
21
0.414181
0
LINE
8
BLACK
6
CONTINUOUS
10
0.953385
20
0.414181
11
0.948366
21
0.413386
0
LINE
8
BLACK
6
CONTINUOUS
10
0.948366
20
0.413386
11
0.931634
21
0.413386
0
LINE
8
BLACK
6
CONTINUOUS
10
0.931634
20
0.413386
11
0.926615
21
0.414181
0
LINE
8
BLACK
6
CONTINUOUS
10
0.926615
20
0.414181
11
0.922088
21
0.416487
0
LINE
8
BLACK
6
CONTINUOUS
10
0.922088
20
0.416487
11
0.918495
21
0.42008
0
LINE
8
BLACK
6
CONTINUOUS
10
0.918495
20
0.42008
11
0.916189
21
0.424607
0
LINE
8
BLACK
6
CONTINUOUS
10
0.916189
20
0.424607
11
0.915394
21
0.429626
0
LINE
8
BLACK
6
CONTINUOUS
10
0.915394
20
0.429626
11
0.914599
21
0.424607
0
LINE
8
BLACK
6
CONTINUOUS
10
0.914599
20
0.424607
11
0.912292
21
0.42008
0
LINE
8
BLACK
6
CONTINUOUS
10
0.912292
20
0.42008
11
0.908699
21
0.416487
0
LINE
8
BLACK
6
CONTINUOUS
10
0.908699
20
0.416487
11
0.904172
21
0.414181
0
LINE
8
BLACK
6
CONTINUOUS
10
0.904172
20
0.414181
11
0.899154
21
0.413386
0
LINE
8
BLACK
6
CONTINUOUS
10
0.899154
20
0.413386
11
0.882421
21
0.413386
0
LINE
8
BLACK
6
CONTINUOUS
10
0.882421
20
0.413386
11
0.877403
21
0.414181
0
LINE
8
BLACK
6
CONTINUOUS
10
0.877403
20
0.414181
11
0.872876
21
0.416487
0
LINE
8
BLACK
6
CONTINUOUS
10
0.872876
20
0.416487
11
0.869283
21
0.42008
0
LINE
8
BLACK
6
CONTINUOUS
10
0.869283
20
0.42008
11
0.866976
21
0.424607
0
LINE
8
BLACK
6
CONTINUOUS
10
0.866976
20
0.424607
11
0.866181
21
0.429626
0
LINE
8
BLACK
6
CONTINUOUS
10
0.866181
20
0.429626
11
0.865386
21
0.424607
0
LINE
8
BLACK
6
CONTINUOUS
10
0.865386
20
0.424607
11
0.86308
21
0.42008
0
LINE
8
BLACK
6
CONTINUOUS
10
0.86308
20
0.42008
11
0.859487
21
0.416487
0
LINE
8
BLACK
6
CONTINUOUS
10
0.859487
20
0.416487
11
0.854959
21
0.414181
0
LINE
8
BLACK
6
CONTINUOUS
10
0.854959
20
0.414181
11
0.849941
21
0.413386
0
LINE
8
BLACK
6
CONTINUOUS
10
0.849941
20
0.413386
11
0.833209
21
0.413386
0
LINE
8
BLACK
6
CONTINUOUS
10
0.833209
20
0.413386
11
0.82819
21
0.414181
0
LINE
8
BLACK
6
CONTINUOUS
10
0.82819
20
0.414181
11
0.823663
21
0.416487
0
LINE
8
BLACK
6
CONTINUOUS
10
0.823663
20
0.416487
11
0.82007
21
0.42008
0
LINE
8
BLACK
6
CONTINUOUS
10
0.82007
20
0.42008
11
0.817763
21
0.424607
0
LINE
8
BLACK
6
CONTINUOUS
10
0.817763
20
0.424607
11
0.816969
21
0.429626
0
LINE
8
BLACK
6
CONTINUOUS
10
0.816969
20
0.429626
11
0.816969
21
0.487697
0
LINE
8
BLACK
6
CONTINUOUS
10
0.816969
20
0.487697
11
0.817763
21
0.492715
0
LINE
8
BLACK
6
CONTINUOUS
10
0.817763
20
0.492715
11
0.82007
21
0.497243
0
LINE
8
BLACK
6
CONTINUOUS
10
0.82007
20
0.497243
11
0.823663
21
0.500835
0
LINE
8
BLACK
6
CONTINUOUS
10
0.823663
20
0.500835
11
0.82819
21
0.503142
0
LINE
8
BLACK
6
CONTINUOUS
10
0.82819
20
0.503142
11
0.833209
21
0.503937
0
LINE
8
BLACK
6
CONTINUOUS
10
0.833209
20
0.503937
11
0.849941
21
0.503937
0
LINE
8
BLACK
6
CONTINUOUS
10
0.849941
20
0.503937
11
0.854959
21
0.503142
0
LINE
8
BLACK
6
CONTINUOUS
10
0.111451
20
0.469179
11
0.116436
21
0.467435
0
LINE
8
BLACK
6
CONTINUOUS
10
0.116436
20
0.467435
11
0.120685
21
0.464299
0
LINE
8
BLACK
6
CONTINUOUS
10
0.120685
20
0.464299
11
0.123821
21
0.46005
0
LINE
8
BLACK
6
CONTINUOUS
10
0.123821
20
0.46005
11
0.125565
21
0.455065
0
LINE
8
BLACK
6
CONTINUOUS
10
0.125565
20
0.455065
11
0.125874
21
0.451772
0
LINE
8
BLACK
6
CONTINUOUS
10
0.125874
20
0.451772
11
0.125874
21
0.432087
0
LINE
8
BLACK
6
CONTINUOUS
10
0.125874
20
0.432087
11
0.125565
21
0.428793
0
LINE
8
BLACK
6
CONTINUOUS
10
0.125565
20
0.428793
11
0.123821
21
0.423808
0
LINE
8
BLACK
6
CONTINUOUS
10
0.123821
20
0.423808
11
0.120685
21
0.419559
0
LINE
8
BLACK
6
CONTINUOUS
10
0.120685
20
0.419559
11
0.116436
21
0.416423
0
LINE
8
BLACK
6
CONTINUOUS
10
0.116436
20
0.416423
11
0.111451
21
0.414679
0
LINE
8
BLACK
6
CONTINUOUS
10
0.111451
20
0.414679
11
0.108157
21
0.41437
0
LINE
8
BLACK
6
CONTINUOUS
10
0.108157
20
0.41437
11
0.0215433
21
0.41437
0
LINE
8
BLACK
6
CONTINUOUS
10
0.0215433
20
0.41437
11
0.0182496
21
0.414679
0
LINE
8
BLACK
6
CONTINUOUS
10
0.0182496
20
0.414679
11
0.0132649
21
0.416423
0
LINE
8
BLACK
6
CONTINUOUS
10
0.0132649
20
0.416423
11
0.00901583
21
0.419559
0
LINE
8
BLACK
6
CONTINUOUS
10
0.00901583
20
0.419559
11
0.00587984
21
0.423808
0
LINE
8
BLACK
6
CONTINUOUS
10
0.00587984
20
0.423808
11
0.00413563
21
0.428793
0
LINE
8
BLACK
6
CONTINUOUS
10
0.00413563
20
0.428793
11
0.00382677
21
0.432087
0
LINE
8
BLACK
6
CONTINUOUS
10
0.00382677
20
0.432087
11
0.00382677
21
0.451772
0
LINE
8
BLACK
6
CONTINUOUS
10
0.00382677
20
0.451772
11
0.00413563
21
0.455065
0
LINE
8
BLACK
6
CONTINUOUS
10
0.00413563
20
0.455065
11
0.00587984
21
0.46005
0
LINE
8
BLACK
6
CONTINUOUS
10
0.00587984
20
0.46005
11
0.00901583
21
0.464299
0
LINE
8
BLACK
6
CONTINUOUS
10
0.00901583
20
0.464299
11
0.0132649
21
0.467435
0
LINE
8
BLACK
6
CONTINUOUS
10
0.0132649
20
0.467435
11
0.0182496
21
0.469179
0
LINE
8
BLACK
6
CONTINUOUS
10
0.0182496
20
0.469179
11
0.0215433
21
0.469488
0
LINE
8
BLACK
6
CONTINUOUS
10
0.0215433
20
0.469488
11
0.108157
21
0.469488
0
LINE
8
BLACK
6
CONTINUOUS
10
0.108157
20
0.469488
11
0.111451
21
0.469179
0
LINE
8
BLACK
6
CONTINUOUS
10
0.285943
20
0.548612
11
0.290212
21
0.546525
0
LINE
8
BLACK
6
CONTINUOUS
10
0.290212
20
0.546525
11
0.293573
21
0.543165
0
LINE
8
BLACK
6
CONTINUOUS
10
0.293573
20
0.543165
11
0.29566
21
0.538896
0
LINE
8
BLACK
6
CONTINUOUS
10
0.29566
20
0.538896
11
0.29626
21
0.534777
0
LINE
8
BLACK
6
CONTINUOUS
10
0.29626
20
0.534777
11
0.29626
21
0.488845
0
LINE
8
BLACK
6
CONTINUOUS
10
0.29626
20
0.488845
11
0.29566
21
0.484726
0
LINE
8
BLACK
6
CONTINUOUS
10
0.29566
20
0.484726
11
0.293573
21
0.480457
0
LINE
8
BLACK
6
CONTINUOUS
10
0.293573
20
0.480457
11
0.290212
21
0.477097
0
LINE
8
BLACK
6
CONTINUOUS
10
0.290212
20
0.477097
11
0.285943
21
0.47501
0
LINE
8
BLACK
6
CONTINUOUS
10
0.285943
20
0.47501
11
0.281824
21
0.474409
0
LINE
8
BLACK
6
CONTINUOUS
10
0.281824
20
0.474409
11
0.245735
21
0.474409
0
LINE
8
BLACK
6
CONTINUOUS
10
0.245735
20
0.474409
11
0.241616
21
0.47501
0
LINE
8
BLACK
6
CONTINUOUS
10
0.241616
20
0.47501
11
0.237347
21
0.477097
0
LINE
8
BLACK
6
CONTINUOUS
10
0.237347
20
0.477097
11
0.233986
21
0.480457
0
LINE
8
BLACK
6
CONTINUOUS
10
0.233986
20
0.480457
11
0.231899
21
0.484726
0
LINE
8
BLACK
6
CONTINUOUS
10
0.231899
20
0.484726
11
0.231299
21
0.488845
0
LINE
8
BLACK
6
CONTINUOUS
10
0.231299
20
0.488845
11
0.231299
21
0.534777
0
LINE
8
BLACK
6
CONTINUOUS
10
0.231299
20
0.534777
11
0.231899
21
0.538896
0
LINE
8
BLACK
6
CONTINUOUS
10
0.231899
20
0.538896
11
0.233986
21
0.543165
0
LINE
8
BLACK
6
CONTINUOUS
10
0.233986
20
0.543165
11
0.237347
21
0.546525
0
LINE
8
BLACK
6
CONTINUOUS
10
0.237347
20
0.546525
11
0.241616
21
0.548612
0
LINE
8
BLACK
6
CONTINUOUS
10
0.241616
20
0.548612
11
0.245735
21
0.549213
0
LINE
8
BLACK
6
CONTINUOUS
10
0.245735
20
0.549213
11
0.281824
21
0.549213
0
LINE
8
BLACK
6
CONTINUOUS
10
0.281824
20
0.549213
11
0.285943
21
0.548612
0
LINE
8
BLACK
6
CONTINUOUS
10
0.427675
20
0.548612
11
0.431945
21
0.546525
0
LINE
8
BLACK
6
CONTINUOUS
10
0.431945
20
0.546525
11
0.435305
21
0.543165
0
LINE
8
BLACK
6
CONTINUOUS
10
0.435305
20
0.543165
11
0.437392
21
0.538896
0
LINE
8
BLACK
6
CONTINUOUS
10
0.437392
20
0.538896
11
0.437992
21
0.534777
0
LINE
8
BLACK
6
CONTINUOUS
10
0.437992
20
0.534777
11
0.437992
21
0.488845
0
LINE
8
BLACK
6
CONTINUOUS
10
0.437992
20
0.488845
11
0.437392
21
0.484726
0
LINE
8
BLACK
6
CONTINUOUS
10
0.437392
20
0.484726
11
0.435305
21
0.480457
0
LINE
8
BLACK
6
CONTINUOUS
10
0.435305
20
0.480457
11
0.431945
21
0.477097
0
LINE
8
BLACK
6
CONTINUOUS
10
0.431945
20
0.477097
11
0.427675
21
0.47501
0
LINE
8
BLACK
6
CONTINUOUS
10
0.427675
20
0.47501
11
0.423556
21
0.474409
0
LINE
8
BLACK
6
CONTINUOUS
10
0.423556
20
0.474409
11
0.387467
21
0.474409
0
LINE
8
BLACK
6
CONTINUOUS
10
0.387467
20
0.474409
11
0.383348
21
0.47501
0
LINE
8
BLACK
6
CONTINUOUS
10
0.383348
20
0.47501
11
0.379079
21
0.477097
0
LINE
8
BLACK
6
CONTINUOUS
10
0.379079
20
0.477097
11
0.375719
21
0.480457
0
LINE
8
BLACK
6
CONTINUOUS
10
0.375719
20
0.480457
11
0.373632
21
0.484726
0
LINE
8
BLACK
6
CONTINUOUS
10
0.373632
20
0.484726
11
0.373032
21
0.488845
0
LINE
8
BLACK
6
CONTINUOUS
10
0.373032
20
0.488845
11
0.373031
21
0.534777
0
LINE
8
BLACK
6
CONTINUOUS
10
0.373031
20
0.534777
11
0.373632
21
0.538896
0
LINE
8
BLACK
6
CONTINUOUS
10
0.373632
20
0.538896
11
0.375719
21
0.543165
0
LINE
8
BLACK
6
CONTINUOUS
10
0.375719
20
0.543165
11
0.379079
21
0.546525
0
LINE
8
BLACK
6
CONTINUOUS
10
0.379079
20
0.546525
11
0.383348
21
0.548612
0
LINE
8
BLACK
6
CONTINUOUS
10
0.383348
20
0.548612
11
0.387467
21
0.549213
0
LINE
8
BLACK
6
CONTINUOUS
10
0.387467
20
0.549213
11
0.423556
21
0.549213
0
LINE
8
BLACK
6
CONTINUOUS
10
0.423556
20
0.549213
11
0.427675
21
0.548612
0
LINE
8
BLACK
6
CONTINUOUS
10
0.112922
20
0.647799
11
0.122147
21
0.644632
0
LINE
8
BLACK
6
CONTINUOUS
10
0.122147
20
0.644632
11
0.130725
21
0.63999
0
LINE
8
BLACK
6
CONTINUOUS
10
0.130725
20
0.63999
11
0.138422
21
0.633999
0
LINE
8
BLACK
6
CONTINUOUS
10
0.138422
20
0.633999
11
0.145028
21
0.626824
0
LINE
8
BLACK
6
CONTINUOUS
10
0.145028
20
0.626824
11
0.150363
21
0.618658
0
LINE
8
BLACK
6
CONTINUOUS
10
0.150363
20
0.618658
11
0.154281
21
0.609726
0
LINE
8
BLACK
6
CONTINUOUS
10
0.154281
20
0.609726
11
0.156675
21
0.600271
0
LINE
8
BLACK
6
CONTINUOUS
10
0.156675
20
0.600271
11
0.15748
21
0.590551
0
LINE
8
BLACK
6
CONTINUOUS
10
0.15748
20
0.590551
11
0.156675
21
0.580831
0
LINE
8
BLACK
6
CONTINUOUS
10
0.156675
20
0.580831
11
0.154281
21
0.571376
0
LINE
8
BLACK
6
CONTINUOUS
10
0.154281
20
0.571376
11
0.150363
21
0.562444
0
LINE
8
BLACK
6
CONTINUOUS
10
0.150363
20
0.562444
11
0.145028
21
0.554279
0
LINE
8
BLACK
6
CONTINUOUS
10
0.145028
20
0.554279
11
0.138422
21
0.547103
0
LINE
8
BLACK
6
CONTINUOUS
10
0.138422
20
0.547103
11
0.130725
21
0.541112
0
LINE
8
BLACK
6
CONTINUOUS
10
0.130725
20
0.541112
11
0.122147
21
0.53647
0
LINE
8
BLACK
6
CONTINUOUS
10
0.122147
20
0.53647
11
0.112922
21
0.533303
0
LINE
8
BLACK
6
CONTINUOUS
10
0.112922
20
0.533303
11
0.103302
21
0.531698
0
LINE
8
BLACK
6
CONTINUOUS
10
0.103302
20
0.531698
11
0.0935485
21
0.531698
0
LINE
8
BLACK
6
CONTINUOUS
10
0.0935485
20
0.531698
11
0.083928
21
0.533303
0
LINE
8
BLACK
6
CONTINUOUS
10
0.083928
20
0.533303
11
0.074703
21
0.53647
0
LINE
8
BLACK
6
CONTINUOUS
10
0.074703
20
0.53647
11
0.0661251
21
0.541112
0
LINE
8
BLACK
6
CONTINUOUS
10
0.0661251
20
0.541112
11
0.0584283
21
0.547103
0
LINE
8
BLACK
6
CONTINUOUS
10
0.0584283
20
0.547103
11
0.0518224
21
0.554279
0
LINE
8
BLACK
6
CONTINUOUS
10
0.0518224
20
0.554279
11
0.0464878
21
0.562444
0
LINE
8
BLACK
6
CONTINUOUS
10
0.0464878
20
0.562444
11
0.0425698
21
0.571376
0
LINE
8
BLACK
6
CONTINUOUS
10
0.0425698
20
0.571376
11
0.0401755
21
0.580831
0
LINE
8
BLACK
6
CONTINUOUS
10
0.0401755
20
0.580831
11
0.0393701
21
0.590551
0
LINE
8
BLACK
6
CONTINUOUS
10
0.0393701
20
0.590551
11
0.0401755
21
0.600271
0
LINE
8
BLACK
6
CONTINUOUS
10
0.0401755
20
0.600271
11
0.0425698
21
0.609726
0
LINE
8
BLACK
6
CONTINUOUS
10
0.0425698
20
0.609726
11
0.0464878
21
0.618658
0
LINE
8
BLACK
6
CONTINUOUS
10
0.0464878
20
0.618658
11
0.0518224
21
0.626824
0
LINE
8
BLACK
6
CONTINUOUS
10
0.0518224
20
0.626824
11
0.0584283
21
0.633999
0
LINE
8
BLACK
6
CONTINUOUS
10
0.0584283
20
0.633999
11
0.0661251
21
0.63999
0
LINE
8
BLACK
6
CONTINUOUS
10
0.0661251
20
0.63999
11
0.074703
21
0.644632
0
LINE
8
BLACK
6
CONTINUOUS
10
0.074703
20
0.644632
11
0.083928
21
0.647799
0
LINE
8
BLACK
6
CONTINUOUS
10
0.083928
20
0.647799
11
0.0935485
21
0.649405
0
LINE
8
BLACK
6
CONTINUOUS
10
0.0935485
20
0.649405
11
0.103302
21
0.649405
0
LINE
8
BLACK
6
CONTINUOUS
10
0.103302
20
0.649405
11
0.112922
21
0.647799
0
LINE
8
BLACK
6
CONTINUOUS
10
0.506623
20
0.647799
11
0.515848
21
0.644632
0
LINE
8
BLACK
6
CONTINUOUS
10
0.515848
20
0.644632
11
0.524426
21
0.63999
0
LINE
8
BLACK
6
CONTINUOUS
10
0.524426
20
0.63999
11
0.532123
21
0.633999
0
LINE
8
BLACK
6
CONTINUOUS
10
0.532123
20
0.633999
11
0.538729
21
0.626824
0
LINE
8
BLACK
6
CONTINUOUS
10
0.538729
20
0.626824
11
0.544063
21
0.618658
0
LINE
8
BLACK
6
CONTINUOUS
10
0.544063
20
0.618658
11
0.547981
21
0.609726
0
LINE
8
BLACK
6
CONTINUOUS
10
0.547981
20
0.609726
11
0.550376
21
0.600271
0
LINE
8
BLACK
6
CONTINUOUS
10
0.550376
20
0.600271
11
0.551181
21
0.590551
0
LINE
8
BLACK
6
CONTINUOUS
10
0.551181
20
0.590551
11
0.550376
21
0.580831
0
LINE
8
BLACK
6
CONTINUOUS
10
0.550376
20
0.580831
11
0.547981
21
0.571376
0
LINE
8
BLACK
6
CONTINUOUS
10
0.547981
20
0.571376
11
0.544063
21
0.562444
0
LINE
8
BLACK
6
CONTINUOUS
10
0.544063
20
0.562444
11
0.538729
21
0.554279
0
LINE
8
BLACK
6
CONTINUOUS
10
0.538729
20
0.554279
11
0.532123
21
0.547103
0
LINE
8
BLACK
6
CONTINUOUS
10
0.532123
20
0.547103
11
0.524426
21
0.541112
0
LINE
8
BLACK
6
CONTINUOUS
10
0.524426
20
0.541112
11
0.515848
21
0.53647
0
LINE
8
BLACK
6
CONTINUOUS
10
0.515848
20
0.53647
11
0.506623
21
0.533303
0
LINE
8
BLACK
6
CONTINUOUS
10
0.506623
20
0.533303
11
0.497003
21
0.531698
0
LINE
8
BLACK
6
CONTINUOUS
10
0.497003
20
0.531698
11
0.487249
21
0.531698
0
LINE
8
BLACK
6
CONTINUOUS
10
0.487249
20
0.531698
11
0.477629
21
0.533303
0
LINE
8
BLACK
6
CONTINUOUS
10
0.477629
20
0.533303
11
0.468404
21
0.53647
0
LINE
8
BLACK
6
CONTINUOUS
10
0.468404
20
0.53647
11
0.459826
21
0.541112
0
LINE
8
BLACK
6
CONTINUOUS
10
0.459826
20
0.541112
11
0.452129
21
0.547103
0
LINE
8
BLACK
6
CONTINUOUS
10
0.452129
20
0.547103
11
0.445523
21
0.554279
0
LINE
8
BLACK
6
CONTINUOUS
10
0.445523
20
0.554279
11
0.440189
21
0.562444
0
LINE
8
BLACK
6
CONTINUOUS
10
0.440189
20
0.562444
11
0.436271
21
0.571376
0
LINE
8
BLACK
6
CONTINUOUS
10
0.436271
20
0.571376
11
0.433876
21
0.580831
0
LINE
8
BLACK
6
CONTINUOUS
10
0.433876
20
0.580831
11
0.433071
21
0.590551
0
LINE
8
BLACK
6
CONTINUOUS
10
0.433071
20
0.590551
11
0.433876
21
0.600271
0
LINE
8
BLACK
6
CONTINUOUS
10
0.433876
20
0.600271
11
0.436271
21
0.609726
0
LINE
8
BLACK
6
CONTINUOUS
10
0.436271
20
0.609726
11
0.440189
21
0.618658
0
LINE
8
BLACK
6
CONTINUOUS
10
0.440189
20
0.618658
11
0.445523
21
0.626824
0
LINE
8
BLACK
6
CONTINUOUS
10
0.445523
20
0.626824
11
0.452129
21
0.633999
0
LINE
8
BLACK
6
CONTINUOUS
10
0.452129
20
0.633999
11
0.459826
21
0.63999
0
LINE
8
BLACK
6
CONTINUOUS
10
0.459826
20
0.63999
11
0.468404
21
0.644632
0
LINE
8
BLACK
6
CONTINUOUS
10
0.468404
20
0.644632
11
0.477629
21
0.647799
0
LINE
8
BLACK
6
CONTINUOUS
10
0.477629
20
0.647799
11
0.487249
21
0.649405
0
LINE
8
BLACK
6
CONTINUOUS
10
0.487249
20
0.649405
11
0.497003
21
0.649405
0
LINE
8
BLACK
6
CONTINUOUS
10
0.497003
20
0.649405
11
0.506623
21
0.647799
0
LINE
8
BLACK
6
CONTINUOUS
10
0.900324
20
0.647799
11
0.909549
21
0.644632
0
LINE
8
BLACK
6
CONTINUOUS
10
0.909549
20
0.644632
11
0.918127
21
0.63999
0
LINE
8
BLACK
6
CONTINUOUS
10
0.918127
20
0.63999
11
0.925824
21
0.633999
0
LINE
8
BLACK
6
CONTINUOUS
10
0.925824
20
0.633999
11
0.93243
21
0.626824
0
LINE
8
BLACK
6
CONTINUOUS
10
0.93243
20
0.626824
11
0.937764
21
0.618658
0
LINE
8
BLACK
6
CONTINUOUS
10
0.937764
20
0.618658
11
0.941682
21
0.609726
0
LINE
8
BLACK
6
CONTINUOUS
10
0.941682
20
0.609726
11
0.944076
21
0.600271
0
LINE
8
BLACK
6
CONTINUOUS
10
0.944076
20
0.600271
11
0.944882
21
0.590551
0
LINE
8
BLACK
6
CONTINUOUS
10
0.944882
20
0.590551
11
0.944076
21
0.580831
0
LINE
8
BLACK
6
CONTINUOUS
10
0.944076
20
0.580831
11
0.941682
21
0.571376
0
LINE
8
BLACK
6
CONTINUOUS
10
0.941682
20
0.571376
11
0.937764
21
0.562444
0
LINE
8
BLACK
6
CONTINUOUS
10
0.937764
20
0.562444
11
0.93243
21
0.554279
0
LINE
8
BLACK
6
CONTINUOUS
10
0.93243
20
0.554279
11
0.925824
21
0.547103
0
LINE
8
BLACK
6
CONTINUOUS
10
0.925824
20
0.547103
11
0.918127
21
0.541112
0
LINE
8
BLACK
6
CONTINUOUS
10
0.918127
20
0.541112
11
0.909549
21
0.53647
0
LINE
8
BLACK
6
CONTINUOUS
10
0.909549
20
0.53647
11
0.900324
21
0.533303
0
LINE
8
BLACK
6
CONTINUOUS
10
0.900324
20
0.533303
11
0.890704
21
0.531698
0
LINE
8
BLACK
6
CONTINUOUS
10
0.890704
20
0.531698
11
0.88095
21
0.531698
0
LINE
8
BLACK
6
CONTINUOUS
10
0.88095
20
0.531698
11
0.87133
21
0.533303
0
LINE
8
BLACK
6
CONTINUOUS
10
0.87133
20
0.533303
11
0.862105
21
0.53647
0
LINE
8
BLACK
6
CONTINUOUS
10
0.862105
20
0.53647
11
0.853527
21
0.541112
0
LINE
8
BLACK
6
CONTINUOUS
10
0.853527
20
0.541112
11
0.84583
21
0.547103
0
LINE
8
BLACK
6
CONTINUOUS
10
0.84583
20
0.547103
11
0.839224
21
0.554279
0
LINE
8
BLACK
6
CONTINUOUS
10
0.839224
20
0.554279
11
0.833889
21
0.562444
0
LINE
8
BLACK
6
CONTINUOUS
10
0.833889
20
0.562444
11
0.829971
21
0.571376
0
LINE
8
BLACK
6
CONTINUOUS
10
0.829971
20
0.571376
11
0.827577
21
0.580831
0
LINE
8
BLACK
6
CONTINUOUS
10
0.827577
20
0.580831
11
0.826772
21
0.590551
0
LINE
8
BLACK
6
CONTINUOUS
10
0.826772
20
0.590551
11
0.827577
21
0.600271
0
LINE
8
BLACK
6
CONTINUOUS
10
0.827577
20
0.600271
11
0.829971
21
0.609726
0
LINE
8
BLACK
6
CONTINUOUS
10
0.829971
20
0.609726
11
0.833889
21
0.618658
0
LINE
8
BLACK
6
CONTINUOUS
10
0.833889
20
0.618658
11
0.839224
21
0.626824
0
LINE
8
BLACK
6
CONTINUOUS
10
0.839224
20
0.626824
11
0.84583
21
0.633999
0
LINE
8
BLACK
6
CONTINUOUS
10
0.84583
20
0.633999
11
0.853527
21
0.63999
0
LINE
8
BLACK
6
CONTINUOUS
10
0.853527
20
0.63999
11
0.862105
21
0.644632
0
LINE
8
BLACK
6
CONTINUOUS
10
0.862105
20
0.644632
11
0.87133
21
0.647799
0
LINE
8
BLACK
6
CONTINUOUS
10
0.87133
20
0.647799
11
0.88095
21
0.649405
0
LINE
8
BLACK
6
CONTINUOUS
10
0.88095
20
0.649405
11
0.890704
21
0.649405
0
LINE
8
BLACK
6
CONTINUOUS
10
0.890704
20
0.649405
11
0.900324
21
0.647799
  0
ENDSEC
  0
EOF
