  0
SECTION
  2
HEADER
  9
$ANGBASE
  50
0.0
  9
$ANGDIR
  70
1
  9
$MEASUREMENT
  70
0
  0
ENDSEC
  0
SECTION
  2
TABLES
  0
TABLE
  2
LTYPE
  70
4
  0
LTYPE
  5
40F
  2
CONTINUOUS
  70
0
  3
Solid line
  72
65
  73
0
  40
0.0
  0
LTYPE
  5
410
  2
DASHDOT
 70
0
  3
Dash Dot ____ _ ____ _
 72
65
 73
4
 40
2.0
 49
1.25
 49
-0.25
 49
0.25
 49
-0.25
  0
LTYPE
  5
411
  2
DASHED
 70
0
  3
Dashed __ __ __ __ __
 72
65
 73
2
 40
0.75
 49
0.5
 49
-0.25
  0
LTYPE
  5
43B
  2
DOTTED
 70
0
  3
Dotted .  .  .  .
 72
65
 73
2
 40
0.2
 49
0.0
 49
-0.2
  0
ENDTAB
  0
TABLE
  2
STYLE
  70
4
  0
STYLE
  2
KICAD
  70
0
  40
0
  41
1
  42
1
  50
0
  71
0
  3
isocp.shx
  0
STYLE
  2
KICADB
  70
0
  40
0
  41
1
  42
1
  50
0
  71
0
  3
isocp.shx
  0
STYLE
  2
KICADI
  70
0
  40
0
  41
1
  42
1
  50
15
  71
0
  3
isocp.shx
  0
STYLE
  2
KICADBI
  70
0
  40
0
  41
1
  42
1
  50
15
  71
0
  3
isocp.shx
  0
ENDTAB
  0
TABLE
  2
LAYER
  70
1
  0
LAYER
  2
BLACK
  70
0
  62
7
  6
CONTINUOUS
  0
ENDTAB
  0
ENDSEC
  0
SECTION
  2
ENTITIES
0
LINE
8
BLACK
6
CONTINUOUS
10
0.200291
20
0.0596761
11
0.200355
21
0.0596779
0
LINE
8
BLACK
6
CONTINUOUS
10
0.200355
20
0.0596779
11
0.205979
21
0.0578031
0
LINE
8
BLACK
6
CONTINUOUS
10
0.205979
20
0.0578031
11
0.206881
21
0.0573148
0
LINE
8
BLACK
6
CONTINUOUS
10
0.206881
20
0.0573148
11
0.206974
21
0.0571644
0
LINE
8
BLACK
6
CONTINUOUS
10
0.206974
20
0.0571644
11
0.207134
21
0.0570898
0
LINE
8
BLACK
6
CONTINUOUS
10
0.207134
20
0.0570898
11
0.210883
21
0.0533403
0
LINE
8
BLACK
6
CONTINUOUS
10
0.210883
20
0.0533403
11
0.211471
21
0.0525002
0
LINE
8
BLACK
6
CONTINUOUS
10
0.211471
20
0.0525002
11
0.211487
21
0.0523243
0
LINE
8
BLACK
6
CONTINUOUS
10
0.211487
20
0.0523243
11
0.211596
21
0.0521861
0
LINE
8
BLACK
6
CONTINUOUS
10
0.211596
20
0.0521861
11
0.213471
21
0.0465619
0
LINE
8
BLACK
6
CONTINUOUS
10
0.213471
20
0.0465619
11
0.213601
21
0.0456886
0
LINE
8
BLACK
6
CONTINUOUS
10
0.213601
20
0.0456886
11
0.213623
21
0.0456281
0
LINE
8
BLACK
6
CONTINUOUS
10
0.213623
20
0.0456281
11
0.213623
21
0.0418785
0
LINE
8
BLACK
6
CONTINUOUS
10
0.213623
20
0.0418785
11
0.213445
21
0.0408686
0
LINE
8
BLACK
6
CONTINUOUS
10
0.213445
20
0.0408686
11
0.212146
21
0.0393214
0
LINE
8
BLACK
6
CONTINUOUS
10
0.212146
20
0.0393214
11
0.210157
21
0.0389706
0
LINE
8
BLACK
6
CONTINUOUS
10
0.210157
20
0.0389706
11
0.208408
21
0.0399806
0
LINE
8
BLACK
6
CONTINUOUS
10
0.208408
20
0.0399806
11
0.207717
21
0.0418785
0
LINE
8
BLACK
6
CONTINUOUS
10
0.207717
20
0.0418785
11
0.207717
21
0.045149
0
LINE
8
BLACK
6
CONTINUOUS
10
0.207717
20
0.045149
11
0.206214
21
0.0496573
0
LINE
8
BLACK
6
CONTINUOUS
10
0.206214
20
0.0496573
11
0.203451
21
0.0524211
0
LINE
8
BLACK
6
CONTINUOUS
10
0.203451
20
0.0524211
11
0.198942
21
0.0539239
0
LINE
8
BLACK
6
CONTINUOUS
10
0.198942
20
0.0539239
11
0.1713
21
0.0539239
0
LINE
8
BLACK
6
CONTINUOUS
10
0.1713
20
0.0539239
11
0.17029
21
0.054102
0
LINE
8
BLACK
6
CONTINUOUS
10
0.17029
20
0.054102
11
0.168743
21
0.0554003
0
LINE
8
BLACK
6
CONTINUOUS
10
0.168743
20
0.0554003
11
0.168392
21
0.0573894
0
LINE
8
BLACK
6
CONTINUOUS
10
0.168392
20
0.0573894
11
0.169402
21
0.0591386
0
LINE
8
BLACK
6
CONTINUOUS
10
0.169402
20
0.0591386
11
0.1713
21
0.0598294
0
LINE
8
BLACK
6
CONTINUOUS
10
0.1713
20
0.0598294
11
0.199421
21
0.0598294
0
LINE
8
BLACK
6
CONTINUOUS
10
0.199421
20
0.0598294
11
0.200291
21
0.0596761
0
LINE
8
BLACK
6
CONTINUOUS
10
1.04357
20
0.0741577
11
1.09057
21
0.0741577
0
LINE
8
BLACK
6
CONTINUOUS
10
1.09057
20
0.0741577
11
1.09057
21
0.0636733
0
LINE
8
BLACK
6
CONTINUOUS
10
1.09057
20
0.0636733
11
1.04357
21
0.0636733
0
LINE
8
BLACK
6
CONTINUOUS
10
1.04357
20
0.0636733
11
1.04357
21
0.0474043
0
LINE
8
BLACK
6
CONTINUOUS
10
1.04357
20
0.0474043
11
1.03309
21
0.0474043
0
LINE
8
BLACK
6
CONTINUOUS
10
1.03309
20
0.0474043
11
1.03309
21
0.0904267
0
LINE
8
BLACK
6
CONTINUOUS
10
1.03309
20
0.0904267
11
1.04357
21
0.0904267
0
LINE
8
BLACK
6
CONTINUOUS
10
1.04357
20
0.0904267
11
1.04357
21
0.0741577
0
LINE
8
BLACK
6
CONTINUOUS
10
0.183418
20
0.0990462
11
0.183482
21
0.099048
0
LINE
8
BLACK
6
CONTINUOUS
10
0.183482
20
0.099048
11
0.189107
21
0.0971732
0
LINE
8
BLACK
6
CONTINUOUS
10
0.189107
20
0.0971732
11
0.190008
21
0.0966849
0
LINE
8
BLACK
6
CONTINUOUS
10
0.190008
20
0.0966849
11
0.190101
21
0.0965345
0
LINE
8
BLACK
6
CONTINUOUS
10
0.190101
20
0.0965345
11
0.190261
21
0.0964599
0
LINE
8
BLACK
6
CONTINUOUS
10
0.190261
20
0.0964599
11
0.207717
21
0.0790034
0
LINE
8
BLACK
6
CONTINUOUS
10
0.207717
20
0.0790034
11
0.207717
21
0.0962467
0
LINE
8
BLACK
6
CONTINUOUS
10
0.207717
20
0.0962467
11
0.207895
21
0.0972567
0
LINE
8
BLACK
6
CONTINUOUS
10
0.207895
20
0.0972567
11
0.209194
21
0.0988039
0
LINE
8
BLACK
6
CONTINUOUS
10
0.209194
20
0.0988039
11
0.211183
21
0.0991546
0
LINE
8
BLACK
6
CONTINUOUS
10
0.211183
20
0.0991546
11
0.212932
21
0.0981447
0
LINE
8
BLACK
6
CONTINUOUS
10
0.212932
20
0.0981447
11
0.213623
21
0.0962467
0
LINE
8
BLACK
6
CONTINUOUS
10
0.213623
20
0.0962467
11
0.213623
21
0.0718748
0
LINE
8
BLACK
6
CONTINUOUS
10
0.213623
20
0.0718748
11
0.213511
21
0.0712401
0
LINE
8
BLACK
6
CONTINUOUS
10
0.213511
20
0.0712401
11
0.213522
21
0.0711106
0
LINE
8
BLACK
6
CONTINUOUS
10
0.213522
20
0.0711106
11
0.213477
21
0.0710454
0
LINE
8
BLACK
6
CONTINUOUS
10
0.213477
20
0.0710454
11
0.213445
21
0.0708649
0
LINE
8
BLACK
6
CONTINUOUS
10
0.213445
20
0.0708649
11
0.212873
21
0.0701841
0
LINE
8
BLACK
6
CONTINUOUS
10
0.212873
20
0.0701841
11
0.212364
21
0.069456
0
LINE
8
BLACK
6
CONTINUOUS
10
0.212364
20
0.069456
11
0.212233
21
0.0694211
0
LINE
8
BLACK
6
CONTINUOUS
10
0.212233
20
0.0694211
11
0.212146
21
0.0693176
0
LINE
8
BLACK
6
CONTINUOUS
10
0.212146
20
0.0693176
11
0.211271
21
0.0691633
0
LINE
8
BLACK
6
CONTINUOUS
10
0.211271
20
0.0691633
11
0.210413
21
0.0689333
0
LINE
8
BLACK
6
CONTINUOUS
10
0.210413
20
0.0689333
11
0.21029
21
0.0689904
0
LINE
8
BLACK
6
CONTINUOUS
10
0.21029
20
0.0689904
11
0.210157
21
0.0689669
0
LINE
8
BLACK
6
CONTINUOUS
10
0.210157
20
0.0689669
11
0.209387
21
0.0694114
0
LINE
8
BLACK
6
CONTINUOUS
10
0.209387
20
0.0694114
11
0.208582
21
0.0697869
0
LINE
8
BLACK
6
CONTINUOUS
10
0.208582
20
0.0697869
11
0.186578
21
0.0917912
0
LINE
8
BLACK
6
CONTINUOUS
10
0.186578
20
0.0917912
11
0.182069
21
0.093294
0
LINE
8
BLACK
6
CONTINUOUS
10
0.182069
20
0.093294
11
0.179496
21
0.093294
0
LINE
8
BLACK
6
CONTINUOUS
10
0.179496
20
0.093294
11
0.176799
21
0.0919452
0
LINE
8
BLACK
6
CONTINUOUS
10
0.176799
20
0.0919452
11
0.175601
21
0.0907481
0
LINE
8
BLACK
6
CONTINUOUS
10
0.175601
20
0.0907481
11
0.174253
21
0.0880506
0
LINE
8
BLACK
6
CONTINUOUS
10
0.174253
20
0.0880506
11
0.174253
21
0.0800709
0
LINE
8
BLACK
6
CONTINUOUS
10
0.174253
20
0.0800709
11
0.175601
21
0.0773734
0
LINE
8
BLACK
6
CONTINUOUS
10
0.175601
20
0.0773734
11
0.177137
21
0.0758375
0
LINE
8
BLACK
6
CONTINUOUS
10
0.177137
20
0.0758375
11
0.177726
21
0.0749974
0
LINE
8
BLACK
6
CONTINUOUS
10
0.177726
20
0.0749974
11
0.177902
21
0.0729854
0
LINE
8
BLACK
6
CONTINUOUS
10
0.177902
20
0.0729854
11
0.176743
21
0.0713308
0
LINE
8
BLACK
6
CONTINUOUS
10
0.176743
20
0.0713308
11
0.174792
21
0.0708081
0
LINE
8
BLACK
6
CONTINUOUS
10
0.174792
20
0.0708081
11
0.172962
21
0.0716617
0
LINE
8
BLACK
6
CONTINUOUS
10
0.172962
20
0.0716617
11
0.171087
21
0.0735364
0
LINE
8
BLACK
6
CONTINUOUS
10
0.171087
20
0.0735364
11
0.170581
21
0.0742595
0
LINE
8
BLACK
6
CONTINUOUS
10
0.170581
20
0.0742595
11
0.170534
21
0.0743038
0
LINE
8
BLACK
6
CONTINUOUS
10
0.170534
20
0.0743038
11
0.168659
21
0.0780533
0
LINE
8
BLACK
6
CONTINUOUS
10
0.168659
20
0.0780533
11
0.168367
21
0.0790363
0
LINE
8
BLACK
6
CONTINUOUS
10
0.168367
20
0.0790363
11
0.168408
21
0.079208
0
LINE
8
BLACK
6
CONTINUOUS
10
0.168408
20
0.079208
11
0.168347
21
0.0793739
0
LINE
8
BLACK
6
CONTINUOUS
10
0.168347
20
0.0793739
11
0.168347
21
0.0887477
0
LINE
8
BLACK
6
CONTINUOUS
10
0.168347
20
0.0887477
11
0.168525
21
0.0897576
0
LINE
8
BLACK
6
CONTINUOUS
10
0.168525
20
0.0897576
11
0.168639
21
0.0898929
0
LINE
8
BLACK
6
CONTINUOUS
10
0.168639
20
0.0898929
11
0.168659
21
0.0900682
0
LINE
8
BLACK
6
CONTINUOUS
10
0.168659
20
0.0900682
11
0.170534
21
0.0938177
0
LINE
8
BLACK
6
CONTINUOUS
10
0.170534
20
0.0938177
11
0.17106
21
0.0945268
0
LINE
8
BLACK
6
CONTINUOUS
10
0.17106
20
0.0945268
11
0.171087
21
0.0945851
0
LINE
8
BLACK
6
CONTINUOUS
10
0.171087
20
0.0945851
11
0.172962
21
0.0964599
0
LINE
8
BLACK
6
CONTINUOUS
10
0.172962
20
0.0964599
11
0.173685
21
0.0969662
0
LINE
8
BLACK
6
CONTINUOUS
10
0.173685
20
0.0969662
11
0.173729
21
0.097013
0
LINE
8
BLACK
6
CONTINUOUS
10
0.173729
20
0.097013
11
0.177479
21
0.0988878
0
LINE
8
BLACK
6
CONTINUOUS
10
0.177479
20
0.0988878
11
0.178461
21
0.0991801
0
LINE
8
BLACK
6
CONTINUOUS
10
0.178461
20
0.0991801
11
0.178633
21
0.0991391
0
LINE
8
BLACK
6
CONTINUOUS
10
0.178633
20
0.0991391
11
0.178799
21
0.0991995
0
LINE
8
BLACK
6
CONTINUOUS
10
0.178799
20
0.0991995
11
0.182549
21
0.0991995
0
LINE
8
BLACK
6
CONTINUOUS
10
0.182549
20
0.0991995
11
0.183418
21
0.0990462
0
LINE
8
BLACK
6
CONTINUOUS
10
0.775603
20
0.121819
11
0.777765
21
0.119657
0
LINE
8
BLACK
6
CONTINUOUS
10
0.777765
20
0.119657
11
0.778556
21
0.116704
0
LINE
8
BLACK
6
CONTINUOUS
10
0.778556
20
0.116704
11
0.778556
21
0.105737
0
LINE
8
BLACK
6
CONTINUOUS
10
0.778556
20
0.105737
11
0.831706
21
0.105737
0
LINE
8
BLACK
6
CONTINUOUS
10
0.831706
20
0.105737
11
0.834659
21
0.104946
0
LINE
8
BLACK
6
CONTINUOUS
10
0.834659
20
0.104946
11
0.83682
21
0.102784
0
LINE
8
BLACK
6
CONTINUOUS
10
0.83682
20
0.102784
11
0.837611
21
0.0998313
0
LINE
8
BLACK
6
CONTINUOUS
10
0.837611
20
0.0998313
11
0.83682
21
0.0968786
0
LINE
8
BLACK
6
CONTINUOUS
10
0.83682
20
0.0968786
11
0.834659
21
0.094717
0
LINE
8
BLACK
6
CONTINUOUS
10
0.834659
20
0.094717
11
0.831706
21
0.0939258
0
LINE
8
BLACK
6
CONTINUOUS
10
0.831706
20
0.0939258
11
0.778556
21
0.0939258
0
LINE
8
BLACK
6
CONTINUOUS
10
0.778556
20
0.0939258
11
0.778556
21
0.0829585
0
LINE
8
BLACK
6
CONTINUOUS
10
0.778556
20
0.0829585
11
0.777765
21
0.0800057
0
LINE
8
BLACK
6
CONTINUOUS
10
0.777765
20
0.0800057
11
0.775603
21
0.0778441
0
LINE
8
BLACK
6
CONTINUOUS
10
0.775603
20
0.0778441
11
0.772651
21
0.077053
0
LINE
8
BLACK
6
CONTINUOUS
10
0.772651
20
0.077053
11
0.769698
21
0.0778441
0
LINE
8
BLACK
6
CONTINUOUS
10
0.769698
20
0.0778441
11
0.767536
21
0.0800057
0
LINE
8
BLACK
6
CONTINUOUS
10
0.767536
20
0.0800057
11
0.766745
21
0.0829585
0
LINE
8
BLACK
6
CONTINUOUS
10
0.766745
20
0.0829585
11
0.766745
21
0.116704
0
LINE
8
BLACK
6
CONTINUOUS
10
0.766745
20
0.116704
11
0.767536
21
0.119657
0
LINE
8
BLACK
6
CONTINUOUS
10
0.767536
20
0.119657
11
0.769698
21
0.121819
0
LINE
8
BLACK
6
CONTINUOUS
10
0.769698
20
0.121819
11
0.772651
21
0.12261
0
LINE
8
BLACK
6
CONTINUOUS
10
0.772651
20
0.12261
11
0.775603
21
0.121819
0
LINE
8
BLACK
6
CONTINUOUS
10
1.09057
20
0.132726
11
1.06598
21
0.132726
0
LINE
8
BLACK
6
CONTINUOUS
10
1.06598
20
0.132726
11
1.06598
21
0.106696
0
LINE
8
BLACK
6
CONTINUOUS
10
1.06598
20
0.106696
11
1.09057
21
0.106696
0
LINE
8
BLACK
6
CONTINUOUS
10
1.09057
20
0.106696
11
1.09057
21
0.0962112
0
LINE
8
BLACK
6
CONTINUOUS
10
1.09057
20
0.0962112
11
1.03309
21
0.0962112
0
LINE
8
BLACK
6
CONTINUOUS
10
1.03309
20
0.0962112
11
1.03309
21
0.106696
0
LINE
8
BLACK
6
CONTINUOUS
10
1.03309
20
0.106696
11
1.05586
21
0.106696
0
LINE
8
BLACK
6
CONTINUOUS
10
1.05586
20
0.106696
11
1.05586
21
0.132716
0
LINE
8
BLACK
6
CONTINUOUS
10
1.05586
20
0.132716
11
1.04456
21
0.132811
0
LINE
8
BLACK
6
CONTINUOUS
10
1.04456
20
0.132811
11
1.03327
21
0.132907
0
LINE
8
BLACK
6
CONTINUOUS
10
1.03327
20
0.132907
11
1.03317
21
0.138239
0
LINE
8
BLACK
6
CONTINUOUS
10
1.03317
20
0.138239
11
1.03307
21
0.143572
0
LINE
8
BLACK
6
CONTINUOUS
10
1.03307
20
0.143572
11
1.09057
21
0.143572
0
LINE
8
BLACK
6
CONTINUOUS
10
1.09057
20
0.143572
11
1.09057
21
0.132726
0
LINE
8
BLACK
6
CONTINUOUS
10
0.186993
20
0.20108
11
0.187685
21
0.199409
0
LINE
8
BLACK
6
CONTINUOUS
10
0.187685
20
0.199409
11
0.187685
21
0.128543
0
LINE
8
BLACK
6
CONTINUOUS
10
0.187685
20
0.128543
11
0.186993
21
0.126873
0
LINE
8
BLACK
6
CONTINUOUS
10
0.186993
20
0.126873
11
0.185323
21
0.126181
0
LINE
8
BLACK
6
CONTINUOUS
10
0.185323
20
0.126181
11
0.128236
21
0.126181
0
LINE
8
BLACK
6
CONTINUOUS
10
0.128236
20
0.126181
11
0.126566
21
0.126873
0
LINE
8
BLACK
6
CONTINUOUS
10
0.126566
20
0.126873
11
0.125874
21
0.128543
0
LINE
8
BLACK
6
CONTINUOUS
10
0.125874
20
0.128543
11
0.126566
21
0.130214
0
LINE
8
BLACK
6
CONTINUOUS
10
0.126566
20
0.130214
11
0.128236
21
0.130906
0
LINE
8
BLACK
6
CONTINUOUS
10
0.128236
20
0.130906
11
0.182961
21
0.130906
0
LINE
8
BLACK
6
CONTINUOUS
10
0.182961
20
0.130906
11
0.182961
21
0.199409
0
LINE
8
BLACK
6
CONTINUOUS
10
0.182961
20
0.199409
11
0.183653
21
0.20108
0
LINE
8
BLACK
6
CONTINUOUS
10
0.183653
20
0.20108
11
0.185323
21
0.201772
0
LINE
8
BLACK
6
CONTINUOUS
10
0.185323
20
0.201772
11
0.186993
21
0.20108
0
LINE
8
BLACK
6
CONTINUOUS
10
0.775603
20
0.169625
11
0.777765
21
0.167464
0
LINE
8
BLACK
6
CONTINUOUS
10
0.777765
20
0.167464
11
0.778556
21
0.164511
0
LINE
8
BLACK
6
CONTINUOUS
10
0.778556
20
0.164511
11
0.778556
21
0.142295
0
LINE
8
BLACK
6
CONTINUOUS
10
0.778556
20
0.142295
11
0.794867
21
0.142295
0
LINE
8
BLACK
6
CONTINUOUS
10
0.794867
20
0.142295
11
0.794867
21
0.156074
0
LINE
8
BLACK
6
CONTINUOUS
10
0.794867
20
0.156074
11
0.795658
21
0.159027
0
LINE
8
BLACK
6
CONTINUOUS
10
0.795658
20
0.159027
11
0.797819
21
0.161189
0
LINE
8
BLACK
6
CONTINUOUS
10
0.797819
20
0.161189
11
0.800772
21
0.16198
0
LINE
8
BLACK
6
CONTINUOUS
10
0.800772
20
0.16198
11
0.803725
21
0.161189
0
LINE
8
BLACK
6
CONTINUOUS
10
0.803725
20
0.161189
11
0.805887
21
0.159027
0
LINE
8
BLACK
6
CONTINUOUS
10
0.805887
20
0.159027
11
0.806678
21
0.156074
0
LINE
8
BLACK
6
CONTINUOUS
10
0.806678
20
0.156074
11
0.806678
21
0.142295
0
LINE
8
BLACK
6
CONTINUOUS
10
0.806678
20
0.142295
11
0.831706
21
0.142295
0
LINE
8
BLACK
6
CONTINUOUS
10
0.831706
20
0.142295
11
0.834659
21
0.141504
0
LINE
8
BLACK
6
CONTINUOUS
10
0.834659
20
0.141504
11
0.83682
21
0.139342
0
LINE
8
BLACK
6
CONTINUOUS
10
0.83682
20
0.139342
11
0.837611
21
0.136389
0
LINE
8
BLACK
6
CONTINUOUS
10
0.837611
20
0.136389
11
0.83682
21
0.133436
0
LINE
8
BLACK
6
CONTINUOUS
10
0.83682
20
0.133436
11
0.834659
21
0.131275
0
LINE
8
BLACK
6
CONTINUOUS
10
0.834659
20
0.131275
11
0.831706
21
0.130484
0
LINE
8
BLACK
6
CONTINUOUS
10
0.831706
20
0.130484
11
0.800772
21
0.130484
0
LINE
8
BLACK
6
CONTINUOUS
10
0.800772
20
0.130484
11
0.772651
21
0.130484
0
LINE
8
BLACK
6
CONTINUOUS
10
0.772651
20
0.130484
11
0.769698
21
0.131275
0
LINE
8
BLACK
6
CONTINUOUS
10
0.769698
20
0.131275
11
0.767536
21
0.133436
0
LINE
8
BLACK
6
CONTINUOUS
10
0.767536
20
0.133436
11
0.766745
21
0.136389
0
LINE
8
BLACK
6
CONTINUOUS
10
0.766745
20
0.136389
11
0.766745
21
0.164511
0
LINE
8
BLACK
6
CONTINUOUS
10
0.766745
20
0.164511
11
0.767536
21
0.167464
0
LINE
8
BLACK
6
CONTINUOUS
10
0.767536
20
0.167464
11
0.769698
21
0.169625
0
LINE
8
BLACK
6
CONTINUOUS
10
0.769698
20
0.169625
11
0.772651
21
0.170416
0
LINE
8
BLACK
6
CONTINUOUS
10
0.772651
20
0.170416
11
0.775603
21
0.169625
0
LINE
8
BLACK
6
CONTINUOUS
10
1.05306
20
0.201691
11
1.05737
21
0.201663
0
LINE
8
BLACK
6
CONTINUOUS
10
1.05737
20
0.201663
11
1.06102
21
0.201636
0
LINE
8
BLACK
6
CONTINUOUS
10
1.06102
20
0.201636
11
1.06408
21
0.201608
0
LINE
8
BLACK
6
CONTINUOUS
10
1.06408
20
0.201608
11
1.06661
21
0.201575
0
LINE
8
BLACK
6
CONTINUOUS
10
1.06661
20
0.201575
11
1.06867
21
0.201536
0
LINE
8
BLACK
6
CONTINUOUS
10
1.06867
20
0.201536
11
1.07033
21
0.201488
0
LINE
8
BLACK
6
CONTINUOUS
10
1.07033
20
0.201488
11
1.07164
21
0.201427
0
LINE
8
BLACK
6
CONTINUOUS
10
1.07164
20
0.201427
11
1.07269
21
0.201352
0
LINE
8
BLACK
6
CONTINUOUS
10
1.07269
20
0.201352
11
1.07352
21
0.201259
0
LINE
8
BLACK
6
CONTINUOUS
10
1.07352
20
0.201259
11
1.0742
21
0.201146
0
LINE
8
BLACK
6
CONTINUOUS
10
1.0742
20
0.201146
11
1.0748
21
0.20101
0
LINE
8
BLACK
6
CONTINUOUS
10
1.0748
20
0.20101
11
1.07539
21
0.200849
0
LINE
8
BLACK
6
CONTINUOUS
10
1.07539
20
0.200849
11
1.07574
21
0.200743
0
LINE
8
BLACK
6
CONTINUOUS
10
1.07574
20
0.200743
11
1.07968
21
0.19923
0
LINE
8
BLACK
6
CONTINUOUS
10
1.07968
20
0.19923
11
1.0831
21
0.197249
0
LINE
8
BLACK
6
CONTINUOUS
10
1.0831
20
0.197249
11
1.08598
21
0.19482
0
LINE
8
BLACK
6
CONTINUOUS
10
1.08598
20
0.19482
11
1.0883
21
0.191965
0
LINE
8
BLACK
6
CONTINUOUS
10
1.0883
20
0.191965
11
1.09004
21
0.188706
0
LINE
8
BLACK
6
CONTINUOUS
10
1.09004
20
0.188706
11
1.09076
21
0.186642
0
LINE
8
BLACK
6
CONTINUOUS
10
1.09076
20
0.186642
11
1.09109
21
0.185261
0
LINE
8
BLACK
6
CONTINUOUS
10
1.09109
20
0.185261
11
1.09141
21
0.183452
0
LINE
8
BLACK
6
CONTINUOUS
10
1.09141
20
0.183452
11
1.09168
21
0.181472
0
LINE
8
BLACK
6
CONTINUOUS
10
1.09168
20
0.181472
11
1.09188
21
0.17958
0
LINE
8
BLACK
6
CONTINUOUS
10
1.09188
20
0.17958
11
1.09197
21
0.178032
0
LINE
8
BLACK
6
CONTINUOUS
10
1.09197
20
0.178032
11
1.09197
21
0.177566
0
LINE
8
BLACK
6
CONTINUOUS
10
1.09197
20
0.177566
11
1.0919
21
0.176535
0
LINE
8
BLACK
6
CONTINUOUS
10
1.0919
20
0.176535
11
1.09177
21
0.175114
0
LINE
8
BLACK
6
CONTINUOUS
10
1.09177
20
0.175114
11
1.09163
21
0.173782
0
LINE
8
BLACK
6
CONTINUOUS
10
1.09163
20
0.173782
11
1.09085
21
0.169832
0
LINE
8
BLACK
6
CONTINUOUS
10
1.09085
20
0.169832
11
1.08947
21
0.166247
0
LINE
8
BLACK
6
CONTINUOUS
10
1.08947
20
0.166247
11
1.08753
21
0.163069
0
LINE
8
BLACK
6
CONTINUOUS
10
1.08753
20
0.163069
11
1.08506
21
0.160341
0
LINE
8
BLACK
6
CONTINUOUS
10
1.08506
20
0.160341
11
1.08208
21
0.158104
0
LINE
8
BLACK
6
CONTINUOUS
10
1.08208
20
0.158104
11
1.08034
21
0.157147
0
LINE
8
BLACK
6
CONTINUOUS
10
1.08034
20
0.157147
11
1.07895
21
0.156505
0
LINE
8
BLACK
6
CONTINUOUS
10
1.07895
20
0.156505
11
1.07757
21
0.155955
0
LINE
8
BLACK
6
CONTINUOUS
10
1.07757
20
0.155955
11
1.07612
21
0.155491
0
LINE
8
BLACK
6
CONTINUOUS
10
1.07612
20
0.155491
11
1.07455
21
0.155107
0
LINE
8
BLACK
6
CONTINUOUS
10
1.07455
20
0.155107
11
1.07279
21
0.154797
0
LINE
8
BLACK
6
CONTINUOUS
10
1.07279
20
0.154797
11
1.07076
21
0.154553
0
LINE
8
BLACK
6
CONTINUOUS
10
1.07076
20
0.154553
11
1.06842
21
0.154369
0
LINE
8
BLACK
6
CONTINUOUS
10
1.06842
20
0.154369
11
1.06568
21
0.15424
0
LINE
8
BLACK
6
CONTINUOUS
10
1.06568
20
0.15424
11
1.06248
21
0.154158
0
LINE
8
BLACK
6
CONTINUOUS
10
1.06248
20
0.154158
11
1.05877
21
0.154117
0
LINE
8
BLACK
6
CONTINUOUS
10
1.05877
20
0.154117
11
1.05446
21
0.15411
0
LINE
8
BLACK
6
CONTINUOUS
10
1.05446
20
0.15411
11
1.0495
21
0.154132
0
LINE
8
BLACK
6
CONTINUOUS
10
1.0495
20
0.154132
11
1.04935
21
0.154133
0
LINE
8
BLACK
6
CONTINUOUS
10
1.04935
20
0.154133
11
1.03327
21
0.154237
0
LINE
8
BLACK
6
CONTINUOUS
10
1.03327
20
0.154237
11
1.03317
21
0.15957
0
LINE
8
BLACK
6
CONTINUOUS
10
1.03317
20
0.15957
11
1.03307
21
0.164902
0
LINE
8
BLACK
6
CONTINUOUS
10
1.03307
20
0.164902
11
1.05004
21
0.164902
0
LINE
8
BLACK
6
CONTINUOUS
10
1.05004
20
0.164902
11
1.05412
21
0.164911
0
LINE
8
BLACK
6
CONTINUOUS
10
1.05412
20
0.164911
11
1.05788
21
0.164937
0
LINE
8
BLACK
6
CONTINUOUS
10
1.05788
20
0.164937
11
1.06126
21
0.164978
0
LINE
8
BLACK
6
CONTINUOUS
10
1.06126
20
0.164978
11
1.06419
21
0.165033
0
LINE
8
BLACK
6
CONTINUOUS
10
1.06419
20
0.165033
11
1.06661
21
0.165101
0
LINE
8
BLACK
6
CONTINUOUS
10
1.06661
20
0.165101
11
1.06845
21
0.165181
0
LINE
8
BLACK
6
CONTINUOUS
10
1.06845
20
0.165181
11
1.06964
21
0.165271
0
LINE
8
BLACK
6
CONTINUOUS
10
1.06964
20
0.165271
11
1.06981
21
0.165292
0
LINE
8
BLACK
6
CONTINUOUS
10
1.06981
20
0.165292
11
1.07315
21
0.165967
0
LINE
8
BLACK
6
CONTINUOUS
10
1.07315
20
0.165967
11
1.07586
21
0.167
0
LINE
8
BLACK
6
CONTINUOUS
10
1.07586
20
0.167
11
1.078
21
0.168428
0
LINE
8
BLACK
6
CONTINUOUS
10
1.078
20
0.168428
11
1.0796
21
0.170285
0
LINE
8
BLACK
6
CONTINUOUS
10
1.0796
20
0.170285
11
1.08069
21
0.172608
0
LINE
8
BLACK
6
CONTINUOUS
10
1.08069
20
0.172608
11
1.08131
21
0.175431
0
LINE
8
BLACK
6
CONTINUOUS
10
1.08131
20
0.175431
11
1.08146
21
0.177235
0
LINE
8
BLACK
6
CONTINUOUS
10
1.08146
20
0.177235
11
1.08138
21
0.180533
0
LINE
8
BLACK
6
CONTINUOUS
10
1.08138
20
0.180533
11
1.08083
21
0.183309
0
LINE
8
BLACK
6
CONTINUOUS
10
1.08083
20
0.183309
11
1.07977
21
0.185609
0
LINE
8
BLACK
6
CONTINUOUS
10
1.07977
20
0.185609
11
1.07816
21
0.187478
0
LINE
8
BLACK
6
CONTINUOUS
10
1.07816
20
0.187478
11
1.07597
21
0.188961
0
LINE
8
BLACK
6
CONTINUOUS
10
1.07597
20
0.188961
11
1.07318
21
0.190103
0
LINE
8
BLACK
6
CONTINUOUS
10
1.07318
20
0.190103
11
1.07231
21
0.190361
0
LINE
8
BLACK
6
CONTINUOUS
10
1.07231
20
0.190361
11
1.07169
21
0.19052
0
LINE
8
BLACK
6
CONTINUOUS
10
1.07169
20
0.19052
11
1.07103
21
0.190654
0
LINE
8
BLACK
6
CONTINUOUS
10
1.07103
20
0.190654
11
1.07025
21
0.190767
0
LINE
8
BLACK
6
CONTINUOUS
10
1.07025
20
0.190767
11
1.06931
21
0.19086
0
LINE
8
BLACK
6
CONTINUOUS
10
1.06931
20
0.19086
11
1.06811
21
0.190936
0
LINE
8
BLACK
6
CONTINUOUS
10
1.06811
20
0.190936
11
1.06661
21
0.190999
0
LINE
8
BLACK
6
CONTINUOUS
10
1.06661
20
0.190999
11
1.06473
21
0.191051
0
LINE
8
BLACK
6
CONTINUOUS
10
1.06473
20
0.191051
11
1.0624
21
0.191094
0
LINE
8
BLACK
6
CONTINUOUS
10
1.0624
20
0.191094
11
1.05957
21
0.191132
0
LINE
8
BLACK
6
CONTINUOUS
10
1.05957
20
0.191132
11
1.05615
21
0.191167
0
LINE
8
BLACK
6
CONTINUOUS
10
1.05615
20
0.191167
11
1.05209
21
0.191201
0
LINE
8
BLACK
6
CONTINUOUS
10
1.05209
20
0.191201
11
1.05143
21
0.191207
0
LINE
8
BLACK
6
CONTINUOUS
10
1.05143
20
0.191207
11
1.03309
21
0.191352
0
LINE
8
BLACK
6
CONTINUOUS
10
1.03309
20
0.191352
11
1.03309
21
0.201818
0
LINE
8
BLACK
6
CONTINUOUS
10
1.03309
20
0.201818
11
1.05306
21
0.201691
0
LINE
8
BLACK
6
CONTINUOUS
10
0.0188829
20
0.413678
11
0.0195748
21
0.412008
0
LINE
8
BLACK
6
CONTINUOUS
10
0.0195748
20
0.412008
11
0.0195748
21
0.178543
0
LINE
8
BLACK
6
CONTINUOUS
10
0.0195748
20
0.178543
11
0.0188829
21
0.176873
0
LINE
8
BLACK
6
CONTINUOUS
10
0.0188829
20
0.176873
11
0.0172126
21
0.176181
0
LINE
8
BLACK
6
CONTINUOUS
10
0.0172126
20
0.176181
11
0.0155423
21
0.176873
0
LINE
8
BLACK
6
CONTINUOUS
10
0.0155423
20
0.176873
11
0.0148504
21
0.178543
0
LINE
8
BLACK
6
CONTINUOUS
10
0.0148504
20
0.178543
11
0.0148504
21
0.412008
0
LINE
8
BLACK
6
CONTINUOUS
10
0.0148504
20
0.412008
11
0.0155423
21
0.413678
0
LINE
8
BLACK
6
CONTINUOUS
10
0.0155423
20
0.413678
11
0.0172126
21
0.41437
0
LINE
8
BLACK
6
CONTINUOUS
10
0.0172126
20
0.41437
11
0.0188829
21
0.413678
0
LINE
8
BLACK
6
CONTINUOUS
10
0.782451
20
0.22493
11
0.783979
21
0.222282
0
LINE
8
BLACK
6
CONTINUOUS
10
0.783979
20
0.222282
11
0.783979
21
0.219225
0
LINE
8
BLACK
6
CONTINUOUS
10
0.783979
20
0.219225
11
0.782451
21
0.216578
0
LINE
8
BLACK
6
CONTINUOUS
10
0.782451
20
0.216578
11
0.780624
21
0.214752
0
LINE
8
BLACK
6
CONTINUOUS
10
0.780624
20
0.214752
11
0.778556
21
0.208547
0
LINE
8
BLACK
6
CONTINUOUS
10
0.778556
20
0.208547
11
0.778556
21
0.204839
0
LINE
8
BLACK
6
CONTINUOUS
10
0.778556
20
0.204839
11
0.780624
21
0.198634
0
LINE
8
BLACK
6
CONTINUOUS
10
0.780624
20
0.198634
11
0.784585
21
0.194674
0
LINE
8
BLACK
6
CONTINUOUS
10
0.784585
20
0.194674
11
0.788773
21
0.19258
0
LINE
8
BLACK
6
CONTINUOUS
10
0.788773
20
0.19258
11
0.798687
21
0.190101
0
LINE
8
BLACK
6
CONTINUOUS
10
0.798687
20
0.190101
11
0.80567
21
0.190101
0
LINE
8
BLACK
6
CONTINUOUS
10
0.80567
20
0.190101
11
0.815584
21
0.19258
0
LINE
8
BLACK
6
CONTINUOUS
10
0.815584
20
0.19258
11
0.819771
21
0.194674
0
LINE
8
BLACK
6
CONTINUOUS
10
0.819771
20
0.194674
11
0.823732
21
0.198634
0
LINE
8
BLACK
6
CONTINUOUS
10
0.823732
20
0.198634
11
0.8258
21
0.204839
0
LINE
8
BLACK
6
CONTINUOUS
10
0.8258
20
0.204839
11
0.8258
21
0.208547
0
LINE
8
BLACK
6
CONTINUOUS
10
0.8258
20
0.208547
11
0.823732
21
0.214752
0
LINE
8
BLACK
6
CONTINUOUS
10
0.823732
20
0.214752
11
0.821906
21
0.216578
0
LINE
8
BLACK
6
CONTINUOUS
10
0.821906
20
0.216578
11
0.820377
21
0.219225
0
LINE
8
BLACK
6
CONTINUOUS
10
0.820377
20
0.219225
11
0.820377
21
0.222282
0
LINE
8
BLACK
6
CONTINUOUS
10
0.820377
20
0.222282
11
0.821906
21
0.224929
0
LINE
8
BLACK
6
CONTINUOUS
10
0.821906
20
0.224929
11
0.824553
21
0.226458
0
LINE
8
BLACK
6
CONTINUOUS
10
0.824553
20
0.226458
11
0.82761
21
0.226458
0
LINE
8
BLACK
6
CONTINUOUS
10
0.82761
20
0.226458
11
0.830257
21
0.22493
0
LINE
8
BLACK
6
CONTINUOUS
10
0.830257
20
0.22493
11
0.833069
21
0.222117
0
LINE
8
BLACK
6
CONTINUOUS
10
0.833069
20
0.222117
11
0.833748
21
0.220942
0
LINE
8
BLACK
6
CONTINUOUS
10
0.833748
20
0.220942
11
0.834496
21
0.219809
0
LINE
8
BLACK
6
CONTINUOUS
10
0.834496
20
0.219809
11
0.837308
21
0.211373
0
LINE
8
BLACK
6
CONTINUOUS
10
0.837308
20
0.211373
11
0.837365
21
0.210423
0
LINE
8
BLACK
6
CONTINUOUS
10
0.837365
20
0.210423
11
0.837611
21
0.209505
0
LINE
8
BLACK
6
CONTINUOUS
10
0.837611
20
0.209505
11
0.837611
21
0.203881
0
LINE
8
BLACK
6
CONTINUOUS
10
0.837611
20
0.203881
11
0.837365
21
0.202963
0
LINE
8
BLACK
6
CONTINUOUS
10
0.837365
20
0.202963
11
0.837308
21
0.202013
0
LINE
8
BLACK
6
CONTINUOUS
10
0.837308
20
0.202013
11
0.834496
21
0.193577
0
LINE
8
BLACK
6
CONTINUOUS
10
0.834496
20
0.193577
11
0.833748
21
0.192444
0
LINE
8
BLACK
6
CONTINUOUS
10
0.833748
20
0.192444
11
0.83307
21
0.191269
0
LINE
8
BLACK
6
CONTINUOUS
10
0.83307
20
0.191269
11
0.827445
21
0.185644
0
LINE
8
BLACK
6
CONTINUOUS
10
0.827445
20
0.185644
11
0.826622
21
0.185169
0
LINE
8
BLACK
6
CONTINUOUS
10
0.826622
20
0.185169
11
0.82591
21
0.184538
0
LINE
8
BLACK
6
CONTINUOUS
10
0.82591
20
0.184538
11
0.820286
21
0.181726
0
LINE
8
BLACK
6
CONTINUOUS
10
0.820286
20
0.181726
11
0.819647
21
0.181595
0
LINE
8
BLACK
6
CONTINUOUS
10
0.819647
20
0.181595
11
0.819077
21
0.181279
0
LINE
8
BLACK
6
CONTINUOUS
10
0.819077
20
0.181279
11
0.807829
21
0.178467
0
LINE
8
BLACK
6
CONTINUOUS
10
0.807829
20
0.178467
11
0.8071
21
0.178479
0
LINE
8
BLACK
6
CONTINUOUS
10
0.8071
20
0.178479
11
0.806396
21
0.17829
0
LINE
8
BLACK
6
CONTINUOUS
10
0.806396
20
0.17829
11
0.79796
21
0.17829
0
LINE
8
BLACK
6
CONTINUOUS
10
0.79796
20
0.17829
11
0.797256
21
0.178479
0
LINE
8
BLACK
6
CONTINUOUS
10
0.797256
20
0.178479
11
0.796528
21
0.178467
0
LINE
8
BLACK
6
CONTINUOUS
10
0.796528
20
0.178467
11
0.785279
21
0.181279
0
LINE
8
BLACK
6
CONTINUOUS
10
0.785279
20
0.181279
11
0.784709
21
0.181595
0
LINE
8
BLACK
6
CONTINUOUS
10
0.784709
20
0.181595
11
0.78407
21
0.181726
0
LINE
8
BLACK
6
CONTINUOUS
10
0.78407
20
0.181726
11
0.778446
21
0.184538
0
LINE
8
BLACK
6
CONTINUOUS
10
0.778446
20
0.184538
11
0.777735
21
0.185169
0
LINE
8
BLACK
6
CONTINUOUS
10
0.777735
20
0.185169
11
0.776911
21
0.185644
0
LINE
8
BLACK
6
CONTINUOUS
10
0.776911
20
0.185644
11
0.771287
21
0.191269
0
LINE
8
BLACK
6
CONTINUOUS
10
0.771287
20
0.191269
11
0.770608
21
0.192444
0
LINE
8
BLACK
6
CONTINUOUS
10
0.770608
20
0.192444
11
0.76986
21
0.193577
0
LINE
8
BLACK
6
CONTINUOUS
10
0.76986
20
0.193577
11
0.767048
21
0.202013
0
LINE
8
BLACK
6
CONTINUOUS
10
0.767048
20
0.202013
11
0.766991
21
0.202962
0
LINE
8
BLACK
6
CONTINUOUS
10
0.766991
20
0.202962
11
0.766745
21
0.203881
0
LINE
8
BLACK
6
CONTINUOUS
10
0.766745
20
0.203881
11
0.766745
21
0.209505
0
LINE
8
BLACK
6
CONTINUOUS
10
0.766745
20
0.209505
11
0.766991
21
0.210424
0
LINE
8
BLACK
6
CONTINUOUS
10
0.766991
20
0.210424
11
0.767048
21
0.211373
0
LINE
8
BLACK
6
CONTINUOUS
10
0.767048
20
0.211373
11
0.76986
21
0.219809
0
LINE
8
BLACK
6
CONTINUOUS
10
0.76986
20
0.219809
11
0.770608
21
0.220942
0
LINE
8
BLACK
6
CONTINUOUS
10
0.770608
20
0.220942
11
0.771287
21
0.222117
0
LINE
8
BLACK
6
CONTINUOUS
10
0.771287
20
0.222117
11
0.774099
21
0.22493
0
LINE
8
BLACK
6
CONTINUOUS
10
0.774099
20
0.22493
11
0.776747
21
0.226458
0
LINE
8
BLACK
6
CONTINUOUS
10
0.776747
20
0.226458
11
0.779803
21
0.226458
0
LINE
8
BLACK
6
CONTINUOUS
10
0.779803
20
0.226458
11
0.782451
21
0.22493
0
LINE
8
BLACK
6
CONTINUOUS
10
1.09057
20
0.24914
11
1.07118
21
0.236215
0
LINE
8
BLACK
6
CONTINUOUS
10
1.07118
20
0.236215
11
1.05179
21
0.22329
0
LINE
8
BLACK
6
CONTINUOUS
10
1.05179
20
0.22329
11
1.07118
21
0.223197
0
LINE
8
BLACK
6
CONTINUOUS
10
1.07118
20
0.223197
11
1.09057
21
0.223103
0
LINE
8
BLACK
6
CONTINUOUS
10
1.09057
20
0.223103
11
1.09057
21
0.212625
0
LINE
8
BLACK
6
CONTINUOUS
10
1.09057
20
0.212625
11
1.03309
21
0.212625
0
LINE
8
BLACK
6
CONTINUOUS
10
1.03309
20
0.212625
11
1.03309
21
0.217777
0
LINE
8
BLACK
6
CONTINUOUS
10
1.03309
20
0.217777
11
1.03309
21
0.222929
0
LINE
8
BLACK
6
CONTINUOUS
10
1.03309
20
0.222929
11
1.0514
21
0.23504
0
LINE
8
BLACK
6
CONTINUOUS
10
1.0514
20
0.23504
11
1.06971
21
0.247151
0
LINE
8
BLACK
6
CONTINUOUS
10
1.06971
20
0.247151
11
1.05139
21
0.247245
0
LINE
8
BLACK
6
CONTINUOUS
10
1.05139
20
0.247245
11
1.03307
21
0.247339
0
LINE
8
BLACK
6
CONTINUOUS
10
1.03307
20
0.247339
11
1.03327
21
0.257997
0
LINE
8
BLACK
6
CONTINUOUS
10
1.03327
20
0.257997
11
1.06192
21
0.25809
0
LINE
8
BLACK
6
CONTINUOUS
10
1.06192
20
0.25809
11
1.09057
21
0.258182
0
LINE
8
BLACK
6
CONTINUOUS
10
1.09057
20
0.258182
11
1.09057
21
0.24914
0
LINE
8
BLACK
6
CONTINUOUS
10
0.812725
20
0.288338
11
0.813453
21
0.28835
0
LINE
8
BLACK
6
CONTINUOUS
10
0.813453
20
0.28835
11
0.824702
21
0.285538
0
LINE
8
BLACK
6
CONTINUOUS
10
0.824702
20
0.285538
11
0.824746
21
0.285513
0
LINE
8
BLACK
6
CONTINUOUS
10
0.824746
20
0.285513
11
0.824798
21
0.285513
0
LINE
8
BLACK
6
CONTINUOUS
10
0.824798
20
0.285513
11
0.82608
21
0.284773
0
LINE
8
BLACK
6
CONTINUOUS
10
0.82608
20
0.284773
11
0.827374
21
0.284054
0
LINE
8
BLACK
6
CONTINUOUS
10
0.827374
20
0.284054
11
0.827401
21
0.28401
0
LINE
8
BLACK
6
CONTINUOUS
10
0.827401
20
0.28401
11
0.827445
21
0.283985
0
LINE
8
BLACK
6
CONTINUOUS
10
0.827445
20
0.283985
11
0.83307
21
0.27836
0
LINE
8
BLACK
6
CONTINUOUS
10
0.83307
20
0.27836
11
0.833545
21
0.277537
0
LINE
8
BLACK
6
CONTINUOUS
10
0.833545
20
0.277537
11
0.834176
21
0.276826
0
LINE
8
BLACK
6
CONTINUOUS
10
0.834176
20
0.276826
11
0.836988
21
0.271201
0
LINE
8
BLACK
6
CONTINUOUS
10
0.836988
20
0.271201
11
0.83726
21
0.269871
0
LINE
8
BLACK
6
CONTINUOUS
10
0.83726
20
0.269871
11
0.837611
21
0.26856
0
LINE
8
BLACK
6
CONTINUOUS
10
0.837611
20
0.26856
11
0.837611
21
0.257312
0
LINE
8
BLACK
6
CONTINUOUS
10
0.837611
20
0.257312
11
0.83726
21
0.256001
0
LINE
8
BLACK
6
CONTINUOUS
10
0.83726
20
0.256001
11
0.836988
21
0.254671
0
LINE
8
BLACK
6
CONTINUOUS
10
0.836988
20
0.254671
11
0.834176
21
0.249046
0
LINE
8
BLACK
6
CONTINUOUS
10
0.834176
20
0.249046
11
0.833545
21
0.248335
0
LINE
8
BLACK
6
CONTINUOUS
10
0.833545
20
0.248335
11
0.83307
21
0.247511
0
LINE
8
BLACK
6
CONTINUOUS
10
0.83307
20
0.247511
11
0.827445
21
0.241887
0
LINE
8
BLACK
6
CONTINUOUS
10
0.827445
20
0.241887
11
0.827401
21
0.241862
0
LINE
8
BLACK
6
CONTINUOUS
10
0.827401
20
0.241862
11
0.827374
21
0.241818
0
LINE
8
BLACK
6
CONTINUOUS
10
0.827374
20
0.241818
11
0.82608
21
0.241099
0
LINE
8
BLACK
6
CONTINUOUS
10
0.82608
20
0.241099
11
0.824798
21
0.240359
0
LINE
8
BLACK
6
CONTINUOUS
10
0.824798
20
0.240359
11
0.824746
21
0.240359
0
LINE
8
BLACK
6
CONTINUOUS
10
0.824746
20
0.240359
11
0.824702
21
0.240334
0
LINE
8
BLACK
6
CONTINUOUS
10
0.824702
20
0.240334
11
0.813453
21
0.237522
0
LINE
8
BLACK
6
CONTINUOUS
10
0.813453
20
0.237522
11
0.812725
21
0.237534
0
LINE
8
BLACK
6
CONTINUOUS
10
0.812725
20
0.237534
11
0.812021
21
0.237345
0
LINE
8
BLACK
6
CONTINUOUS
10
0.812021
20
0.237345
11
0.792336
21
0.237345
0
LINE
8
BLACK
6
CONTINUOUS
10
0.792336
20
0.237345
11
0.791632
21
0.237534
0
LINE
8
BLACK
6
CONTINUOUS
10
0.791632
20
0.237534
11
0.790903
21
0.237522
0
LINE
8
BLACK
6
CONTINUOUS
10
0.790903
20
0.237522
11
0.779655
21
0.240334
0
LINE
8
BLACK
6
CONTINUOUS
10
0.779655
20
0.240334
11
0.77961
21
0.240359
0
LINE
8
BLACK
6
CONTINUOUS
10
0.77961
20
0.240359
11
0.779559
21
0.240359
0
LINE
8
BLACK
6
CONTINUOUS
10
0.779559
20
0.240359
11
0.778276
21
0.241099
0
LINE
8
BLACK
6
CONTINUOUS
10
0.778276
20
0.241099
11
0.776982
21
0.241818
0
LINE
8
BLACK
6
CONTINUOUS
10
0.776982
20
0.241818
11
0.776956
21
0.241862
0
LINE
8
BLACK
6
CONTINUOUS
10
0.776956
20
0.241862
11
0.776911
21
0.241887
0
LINE
8
BLACK
6
CONTINUOUS
10
0.776911
20
0.241887
11
0.771287
21
0.247511
0
LINE
8
BLACK
6
CONTINUOUS
10
0.771287
20
0.247511
11
0.770812
21
0.248335
0
LINE
8
BLACK
6
CONTINUOUS
10
0.770812
20
0.248335
11
0.770181
21
0.249046
0
LINE
8
BLACK
6
CONTINUOUS
10
0.770181
20
0.249046
11
0.767369
21
0.254671
0
LINE
8
BLACK
6
CONTINUOUS
10
0.767369
20
0.254671
11
0.767096
21
0.256001
0
LINE
8
BLACK
6
CONTINUOUS
10
0.767096
20
0.256001
11
0.766745
21
0.257312
0
LINE
8
BLACK
6
CONTINUOUS
10
0.766745
20
0.257312
11
0.766745
21
0.26856
0
LINE
8
BLACK
6
CONTINUOUS
10
0.766745
20
0.26856
11
0.767096
21
0.269871
0
LINE
8
BLACK
6
CONTINUOUS
10
0.767096
20
0.269871
11
0.767369
21
0.271201
0
LINE
8
BLACK
6
CONTINUOUS
10
0.767369
20
0.271201
11
0.770181
21
0.276826
0
LINE
8
BLACK
6
CONTINUOUS
10
0.770181
20
0.276826
11
0.770812
21
0.277537
0
LINE
8
BLACK
6
CONTINUOUS
10
0.770812
20
0.277537
11
0.771287
21
0.27836
0
LINE
8
BLACK
6
CONTINUOUS
10
0.771287
20
0.27836
11
0.776911
21
0.283985
0
LINE
8
BLACK
6
CONTINUOUS
10
0.776911
20
0.283985
11
0.776956
21
0.28401
0
LINE
8
BLACK
6
CONTINUOUS
10
0.776956
20
0.28401
11
0.776982
21
0.284054
0
LINE
8
BLACK
6
CONTINUOUS
10
0.776982
20
0.284054
11
0.778276
21
0.284773
0
LINE
8
BLACK
6
CONTINUOUS
10
0.778276
20
0.284773
11
0.779559
21
0.285513
0
LINE
8
BLACK
6
CONTINUOUS
10
0.779559
20
0.285513
11
0.77961
21
0.285513
0
LINE
8
BLACK
6
CONTINUOUS
10
0.77961
20
0.285513
11
0.779655
21
0.285538
0
LINE
8
BLACK
6
CONTINUOUS
10
0.779655
20
0.285538
11
0.790903
21
0.28835
0
LINE
8
BLACK
6
CONTINUOUS
10
0.790903
20
0.28835
11
0.791632
21
0.288338
0
LINE
8
BLACK
6
CONTINUOUS
10
0.791632
20
0.288338
11
0.792336
21
0.288526
0
LINE
8
BLACK
6
CONTINUOUS
10
0.792336
20
0.288526
11
0.812021
21
0.288526
0
LINE
8
BLACK
6
CONTINUOUS
10
0.812021
20
0.288526
11
0.812725
21
0.288338
0
LINE
8
BLACK
6
CONTINUOUS
10
0.784106
20
0.274476
11
0.780316
21
0.270686
0
LINE
8
BLACK
6
CONTINUOUS
10
0.780316
20
0.270686
11
0.778556
21
0.267166
0
LINE
8
BLACK
6
CONTINUOUS
10
0.778556
20
0.267166
11
0.778556
21
0.258706
0
LINE
8
BLACK
6
CONTINUOUS
10
0.778556
20
0.258706
11
0.780316
21
0.255186
0
LINE
8
BLACK
6
CONTINUOUS
10
0.780316
20
0.255186
11
0.784106
21
0.251396
0
LINE
8
BLACK
6
CONTINUOUS
10
0.784106
20
0.251396
11
0.793063
21
0.249156
0
LINE
8
BLACK
6
CONTINUOUS
10
0.793063
20
0.249156
11
0.811294
21
0.249156
0
LINE
8
BLACK
6
CONTINUOUS
10
0.811294
20
0.249156
11
0.82025
21
0.251396
0
LINE
8
BLACK
6
CONTINUOUS
10
0.82025
20
0.251396
11
0.82404
21
0.255186
0
LINE
8
BLACK
6
CONTINUOUS
10
0.82404
20
0.255186
11
0.8258
21
0.258706
0
LINE
8
BLACK
6
CONTINUOUS
10
0.8258
20
0.258706
11
0.8258
21
0.267166
0
LINE
8
BLACK
6
CONTINUOUS
10
0.8258
20
0.267166
11
0.82404
21
0.270686
0
LINE
8
BLACK
6
CONTINUOUS
10
0.82404
20
0.270686
11
0.82025
21
0.274476
0
LINE
8
BLACK
6
CONTINUOUS
10
0.82025
20
0.274476
11
0.811294
21
0.276715
0
LINE
8
BLACK
6
CONTINUOUS
10
0.811294
20
0.276715
11
0.793063
21
0.276715
0
LINE
8
BLACK
6
CONTINUOUS
10
0.793063
20
0.276715
11
0.784106
21
0.274476
0
LINE
8
BLACK
6
CONTINUOUS
10
1.06408
20
0.31902
11
1.06771
21
0.31869
0
LINE
8
BLACK
6
CONTINUOUS
10
1.06771
20
0.31869
11
1.07013
21
0.318233
0
LINE
8
BLACK
6
CONTINUOUS
10
1.07013
20
0.318233
11
1.07437
21
0.316865
0
LINE
8
BLACK
6
CONTINUOUS
10
1.07437
20
0.316865
11
1.07821
21
0.314931
0
LINE
8
BLACK
6
CONTINUOUS
10
1.07821
20
0.314931
11
1.08161
21
0.312467
0
LINE
8
BLACK
6
CONTINUOUS
10
1.08161
20
0.312467
11
1.08453
21
0.309507
0
LINE
8
BLACK
6
CONTINUOUS
10
1.08453
20
0.309507
11
1.08691
21
0.306085
0
LINE
8
BLACK
6
CONTINUOUS
10
1.08691
20
0.306085
11
1.08783
21
0.304346
0
LINE
8
BLACK
6
CONTINUOUS
10
1.08783
20
0.304346
11
1.08843
21
0.303073
0
LINE
8
BLACK
6
CONTINUOUS
10
1.08843
20
0.303073
11
1.08892
21
0.301944
0
LINE
8
BLACK
6
CONTINUOUS
10
1.08892
20
0.301944
11
1.08932
21
0.300874
0
LINE
8
BLACK
6
CONTINUOUS
10
1.08932
20
0.300874
11
1.08964
21
0.299779
0
LINE
8
BLACK
6
CONTINUOUS
10
1.08964
20
0.299779
11
1.08989
21
0.298572
0
LINE
8
BLACK
6
CONTINUOUS
10
1.08989
20
0.298572
11
1.09008
21
0.29717
0
LINE
8
BLACK
6
CONTINUOUS
10
1.09008
20
0.29717
11
1.09021
21
0.295487
0
LINE
8
BLACK
6
CONTINUOUS
10
1.09021
20
0.295487
11
1.09031
21
0.293439
0
LINE
8
BLACK
6
CONTINUOUS
10
1.09031
20
0.293439
11
1.09038
21
0.290941
0
LINE
8
BLACK
6
CONTINUOUS
10
1.09038
20
0.290941
11
1.09042
21
0.287907
0
LINE
8
BLACK
6
CONTINUOUS
10
1.09042
20
0.287907
11
1.09047
21
0.284253
0
LINE
8
BLACK
6
CONTINUOUS
10
1.09047
20
0.284253
11
1.09047
21
0.283395
0
LINE
8
BLACK
6
CONTINUOUS
10
1.09047
20
0.283395
11
1.09061
21
0.269386
0
LINE
8
BLACK
6
CONTINUOUS
10
1.09061
20
0.269386
11
1.08117
21
0.269386
0
LINE
8
BLACK
6
CONTINUOUS
10
1.08117
20
0.269386
11
1.033
21
0.269386
0
LINE
8
BLACK
6
CONTINUOUS
10
1.033
20
0.269386
11
1.03318
21
0.282491
0
LINE
8
BLACK
6
CONTINUOUS
10
1.03318
20
0.282491
11
1.03324
21
0.285989
0
LINE
8
BLACK
6
CONTINUOUS
10
1.03324
20
0.285989
11
1.03329
21
0.288852
0
LINE
8
BLACK
6
CONTINUOUS
10
1.03329
20
0.288852
11
1.03334
21
0.291166
0
LINE
8
BLACK
6
CONTINUOUS
10
1.03334
20
0.291166
11
1.03341
21
0.293021
0
LINE
8
BLACK
6
CONTINUOUS
10
1.03341
20
0.293021
11
1.0335
21
0.294502
0
LINE
8
BLACK
6
CONTINUOUS
10
1.0335
20
0.294502
11
1.0336
21
0.295698
0
LINE
8
BLACK
6
CONTINUOUS
10
1.0336
20
0.295698
11
1.03373
21
0.296696
0
LINE
8
BLACK
6
CONTINUOUS
10
1.03373
20
0.296696
11
1.03389
21
0.297584
0
LINE
8
BLACK
6
CONTINUOUS
10
1.03389
20
0.297584
11
1.03409
21
0.298449
0
LINE
8
BLACK
6
CONTINUOUS
10
1.03409
20
0.298449
11
1.03414
21
0.29867
0
LINE
8
BLACK
6
CONTINUOUS
10
1.03414
20
0.29867
11
1.03557
21
0.302981
0
LINE
8
BLACK
6
CONTINUOUS
10
1.03557
20
0.302981
11
1.03755
21
0.306836
0
LINE
8
BLACK
6
CONTINUOUS
10
1.03755
20
0.306836
11
1.04006
21
0.310212
0
LINE
8
BLACK
6
CONTINUOUS
10
1.04006
20
0.310212
11
1.04308
21
0.313084
0
LINE
8
BLACK
6
CONTINUOUS
10
1.04308
20
0.313084
11
1.04657
21
0.315431
0
LINE
8
BLACK
6
CONTINUOUS
10
1.04657
20
0.315431
11
1.05053
21
0.317228
0
LINE
8
BLACK
6
CONTINUOUS
10
1.05053
20
0.317228
11
1.0532
21
0.318056
0
LINE
8
BLACK
6
CONTINUOUS
10
1.0532
20
0.318056
11
1.05656
21
0.318701
0
LINE
8
BLACK
6
CONTINUOUS
10
1.05656
20
0.318701
11
1.06027
21
0.319023
0
LINE
8
BLACK
6
CONTINUOUS
10
1.06027
20
0.319023
11
1.06408
21
0.31902
0
LINE
8
BLACK
6
CONTINUOUS
10
1.06078
20
0.307323
11
1.05805
21
0.307142
0
LINE
8
BLACK
6
CONTINUOUS
10
1.05805
20
0.307142
11
1.05566
21
0.306788
0
LINE
8
BLACK
6
CONTINUOUS
10
1.05566
20
0.306788
11
1.05505
21
0.306646
0
LINE
8
BLACK
6
CONTINUOUS
10
1.05505
20
0.306646
11
1.05254
21
0.305891
0
LINE
8
BLACK
6
CONTINUOUS
10
1.05254
20
0.305891
11
1.05052
21
0.30499
0
LINE
8
BLACK
6
CONTINUOUS
10
1.05052
20
0.30499
11
1.04875
21
0.303815
0
LINE
8
BLACK
6
CONTINUOUS
10
1.04875
20
0.303815
11
1.04737
21
0.302622
0
LINE
8
BLACK
6
CONTINUOUS
10
1.04737
20
0.302622
11
1.04603
21
0.301224
0
LINE
8
BLACK
6
CONTINUOUS
10
1.04603
20
0.301224
11
1.04497
21
0.299791
0
LINE
8
BLACK
6
CONTINUOUS
10
1.04497
20
0.299791
11
1.04416
21
0.298214
0
LINE
8
BLACK
6
CONTINUOUS
10
1.04416
20
0.298214
11
1.04358
21
0.296389
0
LINE
8
BLACK
6
CONTINUOUS
10
1.04358
20
0.296389
11
1.04319
21
0.294209
0
LINE
8
BLACK
6
CONTINUOUS
10
1.04319
20
0.294209
11
1.04296
21
0.291569
0
LINE
8
BLACK
6
CONTINUOUS
10
1.04296
20
0.291569
11
1.04286
21
0.288361
0
LINE
8
BLACK
6
CONTINUOUS
10
1.04286
20
0.288361
11
1.04285
21
0.286829
0
LINE
8
BLACK
6
CONTINUOUS
10
1.04285
20
0.286829
11
1.04285
21
0.27987
0
LINE
8
BLACK
6
CONTINUOUS
10
1.04285
20
0.27987
11
1.08117
21
0.27987
0
LINE
8
BLACK
6
CONTINUOUS
10
1.08117
20
0.27987
11
1.08117
21
0.286541
0
LINE
8
BLACK
6
CONTINUOUS
10
1.08117
20
0.286541
11
1.08115
21
0.288818
0
LINE
8
BLACK
6
CONTINUOUS
10
1.08115
20
0.288818
11
1.08109
21
0.290986
0
LINE
8
BLACK
6
CONTINUOUS
10
1.08109
20
0.290986
11
1.08099
21
0.292883
0
LINE
8
BLACK
6
CONTINUOUS
10
1.08099
20
0.292883
11
1.08087
21
0.294351
0
LINE
8
BLACK
6
CONTINUOUS
10
1.08087
20
0.294351
11
1.08076
21
0.295127
0
LINE
8
BLACK
6
CONTINUOUS
10
1.08076
20
0.295127
11
1.07976
21
0.298204
0
LINE
8
BLACK
6
CONTINUOUS
10
1.07976
20
0.298204
11
1.07816
21
0.300894
0
LINE
8
BLACK
6
CONTINUOUS
10
1.07816
20
0.300894
11
1.076
21
0.303167
0
LINE
8
BLACK
6
CONTINUOUS
10
1.076
20
0.303167
11
1.0733
21
0.304992
0
LINE
8
BLACK
6
CONTINUOUS
10
1.0733
20
0.304992
11
1.0701
21
0.306341
0
LINE
8
BLACK
6
CONTINUOUS
10
1.0701
20
0.306341
11
1.06845
21
0.306797
0
LINE
8
BLACK
6
CONTINUOUS
10
1.06845
20
0.306797
11
1.06624
21
0.307153
0
LINE
8
BLACK
6
CONTINUOUS
10
1.06624
20
0.307153
11
1.0636
21
0.307328
0
LINE
8
BLACK
6
CONTINUOUS
10
1.0636
20
0.307328
11
1.06078
21
0.307323
0
LINE
8
BLACK
6
CONTINUOUS
10
0.790442
20
0.344523
11
0.791391
21
0.344466
0
LINE
8
BLACK
6
CONTINUOUS
10
0.791391
20
0.344466
11
0.799828
21
0.341654
0
LINE
8
BLACK
6
CONTINUOUS
10
0.799828
20
0.341654
11
0.80096
21
0.340907
0
LINE
8
BLACK
6
CONTINUOUS
10
0.80096
20
0.340907
11
0.802136
21
0.340228
0
LINE
8
BLACK
6
CONTINUOUS
10
0.802136
20
0.340228
11
0.8258
21
0.316563
0
LINE
8
BLACK
6
CONTINUOUS
10
0.8258
20
0.316563
11
0.8258
21
0.338864
0
LINE
8
BLACK
6
CONTINUOUS
10
0.8258
20
0.338864
11
0.826591
21
0.341817
0
LINE
8
BLACK
6
CONTINUOUS
10
0.826591
20
0.341817
11
0.828753
21
0.343978
0
LINE
8
BLACK
6
CONTINUOUS
10
0.828753
20
0.343978
11
0.831706
21
0.344769
0
LINE
8
BLACK
6
CONTINUOUS
10
0.831706
20
0.344769
11
0.834659
21
0.343978
0
LINE
8
BLACK
6
CONTINUOUS
10
0.834659
20
0.343978
11
0.83682
21
0.341817
0
LINE
8
BLACK
6
CONTINUOUS
10
0.83682
20
0.341817
11
0.837611
21
0.338864
0
LINE
8
BLACK
6
CONTINUOUS
10
0.837611
20
0.338864
11
0.837611
21
0.302306
0
LINE
8
BLACK
6
CONTINUOUS
10
0.837611
20
0.302306
11
0.83741
21
0.301555
0
LINE
8
BLACK
6
CONTINUOUS
10
0.83741
20
0.301555
11
0.83741
21
0.300778
0
LINE
8
BLACK
6
CONTINUOUS
10
0.83741
20
0.300778
11
0.837021
21
0.300104
0
LINE
8
BLACK
6
CONTINUOUS
10
0.837021
20
0.300104
11
0.83682
21
0.299353
0
LINE
8
BLACK
6
CONTINUOUS
10
0.83682
20
0.299353
11
0.83627
21
0.298804
0
LINE
8
BLACK
6
CONTINUOUS
10
0.83627
20
0.298804
11
0.835882
21
0.29813
0
LINE
8
BLACK
6
CONTINUOUS
10
0.835882
20
0.29813
11
0.835208
21
0.297741
0
LINE
8
BLACK
6
CONTINUOUS
10
0.835208
20
0.297741
11
0.834659
21
0.297192
0
LINE
8
BLACK
6
CONTINUOUS
10
0.834659
20
0.297192
11
0.833908
21
0.29699
0
LINE
8
BLACK
6
CONTINUOUS
10
0.833908
20
0.29699
11
0.833234
21
0.296602
0
LINE
8
BLACK
6
CONTINUOUS
10
0.833234
20
0.296602
11
0.832457
21
0.296602
0
LINE
8
BLACK
6
CONTINUOUS
10
0.832457
20
0.296602
11
0.831706
21
0.296401
0
LINE
8
BLACK
6
CONTINUOUS
10
0.831706
20
0.296401
11
0.830955
21
0.296602
0
LINE
8
BLACK
6
CONTINUOUS
10
0.830955
20
0.296602
11
0.830177
21
0.296602
0
LINE
8
BLACK
6
CONTINUOUS
10
0.830177
20
0.296602
11
0.829504
21
0.29699
0
LINE
8
BLACK
6
CONTINUOUS
10
0.829504
20
0.29699
11
0.828753
21
0.297192
0
LINE
8
BLACK
6
CONTINUOUS
10
0.828753
20
0.297192
11
0.828203
21
0.297741
0
LINE
8
BLACK
6
CONTINUOUS
10
0.828203
20
0.297741
11
0.82753
21
0.29813
0
LINE
8
BLACK
6
CONTINUOUS
10
0.82753
20
0.29813
11
0.79477
21
0.33089
0
LINE
8
BLACK
6
CONTINUOUS
10
0.79477
20
0.33089
11
0.788565
21
0.332958
0
LINE
8
BLACK
6
CONTINUOUS
10
0.788565
20
0.332958
11
0.785293
21
0.332958
0
LINE
8
BLACK
6
CONTINUOUS
10
0.785293
20
0.332958
11
0.781773
21
0.331198
0
LINE
8
BLACK
6
CONTINUOUS
10
0.781773
20
0.331198
11
0.780316
21
0.329742
0
LINE
8
BLACK
6
CONTINUOUS
10
0.780316
20
0.329742
11
0.778556
21
0.326221
0
LINE
8
BLACK
6
CONTINUOUS
10
0.778556
20
0.326221
11
0.778556
21
0.314949
0
LINE
8
BLACK
6
CONTINUOUS
10
0.778556
20
0.314949
11
0.780316
21
0.311429
0
LINE
8
BLACK
6
CONTINUOUS
10
0.780316
20
0.311429
11
0.782451
21
0.309294
0
LINE
8
BLACK
6
CONTINUOUS
10
0.782451
20
0.309294
11
0.783979
21
0.306647
0
LINE
8
BLACK
6
CONTINUOUS
10
0.783979
20
0.306647
11
0.783979
21
0.30359
0
LINE
8
BLACK
6
CONTINUOUS
10
0.783979
20
0.30359
11
0.782451
21
0.300942
0
LINE
8
BLACK
6
CONTINUOUS
10
0.782451
20
0.300942
11
0.779803
21
0.299414
0
LINE
8
BLACK
6
CONTINUOUS
10
0.779803
20
0.299414
11
0.776747
21
0.299414
0
LINE
8
BLACK
6
CONTINUOUS
10
0.776747
20
0.299414
11
0.774099
21
0.300942
0
LINE
8
BLACK
6
CONTINUOUS
10
0.774099
20
0.300942
11
0.771287
21
0.303754
0
LINE
8
BLACK
6
CONTINUOUS
10
0.771287
20
0.303754
11
0.770812
21
0.304578
0
LINE
8
BLACK
6
CONTINUOUS
10
0.770812
20
0.304578
11
0.770181
21
0.305289
0
LINE
8
BLACK
6
CONTINUOUS
10
0.770181
20
0.305289
11
0.767369
21
0.310914
0
LINE
8
BLACK
6
CONTINUOUS
10
0.767369
20
0.310914
11
0.767096
21
0.312244
0
LINE
8
BLACK
6
CONTINUOUS
10
0.767096
20
0.312244
11
0.766745
21
0.313555
0
LINE
8
BLACK
6
CONTINUOUS
10
0.766745
20
0.313555
11
0.766745
21
0.327615
0
LINE
8
BLACK
6
CONTINUOUS
10
0.766745
20
0.327615
11
0.767096
21
0.328926
0
LINE
8
BLACK
6
CONTINUOUS
10
0.767096
20
0.328926
11
0.767369
21
0.330256
0
LINE
8
BLACK
6
CONTINUOUS
10
0.767369
20
0.330256
11
0.770181
21
0.335881
0
LINE
8
BLACK
6
CONTINUOUS
10
0.770181
20
0.335881
11
0.770812
21
0.336592
0
LINE
8
BLACK
6
CONTINUOUS
10
0.770812
20
0.336592
11
0.771287
21
0.337415
0
LINE
8
BLACK
6
CONTINUOUS
10
0.771287
20
0.337415
11
0.774099
21
0.340228
0
LINE
8
BLACK
6
CONTINUOUS
10
0.774099
20
0.340228
11
0.774923
21
0.340703
0
LINE
8
BLACK
6
CONTINUOUS
10
0.774923
20
0.340703
11
0.775634
21
0.341334
0
LINE
8
BLACK
6
CONTINUOUS
10
0.775634
20
0.341334
11
0.781258
21
0.344146
0
LINE
8
BLACK
6
CONTINUOUS
10
0.781258
20
0.344146
11
0.782588
21
0.344418
0
LINE
8
BLACK
6
CONTINUOUS
10
0.782588
20
0.344418
11
0.783899
21
0.344769
0
LINE
8
BLACK
6
CONTINUOUS
10
0.783899
20
0.344769
11
0.789524
21
0.344769
0
LINE
8
BLACK
6
CONTINUOUS
10
0.789524
20
0.344769
11
0.790442
21
0.344523
0
LINE
8
BLACK
6
CONTINUOUS
10
1.09057
20
0.327231
11
1.03309
21
0.327231
0
LINE
8
BLACK
6
CONTINUOUS
10
1.03309
20
0.327231
11
1.03309
21
0.364107
0
LINE
8
BLACK
6
CONTINUOUS
10
1.03309
20
0.364107
11
1.04357
21
0.364107
0
LINE
8
BLACK
6
CONTINUOUS
10
1.04357
20
0.364107
11
1.04357
21
0.338077
0
LINE
8
BLACK
6
CONTINUOUS
10
1.04357
20
0.338077
11
1.05549
21
0.338077
0
LINE
8
BLACK
6
CONTINUOUS
10
1.05549
20
0.338077
11
1.05558
21
0.348109
0
LINE
8
BLACK
6
CONTINUOUS
10
1.05558
20
0.348109
11
1.05568
21
0.358142
0
LINE
8
BLACK
6
CONTINUOUS
10
1.05568
20
0.358142
11
1.06598
21
0.358342
0
LINE
8
BLACK
6
CONTINUOUS
10
1.06598
20
0.358342
11
1.06598
21
0.338077
0
LINE
8
BLACK
6
CONTINUOUS
10
1.06598
20
0.338077
11
1.08045
21
0.338077
0
LINE
8
BLACK
6
CONTINUOUS
10
1.08045
20
0.338077
11
1.08045
21
0.36483
0
LINE
8
BLACK
6
CONTINUOUS
10
1.08045
20
0.36483
11
1.09057
21
0.36483
0
LINE
8
BLACK
6
CONTINUOUS
10
1.09057
20
0.36483
11
1.09057
21
0.327231
0
LINE
8
BLACK
6
CONTINUOUS
10
0.809912
20
0.400824
11
0.810641
21
0.400836
0
LINE
8
BLACK
6
CONTINUOUS
10
0.810641
20
0.400836
11
0.82189
21
0.398024
0
LINE
8
BLACK
6
CONTINUOUS
10
0.82189
20
0.398024
11
0.822459
21
0.397708
0
LINE
8
BLACK
6
CONTINUOUS
10
0.822459
20
0.397708
11
0.823098
21
0.397577
0
LINE
8
BLACK
6
CONTINUOUS
10
0.823098
20
0.397577
11
0.828723
21
0.394765
0
LINE
8
BLACK
6
CONTINUOUS
10
0.828723
20
0.394765
11
0.829434
21
0.394134
0
LINE
8
BLACK
6
CONTINUOUS
10
0.829434
20
0.394134
11
0.830257
21
0.393658
0
LINE
8
BLACK
6
CONTINUOUS
10
0.830257
20
0.393658
11
0.833069
21
0.390846
0
LINE
8
BLACK
6
CONTINUOUS
10
0.833069
20
0.390846
11
0.833545
21
0.390023
0
LINE
8
BLACK
6
CONTINUOUS
10
0.833545
20
0.390023
11
0.834176
21
0.389311
0
LINE
8
BLACK
6
CONTINUOUS
10
0.834176
20
0.389311
11
0.836988
21
0.383687
0
LINE
8
BLACK
6
CONTINUOUS
10
0.836988
20
0.383687
11
0.83726
21
0.382357
0
LINE
8
BLACK
6
CONTINUOUS
10
0.83726
20
0.382357
11
0.837611
21
0.381046
0
LINE
8
BLACK
6
CONTINUOUS
10
0.837611
20
0.381046
11
0.837611
21
0.375422
0
LINE
8
BLACK
6
CONTINUOUS
10
0.837611
20
0.375422
11
0.83726
21
0.374111
0
LINE
8
BLACK
6
CONTINUOUS
10
0.83726
20
0.374111
11
0.836988
21
0.372781
0
LINE
8
BLACK
6
CONTINUOUS
10
0.836988
20
0.372781
11
0.834176
21
0.367157
0
LINE
8
BLACK
6
CONTINUOUS
10
0.834176
20
0.367157
11
0.833545
21
0.366445
0
LINE
8
BLACK
6
CONTINUOUS
10
0.833545
20
0.366445
11
0.833069
21
0.365622
0
LINE
8
BLACK
6
CONTINUOUS
10
0.833069
20
0.365622
11
0.830257
21
0.36281
0
LINE
8
BLACK
6
CONTINUOUS
10
0.830257
20
0.36281
11
0.829434
21
0.362334
0
LINE
8
BLACK
6
CONTINUOUS
10
0.829434
20
0.362334
11
0.828723
21
0.361703
0
LINE
8
BLACK
6
CONTINUOUS
10
0.828723
20
0.361703
11
0.823098
21
0.358891
0
LINE
8
BLACK
6
CONTINUOUS
10
0.823098
20
0.358891
11
0.822459
21
0.358761
0
LINE
8
BLACK
6
CONTINUOUS
10
0.822459
20
0.358761
11
0.82189
21
0.358444
0
LINE
8
BLACK
6
CONTINUOUS
10
0.82189
20
0.358444
11
0.810641
21
0.355632
0
LINE
8
BLACK
6
CONTINUOUS
10
0.810641
20
0.355632
11
0.809912
21
0.355644
0
LINE
8
BLACK
6
CONTINUOUS
10
0.809912
20
0.355644
11
0.809209
21
0.355456
0
LINE
8
BLACK
6
CONTINUOUS
10
0.809209
20
0.355456
11
0.795148
21
0.355456
0
LINE
8
BLACK
6
CONTINUOUS
10
0.795148
20
0.355456
11
0.794444
21
0.355644
0
LINE
8
BLACK
6
CONTINUOUS
10
0.794444
20
0.355644
11
0.793716
21
0.355632
0
LINE
8
BLACK
6
CONTINUOUS
10
0.793716
20
0.355632
11
0.782467
21
0.358444
0
LINE
8
BLACK
6
CONTINUOUS
10
0.782467
20
0.358444
11
0.781897
21
0.358761
0
LINE
8
BLACK
6
CONTINUOUS
10
0.781897
20
0.358761
11
0.781258
21
0.358891
0
LINE
8
BLACK
6
CONTINUOUS
10
0.781258
20
0.358891
11
0.775634
21
0.361703
0
LINE
8
BLACK
6
CONTINUOUS
10
0.775634
20
0.361703
11
0.774923
21
0.362334
0
LINE
8
BLACK
6
CONTINUOUS
10
0.774923
20
0.362334
11
0.774099
21
0.36281
0
LINE
8
BLACK
6
CONTINUOUS
10
0.774099
20
0.36281
11
0.771287
21
0.365622
0
LINE
8
BLACK
6
CONTINUOUS
10
0.771287
20
0.365622
11
0.770812
21
0.366445
0
LINE
8
BLACK
6
CONTINUOUS
10
0.770812
20
0.366445
11
0.770181
21
0.367157
0
LINE
8
BLACK
6
CONTINUOUS
10
0.770181
20
0.367157
11
0.767369
21
0.372781
0
LINE
8
BLACK
6
CONTINUOUS
10
0.767369
20
0.372781
11
0.767096
21
0.374111
0
LINE
8
BLACK
6
CONTINUOUS
10
0.767096
20
0.374111
11
0.766745
21
0.375422
0
LINE
8
BLACK
6
CONTINUOUS
10
0.766745
20
0.375422
11
0.766745
21
0.381046
0
LINE
8
BLACK
6
CONTINUOUS
10
0.766745
20
0.381046
11
0.767096
21
0.382357
0
LINE
8
BLACK
6
CONTINUOUS
10
0.767096
20
0.382357
11
0.767369
21
0.383687
0
LINE
8
BLACK
6
CONTINUOUS
10
0.767369
20
0.383687
11
0.770181
21
0.389311
0
LINE
8
BLACK
6
CONTINUOUS
10
0.770181
20
0.389311
11
0.770812
21
0.390023
0
LINE
8
BLACK
6
CONTINUOUS
10
0.770812
20
0.390023
11
0.771287
21
0.390846
0
LINE
8
BLACK
6
CONTINUOUS
10
0.771287
20
0.390846
11
0.774099
21
0.393658
0
LINE
8
BLACK
6
CONTINUOUS
10
0.774099
20
0.393658
11
0.774923
21
0.394134
0
LINE
8
BLACK
6
CONTINUOUS
10
0.774923
20
0.394134
11
0.775634
21
0.394765
0
LINE
8
BLACK
6
CONTINUOUS
10
0.775634
20
0.394765
11
0.781258
21
0.397577
0
LINE
8
BLACK
6
CONTINUOUS
10
0.781258
20
0.397577
11
0.781897
21
0.397708
0
LINE
8
BLACK
6
CONTINUOUS
10
0.781897
20
0.397708
11
0.782467
21
0.398024
0
LINE
8
BLACK
6
CONTINUOUS
10
0.782467
20
0.398024
11
0.793716
21
0.400836
0
LINE
8
BLACK
6
CONTINUOUS
10
0.793716
20
0.400836
11
0.794444
21
0.400824
0
LINE
8
BLACK
6
CONTINUOUS
10
0.794444
20
0.400824
11
0.795148
21
0.401012
0
LINE
8
BLACK
6
CONTINUOUS
10
0.795148
20
0.401012
11
0.809209
21
0.401012
0
LINE
8
BLACK
6
CONTINUOUS
10
0.809209
20
0.401012
11
0.809912
21
0.400824
0
LINE
8
BLACK
6
CONTINUOUS
10
0.785961
20
0.386723
11
0.781773
21
0.384629
0
LINE
8
BLACK
6
CONTINUOUS
10
0.781773
20
0.384629
11
0.780316
21
0.383172
0
LINE
8
BLACK
6
CONTINUOUS
10
0.780316
20
0.383172
11
0.778556
21
0.379652
0
LINE
8
BLACK
6
CONTINUOUS
10
0.778556
20
0.379652
11
0.778556
21
0.376816
0
LINE
8
BLACK
6
CONTINUOUS
10
0.778556
20
0.376816
11
0.780316
21
0.373296
0
LINE
8
BLACK
6
CONTINUOUS
10
0.780316
20
0.373296
11
0.781773
21
0.371839
0
LINE
8
BLACK
6
CONTINUOUS
10
0.781773
20
0.371839
11
0.785961
21
0.369745
0
LINE
8
BLACK
6
CONTINUOUS
10
0.785961
20
0.369745
11
0.795875
21
0.367267
0
LINE
8
BLACK
6
CONTINUOUS
10
0.795875
20
0.367267
11
0.808482
21
0.367267
0
LINE
8
BLACK
6
CONTINUOUS
10
0.808482
20
0.367267
11
0.818396
21
0.369745
0
LINE
8
BLACK
6
CONTINUOUS
10
0.818396
20
0.369745
11
0.822583
21
0.371839
0
LINE
8
BLACK
6
CONTINUOUS
10
0.822583
20
0.371839
11
0.82404
21
0.373296
0
LINE
8
BLACK
6
CONTINUOUS
10
0.82404
20
0.373296
11
0.8258
21
0.376816
0
LINE
8
BLACK
6
CONTINUOUS
10
0.8258
20
0.376816
11
0.8258
21
0.379652
0
LINE
8
BLACK
6
CONTINUOUS
10
0.8258
20
0.379652
11
0.82404
21
0.383172
0
LINE
8
BLACK
6
CONTINUOUS
10
0.82404
20
0.383172
11
0.822583
21
0.384629
0
LINE
8
BLACK
6
CONTINUOUS
10
0.822583
20
0.384629
11
0.818396
21
0.386723
0
LINE
8
BLACK
6
CONTINUOUS
10
0.818396
20
0.386723
11
0.808482
21
0.389201
0
LINE
8
BLACK
6
CONTINUOUS
10
0.808482
20
0.389201
11
0.795875
21
0.389201
0
LINE
8
BLACK
6
CONTINUOUS
10
0.795875
20
0.389201
11
0.785961
21
0.386723
0
LINE
8
BLACK
6
CONTINUOUS
10
0.295639
20
0.442904
11
0.296969
21
0.442631
0
LINE
8
BLACK
6
CONTINUOUS
10
0.296969
20
0.442631
11
0.302594
21
0.439819
0
LINE
8
BLACK
6
CONTINUOUS
10
0.302594
20
0.439819
11
0.303305
21
0.439188
0
LINE
8
BLACK
6
CONTINUOUS
10
0.303305
20
0.439188
11
0.304128
21
0.438713
0
LINE
8
BLACK
6
CONTINUOUS
10
0.304128
20
0.438713
11
0.306941
21
0.435901
0
LINE
8
BLACK
6
CONTINUOUS
10
0.306941
20
0.435901
11
0.307416
21
0.435077
0
LINE
8
BLACK
6
CONTINUOUS
10
0.307416
20
0.435077
11
0.308047
21
0.434366
0
LINE
8
BLACK
6
CONTINUOUS
10
0.308047
20
0.434366
11
0.310859
21
0.428742
0
LINE
8
BLACK
6
CONTINUOUS
10
0.310859
20
0.428742
11
0.311131
21
0.427412
0
LINE
8
BLACK
6
CONTINUOUS
10
0.311131
20
0.427412
11
0.311482
21
0.426101
0
LINE
8
BLACK
6
CONTINUOUS
10
0.311482
20
0.426101
11
0.311482
21
0.417664
0
LINE
8
BLACK
6
CONTINUOUS
10
0.311482
20
0.417664
11
0.311131
21
0.416353
0
LINE
8
BLACK
6
CONTINUOUS
10
0.311131
20
0.416353
11
0.310859
21
0.415023
0
LINE
8
BLACK
6
CONTINUOUS
10
0.310859
20
0.415023
11
0.308047
21
0.409399
0
LINE
8
BLACK
6
CONTINUOUS
10
0.308047
20
0.409399
11
0.307416
21
0.408688
0
LINE
8
BLACK
6
CONTINUOUS
10
0.307416
20
0.408688
11
0.306941
21
0.407864
0
LINE
8
BLACK
6
CONTINUOUS
10
0.306941
20
0.407864
11
0.304128
21
0.405052
0
LINE
8
BLACK
6
CONTINUOUS
10
0.304128
20
0.405052
11
0.303305
21
0.404577
0
LINE
8
BLACK
6
CONTINUOUS
10
0.303305
20
0.404577
11
0.302594
21
0.403946
0
LINE
8
BLACK
6
CONTINUOUS
10
0.302594
20
0.403946
11
0.296969
21
0.401134
0
LINE
8
BLACK
6
CONTINUOUS
10
0.296969
20
0.401134
11
0.295639
21
0.400861
0
LINE
8
BLACK
6
CONTINUOUS
10
0.295639
20
0.400861
11
0.294328
21
0.40051
0
LINE
8
BLACK
6
CONTINUOUS
10
0.294328
20
0.40051
11
0.277737
21
0.40051
0
LINE
8
BLACK
6
CONTINUOUS
10
0.277737
20
0.40051
11
0.277737
21
0.378294
0
LINE
8
BLACK
6
CONTINUOUS
10
0.277737
20
0.378294
11
0.276945
21
0.375341
0
LINE
8
BLACK
6
CONTINUOUS
10
0.276945
20
0.375341
11
0.274784
21
0.37318
0
LINE
8
BLACK
6
CONTINUOUS
10
0.274784
20
0.37318
11
0.271831
21
0.372389
0
LINE
8
BLACK
6
CONTINUOUS
10
0.271831
20
0.372389
11
0.268878
21
0.37318
0
LINE
8
BLACK
6
CONTINUOUS
10
0.268878
20
0.37318
11
0.266717
21
0.375341
0
LINE
8
BLACK
6
CONTINUOUS
10
0.266717
20
0.375341
11
0.265926
21
0.378294
0
LINE
8
BLACK
6
CONTINUOUS
10
0.265926
20
0.378294
11
0.265926
21
0.437349
0
LINE
8
BLACK
6
CONTINUOUS
10
0.265926
20
0.437349
11
0.266717
21
0.440302
0
LINE
8
BLACK
6
CONTINUOUS
10
0.266717
20
0.440302
11
0.268878
21
0.442464
0
LINE
8
BLACK
6
CONTINUOUS
10
0.268878
20
0.442464
11
0.271831
21
0.443255
0
LINE
8
BLACK
6
CONTINUOUS
10
0.271831
20
0.443255
11
0.294328
21
0.443255
0
LINE
8
BLACK
6
CONTINUOUS
10
0.294328
20
0.443255
11
0.295639
21
0.442904
0
LINE
8
BLACK
6
CONTINUOUS
10
0.277737
20
0.412321
11
0.292934
21
0.412321
0
LINE
8
BLACK
6
CONTINUOUS
10
0.292934
20
0.412321
11
0.296454
21
0.414081
0
LINE
8
BLACK
6
CONTINUOUS
10
0.296454
20
0.414081
11
0.297911
21
0.415538
0
LINE
8
BLACK
6
CONTINUOUS
10
0.297911
20
0.415538
11
0.299671
21
0.419058
0
LINE
8
BLACK
6
CONTINUOUS
10
0.299671
20
0.419058
11
0.299671
21
0.424707
0
LINE
8
BLACK
6
CONTINUOUS
10
0.299671
20
0.424707
11
0.297911
21
0.428227
0
LINE
8
BLACK
6
CONTINUOUS
10
0.297911
20
0.428227
11
0.296454
21
0.429684
0
LINE
8
BLACK
6
CONTINUOUS
10
0.296454
20
0.429684
11
0.292934
21
0.431444
0
LINE
8
BLACK
6
CONTINUOUS
10
0.292934
20
0.431444
11
0.277737
21
0.431444
0
LINE
8
BLACK
6
CONTINUOUS
10
0.277737
20
0.431444
11
0.277737
21
0.412321
0
LINE
8
BLACK
6
CONTINUOUS
10
0.422186
20
0.442904
11
0.423516
21
0.442631
0
LINE
8
BLACK
6
CONTINUOUS
10
0.423516
20
0.442631
11
0.42914
21
0.439819
0
LINE
8
BLACK
6
CONTINUOUS
10
0.42914
20
0.439819
11
0.429852
21
0.439188
0
LINE
8
BLACK
6
CONTINUOUS
10
0.429852
20
0.439188
11
0.430675
21
0.438713
0
LINE
8
BLACK
6
CONTINUOUS
10
0.430675
20
0.438713
11
0.433487
21
0.435901
0
LINE
8
BLACK
6
CONTINUOUS
10
0.433487
20
0.435901
11
0.433963
21
0.435077
0
LINE
8
BLACK
6
CONTINUOUS
10
0.433963
20
0.435077
11
0.434594
21
0.434366
0
LINE
8
BLACK
6
CONTINUOUS
10
0.434594
20
0.434366
11
0.437406
21
0.428742
0
LINE
8
BLACK
6
CONTINUOUS
10
0.437406
20
0.428742
11
0.437678
21
0.427412
0
LINE
8
BLACK
6
CONTINUOUS
10
0.437678
20
0.427412
11
0.438029
21
0.426101
0
LINE
8
BLACK
6
CONTINUOUS
10
0.438029
20
0.426101
11
0.438029
21
0.417664
0
LINE
8
BLACK
6
CONTINUOUS
10
0.438029
20
0.417664
11
0.437678
21
0.416353
0
LINE
8
BLACK
6
CONTINUOUS
10
0.437678
20
0.416353
11
0.437406
21
0.415023
0
LINE
8
BLACK
6
CONTINUOUS
10
0.437406
20
0.415023
11
0.434594
21
0.409399
0
LINE
8
BLACK
6
CONTINUOUS
10
0.434594
20
0.409399
11
0.433963
21
0.408688
0
LINE
8
BLACK
6
CONTINUOUS
10
0.433963
20
0.408688
11
0.433487
21
0.407864
0
LINE
8
BLACK
6
CONTINUOUS
10
0.433487
20
0.407864
11
0.430675
21
0.405052
0
LINE
8
BLACK
6
CONTINUOUS
10
0.430675
20
0.405052
11
0.429852
21
0.404577
0
LINE
8
BLACK
6
CONTINUOUS
10
0.429852
20
0.404577
11
0.42914
21
0.403946
0
LINE
8
BLACK
6
CONTINUOUS
10
0.42914
20
0.403946
11
0.423516
21
0.401134
0
LINE
8
BLACK
6
CONTINUOUS
10
0.423516
20
0.401134
11
0.423366
21
0.401103
0
LINE
8
BLACK
6
CONTINUOUS
10
0.423366
20
0.401103
11
0.436962
21
0.381681
0
LINE
8
BLACK
6
CONTINUOUS
10
0.436962
20
0.381681
11
0.438007
21
0.378808
0
LINE
8
BLACK
6
CONTINUOUS
10
0.438007
20
0.378808
11
0.437475
21
0.375798
0
LINE
8
BLACK
6
CONTINUOUS
10
0.437475
20
0.375798
11
0.43551
21
0.373456
0
LINE
8
BLACK
6
CONTINUOUS
10
0.43551
20
0.373456
11
0.432637
21
0.372411
0
LINE
8
BLACK
6
CONTINUOUS
10
0.432637
20
0.372411
11
0.429627
21
0.372942
0
LINE
8
BLACK
6
CONTINUOUS
10
0.429627
20
0.372942
11
0.427286
21
0.374908
0
LINE
8
BLACK
6
CONTINUOUS
10
0.427286
20
0.374908
11
0.409364
21
0.40051
0
LINE
8
BLACK
6
CONTINUOUS
10
0.409364
20
0.40051
11
0.404283
21
0.40051
0
LINE
8
BLACK
6
CONTINUOUS
10
0.404283
20
0.40051
11
0.404283
21
0.378294
0
LINE
8
BLACK
6
CONTINUOUS
10
0.404283
20
0.378294
11
0.403492
21
0.375341
0
LINE
8
BLACK
6
CONTINUOUS
10
0.403492
20
0.375341
11
0.401331
21
0.37318
0
LINE
8
BLACK
6
CONTINUOUS
10
0.401331
20
0.37318
11
0.398378
21
0.372389
0
LINE
8
BLACK
6
CONTINUOUS
10
0.398378
20
0.372389
11
0.395425
21
0.37318
0
LINE
8
BLACK
6
CONTINUOUS
10
0.395425
20
0.37318
11
0.393263
21
0.375341
0
LINE
8
BLACK
6
CONTINUOUS
10
0.393263
20
0.375341
11
0.392472
21
0.378294
0
LINE
8
BLACK
6
CONTINUOUS
10
0.392472
20
0.378294
11
0.392472
21
0.437349
0
LINE
8
BLACK
6
CONTINUOUS
10
0.392472
20
0.437349
11
0.393263
21
0.440302
0
LINE
8
BLACK
6
CONTINUOUS
10
0.393263
20
0.440302
11
0.395425
21
0.442464
0
LINE
8
BLACK
6
CONTINUOUS
10
0.395425
20
0.442464
11
0.398378
21
0.443255
0
LINE
8
BLACK
6
CONTINUOUS
10
0.398378
20
0.443255
11
0.420875
21
0.443255
0
LINE
8
BLACK
6
CONTINUOUS
10
0.420875
20
0.443255
11
0.422186
21
0.442904
0
LINE
8
BLACK
6
CONTINUOUS
10
0.404283
20
0.412321
11
0.419481
21
0.412321
0
LINE
8
BLACK
6
CONTINUOUS
10
0.419481
20
0.412321
11
0.423001
21
0.414081
0
LINE
8
BLACK
6
CONTINUOUS
10
0.423001
20
0.414081
11
0.424458
21
0.415538
0
LINE
8
BLACK
6
CONTINUOUS
10
0.424458
20
0.415538
11
0.426218
21
0.419058
0
LINE
8
BLACK
6
CONTINUOUS
10
0.426218
20
0.419058
11
0.426218
21
0.424707
0
LINE
8
BLACK
6
CONTINUOUS
10
0.426218
20
0.424707
11
0.424458
21
0.428227
0
LINE
8
BLACK
6
CONTINUOUS
10
0.424458
20
0.428227
11
0.423001
21
0.429684
0
LINE
8
BLACK
6
CONTINUOUS
10
0.423001
20
0.429684
11
0.419481
21
0.431444
0
LINE
8
BLACK
6
CONTINUOUS
10
0.419481
20
0.431444
11
0.404283
21
0.431444
0
LINE
8
BLACK
6
CONTINUOUS
10
0.404283
20
0.431444
11
0.404283
21
0.412321
0
LINE
8
BLACK
6
CONTINUOUS
10
0.379938
20
0.441641
11
0.38154
21
0.439037
0
LINE
8
BLACK
6
CONTINUOUS
10
0.38154
20
0.439037
11
0.381626
21
0.435981
0
LINE
8
BLACK
6
CONTINUOUS
10
0.381626
20
0.435981
11
0.367565
21
0.376926
0
LINE
8
BLACK
6
CONTINUOUS
10
0.367565
20
0.376926
11
0.367522
21
0.376848
0
LINE
8
BLACK
6
CONTINUOUS
10
0.367522
20
0.376848
11
0.367522
21
0.376759
0
LINE
8
BLACK
6
CONTINUOUS
10
0.367522
20
0.376759
11
0.366799
21
0.375509
0
LINE
8
BLACK
6
CONTINUOUS
10
0.366799
20
0.375509
11
0.366111
21
0.374237
0
LINE
8
BLACK
6
CONTINUOUS
10
0.366111
20
0.374237
11
0.366035
21
0.37419
0
LINE
8
BLACK
6
CONTINUOUS
10
0.366035
20
0.37419
11
0.365991
21
0.374113
0
LINE
8
BLACK
6
CONTINUOUS
10
0.365991
20
0.374113
11
0.364739
21
0.373393
0
LINE
8
BLACK
6
CONTINUOUS
10
0.364739
20
0.373393
11
0.363508
21
0.372635
0
LINE
8
BLACK
6
CONTINUOUS
10
0.363508
20
0.372635
11
0.363419
21
0.372633
0
LINE
8
BLACK
6
CONTINUOUS
10
0.363419
20
0.372633
11
0.363341
21
0.372588
0
LINE
8
BLACK
6
CONTINUOUS
10
0.363341
20
0.372588
11
0.361897
21
0.37259
0
LINE
8
BLACK
6
CONTINUOUS
10
0.361897
20
0.37259
11
0.360452
21
0.372549
0
LINE
8
BLACK
6
CONTINUOUS
10
0.360452
20
0.372549
11
0.360374
21
0.372592
0
LINE
8
BLACK
6
CONTINUOUS
10
0.360374
20
0.372592
11
0.360285
21
0.372592
0
LINE
8
BLACK
6
CONTINUOUS
10
0.360285
20
0.372592
11
0.359034
21
0.373316
0
LINE
8
BLACK
6
CONTINUOUS
10
0.359034
20
0.373316
11
0.357763
21
0.374003
0
LINE
8
BLACK
6
CONTINUOUS
10
0.357763
20
0.374003
11
0.357716
21
0.374079
0
LINE
8
BLACK
6
CONTINUOUS
10
0.357716
20
0.374079
11
0.357639
21
0.374123
0
LINE
8
BLACK
6
CONTINUOUS
10
0.357639
20
0.374123
11
0.356918
21
0.375375
0
LINE
8
BLACK
6
CONTINUOUS
10
0.356918
20
0.375375
11
0.356161
21
0.376606
0
LINE
8
BLACK
6
CONTINUOUS
10
0.356161
20
0.376606
11
0.356158
21
0.376695
0
LINE
8
BLACK
6
CONTINUOUS
10
0.356158
20
0.376695
11
0.356114
21
0.376773
0
LINE
8
BLACK
6
CONTINUOUS
10
0.356114
20
0.376773
11
0.350571
21
0.397557
0
LINE
8
BLACK
6
CONTINUOUS
10
0.350571
20
0.397557
11
0.345029
21
0.376773
0
LINE
8
BLACK
6
CONTINUOUS
10
0.345029
20
0.376773
11
0.344984
21
0.376695
0
LINE
8
BLACK
6
CONTINUOUS
10
0.344984
20
0.376695
11
0.344982
21
0.376606
0
LINE
8
BLACK
6
CONTINUOUS
10
0.344982
20
0.376606
11
0.344224
21
0.375375
0
LINE
8
BLACK
6
CONTINUOUS
10
0.344224
20
0.375375
11
0.343504
21
0.374123
0
LINE
8
BLACK
6
CONTINUOUS
10
0.343504
20
0.374123
11
0.343426
21
0.374079
0
LINE
8
BLACK
6
CONTINUOUS
10
0.343426
20
0.374079
11
0.34338
21
0.374003
0
LINE
8
BLACK
6
CONTINUOUS
10
0.34338
20
0.374003
11
0.342108
21
0.373316
0
LINE
8
BLACK
6
CONTINUOUS
10
0.342108
20
0.373316
11
0.340858
21
0.372592
0
LINE
8
BLACK
6
CONTINUOUS
10
0.340858
20
0.372592
11
0.340769
21
0.372592
0
LINE
8
BLACK
6
CONTINUOUS
10
0.340769
20
0.372592
11
0.340691
21
0.372549
0
LINE
8
BLACK
6
CONTINUOUS
10
0.340691
20
0.372549
11
0.339245
21
0.37259
0
LINE
8
BLACK
6
CONTINUOUS
10
0.339245
20
0.37259
11
0.337801
21
0.372588
0
LINE
8
BLACK
6
CONTINUOUS
10
0.337801
20
0.372588
11
0.337724
21
0.372633
0
LINE
8
BLACK
6
CONTINUOUS
10
0.337724
20
0.372633
11
0.337635
21
0.372635
0
LINE
8
BLACK
6
CONTINUOUS
10
0.337635
20
0.372635
11
0.336404
21
0.373393
0
LINE
8
BLACK
6
CONTINUOUS
10
0.336404
20
0.373393
11
0.335152
21
0.374113
0
LINE
8
BLACK
6
CONTINUOUS
10
0.335152
20
0.374113
11
0.335107
21
0.37419
0
LINE
8
BLACK
6
CONTINUOUS
10
0.335107
20
0.37419
11
0.335031
21
0.374237
0
LINE
8
BLACK
6
CONTINUOUS
10
0.335031
20
0.374237
11
0.334344
21
0.375509
0
LINE
8
BLACK
6
CONTINUOUS
10
0.334344
20
0.375509
11
0.33362
21
0.376759
0
LINE
8
BLACK
6
CONTINUOUS
10
0.33362
20
0.376759
11
0.33362
21
0.376848
0
LINE
8
BLACK
6
CONTINUOUS
10
0.33362
20
0.376848
11
0.333578
21
0.376926
0
LINE
8
BLACK
6
CONTINUOUS
10
0.333578
20
0.376926
11
0.319517
21
0.435981
0
LINE
8
BLACK
6
CONTINUOUS
10
0.319517
20
0.435981
11
0.319603
21
0.439037
0
LINE
8
BLACK
6
CONTINUOUS
10
0.319603
20
0.439037
11
0.321205
21
0.441641
0
LINE
8
BLACK
6
CONTINUOUS
10
0.321205
20
0.441641
11
0.323894
21
0.443094
0
LINE
8
BLACK
6
CONTINUOUS
10
0.323894
20
0.443094
11
0.32695
21
0.443008
0
LINE
8
BLACK
6
CONTINUOUS
10
0.32695
20
0.443008
11
0.329553
21
0.441406
0
LINE
8
BLACK
6
CONTINUOUS
10
0.329553
20
0.441406
11
0.331007
21
0.438717
0
LINE
8
BLACK
6
CONTINUOUS
10
0.331007
20
0.438717
11
0.339647
21
0.402429
0
LINE
8
BLACK
6
CONTINUOUS
10
0.339647
20
0.402429
11
0.344865
21
0.421998
0
LINE
8
BLACK
6
CONTINUOUS
10
0.344865
20
0.421998
11
0.344869
21
0.422004
0
LINE
8
BLACK
6
CONTINUOUS
10
0.344869
20
0.422004
11
0.344869
21
0.422012
0
LINE
8
BLACK
6
CONTINUOUS
10
0.344869
20
0.422012
11
0.345635
21
0.423335
0
LINE
8
BLACK
6
CONTINUOUS
10
0.345635
20
0.423335
11
0.34639
21
0.424647
0
LINE
8
BLACK
6
CONTINUOUS
10
0.34639
20
0.424647
11
0.346397
21
0.424651
0
LINE
8
BLACK
6
CONTINUOUS
10
0.346397
20
0.424651
11
0.3464
21
0.424657
0
LINE
8
BLACK
6
CONTINUOUS
10
0.3464
20
0.424657
11
0.347723
21
0.425419
0
LINE
8
BLACK
6
CONTINUOUS
10
0.347723
20
0.425419
11
0.349036
21
0.426179
0
LINE
8
BLACK
6
CONTINUOUS
10
0.349036
20
0.426179
11
0.349043
21
0.426179
0
LINE
8
BLACK
6
CONTINUOUS
10
0.349043
20
0.426179
11
0.34905
21
0.426182
0
LINE
8
BLACK
6
CONTINUOUS
10
0.34905
20
0.426182
11
0.350579
21
0.426181
0
LINE
8
BLACK
6
CONTINUOUS
10
0.350579
20
0.426181
11
0.352093
21
0.426182
0
LINE
8
BLACK
6
CONTINUOUS
10
0.352093
20
0.426182
11
0.352099
21
0.426179
0
LINE
8
BLACK
6
CONTINUOUS
10
0.352099
20
0.426179
11
0.352107
21
0.426179
0
LINE
8
BLACK
6
CONTINUOUS
10
0.352107
20
0.426179
11
0.353429
21
0.425413
0
LINE
8
BLACK
6
CONTINUOUS
10
0.353429
20
0.425413
11
0.354742
21
0.424657
0
LINE
8
BLACK
6
CONTINUOUS
10
0.354742
20
0.424657
11
0.354746
21
0.424651
0
LINE
8
BLACK
6
CONTINUOUS
10
0.354746
20
0.424651
11
0.354752
21
0.424647
0
LINE
8
BLACK
6
CONTINUOUS
10
0.354752
20
0.424647
11
0.355513
21
0.423325
0
LINE
8
BLACK
6
CONTINUOUS
10
0.355513
20
0.423325
11
0.356274
21
0.422012
0
LINE
8
BLACK
6
CONTINUOUS
10
0.356274
20
0.422012
11
0.356274
21
0.422004
0
LINE
8
BLACK
6
CONTINUOUS
10
0.356274
20
0.422004
11
0.356277
21
0.421998
0
LINE
8
BLACK
6
CONTINUOUS
10
0.356277
20
0.421998
11
0.361496
21
0.402429
0
LINE
8
BLACK
6
CONTINUOUS
10
0.361496
20
0.402429
11
0.370136
21
0.438717
0
LINE
8
BLACK
6
CONTINUOUS
10
0.370136
20
0.438717
11
0.371589
21
0.441406
0
LINE
8
BLACK
6
CONTINUOUS
10
0.371589
20
0.441406
11
0.374193
21
0.443008
0
LINE
8
BLACK
6
CONTINUOUS
10
0.374193
20
0.443008
11
0.377248
21
0.443094
0
LINE
8
BLACK
6
CONTINUOUS
10
0.377248
20
0.443094
11
0.379938
21
0.441641
0
LINE
8
BLACK
6
CONTINUOUS
10
1.09037
20
0.416531
11
1.09046
21
0.415623
0
LINE
8
BLACK
6
CONTINUOUS
10
1.09046
20
0.415623
11
1.09052
21
0.414225
0
LINE
8
BLACK
6
CONTINUOUS
10
1.09052
20
0.414225
11
1.09056
21
0.412452
0
LINE
8
BLACK
6
CONTINUOUS
10
1.09056
20
0.412452
11
1.09057
21
0.410987
0
LINE
8
BLACK
6
CONTINUOUS
10
1.09057
20
0.410987
11
1.09057
21
0.405022
0
LINE
8
BLACK
6
CONTINUOUS
10
1.09057
20
0.405022
11
1.08017
21
0.399634
0
LINE
8
BLACK
6
CONTINUOUS
10
1.08017
20
0.399634
11
1.06978
21
0.394247
0
LINE
8
BLACK
6
CONTINUOUS
10
1.06978
20
0.394247
11
1.06958
21
0.38363
0
LINE
8
BLACK
6
CONTINUOUS
10
1.06958
20
0.38363
11
1.09057
21
0.38363
0
LINE
8
BLACK
6
CONTINUOUS
10
1.09057
20
0.38363
11
1.09057
21
0.37278
0
LINE
8
BLACK
6
CONTINUOUS
10
1.09057
20
0.37278
11
1.06192
21
0.372872
0
LINE
8
BLACK
6
CONTINUOUS
10
1.06192
20
0.372872
11
1.06065
21
0.372876
0
LINE
8
BLACK
6
CONTINUOUS
10
1.06065
20
0.372876
11
1.03327
21
0.372965
0
LINE
8
BLACK
6
CONTINUOUS
10
1.03327
20
0.372965
11
1.03329
21
0.385618
0
LINE
8
BLACK
6
CONTINUOUS
10
1.03329
20
0.385618
11
1.03331
21
0.389406
0
LINE
8
BLACK
6
CONTINUOUS
10
1.03331
20
0.389406
11
1.03335
21
0.392557
0
LINE
8
BLACK
6
CONTINUOUS
10
1.03335
20
0.392557
11
1.03341
21
0.395156
0
LINE
8
BLACK
6
CONTINUOUS
10
1.03341
20
0.395156
11
1.03351
21
0.39729
0
LINE
8
BLACK
6
CONTINUOUS
10
1.03351
20
0.39729
11
1.03367
21
0.399044
0
LINE
8
BLACK
6
CONTINUOUS
10
1.03367
20
0.399044
11
1.03388
21
0.400503
0
LINE
8
BLACK
6
CONTINUOUS
10
1.03388
20
0.400503
11
1.03416
21
0.401755
0
LINE
8
BLACK
6
CONTINUOUS
10
1.03416
20
0.401755
11
1.03452
21
0.402884
0
LINE
8
BLACK
6
CONTINUOUS
10
1.03452
20
0.402884
11
1.03497
21
0.403976
0
LINE
8
BLACK
6
CONTINUOUS
10
1.03497
20
0.403976
11
1.03552
21
0.405117
0
LINE
8
BLACK
6
CONTINUOUS
10
1.03552
20
0.405117
11
1.03557
21
0.405231
0
LINE
8
BLACK
6
CONTINUOUS
10
1.03557
20
0.405231
11
1.03738
21
0.408094
0
LINE
8
BLACK
6
CONTINUOUS
10
1.03738
20
0.408094
11
1.03963
21
0.410378
0
LINE
8
BLACK
6
CONTINUOUS
10
1.03963
20
0.410378
11
1.0423
21
0.412081
0
LINE
8
BLACK
6
CONTINUOUS
10
1.0423
20
0.412081
11
1.04514
21
0.413133
0
LINE
8
BLACK
6
CONTINUOUS
10
1.04514
20
0.413133
11
1.04703
21
0.41347
0
LINE
8
BLACK
6
CONTINUOUS
10
1.04703
20
0.41347
11
1.04932
21
0.413632
0
LINE
8
BLACK
6
CONTINUOUS
10
1.04932
20
0.413632
11
1.05177
21
0.413626
0
LINE
8
BLACK
6
CONTINUOUS
10
1.05177
20
0.413626
11
1.05413
21
0.413455
0
LINE
8
BLACK
6
CONTINUOUS
10
1.05413
20
0.413455
11
1.05617
21
0.413125
0
LINE
8
BLACK
6
CONTINUOUS
10
1.05617
20
0.413125
11
1.05702
21
0.41289
0
LINE
8
BLACK
6
CONTINUOUS
10
1.05702
20
0.41289
11
1.06005
21
0.411497
0
LINE
8
BLACK
6
CONTINUOUS
10
1.06005
20
0.411497
11
1.06269
21
0.409504
0
LINE
8
BLACK
6
CONTINUOUS
10
1.06269
20
0.409504
11
1.06491
21
0.406928
0
LINE
8
BLACK
6
CONTINUOUS
10
1.06491
20
0.406928
11
1.0656
21
0.405864
0
LINE
8
BLACK
6
CONTINUOUS
10
1.0656
20
0.405864
11
1.06614
21
0.404981
0
LINE
8
BLACK
6
CONTINUOUS
10
1.06614
20
0.404981
11
1.0665
21
0.404398
0
LINE
8
BLACK
6
CONTINUOUS
10
1.0665
20
0.404398
11
1.06657
21
0.404288
0
LINE
8
BLACK
6
CONTINUOUS
10
1.06657
20
0.404288
11
1.0669
21
0.404423
0
LINE
8
BLACK
6
CONTINUOUS
10
1.0669
20
0.404423
11
1.06779
21
0.404866
0
LINE
8
BLACK
6
CONTINUOUS
10
1.06779
20
0.404866
11
1.06918
21
0.405579
0
LINE
8
BLACK
6
CONTINUOUS
10
1.06918
20
0.405579
11
1.07099
21
0.406526
0
LINE
8
BLACK
6
CONTINUOUS
10
1.07099
20
0.406526
11
1.07315
21
0.407668
0
LINE
8
BLACK
6
CONTINUOUS
10
1.07315
20
0.407668
11
1.07559
21
0.408969
0
LINE
8
BLACK
6
CONTINUOUS
10
1.07559
20
0.408969
11
1.07824
21
0.410391
0
LINE
8
BLACK
6
CONTINUOUS
10
1.07824
20
0.410391
11
1.07832
21
0.410434
0
LINE
8
BLACK
6
CONTINUOUS
10
1.07832
20
0.410434
11
1.08099
21
0.411869
0
LINE
8
BLACK
6
CONTINUOUS
10
1.08099
20
0.411869
11
1.08346
21
0.413196
0
LINE
8
BLACK
6
CONTINUOUS
10
1.08346
20
0.413196
11
1.08565
21
0.414374
0
LINE
8
BLACK
6
CONTINUOUS
10
1.08565
20
0.414374
11
1.08751
21
0.415366
0
LINE
8
BLACK
6
CONTINUOUS
10
1.08751
20
0.415366
11
1.08894
21
0.416132
0
LINE
8
BLACK
6
CONTINUOUS
10
1.08894
20
0.416132
11
1.08989
21
0.416633
0
LINE
8
BLACK
6
CONTINUOUS
10
1.08989
20
0.416633
11
1.09027
21
0.41683
0
LINE
8
BLACK
6
CONTINUOUS
10
1.09027
20
0.41683
11
1.09027
21
0.416831
0
LINE
8
BLACK
6
CONTINUOUS
10
1.09027
20
0.416831
11
1.09037
21
0.416531
0
LINE
8
BLACK
6
CONTINUOUS
10
1.04869
20
0.40229
11
1.04644
21
0.401466
0
LINE
8
BLACK
6
CONTINUOUS
10
1.04644
20
0.401466
11
1.04466
21
0.400099
0
LINE
8
BLACK
6
CONTINUOUS
10
1.04466
20
0.400099
11
1.04335
21
0.398198
0
LINE
8
BLACK
6
CONTINUOUS
10
1.04335
20
0.398198
11
1.043
21
0.397363
0
LINE
8
BLACK
6
CONTINUOUS
10
1.043
20
0.397363
11
1.04273
21
0.39638
0
LINE
8
BLACK
6
CONTINUOUS
10
1.04273
20
0.39638
11
1.04252
21
0.394993
0
LINE
8
BLACK
6
CONTINUOUS
10
1.04252
20
0.394993
11
1.04236
21
0.393108
0
LINE
8
BLACK
6
CONTINUOUS
10
1.04236
20
0.393108
11
1.04224
21
0.390627
0
LINE
8
BLACK
6
CONTINUOUS
10
1.04224
20
0.390627
11
1.04221
21
0.389686
0
LINE
8
BLACK
6
CONTINUOUS
10
1.04221
20
0.389686
11
1.04203
21
0.38363
0
LINE
8
BLACK
6
CONTINUOUS
10
1.04203
20
0.38363
11
1.06065
21
0.38363
0
LINE
8
BLACK
6
CONTINUOUS
10
1.06065
20
0.38363
11
1.06047
21
0.389505
0
LINE
8
BLACK
6
CONTINUOUS
10
1.06047
20
0.389505
11
1.06037
21
0.392166
0
LINE
8
BLACK
6
CONTINUOUS
10
1.06037
20
0.392166
11
1.06022
21
0.394203
0
LINE
8
BLACK
6
CONTINUOUS
10
1.06022
20
0.394203
11
1.06003
21
0.395711
0
LINE
8
BLACK
6
CONTINUOUS
10
1.06003
20
0.395711
11
1.05977
21
0.396787
0
LINE
8
BLACK
6
CONTINUOUS
10
1.05977
20
0.396787
11
1.0597
21
0.396982
0
LINE
8
BLACK
6
CONTINUOUS
10
1.0597
20
0.396982
11
1.05856
21
0.399232
0
LINE
8
BLACK
6
CONTINUOUS
10
1.05856
20
0.399232
11
1.05704
21
0.400884
0
LINE
8
BLACK
6
CONTINUOUS
10
1.05704
20
0.400884
11
1.0551
21
0.401963
0
LINE
8
BLACK
6
CONTINUOUS
10
1.0551
20
0.401963
11
1.0527
21
0.402493
0
LINE
8
BLACK
6
CONTINUOUS
10
1.0527
20
0.402493
11
1.05138
21
0.402559
0
LINE
8
BLACK
6
CONTINUOUS
10
1.05138
20
0.402559
11
1.04869
21
0.40229
0
LINE
8
BLACK
6
CONTINUOUS
10
0.185323
20
0.46437
11
0.186993
21
0.463678
0
LINE
8
BLACK
6
CONTINUOUS
10
0.186993
20
0.463678
11
0.187685
21
0.462008
0
LINE
8
BLACK
6
CONTINUOUS
10
0.187685
20
0.462008
11
0.187685
21
0.393504
0
LINE
8
BLACK
6
CONTINUOUS
10
0.187685
20
0.393504
11
0.224299
21
0.393504
0
LINE
8
BLACK
6
CONTINUOUS
10
0.224299
20
0.393504
11
0.22597
21
0.392812
0
LINE
8
BLACK
6
CONTINUOUS
10
0.22597
20
0.392812
11
0.226661
21
0.391142
0
LINE
8
BLACK
6
CONTINUOUS
10
0.226661
20
0.391142
11
0.22597
21
0.389471
0
LINE
8
BLACK
6
CONTINUOUS
10
0.22597
20
0.389471
11
0.224299
21
0.38878
0
LINE
8
BLACK
6
CONTINUOUS
10
0.224299
20
0.38878
11
0.185323
21
0.38878
0
LINE
8
BLACK
6
CONTINUOUS
10
0.185323
20
0.38878
11
0.183653
21
0.389471
0
LINE
8
BLACK
6
CONTINUOUS
10
0.183653
20
0.389471
11
0.182961
21
0.391142
0
LINE
8
BLACK
6
CONTINUOUS
10
0.182961
20
0.391142
11
0.182961
21
0.459646
0
LINE
8
BLACK
6
CONTINUOUS
10
0.182961
20
0.459646
11
0.128236
21
0.459646
0
LINE
8
BLACK
6
CONTINUOUS
10
0.128236
20
0.459646
11
0.126566
21
0.460338
0
LINE
8
BLACK
6
CONTINUOUS
10
0.126566
20
0.460338
11
0.125874
21
0.462008
0
LINE
8
BLACK
6
CONTINUOUS
10
0.125874
20
0.462008
11
0.126566
21
0.463678
0
LINE
8
BLACK
6
CONTINUOUS
10
0.126566
20
0.463678
11
0.128236
21
0.46437
0
LINE
8
BLACK
6
CONTINUOUS
10
0.128236
20
0.46437
11
0.185323
21
0.46437
0
LINE
8
BLACK
6
CONTINUOUS
10
1.1298
20
0.424619
11
1.13408
21
0.423867
0
LINE
8
BLACK
6
CONTINUOUS
10
1.13408
20
0.423867
11
1.13823
21
0.423137
0
LINE
8
BLACK
6
CONTINUOUS
10
1.13823
20
0.423137
11
1.14218
21
0.422443
0
LINE
8
BLACK
6
CONTINUOUS
10
1.14218
20
0.422443
11
1.14586
21
0.421795
0
LINE
8
BLACK
6
CONTINUOUS
10
1.14586
20
0.421795
11
1.14921
21
0.421205
0
LINE
8
BLACK
6
CONTINUOUS
10
1.14921
20
0.421205
11
1.15216
21
0.420686
0
LINE
8
BLACK
6
CONTINUOUS
10
1.15216
20
0.420686
11
1.15464
21
0.420249
0
LINE
8
BLACK
6
CONTINUOUS
10
1.15464
20
0.420249
11
1.15658
21
0.419905
0
LINE
8
BLACK
6
CONTINUOUS
10
1.15658
20
0.419905
11
1.15793
21
0.419667
0
LINE
8
BLACK
6
CONTINUOUS
10
1.15793
20
0.419667
11
1.15845
21
0.419575
0
LINE
8
BLACK
6
CONTINUOUS
10
1.15845
20
0.419575
11
1.16179
21
0.418975
0
LINE
8
BLACK
6
CONTINUOUS
10
1.16179
20
0.418975
11
1.16179
21
0.413775
0
LINE
8
BLACK
6
CONTINUOUS
10
1.16179
20
0.413775
11
1.16179
21
0.411743
0
LINE
8
BLACK
6
CONTINUOUS
10
1.16179
20
0.411743
11
1.16176
21
0.410324
0
LINE
8
BLACK
6
CONTINUOUS
10
1.16176
20
0.410324
11
1.1617
21
0.409408
0
LINE
8
BLACK
6
CONTINUOUS
10
1.1617
20
0.409408
11
1.16159
21
0.408885
0
LINE
8
BLACK
6
CONTINUOUS
10
1.16159
20
0.408885
11
1.16142
21
0.408645
0
LINE
8
BLACK
6
CONTINUOUS
10
1.16142
20
0.408645
11
1.16115
21
0.408578
0
LINE
8
BLACK
6
CONTINUOUS
10
1.16115
20
0.408578
11
1.16102
21
0.408576
0
LINE
8
BLACK
6
CONTINUOUS
10
1.16102
20
0.408576
11
1.16056
21
0.408636
0
LINE
8
BLACK
6
CONTINUOUS
10
1.16056
20
0.408636
11
1.15946
21
0.408811
0
LINE
8
BLACK
6
CONTINUOUS
10
1.15946
20
0.408811
11
1.15779
21
0.409087
0
LINE
8
BLACK
6
CONTINUOUS
10
1.15779
20
0.409087
11
1.15561
21
0.409454
0
LINE
8
BLACK
6
CONTINUOUS
10
1.15561
20
0.409454
11
1.15299
21
0.409901
0
LINE
8
BLACK
6
CONTINUOUS
10
1.15299
20
0.409901
11
1.15
21
0.410415
0
LINE
8
BLACK
6
CONTINUOUS
10
1.15
20
0.410415
11
1.14669
21
0.410985
0
LINE
8
BLACK
6
CONTINUOUS
10
1.14669
20
0.410985
11
1.14314
21
0.4116
0
LINE
8
BLACK
6
CONTINUOUS
10
1.14314
20
0.4116
11
1.13941
21
0.412249
0
LINE
8
BLACK
6
CONTINUOUS
10
1.13941
20
0.412249
11
1.13557
21
0.412919
0
LINE
8
BLACK
6
CONTINUOUS
10
1.13557
20
0.412919
11
1.13168
21
0.413599
0
LINE
8
BLACK
6
CONTINUOUS
10
1.13168
20
0.413599
11
1.1278
21
0.414279
0
LINE
8
BLACK
6
CONTINUOUS
10
1.1278
20
0.414279
11
1.12401
21
0.414946
0
LINE
8
BLACK
6
CONTINUOUS
10
1.12401
20
0.414946
11
1.12037
21
0.415588
0
LINE
8
BLACK
6
CONTINUOUS
10
1.12037
20
0.415588
11
1.11694
21
0.416195
0
LINE
8
BLACK
6
CONTINUOUS
10
1.11694
20
0.416195
11
1.11379
21
0.416756
0
LINE
8
BLACK
6
CONTINUOUS
10
1.11379
20
0.416756
11
1.11099
21
0.417257
0
LINE
8
BLACK
6
CONTINUOUS
10
1.11099
20
0.417257
11
1.1086
21
0.417689
0
LINE
8
BLACK
6
CONTINUOUS
10
1.1086
20
0.417689
11
1.10668
21
0.418039
0
LINE
8
BLACK
6
CONTINUOUS
10
1.10668
20
0.418039
11
1.10531
21
0.418296
0
LINE
8
BLACK
6
CONTINUOUS
10
1.10531
20
0.418296
11
1.10454
21
0.418449
0
LINE
8
BLACK
6
CONTINUOUS
10
1.10454
20
0.418449
11
1.1044
21
0.418485
0
LINE
8
BLACK
6
CONTINUOUS
10
1.1044
20
0.418485
11
1.10437
21
0.418867
0
LINE
8
BLACK
6
CONTINUOUS
10
1.10437
20
0.418867
11
1.10435
21
0.419841
0
LINE
8
BLACK
6
CONTINUOUS
10
1.10435
20
0.419841
11
1.10435
21
0.421276
0
LINE
8
BLACK
6
CONTINUOUS
10
1.10435
20
0.421276
11
1.10437
21
0.423041
0
LINE
8
BLACK
6
CONTINUOUS
10
1.10437
20
0.423041
11
1.10439
21
0.423831
0
LINE
8
BLACK
6
CONTINUOUS
10
1.10439
20
0.423831
11
1.10449
21
0.429063
0
LINE
8
BLACK
6
CONTINUOUS
10
1.10449
20
0.429063
11
1.1298
21
0.424619
0
LINE
8
BLACK
6
CONTINUOUS
10
0.834659
20
0.456464
11
0.83682
21
0.454303
0
LINE
8
BLACK
6
CONTINUOUS
10
0.83682
20
0.454303
11
0.837611
21
0.45135
0
LINE
8
BLACK
6
CONTINUOUS
10
0.837611
20
0.45135
11
0.837611
21
0.417604
0
LINE
8
BLACK
6
CONTINUOUS
10
0.837611
20
0.417604
11
0.83682
21
0.414651
0
LINE
8
BLACK
6
CONTINUOUS
10
0.83682
20
0.414651
11
0.834659
21
0.41249
0
LINE
8
BLACK
6
CONTINUOUS
10
0.834659
20
0.41249
11
0.831706
21
0.411699
0
LINE
8
BLACK
6
CONTINUOUS
10
0.831706
20
0.411699
11
0.828753
21
0.41249
0
LINE
8
BLACK
6
CONTINUOUS
10
0.828753
20
0.41249
11
0.826591
21
0.414651
0
LINE
8
BLACK
6
CONTINUOUS
10
0.826591
20
0.414651
11
0.8258
21
0.417604
0
LINE
8
BLACK
6
CONTINUOUS
10
0.8258
20
0.417604
11
0.8258
21
0.428571
0
LINE
8
BLACK
6
CONTINUOUS
10
0.8258
20
0.428571
11
0.78972
21
0.428571
0
LINE
8
BLACK
6
CONTINUOUS
10
0.78972
20
0.428571
11
0.790887
21
0.427404
0
LINE
8
BLACK
6
CONTINUOUS
10
0.790887
20
0.427404
11
0.791363
21
0.426581
0
LINE
8
BLACK
6
CONTINUOUS
10
0.791363
20
0.426581
11
0.791994
21
0.425869
0
LINE
8
BLACK
6
CONTINUOUS
10
0.791994
20
0.425869
11
0.794806
21
0.420245
0
LINE
8
BLACK
6
CONTINUOUS
10
0.794806
20
0.420245
11
0.795419
21
0.41725
0
LINE
8
BLACK
6
CONTINUOUS
10
0.795419
20
0.41725
11
0.794452
21
0.41435
0
LINE
8
BLACK
6
CONTINUOUS
10
0.794452
20
0.41435
11
0.792165
21
0.412322
0
LINE
8
BLACK
6
CONTINUOUS
10
0.792165
20
0.412322
11
0.78917
21
0.411709
0
LINE
8
BLACK
6
CONTINUOUS
10
0.78917
20
0.411709
11
0.78627
21
0.412676
0
LINE
8
BLACK
6
CONTINUOUS
10
0.78627
20
0.412676
11
0.784242
21
0.414963
0
LINE
8
BLACK
6
CONTINUOUS
10
0.784242
20
0.414963
11
0.781858
21
0.41973
0
LINE
8
BLACK
6
CONTINUOUS
10
0.781858
20
0.41973
11
0.777325
21
0.424263
0
LINE
8
BLACK
6
CONTINUOUS
10
0.777325
20
0.424263
11
0.769375
21
0.429563
0
LINE
8
BLACK
6
CONTINUOUS
10
0.769375
20
0.429563
11
0.768487
21
0.430573
0
LINE
8
BLACK
6
CONTINUOUS
10
0.768487
20
0.430573
11
0.767536
21
0.431524
0
LINE
8
BLACK
6
CONTINUOUS
10
0.767536
20
0.431524
11
0.767486
21
0.431713
0
LINE
8
BLACK
6
CONTINUOUS
10
0.767486
20
0.431713
11
0.767357
21
0.431859
0
LINE
8
BLACK
6
CONTINUOUS
10
0.767357
20
0.431859
11
0.767093
21
0.433178
0
LINE
8
BLACK
6
CONTINUOUS
10
0.767093
20
0.433178
11
0.766745
21
0.434477
0
LINE
8
BLACK
6
CONTINUOUS
10
0.766745
20
0.434477
11
0.766796
21
0.434666
0
LINE
8
BLACK
6
CONTINUOUS
10
0.766796
20
0.434666
11
0.766757
21
0.434857
0
LINE
8
BLACK
6
CONTINUOUS
10
0.766757
20
0.434857
11
0.767188
21
0.436131
0
LINE
8
BLACK
6
CONTINUOUS
10
0.767188
20
0.436131
11
0.767536
21
0.43743
0
LINE
8
BLACK
6
CONTINUOUS
10
0.767536
20
0.43743
11
0.767674
21
0.437568
0
LINE
8
BLACK
6
CONTINUOUS
10
0.767674
20
0.437568
11
0.767737
21
0.437753
0
LINE
8
BLACK
6
CONTINUOUS
10
0.767737
20
0.437753
11
0.768747
21
0.43864
0
LINE
8
BLACK
6
CONTINUOUS
10
0.768747
20
0.43864
11
0.769698
21
0.439591
0
LINE
8
BLACK
6
CONTINUOUS
10
0.769698
20
0.439591
11
0.769887
21
0.439642
0
LINE
8
BLACK
6
CONTINUOUS
10
0.769887
20
0.439642
11
0.770033
21
0.439771
0
LINE
8
BLACK
6
CONTINUOUS
10
0.770033
20
0.439771
11
0.771352
21
0.440034
0
LINE
8
BLACK
6
CONTINUOUS
10
0.771352
20
0.440034
11
0.772651
21
0.440382
0
LINE
8
BLACK
6
CONTINUOUS
10
0.772651
20
0.440382
11
0.8258
21
0.440382
0
LINE
8
BLACK
6
CONTINUOUS
10
0.8258
20
0.440382
11
0.8258
21
0.45135
0
LINE
8
BLACK
6
CONTINUOUS
10
0.8258
20
0.45135
11
0.826591
21
0.454303
0
LINE
8
BLACK
6
CONTINUOUS
10
0.826591
20
0.454303
11
0.828753
21
0.456464
0
LINE
8
BLACK
6
CONTINUOUS
10
0.828753
20
0.456464
11
0.831706
21
0.457255
0
LINE
8
BLACK
6
CONTINUOUS
10
0.831706
20
0.457255
11
0.834659
21
0.456464
0
LINE
8
BLACK
6
CONTINUOUS
10
1.03467
20
0.46459
11
1.03608
21
0.464386
0
LINE
8
BLACK
6
CONTINUOUS
10
1.03608
20
0.464386
11
1.0378
21
0.464103
0
LINE
8
BLACK
6
CONTINUOUS
10
1.0378
20
0.464103
11
1.03825
21
0.464024
0
LINE
8
BLACK
6
CONTINUOUS
10
1.03825
20
0.464024
11
1.04003
21
0.46371
0
LINE
8
BLACK
6
CONTINUOUS
10
1.04003
20
0.46371
11
1.04155
21
0.463447
0
LINE
8
BLACK
6
CONTINUOUS
10
1.04155
20
0.463447
11
1.04267
21
0.46326
0
LINE
8
BLACK
6
CONTINUOUS
10
1.04267
20
0.46326
11
1.04326
21
0.463173
0
LINE
8
BLACK
6
CONTINUOUS
10
1.04326
20
0.463173
11
1.0433
21
0.463169
0
LINE
8
BLACK
6
CONTINUOUS
10
1.0433
20
0.463169
11
1.04336
21
0.462821
0
LINE
8
BLACK
6
CONTINUOUS
10
1.04336
20
0.462821
11
1.04342
21
0.461835
0
LINE
8
BLACK
6
CONTINUOUS
10
1.04342
20
0.461835
11
1.04348
21
0.460296
0
LINE
8
BLACK
6
CONTINUOUS
10
1.04348
20
0.460296
11
1.04352
21
0.458289
0
LINE
8
BLACK
6
CONTINUOUS
10
1.04352
20
0.458289
11
1.04355
21
0.4559
0
LINE
8
BLACK
6
CONTINUOUS
10
1.04355
20
0.4559
11
1.04357
21
0.453212
0
LINE
8
BLACK
6
CONTINUOUS
10
1.04357
20
0.453212
11
1.04357
21
0.451443
0
LINE
8
BLACK
6
CONTINUOUS
10
1.04357
20
0.451443
11
1.04357
21
0.439719
0
LINE
8
BLACK
6
CONTINUOUS
10
1.04357
20
0.439719
11
1.04547
21
0.439343
0
LINE
8
BLACK
6
CONTINUOUS
10
1.04547
20
0.439343
11
1.04673
21
0.439102
0
LINE
8
BLACK
6
CONTINUOUS
10
1.04673
20
0.439102
11
1.0484
21
0.438796
0
LINE
8
BLACK
6
CONTINUOUS
10
1.0484
20
0.438796
11
1.05016
21
0.438482
0
LINE
8
BLACK
6
CONTINUOUS
10
1.05016
20
0.438482
11
1.05062
21
0.438402
0
LINE
8
BLACK
6
CONTINUOUS
10
1.05062
20
0.438402
11
1.05217
21
0.438129
0
LINE
8
BLACK
6
CONTINUOUS
10
1.05217
20
0.438129
11
1.05352
21
0.437884
0
LINE
8
BLACK
6
CONTINUOUS
10
1.05352
20
0.437884
11
1.05447
21
0.437706
0
LINE
8
BLACK
6
CONTINUOUS
10
1.05447
20
0.437706
11
1.05469
21
0.437661
0
LINE
8
BLACK
6
CONTINUOUS
10
1.05469
20
0.437661
11
1.0555
21
0.437485
0
LINE
8
BLACK
6
CONTINUOUS
10
1.0555
20
0.437485
11
1.0555
21
0.44653
0
LINE
8
BLACK
6
CONTINUOUS
10
1.0555
20
0.44653
11
1.05551
21
0.449455
0
LINE
8
BLACK
6
CONTINUOUS
10
1.05551
20
0.449455
11
1.05553
21
0.451723
0
LINE
8
BLACK
6
CONTINUOUS
10
1.05553
20
0.451723
11
1.05558
21
0.453401
0
LINE
8
BLACK
6
CONTINUOUS
10
1.05558
20
0.453401
11
1.05566
21
0.454553
0
LINE
8
BLACK
6
CONTINUOUS
10
1.05566
20
0.454553
11
1.05576
21
0.455247
0
LINE
8
BLACK
6
CONTINUOUS
10
1.05576
20
0.455247
11
1.05589
21
0.455549
0
LINE
8
BLACK
6
CONTINUOUS
10
1.05589
20
0.455549
11
1.05595
21
0.455574
0
LINE
8
BLACK
6
CONTINUOUS
10
1.05595
20
0.455574
11
1.05645
21
0.455512
0
LINE
8
BLACK
6
CONTINUOUS
10
1.05645
20
0.455512
11
1.05749
21
0.455345
0
LINE
8
BLACK
6
CONTINUOUS
10
1.05749
20
0.455345
11
1.05889
21
0.455105
0
LINE
8
BLACK
6
CONTINUOUS
10
1.05889
20
0.455105
11
1.0605
21
0.454822
0
LINE
8
BLACK
6
CONTINUOUS
10
1.0605
20
0.454822
11
1.06213
21
0.454525
0
LINE
8
BLACK
6
CONTINUOUS
10
1.06213
20
0.454525
11
1.06361
21
0.454247
0
LINE
8
BLACK
6
CONTINUOUS
10
1.06361
20
0.454247
11
1.06478
21
0.454016
0
LINE
8
BLACK
6
CONTINUOUS
10
1.06478
20
0.454016
11
1.06517
21
0.453933
0
LINE
8
BLACK
6
CONTINUOUS
10
1.06517
20
0.453933
11
1.06598
21
0.453754
0
LINE
8
BLACK
6
CONTINUOUS
10
1.06598
20
0.453754
11
1.06598
21
0.435704
0
LINE
8
BLACK
6
CONTINUOUS
10
1.06598
20
0.435704
11
1.0668
21
0.43552
0
LINE
8
BLACK
6
CONTINUOUS
10
1.0668
20
0.43552
11
1.06736
21
0.435411
0
LINE
8
BLACK
6
CONTINUOUS
10
1.06736
20
0.435411
11
1.06854
21
0.435199
0
LINE
8
BLACK
6
CONTINUOUS
10
1.06854
20
0.435199
11
1.07022
21
0.434902
0
LINE
8
BLACK
6
CONTINUOUS
10
1.07022
20
0.434902
11
1.0723
21
0.434537
0
LINE
8
BLACK
6
CONTINUOUS
10
1.0723
20
0.434537
11
1.07469
21
0.434124
0
LINE
8
BLACK
6
CONTINUOUS
10
1.07469
20
0.434124
11
1.07719
21
0.433694
0
LINE
8
BLACK
6
CONTINUOUS
10
1.07719
20
0.433694
11
1.07985
21
0.433237
0
LINE
8
BLACK
6
CONTINUOUS
10
1.07985
20
0.433237
11
1.08237
21
0.432801
0
LINE
8
BLACK
6
CONTINUOUS
10
1.08237
20
0.432801
11
1.08463
21
0.432404
0
LINE
8
BLACK
6
CONTINUOUS
10
1.08463
20
0.432404
11
1.08653
21
0.432069
0
LINE
8
BLACK
6
CONTINUOUS
10
1.08653
20
0.432069
11
1.08793
21
0.431816
0
LINE
8
BLACK
6
CONTINUOUS
10
1.08793
20
0.431816
11
1.08867
21
0.431677
0
LINE
8
BLACK
6
CONTINUOUS
10
1.08867
20
0.431677
11
1.09057
21
0.431301
0
LINE
8
BLACK
6
CONTINUOUS
10
1.09057
20
0.431301
11
1.09057
21
0.426084
0
LINE
8
BLACK
6
CONTINUOUS
10
1.09057
20
0.426084
11
1.09056
21
0.424023
0
LINE
8
BLACK
6
CONTINUOUS
10
1.09056
20
0.424023
11
1.09053
21
0.42258
0
LINE
8
BLACK
6
CONTINUOUS
10
1.09053
20
0.42258
11
1.09045
21
0.421648
0
LINE
8
BLACK
6
CONTINUOUS
10
1.09045
20
0.421648
11
1.09033
21
0.421124
0
LINE
8
BLACK
6
CONTINUOUS
10
1.09033
20
0.421124
11
1.09015
21
0.420901
0
LINE
8
BLACK
6
CONTINUOUS
10
1.09015
20
0.420901
11
1.08999
21
0.420868
0
LINE
8
BLACK
6
CONTINUOUS
10
1.08999
20
0.420868
11
1.08953
21
0.420929
0
LINE
8
BLACK
6
CONTINUOUS
10
1.08953
20
0.420929
11
1.08843
21
0.421105
0
LINE
8
BLACK
6
CONTINUOUS
10
1.08843
20
0.421105
11
1.08675
21
0.421384
0
LINE
8
BLACK
6
CONTINUOUS
10
1.08675
20
0.421384
11
1.08457
21
0.421755
0
LINE
8
BLACK
6
CONTINUOUS
10
1.08457
20
0.421755
11
1.08194
21
0.422206
0
LINE
8
BLACK
6
CONTINUOUS
10
1.08194
20
0.422206
11
1.07894
21
0.422725
0
LINE
8
BLACK
6
CONTINUOUS
10
1.07894
20
0.422725
11
1.07563
21
0.423301
0
LINE
8
BLACK
6
CONTINUOUS
10
1.07563
20
0.423301
11
1.07207
21
0.423922
0
LINE
8
BLACK
6
CONTINUOUS
10
1.07207
20
0.423922
11
1.06833
21
0.424577
0
LINE
8
BLACK
6
CONTINUOUS
10
1.06833
20
0.424577
11
1.06448
21
0.425253
0
LINE
8
BLACK
6
CONTINUOUS
10
1.06448
20
0.425253
11
1.06059
21
0.42594
0
LINE
8
BLACK
6
CONTINUOUS
10
1.06059
20
0.42594
11
1.05671
21
0.426626
0
LINE
8
BLACK
6
CONTINUOUS
10
1.05671
20
0.426626
11
1.05291
21
0.427298
0
LINE
8
BLACK
6
CONTINUOUS
10
1.05291
20
0.427298
11
1.04927
21
0.427946
0
LINE
8
BLACK
6
CONTINUOUS
10
1.04927
20
0.427946
11
1.04584
21
0.428558
0
LINE
8
BLACK
6
CONTINUOUS
10
1.04584
20
0.428558
11
1.0427
21
0.429122
0
LINE
8
BLACK
6
CONTINUOUS
10
1.0427
20
0.429122
11
1.0399
21
0.429627
0
LINE
8
BLACK
6
CONTINUOUS
10
1.0399
20
0.429627
11
1.03752
21
0.43006
0
LINE
8
BLACK
6
CONTINUOUS
10
1.03752
20
0.43006
11
1.03561
21
0.430411
0
LINE
8
BLACK
6
CONTINUOUS
10
1.03561
20
0.430411
11
1.03425
21
0.430668
0
LINE
8
BLACK
6
CONTINUOUS
10
1.03425
20
0.430668
11
1.0335
21
0.430819
0
LINE
8
BLACK
6
CONTINUOUS
10
1.0335
20
0.430819
11
1.03338
21
0.430852
0
LINE
8
BLACK
6
CONTINUOUS
10
1.03338
20
0.430852
11
1.03332
21
0.431235
0
LINE
8
BLACK
6
CONTINUOUS
10
1.03332
20
0.431235
11
1.03327
21
0.432253
0
LINE
8
BLACK
6
CONTINUOUS
10
1.03327
20
0.432253
11
1.03323
21
0.433821
0
LINE
8
BLACK
6
CONTINUOUS
10
1.03323
20
0.433821
11
1.03319
21
0.43585
0
LINE
8
BLACK
6
CONTINUOUS
10
1.03319
20
0.43585
11
1.03316
21
0.438254
0
LINE
8
BLACK
6
CONTINUOUS
10
1.03316
20
0.438254
11
1.03313
21
0.440946
0
LINE
8
BLACK
6
CONTINUOUS
10
1.03313
20
0.440946
11
1.03311
21
0.443838
0
LINE
8
BLACK
6
CONTINUOUS
10
1.03311
20
0.443838
11
1.03309
21
0.446845
0
LINE
8
BLACK
6
CONTINUOUS
10
1.03309
20
0.446845
11
1.03309
21
0.449877
0
LINE
8
BLACK
6
CONTINUOUS
10
1.03309
20
0.449877
11
1.03308
21
0.452849
0
LINE
8
BLACK
6
CONTINUOUS
10
1.03308
20
0.452849
11
1.03309
21
0.455674
0
LINE
8
BLACK
6
CONTINUOUS
10
1.03309
20
0.455674
11
1.03311
21
0.458263
0
LINE
8
BLACK
6
CONTINUOUS
10
1.03311
20
0.458263
11
1.03313
21
0.460531
0
LINE
8
BLACK
6
CONTINUOUS
10
1.03313
20
0.460531
11
1.03316
21
0.46239
0
LINE
8
BLACK
6
CONTINUOUS
10
1.03316
20
0.46239
11
1.0332
21
0.463754
0
LINE
8
BLACK
6
CONTINUOUS
10
1.0332
20
0.463754
11
1.03325
21
0.464534
0
LINE
8
BLACK
6
CONTINUOUS
10
1.03325
20
0.464534
11
1.03328
21
0.464685
0
LINE
8
BLACK
6
CONTINUOUS
10
1.03328
20
0.464685
11
1.03368
21
0.464696
0
LINE
8
BLACK
6
CONTINUOUS
10
1.03368
20
0.464696
11
1.03467
21
0.46459
0
LINE
8
BLACK
6
CONTINUOUS
10
0.963571
20
0.453601
11
0.96414
21
0.453502
0
LINE
8
BLACK
6
CONTINUOUS
10
0.96414
20
0.453502
11
0.965363
21
0.453288
0
LINE
8
BLACK
6
CONTINUOUS
10
0.965363
20
0.453288
11
0.967182
21
0.452969
0
LINE
8
BLACK
6
CONTINUOUS
10
0.967182
20
0.452969
11
0.969539
21
0.452555
0
LINE
8
BLACK
6
CONTINUOUS
10
0.969539
20
0.452555
11
0.972375
21
0.452057
0
LINE
8
BLACK
6
CONTINUOUS
10
0.972375
20
0.452057
11
0.975632
21
0.451485
0
LINE
8
BLACK
6
CONTINUOUS
10
0.975632
20
0.451485
11
0.979254
21
0.450848
0
LINE
8
BLACK
6
CONTINUOUS
10
0.979254
20
0.450848
11
0.98318
21
0.450158
0
LINE
8
BLACK
6
CONTINUOUS
10
0.98318
20
0.450158
11
0.987353
21
0.449424
0
LINE
8
BLACK
6
CONTINUOUS
10
0.987353
20
0.449424
11
0.991715
21
0.448657
0
LINE
8
BLACK
6
CONTINUOUS
10
0.991715
20
0.448657
11
0.992232
21
0.448566
0
LINE
8
BLACK
6
CONTINUOUS
10
0.992232
20
0.448566
11
1.01953
21
0.443766
0
LINE
8
BLACK
6
CONTINUOUS
10
1.01953
20
0.443766
11
1.01963
21
0.438463
0
LINE
8
BLACK
6
CONTINUOUS
10
1.01963
20
0.438463
11
1.01965
21
0.436308
0
LINE
8
BLACK
6
CONTINUOUS
10
1.01965
20
0.436308
11
1.01964
21
0.434788
0
LINE
8
BLACK
6
CONTINUOUS
10
1.01964
20
0.434788
11
1.01957
21
0.433817
0
LINE
8
BLACK
6
CONTINUOUS
10
1.01957
20
0.433817
11
1.01944
21
0.433307
0
LINE
8
BLACK
6
CONTINUOUS
10
1.01944
20
0.433307
11
1.01927
21
0.433171
0
LINE
8
BLACK
6
CONTINUOUS
10
1.01927
20
0.433171
11
1.01885
21
0.433234
0
LINE
8
BLACK
6
CONTINUOUS
10
1.01885
20
0.433234
11
1.01777
21
0.433414
0
LINE
8
BLACK
6
CONTINUOUS
10
1.01777
20
0.433414
11
1.01609
21
0.4337
0
LINE
8
BLACK
6
CONTINUOUS
10
1.01609
20
0.4337
11
1.01386
21
0.434083
0
LINE
8
BLACK
6
CONTINUOUS
10
1.01386
20
0.434083
11
1.01114
21
0.434554
0
LINE
8
BLACK
6
CONTINUOUS
10
1.01114
20
0.434554
11
1.00798
21
0.435104
0
LINE
8
BLACK
6
CONTINUOUS
10
1.00798
20
0.435104
11
1.00443
21
0.435722
0
LINE
8
BLACK
6
CONTINUOUS
10
1.00443
20
0.435722
11
1.00056
21
0.436399
0
LINE
8
BLACK
6
CONTINUOUS
10
1.00056
20
0.436399
11
0.996414
21
0.437126
0
LINE
8
BLACK
6
CONTINUOUS
10
0.996414
20
0.437126
11
0.992048
21
0.437893
0
LINE
8
BLACK
6
CONTINUOUS
10
0.992048
20
0.437893
11
0.990605
21
0.438147
0
LINE
8
BLACK
6
CONTINUOUS
10
0.990605
20
0.438147
11
0.962406
21
0.443111
0
LINE
8
BLACK
6
CONTINUOUS
10
0.962406
20
0.443111
11
0.962205
21
0.453834
0
LINE
8
BLACK
6
CONTINUOUS
10
0.962205
20
0.453834
11
0.963571
21
0.453601
0
LINE
8
BLACK
6
CONTINUOUS
10
1.10517
20
0.469961
11
1.10625
21
0.469782
0
LINE
8
BLACK
6
CONTINUOUS
10
1.10625
20
0.469782
11
1.10793
21
0.469495
0
LINE
8
BLACK
6
CONTINUOUS
10
1.10793
20
0.469495
11
1.11016
21
0.469112
0
LINE
8
BLACK
6
CONTINUOUS
10
1.11016
20
0.469112
11
1.11288
21
0.46864
0
LINE
8
BLACK
6
CONTINUOUS
10
1.11288
20
0.46864
11
1.11604
21
0.468091
0
LINE
8
BLACK
6
CONTINUOUS
10
1.11604
20
0.468091
11
1.11958
21
0.467472
0
LINE
8
BLACK
6
CONTINUOUS
10
1.11958
20
0.467472
11
1.12345
21
0.466794
0
LINE
8
BLACK
6
CONTINUOUS
10
1.12345
20
0.466794
11
1.1276
21
0.466067
0
LINE
8
BLACK
6
CONTINUOUS
10
1.1276
20
0.466067
11
1.13197
21
0.465299
0
LINE
8
BLACK
6
CONTINUOUS
10
1.13197
20
0.465299
11
1.13341
21
0.465045
0
LINE
8
BLACK
6
CONTINUOUS
10
1.13341
20
0.465045
11
1.16161
21
0.460078
0
LINE
8
BLACK
6
CONTINUOUS
10
1.16161
20
0.460078
11
1.16181
21
0.449362
0
LINE
8
BLACK
6
CONTINUOUS
10
1.16181
20
0.449362
11
1.16045
21
0.449596
0
LINE
8
BLACK
6
CONTINUOUS
10
1.16045
20
0.449596
11
1.15988
21
0.449695
0
LINE
8
BLACK
6
CONTINUOUS
10
1.15988
20
0.449695
11
1.15865
21
0.449909
0
LINE
8
BLACK
6
CONTINUOUS
10
1.15865
20
0.449909
11
1.15683
21
0.450228
0
LINE
8
BLACK
6
CONTINUOUS
10
1.15683
20
0.450228
11
1.15448
21
0.450641
0
LINE
8
BLACK
6
CONTINUOUS
10
1.15448
20
0.450641
11
1.15164
21
0.451139
0
LINE
8
BLACK
6
CONTINUOUS
10
1.15164
20
0.451139
11
1.14838
21
0.451711
0
LINE
8
BLACK
6
CONTINUOUS
10
1.14838
20
0.451711
11
1.14476
21
0.452347
0
LINE
8
BLACK
6
CONTINUOUS
10
1.14476
20
0.452347
11
1.14084
21
0.453036
0
LINE
8
BLACK
6
CONTINUOUS
10
1.14084
20
0.453036
11
1.13666
21
0.453769
0
LINE
8
BLACK
6
CONTINUOUS
10
1.13666
20
0.453769
11
1.1323
21
0.454536
0
LINE
8
BLACK
6
CONTINUOUS
10
1.1323
20
0.454536
11
1.13178
21
0.454627
0
LINE
8
BLACK
6
CONTINUOUS
10
1.13178
20
0.454627
11
1.10449
21
0.459423
0
LINE
8
BLACK
6
CONTINUOUS
10
1.10449
20
0.459423
11
1.10439
21
0.46473
0
LINE
8
BLACK
6
CONTINUOUS
10
1.10439
20
0.46473
11
1.10436
21
0.466885
0
LINE
8
BLACK
6
CONTINUOUS
10
1.10436
20
0.466885
11
1.10438
21
0.468406
0
LINE
8
BLACK
6
CONTINUOUS
10
1.10438
20
0.468406
11
1.10445
21
0.469378
0
LINE
8
BLACK
6
CONTINUOUS
10
1.10445
20
0.469378
11
1.10457
21
0.469888
0
LINE
8
BLACK
6
CONTINUOUS
10
1.10457
20
0.469888
11
1.10475
21
0.470024
0
LINE
8
BLACK
6
CONTINUOUS
10
1.10475
20
0.470024
11
1.10517
21
0.469961
0
LINE
8
BLACK
6
CONTINUOUS
10
1.08126
20
0.493735
11
1.08197
21
0.493596
0
LINE
8
BLACK
6
CONTINUOUS
10
1.08197
20
0.493596
11
1.08319
21
0.493374
0
LINE
8
BLACK
6
CONTINUOUS
10
1.08319
20
0.493374
11
1.08468
21
0.493108
0
LINE
8
BLACK
6
CONTINUOUS
10
1.08468
20
0.493108
11
1.08533
21
0.492995
0
LINE
8
BLACK
6
CONTINUOUS
10
1.08533
20
0.492995
11
1.0869
21
0.492719
0
LINE
8
BLACK
6
CONTINUOUS
10
1.0869
20
0.492719
11
1.08832
21
0.492466
0
LINE
8
BLACK
6
CONTINUOUS
10
1.08832
20
0.492466
11
1.08933
21
0.492279
0
LINE
8
BLACK
6
CONTINUOUS
10
1.08933
20
0.492279
11
1.08957
21
0.492232
0
LINE
8
BLACK
6
CONTINUOUS
10
1.08957
20
0.492232
11
1.09057
21
0.492032
0
LINE
8
BLACK
6
CONTINUOUS
10
1.09057
20
0.492032
11
1.09057
21
0.476877
0
LINE
8
BLACK
6
CONTINUOUS
10
1.09057
20
0.476877
11
1.09056
21
0.473014
0
LINE
8
BLACK
6
CONTINUOUS
10
1.09056
20
0.473014
11
1.09055
21
0.46982
0
LINE
8
BLACK
6
CONTINUOUS
10
1.09055
20
0.46982
11
1.09053
21
0.467244
0
LINE
8
BLACK
6
CONTINUOUS
10
1.09053
20
0.467244
11
1.09049
21
0.465232
0
LINE
8
BLACK
6
CONTINUOUS
10
1.09049
20
0.465232
11
1.09043
21
0.463731
0
LINE
8
BLACK
6
CONTINUOUS
10
1.09043
20
0.463731
11
1.09037
21
0.462687
0
LINE
8
BLACK
6
CONTINUOUS
10
1.09037
20
0.462687
11
1.09028
21
0.462048
0
LINE
8
BLACK
6
CONTINUOUS
10
1.09028
20
0.462048
11
1.09017
21
0.461761
0
LINE
8
BLACK
6
CONTINUOUS
10
1.09017
20
0.461761
11
1.09012
21
0.461733
0
LINE
8
BLACK
6
CONTINUOUS
10
1.09012
20
0.461733
11
1.0897
21
0.461796
0
LINE
8
BLACK
6
CONTINUOUS
10
1.0897
20
0.461796
11
1.08862
21
0.461976
0
LINE
8
BLACK
6
CONTINUOUS
10
1.08862
20
0.461976
11
1.08694
21
0.462262
0
LINE
8
BLACK
6
CONTINUOUS
10
1.08694
20
0.462262
11
1.08472
21
0.462645
0
LINE
8
BLACK
6
CONTINUOUS
10
1.08472
20
0.462645
11
1.082
21
0.463117
0
LINE
8
BLACK
6
CONTINUOUS
10
1.082
20
0.463117
11
1.07884
21
0.463666
0
LINE
8
BLACK
6
CONTINUOUS
10
1.07884
20
0.463666
11
1.07529
21
0.464285
0
LINE
8
BLACK
6
CONTINUOUS
10
1.07529
20
0.464285
11
1.07142
21
0.464963
0
LINE
8
BLACK
6
CONTINUOUS
10
1.07142
20
0.464963
11
1.06728
21
0.46569
0
LINE
8
BLACK
6
CONTINUOUS
10
1.06728
20
0.46569
11
1.06291
21
0.466458
0
LINE
8
BLACK
6
CONTINUOUS
10
1.06291
20
0.466458
11
1.06147
21
0.466712
0
LINE
8
BLACK
6
CONTINUOUS
10
1.06147
20
0.466712
11
1.03327
21
0.47168
0
LINE
8
BLACK
6
CONTINUOUS
10
1.03327
20
0.47168
11
1.03317
21
0.477004
0
LINE
8
BLACK
6
CONTINUOUS
10
1.03317
20
0.477004
11
1.03315
21
0.478873
0
LINE
8
BLACK
6
CONTINUOUS
10
1.03315
20
0.478873
11
1.03316
21
0.480454
0
LINE
8
BLACK
6
CONTINUOUS
10
1.03316
20
0.480454
11
1.0332
21
0.481624
0
LINE
8
BLACK
6
CONTINUOUS
10
1.0332
20
0.481624
11
1.03326
21
0.482254
0
LINE
8
BLACK
6
CONTINUOUS
10
1.03326
20
0.482254
11
1.0333
21
0.482328
0
LINE
8
BLACK
6
CONTINUOUS
10
1.0333
20
0.482328
11
1.03371
21
0.482267
0
LINE
8
BLACK
6
CONTINUOUS
10
1.03371
20
0.482267
11
1.03476
21
0.482093
0
LINE
8
BLACK
6
CONTINUOUS
10
1.03476
20
0.482093
11
1.03637
21
0.481818
0
LINE
8
BLACK
6
CONTINUOUS
10
1.03637
20
0.481818
11
1.03848
21
0.481454
0
LINE
8
BLACK
6
CONTINUOUS
10
1.03848
20
0.481454
11
1.04101
21
0.481016
0
LINE
8
BLACK
6
CONTINUOUS
10
1.04101
20
0.481016
11
1.04389
21
0.480516
0
LINE
8
BLACK
6
CONTINUOUS
10
1.04389
20
0.480516
11
1.04704
21
0.479966
0
LINE
8
BLACK
6
CONTINUOUS
10
1.04704
20
0.479966
11
1.05039
21
0.479379
0
LINE
8
BLACK
6
CONTINUOUS
10
1.05039
20
0.479379
11
1.05387
21
0.478769
0
LINE
8
BLACK
6
CONTINUOUS
10
1.05387
20
0.478769
11
1.05741
21
0.478148
0
LINE
8
BLACK
6
CONTINUOUS
10
1.05741
20
0.478148
11
1.06093
21
0.477529
0
LINE
8
BLACK
6
CONTINUOUS
10
1.06093
20
0.477529
11
1.06435
21
0.476924
0
LINE
8
BLACK
6
CONTINUOUS
10
1.06435
20
0.476924
11
1.06762
21
0.476347
0
LINE
8
BLACK
6
CONTINUOUS
10
1.06762
20
0.476347
11
1.07065
21
0.47581
0
LINE
8
BLACK
6
CONTINUOUS
10
1.07065
20
0.47581
11
1.07337
21
0.475327
0
LINE
8
BLACK
6
CONTINUOUS
10
1.07337
20
0.475327
11
1.0757
21
0.474909
0
LINE
8
BLACK
6
CONTINUOUS
10
1.0757
20
0.474909
11
1.07758
21
0.47457
0
LINE
8
BLACK
6
CONTINUOUS
10
1.07758
20
0.47457
11
1.07894
21
0.474323
0
LINE
8
BLACK
6
CONTINUOUS
10
1.07894
20
0.474323
11
1.07969
21
0.47418
0
LINE
8
BLACK
6
CONTINUOUS
10
1.07969
20
0.47418
11
1.07981
21
0.474153
0
LINE
8
BLACK
6
CONTINUOUS
10
1.07981
20
0.474153
11
1.08
21
0.474137
0
LINE
8
BLACK
6
CONTINUOUS
10
1.08
20
0.474137
11
1.08015
21
0.474266
0
LINE
8
BLACK
6
CONTINUOUS
10
1.08015
20
0.474266
11
1.08026
21
0.474616
0
LINE
8
BLACK
6
CONTINUOUS
10
1.08026
20
0.474616
11
1.08034
21
0.475265
0
LINE
8
BLACK
6
CONTINUOUS
10
1.08034
20
0.475265
11
1.08039
21
0.47629
0
LINE
8
BLACK
6
CONTINUOUS
10
1.08039
20
0.47629
11
1.08042
21
0.477768
0
LINE
8
BLACK
6
CONTINUOUS
10
1.08042
20
0.477768
11
1.08044
21
0.479777
0
LINE
8
BLACK
6
CONTINUOUS
10
1.08044
20
0.479777
11
1.08045
21
0.482393
0
LINE
8
BLACK
6
CONTINUOUS
10
1.08045
20
0.482393
11
1.08045
21
0.483938
0
LINE
8
BLACK
6
CONTINUOUS
10
1.08045
20
0.483938
11
1.08045
21
0.493911
0
LINE
8
BLACK
6
CONTINUOUS
10
1.08045
20
0.493911
11
1.08126
21
0.493735
0
LINE
8
BLACK
6
CONTINUOUS
10
0.835624
20
0.512011
11
0.837308
21
0.50946
0
LINE
8
BLACK
6
CONTINUOUS
10
0.837308
20
0.50946
11
0.837491
21
0.506409
0
LINE
8
BLACK
6
CONTINUOUS
10
0.837491
20
0.506409
11
0.836124
21
0.503675
0
LINE
8
BLACK
6
CONTINUOUS
10
0.836124
20
0.503675
11
0.833573
21
0.50199
0
LINE
8
BLACK
6
CONTINUOUS
10
0.833573
20
0.50199
11
0.820738
21
0.497712
0
LINE
8
BLACK
6
CONTINUOUS
10
0.820738
20
0.497712
11
0.820738
21
0.478104
0
LINE
8
BLACK
6
CONTINUOUS
10
0.820738
20
0.478104
11
0.833573
21
0.473825
0
LINE
8
BLACK
6
CONTINUOUS
10
0.833573
20
0.473825
11
0.836124
21
0.472141
0
LINE
8
BLACK
6
CONTINUOUS
10
0.836124
20
0.472141
11
0.837491
21
0.469407
0
LINE
8
BLACK
6
CONTINUOUS
10
0.837491
20
0.469407
11
0.837308
21
0.466355
0
LINE
8
BLACK
6
CONTINUOUS
10
0.837308
20
0.466355
11
0.835624
21
0.463804
0
LINE
8
BLACK
6
CONTINUOUS
10
0.835624
20
0.463804
11
0.83289
21
0.462437
0
LINE
8
BLACK
6
CONTINUOUS
10
0.83289
20
0.462437
11
0.829838
21
0.46262
0
LINE
8
BLACK
6
CONTINUOUS
10
0.829838
20
0.46262
11
0.770783
21
0.482305
0
LINE
8
BLACK
6
CONTINUOUS
10
0.770783
20
0.482305
11
0.769794
21
0.482959
0
LINE
8
BLACK
6
CONTINUOUS
10
0.769794
20
0.482959
11
0.768733
21
0.483489
0
LINE
8
BLACK
6
CONTINUOUS
10
0.768733
20
0.483489
11
0.768534
21
0.483791
0
LINE
8
BLACK
6
CONTINUOUS
10
0.768534
20
0.483791
11
0.768232
21
0.48399
0
LINE
8
BLACK
6
CONTINUOUS
10
0.768232
20
0.48399
11
0.767702
21
0.485051
0
LINE
8
BLACK
6
CONTINUOUS
10
0.767702
20
0.485051
11
0.767048
21
0.48604
0
LINE
8
BLACK
6
CONTINUOUS
10
0.767048
20
0.48604
11
0.767027
21
0.486401
0
LINE
8
BLACK
6
CONTINUOUS
10
0.767027
20
0.486401
11
0.766865
21
0.486724
0
LINE
8
BLACK
6
CONTINUOUS
10
0.766865
20
0.486724
11
0.766936
21
0.487908
0
LINE
8
BLACK
6
CONTINUOUS
10
0.766936
20
0.487908
11
0.766865
21
0.489092
0
LINE
8
BLACK
6
CONTINUOUS
10
0.766865
20
0.489092
11
0.767027
21
0.489415
0
LINE
8
BLACK
6
CONTINUOUS
10
0.767027
20
0.489415
11
0.767048
21
0.489775
0
LINE
8
BLACK
6
CONTINUOUS
10
0.767048
20
0.489775
11
0.767702
21
0.490765
0
LINE
8
BLACK
6
CONTINUOUS
10
0.767702
20
0.490765
11
0.768232
21
0.491826
0
LINE
8
BLACK
6
CONTINUOUS
10
0.768232
20
0.491826
11
0.768534
21
0.492025
0
LINE
8
BLACK
6
CONTINUOUS
10
0.768534
20
0.492025
11
0.768733
21
0.492326
0
LINE
8
BLACK
6
CONTINUOUS
10
0.768733
20
0.492326
11
0.769794
21
0.492857
0
LINE
8
BLACK
6
CONTINUOUS
10
0.769794
20
0.492857
11
0.770783
21
0.49351
0
LINE
8
BLACK
6
CONTINUOUS
10
0.770783
20
0.49351
11
0.829838
21
0.513195
0
LINE
8
BLACK
6
CONTINUOUS
10
0.829838
20
0.513195
11
0.83289
21
0.513378
0
LINE
8
BLACK
6
CONTINUOUS
10
0.83289
20
0.513378
11
0.835624
21
0.512011
0
LINE
8
BLACK
6
CONTINUOUS
10
0.791326
20
0.487908
11
0.808927
21
0.482041
0
LINE
8
BLACK
6
CONTINUOUS
10
0.808927
20
0.482041
11
0.808927
21
0.493775
0
LINE
8
BLACK
6
CONTINUOUS
10
0.808927
20
0.493775
11
0.791326
21
0.487908
0
LINE
8
BLACK
6
CONTINUOUS
10
0.988617
20
0.490235
11
0.992943
21
0.489474
0
LINE
8
BLACK
6
CONTINUOUS
10
0.992943
20
0.489474
11
0.997113
21
0.488741
0
LINE
8
BLACK
6
CONTINUOUS
10
0.997113
20
0.488741
11
1.00106
21
0.488046
0
LINE
8
BLACK
6
CONTINUOUS
10
1.00106
20
0.488046
11
1.00473
21
0.487402
0
LINE
8
BLACK
6
CONTINUOUS
10
1.00473
20
0.487402
11
1.00806
21
0.486819
0
LINE
8
BLACK
6
CONTINUOUS
10
1.00806
20
0.486819
11
1.01097
21
0.486307
0
LINE
8
BLACK
6
CONTINUOUS
10
1.01097
20
0.486307
11
1.01342
21
0.485878
0
LINE
8
BLACK
6
CONTINUOUS
10
1.01342
20
0.485878
11
1.01534
21
0.485544
0
LINE
8
BLACK
6
CONTINUOUS
10
1.01534
20
0.485544
11
1.01666
21
0.485314
0
LINE
8
BLACK
6
CONTINUOUS
10
1.01666
20
0.485314
11
1.01727
21
0.485208
0
LINE
8
BLACK
6
CONTINUOUS
10
1.01727
20
0.485208
11
1.01971
21
0.484794
0
LINE
8
BLACK
6
CONTINUOUS
10
1.01971
20
0.484794
11
1.01971
21
0.473999
0
LINE
8
BLACK
6
CONTINUOUS
10
1.01971
20
0.473999
11
1.0189
21
0.474194
0
LINE
8
BLACK
6
CONTINUOUS
10
1.0189
20
0.474194
11
1.01842
21
0.474287
0
LINE
8
BLACK
6
CONTINUOUS
10
1.01842
20
0.474287
11
1.01728
21
0.474494
0
LINE
8
BLACK
6
CONTINUOUS
10
1.01728
20
0.474494
11
1.01555
21
0.474805
0
LINE
8
BLACK
6
CONTINUOUS
10
1.01555
20
0.474805
11
1.01327
21
0.475212
0
LINE
8
BLACK
6
CONTINUOUS
10
1.01327
20
0.475212
11
1.0105
21
0.475703
0
LINE
8
BLACK
6
CONTINUOUS
10
1.0105
20
0.475703
11
1.00731
21
0.47627
0
LINE
8
BLACK
6
CONTINUOUS
10
1.00731
20
0.47627
11
1.00373
21
0.476901
0
LINE
8
BLACK
6
CONTINUOUS
10
1.00373
20
0.476901
11
0.999839
21
0.477588
0
LINE
8
BLACK
6
CONTINUOUS
10
0.999839
20
0.477588
11
0.995682
21
0.478319
0
LINE
8
BLACK
6
CONTINUOUS
10
0.995682
20
0.478319
11
0.991317
21
0.479086
0
LINE
8
BLACK
6
CONTINUOUS
10
0.991317
20
0.479086
11
0.990266
21
0.479271
0
LINE
8
BLACK
6
CONTINUOUS
10
0.990266
20
0.479271
11
0.985881
21
0.480042
0
LINE
8
BLACK
6
CONTINUOUS
10
0.985881
20
0.480042
11
0.981705
21
0.480778
0
LINE
8
BLACK
6
CONTINUOUS
10
0.981705
20
0.480778
11
0.977793
21
0.48147
0
LINE
8
BLACK
6
CONTINUOUS
10
0.977793
20
0.48147
11
0.9742
21
0.482109
0
LINE
8
BLACK
6
CONTINUOUS
10
0.9742
20
0.482109
11
0.970978
21
0.482684
0
LINE
8
BLACK
6
CONTINUOUS
10
0.970978
20
0.482684
11
0.968184
21
0.483185
0
LINE
8
BLACK
6
CONTINUOUS
10
0.968184
20
0.483185
11
0.96587
21
0.483604
0
LINE
8
BLACK
6
CONTINUOUS
10
0.96587
20
0.483604
11
0.964092
21
0.48393
0
LINE
8
BLACK
6
CONTINUOUS
10
0.964092
20
0.48393
11
0.962902
21
0.484154
0
LINE
8
BLACK
6
CONTINUOUS
10
0.962902
20
0.484154
11
0.962357
21
0.484265
0
LINE
8
BLACK
6
CONTINUOUS
10
0.962357
20
0.484265
11
0.962327
21
0.484274
0
LINE
8
BLACK
6
CONTINUOUS
10
0.962327
20
0.484274
11
0.96229
21
0.48466
0
LINE
8
BLACK
6
CONTINUOUS
10
0.96229
20
0.48466
11
0.962272
21
0.485637
0
LINE
8
BLACK
6
CONTINUOUS
10
0.962272
20
0.485637
11
0.962272
21
0.487074
0
LINE
8
BLACK
6
CONTINUOUS
10
0.962272
20
0.487074
11
0.962292
21
0.488841
0
LINE
8
BLACK
6
CONTINUOUS
10
0.962292
20
0.488841
11
0.962305
21
0.489622
0
LINE
8
BLACK
6
CONTINUOUS
10
0.962305
20
0.489622
11
0.962406
21
0.494848
0
LINE
8
BLACK
6
CONTINUOUS
10
0.962406
20
0.494848
11
0.988617
21
0.490235
0
LINE
8
BLACK
6
CONTINUOUS
10
1.10512
20
0.511443
11
1.1056
21
0.511353
0
LINE
8
BLACK
6
CONTINUOUS
10
1.1056
20
0.511353
11
1.10674
21
0.511148
0
LINE
8
BLACK
6
CONTINUOUS
10
1.10674
20
0.511148
11
1.10847
21
0.510839
0
LINE
8
BLACK
6
CONTINUOUS
10
1.10847
20
0.510839
11
1.11074
21
0.510437
0
LINE
8
BLACK
6
CONTINUOUS
10
1.11074
20
0.510437
11
1.1135
21
0.50995
0
LINE
8
BLACK
6
CONTINUOUS
10
1.1135
20
0.50995
11
1.11669
21
0.509389
0
LINE
8
BLACK
6
CONTINUOUS
10
1.11669
20
0.509389
11
1.12024
21
0.508765
0
LINE
8
BLACK
6
CONTINUOUS
10
1.12024
20
0.508765
11
1.12411
21
0.508087
0
LINE
8
BLACK
6
CONTINUOUS
10
1.12411
20
0.508087
11
1.12824
21
0.507365
0
LINE
8
BLACK
6
CONTINUOUS
10
1.12824
20
0.507365
11
1.13256
21
0.506609
0
LINE
8
BLACK
6
CONTINUOUS
10
1.13256
20
0.506609
11
1.13287
21
0.506555
0
LINE
8
BLACK
6
CONTINUOUS
10
1.13287
20
0.506555
11
1.13721
21
0.505796
0
LINE
8
BLACK
6
CONTINUOUS
10
1.13721
20
0.505796
11
1.14136
21
0.50507
0
LINE
8
BLACK
6
CONTINUOUS
10
1.14136
20
0.50507
11
1.14526
21
0.504386
0
LINE
8
BLACK
6
CONTINUOUS
10
1.14526
20
0.504386
11
1.14886
21
0.503755
0
LINE
8
BLACK
6
CONTINUOUS
10
1.14886
20
0.503755
11
1.15209
21
0.503187
0
LINE
8
BLACK
6
CONTINUOUS
10
1.15209
20
0.503187
11
1.1549
21
0.502692
0
LINE
8
BLACK
6
CONTINUOUS
10
1.1549
20
0.502692
11
1.15723
21
0.50228
0
LINE
8
BLACK
6
CONTINUOUS
10
1.15723
20
0.50228
11
1.15903
21
0.501961
0
LINE
8
BLACK
6
CONTINUOUS
10
1.15903
20
0.501961
11
1.16023
21
0.501746
0
LINE
8
BLACK
6
CONTINUOUS
10
1.16023
20
0.501746
11
1.16079
21
0.501643
0
LINE
8
BLACK
6
CONTINUOUS
10
1.16079
20
0.501643
11
1.1608
21
0.501641
0
LINE
8
BLACK
6
CONTINUOUS
10
1.1608
20
0.501641
11
1.16179
21
0.501432
0
LINE
8
BLACK
6
CONTINUOUS
10
1.16179
20
0.501432
11
1.16179
21
0.496219
0
LINE
8
BLACK
6
CONTINUOUS
10
1.16179
20
0.496219
11
1.16177
21
0.494048
0
LINE
8
BLACK
6
CONTINUOUS
10
1.16177
20
0.494048
11
1.16172
21
0.492521
0
LINE
8
BLACK
6
CONTINUOUS
10
1.16172
20
0.492521
11
1.16162
21
0.491558
0
LINE
8
BLACK
6
CONTINUOUS
10
1.16162
20
0.491558
11
1.16147
21
0.49108
0
LINE
8
BLACK
6
CONTINUOUS
10
1.16147
20
0.49108
11
1.16134
21
0.490992
0
LINE
8
BLACK
6
CONTINUOUS
10
1.16134
20
0.490992
11
1.16092
21
0.491051
0
LINE
8
BLACK
6
CONTINUOUS
10
1.16092
20
0.491051
11
1.15984
21
0.491226
0
LINE
8
BLACK
6
CONTINUOUS
10
1.15984
20
0.491226
11
1.15816
21
0.491507
0
LINE
8
BLACK
6
CONTINUOUS
10
1.15816
20
0.491507
11
1.15594
21
0.491886
0
LINE
8
BLACK
6
CONTINUOUS
10
1.15594
20
0.491886
11
1.15321
21
0.492352
0
LINE
8
BLACK
6
CONTINUOUS
10
1.15321
20
0.492352
11
1.15005
21
0.492897
0
LINE
8
BLACK
6
CONTINUOUS
10
1.15005
20
0.492897
11
1.14651
21
0.493511
0
LINE
8
BLACK
6
CONTINUOUS
10
1.14651
20
0.493511
11
1.14264
21
0.494184
0
LINE
8
BLACK
6
CONTINUOUS
10
1.14264
20
0.494184
11
1.13849
21
0.494907
0
LINE
8
BLACK
6
CONTINUOUS
10
1.13849
20
0.494907
11
1.13412
21
0.495671
0
LINE
8
BLACK
6
CONTINUOUS
10
1.13412
20
0.495671
11
1.1326
21
0.495937
0
LINE
8
BLACK
6
CONTINUOUS
10
1.1326
20
0.495937
11
1.10431
21
0.500896
0
LINE
8
BLACK
6
CONTINUOUS
10
1.10431
20
0.500896
11
1.10431
21
0.511626
0
LINE
8
BLACK
6
CONTINUOUS
10
1.10431
20
0.511626
11
1.10512
21
0.511443
0
LINE
8
BLACK
6
CONTINUOUS
10
1.04881
20
0.531109
11
1.05177
21
0.528825
0
LINE
8
BLACK
6
CONTINUOUS
10
1.05177
20
0.528825
11
1.05457
21
0.526666
0
LINE
8
BLACK
6
CONTINUOUS
10
1.05457
20
0.526666
11
1.05717
21
0.524673
0
LINE
8
BLACK
6
CONTINUOUS
10
1.05717
20
0.524673
11
1.0595
21
0.522889
0
LINE
8
BLACK
6
CONTINUOUS
10
1.0595
20
0.522889
11
1.06152
21
0.521357
0
LINE
8
BLACK
6
CONTINUOUS
10
1.06152
20
0.521357
11
1.06316
21
0.520119
0
LINE
8
BLACK
6
CONTINUOUS
10
1.06316
20
0.520119
11
1.06437
21
0.519218
0
LINE
8
BLACK
6
CONTINUOUS
10
1.06437
20
0.519218
11
1.06509
21
0.518696
0
LINE
8
BLACK
6
CONTINUOUS
10
1.06509
20
0.518696
11
1.06526
21
0.518589
0
LINE
8
BLACK
6
CONTINUOUS
10
1.06526
20
0.518589
11
1.06583
21
0.518412
0
LINE
8
BLACK
6
CONTINUOUS
10
1.06583
20
0.518412
11
1.06702
21
0.518134
0
LINE
8
BLACK
6
CONTINUOUS
10
1.06702
20
0.518134
11
1.06874
21
0.517774
0
LINE
8
BLACK
6
CONTINUOUS
10
1.06874
20
0.517774
11
1.07089
21
0.517351
0
LINE
8
BLACK
6
CONTINUOUS
10
1.07089
20
0.517351
11
1.07338
21
0.516883
0
LINE
8
BLACK
6
CONTINUOUS
10
1.07338
20
0.516883
11
1.07612
21
0.516388
0
LINE
8
BLACK
6
CONTINUOUS
10
1.07612
20
0.516388
11
1.07773
21
0.516107
0
LINE
8
BLACK
6
CONTINUOUS
10
1.07773
20
0.516107
11
1.08056
21
0.515616
0
LINE
8
BLACK
6
CONTINUOUS
10
1.08056
20
0.515616
11
1.08317
21
0.515157
0
LINE
8
BLACK
6
CONTINUOUS
10
1.08317
20
0.515157
11
1.08549
21
0.514746
0
LINE
8
BLACK
6
CONTINUOUS
10
1.08549
20
0.514746
11
1.08741
21
0.5144
0
LINE
8
BLACK
6
CONTINUOUS
10
1.08741
20
0.5144
11
1.08886
21
0.514135
0
LINE
8
BLACK
6
CONTINUOUS
10
1.08886
20
0.514135
11
1.08973
21
0.513966
0
LINE
8
BLACK
6
CONTINUOUS
10
1.08973
20
0.513966
11
1.08994
21
0.513919
0
LINE
8
BLACK
6
CONTINUOUS
10
1.08994
20
0.513919
11
1.09019
21
0.513778
0
LINE
8
BLACK
6
CONTINUOUS
10
1.09019
20
0.513778
11
1.09036
21
0.513452
0
LINE
8
BLACK
6
CONTINUOUS
10
1.09036
20
0.513452
11
1.09047
21
0.512829
0
LINE
8
BLACK
6
CONTINUOUS
10
1.09047
20
0.512829
11
1.09054
21
0.511798
0
LINE
8
BLACK
6
CONTINUOUS
10
1.09054
20
0.511798
11
1.09056
21
0.510246
0
LINE
8
BLACK
6
CONTINUOUS
10
1.09056
20
0.510246
11
1.09057
21
0.508515
0
LINE
8
BLACK
6
CONTINUOUS
10
1.09057
20
0.508515
11
1.09055
21
0.506666
0
LINE
8
BLACK
6
CONTINUOUS
10
1.09055
20
0.506666
11
1.09051
21
0.505106
0
LINE
8
BLACK
6
CONTINUOUS
10
1.09051
20
0.505106
11
1.09045
21
0.50396
0
LINE
8
BLACK
6
CONTINUOUS
10
1.09045
20
0.50396
11
1.09038
21
0.503358
0
LINE
8
BLACK
6
CONTINUOUS
10
1.09038
20
0.503358
11
1.09035
21
0.503297
0
LINE
8
BLACK
6
CONTINUOUS
10
1.09035
20
0.503297
11
1.08995
21
0.503358
0
LINE
8
BLACK
6
CONTINUOUS
10
1.08995
20
0.503358
11
1.08892
21
0.503529
0
LINE
8
BLACK
6
CONTINUOUS
10
1.08892
20
0.503529
11
1.08735
21
0.503798
0
LINE
8
BLACK
6
CONTINUOUS
10
1.08735
20
0.503798
11
1.08532
21
0.504149
0
LINE
8
BLACK
6
CONTINUOUS
10
1.08532
20
0.504149
11
1.0829
21
0.504569
0
LINE
8
BLACK
6
CONTINUOUS
10
1.0829
20
0.504569
11
1.08018
21
0.505043
0
LINE
8
BLACK
6
CONTINUOUS
10
1.08018
20
0.505043
11
1.07773
21
0.505472
0
LINE
8
BLACK
6
CONTINUOUS
10
1.07773
20
0.505472
11
1.06534
21
0.507647
0
LINE
8
BLACK
6
CONTINUOUS
10
1.06534
20
0.507647
11
1.04941
21
0.500953
0
LINE
8
BLACK
6
CONTINUOUS
10
1.04941
20
0.500953
11
1.04621
21
0.499612
0
LINE
8
BLACK
6
CONTINUOUS
10
1.04621
20
0.499612
11
1.04322
21
0.498361
0
LINE
8
BLACK
6
CONTINUOUS
10
1.04322
20
0.498361
11
1.0405
21
0.497227
0
LINE
8
BLACK
6
CONTINUOUS
10
1.0405
20
0.497227
11
1.03812
21
0.496237
0
LINE
8
BLACK
6
CONTINUOUS
10
1.03812
20
0.496237
11
1.03614
21
0.495417
0
LINE
8
BLACK
6
CONTINUOUS
10
1.03614
20
0.495417
11
1.03463
21
0.494797
0
LINE
8
BLACK
6
CONTINUOUS
10
1.03463
20
0.494797
11
1.03365
21
0.494401
0
LINE
8
BLACK
6
CONTINUOUS
10
1.03365
20
0.494401
11
1.03327
21
0.494259
0
LINE
8
BLACK
6
CONTINUOUS
10
1.03327
20
0.494259
11
1.03327
21
0.494259
0
LINE
8
BLACK
6
CONTINUOUS
10
1.03327
20
0.494259
11
1.0332
21
0.4946
0
LINE
8
BLACK
6
CONTINUOUS
10
1.0332
20
0.4946
11
1.03316
21
0.495541
0
LINE
8
BLACK
6
CONTINUOUS
10
1.03316
20
0.495541
11
1.03314
21
0.496961
0
LINE
8
BLACK
6
CONTINUOUS
10
1.03314
20
0.496961
11
1.03315
21
0.498736
0
LINE
8
BLACK
6
CONTINUOUS
10
1.03315
20
0.498736
11
1.03317
21
0.499905
0
LINE
8
BLACK
6
CONTINUOUS
10
1.03317
20
0.499905
11
1.03327
21
0.505551
0
LINE
8
BLACK
6
CONTINUOUS
10
1.03327
20
0.505551
11
1.04456
21
0.510118
0
LINE
8
BLACK
6
CONTINUOUS
10
1.04456
20
0.510118
11
1.04723
21
0.511206
0
LINE
8
BLACK
6
CONTINUOUS
10
1.04723
20
0.511206
11
1.04968
21
0.512212
0
LINE
8
BLACK
6
CONTINUOUS
10
1.04968
20
0.512212
11
1.05183
21
0.513103
0
LINE
8
BLACK
6
CONTINUOUS
10
1.05183
20
0.513103
11
1.05359
21
0.513847
0
LINE
8
BLACK
6
CONTINUOUS
10
1.05359
20
0.513847
11
1.0549
21
0.514411
0
LINE
8
BLACK
6
CONTINUOUS
10
1.0549
20
0.514411
11
1.05566
21
0.514762
0
LINE
8
BLACK
6
CONTINUOUS
10
1.05566
20
0.514762
11
1.05584
21
0.514866
0
LINE
8
BLACK
6
CONTINUOUS
10
1.05584
20
0.514866
11
1.05556
21
0.515114
0
LINE
8
BLACK
6
CONTINUOUS
10
1.05556
20
0.515114
11
1.05476
21
0.515743
0
LINE
8
BLACK
6
CONTINUOUS
10
1.05476
20
0.515743
11
1.0535
21
0.516705
0
LINE
8
BLACK
6
CONTINUOUS
10
1.0535
20
0.516705
11
1.05185
21
0.517954
0
LINE
8
BLACK
6
CONTINUOUS
10
1.05185
20
0.517954
11
1.04986
21
0.519441
0
LINE
8
BLACK
6
CONTINUOUS
10
1.04986
20
0.519441
11
1.04761
21
0.52112
0
LINE
8
BLACK
6
CONTINUOUS
10
1.04761
20
0.52112
11
1.04515
21
0.522943
0
LINE
8
BLACK
6
CONTINUOUS
10
1.04515
20
0.522943
11
1.0446
21
0.523354
0
LINE
8
BLACK
6
CONTINUOUS
10
1.0446
20
0.523354
11
1.0421
21
0.52521
0
LINE
8
BLACK
6
CONTINUOUS
10
1.0421
20
0.52521
11
1.03978
21
0.526942
0
LINE
8
BLACK
6
CONTINUOUS
10
1.03978
20
0.526942
11
1.03771
21
0.5285
0
LINE
8
BLACK
6
CONTINUOUS
10
1.03771
20
0.5285
11
1.03596
21
0.529836
0
LINE
8
BLACK
6
CONTINUOUS
10
1.03596
20
0.529836
11
1.03459
21
0.5309
0
LINE
8
BLACK
6
CONTINUOUS
10
1.03459
20
0.5309
11
1.03366
21
0.531644
0
LINE
8
BLACK
6
CONTINUOUS
10
1.03366
20
0.531644
11
1.03323
21
0.53202
0
LINE
8
BLACK
6
CONTINUOUS
10
1.03323
20
0.53202
11
1.03321
21
0.532047
0
LINE
8
BLACK
6
CONTINUOUS
10
1.03321
20
0.532047
11
1.03317
21
0.532528
0
LINE
8
BLACK
6
CONTINUOUS
10
1.03317
20
0.532528
11
1.03314
21
0.533595
0
LINE
8
BLACK
6
CONTINUOUS
10
1.03314
20
0.533595
11
1.03314
21
0.535109
0
LINE
8
BLACK
6
CONTINUOUS
10
1.03314
20
0.535109
11
1.03315
21
0.536931
0
LINE
8
BLACK
6
CONTINUOUS
10
1.03315
20
0.536931
11
1.03317
21
0.53779
0
LINE
8
BLACK
6
CONTINUOUS
10
1.03317
20
0.53779
11
1.03327
21
0.543147
0
LINE
8
BLACK
6
CONTINUOUS
10
1.03327
20
0.543147
11
1.04881
21
0.531109
0
LINE
8
BLACK
6
CONTINUOUS
10
0.962886
20
0.536158
11
0.963935
21
0.535984
0
LINE
8
BLACK
6
CONTINUOUS
10
0.963935
20
0.535984
11
0.965587
21
0.535704
0
LINE
8
BLACK
6
CONTINUOUS
10
0.965587
20
0.535704
11
0.96779
21
0.535327
0
LINE
8
BLACK
6
CONTINUOUS
10
0.96779
20
0.535327
11
0.970489
21
0.534862
0
LINE
8
BLACK
6
CONTINUOUS
10
0.970489
20
0.534862
11
0.97363
21
0.534319
0
LINE
8
BLACK
6
CONTINUOUS
10
0.97363
20
0.534319
11
0.977159
21
0.533707
0
LINE
8
BLACK
6
CONTINUOUS
10
0.977159
20
0.533707
11
0.981023
21
0.533035
0
LINE
8
BLACK
6
CONTINUOUS
10
0.981023
20
0.533035
11
0.985166
21
0.532312
0
LINE
8
BLACK
6
CONTINUOUS
10
0.985166
20
0.532312
11
0.989536
21
0.531548
0
LINE
8
BLACK
6
CONTINUOUS
10
0.989536
20
0.531548
11
0.991238
21
0.531251
0
LINE
8
BLACK
6
CONTINUOUS
10
0.991238
20
0.531251
11
1.01971
21
0.526266
0
LINE
8
BLACK
6
CONTINUOUS
10
1.01971
20
0.526266
11
1.01971
21
0.515532
0
LINE
8
BLACK
6
CONTINUOUS
10
1.01971
20
0.515532
11
1.01871
21
0.51574
0
LINE
8
BLACK
6
CONTINUOUS
10
1.01871
20
0.51574
11
1.0182
21
0.515834
0
LINE
8
BLACK
6
CONTINUOUS
10
1.0182
20
0.515834
11
1.01704
21
0.516043
0
LINE
8
BLACK
6
CONTINUOUS
10
1.01704
20
0.516043
11
1.01528
21
0.516356
0
LINE
8
BLACK
6
CONTINUOUS
10
1.01528
20
0.516356
11
1.01298
21
0.516762
0
LINE
8
BLACK
6
CONTINUOUS
10
1.01298
20
0.516762
11
1.01019
21
0.517252
0
LINE
8
BLACK
6
CONTINUOUS
10
1.01019
20
0.517252
11
1.00699
21
0.517816
0
LINE
8
BLACK
6
CONTINUOUS
10
1.00699
20
0.517816
11
1.00341
21
0.518443
0
LINE
8
BLACK
6
CONTINUOUS
10
1.00341
20
0.518443
11
0.999528
21
0.519123
0
LINE
8
BLACK
6
CONTINUOUS
10
0.999528
20
0.519123
11
0.995392
21
0.519847
0
LINE
8
BLACK
6
CONTINUOUS
10
0.995392
20
0.519847
11
0.991062
21
0.520604
0
LINE
8
BLACK
6
CONTINUOUS
10
0.991062
20
0.520604
11
0.990786
21
0.520652
0
LINE
8
BLACK
6
CONTINUOUS
10
0.990786
20
0.520652
11
0.986451
21
0.52141
0
LINE
8
BLACK
6
CONTINUOUS
10
0.986451
20
0.52141
11
0.982311
21
0.522134
0
LINE
8
BLACK
6
CONTINUOUS
10
0.982311
20
0.522134
11
0.978423
21
0.522816
0
LINE
8
BLACK
6
CONTINUOUS
10
0.978423
20
0.522816
11
0.974843
21
0.523445
0
LINE
8
BLACK
6
CONTINUOUS
10
0.974843
20
0.523445
11
0.97163
21
0.52401
0
LINE
8
BLACK
6
CONTINUOUS
10
0.97163
20
0.52401
11
0.96884
21
0.524503
0
LINE
8
BLACK
6
CONTINUOUS
10
0.96884
20
0.524503
11
0.966529
21
0.524912
0
LINE
8
BLACK
6
CONTINUOUS
10
0.966529
20
0.524912
11
0.964756
21
0.525227
0
LINE
8
BLACK
6
CONTINUOUS
10
0.964756
20
0.525227
11
0.963577
21
0.52544
0
LINE
8
BLACK
6
CONTINUOUS
10
0.963577
20
0.52544
11
0.963049
21
0.525539
0
LINE
8
BLACK
6
CONTINUOUS
10
0.963049
20
0.525539
11
0.963038
21
0.525541
0
LINE
8
BLACK
6
CONTINUOUS
10
0.963038
20
0.525541
11
0.962721
21
0.525639
0
LINE
8
BLACK
6
CONTINUOUS
10
0.962721
20
0.525639
11
0.962499
21
0.525839
0
LINE
8
BLACK
6
CONTINUOUS
10
0.962499
20
0.525839
11
0.962356
21
0.526256
0
LINE
8
BLACK
6
CONTINUOUS
10
0.962356
20
0.526256
11
0.962274
21
0.527003
0
LINE
8
BLACK
6
CONTINUOUS
10
0.962274
20
0.527003
11
0.962236
21
0.528193
0
LINE
8
BLACK
6
CONTINUOUS
10
0.962236
20
0.528193
11
0.962225
21
0.529941
0
LINE
8
BLACK
6
CONTINUOUS
10
0.962225
20
0.529941
11
0.962225
21
0.530961
0
LINE
8
BLACK
6
CONTINUOUS
10
0.962225
20
0.530961
11
0.962242
21
0.532816
0
LINE
8
BLACK
6
CONTINUOUS
10
0.962242
20
0.532816
11
0.962291
21
0.534384
0
LINE
8
BLACK
6
CONTINUOUS
10
0.962291
20
0.534384
11
0.962364
21
0.535538
0
LINE
8
BLACK
6
CONTINUOUS
10
0.962364
20
0.535538
11
0.962454
21
0.536151
0
LINE
8
BLACK
6
CONTINUOUS
10
0.962454
20
0.536151
11
0.962496
21
0.536216
0
LINE
8
BLACK
6
CONTINUOUS
10
0.962496
20
0.536216
11
0.962886
21
0.536158
0
CIRCLE
8
BLACK
10
0.492126
20
0.590551
40
0.00688976
0
CIRCLE
8
BLACK
10
0.492126
20
0
40
0.00688976
0
CIRCLE
8
BLACK
10
0.0984252
20
0.590551
40
0.00688976
0
CIRCLE
8
BLACK
10
0.885827
20
0
40
0.00688976
0
CIRCLE
8
BLACK
10
0.885827
20
0.590551
40
0.00688976
0
CIRCLE
8
BLACK
10
0.0984252
20
0
40
0.00688976
  0
ENDSEC
  0
EOF
