  0
SECTION
  2
HEADER
  9
$ANGBASE
  50
0.0
  9
$ANGDIR
  70
1
  9
$MEASUREMENT
  70
0
  0
ENDSEC
  0
SECTION
  2
TABLES
  0
TABLE
  2
LTYPE
  70
4
  0
LTYPE
  5
40F
  2
CONTINUOUS
  70
0
  3
Solid line
  72
65
  73
0
  40
0.0
  0
LTYPE
  5
410
  2
DASHDOT
 70
0
  3
Dash Dot ____ _ ____ _
 72
65
 73
4
 40
2.0
 49
1.25
 49
-0.25
 49
0.25
 49
-0.25
  0
LTYPE
  5
411
  2
DASHED
 70
0
  3
Dashed __ __ __ __ __
 72
65
 73
2
 40
0.75
 49
0.5
 49
-0.25
  0
LTYPE
  5
43B
  2
DOTTED
 70
0
  3
Dotted .  .  .  .
 72
65
 73
2
 40
0.2
 49
0.0
 49
-0.2
  0
ENDTAB
  0
TABLE
  2
STYLE
  70
4
  0
STYLE
  2
KICAD
  70
0
  40
0
  41
1
  42
1
  50
0
  71
0
  3
isocp.shx
  0
STYLE
  2
KICADB
  70
0
  40
0
  41
1
  42
1
  50
0
  71
0
  3
isocp.shx
  0
STYLE
  2
KICADI
  70
0
  40
0
  41
1
  42
1
  50
15
  71
0
  3
isocp.shx
  0
STYLE
  2
KICADBI
  70
0
  40
0
  41
1
  42
1
  50
15
  71
0
  3
isocp.shx
  0
ENDTAB
  0
TABLE
  2
LAYER
  70
1
  0
LAYER
  2
BLACK
  70
0
  62
7
  6
CONTINUOUS
  0
ENDTAB
  0
ENDSEC
  0
SECTION
  2
ENTITIES
0
LINE
8
BLACK
6
CONTINUOUS
10
0.1249491732283464
20
0.2850762992125984
11
0.1250269291338583
21
0.2850818110236221
0
LINE
8
BLACK
6
CONTINUOUS
10
0.1250269291338583
20
0.2850818110236221
11
0.1251291732283465
21
0.2850585826771653
0
LINE
8
BLACK
6
CONTINUOUS
10
0.1251291732283465
20
0.2850585826771653
11
0.1252337007874016
21
0.2850482677165354
0
LINE
8
BLACK
6
CONTINUOUS
10
0.1252337007874016
20
0.2850482677165354
11
0.1253057874015748
21
0.2850184251968504
0
LINE
8
BLACK
6
CONTINUOUS
10
0.1253057874015748
20
0.2850184251968504
11
0.1255913779527559
21
0.2849534645669291
0
LINE
8
BLACK
6
CONTINUOUS
10
0.1255913779527559
20
0.2849534645669291
11
0.1312156692913386
21
0.2830787007874015
0
LINE
8
BLACK
6
CONTINUOUS
10
0.1312156692913386
20
0.2830787007874015
11
0.1317442125984252
21
0.2828427165354331
0
LINE
8
BLACK
6
CONTINUOUS
10
0.1317442125984252
20
0.2828427165354331
11
0.1318242913385827
21
0.2827732677165354
0
LINE
8
BLACK
6
CONTINUOUS
10
0.1318242913385827
20
0.2827732677165354
11
0.1319223622047244
21
0.2827326377952756
0
LINE
8
BLACK
6
CONTINUOUS
10
0.1319223622047244
20
0.2827326377952756
11
0.132369842519685
21
0.2823653937007874
0
LINE
8
BLACK
6
CONTINUOUS
10
0.132369842519685
20
0.2823653937007874
11
0.1361194094488189
21
0.2786158661417323
0
LINE
8
BLACK
6
CONTINUOUS
10
0.1361194094488189
20
0.2786158661417323
11
0.1364866535433071
21
0.2781684251968504
0
LINE
8
BLACK
6
CONTINUOUS
10
0.1364866535433071
20
0.2781684251968504
11
0.1365272440944882
21
0.2780703937007874
0
LINE
8
BLACK
6
CONTINUOUS
10
0.1365272440944882
20
0.2780703937007874
11
0.1365967322834646
21
0.2779902755905512
0
LINE
8
BLACK
6
CONTINUOUS
10
0.1365967322834646
20
0.2779902755905512
11
0.1368327165354331
21
0.2774616929133858
0
LINE
8
BLACK
6
CONTINUOUS
10
0.1368327165354331
20
0.2774616929133858
11
0.1387074803149606
21
0.2718374409448819
0
LINE
8
BLACK
6
CONTINUOUS
10
0.1387074803149606
20
0.2718374409448819
11
0.1387724015748031
21
0.271551811023622
0
LINE
8
BLACK
6
CONTINUOUS
10
0.1387724015748031
20
0.271551811023622
11
0.1388022834645669
21
0.2714797244094488
0
LINE
8
BLACK
6
CONTINUOUS
10
0.1388022834645669
20
0.2714797244094488
11
0.1388125590551181
21
0.2713752755905512
0
LINE
8
BLACK
6
CONTINUOUS
10
0.1388125590551181
20
0.2713752755905512
11
0.1388358267716535
21
0.2712729921259843
0
LINE
8
BLACK
6
CONTINUOUS
10
0.1388358267716535
20
0.2712729921259843
11
0.1388302755905512
21
0.2711952755905512
0
LINE
8
BLACK
6
CONTINUOUS
10
0.1388302755905512
20
0.2711952755905512
11
0.1388590157480315
21
0.2709036614173228
0
LINE
8
BLACK
6
CONTINUOUS
10
0.1388590157480315
20
0.2709036614173228
11
0.1388590157480315
21
0.2671541338582677
0
LINE
8
BLACK
6
CONTINUOUS
10
0.1388590157480315
20
0.2671541338582677
11
0.1388022834645669
21
0.2665780708661417
0
LINE
8
BLACK
6
CONTINUOUS
10
0.1388022834645669
20
0.2665780708661417
11
0.1383613779527559
21
0.2655136614173229
0
LINE
8
BLACK
6
CONTINUOUS
10
0.1383613779527559
20
0.2655136614173229
11
0.1375467322834646
21
0.2646990157480315
0
LINE
8
BLACK
6
CONTINUOUS
10
0.1375467322834646
20
0.2646990157480315
11
0.1364823228346457
21
0.2642581102362205
0
LINE
8
BLACK
6
CONTINUOUS
10
0.1364823228346457
20
0.2642581102362205
11
0.1353301968503937
21
0.2642581102362205
0
LINE
8
BLACK
6
CONTINUOUS
10
0.1353301968503937
20
0.2642581102362205
11
0.1342657874015748
21
0.2646990157480315
0
LINE
8
BLACK
6
CONTINUOUS
10
0.1342657874015748
20
0.2646990157480315
11
0.1334511417322835
21
0.2655136614173229
0
LINE
8
BLACK
6
CONTINUOUS
10
0.1334511417322835
20
0.2655136614173229
11
0.1330102362204724
21
0.2665780708661417
0
LINE
8
BLACK
6
CONTINUOUS
10
0.1330102362204724
20
0.2665780708661417
11
0.1329535039370079
21
0.2671541338582677
0
LINE
8
BLACK
6
CONTINUOUS
10
0.1329535039370079
20
0.2671541338582677
11
0.1329535039370079
21
0.2704245275590551
0
LINE
8
BLACK
6
CONTINUOUS
10
0.1329535039370079
20
0.2704245275590551
11
0.1314507086614173
21
0.2749329133858268
0
LINE
8
BLACK
6
CONTINUOUS
10
0.1314507086614173
20
0.2749329133858268
11
0.1286868897637795
21
0.2776966929133858
0
LINE
8
BLACK
6
CONTINUOUS
10
0.1286868897637795
20
0.2776966929133858
11
0.1241785039370079
21
0.2791994881889764
0
LINE
8
BLACK
6
CONTINUOUS
10
0.1241785039370079
20
0.2791994881889764
11
0.0965361811023622
21
0.2791994881889764
0
LINE
8
BLACK
6
CONTINUOUS
10
0.0965361811023622
20
0.2791994881889764
11
0.0959601181102362
21
0.2792562204724409
0
LINE
8
BLACK
6
CONTINUOUS
10
0.0959601181102362
20
0.2792562204724409
11
0.0948957086614173
21
0.2796971259842519
0
LINE
8
BLACK
6
CONTINUOUS
10
0.0948957086614173
20
0.2796971259842519
11
0.094081062992126
21
0.2805117716535433
0
LINE
8
BLACK
6
CONTINUOUS
10
0.094081062992126
20
0.2805117716535433
11
0.093640157480315
21
0.2815761811023622
0
LINE
8
BLACK
6
CONTINUOUS
10
0.093640157480315
20
0.2815761811023622
11
0.093640157480315
21
0.2827283070866142
0
LINE
8
BLACK
6
CONTINUOUS
10
0.093640157480315
20
0.2827283070866142
11
0.094081062992126
21
0.2837927165354331
0
LINE
8
BLACK
6
CONTINUOUS
10
0.094081062992126
20
0.2837927165354331
11
0.0948957086614173
21
0.2846073622047244
0
LINE
8
BLACK
6
CONTINUOUS
10
0.0948957086614173
20
0.2846073622047244
11
0.0959601181102362
21
0.2850482677165354
0
LINE
8
BLACK
6
CONTINUOUS
10
0.0959601181102362
20
0.2850482677165354
11
0.0965361811023622
21
0.285105
0
LINE
8
BLACK
6
CONTINUOUS
10
0.0965361811023622
20
0.285105
11
0.1246576377952756
21
0.285105
0
LINE
8
BLACK
6
CONTINUOUS
10
0.1246576377952756
20
0.285105
11
0.1249491732283464
21
0.2850762992125984
0
LINE
8
BLACK
6
CONTINUOUS
10
0.1080762992125984
20
0.3244463779527559
11
0.1081540551181102
21
0.3244518897637795
0
LINE
8
BLACK
6
CONTINUOUS
10
0.1081540551181102
20
0.3244518897637795
11
0.1082562992125984
21
0.3244286614173229
0
LINE
8
BLACK
6
CONTINUOUS
10
0.1082562992125984
20
0.3244286614173229
11
0.1083608267716535
21
0.3244183464566929
0
LINE
8
BLACK
6
CONTINUOUS
10
0.1083608267716535
20
0.3244183464566929
11
0.1084329133858268
21
0.3243885039370079
0
LINE
8
BLACK
6
CONTINUOUS
10
0.1084329133858268
20
0.3243885039370079
11
0.1087185039370079
21
0.3243235433070866
0
LINE
8
BLACK
6
CONTINUOUS
10
0.1087185039370079
20
0.3243235433070866
11
0.1143427952755905
21
0.3224487795275591
0
LINE
8
BLACK
6
CONTINUOUS
10
0.1143427952755905
20
0.3224487795275591
11
0.1148713385826772
21
0.3222127952755905
0
LINE
8
BLACK
6
CONTINUOUS
10
0.1148713385826772
20
0.3222127952755905
11
0.1149514566929134
21
0.3221433070866142
0
LINE
8
BLACK
6
CONTINUOUS
10
0.1149514566929134
20
0.3221433070866142
11
0.1150495275590551
21
0.3221026771653543
0
LINE
8
BLACK
6
CONTINUOUS
10
0.1150495275590551
20
0.3221026771653543
11
0.115496968503937
21
0.3217354724409449
0
LINE
8
BLACK
6
CONTINUOUS
10
0.115496968503937
20
0.3217354724409449
11
0.1329535039370079
21
0.3042789763779528
0
LINE
8
BLACK
6
CONTINUOUS
10
0.1329535039370079
20
0.3042789763779528
11
0.1329535039370079
21
0.3215223228346457
0
LINE
8
BLACK
6
CONTINUOUS
10
0.1329535039370079
20
0.3215223228346457
11
0.1330102362204724
21
0.3220983858267716
0
LINE
8
BLACK
6
CONTINUOUS
10
0.1330102362204724
20
0.3220983858267716
11
0.1334511417322835
21
0.3231627952755906
0
LINE
8
BLACK
6
CONTINUOUS
10
0.1334511417322835
20
0.3231627952755906
11
0.1342657874015748
21
0.3239774409448819
0
LINE
8
BLACK
6
CONTINUOUS
10
0.1342657874015748
20
0.3239774409448819
11
0.1353301968503937
21
0.3244183464566929
0
LINE
8
BLACK
6
CONTINUOUS
10
0.1353301968503937
20
0.3244183464566929
11
0.1364823228346457
21
0.3244183464566929
0
LINE
8
BLACK
6
CONTINUOUS
10
0.1364823228346457
20
0.3244183464566929
11
0.1375467322834646
21
0.3239774409448819
0
LINE
8
BLACK
6
CONTINUOUS
10
0.1375467322834646
20
0.3239774409448819
11
0.1383613779527559
21
0.3231627952755906
0
LINE
8
BLACK
6
CONTINUOUS
10
0.1383613779527559
20
0.3231627952755906
11
0.1388022834645669
21
0.3220983858267716
0
LINE
8
BLACK
6
CONTINUOUS
10
0.1388022834645669
20
0.3220983858267716
11
0.1388590157480315
21
0.3215223228346457
0
LINE
8
BLACK
6
CONTINUOUS
10
0.1388590157480315
20
0.3215223228346457
11
0.1388590157480315
21
0.2971503937007874
0
LINE
8
BLACK
6
CONTINUOUS
10
0.1388590157480315
20
0.2971503937007874
11
0.1388022834645669
21
0.2965743307086614
0
LINE
8
BLACK
6
CONTINUOUS
10
0.1388022834645669
20
0.2965743307086614
11
0.1386731496062992
21
0.2962625984251969
0
LINE
8
BLACK
6
CONTINUOUS
10
0.1386731496062992
20
0.2962625984251969
11
0.1383614173228346
21
0.2955099212598425
0
LINE
8
BLACK
6
CONTINUOUS
10
0.1383614173228346
20
0.2955099212598425
11
0.1375467322834646
21
0.2946952755905512
0
LINE
8
BLACK
6
CONTINUOUS
10
0.1375467322834646
20
0.2946952755905512
11
0.1364823228346457
21
0.2942543700787402
0
LINE
8
BLACK
6
CONTINUOUS
10
0.1364823228346457
20
0.2942543700787402
11
0.1353302362204724
21
0.2942543700787402
0
LINE
8
BLACK
6
CONTINUOUS
10
0.1353302362204724
20
0.2942543700787402
11
0.1353301968503937
21
0.2942543700787402
0
LINE
8
BLACK
6
CONTINUOUS
10
0.1353301968503937
20
0.2942543700787402
11
0.1350184251968504
21
0.2943835039370079
0
LINE
8
BLACK
6
CONTINUOUS
10
0.1350184251968504
20
0.2943835039370079
11
0.1342657874015748
21
0.2946952362204724
0
LINE
8
BLACK
6
CONTINUOUS
10
0.1342657874015748
20
0.2946952362204724
11
0.1338183464566929
21
0.2950624803149606
0
LINE
8
BLACK
6
CONTINUOUS
10
0.1338183464566929
20
0.2950624803149606
11
0.1118140157480315
21
0.3170667716535433
0
LINE
8
BLACK
6
CONTINUOUS
10
0.1118140157480315
20
0.3170667716535433
11
0.1073056299212598
21
0.3185695669291339
0
LINE
8
BLACK
6
CONTINUOUS
10
0.1073056299212598
20
0.3185695669291339
11
0.1047322834645669
21
0.3185695669291339
0
LINE
8
BLACK
6
CONTINUOUS
10
0.1047322834645669
20
0.3185695669291339
11
0.1020348031496063
21
0.3172208267716535
0
LINE
8
BLACK
6
CONTINUOUS
10
0.1020348031496063
20
0.3172208267716535
11
0.1008376771653543
21
0.3160237007874016
0
LINE
8
BLACK
6
CONTINUOUS
10
0.1008376771653543
20
0.3160237007874016
11
0.099488937007874
21
0.313326220472441
0
LINE
8
BLACK
6
CONTINUOUS
10
0.099488937007874
20
0.313326220472441
11
0.099488937007874
21
0.3053464960629921
0
LINE
8
BLACK
6
CONTINUOUS
10
0.099488937007874
20
0.3053464960629921
11
0.1008376771653543
21
0.3026490157480315
0
LINE
8
BLACK
6
CONTINUOUS
10
0.1008376771653543
20
0.3026490157480315
11
0.1023736220472441
21
0.3011130708661418
0
LINE
8
BLACK
6
CONTINUOUS
10
0.1023736220472441
20
0.3011130708661418
11
0.1027408267716535
21
0.3006656299212598
0
LINE
8
BLACK
6
CONTINUOUS
10
0.1027408267716535
20
0.3006656299212598
11
0.1031817322834646
21
0.2996012204724409
0
LINE
8
BLACK
6
CONTINUOUS
10
0.1031817322834646
20
0.2996012204724409
11
0.1031817322834646
21
0.2984491338582677
0
LINE
8
BLACK
6
CONTINUOUS
10
0.1031817322834646
20
0.2984491338582677
11
0.1027408267716535
21
0.2973847244094488
0
LINE
8
BLACK
6
CONTINUOUS
10
0.1027408267716535
20
0.2973847244094488
11
0.1019261417322835
21
0.2965700393700788
0
LINE
8
BLACK
6
CONTINUOUS
10
0.1019261417322835
20
0.2965700393700788
11
0.1008617322834646
21
0.2961291338582677
0
LINE
8
BLACK
6
CONTINUOUS
10
0.1008617322834646
20
0.2961291338582677
11
0.0997096456692913
21
0.2961291338582677
0
LINE
8
BLACK
6
CONTINUOUS
10
0.0997096456692913
20
0.2961291338582677
11
0.0986452362204724
21
0.2965700393700788
0
LINE
8
BLACK
6
CONTINUOUS
10
0.0986452362204724
20
0.2965700393700788
11
0.0981977952755906
21
0.2969372440944882
0
LINE
8
BLACK
6
CONTINUOUS
10
0.0981977952755906
20
0.2969372440944882
11
0.096323031496063
21
0.2988120078740157
0
LINE
8
BLACK
6
CONTINUOUS
10
0.096323031496063
20
0.2988120078740157
11
0.0961372440944882
21
0.2990383858267717
0
LINE
8
BLACK
6
CONTINUOUS
10
0.0961372440944882
20
0.2990383858267717
11
0.0960782677165354
21
0.2990895275590551
0
LINE
8
BLACK
6
CONTINUOUS
10
0.0960782677165354
20
0.2990895275590551
11
0.0960222834645669
21
0.2991785039370078
0
LINE
8
BLACK
6
CONTINUOUS
10
0.0960222834645669
20
0.2991785039370078
11
0.0959558267716535
21
0.2992594488188977
0
LINE
8
BLACK
6
CONTINUOUS
10
0.0959558267716535
20
0.2992594488188977
11
0.0959259842519685
21
0.2993314173228346
0
LINE
8
BLACK
6
CONTINUOUS
10
0.0959259842519685
20
0.2993314173228346
11
0.0957699212598425
21
0.2995794094488189
0
LINE
8
BLACK
6
CONTINUOUS
10
0.0957699212598425
20
0.2995794094488189
11
0.093895157480315
21
0.303328937007874
0
LINE
8
BLACK
6
CONTINUOUS
10
0.093895157480315
20
0.303328937007874
11
0.0936882677165354
21
0.3038695669291339
0
LINE
8
BLACK
6
CONTINUOUS
10
0.0936882677165354
20
0.3038695669291339
11
0.0936807480314961
21
0.3039753937007874
0
LINE
8
BLACK
6
CONTINUOUS
10
0.0936807480314961
20
0.3039753937007874
11
0.093640157480315
21
0.3040733858267716
0
LINE
8
BLACK
6
CONTINUOUS
10
0.093640157480315
20
0.3040733858267716
11
0.0935834251968504
21
0.3046494488188976
0
LINE
8
BLACK
6
CONTINUOUS
10
0.0935834251968504
20
0.3046494488188976
11
0.0935834251968504
21
0.3140232677165354
0
LINE
8
BLACK
6
CONTINUOUS
10
0.0935834251968504
20
0.3140232677165354
11
0.093640157480315
21
0.3145993307086614
0
LINE
8
BLACK
6
CONTINUOUS
10
0.093640157480315
20
0.3145993307086614
11
0.0936807480314961
21
0.3146973622047244
0
LINE
8
BLACK
6
CONTINUOUS
10
0.0936807480314961
20
0.3146973622047244
11
0.0936882677165354
21
0.3148031496062992
0
LINE
8
BLACK
6
CONTINUOUS
10
0.0936882677165354
20
0.3148031496062992
11
0.093895157480315
21
0.315343779527559
0
LINE
8
BLACK
6
CONTINUOUS
10
0.093895157480315
20
0.315343779527559
11
0.0957699212598425
21
0.3190933070866142
0
LINE
8
BLACK
6
CONTINUOUS
10
0.0957699212598425
20
0.3190933070866142
11
0.0959259842519685
21
0.3193413385826772
0
LINE
8
BLACK
6
CONTINUOUS
10
0.0959259842519685
20
0.3193413385826772
11
0.0959558267716535
21
0.3194132677165354
0
LINE
8
BLACK
6
CONTINUOUS
10
0.0959558267716535
20
0.3194132677165354
11
0.0960222834645669
21
0.319494251968504
0
LINE
8
BLACK
6
CONTINUOUS
10
0.0960222834645669
20
0.319494251968504
11
0.0960782677165354
21
0.3195831889763779
0
LINE
8
BLACK
6
CONTINUOUS
10
0.0960782677165354
20
0.3195831889763779
11
0.0961372440944882
21
0.3196343700787401
0
LINE
8
BLACK
6
CONTINUOUS
10
0.0961372440944882
20
0.3196343700787401
11
0.096323031496063
21
0.3198607086614173
0
LINE
8
BLACK
6
CONTINUOUS
10
0.096323031496063
20
0.3198607086614173
11
0.0981977952755906
21
0.3217354724409449
0
LINE
8
BLACK
6
CONTINUOUS
10
0.0981977952755906
20
0.3217354724409449
11
0.0984241338582677
21
0.3219212598425197
0
LINE
8
BLACK
6
CONTINUOUS
10
0.0984241338582677
20
0.3219212598425197
11
0.0984753149606299
21
0.3219802362204724
0
LINE
8
BLACK
6
CONTINUOUS
10
0.0984753149606299
20
0.3219802362204724
11
0.0985642519685039
21
0.322036220472441
0
LINE
8
BLACK
6
CONTINUOUS
10
0.0985642519685039
20
0.322036220472441
11
0.0986452362204724
21
0.3221026771653543
0
LINE
8
BLACK
6
CONTINUOUS
10
0.0986452362204724
20
0.3221026771653543
11
0.0987171653543307
21
0.3221325196850394
0
LINE
8
BLACK
6
CONTINUOUS
10
0.0987171653543307
20
0.3221325196850394
11
0.0989651968503937
21
0.3222885826771654
0
LINE
8
BLACK
6
CONTINUOUS
10
0.0989651968503937
20
0.3222885826771654
11
0.1027147244094488
21
0.3241633464566929
0
LINE
8
BLACK
6
CONTINUOUS
10
0.1027147244094488
20
0.3241633464566929
11
0.1032553149606299
21
0.3243702362204725
0
LINE
8
BLACK
6
CONTINUOUS
10
0.1032553149606299
20
0.3243702362204725
11
0.1033611811023622
21
0.3243777952755905
0
LINE
8
BLACK
6
CONTINUOUS
10
0.1033611811023622
20
0.3243777952755905
11
0.1034591732283465
21
0.3244183464566929
0
LINE
8
BLACK
6
CONTINUOUS
10
0.1034591732283465
20
0.3244183464566929
11
0.1040352362204724
21
0.3244750787401575
0
LINE
8
BLACK
6
CONTINUOUS
10
0.1040352362204724
20
0.3244750787401575
11
0.1077847637795276
21
0.3244750787401575
0
LINE
8
BLACK
6
CONTINUOUS
10
0.1077847637795276
20
0.3244750787401575
11
0.1080762992125984
21
0.3244463779527559
0
LINE
8
BLACK
6
CONTINUOUS
10
0.1817454330708661
20
0.4594958267716535
11
0.1828107874015748
21
0.4584304724409449
0
LINE
8
BLACK
6
CONTINUOUS
10
0.1828107874015748
20
0.4584304724409449
11
0.1829606299212598
21
0.4576771653543307
0
LINE
8
BLACK
6
CONTINUOUS
10
0.1829606299212598
20
0.4576771653543307
11
0.1829606299212598
21
0.1328740157480315
0
LINE
8
BLACK
6
CONTINUOUS
10
0.1829606299212598
20
0.1328740157480315
11
0.1828107874015748
21
0.1321207086614173
0
LINE
8
BLACK
6
CONTINUOUS
10
0.1828107874015748
20
0.1321207086614173
11
0.1817454330708661
21
0.1310553543307087
0
LINE
8
BLACK
6
CONTINUOUS
10
0.1817454330708661
20
0.1310553543307087
11
0.180992125984252
21
0.1309055118110236
0
LINE
8
BLACK
6
CONTINUOUS
10
0.180992125984252
20
0.1309055118110236
11
0.0215433070866142
21
0.1309055118110236
0
LINE
8
BLACK
6
CONTINUOUS
10
0.0215433070866142
20
0.1309055118110236
11
0.02079
21
0.1310553543307087
0
LINE
8
BLACK
6
CONTINUOUS
10
0.02079
20
0.1310553543307087
11
0.0197246456692913
21
0.1321207086614173
0
LINE
8
BLACK
6
CONTINUOUS
10
0.0197246456692913
20
0.1321207086614173
11
0.0195748031496063
21
0.1328740157480315
0
LINE
8
BLACK
6
CONTINUOUS
10
0.0195748031496063
20
0.1328740157480315
11
0.0195748031496063
21
0.4576771653543307
0
LINE
8
BLACK
6
CONTINUOUS
10
0.0195748031496063
20
0.4576771653543307
11
0.0197246456692913
21
0.4584304724409449
0
LINE
8
BLACK
6
CONTINUOUS
10
0.0197246456692913
20
0.4584304724409449
11
0.02079
21
0.4594958267716535
0
LINE
8
BLACK
6
CONTINUOUS
10
0.02079
20
0.4594958267716535
11
0.0215433070866142
21
0.4596456692913386
0
LINE
8
BLACK
6
CONTINUOUS
10
0.0215433070866142
20
0.4596456692913386
11
0.180992125984252
21
0.4596456692913386
0
LINE
8
BLACK
6
CONTINUOUS
10
0.180992125984252
20
0.4596456692913386
11
0.1817454330708661
21
0.4594958267716535
0
LINE
8
BLACK
6
CONTINUOUS
10
0.023511811023622
20
0.4557086614173228
11
0.023511811023622
21
0.1348425196850394
0
LINE
8
BLACK
6
CONTINUOUS
10
0.023511811023622
20
0.1348425196850394
11
0.1790236220472441
21
0.1348425196850394
0
LINE
8
BLACK
6
CONTINUOUS
10
0.1790236220472441
20
0.1348425196850394
11
0.1790236220472441
21
0.3483905118110236
0
LINE
8
BLACK
6
CONTINUOUS
10
0.1790236220472441
20
0.3483905118110236
11
0.1520167322834646
21
0.3674872047244094
0
LINE
8
BLACK
6
CONTINUOUS
10
0.1520167322834646
20
0.3674872047244094
11
0.1514881889763779
21
0.3680444881889764
0
LINE
8
BLACK
6
CONTINUOUS
10
0.1514881889763779
20
0.3680444881889764
11
0.1514304330708661
21
0.368380905511811
0
LINE
8
BLACK
6
CONTINUOUS
10
0.1514304330708661
20
0.368380905511811
11
0.1512334251968504
21
0.3686595669291339
0
LINE
8
BLACK
6
CONTINUOUS
10
0.1512334251968504
20
0.3686595669291339
11
0.151308031496063
21
0.3690944881889764
0
LINE
8
BLACK
6
CONTINUOUS
10
0.151308031496063
20
0.3690944881889764
11
0.1512334251968504
21
0.3695294094488189
0
LINE
8
BLACK
6
CONTINUOUS
10
0.1512334251968504
20
0.3695294094488189
11
0.1514304330708661
21
0.3698081102362205
0
LINE
8
BLACK
6
CONTINUOUS
10
0.1514304330708661
20
0.3698081102362205
11
0.1514881889763779
21
0.3701444881889764
0
LINE
8
BLACK
6
CONTINUOUS
10
0.1514881889763779
20
0.3701444881889764
11
0.1520167322834646
21
0.3707017716535433
0
LINE
8
BLACK
6
CONTINUOUS
10
0.1520167322834646
20
0.3707017716535433
11
0.1790236220472441
21
0.3897985039370079
0
LINE
8
BLACK
6
CONTINUOUS
10
0.1790236220472441
20
0.3897985039370079
11
0.1790236220472441
21
0.4557086614173228
0
LINE
8
BLACK
6
CONTINUOUS
10
0.1790236220472441
20
0.4557086614173228
11
0.023511811023622
21
0.4557086614173228
0
LINE
8
BLACK
6
CONTINUOUS
10
0.1565628346456693
20
0.3690944881889764
11
0.1790236220472441
21
0.3532123622047244
0
LINE
8
BLACK
6
CONTINUOUS
10
0.1790236220472441
20
0.3532123622047244
11
0.1790236220472441
21
0.3849766535433071
0
LINE
8
BLACK
6
CONTINUOUS
10
0.1790236220472441
20
0.3849766535433071
11
0.1565628346456693
21
0.3690944881889764
0
LINE
8
BLACK
6
CONTINUOUS
10
0.4281083858267716
20
0.5343798031496063
11
0.4290300787401575
21
0.5336885039370078
0
LINE
8
BLACK
6
CONTINUOUS
10
0.4290300787401575
20
0.5336885039370078
11
0.4296170472440945
21
0.532697125984252
0
LINE
8
BLACK
6
CONTINUOUS
10
0.4296170472440945
20
0.532697125984252
11
0.42978
21
0.5315566535433071
0
LINE
8
BLACK
6
CONTINUOUS
10
0.42978
20
0.5315566535433071
11
0.429494094488189
21
0.5304405511811023
0
LINE
8
BLACK
6
CONTINUOUS
10
0.429494094488189
20
0.5304405511811023
11
0.4291938188976378
21
0.5299456692913386
0
LINE
8
BLACK
6
CONTINUOUS
10
0.4291938188976378
20
0.5299456692913386
11
0.4138574803149606
21
0.5094972047244094
0
LINE
8
BLACK
6
CONTINUOUS
10
0.4138574803149606
20
0.5094972047244094
11
0.4289195275590551
21
0.494435157480315
0
LINE
8
BLACK
6
CONTINUOUS
10
0.4289195275590551
20
0.494435157480315
11
0.4292867322834645
21
0.4939877165354331
0
LINE
8
BLACK
6
CONTINUOUS
10
0.4292867322834645
20
0.4939877165354331
11
0.4297276377952756
21
0.4929233070866141
0
LINE
8
BLACK
6
CONTINUOUS
10
0.4297276377952756
20
0.4929233070866141
11
0.4297276377952756
21
0.4917712204724409
0
LINE
8
BLACK
6
CONTINUOUS
10
0.4297276377952756
20
0.4917712204724409
11
0.4292867322834645
21
0.4907067716535433
0
LINE
8
BLACK
6
CONTINUOUS
10
0.4292867322834645
20
0.4907067716535433
11
0.4284720866141732
21
0.489892125984252
0
LINE
8
BLACK
6
CONTINUOUS
10
0.4284720866141732
20
0.489892125984252
11
0.4274076377952756
21
0.4894512204724409
0
LINE
8
BLACK
6
CONTINUOUS
10
0.4274076377952756
20
0.4894512204724409
11
0.4262555511811024
21
0.4894512204724409
0
LINE
8
BLACK
6
CONTINUOUS
10
0.4262555511811024
20
0.4894512204724409
11
0.4251911417322835
21
0.489892125984252
0
LINE
8
BLACK
6
CONTINUOUS
10
0.4251911417322835
20
0.489892125984252
11
0.4247437007874016
21
0.4902593307086614
0
LINE
8
BLACK
6
CONTINUOUS
10
0.4247437007874016
20
0.4902593307086614
11
0.4072872047244094
21
0.5077158267716535
0
LINE
8
BLACK
6
CONTINUOUS
10
0.4072872047244094
20
0.5077158267716535
11
0.4072872047244094
21
0.4923472440944882
0
LINE
8
BLACK
6
CONTINUOUS
10
0.4072872047244094
20
0.4923472440944882
11
0.4072304724409448
21
0.4917711811023622
0
LINE
8
BLACK
6
CONTINUOUS
10
0.4072304724409448
20
0.4917711811023622
11
0.4067895669291339
21
0.4907067716535433
0
LINE
8
BLACK
6
CONTINUOUS
10
0.4067895669291339
20
0.4907067716535433
11
0.4059749212598425
21
0.489892125984252
0
LINE
8
BLACK
6
CONTINUOUS
10
0.4059749212598425
20
0.489892125984252
11
0.4049105118110236
21
0.4894512204724409
0
LINE
8
BLACK
6
CONTINUOUS
10
0.4049105118110236
20
0.4894512204724409
11
0.4037583858267716
21
0.4894512204724409
0
LINE
8
BLACK
6
CONTINUOUS
10
0.4037583858267716
20
0.4894512204724409
11
0.4026939763779527
21
0.489892125984252
0
LINE
8
BLACK
6
CONTINUOUS
10
0.4026939763779527
20
0.489892125984252
11
0.4018793307086614
21
0.4907067716535433
0
LINE
8
BLACK
6
CONTINUOUS
10
0.4018793307086614
20
0.4907067716535433
11
0.4014384251968504
21
0.4917711811023622
0
LINE
8
BLACK
6
CONTINUOUS
10
0.4014384251968504
20
0.4917711811023622
11
0.4013816929133858
21
0.4923472440944882
0
LINE
8
BLACK
6
CONTINUOUS
10
0.4013816929133858
20
0.4923472440944882
11
0.4013816929133858
21
0.5317173228346457
0
LINE
8
BLACK
6
CONTINUOUS
10
0.4013816929133858
20
0.5317173228346457
11
0.4014384251968504
21
0.5322933858267717
0
LINE
8
BLACK
6
CONTINUOUS
10
0.4014384251968504
20
0.5322933858267717
11
0.4018793307086614
21
0.5333577952755906
0
LINE
8
BLACK
6
CONTINUOUS
10
0.4018793307086614
20
0.5333577952755906
11
0.4026939763779527
21
0.5341724409448819
0
LINE
8
BLACK
6
CONTINUOUS
10
0.4026939763779527
20
0.5341724409448819
11
0.4037583858267716
21
0.5346133464566929
0
LINE
8
BLACK
6
CONTINUOUS
10
0.4037583858267716
20
0.5346133464566929
11
0.4049105118110236
21
0.5346133464566929
0
LINE
8
BLACK
6
CONTINUOUS
10
0.4049105118110236
20
0.5346133464566929
11
0.4059749212598425
21
0.5341724409448819
0
LINE
8
BLACK
6
CONTINUOUS
10
0.4059749212598425
20
0.5341724409448819
11
0.4067895669291339
21
0.5333577952755906
0
LINE
8
BLACK
6
CONTINUOUS
10
0.4067895669291339
20
0.5333577952755906
11
0.4072304724409448
21
0.5322933858267717
0
LINE
8
BLACK
6
CONTINUOUS
10
0.4072304724409448
20
0.5322933858267717
11
0.4072872047244094
21
0.5317173228346457
0
LINE
8
BLACK
6
CONTINUOUS
10
0.4072872047244094
20
0.5317173228346457
11
0.4072872047244094
21
0.5160674803149606
0
LINE
8
BLACK
6
CONTINUOUS
10
0.4072872047244094
20
0.5160674803149606
11
0.4096392519685039
21
0.5137154330708661
0
LINE
8
BLACK
6
CONTINUOUS
10
0.4096392519685039
20
0.5137154330708661
11
0.4244694094488189
21
0.5334889763779528
0
LINE
8
BLACK
6
CONTINUOUS
10
0.4244694094488189
20
0.5334889763779528
11
0.4248604330708661
21
0.5339157874015747
0
LINE
8
BLACK
6
CONTINUOUS
10
0.4248604330708661
20
0.5339157874015747
11
0.425851811023622
21
0.5345027952755905
0
LINE
8
BLACK
6
CONTINUOUS
10
0.425851811023622
20
0.5345027952755905
11
0.4269923228346457
21
0.5346657086614173
0
LINE
8
BLACK
6
CONTINUOUS
10
0.4269923228346457
20
0.5346657086614173
11
0.4281083858267716
21
0.5343798031496063
0
CIRCLE
8
BLACK
10
0.4921259842519685
20
0.5905511811023622
40
0.0068897637795276
0
CIRCLE
8
BLACK
10
0.4921259842519685
20
0.
40
0.0068897637795276
0
CIRCLE
8
BLACK
10
0.0984251968503937
20
0.5905511811023622
40
0.0068897637795276
0
CIRCLE
8
BLACK
10
0.8858267716535433
20
0.
40
0.0068897637795276
0
CIRCLE
8
BLACK
10
0.8858267716535433
20
0.5905511811023622
40
0.0068897637795276
0
CIRCLE
8
BLACK
10
0.0984251968503937
20
0.
40
0.0068897637795276
  0
ENDSEC
  0
EOF
