  0
SECTION
  2
HEADER
  9
$ANGBASE
  50
0.0
  9
$ANGDIR
  70
1
  9
$MEASUREMENT
  70
0
  0
ENDSEC
  0
SECTION
  2
TABLES
  0
TABLE
  2
LTYPE
  70
4
  0
LTYPE
  5
40F
  2
CONTINUOUS
  70
0
  3
Solid line
  72
65
  73
0
  40
0.0
  0
LTYPE
  5
410
  2
DASHDOT
 70
0
  3
Dash Dot ____ _ ____ _
 72
65
 73
4
 40
2.0
 49
1.25
 49
-0.25
 49
0.25
 49
-0.25
  0
LTYPE
  5
411
  2
DASHED
 70
0
  3
Dashed __ __ __ __ __
 72
65
 73
2
 40
0.75
 49
0.5
 49
-0.25
  0
LTYPE
  5
43B
  2
DOTTED
 70
0
  3
Dotted .  .  .  .
 72
65
 73
2
 40
0.2
 49
0.0
 49
-0.2
  0
ENDTAB
  0
TABLE
  2
STYLE
  70
4
  0
STYLE
  2
KICAD
  70
0
  40
0
  41
1
  42
1
  50
0
  71
0
  3
isocp.shx
  0
STYLE
  2
KICADB
  70
0
  40
0
  41
1
  42
1
  50
0
  71
0
  3
isocp.shx
  0
STYLE
  2
KICADI
  70
0
  40
0
  41
1
  42
1
  50
15
  71
0
  3
isocp.shx
  0
STYLE
  2
KICADBI
  70
0
  40
0
  41
1
  42
1
  50
15
  71
0
  3
isocp.shx
  0
ENDTAB
  0
TABLE
  2
LAYER
  70
1
  0
LAYER
  2
BLACK
  70
0
  62
7
  6
CONTINUOUS
  0
ENDTAB
  0
ENDSEC
  0
SECTION
  2
ENTITIES
0
LINE
8
BLACK
6
CONTINUOUS
10
1.15063
20
0.50689
11
1.15133
21
0.506601
0
LINE
8
BLACK
6
CONTINUOUS
10
1.15133
20
0.506601
11
1.15161
21
0.505906
0
LINE
8
BLACK
6
CONTINUOUS
10
1.15161
20
0.505906
11
1.15161
21
0.0846457
0
LINE
8
BLACK
6
CONTINUOUS
10
1.15161
20
0.0846457
11
1.15133
21
0.0839497
0
LINE
8
BLACK
6
CONTINUOUS
10
1.15133
20
0.0839497
11
1.15063
21
0.0836614
0
LINE
8
BLACK
6
CONTINUOUS
10
1.15063
20
0.0836614
11
0.72937
21
0.0836614
0
LINE
8
BLACK
6
CONTINUOUS
10
0.72937
20
0.0836614
11
0.728674
21
0.0839497
0
LINE
8
BLACK
6
CONTINUOUS
10
0.728674
20
0.0839497
11
0.728386
21
0.0846457
0
LINE
8
BLACK
6
CONTINUOUS
10
0.728386
20
0.0846457
11
0.728386
21
0.505906
0
LINE
8
BLACK
6
CONTINUOUS
10
0.728386
20
0.505906
11
0.728674
21
0.506601
0
LINE
8
BLACK
6
CONTINUOUS
10
0.728674
20
0.506601
11
0.72937
21
0.50689
0
LINE
8
BLACK
6
CONTINUOUS
10
0.72937
20
0.50689
11
1.15063
21
0.50689
0
LINE
8
BLACK
6
CONTINUOUS
10
0.730354
20
0.504921
11
0.730354
21
0.0856299
0
LINE
8
BLACK
6
CONTINUOUS
10
0.730354
20
0.0856299
11
1.14965
21
0.0856299
0
LINE
8
BLACK
6
CONTINUOUS
10
1.14965
20
0.0856299
11
1.14965
21
0.504921
0
LINE
8
BLACK
6
CONTINUOUS
10
1.14965
20
0.504921
11
0.730354
21
0.504921
0
LINE
8
BLACK
6
CONTINUOUS
10
0.243984
20
0.482087
11
0.24468
21
0.481798
0
LINE
8
BLACK
6
CONTINUOUS
10
0.24468
20
0.481798
11
0.244969
21
0.481102
0
LINE
8
BLACK
6
CONTINUOUS
10
0.244969
20
0.481102
11
0.244969
21
0.109449
0
LINE
8
BLACK
6
CONTINUOUS
10
0.244969
20
0.109449
11
0.24468
21
0.108753
0
LINE
8
BLACK
6
CONTINUOUS
10
0.24468
20
0.108753
11
0.243984
21
0.108465
0
LINE
8
BLACK
6
CONTINUOUS
10
0.243984
20
0.108465
11
-0.00798425
21
0.108465
0
LINE
8
BLACK
6
CONTINUOUS
10
-0.00798425
20
0.108465
11
-0.00868024
21
0.108753
0
LINE
8
BLACK
6
CONTINUOUS
10
-0.00868024
20
0.108753
11
-0.0089685
21
0.109449
0
LINE
8
BLACK
6
CONTINUOUS
10
-0.0089685
20
0.109449
11
-0.0089685
21
0.481102
0
LINE
8
BLACK
6
CONTINUOUS
10
-0.0089685
20
0.481102
11
-0.00868024
21
0.481798
0
LINE
8
BLACK
6
CONTINUOUS
10
-0.00868024
20
0.481798
11
-0.00798425
21
0.482087
0
LINE
8
BLACK
6
CONTINUOUS
10
-0.00798425
20
0.482087
11
0.243984
21
0.482087
0
LINE
8
BLACK
6
CONTINUOUS
10
-0.007
20
0.480118
11
-0.007
21
0.110433
0
LINE
8
BLACK
6
CONTINUOUS
10
-0.007
20
0.110433
11
0.243
21
0.110433
0
LINE
8
BLACK
6
CONTINUOUS
10
0.243
20
0.110433
11
0.243
21
0.480118
0
LINE
8
BLACK
6
CONTINUOUS
10
0.243
20
0.480118
11
-0.007
21
0.480118
0
LINE
8
BLACK
6
CONTINUOUS
10
0.68874
20
0.249252
11
0.689436
21
0.248964
0
LINE
8
BLACK
6
CONTINUOUS
10
0.689436
20
0.248964
11
0.689724
21
0.248268
0
LINE
8
BLACK
6
CONTINUOUS
10
0.689724
20
0.248268
11
0.689724
21
0.131732
0
LINE
8
BLACK
6
CONTINUOUS
10
0.689724
20
0.131732
11
0.689436
21
0.131036
0
LINE
8
BLACK
6
CONTINUOUS
10
0.689436
20
0.131036
11
0.68874
21
0.130748
0
LINE
8
BLACK
6
CONTINUOUS
10
0.68874
20
0.130748
11
0.63126
21
0.130748
0
LINE
8
BLACK
6
CONTINUOUS
10
0.63126
20
0.130748
11
0.630564
21
0.131036
0
LINE
8
BLACK
6
CONTINUOUS
10
0.630564
20
0.131036
11
0.630276
21
0.131732
0
LINE
8
BLACK
6
CONTINUOUS
10
0.630276
20
0.131732
11
0.630276
21
0.248268
0
LINE
8
BLACK
6
CONTINUOUS
10
0.630276
20
0.248268
11
0.630564
21
0.248964
0
LINE
8
BLACK
6
CONTINUOUS
10
0.630564
20
0.248964
11
0.63126
21
0.249252
0
LINE
8
BLACK
6
CONTINUOUS
10
0.63126
20
0.249252
11
0.68874
21
0.249252
0
LINE
8
BLACK
6
CONTINUOUS
10
0.632244
20
0.247283
11
0.632244
21
0.132717
0
LINE
8
BLACK
6
CONTINUOUS
10
0.632244
20
0.132717
11
0.687756
21
0.132717
0
LINE
8
BLACK
6
CONTINUOUS
10
0.687756
20
0.132717
11
0.687756
21
0.247283
0
LINE
8
BLACK
6
CONTINUOUS
10
0.687756
20
0.247283
11
0.632244
21
0.247283
0
LINE
8
BLACK
6
CONTINUOUS
10
0.49374
20
0.270256
11
0.494436
21
0.269968
0
LINE
8
BLACK
6
CONTINUOUS
10
0.494436
20
0.269968
11
0.494724
21
0.269272
0
LINE
8
BLACK
6
CONTINUOUS
10
0.494724
20
0.269272
11
0.494724
21
0.152736
0
LINE
8
BLACK
6
CONTINUOUS
10
0.494724
20
0.152736
11
0.494436
21
0.15204
0
LINE
8
BLACK
6
CONTINUOUS
10
0.494436
20
0.15204
11
0.49374
21
0.151752
0
LINE
8
BLACK
6
CONTINUOUS
10
0.49374
20
0.151752
11
0.43626
21
0.151752
0
LINE
8
BLACK
6
CONTINUOUS
10
0.43626
20
0.151752
11
0.435564
21
0.15204
0
LINE
8
BLACK
6
CONTINUOUS
10
0.435564
20
0.15204
11
0.435276
21
0.152736
0
LINE
8
BLACK
6
CONTINUOUS
10
0.435276
20
0.152736
11
0.435276
21
0.269272
0
LINE
8
BLACK
6
CONTINUOUS
10
0.435276
20
0.269272
11
0.435564
21
0.269968
0
LINE
8
BLACK
6
CONTINUOUS
10
0.435564
20
0.269968
11
0.43626
21
0.270256
0
LINE
8
BLACK
6
CONTINUOUS
10
0.43626
20
0.270256
11
0.49374
21
0.270256
0
LINE
8
BLACK
6
CONTINUOUS
10
0.437244
20
0.268287
11
0.437244
21
0.15372
0
LINE
8
BLACK
6
CONTINUOUS
10
0.437244
20
0.15372
11
0.492756
21
0.15372
0
LINE
8
BLACK
6
CONTINUOUS
10
0.492756
20
0.15372
11
0.492756
21
0.268287
0
LINE
8
BLACK
6
CONTINUOUS
10
0.492756
20
0.268287
11
0.437244
21
0.268287
0
LINE
8
BLACK
6
CONTINUOUS
10
0.425866
20
0.315787
11
0.426562
21
0.315499
0
LINE
8
BLACK
6
CONTINUOUS
10
0.426562
20
0.315499
11
0.42685
21
0.314803
0
LINE
8
BLACK
6
CONTINUOUS
10
0.42685
20
0.314803
11
0.42685
21
0.165197
0
LINE
8
BLACK
6
CONTINUOUS
10
0.42685
20
0.165197
11
0.426562
21
0.164501
0
LINE
8
BLACK
6
CONTINUOUS
10
0.426562
20
0.164501
11
0.425866
21
0.164213
0
LINE
8
BLACK
6
CONTINUOUS
10
0.425866
20
0.164213
11
0.284134
21
0.164213
0
LINE
8
BLACK
6
CONTINUOUS
10
0.284134
20
0.164213
11
0.283438
21
0.164501
0
LINE
8
BLACK
6
CONTINUOUS
10
0.283438
20
0.164501
11
0.28315
21
0.165197
0
LINE
8
BLACK
6
CONTINUOUS
10
0.28315
20
0.165197
11
0.28315
21
0.314803
0
LINE
8
BLACK
6
CONTINUOUS
10
0.28315
20
0.314803
11
0.283438
21
0.315499
0
LINE
8
BLACK
6
CONTINUOUS
10
0.283438
20
0.315499
11
0.284134
21
0.315787
0
LINE
8
BLACK
6
CONTINUOUS
10
0.284134
20
0.315787
11
0.425866
21
0.315787
0
LINE
8
BLACK
6
CONTINUOUS
10
0.285118
20
0.313819
11
0.285118
21
0.166181
0
LINE
8
BLACK
6
CONTINUOUS
10
0.285118
20
0.166181
11
0.424882
21
0.166181
0
LINE
8
BLACK
6
CONTINUOUS
10
0.424882
20
0.166181
11
0.424882
21
0.313819
0
LINE
8
BLACK
6
CONTINUOUS
10
0.424882
20
0.313819
11
0.285118
21
0.313819
0
LINE
8
BLACK
6
CONTINUOUS
10
0.536457
20
0.44311
11
0.537153
21
0.442822
0
LINE
8
BLACK
6
CONTINUOUS
10
0.537153
20
0.442822
11
0.537441
21
0.442126
0
LINE
8
BLACK
6
CONTINUOUS
10
0.537441
20
0.442126
11
0.537441
21
0.325591
0
LINE
8
BLACK
6
CONTINUOUS
10
0.537441
20
0.325591
11
0.537153
21
0.324895
0
LINE
8
BLACK
6
CONTINUOUS
10
0.537153
20
0.324895
11
0.536457
21
0.324606
0
LINE
8
BLACK
6
CONTINUOUS
10
0.536457
20
0.324606
11
0.478976
21
0.324606
0
LINE
8
BLACK
6
CONTINUOUS
10
0.478976
20
0.324606
11
0.47828
21
0.324895
0
LINE
8
BLACK
6
CONTINUOUS
10
0.47828
20
0.324895
11
0.477992
21
0.325591
0
LINE
8
BLACK
6
CONTINUOUS
10
0.477992
20
0.325591
11
0.477992
21
0.442126
0
LINE
8
BLACK
6
CONTINUOUS
10
0.477992
20
0.442126
11
0.47828
21
0.442822
0
LINE
8
BLACK
6
CONTINUOUS
10
0.47828
20
0.442822
11
0.478976
21
0.44311
0
LINE
8
BLACK
6
CONTINUOUS
10
0.478976
20
0.44311
11
0.536457
21
0.44311
0
LINE
8
BLACK
6
CONTINUOUS
10
0.479961
20
0.441142
11
0.479961
21
0.326575
0
LINE
8
BLACK
6
CONTINUOUS
10
0.479961
20
0.326575
11
0.535472
21
0.326575
0
LINE
8
BLACK
6
CONTINUOUS
10
0.535472
20
0.326575
11
0.535472
21
0.441142
0
LINE
8
BLACK
6
CONTINUOUS
10
0.535472
20
0.441142
11
0.479961
21
0.441142
0
LINE
8
BLACK
6
CONTINUOUS
10
0.60874
20
0.444252
11
0.609436
21
0.443964
0
LINE
8
BLACK
6
CONTINUOUS
10
0.609436
20
0.443964
11
0.609724
21
0.443268
0
LINE
8
BLACK
6
CONTINUOUS
10
0.609724
20
0.443268
11
0.609724
21
0.326732
0
LINE
8
BLACK
6
CONTINUOUS
10
0.609724
20
0.326732
11
0.609436
21
0.326036
0
LINE
8
BLACK
6
CONTINUOUS
10
0.609436
20
0.326036
11
0.60874
21
0.325748
0
LINE
8
BLACK
6
CONTINUOUS
10
0.60874
20
0.325748
11
0.55126
21
0.325748
0
LINE
8
BLACK
6
CONTINUOUS
10
0.55126
20
0.325748
11
0.550564
21
0.326036
0
LINE
8
BLACK
6
CONTINUOUS
10
0.550564
20
0.326036
11
0.550276
21
0.326732
0
LINE
8
BLACK
6
CONTINUOUS
10
0.550276
20
0.326732
11
0.550276
21
0.443268
0
LINE
8
BLACK
6
CONTINUOUS
10
0.550276
20
0.443268
11
0.550564
21
0.443964
0
LINE
8
BLACK
6
CONTINUOUS
10
0.550564
20
0.443964
11
0.55126
21
0.444252
0
LINE
8
BLACK
6
CONTINUOUS
10
0.55126
20
0.444252
11
0.60874
21
0.444252
0
LINE
8
BLACK
6
CONTINUOUS
10
0.552244
20
0.442283
11
0.552244
21
0.327717
0
LINE
8
BLACK
6
CONTINUOUS
10
0.552244
20
0.327717
11
0.607756
21
0.327717
0
LINE
8
BLACK
6
CONTINUOUS
10
0.607756
20
0.327717
11
0.607756
21
0.442283
0
LINE
8
BLACK
6
CONTINUOUS
10
0.607756
20
0.442283
11
0.552244
21
0.442283
0
LINE
8
BLACK
6
CONTINUOUS
10
0.68374
20
0.444252
11
0.684436
21
0.443964
0
LINE
8
BLACK
6
CONTINUOUS
10
0.684436
20
0.443964
11
0.684724
21
0.443268
0
LINE
8
BLACK
6
CONTINUOUS
10
0.684724
20
0.443268
11
0.684724
21
0.326732
0
LINE
8
BLACK
6
CONTINUOUS
10
0.684724
20
0.326732
11
0.684436
21
0.326036
0
LINE
8
BLACK
6
CONTINUOUS
10
0.684436
20
0.326036
11
0.68374
21
0.325748
0
LINE
8
BLACK
6
CONTINUOUS
10
0.68374
20
0.325748
11
0.62626
21
0.325748
0
LINE
8
BLACK
6
CONTINUOUS
10
0.62626
20
0.325748
11
0.625564
21
0.326036
0
LINE
8
BLACK
6
CONTINUOUS
10
0.625564
20
0.326036
11
0.625276
21
0.326732
0
LINE
8
BLACK
6
CONTINUOUS
10
0.625276
20
0.326732
11
0.625276
21
0.443268
0
LINE
8
BLACK
6
CONTINUOUS
10
0.625276
20
0.443268
11
0.625564
21
0.443964
0
LINE
8
BLACK
6
CONTINUOUS
10
0.625564
20
0.443964
11
0.62626
21
0.444252
0
LINE
8
BLACK
6
CONTINUOUS
10
0.62626
20
0.444252
11
0.68374
21
0.444252
0
LINE
8
BLACK
6
CONTINUOUS
10
0.627244
20
0.442283
11
0.627244
21
0.327717
0
LINE
8
BLACK
6
CONTINUOUS
10
0.627244
20
0.327717
11
0.682756
21
0.327717
0
LINE
8
BLACK
6
CONTINUOUS
10
0.682756
20
0.327717
11
0.682756
21
0.442283
0
LINE
8
BLACK
6
CONTINUOUS
10
0.682756
20
0.442283
11
0.627244
21
0.442283
0
LINE
8
BLACK
6
CONTINUOUS
10
0.320906
20
0.447047
11
0.321601
21
0.446759
0
LINE
8
BLACK
6
CONTINUOUS
10
0.321601
20
0.446759
11
0.32189
21
0.446063
0
LINE
8
BLACK
6
CONTINUOUS
10
0.32189
20
0.446063
11
0.32189
21
0.329528
0
LINE
8
BLACK
6
CONTINUOUS
10
0.32189
20
0.329528
11
0.321601
21
0.328832
0
LINE
8
BLACK
6
CONTINUOUS
10
0.321601
20
0.328832
11
0.320906
21
0.328543
0
LINE
8
BLACK
6
CONTINUOUS
10
0.320906
20
0.328543
11
0.263425
21
0.328543
0
LINE
8
BLACK
6
CONTINUOUS
10
0.263425
20
0.328543
11
0.262729
21
0.328832
0
LINE
8
BLACK
6
CONTINUOUS
10
0.262729
20
0.328832
11
0.262441
21
0.329528
0
LINE
8
BLACK
6
CONTINUOUS
10
0.262441
20
0.329528
11
0.262441
21
0.446063
0
LINE
8
BLACK
6
CONTINUOUS
10
0.262441
20
0.446063
11
0.262729
21
0.446759
0
LINE
8
BLACK
6
CONTINUOUS
10
0.262729
20
0.446759
11
0.263425
21
0.447047
0
LINE
8
BLACK
6
CONTINUOUS
10
0.263425
20
0.447047
11
0.320906
21
0.447047
0
LINE
8
BLACK
6
CONTINUOUS
10
0.264409
20
0.445079
11
0.264409
21
0.330512
0
LINE
8
BLACK
6
CONTINUOUS
10
0.264409
20
0.330512
11
0.319921
21
0.330512
0
LINE
8
BLACK
6
CONTINUOUS
10
0.319921
20
0.330512
11
0.319921
21
0.445079
0
LINE
8
BLACK
6
CONTINUOUS
10
0.319921
20
0.445079
11
0.264409
21
0.445079
0
LINE
8
BLACK
6
CONTINUOUS
10
0.384685
20
0.435039
11
0.385381
21
0.434751
0
LINE
8
BLACK
6
CONTINUOUS
10
0.385381
20
0.434751
11
0.385669
21
0.434055
0
LINE
8
BLACK
6
CONTINUOUS
10
0.385669
20
0.434055
11
0.385669
21
0.33563
0
LINE
8
BLACK
6
CONTINUOUS
10
0.385669
20
0.33563
11
0.385381
21
0.334934
0
LINE
8
BLACK
6
CONTINUOUS
10
0.385381
20
0.334934
11
0.384685
21
0.334646
0
LINE
8
BLACK
6
CONTINUOUS
10
0.384685
20
0.334646
11
0.329567
21
0.334646
0
LINE
8
BLACK
6
CONTINUOUS
10
0.329567
20
0.334646
11
0.328871
21
0.334934
0
LINE
8
BLACK
6
CONTINUOUS
10
0.328871
20
0.334934
11
0.328583
21
0.33563
0
LINE
8
BLACK
6
CONTINUOUS
10
0.328583
20
0.33563
11
0.328583
21
0.434055
0
LINE
8
BLACK
6
CONTINUOUS
10
0.328583
20
0.434055
11
0.328871
21
0.434751
0
LINE
8
BLACK
6
CONTINUOUS
10
0.328871
20
0.434751
11
0.329567
21
0.435039
0
LINE
8
BLACK
6
CONTINUOUS
10
0.329567
20
0.435039
11
0.384685
21
0.435039
0
LINE
8
BLACK
6
CONTINUOUS
10
0.330551
20
0.433071
11
0.330551
21
0.336614
0
LINE
8
BLACK
6
CONTINUOUS
10
0.330551
20
0.336614
11
0.383701
21
0.336614
0
LINE
8
BLACK
6
CONTINUOUS
10
0.383701
20
0.336614
11
0.383701
21
0.433071
0
LINE
8
BLACK
6
CONTINUOUS
10
0.383701
20
0.433071
11
0.330551
21
0.433071
  0
ENDSEC
  0
EOF
