  0
SECTION
  2
HEADER
  9
$ANGBASE
  50
0.0
  9
$ANGDIR
  70
1
  9
$MEASUREMENT
  70
0
  0
ENDSEC
  0
SECTION
  2
TABLES
  0
TABLE
  2
LTYPE
  70
4
  0
LTYPE
  5
40F
  2
CONTINUOUS
  70
0
  3
Solid line
  72
65
  73
0
  40
0.0
  0
LTYPE
  5
410
  2
DASHDOT
 70
0
  3
Dash Dot ____ _ ____ _
 72
65
 73
4
 40
2.0
 49
1.25
 49
-0.25
 49
0.25
 49
-0.25
  0
LTYPE
  5
411
  2
DASHED
 70
0
  3
Dashed __ __ __ __ __
 72
65
 73
2
 40
0.75
 49
0.5
 49
-0.25
  0
LTYPE
  5
43B
  2
DOTTED
 70
0
  3
Dotted .  .  .  .
 72
65
 73
2
 40
0.2
 49
0.0
 49
-0.2
  0
ENDTAB
  0
TABLE
  2
STYLE
  70
4
  0
STYLE
  2
KICAD
  70
0
  40
0
  41
1
  42
1
  50
0
  71
0
  3
isocp.shx
  0
STYLE
  2
KICADB
  70
0
  40
0
  41
1
  42
1
  50
0
  71
0
  3
isocp.shx
  0
STYLE
  2
KICADI
  70
0
  40
0
  41
1
  42
1
  50
15
  71
0
  3
isocp.shx
  0
STYLE
  2
KICADBI
  70
0
  40
0
  41
1
  42
1
  50
15
  71
0
  3
isocp.shx
  0
ENDTAB
  0
TABLE
  2
LAYER
  70
1
  0
LAYER
  2
BLACK
  70
0
  62
7
  6
CONTINUOUS
  0
ENDTAB
  0
ENDSEC
  0
SECTION
  2
ENTITIES
0
LINE
8
BLACK
6
CONTINUOUS
10
0.8531425196850394
20
0.1686544881889764
11
0.8558566929133858
21
0.1668409448818897
0
LINE
8
BLACK
6
CONTINUOUS
10
0.8558566929133858
20
0.1668409448818897
11
0.8576702362204724
21
0.1641267716535433
0
LINE
8
BLACK
6
CONTINUOUS
10
0.8576702362204724
20
0.1641267716535433
11
0.8583070866141732
21
0.1609251968503937
0
LINE
8
BLACK
6
CONTINUOUS
10
0.8583070866141732
20
0.1609251968503937
11
0.8583070866141732
21
0.1028543307086614
0
LINE
8
BLACK
6
CONTINUOUS
10
0.8583070866141732
20
0.1028543307086614
11
0.8576702362204724
21
0.0996527559055118
0
LINE
8
BLACK
6
CONTINUOUS
10
0.8576702362204724
20
0.0996527559055118
11
0.8558566929133858
21
0.0969385826771653
0
LINE
8
BLACK
6
CONTINUOUS
10
0.8558566929133858
20
0.0969385826771653
11
0.8531425196850394
21
0.0951250393700787
0
LINE
8
BLACK
6
CONTINUOUS
10
0.8531425196850394
20
0.0951250393700787
11
0.8499409448818898
21
0.094488188976378
0
LINE
8
BLACK
6
CONTINUOUS
10
0.8499409448818898
20
0.094488188976378
11
0.8332086614173229
21
0.094488188976378
0
LINE
8
BLACK
6
CONTINUOUS
10
0.8332086614173229
20
0.094488188976378
11
0.8300070866141732
21
0.0951250393700787
0
LINE
8
BLACK
6
CONTINUOUS
10
0.8300070866141732
20
0.0951250393700787
11
0.8272929133858268
21
0.0969385826771653
0
LINE
8
BLACK
6
CONTINUOUS
10
0.8272929133858268
20
0.0969385826771653
11
0.8254793700787402
21
0.0996527559055118
0
LINE
8
BLACK
6
CONTINUOUS
10
0.8254793700787402
20
0.0996527559055118
11
0.8248425196850393
21
0.1028543307086614
0
LINE
8
BLACK
6
CONTINUOUS
10
0.8248425196850393
20
0.1028543307086614
11
0.8248425196850393
21
0.1609251968503937
0
LINE
8
BLACK
6
CONTINUOUS
10
0.8248425196850393
20
0.1609251968503937
11
0.8254793700787402
21
0.1641267716535433
0
LINE
8
BLACK
6
CONTINUOUS
10
0.8254793700787402
20
0.1641267716535433
11
0.8272929133858268
21
0.1668409448818897
0
LINE
8
BLACK
6
CONTINUOUS
10
0.8272929133858268
20
0.1668409448818897
11
0.8300070866141732
21
0.1686544881889764
0
LINE
8
BLACK
6
CONTINUOUS
10
0.8300070866141732
20
0.1686544881889764
11
0.8332086614173229
21
0.1692913385826772
0
LINE
8
BLACK
6
CONTINUOUS
10
0.8332086614173229
20
0.1692913385826772
11
0.8499409448818898
21
0.1692913385826772
0
LINE
8
BLACK
6
CONTINUOUS
10
0.8499409448818898
20
0.1692913385826772
11
0.8531425196850394
21
0.1686544881889764
0
LINE
8
BLACK
6
CONTINUOUS
10
0.9023551181102362
20
0.1686544881889764
11
0.9050692913385826
21
0.1668409448818897
0
LINE
8
BLACK
6
CONTINUOUS
10
0.9050692913385826
20
0.1668409448818897
11
0.9068828346456693
21
0.1641267716535433
0
LINE
8
BLACK
6
CONTINUOUS
10
0.9068828346456693
20
0.1641267716535433
11
0.9075196850393701
21
0.1609251968503937
0
LINE
8
BLACK
6
CONTINUOUS
10
0.9075196850393701
20
0.1609251968503937
11
0.9075196850393701
21
0.1028543307086614
0
LINE
8
BLACK
6
CONTINUOUS
10
0.9075196850393701
20
0.1028543307086614
11
0.9068828346456693
21
0.0996527559055118
0
LINE
8
BLACK
6
CONTINUOUS
10
0.9068828346456693
20
0.0996527559055118
11
0.9050692913385826
21
0.0969385826771653
0
LINE
8
BLACK
6
CONTINUOUS
10
0.9050692913385826
20
0.0969385826771653
11
0.9023551181102362
21
0.0951250393700787
0
LINE
8
BLACK
6
CONTINUOUS
10
0.9023551181102362
20
0.0951250393700787
11
0.8991535433070866
21
0.094488188976378
0
LINE
8
BLACK
6
CONTINUOUS
10
0.8991535433070866
20
0.094488188976378
11
0.8824212598425196
21
0.094488188976378
0
LINE
8
BLACK
6
CONTINUOUS
10
0.8824212598425196
20
0.094488188976378
11
0.8792196850393701
21
0.0951250393700787
0
LINE
8
BLACK
6
CONTINUOUS
10
0.8792196850393701
20
0.0951250393700787
11
0.8765055118110237
21
0.0969385826771653
0
LINE
8
BLACK
6
CONTINUOUS
10
0.8765055118110237
20
0.0969385826771653
11
0.8746919685039369
21
0.0996527559055118
0
LINE
8
BLACK
6
CONTINUOUS
10
0.8746919685039369
20
0.0996527559055118
11
0.8740551181102362
21
0.1028543307086614
0
LINE
8
BLACK
6
CONTINUOUS
10
0.8740551181102362
20
0.1028543307086614
11
0.8740551181102362
21
0.1609251968503937
0
LINE
8
BLACK
6
CONTINUOUS
10
0.8740551181102362
20
0.1609251968503937
11
0.8746919685039369
21
0.1641267716535433
0
LINE
8
BLACK
6
CONTINUOUS
10
0.8746919685039369
20
0.1641267716535433
11
0.8765055118110237
21
0.1668409448818897
0
LINE
8
BLACK
6
CONTINUOUS
10
0.8765055118110237
20
0.1668409448818897
11
0.8792196850393701
21
0.1686544881889764
0
LINE
8
BLACK
6
CONTINUOUS
10
0.8792196850393701
20
0.1686544881889764
11
0.8824212598425196
21
0.1692913385826772
0
LINE
8
BLACK
6
CONTINUOUS
10
0.8824212598425196
20
0.1692913385826772
11
0.8991535433070866
21
0.1692913385826772
0
LINE
8
BLACK
6
CONTINUOUS
10
0.8991535433070866
20
0.1692913385826772
11
0.9023551181102362
21
0.1686544881889764
0
LINE
8
BLACK
6
CONTINUOUS
10
0.951567716535433
20
0.1686544881889764
11
0.9542818897637795
21
0.1668409448818897
0
LINE
8
BLACK
6
CONTINUOUS
10
0.9542818897637795
20
0.1668409448818897
11
0.9560954330708661
21
0.1641267716535433
0
LINE
8
BLACK
6
CONTINUOUS
10
0.9560954330708661
20
0.1641267716535433
11
0.956732283464567
21
0.1609251968503937
0
LINE
8
BLACK
6
CONTINUOUS
10
0.956732283464567
20
0.1609251968503937
11
0.956732283464567
21
0.1028543307086614
0
LINE
8
BLACK
6
CONTINUOUS
10
0.956732283464567
20
0.1028543307086614
11
0.9560954330708661
21
0.0996527559055118
0
LINE
8
BLACK
6
CONTINUOUS
10
0.9560954330708661
20
0.0996527559055118
11
0.9542818897637795
21
0.0969385826771653
0
LINE
8
BLACK
6
CONTINUOUS
10
0.9542818897637795
20
0.0969385826771653
11
0.951567716535433
21
0.0951250393700787
0
LINE
8
BLACK
6
CONTINUOUS
10
0.951567716535433
20
0.0951250393700787
11
0.9483661417322834
21
0.094488188976378
0
LINE
8
BLACK
6
CONTINUOUS
10
0.9483661417322834
20
0.094488188976378
11
0.9316338582677165
21
0.094488188976378
0
LINE
8
BLACK
6
CONTINUOUS
10
0.9316338582677165
20
0.094488188976378
11
0.9284322834645669
21
0.0951250393700787
0
LINE
8
BLACK
6
CONTINUOUS
10
0.9284322834645669
20
0.0951250393700787
11
0.9257181102362204
21
0.0969385826771653
0
LINE
8
BLACK
6
CONTINUOUS
10
0.9257181102362204
20
0.0969385826771653
11
0.9239045669291338
21
0.0996527559055118
0
LINE
8
BLACK
6
CONTINUOUS
10
0.9239045669291338
20
0.0996527559055118
11
0.923267716535433
21
0.1028543307086614
0
LINE
8
BLACK
6
CONTINUOUS
10
0.923267716535433
20
0.1028543307086614
11
0.923267716535433
21
0.1609251968503937
0
LINE
8
BLACK
6
CONTINUOUS
10
0.923267716535433
20
0.1609251968503937
11
0.9239045669291338
21
0.1641267716535433
0
LINE
8
BLACK
6
CONTINUOUS
10
0.9239045669291338
20
0.1641267716535433
11
0.9257181102362204
21
0.1668409448818897
0
LINE
8
BLACK
6
CONTINUOUS
10
0.9257181102362204
20
0.1668409448818897
11
0.9284322834645669
21
0.1686544881889764
0
LINE
8
BLACK
6
CONTINUOUS
10
0.9284322834645669
20
0.1686544881889764
11
0.9316338582677165
21
0.1692913385826772
0
LINE
8
BLACK
6
CONTINUOUS
10
0.9316338582677165
20
0.1692913385826772
11
0.9483661417322834
21
0.1692913385826772
0
LINE
8
BLACK
6
CONTINUOUS
10
0.9483661417322834
20
0.1692913385826772
11
0.951567716535433
21
0.1686544881889764
0
LINE
8
BLACK
6
CONTINUOUS
10
1.0007803149606298
20
0.1686544881889764
11
1.0034944881889765
21
0.1668409448818897
0
LINE
8
BLACK
6
CONTINUOUS
10
1.0034944881889765
20
0.1668409448818897
11
1.005308031496063
21
0.1641267716535433
0
LINE
8
BLACK
6
CONTINUOUS
10
1.005308031496063
20
0.1641267716535433
11
1.0059448818897638
21
0.1609251968503937
0
LINE
8
BLACK
6
CONTINUOUS
10
1.0059448818897638
20
0.1609251968503937
11
1.0059448818897638
21
0.1028543307086614
0
LINE
8
BLACK
6
CONTINUOUS
10
1.0059448818897638
20
0.1028543307086614
11
1.005308031496063
21
0.0996527559055118
0
LINE
8
BLACK
6
CONTINUOUS
10
1.005308031496063
20
0.0996527559055118
11
1.0034944881889765
21
0.0969385826771653
0
LINE
8
BLACK
6
CONTINUOUS
10
1.0034944881889765
20
0.0969385826771653
11
1.0007803149606298
21
0.0951250393700787
0
LINE
8
BLACK
6
CONTINUOUS
10
1.0007803149606298
20
0.0951250393700787
11
0.9975787401574803
21
0.094488188976378
0
LINE
8
BLACK
6
CONTINUOUS
10
0.9975787401574803
20
0.094488188976378
11
0.9808464566929134
21
0.094488188976378
0
LINE
8
BLACK
6
CONTINUOUS
10
0.9808464566929134
20
0.094488188976378
11
0.9776448818897637
21
0.0951250393700787
0
LINE
8
BLACK
6
CONTINUOUS
10
0.9776448818897637
20
0.0951250393700787
11
0.9749307086614173
21
0.0969385826771653
0
LINE
8
BLACK
6
CONTINUOUS
10
0.9749307086614173
20
0.0969385826771653
11
0.9731171653543307
21
0.0996527559055118
0
LINE
8
BLACK
6
CONTINUOUS
10
0.9731171653543307
20
0.0996527559055118
11
0.9724803149606299
21
0.1028543307086614
0
LINE
8
BLACK
6
CONTINUOUS
10
0.9724803149606299
20
0.1028543307086614
11
0.9724803149606299
21
0.1609251968503937
0
LINE
8
BLACK
6
CONTINUOUS
10
0.9724803149606299
20
0.1609251968503937
11
0.9731171653543307
21
0.1641267716535433
0
LINE
8
BLACK
6
CONTINUOUS
10
0.9731171653543307
20
0.1641267716535433
11
0.9749307086614173
21
0.1668409448818897
0
LINE
8
BLACK
6
CONTINUOUS
10
0.9749307086614173
20
0.1668409448818897
11
0.9776448818897637
21
0.1686544881889764
0
LINE
8
BLACK
6
CONTINUOUS
10
0.9776448818897637
20
0.1686544881889764
11
0.9808464566929134
21
0.1692913385826772
0
LINE
8
BLACK
6
CONTINUOUS
10
0.9808464566929134
20
0.1692913385826772
11
0.9975787401574803
21
0.1692913385826772
0
LINE
8
BLACK
6
CONTINUOUS
10
0.9975787401574803
20
0.1692913385826772
11
1.0007803149606298
21
0.1686544881889764
0
LINE
8
BLACK
6
CONTINUOUS
10
1.0499929133858268
20
0.1686544881889764
11
1.0527070866141732
21
0.1668409448818897
0
LINE
8
BLACK
6
CONTINUOUS
10
1.0527070866141732
20
0.1668409448818897
11
1.0545206299212597
21
0.1641267716535433
0
LINE
8
BLACK
6
CONTINUOUS
10
1.0545206299212597
20
0.1641267716535433
11
1.0551574803149606
21
0.1609251968503937
0
LINE
8
BLACK
6
CONTINUOUS
10
1.0551574803149606
20
0.1609251968503937
11
1.0551574803149606
21
0.1028543307086614
0
LINE
8
BLACK
6
CONTINUOUS
10
1.0551574803149606
20
0.1028543307086614
11
1.0545206299212597
21
0.0996527559055118
0
LINE
8
BLACK
6
CONTINUOUS
10
1.0545206299212597
20
0.0996527559055118
11
1.0527070866141732
21
0.0969385826771653
0
LINE
8
BLACK
6
CONTINUOUS
10
1.0527070866141732
20
0.0969385826771653
11
1.0499929133858268
21
0.0951250393700787
0
LINE
8
BLACK
6
CONTINUOUS
10
1.0499929133858268
20
0.0951250393700787
11
1.046791338582677
21
0.094488188976378
0
LINE
8
BLACK
6
CONTINUOUS
10
1.046791338582677
20
0.094488188976378
11
1.0300590551181101
21
0.094488188976378
0
LINE
8
BLACK
6
CONTINUOUS
10
1.0300590551181101
20
0.094488188976378
11
1.0268574803149606
21
0.0951250393700787
0
LINE
8
BLACK
6
CONTINUOUS
10
1.0268574803149606
20
0.0951250393700787
11
1.0241433070866142
21
0.0969385826771653
0
LINE
8
BLACK
6
CONTINUOUS
10
1.0241433070866142
20
0.0969385826771653
11
1.0223297637795274
21
0.0996527559055118
0
LINE
8
BLACK
6
CONTINUOUS
10
1.0223297637795274
20
0.0996527559055118
11
1.0216929133858268
21
0.1028543307086614
0
LINE
8
BLACK
6
CONTINUOUS
10
1.0216929133858268
20
0.1028543307086614
11
1.0216929133858268
21
0.1609251968503937
0
LINE
8
BLACK
6
CONTINUOUS
10
1.0216929133858268
20
0.1609251968503937
11
1.0223297637795274
21
0.1641267716535433
0
LINE
8
BLACK
6
CONTINUOUS
10
1.0223297637795274
20
0.1641267716535433
11
1.0241433070866142
21
0.1668409448818897
0
LINE
8
BLACK
6
CONTINUOUS
10
1.0241433070866142
20
0.1668409448818897
11
1.0268574803149606
21
0.1686544881889764
0
LINE
8
BLACK
6
CONTINUOUS
10
1.0268574803149606
20
0.1686544881889764
11
1.0300590551181101
21
0.1692913385826772
0
LINE
8
BLACK
6
CONTINUOUS
10
1.0300590551181101
20
0.1692913385826772
11
1.046791338582677
21
0.1692913385826772
0
LINE
8
BLACK
6
CONTINUOUS
10
1.046791338582677
20
0.1692913385826772
11
1.0499929133858268
21
0.1686544881889764
0
LINE
8
BLACK
6
CONTINUOUS
10
0.1119240551181102
20
0.167557874015748
11
0.1151172047244094
21
0.1654242913385827
0
LINE
8
BLACK
6
CONTINUOUS
10
0.1151172047244094
20
0.1654242913385827
11
0.1172507874015748
21
0.1622311417322835
0
LINE
8
BLACK
6
CONTINUOUS
10
0.1172507874015748
20
0.1622311417322835
11
0.118
21
0.1584645669291339
0
LINE
8
BLACK
6
CONTINUOUS
10
0.118
20
0.1584645669291339
11
0.118
21
0.1387795275590551
0
LINE
8
BLACK
6
CONTINUOUS
10
0.118
20
0.1387795275590551
11
0.1172507874015748
21
0.1350129527559055
0
LINE
8
BLACK
6
CONTINUOUS
10
0.1172507874015748
20
0.1350129527559055
11
0.1151172047244094
21
0.1318198031496063
0
LINE
8
BLACK
6
CONTINUOUS
10
0.1151172047244094
20
0.1318198031496063
11
0.1119240551181102
21
0.1296862204724409
0
LINE
8
BLACK
6
CONTINUOUS
10
0.1119240551181102
20
0.1296862204724409
11
0.1081574803149606
21
0.1289370078740157
0
LINE
8
BLACK
6
CONTINUOUS
10
0.1081574803149606
20
0.1289370078740157
11
0.0215433070866142
21
0.1289370078740157
0
LINE
8
BLACK
6
CONTINUOUS
10
0.0215433070866142
20
0.1289370078740157
11
0.0177767322834646
21
0.1296862204724409
0
LINE
8
BLACK
6
CONTINUOUS
10
0.0177767322834646
20
0.1296862204724409
11
0.0145835826771654
21
0.1318198031496063
0
LINE
8
BLACK
6
CONTINUOUS
10
0.0145835826771654
20
0.1318198031496063
11
0.01245
21
0.1350129527559055
0
LINE
8
BLACK
6
CONTINUOUS
10
0.01245
20
0.1350129527559055
11
0.0117007874015748
21
0.1387795275590551
0
LINE
8
BLACK
6
CONTINUOUS
10
0.0117007874015748
20
0.1387795275590551
11
0.0117007874015748
21
0.1584645669291339
0
LINE
8
BLACK
6
CONTINUOUS
10
0.0117007874015748
20
0.1584645669291339
11
0.01245
21
0.1622311417322835
0
LINE
8
BLACK
6
CONTINUOUS
10
0.01245
20
0.1622311417322835
11
0.0145835826771654
21
0.1654242913385827
0
LINE
8
BLACK
6
CONTINUOUS
10
0.0145835826771654
20
0.1654242913385827
11
0.0177767322834646
21
0.167557874015748
0
LINE
8
BLACK
6
CONTINUOUS
10
0.0177767322834646
20
0.167557874015748
11
0.0215433070866142
21
0.1683070866141732
0
LINE
8
BLACK
6
CONTINUOUS
10
0.0215433070866142
20
0.1683070866141732
11
0.1081574803149606
21
0.1683070866141732
0
LINE
8
BLACK
6
CONTINUOUS
10
0.1081574803149606
20
0.1683070866141732
11
0.1119240551181102
21
0.167557874015748
0
LINE
8
BLACK
6
CONTINUOUS
10
0.6733843307086614
20
0.1755649212598425
11
0.6761783464566929
21
0.173698031496063
0
LINE
8
BLACK
6
CONTINUOUS
10
0.6761783464566929
20
0.173698031496063
11
0.6780452362204724
21
0.1709040157480315
0
LINE
8
BLACK
6
CONTINUOUS
10
0.6780452362204724
20
0.1709040157480315
11
0.6787007874015748
21
0.1676082677165354
0
LINE
8
BLACK
6
CONTINUOUS
10
0.6787007874015748
20
0.1676082677165354
11
0.6787007874015748
21
0.1503838582677165
0
LINE
8
BLACK
6
CONTINUOUS
10
0.6787007874015748
20
0.1503838582677165
11
0.6780452362204724
21
0.1470881102362205
0
LINE
8
BLACK
6
CONTINUOUS
10
0.6780452362204724
20
0.1470881102362205
11
0.6761783464566929
21
0.144294094488189
0
LINE
8
BLACK
6
CONTINUOUS
10
0.6761783464566929
20
0.144294094488189
11
0.6733843307086614
21
0.1424272047244095
0
LINE
8
BLACK
6
CONTINUOUS
10
0.6733843307086614
20
0.1424272047244095
11
0.6700885826771653
21
0.1417716535433071
0
LINE
8
BLACK
6
CONTINUOUS
10
0.6700885826771653
20
0.1417716535433071
11
0.6499114173228346
21
0.1417716535433071
0
LINE
8
BLACK
6
CONTINUOUS
10
0.6499114173228346
20
0.1417716535433071
11
0.6466156692913385
21
0.1424272047244095
0
LINE
8
BLACK
6
CONTINUOUS
10
0.6466156692913385
20
0.1424272047244095
11
0.6438216535433071
21
0.144294094488189
0
LINE
8
BLACK
6
CONTINUOUS
10
0.6438216535433071
20
0.144294094488189
11
0.6419547637795275
21
0.1470881102362205
0
LINE
8
BLACK
6
CONTINUOUS
10
0.6419547637795275
20
0.1470881102362205
11
0.6412992125984252
21
0.1503838582677165
0
LINE
8
BLACK
6
CONTINUOUS
10
0.6412992125984252
20
0.1503838582677165
11
0.6412992125984252
21
0.1676082677165354
0
LINE
8
BLACK
6
CONTINUOUS
10
0.6412992125984252
20
0.1676082677165354
11
0.6419547637795275
21
0.1709040157480315
0
LINE
8
BLACK
6
CONTINUOUS
10
0.6419547637795275
20
0.1709040157480315
11
0.6438216535433071
21
0.173698031496063
0
LINE
8
BLACK
6
CONTINUOUS
10
0.6438216535433071
20
0.173698031496063
11
0.6466156692913385
21
0.1755649212598425
0
LINE
8
BLACK
6
CONTINUOUS
10
0.6466156692913385
20
0.1755649212598425
11
0.6499114173228346
21
0.1762204724409449
0
LINE
8
BLACK
6
CONTINUOUS
10
0.6499114173228346
20
0.1762204724409449
11
0.6700885826771653
21
0.1762204724409449
0
LINE
8
BLACK
6
CONTINUOUS
10
0.6700885826771653
20
0.1762204724409449
11
0.6733843307086614
21
0.1755649212598425
0
LINE
8
BLACK
6
CONTINUOUS
10
0.4783843307086614
20
0.1965688582677165
11
0.4811783464566929
21
0.194701968503937
0
LINE
8
BLACK
6
CONTINUOUS
10
0.4811783464566929
20
0.194701968503937
11
0.4830452362204724
21
0.1919079527559055
0
LINE
8
BLACK
6
CONTINUOUS
10
0.4830452362204724
20
0.1919079527559055
11
0.4837007874015748
21
0.1886122047244095
0
LINE
8
BLACK
6
CONTINUOUS
10
0.4837007874015748
20
0.1886122047244095
11
0.4837007874015748
21
0.1713877952755906
0
LINE
8
BLACK
6
CONTINUOUS
10
0.4837007874015748
20
0.1713877952755906
11
0.4830452362204724
21
0.1680920472440945
0
LINE
8
BLACK
6
CONTINUOUS
10
0.4830452362204724
20
0.1680920472440945
11
0.4811783464566929
21
0.165298031496063
0
LINE
8
BLACK
6
CONTINUOUS
10
0.4811783464566929
20
0.165298031496063
11
0.4783843307086614
21
0.1634311417322835
0
LINE
8
BLACK
6
CONTINUOUS
10
0.4783843307086614
20
0.1634311417322835
11
0.4750885826771654
21
0.1627755905511811
0
LINE
8
BLACK
6
CONTINUOUS
10
0.4750885826771654
20
0.1627755905511811
11
0.4549114173228346
21
0.1627755905511811
0
LINE
8
BLACK
6
CONTINUOUS
10
0.4549114173228346
20
0.1627755905511811
11
0.4516156692913386
21
0.1634311417322835
0
LINE
8
BLACK
6
CONTINUOUS
10
0.4516156692913386
20
0.1634311417322835
11
0.4488216535433071
21
0.165298031496063
0
LINE
8
BLACK
6
CONTINUOUS
10
0.4488216535433071
20
0.165298031496063
11
0.4469547637795275
21
0.1680920472440945
0
LINE
8
BLACK
6
CONTINUOUS
10
0.4469547637795275
20
0.1680920472440945
11
0.4462992125984252
21
0.1713877952755906
0
LINE
8
BLACK
6
CONTINUOUS
10
0.4462992125984252
20
0.1713877952755906
11
0.4462992125984252
21
0.1886122047244095
0
LINE
8
BLACK
6
CONTINUOUS
10
0.4462992125984252
20
0.1886122047244095
11
0.4469547637795275
21
0.1919079527559055
0
LINE
8
BLACK
6
CONTINUOUS
10
0.4469547637795275
20
0.1919079527559055
11
0.4488216535433071
21
0.194701968503937
0
LINE
8
BLACK
6
CONTINUOUS
10
0.4488216535433071
20
0.194701968503937
11
0.4516156692913386
21
0.1965688582677165
0
LINE
8
BLACK
6
CONTINUOUS
10
0.4516156692913386
20
0.1965688582677165
11
0.4549114173228346
21
0.1972244094488189
0
LINE
8
BLACK
6
CONTINUOUS
10
0.4549114173228346
20
0.1972244094488189
11
0.4750885826771654
21
0.1972244094488189
0
LINE
8
BLACK
6
CONTINUOUS
10
0.4750885826771654
20
0.1972244094488189
11
0.4783843307086614
21
0.1965688582677165
0
LINE
8
BLACK
6
CONTINUOUS
10
0.3303937007874015
20
0.1758267716535433
11
0.3048031496062992
21
0.1758267716535433
0
LINE
8
BLACK
6
CONTINUOUS
10
0.3048031496062992
20
0.1758267716535433
11
0.3048031496062992
21
0.2175590551181102
0
LINE
8
BLACK
6
CONTINUOUS
10
0.3048031496062992
20
0.2175590551181102
11
0.3303937007874015
21
0.2175590551181102
0
LINE
8
BLACK
6
CONTINUOUS
10
0.3303937007874015
20
0.2175590551181102
11
0.3303937007874015
21
0.1758267716535433
0
LINE
8
BLACK
6
CONTINUOUS
10
0.3677952755905512
20
0.1758267716535433
11
0.3422047244094488
21
0.1758267716535433
0
LINE
8
BLACK
6
CONTINUOUS
10
0.3422047244094488
20
0.1758267716535433
11
0.3422047244094488
21
0.2175590551181102
0
LINE
8
BLACK
6
CONTINUOUS
10
0.3422047244094488
20
0.2175590551181102
11
0.3677952755905512
21
0.2175590551181102
0
LINE
8
BLACK
6
CONTINUOUS
10
0.3677952755905512
20
0.2175590551181102
11
0.3677952755905512
21
0.1758267716535433
0
LINE
8
BLACK
6
CONTINUOUS
10
0.4051968503937008
20
0.1758267716535433
11
0.3796062992125984
21
0.1758267716535433
0
LINE
8
BLACK
6
CONTINUOUS
10
0.3796062992125984
20
0.1758267716535433
11
0.3796062992125984
21
0.2175590551181102
0
LINE
8
BLACK
6
CONTINUOUS
10
0.3796062992125984
20
0.2175590551181102
11
0.4051968503937008
21
0.2175590551181102
0
LINE
8
BLACK
6
CONTINUOUS
10
0.4051968503937008
20
0.2175590551181102
11
0.4051968503937008
21
0.1758267716535433
0
LINE
8
BLACK
6
CONTINUOUS
10
0.8088511811023622
20
0.2129458267716536
11
0.8115653543307086
21
0.2111322834645669
0
LINE
8
BLACK
6
CONTINUOUS
10
0.8115653543307086
20
0.2111322834645669
11
0.8133788976377953
21
0.2084181102362205
0
LINE
8
BLACK
6
CONTINUOUS
10
0.8133788976377953
20
0.2084181102362205
11
0.814015748031496
21
0.2052165354330709
0
LINE
8
BLACK
6
CONTINUOUS
10
0.814015748031496
20
0.2052165354330709
11
0.814015748031496
21
0.1884842519685039
0
LINE
8
BLACK
6
CONTINUOUS
10
0.814015748031496
20
0.1884842519685039
11
0.8133788976377953
21
0.1852826771653543
0
LINE
8
BLACK
6
CONTINUOUS
10
0.8133788976377953
20
0.1852826771653543
11
0.8115653543307086
21
0.1825685039370079
0
LINE
8
BLACK
6
CONTINUOUS
10
0.8115653543307086
20
0.1825685039370079
11
0.8088511811023622
21
0.1807549606299212
0
LINE
8
BLACK
6
CONTINUOUS
10
0.8088511811023622
20
0.1807549606299212
11
0.8056496062992126
21
0.1801181102362205
0
LINE
8
BLACK
6
CONTINUOUS
10
0.8056496062992126
20
0.1801181102362205
11
0.7475787401574803
21
0.1801181102362205
0
LINE
8
BLACK
6
CONTINUOUS
10
0.7475787401574803
20
0.1801181102362205
11
0.7443771653543307
21
0.1807549606299212
0
LINE
8
BLACK
6
CONTINUOUS
10
0.7443771653543307
20
0.1807549606299212
11
0.7416629921259842
21
0.1825685039370079
0
LINE
8
BLACK
6
CONTINUOUS
10
0.7416629921259842
20
0.1825685039370079
11
0.7398494488188976
21
0.1852826771653543
0
LINE
8
BLACK
6
CONTINUOUS
10
0.7398494488188976
20
0.1852826771653543
11
0.7392125984251968
21
0.1884842519685039
0
LINE
8
BLACK
6
CONTINUOUS
10
0.7392125984251968
20
0.1884842519685039
11
0.7392125984251968
21
0.2052165354330709
0
LINE
8
BLACK
6
CONTINUOUS
10
0.7392125984251968
20
0.2052165354330709
11
0.7398494488188976
21
0.2084181102362205
0
LINE
8
BLACK
6
CONTINUOUS
10
0.7398494488188976
20
0.2084181102362205
11
0.7416629921259842
21
0.2111322834645669
0
LINE
8
BLACK
6
CONTINUOUS
10
0.7416629921259842
20
0.2111322834645669
11
0.7443771653543307
21
0.2129458267716536
0
LINE
8
BLACK
6
CONTINUOUS
10
0.7443771653543307
20
0.2129458267716536
11
0.7475787401574803
21
0.2135826771653543
0
LINE
8
BLACK
6
CONTINUOUS
10
0.7475787401574803
20
0.2135826771653543
11
0.8056496062992126
21
0.2135826771653543
0
LINE
8
BLACK
6
CONTINUOUS
10
0.8056496062992126
20
0.2135826771653543
11
0.8088511811023622
21
0.2129458267716536
0
LINE
8
BLACK
6
CONTINUOUS
10
1.1356228346456692
20
0.2129458267716536
11
1.1383370078740158
21
0.2111322834645669
0
LINE
8
BLACK
6
CONTINUOUS
10
1.1383370078740158
20
0.2111322834645669
11
1.1401505511811023
21
0.2084181102362205
0
LINE
8
BLACK
6
CONTINUOUS
10
1.1401505511811023
20
0.2084181102362205
11
1.1407874015748032
21
0.2052165354330709
0
LINE
8
BLACK
6
CONTINUOUS
10
1.1407874015748032
20
0.2052165354330709
11
1.1407874015748032
21
0.1884842519685039
0
LINE
8
BLACK
6
CONTINUOUS
10
1.1407874015748032
20
0.1884842519685039
11
1.1401505511811023
21
0.1852826771653543
0
LINE
8
BLACK
6
CONTINUOUS
10
1.1401505511811023
20
0.1852826771653543
11
1.1383370078740158
21
0.1825685039370079
0
LINE
8
BLACK
6
CONTINUOUS
10
1.1383370078740158
20
0.1825685039370079
11
1.1356228346456692
21
0.1807549606299212
0
LINE
8
BLACK
6
CONTINUOUS
10
1.1356228346456692
20
0.1807549606299212
11
1.1324212598425196
21
0.1801181102362205
0
LINE
8
BLACK
6
CONTINUOUS
10
1.1324212598425196
20
0.1801181102362205
11
1.0743503937007874
21
0.1801181102362205
0
LINE
8
BLACK
6
CONTINUOUS
10
1.0743503937007874
20
0.1801181102362205
11
1.0711488188976377
21
0.1807549606299212
0
LINE
8
BLACK
6
CONTINUOUS
10
1.0711488188976377
20
0.1807549606299212
11
1.0684346456692912
21
0.1825685039370079
0
LINE
8
BLACK
6
CONTINUOUS
10
1.0684346456692912
20
0.1825685039370079
11
1.0666211023622048
21
0.1852826771653543
0
LINE
8
BLACK
6
CONTINUOUS
10
1.0666211023622048
20
0.1852826771653543
11
1.0659842519685039
21
0.1884842519685039
0
LINE
8
BLACK
6
CONTINUOUS
10
1.0659842519685039
20
0.1884842519685039
11
1.0659842519685039
21
0.2052165354330709
0
LINE
8
BLACK
6
CONTINUOUS
10
1.0659842519685039
20
0.2052165354330709
11
1.0666211023622048
21
0.2084181102362205
0
LINE
8
BLACK
6
CONTINUOUS
10
1.0666211023622048
20
0.2084181102362205
11
1.0684346456692912
21
0.2111322834645669
0
LINE
8
BLACK
6
CONTINUOUS
10
1.0684346456692912
20
0.2111322834645669
11
1.0711488188976377
21
0.2129458267716536
0
LINE
8
BLACK
6
CONTINUOUS
10
1.0711488188976377
20
0.2129458267716536
11
1.0743503937007874
21
0.2135826771653543
0
LINE
8
BLACK
6
CONTINUOUS
10
1.0743503937007874
20
0.2135826771653543
11
1.1324212598425196
21
0.2135826771653543
0
LINE
8
BLACK
6
CONTINUOUS
10
1.1324212598425196
20
0.2135826771653543
11
1.1356228346456692
21
0.2129458267716536
0
LINE
8
BLACK
6
CONTINUOUS
10
0.6733843307086614
20
0.2375727952755906
11
0.6761783464566929
21
0.235705905511811
0
LINE
8
BLACK
6
CONTINUOUS
10
0.6761783464566929
20
0.235705905511811
11
0.6780452362204724
21
0.2329118897637795
0
LINE
8
BLACK
6
CONTINUOUS
10
0.6780452362204724
20
0.2329118897637795
11
0.6787007874015748
21
0.2296161417322835
0
LINE
8
BLACK
6
CONTINUOUS
10
0.6787007874015748
20
0.2296161417322835
11
0.6787007874015748
21
0.2123917322834646
0
LINE
8
BLACK
6
CONTINUOUS
10
0.6787007874015748
20
0.2123917322834646
11
0.6780452362204724
21
0.2090959842519685
0
LINE
8
BLACK
6
CONTINUOUS
10
0.6780452362204724
20
0.2090959842519685
11
0.6761783464566929
21
0.206301968503937
0
LINE
8
BLACK
6
CONTINUOUS
10
0.6761783464566929
20
0.206301968503937
11
0.6733843307086614
21
0.2044350787401575
0
LINE
8
BLACK
6
CONTINUOUS
10
0.6733843307086614
20
0.2044350787401575
11
0.6700885826771653
21
0.2037795275590551
0
LINE
8
BLACK
6
CONTINUOUS
10
0.6700885826771653
20
0.2037795275590551
11
0.6499114173228346
21
0.2037795275590551
0
LINE
8
BLACK
6
CONTINUOUS
10
0.6499114173228346
20
0.2037795275590551
11
0.6466156692913385
21
0.2044350787401575
0
LINE
8
BLACK
6
CONTINUOUS
10
0.6466156692913385
20
0.2044350787401575
11
0.6438216535433071
21
0.206301968503937
0
LINE
8
BLACK
6
CONTINUOUS
10
0.6438216535433071
20
0.206301968503937
11
0.6419547637795275
21
0.2090959842519685
0
LINE
8
BLACK
6
CONTINUOUS
10
0.6419547637795275
20
0.2090959842519685
11
0.6412992125984252
21
0.2123917322834646
0
LINE
8
BLACK
6
CONTINUOUS
10
0.6412992125984252
20
0.2123917322834646
11
0.6412992125984252
21
0.2296161417322835
0
LINE
8
BLACK
6
CONTINUOUS
10
0.6412992125984252
20
0.2296161417322835
11
0.6419547637795275
21
0.2329118897637795
0
LINE
8
BLACK
6
CONTINUOUS
10
0.6419547637795275
20
0.2329118897637795
11
0.6438216535433071
21
0.235705905511811
0
LINE
8
BLACK
6
CONTINUOUS
10
0.6438216535433071
20
0.235705905511811
11
0.6466156692913385
21
0.2375727952755906
0
LINE
8
BLACK
6
CONTINUOUS
10
0.6466156692913385
20
0.2375727952755906
11
0.6499114173228346
21
0.2382283464566929
0
LINE
8
BLACK
6
CONTINUOUS
10
0.6499114173228346
20
0.2382283464566929
11
0.6700885826771653
21
0.2382283464566929
0
LINE
8
BLACK
6
CONTINUOUS
10
0.6700885826771653
20
0.2382283464566929
11
0.6733843307086614
21
0.2375727952755906
0
LINE
8
BLACK
6
CONTINUOUS
10
0.2206536614173228
20
0.232818188976378
11
0.2225695275590551
21
0.231538031496063
0
LINE
8
BLACK
6
CONTINUOUS
10
0.2225695275590551
20
0.231538031496063
11
0.2238496850393701
21
0.2296221653543307
0
LINE
8
BLACK
6
CONTINUOUS
10
0.2238496850393701
20
0.2296221653543307
11
0.2242992125984252
21
0.2273622047244094
0
LINE
8
BLACK
6
CONTINUOUS
10
0.2242992125984252
20
0.2273622047244094
11
0.2242992125984252
21
0.2155511811023622
0
LINE
8
BLACK
6
CONTINUOUS
10
0.2242992125984252
20
0.2155511811023622
11
0.2238496850393701
21
0.213291220472441
0
LINE
8
BLACK
6
CONTINUOUS
10
0.2238496850393701
20
0.213291220472441
11
0.2225695275590551
21
0.2113753543307087
0
LINE
8
BLACK
6
CONTINUOUS
10
0.2225695275590551
20
0.2113753543307087
11
0.2206536614173228
21
0.2100951968503937
0
LINE
8
BLACK
6
CONTINUOUS
10
0.2206536614173228
20
0.2100951968503937
11
0.2183937007874016
21
0.2096456692913386
0
LINE
8
BLACK
6
CONTINUOUS
10
0.2183937007874016
20
0.2096456692913386
11
0.1632755905511811
21
0.2096456692913386
0
LINE
8
BLACK
6
CONTINUOUS
10
0.1632755905511811
20
0.2096456692913386
11
0.1610156299212598
21
0.2100951968503937
0
LINE
8
BLACK
6
CONTINUOUS
10
0.1610156299212598
20
0.2100951968503937
11
0.1590997637795276
21
0.2113753543307087
0
LINE
8
BLACK
6
CONTINUOUS
10
0.1590997637795276
20
0.2113753543307087
11
0.1578196062992126
21
0.213291220472441
0
LINE
8
BLACK
6
CONTINUOUS
10
0.1578196062992126
20
0.213291220472441
11
0.1573700787401575
21
0.2155511811023622
0
LINE
8
BLACK
6
CONTINUOUS
10
0.1573700787401575
20
0.2155511811023622
11
0.1573700787401575
21
0.2273622047244094
0
LINE
8
BLACK
6
CONTINUOUS
10
0.1573700787401575
20
0.2273622047244094
11
0.1578196062992126
21
0.2296221653543307
0
LINE
8
BLACK
6
CONTINUOUS
10
0.1578196062992126
20
0.2296221653543307
11
0.1590997637795276
21
0.231538031496063
0
LINE
8
BLACK
6
CONTINUOUS
10
0.1590997637795276
20
0.231538031496063
11
0.1610156299212598
21
0.232818188976378
0
LINE
8
BLACK
6
CONTINUOUS
10
0.1610156299212598
20
0.232818188976378
11
0.1632755905511811
21
0.2332677165354331
0
LINE
8
BLACK
6
CONTINUOUS
10
0.1632755905511811
20
0.2332677165354331
11
0.2183937007874016
21
0.2332677165354331
0
LINE
8
BLACK
6
CONTINUOUS
10
0.2183937007874016
20
0.2332677165354331
11
0.2206536614173228
21
0.232818188976378
0
LINE
8
BLACK
6
CONTINUOUS
10
0.9246720472440945
20
0.2852744094488189
11
0.9278651968503937
21
0.2831407874015748
0
LINE
8
BLACK
6
CONTINUOUS
10
0.9278651968503937
20
0.2831407874015748
11
0.9299988188976378
21
0.2799476377952756
0
LINE
8
BLACK
6
CONTINUOUS
10
0.9299988188976378
20
0.2799476377952756
11
0.9307479921259842
21
0.2761810236220472
0
LINE
8
BLACK
6
CONTINUOUS
10
0.9307479921259842
20
0.2761810236220472
11
0.930748031496063
21
0.2198819291338583
0
LINE
8
BLACK
6
CONTINUOUS
10
0.930748031496063
20
0.2198819291338583
11
0.9299988188976378
21
0.2161153543307087
0
LINE
8
BLACK
6
CONTINUOUS
10
0.9299988188976378
20
0.2161153543307087
11
0.9278651968503937
21
0.2129222047244095
0
LINE
8
BLACK
6
CONTINUOUS
10
0.9278651968503937
20
0.2129222047244095
11
0.9246720472440945
21
0.2107885826771654
0
LINE
8
BLACK
6
CONTINUOUS
10
0.9246720472440945
20
0.2107885826771654
11
0.9209054330708661
21
0.2100394094488189
0
LINE
8
BLACK
6
CONTINUOUS
10
0.9209054330708661
20
0.2100394094488189
11
0.8646063385826771
21
0.2100393700787402
0
LINE
8
BLACK
6
CONTINUOUS
10
0.8646063385826771
20
0.2100393700787402
11
0.8608397637795275
21
0.2107885826771654
0
LINE
8
BLACK
6
CONTINUOUS
10
0.8608397637795275
20
0.2107885826771654
11
0.8576466141732283
21
0.2129222047244095
0
LINE
8
BLACK
6
CONTINUOUS
10
0.8576466141732283
20
0.2129222047244095
11
0.8555129921259842
21
0.2161153543307087
0
LINE
8
BLACK
6
CONTINUOUS
10
0.8555129921259842
20
0.2161153543307087
11
0.8547638188976378
21
0.219881968503937
0
LINE
8
BLACK
6
CONTINUOUS
10
0.8547638188976378
20
0.219881968503937
11
0.854763779527559
21
0.276181062992126
0
LINE
8
BLACK
6
CONTINUOUS
10
0.854763779527559
20
0.276181062992126
11
0.8555129921259842
21
0.2799476377952756
0
LINE
8
BLACK
6
CONTINUOUS
10
0.8555129921259842
20
0.2799476377952756
11
0.8576466141732283
21
0.2831407874015748
0
LINE
8
BLACK
6
CONTINUOUS
10
0.8576466141732283
20
0.2831407874015748
11
0.8608397637795275
21
0.2852744094488189
0
LINE
8
BLACK
6
CONTINUOUS
10
0.8608397637795275
20
0.2852744094488189
11
0.8646063779527559
21
0.2860235826771653
0
LINE
8
BLACK
6
CONTINUOUS
10
0.8646063779527559
20
0.2860235826771653
11
0.9209054724409449
21
0.2860236220472441
0
LINE
8
BLACK
6
CONTINUOUS
10
0.9209054724409449
20
0.2860236220472441
11
0.9246720472440945
21
0.2852744094488189
0
LINE
8
BLACK
6
CONTINUOUS
10
1.0191602362204724
20
0.2852744094488189
11
1.0223533858267717
21
0.2831407874015748
0
LINE
8
BLACK
6
CONTINUOUS
10
1.0223533858267717
20
0.2831407874015748
11
1.0244870078740158
21
0.2799476377952756
0
LINE
8
BLACK
6
CONTINUOUS
10
1.0244870078740158
20
0.2799476377952756
11
1.0252361811023623
21
0.2761810236220472
0
LINE
8
BLACK
6
CONTINUOUS
10
1.0252361811023623
20
0.2761810236220472
11
1.025236220472441
21
0.2198819291338583
0
LINE
8
BLACK
6
CONTINUOUS
10
1.025236220472441
20
0.2198819291338583
11
1.0244870078740158
21
0.2161153543307087
0
LINE
8
BLACK
6
CONTINUOUS
10
1.0244870078740158
20
0.2161153543307087
11
1.0223533858267717
21
0.2129222047244095
0
LINE
8
BLACK
6
CONTINUOUS
10
1.0223533858267717
20
0.2129222047244095
11
1.0191602362204724
21
0.2107885826771654
0
LINE
8
BLACK
6
CONTINUOUS
10
1.0191602362204724
20
0.2107885826771654
11
1.0153936220472441
21
0.2100394094488189
0
LINE
8
BLACK
6
CONTINUOUS
10
1.0153936220472441
20
0.2100394094488189
11
0.9590945275590551
21
0.2100393700787402
0
LINE
8
BLACK
6
CONTINUOUS
10
0.9590945275590551
20
0.2100393700787402
11
0.9553279527559055
21
0.2107885826771654
0
LINE
8
BLACK
6
CONTINUOUS
10
0.9553279527559055
20
0.2107885826771654
11
0.9521348031496063
21
0.2129222047244095
0
LINE
8
BLACK
6
CONTINUOUS
10
0.9521348031496063
20
0.2129222047244095
11
0.9500011811023622
21
0.2161153543307087
0
LINE
8
BLACK
6
CONTINUOUS
10
0.9500011811023622
20
0.2161153543307087
11
0.9492520078740158
21
0.219881968503937
0
LINE
8
BLACK
6
CONTINUOUS
10
0.9492520078740158
20
0.219881968503937
11
0.949251968503937
21
0.276181062992126
0
LINE
8
BLACK
6
CONTINUOUS
10
0.949251968503937
20
0.276181062992126
11
0.9500011811023622
21
0.2799476377952756
0
LINE
8
BLACK
6
CONTINUOUS
10
0.9500011811023622
20
0.2799476377952756
11
0.9521348031496063
21
0.2831407874015748
0
LINE
8
BLACK
6
CONTINUOUS
10
0.9521348031496063
20
0.2831407874015748
11
0.9553279527559055
21
0.2852744094488189
0
LINE
8
BLACK
6
CONTINUOUS
10
0.9553279527559055
20
0.2852744094488189
11
0.9590945669291339
21
0.2860235826771653
0
LINE
8
BLACK
6
CONTINUOUS
10
0.9590945669291339
20
0.2860235826771653
11
1.0153936614173229
21
0.2860236220472441
0
LINE
8
BLACK
6
CONTINUOUS
10
1.0153936614173229
20
0.2860236220472441
11
1.0191602362204724
21
0.2852744094488189
0
LINE
8
BLACK
6
CONTINUOUS
10
0.4783843307086614
20
0.2585767322834646
11
0.4811783464566929
21
0.256709842519685
0
LINE
8
BLACK
6
CONTINUOUS
10
0.4811783464566929
20
0.256709842519685
11
0.4830452362204724
21
0.2539158267716535
0
LINE
8
BLACK
6
CONTINUOUS
10
0.4830452362204724
20
0.2539158267716535
11
0.4837007874015748
21
0.2506200787401575
0
LINE
8
BLACK
6
CONTINUOUS
10
0.4837007874015748
20
0.2506200787401575
11
0.4837007874015748
21
0.2333956692913386
0
LINE
8
BLACK
6
CONTINUOUS
10
0.4837007874015748
20
0.2333956692913386
11
0.4830452362204724
21
0.2300999212598425
0
LINE
8
BLACK
6
CONTINUOUS
10
0.4830452362204724
20
0.2300999212598425
11
0.4811783464566929
21
0.227305905511811
0
LINE
8
BLACK
6
CONTINUOUS
10
0.4811783464566929
20
0.227305905511811
11
0.4783843307086614
21
0.2254390157480315
0
LINE
8
BLACK
6
CONTINUOUS
10
0.4783843307086614
20
0.2254390157480315
11
0.4750885826771654
21
0.2247834645669291
0
LINE
8
BLACK
6
CONTINUOUS
10
0.4750885826771654
20
0.2247834645669291
11
0.4549114173228346
21
0.2247834645669291
0
LINE
8
BLACK
6
CONTINUOUS
10
0.4549114173228346
20
0.2247834645669291
11
0.4516156692913386
21
0.2254390157480315
0
LINE
8
BLACK
6
CONTINUOUS
10
0.4516156692913386
20
0.2254390157480315
11
0.4488216535433071
21
0.227305905511811
0
LINE
8
BLACK
6
CONTINUOUS
10
0.4488216535433071
20
0.227305905511811
11
0.4469547637795275
21
0.2300999212598425
0
LINE
8
BLACK
6
CONTINUOUS
10
0.4469547637795275
20
0.2300999212598425
11
0.4462992125984252
21
0.2333956692913386
0
LINE
8
BLACK
6
CONTINUOUS
10
0.4462992125984252
20
0.2333956692913386
11
0.4462992125984252
21
0.2506200787401575
0
LINE
8
BLACK
6
CONTINUOUS
10
0.4462992125984252
20
0.2506200787401575
11
0.4469547637795275
21
0.2539158267716535
0
LINE
8
BLACK
6
CONTINUOUS
10
0.4469547637795275
20
0.2539158267716535
11
0.4488216535433071
21
0.256709842519685
0
LINE
8
BLACK
6
CONTINUOUS
10
0.4488216535433071
20
0.256709842519685
11
0.4516156692913386
21
0.2585767322834646
0
LINE
8
BLACK
6
CONTINUOUS
10
0.4516156692913386
20
0.2585767322834646
11
0.4549114173228346
21
0.2592322834645669
0
LINE
8
BLACK
6
CONTINUOUS
10
0.4549114173228346
20
0.2592322834645669
11
0.4750885826771654
21
0.2592322834645669
0
LINE
8
BLACK
6
CONTINUOUS
10
0.4750885826771654
20
0.2592322834645669
11
0.4783843307086614
21
0.2585767322834646
0
LINE
8
BLACK
6
CONTINUOUS
10
0.8088511811023622
20
0.2621584251968504
11
0.8115653543307086
21
0.2603448818897638
0
LINE
8
BLACK
6
CONTINUOUS
10
0.8115653543307086
20
0.2603448818897638
11
0.8133788976377953
21
0.2576307086614173
0
LINE
8
BLACK
6
CONTINUOUS
10
0.8133788976377953
20
0.2576307086614173
11
0.814015748031496
21
0.2544291338582677
0
LINE
8
BLACK
6
CONTINUOUS
10
0.814015748031496
20
0.2544291338582677
11
0.814015748031496
21
0.2376968503937008
0
LINE
8
BLACK
6
CONTINUOUS
10
0.814015748031496
20
0.2376968503937008
11
0.8133788976377953
21
0.2344952755905512
0
LINE
8
BLACK
6
CONTINUOUS
10
0.8133788976377953
20
0.2344952755905512
11
0.8115653543307086
21
0.2317811023622047
0
LINE
8
BLACK
6
CONTINUOUS
10
0.8115653543307086
20
0.2317811023622047
11
0.8088511811023622
21
0.2299675590551181
0
LINE
8
BLACK
6
CONTINUOUS
10
0.8088511811023622
20
0.2299675590551181
11
0.8056496062992126
21
0.2293307086614173
0
LINE
8
BLACK
6
CONTINUOUS
10
0.8056496062992126
20
0.2293307086614173
11
0.7475787401574803
21
0.2293307086614173
0
LINE
8
BLACK
6
CONTINUOUS
10
0.7475787401574803
20
0.2293307086614173
11
0.7443771653543307
21
0.2299675590551181
0
LINE
8
BLACK
6
CONTINUOUS
10
0.7443771653543307
20
0.2299675590551181
11
0.7416629921259842
21
0.2317811023622047
0
LINE
8
BLACK
6
CONTINUOUS
10
0.7416629921259842
20
0.2317811023622047
11
0.7398494488188976
21
0.2344952755905512
0
LINE
8
BLACK
6
CONTINUOUS
10
0.7398494488188976
20
0.2344952755905512
11
0.7392125984251968
21
0.2376968503937008
0
LINE
8
BLACK
6
CONTINUOUS
10
0.7392125984251968
20
0.2376968503937008
11
0.7392125984251968
21
0.2544291338582677
0
LINE
8
BLACK
6
CONTINUOUS
10
0.7392125984251968
20
0.2544291338582677
11
0.7398494488188976
21
0.2576307086614173
0
LINE
8
BLACK
6
CONTINUOUS
10
0.7398494488188976
20
0.2576307086614173
11
0.7416629921259842
21
0.2603448818897638
0
LINE
8
BLACK
6
CONTINUOUS
10
0.7416629921259842
20
0.2603448818897638
11
0.7443771653543307
21
0.2621584251968504
0
LINE
8
BLACK
6
CONTINUOUS
10
0.7443771653543307
20
0.2621584251968504
11
0.7475787401574803
21
0.2627952755905512
0
LINE
8
BLACK
6
CONTINUOUS
10
0.7475787401574803
20
0.2627952755905512
11
0.8056496062992126
21
0.2627952755905512
0
LINE
8
BLACK
6
CONTINUOUS
10
0.8056496062992126
20
0.2627952755905512
11
0.8088511811023622
21
0.2621584251968504
0
LINE
8
BLACK
6
CONTINUOUS
10
1.1356228346456692
20
0.2621584251968504
11
1.1383370078740158
21
0.2603448818897638
0
LINE
8
BLACK
6
CONTINUOUS
10
1.1383370078740158
20
0.2603448818897638
11
1.1401505511811023
21
0.2576307086614173
0
LINE
8
BLACK
6
CONTINUOUS
10
1.1401505511811023
20
0.2576307086614173
11
1.1407874015748032
21
0.2544291338582677
0
LINE
8
BLACK
6
CONTINUOUS
10
1.1407874015748032
20
0.2544291338582677
11
1.1407874015748032
21
0.2376968503937008
0
LINE
8
BLACK
6
CONTINUOUS
10
1.1407874015748032
20
0.2376968503937008
11
1.1401505511811023
21
0.2344952755905512
0
LINE
8
BLACK
6
CONTINUOUS
10
1.1401505511811023
20
0.2344952755905512
11
1.1383370078740158
21
0.2317811023622047
0
LINE
8
BLACK
6
CONTINUOUS
10
1.1383370078740158
20
0.2317811023622047
11
1.1356228346456692
21
0.2299675590551181
0
LINE
8
BLACK
6
CONTINUOUS
10
1.1356228346456692
20
0.2299675590551181
11
1.1324212598425196
21
0.2293307086614173
0
LINE
8
BLACK
6
CONTINUOUS
10
1.1324212598425196
20
0.2293307086614173
11
1.0743503937007874
21
0.2293307086614173
0
LINE
8
BLACK
6
CONTINUOUS
10
1.0743503937007874
20
0.2293307086614173
11
1.0711488188976377
21
0.2299675590551181
0
LINE
8
BLACK
6
CONTINUOUS
10
1.0711488188976377
20
0.2299675590551181
11
1.0684346456692912
21
0.2317811023622047
0
LINE
8
BLACK
6
CONTINUOUS
10
1.0684346456692912
20
0.2317811023622047
11
1.0666211023622048
21
0.2344952755905512
0
LINE
8
BLACK
6
CONTINUOUS
10
1.0666211023622048
20
0.2344952755905512
11
1.0659842519685039
21
0.2376968503937008
0
LINE
8
BLACK
6
CONTINUOUS
10
1.0659842519685039
20
0.2376968503937008
11
1.0659842519685039
21
0.2544291338582677
0
LINE
8
BLACK
6
CONTINUOUS
10
1.0659842519685039
20
0.2544291338582677
11
1.0666211023622048
21
0.2576307086614173
0
LINE
8
BLACK
6
CONTINUOUS
10
1.0666211023622048
20
0.2576307086614173
11
1.0684346456692912
21
0.2603448818897638
0
LINE
8
BLACK
6
CONTINUOUS
10
1.0684346456692912
20
0.2603448818897638
11
1.0711488188976377
21
0.2621584251968504
0
LINE
8
BLACK
6
CONTINUOUS
10
1.0711488188976377
20
0.2621584251968504
11
1.0743503937007874
21
0.2627952755905512
0
LINE
8
BLACK
6
CONTINUOUS
10
1.0743503937007874
20
0.2627952755905512
11
1.1324212598425196
21
0.2627952755905512
0
LINE
8
BLACK
6
CONTINUOUS
10
1.1324212598425196
20
0.2627952755905512
11
1.1356228346456692
21
0.2621584251968504
0
LINE
8
BLACK
6
CONTINUOUS
10
0.2206536614173228
20
0.2820307874015748
11
0.2225695275590551
21
0.2807506299212598
0
LINE
8
BLACK
6
CONTINUOUS
10
0.2225695275590551
20
0.2807506299212598
11
0.2238496850393701
21
0.2788347637795275
0
LINE
8
BLACK
6
CONTINUOUS
10
0.2238496850393701
20
0.2788347637795275
11
0.2242992125984252
21
0.2765748031496063
0
LINE
8
BLACK
6
CONTINUOUS
10
0.2242992125984252
20
0.2765748031496063
11
0.2242992125984252
21
0.264763779527559
0
LINE
8
BLACK
6
CONTINUOUS
10
0.2242992125984252
20
0.264763779527559
11
0.2238496850393701
21
0.2625038188976378
0
LINE
8
BLACK
6
CONTINUOUS
10
0.2238496850393701
20
0.2625038188976378
11
0.2225695275590551
21
0.2605879527559055
0
LINE
8
BLACK
6
CONTINUOUS
10
0.2225695275590551
20
0.2605879527559055
11
0.2206536614173228
21
0.2593077952755906
0
LINE
8
BLACK
6
CONTINUOUS
10
0.2206536614173228
20
0.2593077952755906
11
0.2183937007874016
21
0.2588582677165354
0
LINE
8
BLACK
6
CONTINUOUS
10
0.2183937007874016
20
0.2588582677165354
11
0.1632755905511811
21
0.2588582677165354
0
LINE
8
BLACK
6
CONTINUOUS
10
0.1632755905511811
20
0.2588582677165354
11
0.1610156299212598
21
0.2593077952755906
0
LINE
8
BLACK
6
CONTINUOUS
10
0.1610156299212598
20
0.2593077952755906
11
0.1590997637795276
21
0.2605879527559055
0
LINE
8
BLACK
6
CONTINUOUS
10
0.1590997637795276
20
0.2605879527559055
11
0.1578196062992126
21
0.2625038188976378
0
LINE
8
BLACK
6
CONTINUOUS
10
0.1578196062992126
20
0.2625038188976378
11
0.1573700787401575
21
0.264763779527559
0
LINE
8
BLACK
6
CONTINUOUS
10
0.1573700787401575
20
0.264763779527559
11
0.1573700787401575
21
0.2765748031496063
0
LINE
8
BLACK
6
CONTINUOUS
10
0.1573700787401575
20
0.2765748031496063
11
0.1578196062992126
21
0.2788347637795275
0
LINE
8
BLACK
6
CONTINUOUS
10
0.1578196062992126
20
0.2788347637795275
11
0.1590997637795276
21
0.2807506299212598
0
LINE
8
BLACK
6
CONTINUOUS
10
0.1590997637795276
20
0.2807506299212598
11
0.1610156299212598
21
0.2820307874015748
0
LINE
8
BLACK
6
CONTINUOUS
10
0.1610156299212598
20
0.2820307874015748
11
0.1632755905511811
21
0.2824803149606299
0
LINE
8
BLACK
6
CONTINUOUS
10
0.1632755905511811
20
0.2824803149606299
11
0.2183937007874016
21
0.2824803149606299
0
LINE
8
BLACK
6
CONTINUOUS
10
0.2183937007874016
20
0.2824803149606299
11
0.2206536614173228
21
0.2820307874015748
0
LINE
8
BLACK
6
CONTINUOUS
10
0.3303937007874015
20
0.2624409448818897
11
0.3048031496062992
21
0.2624409448818897
0
LINE
8
BLACK
6
CONTINUOUS
10
0.3048031496062992
20
0.2624409448818897
11
0.3048031496062992
21
0.3041732283464567
0
LINE
8
BLACK
6
CONTINUOUS
10
0.3048031496062992
20
0.3041732283464567
11
0.3303937007874015
21
0.3041732283464567
0
LINE
8
BLACK
6
CONTINUOUS
10
0.3303937007874015
20
0.3041732283464567
11
0.3303937007874015
21
0.2624409448818897
0
LINE
8
BLACK
6
CONTINUOUS
10
0.4051968503937008
20
0.2624409448818897
11
0.3796062992125984
21
0.2624409448818897
0
LINE
8
BLACK
6
CONTINUOUS
10
0.3796062992125984
20
0.2624409448818897
11
0.3796062992125984
21
0.3041732283464567
0
LINE
8
BLACK
6
CONTINUOUS
10
0.3796062992125984
20
0.3041732283464567
11
0.4051968503937008
21
0.3041732283464567
0
LINE
8
BLACK
6
CONTINUOUS
10
0.4051968503937008
20
0.3041732283464567
11
0.4051968503937008
21
0.2624409448818897
0
LINE
8
BLACK
6
CONTINUOUS
10
0.8088511811023622
20
0.3113710236220472
11
0.8115653543307086
21
0.3095574803149606
0
LINE
8
BLACK
6
CONTINUOUS
10
0.8115653543307086
20
0.3095574803149606
11
0.8133788976377953
21
0.3068433070866142
0
LINE
8
BLACK
6
CONTINUOUS
10
0.8133788976377953
20
0.3068433070866142
11
0.814015748031496
21
0.3036417322834646
0
LINE
8
BLACK
6
CONTINUOUS
10
0.814015748031496
20
0.3036417322834646
11
0.814015748031496
21
0.2869094488188976
0
LINE
8
BLACK
6
CONTINUOUS
10
0.814015748031496
20
0.2869094488188976
11
0.8133788976377953
21
0.283707874015748
0
LINE
8
BLACK
6
CONTINUOUS
10
0.8133788976377953
20
0.283707874015748
11
0.8115653543307086
21
0.2809937007874015
0
LINE
8
BLACK
6
CONTINUOUS
10
0.8115653543307086
20
0.2809937007874015
11
0.8088511811023622
21
0.2791801574803149
0
LINE
8
BLACK
6
CONTINUOUS
10
0.8088511811023622
20
0.2791801574803149
11
0.8056496062992126
21
0.2785433070866142
0
LINE
8
BLACK
6
CONTINUOUS
10
0.8056496062992126
20
0.2785433070866142
11
0.7475787401574803
21
0.2785433070866142
0
LINE
8
BLACK
6
CONTINUOUS
10
0.7475787401574803
20
0.2785433070866142
11
0.7443771653543307
21
0.2791801574803149
0
LINE
8
BLACK
6
CONTINUOUS
10
0.7443771653543307
20
0.2791801574803149
11
0.7416629921259842
21
0.2809937007874015
0
LINE
8
BLACK
6
CONTINUOUS
10
0.7416629921259842
20
0.2809937007874015
11
0.7398494488188976
21
0.283707874015748
0
LINE
8
BLACK
6
CONTINUOUS
10
0.7398494488188976
20
0.283707874015748
11
0.7392125984251968
21
0.2869094488188976
0
LINE
8
BLACK
6
CONTINUOUS
10
0.7392125984251968
20
0.2869094488188976
11
0.7392125984251968
21
0.3036417322834646
0
LINE
8
BLACK
6
CONTINUOUS
10
0.7392125984251968
20
0.3036417322834646
11
0.7398494488188976
21
0.3068433070866142
0
LINE
8
BLACK
6
CONTINUOUS
10
0.7398494488188976
20
0.3068433070866142
11
0.7416629921259842
21
0.3095574803149606
0
LINE
8
BLACK
6
CONTINUOUS
10
0.7416629921259842
20
0.3095574803149606
11
0.7443771653543307
21
0.3113710236220472
0
LINE
8
BLACK
6
CONTINUOUS
10
0.7443771653543307
20
0.3113710236220472
11
0.7475787401574803
21
0.312007874015748
0
LINE
8
BLACK
6
CONTINUOUS
10
0.7475787401574803
20
0.312007874015748
11
0.8056496062992126
21
0.312007874015748
0
LINE
8
BLACK
6
CONTINUOUS
10
0.8056496062992126
20
0.312007874015748
11
0.8088511811023622
21
0.3113710236220472
0
LINE
8
BLACK
6
CONTINUOUS
10
1.1356228346456692
20
0.3113710236220472
11
1.1383370078740158
21
0.3095574803149606
0
LINE
8
BLACK
6
CONTINUOUS
10
1.1383370078740158
20
0.3095574803149606
11
1.1401505511811023
21
0.3068433070866142
0
LINE
8
BLACK
6
CONTINUOUS
10
1.1401505511811023
20
0.3068433070866142
11
1.1407874015748032
21
0.3036417322834646
0
LINE
8
BLACK
6
CONTINUOUS
10
1.1407874015748032
20
0.3036417322834646
11
1.1407874015748032
21
0.2869094488188976
0
LINE
8
BLACK
6
CONTINUOUS
10
1.1407874015748032
20
0.2869094488188976
11
1.1401505511811023
21
0.283707874015748
0
LINE
8
BLACK
6
CONTINUOUS
10
1.1401505511811023
20
0.283707874015748
11
1.1383370078740158
21
0.2809937007874015
0
LINE
8
BLACK
6
CONTINUOUS
10
1.1383370078740158
20
0.2809937007874015
11
1.1356228346456692
21
0.2791801574803149
0
LINE
8
BLACK
6
CONTINUOUS
10
1.1356228346456692
20
0.2791801574803149
11
1.1324212598425196
21
0.2785433070866142
0
LINE
8
BLACK
6
CONTINUOUS
10
1.1324212598425196
20
0.2785433070866142
11
1.0743503937007874
21
0.2785433070866142
0
LINE
8
BLACK
6
CONTINUOUS
10
1.0743503937007874
20
0.2785433070866142
11
1.0711488188976377
21
0.2791801574803149
0
LINE
8
BLACK
6
CONTINUOUS
10
1.0711488188976377
20
0.2791801574803149
11
1.0684346456692912
21
0.2809937007874015
0
LINE
8
BLACK
6
CONTINUOUS
10
1.0684346456692912
20
0.2809937007874015
11
1.0666211023622048
21
0.283707874015748
0
LINE
8
BLACK
6
CONTINUOUS
10
1.0666211023622048
20
0.283707874015748
11
1.0659842519685039
21
0.2869094488188976
0
LINE
8
BLACK
6
CONTINUOUS
10
1.0659842519685039
20
0.2869094488188976
11
1.0659842519685039
21
0.3036417322834646
0
LINE
8
BLACK
6
CONTINUOUS
10
1.0659842519685039
20
0.3036417322834646
11
1.0666211023622048
21
0.3068433070866142
0
LINE
8
BLACK
6
CONTINUOUS
10
1.0666211023622048
20
0.3068433070866142
11
1.0684346456692912
21
0.3095574803149606
0
LINE
8
BLACK
6
CONTINUOUS
10
1.0684346456692912
20
0.3095574803149606
11
1.0711488188976377
21
0.3113710236220472
0
LINE
8
BLACK
6
CONTINUOUS
10
1.0711488188976377
20
0.3113710236220472
11
1.0743503937007874
21
0.312007874015748
0
LINE
8
BLACK
6
CONTINUOUS
10
1.0743503937007874
20
0.312007874015748
11
1.1324212598425196
21
0.312007874015748
0
LINE
8
BLACK
6
CONTINUOUS
10
1.1324212598425196
20
0.312007874015748
11
1.1356228346456692
21
0.3113710236220472
0
LINE
8
BLACK
6
CONTINUOUS
10
0.9246720472440945
20
0.3797625984251968
11
0.9278651968503937
21
0.3776289763779527
0
LINE
8
BLACK
6
CONTINUOUS
10
0.9278651968503937
20
0.3776289763779527
11
0.9299988188976378
21
0.3744358267716535
0
LINE
8
BLACK
6
CONTINUOUS
10
0.9299988188976378
20
0.3744358267716535
11
0.9307479921259842
21
0.3706692125984252
0
LINE
8
BLACK
6
CONTINUOUS
10
0.9307479921259842
20
0.3706692125984252
11
0.930748031496063
21
0.3143701181102362
0
LINE
8
BLACK
6
CONTINUOUS
10
0.930748031496063
20
0.3143701181102362
11
0.9299988188976378
21
0.3106035433070866
0
LINE
8
BLACK
6
CONTINUOUS
10
0.9299988188976378
20
0.3106035433070866
11
0.9278651968503937
21
0.3074103937007874
0
LINE
8
BLACK
6
CONTINUOUS
10
0.9278651968503937
20
0.3074103937007874
11
0.9246720472440945
21
0.3052767716535433
0
LINE
8
BLACK
6
CONTINUOUS
10
0.9246720472440945
20
0.3052767716535433
11
0.9209054330708661
21
0.3045275984251968
0
LINE
8
BLACK
6
CONTINUOUS
10
0.9209054330708661
20
0.3045275984251968
11
0.8646063385826771
21
0.3045275590551181
0
LINE
8
BLACK
6
CONTINUOUS
10
0.8646063385826771
20
0.3045275590551181
11
0.8608397637795275
21
0.3052767716535433
0
LINE
8
BLACK
6
CONTINUOUS
10
0.8608397637795275
20
0.3052767716535433
11
0.8576466141732283
21
0.3074103937007874
0
LINE
8
BLACK
6
CONTINUOUS
10
0.8576466141732283
20
0.3074103937007874
11
0.8555129921259842
21
0.3106035433070866
0
LINE
8
BLACK
6
CONTINUOUS
10
0.8555129921259842
20
0.3106035433070866
11
0.8547638188976378
21
0.3143701574803149
0
LINE
8
BLACK
6
CONTINUOUS
10
0.8547638188976378
20
0.3143701574803149
11
0.854763779527559
21
0.3706692519685039
0
LINE
8
BLACK
6
CONTINUOUS
10
0.854763779527559
20
0.3706692519685039
11
0.8555129921259842
21
0.3744358267716535
0
LINE
8
BLACK
6
CONTINUOUS
10
0.8555129921259842
20
0.3744358267716535
11
0.8576466141732283
21
0.3776289763779527
0
LINE
8
BLACK
6
CONTINUOUS
10
0.8576466141732283
20
0.3776289763779527
11
0.8608397637795275
21
0.3797625984251968
0
LINE
8
BLACK
6
CONTINUOUS
10
0.8608397637795275
20
0.3797625984251968
11
0.8646063779527559
21
0.3805117716535433
0
LINE
8
BLACK
6
CONTINUOUS
10
0.8646063779527559
20
0.3805117716535433
11
0.9209054724409449
21
0.380511811023622
0
LINE
8
BLACK
6
CONTINUOUS
10
0.9209054724409449
20
0.380511811023622
11
0.9246720472440945
21
0.3797625984251968
0
LINE
8
BLACK
6
CONTINUOUS
10
1.0191602362204724
20
0.3797625984251968
11
1.0223533858267717
21
0.3776289763779527
0
LINE
8
BLACK
6
CONTINUOUS
10
1.0223533858267717
20
0.3776289763779527
11
1.0244870078740158
21
0.3744358267716535
0
LINE
8
BLACK
6
CONTINUOUS
10
1.0244870078740158
20
0.3744358267716535
11
1.0252361811023623
21
0.3706692125984252
0
LINE
8
BLACK
6
CONTINUOUS
10
1.0252361811023623
20
0.3706692125984252
11
1.025236220472441
21
0.3143701181102362
0
LINE
8
BLACK
6
CONTINUOUS
10
1.025236220472441
20
0.3143701181102362
11
1.0244870078740158
21
0.3106035433070866
0
LINE
8
BLACK
6
CONTINUOUS
10
1.0244870078740158
20
0.3106035433070866
11
1.0223533858267717
21
0.3074103937007874
0
LINE
8
BLACK
6
CONTINUOUS
10
1.0223533858267717
20
0.3074103937007874
11
1.0191602362204724
21
0.3052767716535433
0
LINE
8
BLACK
6
CONTINUOUS
10
1.0191602362204724
20
0.3052767716535433
11
1.0153936220472441
21
0.3045275984251968
0
LINE
8
BLACK
6
CONTINUOUS
10
1.0153936220472441
20
0.3045275984251968
11
0.9590945275590551
21
0.3045275590551181
0
LINE
8
BLACK
6
CONTINUOUS
10
0.9590945275590551
20
0.3045275590551181
11
0.9553279527559055
21
0.3052767716535433
0
LINE
8
BLACK
6
CONTINUOUS
10
0.9553279527559055
20
0.3052767716535433
11
0.9521348031496063
21
0.3074103937007874
0
LINE
8
BLACK
6
CONTINUOUS
10
0.9521348031496063
20
0.3074103937007874
11
0.9500011811023622
21
0.3106035433070866
0
LINE
8
BLACK
6
CONTINUOUS
10
0.9500011811023622
20
0.3106035433070866
11
0.9492520078740158
21
0.3143701574803149
0
LINE
8
BLACK
6
CONTINUOUS
10
0.9492520078740158
20
0.3143701574803149
11
0.949251968503937
21
0.3706692519685039
0
LINE
8
BLACK
6
CONTINUOUS
10
0.949251968503937
20
0.3706692519685039
11
0.9500011811023622
21
0.3744358267716535
0
LINE
8
BLACK
6
CONTINUOUS
10
0.9500011811023622
20
0.3744358267716535
11
0.9521348031496063
21
0.3776289763779527
0
LINE
8
BLACK
6
CONTINUOUS
10
0.9521348031496063
20
0.3776289763779527
11
0.9553279527559055
21
0.3797625984251968
0
LINE
8
BLACK
6
CONTINUOUS
10
0.9553279527559055
20
0.3797625984251968
11
0.9590945669291339
21
0.3805117716535433
0
LINE
8
BLACK
6
CONTINUOUS
10
0.9590945669291339
20
0.3805117716535433
11
1.0153936614173229
21
0.380511811023622
0
LINE
8
BLACK
6
CONTINUOUS
10
1.0153936614173229
20
0.380511811023622
11
1.0191602362204724
21
0.3797625984251968
0
LINE
8
BLACK
6
CONTINUOUS
10
0.2206536614173228
20
0.3312433858267717
11
0.2225695275590551
21
0.3299632283464567
0
LINE
8
BLACK
6
CONTINUOUS
10
0.2225695275590551
20
0.3299632283464567
11
0.2238496850393701
21
0.3280473622047244
0
LINE
8
BLACK
6
CONTINUOUS
10
0.2238496850393701
20
0.3280473622047244
11
0.2242992125984252
21
0.3257874015748031
0
LINE
8
BLACK
6
CONTINUOUS
10
0.2242992125984252
20
0.3257874015748031
11
0.2242992125984252
21
0.3139763779527559
0
LINE
8
BLACK
6
CONTINUOUS
10
0.2242992125984252
20
0.3139763779527559
11
0.2238496850393701
21
0.3117164173228346
0
LINE
8
BLACK
6
CONTINUOUS
10
0.2238496850393701
20
0.3117164173228346
11
0.2225695275590551
21
0.3098005511811023
0
LINE
8
BLACK
6
CONTINUOUS
10
0.2225695275590551
20
0.3098005511811023
11
0.2206536614173228
21
0.3085203937007874
0
LINE
8
BLACK
6
CONTINUOUS
10
0.2206536614173228
20
0.3085203937007874
11
0.2183937007874016
21
0.3080708661417323
0
LINE
8
BLACK
6
CONTINUOUS
10
0.2183937007874016
20
0.3080708661417323
11
0.1632755905511811
21
0.3080708661417323
0
LINE
8
BLACK
6
CONTINUOUS
10
0.1632755905511811
20
0.3080708661417323
11
0.1610156299212598
21
0.3085203937007874
0
LINE
8
BLACK
6
CONTINUOUS
10
0.1610156299212598
20
0.3085203937007874
11
0.1590997637795276
21
0.3098005511811023
0
LINE
8
BLACK
6
CONTINUOUS
10
0.1590997637795276
20
0.3098005511811023
11
0.1578196062992126
21
0.3117164173228346
0
LINE
8
BLACK
6
CONTINUOUS
10
0.1578196062992126
20
0.3117164173228346
11
0.1573700787401575
21
0.3139763779527559
0
LINE
8
BLACK
6
CONTINUOUS
10
0.1573700787401575
20
0.3139763779527559
11
0.1573700787401575
21
0.3257874015748031
0
LINE
8
BLACK
6
CONTINUOUS
10
0.1573700787401575
20
0.3257874015748031
11
0.1578196062992126
21
0.3280473622047244
0
LINE
8
BLACK
6
CONTINUOUS
10
0.1578196062992126
20
0.3280473622047244
11
0.1590997637795276
21
0.3299632283464567
0
LINE
8
BLACK
6
CONTINUOUS
10
0.1590997637795276
20
0.3299632283464567
11
0.1610156299212598
21
0.3312433858267717
0
LINE
8
BLACK
6
CONTINUOUS
10
0.1610156299212598
20
0.3312433858267717
11
0.1632755905511811
21
0.3316929133858267
0
LINE
8
BLACK
6
CONTINUOUS
10
0.1632755905511811
20
0.3316929133858267
11
0.2183937007874016
21
0.3316929133858267
0
LINE
8
BLACK
6
CONTINUOUS
10
0.2183937007874016
20
0.3316929133858267
11
0.2206536614173228
21
0.3312433858267717
0
LINE
8
BLACK
6
CONTINUOUS
10
0.8088511811023622
20
0.3605836220472441
11
0.8115653543307086
21
0.3587700787401575
0
LINE
8
BLACK
6
CONTINUOUS
10
0.8115653543307086
20
0.3587700787401575
11
0.8133788976377953
21
0.356055905511811
0
LINE
8
BLACK
6
CONTINUOUS
10
0.8133788976377953
20
0.356055905511811
11
0.814015748031496
21
0.3528543307086614
0
LINE
8
BLACK
6
CONTINUOUS
10
0.814015748031496
20
0.3528543307086614
11
0.814015748031496
21
0.3361220472440945
0
LINE
8
BLACK
6
CONTINUOUS
10
0.814015748031496
20
0.3361220472440945
11
0.8133788976377953
21
0.3329204724409449
0
LINE
8
BLACK
6
CONTINUOUS
10
0.8133788976377953
20
0.3329204724409449
11
0.8115653543307086
21
0.3302062992125984
0
LINE
8
BLACK
6
CONTINUOUS
10
0.8115653543307086
20
0.3302062992125984
11
0.8088511811023622
21
0.3283927559055118
0
LINE
8
BLACK
6
CONTINUOUS
10
0.8088511811023622
20
0.3283927559055118
11
0.8056496062992126
21
0.327755905511811
0
LINE
8
BLACK
6
CONTINUOUS
10
0.8056496062992126
20
0.327755905511811
11
0.7475787401574803
21
0.327755905511811
0
LINE
8
BLACK
6
CONTINUOUS
10
0.7475787401574803
20
0.327755905511811
11
0.7443771653543307
21
0.3283927559055118
0
LINE
8
BLACK
6
CONTINUOUS
10
0.7443771653543307
20
0.3283927559055118
11
0.7416629921259842
21
0.3302062992125984
0
LINE
8
BLACK
6
CONTINUOUS
10
0.7416629921259842
20
0.3302062992125984
11
0.7398494488188976
21
0.3329204724409449
0
LINE
8
BLACK
6
CONTINUOUS
10
0.7398494488188976
20
0.3329204724409449
11
0.7392125984251968
21
0.3361220472440945
0
LINE
8
BLACK
6
CONTINUOUS
10
0.7392125984251968
20
0.3361220472440945
11
0.7392125984251968
21
0.3528543307086614
0
LINE
8
BLACK
6
CONTINUOUS
10
0.7392125984251968
20
0.3528543307086614
11
0.7398494488188976
21
0.356055905511811
0
LINE
8
BLACK
6
CONTINUOUS
10
0.7398494488188976
20
0.356055905511811
11
0.7416629921259842
21
0.3587700787401575
0
LINE
8
BLACK
6
CONTINUOUS
10
0.7416629921259842
20
0.3587700787401575
11
0.7443771653543307
21
0.3605836220472441
0
LINE
8
BLACK
6
CONTINUOUS
10
0.7443771653543307
20
0.3605836220472441
11
0.7475787401574803
21
0.3612204724409449
0
LINE
8
BLACK
6
CONTINUOUS
10
0.7475787401574803
20
0.3612204724409449
11
0.8056496062992126
21
0.3612204724409449
0
LINE
8
BLACK
6
CONTINUOUS
10
0.8056496062992126
20
0.3612204724409449
11
0.8088511811023622
21
0.3605836220472441
0
LINE
8
BLACK
6
CONTINUOUS
10
1.1356228346456692
20
0.3605836220472441
11
1.1383370078740158
21
0.3587700787401575
0
LINE
8
BLACK
6
CONTINUOUS
10
1.1383370078740158
20
0.3587700787401575
11
1.1401505511811023
21
0.356055905511811
0
LINE
8
BLACK
6
CONTINUOUS
10
1.1401505511811023
20
0.356055905511811
11
1.1407874015748032
21
0.3528543307086614
0
LINE
8
BLACK
6
CONTINUOUS
10
1.1407874015748032
20
0.3528543307086614
11
1.1407874015748032
21
0.3361220472440945
0
LINE
8
BLACK
6
CONTINUOUS
10
1.1407874015748032
20
0.3361220472440945
11
1.1401505511811023
21
0.3329204724409449
0
LINE
8
BLACK
6
CONTINUOUS
10
1.1401505511811023
20
0.3329204724409449
11
1.1383370078740158
21
0.3302062992125984
0
LINE
8
BLACK
6
CONTINUOUS
10
1.1383370078740158
20
0.3302062992125984
11
1.1356228346456692
21
0.3283927559055118
0
LINE
8
BLACK
6
CONTINUOUS
10
1.1356228346456692
20
0.3283927559055118
11
1.1324212598425196
21
0.327755905511811
0
LINE
8
BLACK
6
CONTINUOUS
10
1.1324212598425196
20
0.327755905511811
11
1.0743503937007874
21
0.327755905511811
0
LINE
8
BLACK
6
CONTINUOUS
10
1.0743503937007874
20
0.327755905511811
11
1.0711488188976377
21
0.3283927559055118
0
LINE
8
BLACK
6
CONTINUOUS
10
1.0711488188976377
20
0.3283927559055118
11
1.0684346456692912
21
0.3302062992125984
0
LINE
8
BLACK
6
CONTINUOUS
10
1.0684346456692912
20
0.3302062992125984
11
1.0666211023622048
21
0.3329204724409449
0
LINE
8
BLACK
6
CONTINUOUS
10
1.0666211023622048
20
0.3329204724409449
11
1.0659842519685039
21
0.3361220472440945
0
LINE
8
BLACK
6
CONTINUOUS
10
1.0659842519685039
20
0.3361220472440945
11
1.0659842519685039
21
0.3528543307086614
0
LINE
8
BLACK
6
CONTINUOUS
10
1.0659842519685039
20
0.3528543307086614
11
1.0666211023622048
21
0.356055905511811
0
LINE
8
BLACK
6
CONTINUOUS
10
1.0666211023622048
20
0.356055905511811
11
1.0684346456692912
21
0.3587700787401575
0
LINE
8
BLACK
6
CONTINUOUS
10
1.0684346456692912
20
0.3587700787401575
11
1.0711488188976377
21
0.3605836220472441
0
LINE
8
BLACK
6
CONTINUOUS
10
1.0711488188976377
20
0.3605836220472441
11
1.0743503937007874
21
0.3612204724409449
0
LINE
8
BLACK
6
CONTINUOUS
10
1.0743503937007874
20
0.3612204724409449
11
1.1324212598425196
21
0.3612204724409449
0
LINE
8
BLACK
6
CONTINUOUS
10
1.1324212598425196
20
0.3612204724409449
11
1.1356228346456692
21
0.3605836220472441
0
LINE
8
BLACK
6
CONTINUOUS
10
0.4535236220472441
20
0.334763779527559
11
0.3985236220472441
21
0.334763779527559
0
LINE
8
BLACK
6
CONTINUOUS
10
0.3985236220472441
20
0.334763779527559
11
0.3985236220472441
21
0.3697637795275591
0
LINE
8
BLACK
6
CONTINUOUS
10
0.3985236220472441
20
0.3697637795275591
11
0.4535236220472441
21
0.3697637795275591
0
LINE
8
BLACK
6
CONTINUOUS
10
0.4535236220472441
20
0.3697637795275591
11
0.4535236220472441
21
0.334763779527559
0
LINE
8
BLACK
6
CONTINUOUS
10
0.5211008661417322
20
0.3694231889763779
11
0.5238948818897637
21
0.3675562992125984
0
LINE
8
BLACK
6
CONTINUOUS
10
0.5238948818897637
20
0.3675562992125984
11
0.5257617716535433
21
0.3647622834645669
0
LINE
8
BLACK
6
CONTINUOUS
10
0.5257617716535433
20
0.3647622834645669
11
0.5264173228346457
21
0.3614665354330708
0
LINE
8
BLACK
6
CONTINUOUS
10
0.5264173228346457
20
0.3614665354330708
11
0.5264173228346457
21
0.344242125984252
0
LINE
8
BLACK
6
CONTINUOUS
10
0.5264173228346457
20
0.344242125984252
11
0.5257617716535433
21
0.3409463779527559
0
LINE
8
BLACK
6
CONTINUOUS
10
0.5257617716535433
20
0.3409463779527559
11
0.5238948818897637
21
0.3381523622047244
0
LINE
8
BLACK
6
CONTINUOUS
10
0.5238948818897637
20
0.3381523622047244
11
0.5211008661417322
21
0.3362854724409449
0
LINE
8
BLACK
6
CONTINUOUS
10
0.5211008661417322
20
0.3362854724409449
11
0.5178051181102362
21
0.3356299212598425
0
LINE
8
BLACK
6
CONTINUOUS
10
0.5178051181102362
20
0.3356299212598425
11
0.4976279527559055
21
0.3356299212598425
0
LINE
8
BLACK
6
CONTINUOUS
10
0.4976279527559055
20
0.3356299212598425
11
0.4943322047244094
21
0.3362854724409449
0
LINE
8
BLACK
6
CONTINUOUS
10
0.4943322047244094
20
0.3362854724409449
11
0.491538188976378
21
0.3381523622047244
0
LINE
8
BLACK
6
CONTINUOUS
10
0.491538188976378
20
0.3381523622047244
11
0.4896712992125984
21
0.3409463779527559
0
LINE
8
BLACK
6
CONTINUOUS
10
0.4896712992125984
20
0.3409463779527559
11
0.4890157480314961
21
0.344242125984252
0
LINE
8
BLACK
6
CONTINUOUS
10
0.4890157480314961
20
0.344242125984252
11
0.4890157480314961
21
0.3614665354330708
0
LINE
8
BLACK
6
CONTINUOUS
10
0.4890157480314961
20
0.3614665354330708
11
0.4896712992125984
21
0.3647622834645669
0
LINE
8
BLACK
6
CONTINUOUS
10
0.4896712992125984
20
0.3647622834645669
11
0.491538188976378
21
0.3675562992125984
0
LINE
8
BLACK
6
CONTINUOUS
10
0.491538188976378
20
0.3675562992125984
11
0.4943322047244094
21
0.3694231889763779
0
LINE
8
BLACK
6
CONTINUOUS
10
0.4943322047244094
20
0.3694231889763779
11
0.4976279527559055
21
0.3700787401574803
0
LINE
8
BLACK
6
CONTINUOUS
10
0.4976279527559055
20
0.3700787401574803
11
0.5178051181102362
21
0.3700787401574803
0
LINE
8
BLACK
6
CONTINUOUS
10
0.5178051181102362
20
0.3700787401574803
11
0.5211008661417322
21
0.3694231889763779
0
LINE
8
BLACK
6
CONTINUOUS
10
0.5933843307086614
20
0.3705649212598425
11
0.5961783464566929
21
0.368698031496063
0
LINE
8
BLACK
6
CONTINUOUS
10
0.5961783464566929
20
0.368698031496063
11
0.5980452362204725
21
0.3659040157480315
0
LINE
8
BLACK
6
CONTINUOUS
10
0.5980452362204725
20
0.3659040157480315
11
0.5987007874015748
21
0.3626082677165354
0
LINE
8
BLACK
6
CONTINUOUS
10
0.5987007874015748
20
0.3626082677165354
11
0.5987007874015748
21
0.3453838582677165
0
LINE
8
BLACK
6
CONTINUOUS
10
0.5987007874015748
20
0.3453838582677165
11
0.5980452362204725
21
0.3420881102362205
0
LINE
8
BLACK
6
CONTINUOUS
10
0.5980452362204725
20
0.3420881102362205
11
0.5961783464566929
21
0.339294094488189
0
LINE
8
BLACK
6
CONTINUOUS
10
0.5961783464566929
20
0.339294094488189
11
0.5933843307086614
21
0.3374272047244095
0
LINE
8
BLACK
6
CONTINUOUS
10
0.5933843307086614
20
0.3374272047244095
11
0.5900885826771654
21
0.3367716535433071
0
LINE
8
BLACK
6
CONTINUOUS
10
0.5900885826771654
20
0.3367716535433071
11
0.5699114173228347
21
0.3367716535433071
0
LINE
8
BLACK
6
CONTINUOUS
10
0.5699114173228347
20
0.3367716535433071
11
0.5666156692913386
21
0.3374272047244095
0
LINE
8
BLACK
6
CONTINUOUS
10
0.5666156692913386
20
0.3374272047244095
11
0.563821653543307
21
0.339294094488189
0
LINE
8
BLACK
6
CONTINUOUS
10
0.563821653543307
20
0.339294094488189
11
0.5619547637795276
21
0.3420881102362205
0
LINE
8
BLACK
6
CONTINUOUS
10
0.5619547637795276
20
0.3420881102362205
11
0.5612992125984252
21
0.3453838582677165
0
LINE
8
BLACK
6
CONTINUOUS
10
0.5612992125984252
20
0.3453838582677165
11
0.5612992125984252
21
0.3626082677165354
0
LINE
8
BLACK
6
CONTINUOUS
10
0.5612992125984252
20
0.3626082677165354
11
0.5619547637795276
21
0.3659040157480315
0
LINE
8
BLACK
6
CONTINUOUS
10
0.5619547637795276
20
0.3659040157480315
11
0.563821653543307
21
0.368698031496063
0
LINE
8
BLACK
6
CONTINUOUS
10
0.563821653543307
20
0.368698031496063
11
0.5666156692913386
21
0.3705649212598425
0
LINE
8
BLACK
6
CONTINUOUS
10
0.5666156692913386
20
0.3705649212598425
11
0.5699114173228347
21
0.3712204724409449
0
LINE
8
BLACK
6
CONTINUOUS
10
0.5699114173228347
20
0.3712204724409449
11
0.5900885826771654
21
0.3712204724409449
0
LINE
8
BLACK
6
CONTINUOUS
10
0.5900885826771654
20
0.3712204724409449
11
0.5933843307086614
21
0.3705649212598425
0
LINE
8
BLACK
6
CONTINUOUS
10
0.6683843307086614
20
0.3705649212598425
11
0.6711783464566929
21
0.368698031496063
0
LINE
8
BLACK
6
CONTINUOUS
10
0.6711783464566929
20
0.368698031496063
11
0.6730452362204724
21
0.3659040157480315
0
LINE
8
BLACK
6
CONTINUOUS
10
0.6730452362204724
20
0.3659040157480315
11
0.6737007874015748
21
0.3626082677165354
0
LINE
8
BLACK
6
CONTINUOUS
10
0.6737007874015748
20
0.3626082677165354
11
0.6737007874015748
21
0.3453838582677165
0
LINE
8
BLACK
6
CONTINUOUS
10
0.6737007874015748
20
0.3453838582677165
11
0.6730452362204724
21
0.3420881102362205
0
LINE
8
BLACK
6
CONTINUOUS
10
0.6730452362204724
20
0.3420881102362205
11
0.6711783464566929
21
0.339294094488189
0
LINE
8
BLACK
6
CONTINUOUS
10
0.6711783464566929
20
0.339294094488189
11
0.6683843307086614
21
0.3374272047244095
0
LINE
8
BLACK
6
CONTINUOUS
10
0.6683843307086614
20
0.3374272047244095
11
0.6650885826771653
21
0.3367716535433071
0
LINE
8
BLACK
6
CONTINUOUS
10
0.6650885826771653
20
0.3367716535433071
11
0.6449114173228346
21
0.3367716535433071
0
LINE
8
BLACK
6
CONTINUOUS
10
0.6449114173228346
20
0.3367716535433071
11
0.6416156692913386
21
0.3374272047244095
0
LINE
8
BLACK
6
CONTINUOUS
10
0.6416156692913386
20
0.3374272047244095
11
0.6388216535433071
21
0.339294094488189
0
LINE
8
BLACK
6
CONTINUOUS
10
0.6388216535433071
20
0.339294094488189
11
0.6369547637795275
21
0.3420881102362205
0
LINE
8
BLACK
6
CONTINUOUS
10
0.6369547637795275
20
0.3420881102362205
11
0.6362992125984251
21
0.3453838582677165
0
LINE
8
BLACK
6
CONTINUOUS
10
0.6362992125984251
20
0.3453838582677165
11
0.6362992125984251
21
0.3626082677165354
0
LINE
8
BLACK
6
CONTINUOUS
10
0.6362992125984251
20
0.3626082677165354
11
0.6369547637795275
21
0.3659040157480315
0
LINE
8
BLACK
6
CONTINUOUS
10
0.6369547637795275
20
0.3659040157480315
11
0.6388216535433071
21
0.368698031496063
0
LINE
8
BLACK
6
CONTINUOUS
10
0.6388216535433071
20
0.368698031496063
11
0.6416156692913386
21
0.3705649212598425
0
LINE
8
BLACK
6
CONTINUOUS
10
0.6416156692913386
20
0.3705649212598425
11
0.6449114173228346
21
0.3712204724409449
0
LINE
8
BLACK
6
CONTINUOUS
10
0.6449114173228346
20
0.3712204724409449
11
0.6650885826771653
21
0.3712204724409449
0
LINE
8
BLACK
6
CONTINUOUS
10
0.6650885826771653
20
0.3712204724409449
11
0.6683843307086614
21
0.3705649212598425
0
LINE
8
BLACK
6
CONTINUOUS
10
0.3055496850393701
20
0.3733601968503937
11
0.3083437007874016
21
0.3714933070866142
0
LINE
8
BLACK
6
CONTINUOUS
10
0.3083437007874016
20
0.3714933070866142
11
0.3102105905511811
21
0.3686992913385826
0
LINE
8
BLACK
6
CONTINUOUS
10
0.3102105905511811
20
0.3686992913385826
11
0.3108661417322834
21
0.3654035433070866
0
LINE
8
BLACK
6
CONTINUOUS
10
0.3108661417322834
20
0.3654035433070866
11
0.3108661417322834
21
0.3481791338582677
0
LINE
8
BLACK
6
CONTINUOUS
10
0.3108661417322834
20
0.3481791338582677
11
0.3102105905511811
21
0.3448833858267716
0
LINE
8
BLACK
6
CONTINUOUS
10
0.3102105905511811
20
0.3448833858267716
11
0.3083437007874016
21
0.3420893700787401
0
LINE
8
BLACK
6
CONTINUOUS
10
0.3083437007874016
20
0.3420893700787401
11
0.3055496850393701
21
0.3402224803149606
0
LINE
8
BLACK
6
CONTINUOUS
10
0.3055496850393701
20
0.3402224803149606
11
0.302253937007874
21
0.3395669291338583
0
LINE
8
BLACK
6
CONTINUOUS
10
0.302253937007874
20
0.3395669291338583
11
0.2820767716535433
21
0.3395669291338583
0
LINE
8
BLACK
6
CONTINUOUS
10
0.2820767716535433
20
0.3395669291338583
11
0.2787810236220473
21
0.3402224803149606
0
LINE
8
BLACK
6
CONTINUOUS
10
0.2787810236220473
20
0.3402224803149606
11
0.2759870078740158
21
0.3420893700787401
0
LINE
8
BLACK
6
CONTINUOUS
10
0.2759870078740158
20
0.3420893700787401
11
0.2741201181102362
21
0.3448833858267716
0
LINE
8
BLACK
6
CONTINUOUS
10
0.2741201181102362
20
0.3448833858267716
11
0.2734645669291338
21
0.3481791338582677
0
LINE
8
BLACK
6
CONTINUOUS
10
0.2734645669291338
20
0.3481791338582677
11
0.2734645669291338
21
0.3654035433070866
0
LINE
8
BLACK
6
CONTINUOUS
10
0.2734645669291338
20
0.3654035433070866
11
0.2741201181102362
21
0.3686992913385826
0
LINE
8
BLACK
6
CONTINUOUS
10
0.2741201181102362
20
0.3686992913385826
11
0.2759870078740158
21
0.3714933070866142
0
LINE
8
BLACK
6
CONTINUOUS
10
0.2759870078740158
20
0.3714933070866142
11
0.2787810236220473
21
0.3733601968503937
0
LINE
8
BLACK
6
CONTINUOUS
10
0.2787810236220473
20
0.3733601968503937
11
0.2820767716535433
21
0.3740157480314961
0
LINE
8
BLACK
6
CONTINUOUS
10
0.2820767716535433
20
0.3740157480314961
11
0.302253937007874
21
0.3740157480314961
0
LINE
8
BLACK
6
CONTINUOUS
10
0.302253937007874
20
0.3740157480314961
11
0.3055496850393701
21
0.3733601968503937
0
LINE
8
BLACK
6
CONTINUOUS
10
0.3709055118110236
20
0.3454724409448819
11
0.3433464566929134
21
0.3454724409448819
0
LINE
8
BLACK
6
CONTINUOUS
10
0.3433464566929134
20
0.3454724409448819
11
0.3433464566929134
21
0.3690944881889764
0
LINE
8
BLACK
6
CONTINUOUS
10
0.3433464566929134
20
0.3690944881889764
11
0.3709055118110236
21
0.3690944881889764
0
LINE
8
BLACK
6
CONTINUOUS
10
0.3709055118110236
20
0.3690944881889764
11
0.3709055118110236
21
0.3454724409448819
0
LINE
8
BLACK
6
CONTINUOUS
10
0.2206536614173228
20
0.3804559842519685
11
0.2225695275590551
21
0.3791758267716535
0
LINE
8
BLACK
6
CONTINUOUS
10
0.2225695275590551
20
0.3791758267716535
11
0.2238496850393701
21
0.3772599606299212
0
LINE
8
BLACK
6
CONTINUOUS
10
0.2238496850393701
20
0.3772599606299212
11
0.2242992125984252
21
0.375
0
LINE
8
BLACK
6
CONTINUOUS
10
0.2242992125984252
20
0.375
11
0.2242992125984252
21
0.3631889763779527
0
LINE
8
BLACK
6
CONTINUOUS
10
0.2242992125984252
20
0.3631889763779527
11
0.2238496850393701
21
0.3609290157480315
0
LINE
8
BLACK
6
CONTINUOUS
10
0.2238496850393701
20
0.3609290157480315
11
0.2225695275590551
21
0.3590131496062992
0
LINE
8
BLACK
6
CONTINUOUS
10
0.2225695275590551
20
0.3590131496062992
11
0.2206536614173228
21
0.3577329921259843
0
LINE
8
BLACK
6
CONTINUOUS
10
0.2206536614173228
20
0.3577329921259843
11
0.2183937007874016
21
0.3572834645669291
0
LINE
8
BLACK
6
CONTINUOUS
10
0.2183937007874016
20
0.3572834645669291
11
0.1632755905511811
21
0.3572834645669291
0
LINE
8
BLACK
6
CONTINUOUS
10
0.1632755905511811
20
0.3572834645669291
11
0.1610156299212598
21
0.3577329921259843
0
LINE
8
BLACK
6
CONTINUOUS
10
0.1610156299212598
20
0.3577329921259843
11
0.1590997637795276
21
0.3590131496062992
0
LINE
8
BLACK
6
CONTINUOUS
10
0.1590997637795276
20
0.3590131496062992
11
0.1578196062992126
21
0.3609290157480315
0
LINE
8
BLACK
6
CONTINUOUS
10
0.1578196062992126
20
0.3609290157480315
11
0.1573700787401575
21
0.3631889763779527
0
LINE
8
BLACK
6
CONTINUOUS
10
0.1573700787401575
20
0.3631889763779527
11
0.1573700787401575
21
0.375
0
LINE
8
BLACK
6
CONTINUOUS
10
0.1573700787401575
20
0.375
11
0.1578196062992126
21
0.3772599606299212
0
LINE
8
BLACK
6
CONTINUOUS
10
0.1578196062992126
20
0.3772599606299212
11
0.1590997637795276
21
0.3791758267716535
0
LINE
8
BLACK
6
CONTINUOUS
10
0.1590997637795276
20
0.3791758267716535
11
0.1610156299212598
21
0.3804559842519685
0
LINE
8
BLACK
6
CONTINUOUS
10
0.1610156299212598
20
0.3804559842519685
11
0.1632755905511811
21
0.3809055118110236
0
LINE
8
BLACK
6
CONTINUOUS
10
0.1632755905511811
20
0.3809055118110236
11
0.2183937007874016
21
0.3809055118110236
0
LINE
8
BLACK
6
CONTINUOUS
10
0.2183937007874016
20
0.3809055118110236
11
0.2206536614173228
21
0.3804559842519685
0
LINE
8
BLACK
6
CONTINUOUS
10
0.8088511811023622
20
0.4097962204724409
11
0.8115653543307086
21
0.4079826771653543
0
LINE
8
BLACK
6
CONTINUOUS
10
0.8115653543307086
20
0.4079826771653543
11
0.8133788976377953
21
0.4052685039370079
0
LINE
8
BLACK
6
CONTINUOUS
10
0.8133788976377953
20
0.4052685039370079
11
0.814015748031496
21
0.4020669291338583
0
LINE
8
BLACK
6
CONTINUOUS
10
0.814015748031496
20
0.4020669291338583
11
0.814015748031496
21
0.3853346456692913
0
LINE
8
BLACK
6
CONTINUOUS
10
0.814015748031496
20
0.3853346456692913
11
0.8133788976377953
21
0.3821330708661417
0
LINE
8
BLACK
6
CONTINUOUS
10
0.8133788976377953
20
0.3821330708661417
11
0.8115653543307086
21
0.3794188976377953
0
LINE
8
BLACK
6
CONTINUOUS
10
0.8115653543307086
20
0.3794188976377953
11
0.8088511811023622
21
0.3776053543307086
0
LINE
8
BLACK
6
CONTINUOUS
10
0.8088511811023622
20
0.3776053543307086
11
0.8056496062992126
21
0.3769685039370079
0
LINE
8
BLACK
6
CONTINUOUS
10
0.8056496062992126
20
0.3769685039370079
11
0.7475787401574803
21
0.3769685039370079
0
LINE
8
BLACK
6
CONTINUOUS
10
0.7475787401574803
20
0.3769685039370079
11
0.7443771653543307
21
0.3776053543307086
0
LINE
8
BLACK
6
CONTINUOUS
10
0.7443771653543307
20
0.3776053543307086
11
0.7416629921259842
21
0.3794188976377953
0
LINE
8
BLACK
6
CONTINUOUS
10
0.7416629921259842
20
0.3794188976377953
11
0.7398494488188976
21
0.3821330708661417
0
LINE
8
BLACK
6
CONTINUOUS
10
0.7398494488188976
20
0.3821330708661417
11
0.7392125984251968
21
0.3853346456692913
0
LINE
8
BLACK
6
CONTINUOUS
10
0.7392125984251968
20
0.3853346456692913
11
0.7392125984251968
21
0.4020669291338583
0
LINE
8
BLACK
6
CONTINUOUS
10
0.7392125984251968
20
0.4020669291338583
11
0.7398494488188976
21
0.4052685039370079
0
LINE
8
BLACK
6
CONTINUOUS
10
0.7398494488188976
20
0.4052685039370079
11
0.7416629921259842
21
0.4079826771653543
0
LINE
8
BLACK
6
CONTINUOUS
10
0.7416629921259842
20
0.4079826771653543
11
0.7443771653543307
21
0.4097962204724409
0
LINE
8
BLACK
6
CONTINUOUS
10
0.7443771653543307
20
0.4097962204724409
11
0.7475787401574803
21
0.4104330708661417
0
LINE
8
BLACK
6
CONTINUOUS
10
0.7475787401574803
20
0.4104330708661417
11
0.8056496062992126
21
0.4104330708661417
0
LINE
8
BLACK
6
CONTINUOUS
10
0.8056496062992126
20
0.4104330708661417
11
0.8088511811023622
21
0.4097962204724409
0
LINE
8
BLACK
6
CONTINUOUS
10
1.1356228346456692
20
0.4097962204724409
11
1.1383370078740158
21
0.4079826771653543
0
LINE
8
BLACK
6
CONTINUOUS
10
1.1383370078740158
20
0.4079826771653543
11
1.1401505511811023
21
0.4052685039370079
0
LINE
8
BLACK
6
CONTINUOUS
10
1.1401505511811023
20
0.4052685039370079
11
1.1407874015748032
21
0.4020669291338583
0
LINE
8
BLACK
6
CONTINUOUS
10
1.1407874015748032
20
0.4020669291338583
11
1.1407874015748032
21
0.3853346456692913
0
LINE
8
BLACK
6
CONTINUOUS
10
1.1407874015748032
20
0.3853346456692913
11
1.1401505511811023
21
0.3821330708661417
0
LINE
8
BLACK
6
CONTINUOUS
10
1.1401505511811023
20
0.3821330708661417
11
1.1383370078740158
21
0.3794188976377953
0
LINE
8
BLACK
6
CONTINUOUS
10
1.1383370078740158
20
0.3794188976377953
11
1.1356228346456692
21
0.3776053543307086
0
LINE
8
BLACK
6
CONTINUOUS
10
1.1356228346456692
20
0.3776053543307086
11
1.1324212598425196
21
0.3769685039370079
0
LINE
8
BLACK
6
CONTINUOUS
10
1.1324212598425196
20
0.3769685039370079
11
1.0743503937007874
21
0.3769685039370079
0
LINE
8
BLACK
6
CONTINUOUS
10
1.0743503937007874
20
0.3769685039370079
11
1.0711488188976377
21
0.3776053543307086
0
LINE
8
BLACK
6
CONTINUOUS
10
1.0711488188976377
20
0.3776053543307086
11
1.0684346456692912
21
0.3794188976377953
0
LINE
8
BLACK
6
CONTINUOUS
10
1.0684346456692912
20
0.3794188976377953
11
1.0666211023622048
21
0.3821330708661417
0
LINE
8
BLACK
6
CONTINUOUS
10
1.0666211023622048
20
0.3821330708661417
11
1.0659842519685039
21
0.3853346456692913
0
LINE
8
BLACK
6
CONTINUOUS
10
1.0659842519685039
20
0.3853346456692913
11
1.0659842519685039
21
0.4020669291338583
0
LINE
8
BLACK
6
CONTINUOUS
10
1.0659842519685039
20
0.4020669291338583
11
1.0666211023622048
21
0.4052685039370079
0
LINE
8
BLACK
6
CONTINUOUS
10
1.0666211023622048
20
0.4052685039370079
11
1.0684346456692912
21
0.4079826771653543
0
LINE
8
BLACK
6
CONTINUOUS
10
1.0684346456692912
20
0.4079826771653543
11
1.0711488188976377
21
0.4097962204724409
0
LINE
8
BLACK
6
CONTINUOUS
10
1.0711488188976377
20
0.4097962204724409
11
1.0743503937007874
21
0.4104330708661417
0
LINE
8
BLACK
6
CONTINUOUS
10
1.0743503937007874
20
0.4104330708661417
11
1.1324212598425196
21
0.4104330708661417
0
LINE
8
BLACK
6
CONTINUOUS
10
1.1324212598425196
20
0.4104330708661417
11
1.1356228346456692
21
0.4097962204724409
0
LINE
8
BLACK
6
CONTINUOUS
10
0.5211008661417322
20
0.431431062992126
11
0.5238948818897637
21
0.4295641732283464
0
LINE
8
BLACK
6
CONTINUOUS
10
0.5238948818897637
20
0.4295641732283464
11
0.5257617716535433
21
0.4267701574803149
0
LINE
8
BLACK
6
CONTINUOUS
10
0.5257617716535433
20
0.4267701574803149
11
0.5264173228346457
21
0.4234744094488189
0
LINE
8
BLACK
6
CONTINUOUS
10
0.5264173228346457
20
0.4234744094488189
11
0.5264173228346457
21
0.40625
0
LINE
8
BLACK
6
CONTINUOUS
10
0.5264173228346457
20
0.40625
11
0.5257617716535433
21
0.4029542519685039
0
LINE
8
BLACK
6
CONTINUOUS
10
0.5257617716535433
20
0.4029542519685039
11
0.5238948818897637
21
0.4001602362204724
0
LINE
8
BLACK
6
CONTINUOUS
10
0.5238948818897637
20
0.4001602362204724
11
0.5211008661417322
21
0.3982933464566929
0
LINE
8
BLACK
6
CONTINUOUS
10
0.5211008661417322
20
0.3982933464566929
11
0.5178051181102362
21
0.3976377952755906
0
LINE
8
BLACK
6
CONTINUOUS
10
0.5178051181102362
20
0.3976377952755906
11
0.4976279527559055
21
0.3976377952755906
0
LINE
8
BLACK
6
CONTINUOUS
10
0.4976279527559055
20
0.3976377952755906
11
0.4943322047244094
21
0.3982933464566929
0
LINE
8
BLACK
6
CONTINUOUS
10
0.4943322047244094
20
0.3982933464566929
11
0.491538188976378
21
0.4001602362204724
0
LINE
8
BLACK
6
CONTINUOUS
10
0.491538188976378
20
0.4001602362204724
11
0.4896712992125984
21
0.4029542519685039
0
LINE
8
BLACK
6
CONTINUOUS
10
0.4896712992125984
20
0.4029542519685039
11
0.4890157480314961
21
0.40625
0
LINE
8
BLACK
6
CONTINUOUS
10
0.4890157480314961
20
0.40625
11
0.4890157480314961
21
0.4234744094488189
0
LINE
8
BLACK
6
CONTINUOUS
10
0.4890157480314961
20
0.4234744094488189
11
0.4896712992125984
21
0.4267701574803149
0
LINE
8
BLACK
6
CONTINUOUS
10
0.4896712992125984
20
0.4267701574803149
11
0.491538188976378
21
0.4295641732283464
0
LINE
8
BLACK
6
CONTINUOUS
10
0.491538188976378
20
0.4295641732283464
11
0.4943322047244094
21
0.431431062992126
0
LINE
8
BLACK
6
CONTINUOUS
10
0.4943322047244094
20
0.431431062992126
11
0.4976279527559055
21
0.4320866141732284
0
LINE
8
BLACK
6
CONTINUOUS
10
0.4976279527559055
20
0.4320866141732284
11
0.5178051181102362
21
0.4320866141732284
0
LINE
8
BLACK
6
CONTINUOUS
10
0.5178051181102362
20
0.4320866141732284
11
0.5211008661417322
21
0.431431062992126
0
LINE
8
BLACK
6
CONTINUOUS
10
0.5933843307086614
20
0.4325727952755906
11
0.5961783464566929
21
0.430705905511811
0
LINE
8
BLACK
6
CONTINUOUS
10
0.5961783464566929
20
0.430705905511811
11
0.5980452362204725
21
0.4279118897637795
0
LINE
8
BLACK
6
CONTINUOUS
10
0.5980452362204725
20
0.4279118897637795
11
0.5987007874015748
21
0.4246161417322835
0
LINE
8
BLACK
6
CONTINUOUS
10
0.5987007874015748
20
0.4246161417322835
11
0.5987007874015748
21
0.4073917322834645
0
LINE
8
BLACK
6
CONTINUOUS
10
0.5987007874015748
20
0.4073917322834645
11
0.5980452362204725
21
0.4040959842519685
0
LINE
8
BLACK
6
CONTINUOUS
10
0.5980452362204725
20
0.4040959842519685
11
0.5961783464566929
21
0.401301968503937
0
LINE
8
BLACK
6
CONTINUOUS
10
0.5961783464566929
20
0.401301968503937
11
0.5933843307086614
21
0.3994350787401575
0
LINE
8
BLACK
6
CONTINUOUS
10
0.5933843307086614
20
0.3994350787401575
11
0.5900885826771654
21
0.3987795275590551
0
LINE
8
BLACK
6
CONTINUOUS
10
0.5900885826771654
20
0.3987795275590551
11
0.5699114173228347
21
0.3987795275590551
0
LINE
8
BLACK
6
CONTINUOUS
10
0.5699114173228347
20
0.3987795275590551
11
0.5666156692913386
21
0.3994350787401575
0
LINE
8
BLACK
6
CONTINUOUS
10
0.5666156692913386
20
0.3994350787401575
11
0.563821653543307
21
0.401301968503937
0
LINE
8
BLACK
6
CONTINUOUS
10
0.563821653543307
20
0.401301968503937
11
0.5619547637795276
21
0.4040959842519685
0
LINE
8
BLACK
6
CONTINUOUS
10
0.5619547637795276
20
0.4040959842519685
11
0.5612992125984252
21
0.4073917322834645
0
LINE
8
BLACK
6
CONTINUOUS
10
0.5612992125984252
20
0.4073917322834645
11
0.5612992125984252
21
0.4246161417322835
0
LINE
8
BLACK
6
CONTINUOUS
10
0.5612992125984252
20
0.4246161417322835
11
0.5619547637795276
21
0.4279118897637795
0
LINE
8
BLACK
6
CONTINUOUS
10
0.5619547637795276
20
0.4279118897637795
11
0.563821653543307
21
0.430705905511811
0
LINE
8
BLACK
6
CONTINUOUS
10
0.563821653543307
20
0.430705905511811
11
0.5666156692913386
21
0.4325727952755906
0
LINE
8
BLACK
6
CONTINUOUS
10
0.5666156692913386
20
0.4325727952755906
11
0.5699114173228347
21
0.4332283464566929
0
LINE
8
BLACK
6
CONTINUOUS
10
0.5699114173228347
20
0.4332283464566929
11
0.5900885826771654
21
0.4332283464566929
0
LINE
8
BLACK
6
CONTINUOUS
10
0.5900885826771654
20
0.4332283464566929
11
0.5933843307086614
21
0.4325727952755906
0
LINE
8
BLACK
6
CONTINUOUS
10
0.6683843307086614
20
0.4325727952755906
11
0.6711783464566929
21
0.430705905511811
0
LINE
8
BLACK
6
CONTINUOUS
10
0.6711783464566929
20
0.430705905511811
11
0.6730452362204724
21
0.4279118897637795
0
LINE
8
BLACK
6
CONTINUOUS
10
0.6730452362204724
20
0.4279118897637795
11
0.6737007874015748
21
0.4246161417322835
0
LINE
8
BLACK
6
CONTINUOUS
10
0.6737007874015748
20
0.4246161417322835
11
0.6737007874015748
21
0.4073917322834645
0
LINE
8
BLACK
6
CONTINUOUS
10
0.6737007874015748
20
0.4073917322834645
11
0.6730452362204724
21
0.4040959842519685
0
LINE
8
BLACK
6
CONTINUOUS
10
0.6730452362204724
20
0.4040959842519685
11
0.6711783464566929
21
0.401301968503937
0
LINE
8
BLACK
6
CONTINUOUS
10
0.6711783464566929
20
0.401301968503937
11
0.6683843307086614
21
0.3994350787401575
0
LINE
8
BLACK
6
CONTINUOUS
10
0.6683843307086614
20
0.3994350787401575
11
0.6650885826771653
21
0.3987795275590551
0
LINE
8
BLACK
6
CONTINUOUS
10
0.6650885826771653
20
0.3987795275590551
11
0.6449114173228346
21
0.3987795275590551
0
LINE
8
BLACK
6
CONTINUOUS
10
0.6449114173228346
20
0.3987795275590551
11
0.6416156692913386
21
0.3994350787401575
0
LINE
8
BLACK
6
CONTINUOUS
10
0.6416156692913386
20
0.3994350787401575
11
0.6388216535433071
21
0.401301968503937
0
LINE
8
BLACK
6
CONTINUOUS
10
0.6388216535433071
20
0.401301968503937
11
0.6369547637795275
21
0.4040959842519685
0
LINE
8
BLACK
6
CONTINUOUS
10
0.6369547637795275
20
0.4040959842519685
11
0.6362992125984251
21
0.4073917322834645
0
LINE
8
BLACK
6
CONTINUOUS
10
0.6362992125984251
20
0.4073917322834645
11
0.6362992125984251
21
0.4246161417322835
0
LINE
8
BLACK
6
CONTINUOUS
10
0.6362992125984251
20
0.4246161417322835
11
0.6369547637795275
21
0.4279118897637795
0
LINE
8
BLACK
6
CONTINUOUS
10
0.6369547637795275
20
0.4279118897637795
11
0.6388216535433071
21
0.430705905511811
0
LINE
8
BLACK
6
CONTINUOUS
10
0.6388216535433071
20
0.430705905511811
11
0.6416156692913386
21
0.4325727952755906
0
LINE
8
BLACK
6
CONTINUOUS
10
0.6416156692913386
20
0.4325727952755906
11
0.6449114173228346
21
0.4332283464566929
0
LINE
8
BLACK
6
CONTINUOUS
10
0.6449114173228346
20
0.4332283464566929
11
0.6650885826771653
21
0.4332283464566929
0
LINE
8
BLACK
6
CONTINUOUS
10
0.6650885826771653
20
0.4332283464566929
11
0.6683843307086614
21
0.4325727952755906
0
LINE
8
BLACK
6
CONTINUOUS
10
0.3709055118110236
20
0.4005905511811024
11
0.3433464566929134
21
0.4005905511811024
0
LINE
8
BLACK
6
CONTINUOUS
10
0.3433464566929134
20
0.4005905511811024
11
0.3433464566929134
21
0.4242125984251968
0
LINE
8
BLACK
6
CONTINUOUS
10
0.3433464566929134
20
0.4242125984251968
11
0.3709055118110236
21
0.4242125984251968
0
LINE
8
BLACK
6
CONTINUOUS
10
0.3709055118110236
20
0.4242125984251968
11
0.3709055118110236
21
0.4005905511811024
0
LINE
8
BLACK
6
CONTINUOUS
10
0.3055496850393701
20
0.4353680708661417
11
0.3083437007874016
21
0.4335011811023622
0
LINE
8
BLACK
6
CONTINUOUS
10
0.3083437007874016
20
0.4335011811023622
11
0.3102105905511811
21
0.4307071653543307
0
LINE
8
BLACK
6
CONTINUOUS
10
0.3102105905511811
20
0.4307071653543307
11
0.3108661417322834
21
0.4274114173228347
0
LINE
8
BLACK
6
CONTINUOUS
10
0.3108661417322834
20
0.4274114173228347
11
0.3108661417322834
21
0.4101870078740157
0
LINE
8
BLACK
6
CONTINUOUS
10
0.3108661417322834
20
0.4101870078740157
11
0.3102105905511811
21
0.4068912598425197
0
LINE
8
BLACK
6
CONTINUOUS
10
0.3102105905511811
20
0.4068912598425197
11
0.3083437007874016
21
0.4040972440944882
0
LINE
8
BLACK
6
CONTINUOUS
10
0.3083437007874016
20
0.4040972440944882
11
0.3055496850393701
21
0.4022303543307086
0
LINE
8
BLACK
6
CONTINUOUS
10
0.3055496850393701
20
0.4022303543307086
11
0.302253937007874
21
0.4015748031496063
0
LINE
8
BLACK
6
CONTINUOUS
10
0.302253937007874
20
0.4015748031496063
11
0.2820767716535433
21
0.4015748031496063
0
LINE
8
BLACK
6
CONTINUOUS
10
0.2820767716535433
20
0.4015748031496063
11
0.2787810236220473
21
0.4022303543307086
0
LINE
8
BLACK
6
CONTINUOUS
10
0.2787810236220473
20
0.4022303543307086
11
0.2759870078740158
21
0.4040972440944882
0
LINE
8
BLACK
6
CONTINUOUS
10
0.2759870078740158
20
0.4040972440944882
11
0.2741201181102362
21
0.4068912598425197
0
LINE
8
BLACK
6
CONTINUOUS
10
0.2741201181102362
20
0.4068912598425197
11
0.2734645669291338
21
0.4101870078740157
0
LINE
8
BLACK
6
CONTINUOUS
10
0.2734645669291338
20
0.4101870078740157
11
0.2734645669291338
21
0.4274114173228347
0
LINE
8
BLACK
6
CONTINUOUS
10
0.2734645669291338
20
0.4274114173228347
11
0.2741201181102362
21
0.4307071653543307
0
LINE
8
BLACK
6
CONTINUOUS
10
0.2741201181102362
20
0.4307071653543307
11
0.2759870078740158
21
0.4335011811023622
0
LINE
8
BLACK
6
CONTINUOUS
10
0.2759870078740158
20
0.4335011811023622
11
0.2787810236220473
21
0.4353680708661417
0
LINE
8
BLACK
6
CONTINUOUS
10
0.2787810236220473
20
0.4353680708661417
11
0.2820767716535433
21
0.4360236220472441
0
LINE
8
BLACK
6
CONTINUOUS
10
0.2820767716535433
20
0.4360236220472441
11
0.302253937007874
21
0.4360236220472441
0
LINE
8
BLACK
6
CONTINUOUS
10
0.302253937007874
20
0.4360236220472441
11
0.3055496850393701
21
0.4353680708661417
0
LINE
8
BLACK
6
CONTINUOUS
10
0.4535236220472441
20
0.409763779527559
11
0.3985236220472441
21
0.409763779527559
0
LINE
8
BLACK
6
CONTINUOUS
10
0.3985236220472441
20
0.409763779527559
11
0.3985236220472441
21
0.444763779527559
0
LINE
8
BLACK
6
CONTINUOUS
10
0.3985236220472441
20
0.444763779527559
11
0.4535236220472441
21
0.444763779527559
0
LINE
8
BLACK
6
CONTINUOUS
10
0.4535236220472441
20
0.444763779527559
11
0.4535236220472441
21
0.409763779527559
0
LINE
8
BLACK
6
CONTINUOUS
10
0.8531425196850394
20
0.4954261417322834
11
0.8558566929133858
21
0.4936125984251968
0
LINE
8
BLACK
6
CONTINUOUS
10
0.8558566929133858
20
0.4936125984251968
11
0.8576702362204724
21
0.4908984251968504
0
LINE
8
BLACK
6
CONTINUOUS
10
0.8576702362204724
20
0.4908984251968504
11
0.8583070866141732
21
0.4876968503937008
0
LINE
8
BLACK
6
CONTINUOUS
10
0.8583070866141732
20
0.4876968503937008
11
0.8583070866141732
21
0.4296259842519685
0
LINE
8
BLACK
6
CONTINUOUS
10
0.8583070866141732
20
0.4296259842519685
11
0.8576702362204724
21
0.4264244094488189
0
LINE
8
BLACK
6
CONTINUOUS
10
0.8576702362204724
20
0.4264244094488189
11
0.8558566929133858
21
0.4237102362204724
0
LINE
8
BLACK
6
CONTINUOUS
10
0.8558566929133858
20
0.4237102362204724
11
0.8531425196850394
21
0.4218966929133858
0
LINE
8
BLACK
6
CONTINUOUS
10
0.8531425196850394
20
0.4218966929133858
11
0.8499409448818898
21
0.421259842519685
0
LINE
8
BLACK
6
CONTINUOUS
10
0.8499409448818898
20
0.421259842519685
11
0.8332086614173229
21
0.421259842519685
0
LINE
8
BLACK
6
CONTINUOUS
10
0.8332086614173229
20
0.421259842519685
11
0.8300070866141732
21
0.4218966929133858
0
LINE
8
BLACK
6
CONTINUOUS
10
0.8300070866141732
20
0.4218966929133858
11
0.8272929133858268
21
0.4237102362204724
0
LINE
8
BLACK
6
CONTINUOUS
10
0.8272929133858268
20
0.4237102362204724
11
0.8254793700787402
21
0.4264244094488189
0
LINE
8
BLACK
6
CONTINUOUS
10
0.8254793700787402
20
0.4264244094488189
11
0.8248425196850393
21
0.4296259842519685
0
LINE
8
BLACK
6
CONTINUOUS
10
0.8248425196850393
20
0.4296259842519685
11
0.8248425196850393
21
0.4876968503937008
0
LINE
8
BLACK
6
CONTINUOUS
10
0.8248425196850393
20
0.4876968503937008
11
0.8254793700787402
21
0.4908984251968504
0
LINE
8
BLACK
6
CONTINUOUS
10
0.8254793700787402
20
0.4908984251968504
11
0.8272929133858268
21
0.4936125984251968
0
LINE
8
BLACK
6
CONTINUOUS
10
0.8272929133858268
20
0.4936125984251968
11
0.8300070866141732
21
0.4954261417322834
0
LINE
8
BLACK
6
CONTINUOUS
10
0.8300070866141732
20
0.4954261417322834
11
0.8332086614173229
21
0.4960629921259843
0
LINE
8
BLACK
6
CONTINUOUS
10
0.8332086614173229
20
0.4960629921259843
11
0.8499409448818898
21
0.4960629921259843
0
LINE
8
BLACK
6
CONTINUOUS
10
0.8499409448818898
20
0.4960629921259843
11
0.8531425196850394
21
0.4954261417322834
0
LINE
8
BLACK
6
CONTINUOUS
10
0.9023551181102362
20
0.4954261417322834
11
0.9050692913385826
21
0.4936125984251968
0
LINE
8
BLACK
6
CONTINUOUS
10
0.9050692913385826
20
0.4936125984251968
11
0.9068828346456693
21
0.4908984251968504
0
LINE
8
BLACK
6
CONTINUOUS
10
0.9068828346456693
20
0.4908984251968504
11
0.9075196850393701
21
0.4876968503937008
0
LINE
8
BLACK
6
CONTINUOUS
10
0.9075196850393701
20
0.4876968503937008
11
0.9075196850393701
21
0.4296259842519685
0
LINE
8
BLACK
6
CONTINUOUS
10
0.9075196850393701
20
0.4296259842519685
11
0.9068828346456693
21
0.4264244094488189
0
LINE
8
BLACK
6
CONTINUOUS
10
0.9068828346456693
20
0.4264244094488189
11
0.9050692913385826
21
0.4237102362204724
0
LINE
8
BLACK
6
CONTINUOUS
10
0.9050692913385826
20
0.4237102362204724
11
0.9023551181102362
21
0.4218966929133858
0
LINE
8
BLACK
6
CONTINUOUS
10
0.9023551181102362
20
0.4218966929133858
11
0.8991535433070866
21
0.421259842519685
0
LINE
8
BLACK
6
CONTINUOUS
10
0.8991535433070866
20
0.421259842519685
11
0.8824212598425196
21
0.421259842519685
0
LINE
8
BLACK
6
CONTINUOUS
10
0.8824212598425196
20
0.421259842519685
11
0.8792196850393701
21
0.4218966929133858
0
LINE
8
BLACK
6
CONTINUOUS
10
0.8792196850393701
20
0.4218966929133858
11
0.8765055118110237
21
0.4237102362204724
0
LINE
8
BLACK
6
CONTINUOUS
10
0.8765055118110237
20
0.4237102362204724
11
0.8746919685039369
21
0.4264244094488189
0
LINE
8
BLACK
6
CONTINUOUS
10
0.8746919685039369
20
0.4264244094488189
11
0.8740551181102362
21
0.4296259842519685
0
LINE
8
BLACK
6
CONTINUOUS
10
0.8740551181102362
20
0.4296259842519685
11
0.8740551181102362
21
0.4876968503937008
0
LINE
8
BLACK
6
CONTINUOUS
10
0.8740551181102362
20
0.4876968503937008
11
0.8746919685039369
21
0.4908984251968504
0
LINE
8
BLACK
6
CONTINUOUS
10
0.8746919685039369
20
0.4908984251968504
11
0.8765055118110237
21
0.4936125984251968
0
LINE
8
BLACK
6
CONTINUOUS
10
0.8765055118110237
20
0.4936125984251968
11
0.8792196850393701
21
0.4954261417322834
0
LINE
8
BLACK
6
CONTINUOUS
10
0.8792196850393701
20
0.4954261417322834
11
0.8824212598425196
21
0.4960629921259843
0
LINE
8
BLACK
6
CONTINUOUS
10
0.8824212598425196
20
0.4960629921259843
11
0.8991535433070866
21
0.4960629921259843
0
LINE
8
BLACK
6
CONTINUOUS
10
0.8991535433070866
20
0.4960629921259843
11
0.9023551181102362
21
0.4954261417322834
0
LINE
8
BLACK
6
CONTINUOUS
10
0.951567716535433
20
0.4954261417322834
11
0.9542818897637795
21
0.4936125984251968
0
LINE
8
BLACK
6
CONTINUOUS
10
0.9542818897637795
20
0.4936125984251968
11
0.9560954330708661
21
0.4908984251968504
0
LINE
8
BLACK
6
CONTINUOUS
10
0.9560954330708661
20
0.4908984251968504
11
0.956732283464567
21
0.4876968503937008
0
LINE
8
BLACK
6
CONTINUOUS
10
0.956732283464567
20
0.4876968503937008
11
0.956732283464567
21
0.4296259842519685
0
LINE
8
BLACK
6
CONTINUOUS
10
0.956732283464567
20
0.4296259842519685
11
0.9560954330708661
21
0.4264244094488189
0
LINE
8
BLACK
6
CONTINUOUS
10
0.9560954330708661
20
0.4264244094488189
11
0.9542818897637795
21
0.4237102362204724
0
LINE
8
BLACK
6
CONTINUOUS
10
0.9542818897637795
20
0.4237102362204724
11
0.951567716535433
21
0.4218966929133858
0
LINE
8
BLACK
6
CONTINUOUS
10
0.951567716535433
20
0.4218966929133858
11
0.9483661417322834
21
0.421259842519685
0
LINE
8
BLACK
6
CONTINUOUS
10
0.9483661417322834
20
0.421259842519685
11
0.9316338582677165
21
0.421259842519685
0
LINE
8
BLACK
6
CONTINUOUS
10
0.9316338582677165
20
0.421259842519685
11
0.9284322834645669
21
0.4218966929133858
0
LINE
8
BLACK
6
CONTINUOUS
10
0.9284322834645669
20
0.4218966929133858
11
0.9257181102362204
21
0.4237102362204724
0
LINE
8
BLACK
6
CONTINUOUS
10
0.9257181102362204
20
0.4237102362204724
11
0.9239045669291338
21
0.4264244094488189
0
LINE
8
BLACK
6
CONTINUOUS
10
0.9239045669291338
20
0.4264244094488189
11
0.923267716535433
21
0.4296259842519685
0
LINE
8
BLACK
6
CONTINUOUS
10
0.923267716535433
20
0.4296259842519685
11
0.923267716535433
21
0.4876968503937008
0
LINE
8
BLACK
6
CONTINUOUS
10
0.923267716535433
20
0.4876968503937008
11
0.9239045669291338
21
0.4908984251968504
0
LINE
8
BLACK
6
CONTINUOUS
10
0.9239045669291338
20
0.4908984251968504
11
0.9257181102362204
21
0.4936125984251968
0
LINE
8
BLACK
6
CONTINUOUS
10
0.9257181102362204
20
0.4936125984251968
11
0.9284322834645669
21
0.4954261417322834
0
LINE
8
BLACK
6
CONTINUOUS
10
0.9284322834645669
20
0.4954261417322834
11
0.9316338582677165
21
0.4960629921259843
0
LINE
8
BLACK
6
CONTINUOUS
10
0.9316338582677165
20
0.4960629921259843
11
0.9483661417322834
21
0.4960629921259843
0
LINE
8
BLACK
6
CONTINUOUS
10
0.9483661417322834
20
0.4960629921259843
11
0.951567716535433
21
0.4954261417322834
0
LINE
8
BLACK
6
CONTINUOUS
10
1.0007803149606298
20
0.4954261417322834
11
1.0034944881889765
21
0.4936125984251968
0
LINE
8
BLACK
6
CONTINUOUS
10
1.0034944881889765
20
0.4936125984251968
11
1.005308031496063
21
0.4908984251968504
0
LINE
8
BLACK
6
CONTINUOUS
10
1.005308031496063
20
0.4908984251968504
11
1.0059448818897638
21
0.4876968503937008
0
LINE
8
BLACK
6
CONTINUOUS
10
1.0059448818897638
20
0.4876968503937008
11
1.0059448818897638
21
0.4296259842519685
0
LINE
8
BLACK
6
CONTINUOUS
10
1.0059448818897638
20
0.4296259842519685
11
1.005308031496063
21
0.4264244094488189
0
LINE
8
BLACK
6
CONTINUOUS
10
1.005308031496063
20
0.4264244094488189
11
1.0034944881889765
21
0.4237102362204724
0
LINE
8
BLACK
6
CONTINUOUS
10
1.0034944881889765
20
0.4237102362204724
11
1.0007803149606298
21
0.4218966929133858
0
LINE
8
BLACK
6
CONTINUOUS
10
1.0007803149606298
20
0.4218966929133858
11
0.9975787401574803
21
0.421259842519685
0
LINE
8
BLACK
6
CONTINUOUS
10
0.9975787401574803
20
0.421259842519685
11
0.9808464566929134
21
0.421259842519685
0
LINE
8
BLACK
6
CONTINUOUS
10
0.9808464566929134
20
0.421259842519685
11
0.9776448818897637
21
0.4218966929133858
0
LINE
8
BLACK
6
CONTINUOUS
10
0.9776448818897637
20
0.4218966929133858
11
0.9749307086614173
21
0.4237102362204724
0
LINE
8
BLACK
6
CONTINUOUS
10
0.9749307086614173
20
0.4237102362204724
11
0.9731171653543307
21
0.4264244094488189
0
LINE
8
BLACK
6
CONTINUOUS
10
0.9731171653543307
20
0.4264244094488189
11
0.9724803149606299
21
0.4296259842519685
0
LINE
8
BLACK
6
CONTINUOUS
10
0.9724803149606299
20
0.4296259842519685
11
0.9724803149606299
21
0.4876968503937008
0
LINE
8
BLACK
6
CONTINUOUS
10
0.9724803149606299
20
0.4876968503937008
11
0.9731171653543307
21
0.4908984251968504
0
LINE
8
BLACK
6
CONTINUOUS
10
0.9731171653543307
20
0.4908984251968504
11
0.9749307086614173
21
0.4936125984251968
0
LINE
8
BLACK
6
CONTINUOUS
10
0.9749307086614173
20
0.4936125984251968
11
0.9776448818897637
21
0.4954261417322834
0
LINE
8
BLACK
6
CONTINUOUS
10
0.9776448818897637
20
0.4954261417322834
11
0.9808464566929134
21
0.4960629921259843
0
LINE
8
BLACK
6
CONTINUOUS
10
0.9808464566929134
20
0.4960629921259843
11
0.9975787401574803
21
0.4960629921259843
0
LINE
8
BLACK
6
CONTINUOUS
10
0.9975787401574803
20
0.4960629921259843
11
1.0007803149606298
21
0.4954261417322834
0
LINE
8
BLACK
6
CONTINUOUS
10
1.0499929133858268
20
0.4954261417322834
11
1.0527070866141732
21
0.4936125984251968
0
LINE
8
BLACK
6
CONTINUOUS
10
1.0527070866141732
20
0.4936125984251968
11
1.0545206299212597
21
0.4908984251968504
0
LINE
8
BLACK
6
CONTINUOUS
10
1.0545206299212597
20
0.4908984251968504
11
1.0551574803149606
21
0.4876968503937008
0
LINE
8
BLACK
6
CONTINUOUS
10
1.0551574803149606
20
0.4876968503937008
11
1.0551574803149606
21
0.4296259842519685
0
LINE
8
BLACK
6
CONTINUOUS
10
1.0551574803149606
20
0.4296259842519685
11
1.0545206299212597
21
0.4264244094488189
0
LINE
8
BLACK
6
CONTINUOUS
10
1.0545206299212597
20
0.4264244094488189
11
1.0527070866141732
21
0.4237102362204724
0
LINE
8
BLACK
6
CONTINUOUS
10
1.0527070866141732
20
0.4237102362204724
11
1.0499929133858268
21
0.4218966929133858
0
LINE
8
BLACK
6
CONTINUOUS
10
1.0499929133858268
20
0.4218966929133858
11
1.046791338582677
21
0.421259842519685
0
LINE
8
BLACK
6
CONTINUOUS
10
1.046791338582677
20
0.421259842519685
11
1.0300590551181101
21
0.421259842519685
0
LINE
8
BLACK
6
CONTINUOUS
10
1.0300590551181101
20
0.421259842519685
11
1.0268574803149606
21
0.4218966929133858
0
LINE
8
BLACK
6
CONTINUOUS
10
1.0268574803149606
20
0.4218966929133858
11
1.0241433070866142
21
0.4237102362204724
0
LINE
8
BLACK
6
CONTINUOUS
10
1.0241433070866142
20
0.4237102362204724
11
1.0223297637795274
21
0.4264244094488189
0
LINE
8
BLACK
6
CONTINUOUS
10
1.0223297637795274
20
0.4264244094488189
11
1.0216929133858268
21
0.4296259842519685
0
LINE
8
BLACK
6
CONTINUOUS
10
1.0216929133858268
20
0.4296259842519685
11
1.0216929133858268
21
0.4876968503937008
0
LINE
8
BLACK
6
CONTINUOUS
10
1.0216929133858268
20
0.4876968503937008
11
1.0223297637795274
21
0.4908984251968504
0
LINE
8
BLACK
6
CONTINUOUS
10
1.0223297637795274
20
0.4908984251968504
11
1.0241433070866142
21
0.4936125984251968
0
LINE
8
BLACK
6
CONTINUOUS
10
1.0241433070866142
20
0.4936125984251968
11
1.0268574803149606
21
0.4954261417322834
0
LINE
8
BLACK
6
CONTINUOUS
10
1.0268574803149606
20
0.4954261417322834
11
1.0300590551181101
21
0.4960629921259843
0
LINE
8
BLACK
6
CONTINUOUS
10
1.0300590551181101
20
0.4960629921259843
11
1.046791338582677
21
0.4960629921259843
0
LINE
8
BLACK
6
CONTINUOUS
10
1.046791338582677
20
0.4960629921259843
11
1.0499929133858268
21
0.4954261417322834
0
LINE
8
BLACK
6
CONTINUOUS
10
0.1119240551181102
20
0.4608649606299213
11
0.1151172047244094
21
0.4587313779527559
0
LINE
8
BLACK
6
CONTINUOUS
10
0.1151172047244094
20
0.4587313779527559
11
0.1172507874015748
21
0.4555382283464567
0
LINE
8
BLACK
6
CONTINUOUS
10
0.1172507874015748
20
0.4555382283464567
11
0.118
21
0.4517716535433071
0
LINE
8
BLACK
6
CONTINUOUS
10
0.118
20
0.4517716535433071
11
0.118
21
0.4320866141732284
0
LINE
8
BLACK
6
CONTINUOUS
10
0.118
20
0.4320866141732284
11
0.1172507874015748
21
0.4283200393700787
0
LINE
8
BLACK
6
CONTINUOUS
10
0.1172507874015748
20
0.4283200393700787
11
0.1151172047244094
21
0.4251268897637795
0
LINE
8
BLACK
6
CONTINUOUS
10
0.1151172047244094
20
0.4251268897637795
11
0.1119240551181102
21
0.4229933070866141
0
LINE
8
BLACK
6
CONTINUOUS
10
0.1119240551181102
20
0.4229933070866141
11
0.1081574803149606
21
0.4222440944881889
0
LINE
8
BLACK
6
CONTINUOUS
10
0.1081574803149606
20
0.4222440944881889
11
0.0215433070866142
21
0.4222440944881889
0
LINE
8
BLACK
6
CONTINUOUS
10
0.0215433070866142
20
0.4222440944881889
11
0.0177767322834646
21
0.4229933070866141
0
LINE
8
BLACK
6
CONTINUOUS
10
0.0177767322834646
20
0.4229933070866141
11
0.0145835826771654
21
0.4251268897637795
0
LINE
8
BLACK
6
CONTINUOUS
10
0.0145835826771654
20
0.4251268897637795
11
0.01245
21
0.4283200393700787
0
LINE
8
BLACK
6
CONTINUOUS
10
0.01245
20
0.4283200393700787
11
0.0117007874015748
21
0.4320866141732284
0
LINE
8
BLACK
6
CONTINUOUS
10
0.0117007874015748
20
0.4320866141732284
11
0.0117007874015748
21
0.4517716535433071
0
LINE
8
BLACK
6
CONTINUOUS
10
0.0117007874015748
20
0.4517716535433071
11
0.01245
21
0.4555382283464567
0
LINE
8
BLACK
6
CONTINUOUS
10
0.01245
20
0.4555382283464567
11
0.0145835826771654
21
0.4587313779527559
0
LINE
8
BLACK
6
CONTINUOUS
10
0.0145835826771654
20
0.4587313779527559
11
0.0177767322834646
21
0.4608649606299213
0
LINE
8
BLACK
6
CONTINUOUS
10
0.0177767322834646
20
0.4608649606299213
11
0.0215433070866142
21
0.4616141732283465
0
LINE
8
BLACK
6
CONTINUOUS
10
0.0215433070866142
20
0.4616141732283465
11
0.1081574803149606
21
0.4616141732283465
0
LINE
8
BLACK
6
CONTINUOUS
10
0.1081574803149606
20
0.4616141732283465
11
0.1119240551181102
21
0.4608649606299213
0
LINE
8
BLACK
6
CONTINUOUS
10
0.2843351968503937
20
0.540839094488189
11
0.286463937007874
21
0.5394166929133858
0
LINE
8
BLACK
6
CONTINUOUS
10
0.286463937007874
20
0.5394166929133858
11
0.2878863385826771
21
0.5372879527559055
0
LINE
8
BLACK
6
CONTINUOUS
10
0.2878863385826771
20
0.5372879527559055
11
0.2883857874015748
21
0.5347768503937008
0
LINE
8
BLACK
6
CONTINUOUS
10
0.2883857874015748
20
0.5347768503937008
11
0.2883858267716535
21
0.4888451574803149
0
LINE
8
BLACK
6
CONTINUOUS
10
0.2883858267716535
20
0.4888451574803149
11
0.2878863385826771
21
0.486334094488189
0
LINE
8
BLACK
6
CONTINUOUS
10
0.2878863385826771
20
0.486334094488189
11
0.286463937007874
21
0.4842053543307087
0
LINE
8
BLACK
6
CONTINUOUS
10
0.286463937007874
20
0.4842053543307087
11
0.2843351968503937
21
0.4827829527559055
0
LINE
8
BLACK
6
CONTINUOUS
10
0.2843351968503937
20
0.4827829527559055
11
0.281824094488189
21
0.4822835039370079
0
LINE
8
BLACK
6
CONTINUOUS
10
0.281824094488189
20
0.4822835039370079
11
0.2457349212598425
21
0.4822834645669291
0
LINE
8
BLACK
6
CONTINUOUS
10
0.2457349212598425
20
0.4822834645669291
11
0.2432238582677165
21
0.4827829527559055
0
LINE
8
BLACK
6
CONTINUOUS
10
0.2432238582677165
20
0.4827829527559055
11
0.2410951181102362
21
0.4842053543307087
0
LINE
8
BLACK
6
CONTINUOUS
10
0.2410951181102362
20
0.4842053543307087
11
0.2396727165354331
21
0.486334094488189
0
LINE
8
BLACK
6
CONTINUOUS
10
0.2396727165354331
20
0.486334094488189
11
0.2391732677165354
21
0.4888451968503937
0
LINE
8
BLACK
6
CONTINUOUS
10
0.2391732677165354
20
0.4888451968503937
11
0.2391732283464567
21
0.5347768897637795
0
LINE
8
BLACK
6
CONTINUOUS
10
0.2391732283464567
20
0.5347768897637795
11
0.2396727165354331
21
0.5372879527559055
0
LINE
8
BLACK
6
CONTINUOUS
10
0.2396727165354331
20
0.5372879527559055
11
0.2410951181102362
21
0.5394166929133858
0
LINE
8
BLACK
6
CONTINUOUS
10
0.2410951181102362
20
0.5394166929133858
11
0.2432238582677165
21
0.540839094488189
0
LINE
8
BLACK
6
CONTINUOUS
10
0.2432238582677165
20
0.540839094488189
11
0.2457349606299213
21
0.5413385433070866
0
LINE
8
BLACK
6
CONTINUOUS
10
0.2457349606299213
20
0.5413385433070866
11
0.2818241338582677
21
0.5413385826771654
0
LINE
8
BLACK
6
CONTINUOUS
10
0.2818241338582677
20
0.5413385826771654
11
0.2843351968503937
21
0.540839094488189
0
LINE
8
BLACK
6
CONTINUOUS
10
0.4260674803149606
20
0.540839094488189
11
0.4281962204724409
21
0.5394166929133858
0
LINE
8
BLACK
6
CONTINUOUS
10
0.4281962204724409
20
0.5394166929133858
11
0.4296186220472441
21
0.5372879527559055
0
LINE
8
BLACK
6
CONTINUOUS
10
0.4296186220472441
20
0.5372879527559055
11
0.4301180708661417
21
0.5347768503937008
0
LINE
8
BLACK
6
CONTINUOUS
10
0.4301180708661417
20
0.5347768503937008
11
0.4301181102362205
21
0.4888451574803149
0
LINE
8
BLACK
6
CONTINUOUS
10
0.4301181102362205
20
0.4888451574803149
11
0.4296186220472441
21
0.486334094488189
0
LINE
8
BLACK
6
CONTINUOUS
10
0.4296186220472441
20
0.486334094488189
11
0.4281962204724409
21
0.4842053543307087
0
LINE
8
BLACK
6
CONTINUOUS
10
0.4281962204724409
20
0.4842053543307087
11
0.4260674803149606
21
0.4827829527559055
0
LINE
8
BLACK
6
CONTINUOUS
10
0.4260674803149606
20
0.4827829527559055
11
0.4235563779527559
21
0.4822835039370079
0
LINE
8
BLACK
6
CONTINUOUS
10
0.4235563779527559
20
0.4822835039370079
11
0.3874672047244094
21
0.4822834645669291
0
LINE
8
BLACK
6
CONTINUOUS
10
0.3874672047244094
20
0.4822834645669291
11
0.3849561417322834
21
0.4827829527559055
0
LINE
8
BLACK
6
CONTINUOUS
10
0.3849561417322834
20
0.4827829527559055
11
0.3828274015748032
21
0.4842053543307087
0
LINE
8
BLACK
6
CONTINUOUS
10
0.3828274015748032
20
0.4842053543307087
11
0.381405
21
0.486334094488189
0
LINE
8
BLACK
6
CONTINUOUS
10
0.381405
20
0.486334094488189
11
0.3809055511811024
21
0.4888451968503937
0
LINE
8
BLACK
6
CONTINUOUS
10
0.3809055511811024
20
0.4888451968503937
11
0.3809055118110236
21
0.5347768897637795
0
LINE
8
BLACK
6
CONTINUOUS
10
0.3809055118110236
20
0.5347768897637795
11
0.381405
21
0.5372879527559055
0
LINE
8
BLACK
6
CONTINUOUS
10
0.381405
20
0.5372879527559055
11
0.3828274015748032
21
0.5394166929133858
0
LINE
8
BLACK
6
CONTINUOUS
10
0.3828274015748032
20
0.5394166929133858
11
0.3849561417322834
21
0.540839094488189
0
LINE
8
BLACK
6
CONTINUOUS
10
0.3849561417322834
20
0.540839094488189
11
0.3874672440944882
21
0.5413385433070866
0
LINE
8
BLACK
6
CONTINUOUS
10
0.3874672440944882
20
0.5413385433070866
11
0.4235564173228346
21
0.5413385826771654
0
LINE
8
BLACK
6
CONTINUOUS
10
0.4235564173228346
20
0.5413385826771654
11
0.4260674803149606
21
0.540839094488189
  0
ENDSEC
  0
EOF
