  0
SECTION
  2
HEADER
  9
$ANGBASE
  50
0.0
  9
$ANGDIR
  70
1
  9
$MEASUREMENT
  70
0
  0
ENDSEC
  0
SECTION
  2
TABLES
  0
TABLE
  2
LTYPE
  70
4
  0
LTYPE
  5
40F
  2
CONTINUOUS
  70
0
  3
Solid line
  72
65
  73
0
  40
0.0
  0
LTYPE
  5
410
  2
DASHDOT
 70
0
  3
Dash Dot ____ _ ____ _
 72
65
 73
4
 40
2.0
 49
1.25
 49
-0.25
 49
0.25
 49
-0.25
  0
LTYPE
  5
411
  2
DASHED
 70
0
  3
Dashed __ __ __ __ __
 72
65
 73
2
 40
0.75
 49
0.5
 49
-0.25
  0
LTYPE
  5
43B
  2
DOTTED
 70
0
  3
Dotted .  .  .  .
 72
65
 73
2
 40
0.2
 49
0.0
 49
-0.2
  0
ENDTAB
  0
TABLE
  2
STYLE
  70
4
  0
STYLE
  2
KICAD
  70
0
  40
0
  41
1
  42
1
  50
0
  71
0
  3
isocp.shx
  0
STYLE
  2
KICADB
  70
0
  40
0
  41
1
  42
1
  50
0
  71
0
  3
isocp.shx
  0
STYLE
  2
KICADI
  70
0
  40
0
  41
1
  42
1
  50
15
  71
0
  3
isocp.shx
  0
STYLE
  2
KICADBI
  70
0
  40
0
  41
1
  42
1
  50
15
  71
0
  3
isocp.shx
  0
ENDTAB
  0
TABLE
  2
LAYER
  70
1
  0
LAYER
  2
BLACK
  70
0
  62
7
  6
CONTINUOUS
  0
ENDTAB
  0
ENDSEC
  0
SECTION
  2
ENTITIES
0
LINE
8
BLACK
6
CONTINUOUS
10
0.1129223622047244
20
0.057248031496063
11
0.1221473622047244
21
0.0540811023622047
0
LINE
8
BLACK
6
CONTINUOUS
10
0.1221473622047244
20
0.0540811023622047
11
0.1307252755905512
21
0.0494389763779528
0
LINE
8
BLACK
6
CONTINUOUS
10
0.1307252755905512
20
0.0494389763779528
11
0.138422125984252
21
0.0434482677165354
0
LINE
8
BLACK
6
CONTINUOUS
10
0.138422125984252
20
0.0434482677165354
11
0.1450279921259842
21
0.0362724015748032
0
LINE
8
BLACK
6
CONTINUOUS
10
0.1450279921259842
20
0.0362724015748032
11
0.1503626377952756
21
0.028107125984252
0
LINE
8
BLACK
6
CONTINUOUS
10
0.1503626377952756
20
0.028107125984252
11
0.1542805511811024
21
0.019175157480315
0
LINE
8
BLACK
6
CONTINUOUS
10
0.1542805511811024
20
0.019175157480315
11
0.1566748818897638
21
0.009720157480315
0
LINE
8
BLACK
6
CONTINUOUS
10
0.1566748818897638
20
0.009720157480315
11
0.1574803149606299
21
0.
0
LINE
8
BLACK
6
CONTINUOUS
10
0.1574803149606299
20
0.
11
0.1566748818897638
21
-0.009720157480315
0
LINE
8
BLACK
6
CONTINUOUS
10
0.1566748818897638
20
-0.009720157480315
11
0.1542805511811024
21
-0.019175157480315
0
LINE
8
BLACK
6
CONTINUOUS
10
0.1542805511811024
20
-0.019175157480315
11
0.1503626377952756
21
-0.028107125984252
0
LINE
8
BLACK
6
CONTINUOUS
10
0.1503626377952756
20
-0.028107125984252
11
0.1450279921259842
21
-0.0362724015748032
0
LINE
8
BLACK
6
CONTINUOUS
10
0.1450279921259842
20
-0.0362724015748032
11
0.138422125984252
21
-0.0434482677165354
0
LINE
8
BLACK
6
CONTINUOUS
10
0.138422125984252
20
-0.0434482677165354
11
0.1307252755905512
21
-0.0494389763779528
0
LINE
8
BLACK
6
CONTINUOUS
10
0.1307252755905512
20
-0.0494389763779528
11
0.1221473622047244
21
-0.0540811023622047
0
LINE
8
BLACK
6
CONTINUOUS
10
0.1221473622047244
20
-0.0540811023622047
11
0.1129223622047244
21
-0.057248031496063
0
LINE
8
BLACK
6
CONTINUOUS
10
0.1129223622047244
20
-0.057248031496063
11
0.1033019291338583
21
-0.0588534251968504
0
LINE
8
BLACK
6
CONTINUOUS
10
0.1033019291338583
20
-0.0588534251968504
11
0.0935484645669291
21
-0.0588534251968504
0
LINE
8
BLACK
6
CONTINUOUS
10
0.0935484645669291
20
-0.0588534251968504
11
0.083928031496063
21
-0.057248031496063
0
LINE
8
BLACK
6
CONTINUOUS
10
0.083928031496063
20
-0.057248031496063
11
0.074703031496063
21
-0.0540811023622047
0
LINE
8
BLACK
6
CONTINUOUS
10
0.074703031496063
20
-0.0540811023622047
11
0.0661251181102362
21
-0.0494389763779528
0
LINE
8
BLACK
6
CONTINUOUS
10
0.0661251181102362
20
-0.0494389763779528
11
0.0584282677165354
21
-0.0434482677165354
0
LINE
8
BLACK
6
CONTINUOUS
10
0.0584282677165354
20
-0.0434482677165354
11
0.0518224015748031
21
-0.0362724015748032
0
LINE
8
BLACK
6
CONTINUOUS
10
0.0518224015748031
20
-0.0362724015748032
11
0.0464877559055118
21
-0.028107125984252
0
LINE
8
BLACK
6
CONTINUOUS
10
0.0464877559055118
20
-0.028107125984252
11
0.042569842519685
21
-0.019175157480315
0
LINE
8
BLACK
6
CONTINUOUS
10
0.042569842519685
20
-0.019175157480315
11
0.0401755118110236
21
-0.009720157480315
0
LINE
8
BLACK
6
CONTINUOUS
10
0.0401755118110236
20
-0.009720157480315
11
0.0393700787401575
21
0.
0
LINE
8
BLACK
6
CONTINUOUS
10
0.0393700787401575
20
0.
11
0.0401755118110236
21
0.009720157480315
0
LINE
8
BLACK
6
CONTINUOUS
10
0.0401755118110236
20
0.009720157480315
11
0.042569842519685
21
0.019175157480315
0
LINE
8
BLACK
6
CONTINUOUS
10
0.042569842519685
20
0.019175157480315
11
0.0464877559055118
21
0.028107125984252
0
LINE
8
BLACK
6
CONTINUOUS
10
0.0464877559055118
20
0.028107125984252
11
0.0518224015748031
21
0.0362724015748032
0
LINE
8
BLACK
6
CONTINUOUS
10
0.0518224015748031
20
0.0362724015748032
11
0.0584282677165354
21
0.0434482677165354
0
LINE
8
BLACK
6
CONTINUOUS
10
0.0584282677165354
20
0.0434482677165354
11
0.0661251181102362
21
0.0494389763779528
0
LINE
8
BLACK
6
CONTINUOUS
10
0.0661251181102362
20
0.0494389763779528
11
0.074703031496063
21
0.0540811023622047
0
LINE
8
BLACK
6
CONTINUOUS
10
0.074703031496063
20
0.0540811023622047
11
0.083928031496063
21
0.057248031496063
0
LINE
8
BLACK
6
CONTINUOUS
10
0.083928031496063
20
0.057248031496063
11
0.0935484645669291
21
0.0588534251968504
0
LINE
8
BLACK
6
CONTINUOUS
10
0.0935484645669291
20
0.0588534251968504
11
0.1033019291338583
21
0.0588534251968504
0
LINE
8
BLACK
6
CONTINUOUS
10
0.1033019291338583
20
0.0588534251968504
11
0.1129223622047244
21
0.057248031496063
0
LINE
8
BLACK
6
CONTINUOUS
10
0.5066231496062992
20
0.057248031496063
11
0.5158481496062992
21
0.0540811023622047
0
LINE
8
BLACK
6
CONTINUOUS
10
0.5158481496062992
20
0.0540811023622047
11
0.524426062992126
21
0.0494389763779528
0
LINE
8
BLACK
6
CONTINUOUS
10
0.524426062992126
20
0.0494389763779528
11
0.5321229133858267
21
0.0434482677165354
0
LINE
8
BLACK
6
CONTINUOUS
10
0.5321229133858267
20
0.0434482677165354
11
0.538728779527559
21
0.0362724015748032
0
LINE
8
BLACK
6
CONTINUOUS
10
0.538728779527559
20
0.0362724015748032
11
0.5440634251968504
21
0.028107125984252
0
LINE
8
BLACK
6
CONTINUOUS
10
0.5440634251968504
20
0.028107125984252
11
0.5479813385826772
21
0.019175157480315
0
LINE
8
BLACK
6
CONTINUOUS
10
0.5479813385826772
20
0.019175157480315
11
0.5503756692913385
21
0.009720157480315
0
LINE
8
BLACK
6
CONTINUOUS
10
0.5503756692913385
20
0.009720157480315
11
0.5511811023622047
21
0.
0
LINE
8
BLACK
6
CONTINUOUS
10
0.5511811023622047
20
0.
11
0.5503756692913385
21
-0.009720157480315
0
LINE
8
BLACK
6
CONTINUOUS
10
0.5503756692913385
20
-0.009720157480315
11
0.5479813385826772
21
-0.019175157480315
0
LINE
8
BLACK
6
CONTINUOUS
10
0.5479813385826772
20
-0.019175157480315
11
0.5440634251968504
21
-0.028107125984252
0
LINE
8
BLACK
6
CONTINUOUS
10
0.5440634251968504
20
-0.028107125984252
11
0.538728779527559
21
-0.0362724015748032
0
LINE
8
BLACK
6
CONTINUOUS
10
0.538728779527559
20
-0.0362724015748032
11
0.5321229133858267
21
-0.0434482677165354
0
LINE
8
BLACK
6
CONTINUOUS
10
0.5321229133858267
20
-0.0434482677165354
11
0.524426062992126
21
-0.0494389763779528
0
LINE
8
BLACK
6
CONTINUOUS
10
0.524426062992126
20
-0.0494389763779528
11
0.5158481496062992
21
-0.0540811023622047
0
LINE
8
BLACK
6
CONTINUOUS
10
0.5158481496062992
20
-0.0540811023622047
11
0.5066231496062992
21
-0.057248031496063
0
LINE
8
BLACK
6
CONTINUOUS
10
0.5066231496062992
20
-0.057248031496063
11
0.497002716535433
21
-0.0588534251968504
0
LINE
8
BLACK
6
CONTINUOUS
10
0.497002716535433
20
-0.0588534251968504
11
0.4872492519685039
21
-0.0588534251968504
0
LINE
8
BLACK
6
CONTINUOUS
10
0.4872492519685039
20
-0.0588534251968504
11
0.4776288188976378
21
-0.057248031496063
0
LINE
8
BLACK
6
CONTINUOUS
10
0.4776288188976378
20
-0.057248031496063
11
0.4684038188976378
21
-0.0540811023622047
0
LINE
8
BLACK
6
CONTINUOUS
10
0.4684038188976378
20
-0.0540811023622047
11
0.459825905511811
21
-0.0494389763779528
0
LINE
8
BLACK
6
CONTINUOUS
10
0.459825905511811
20
-0.0494389763779528
11
0.4521290551181102
21
-0.0434482677165354
0
LINE
8
BLACK
6
CONTINUOUS
10
0.4521290551181102
20
-0.0434482677165354
11
0.4455231889763779
21
-0.0362724015748032
0
LINE
8
BLACK
6
CONTINUOUS
10
0.4455231889763779
20
-0.0362724015748032
11
0.4401885433070866
21
-0.028107125984252
0
LINE
8
BLACK
6
CONTINUOUS
10
0.4401885433070866
20
-0.028107125984252
11
0.4362706299212598
21
-0.019175157480315
0
LINE
8
BLACK
6
CONTINUOUS
10
0.4362706299212598
20
-0.019175157480315
11
0.4338762992125984
21
-0.009720157480315
0
LINE
8
BLACK
6
CONTINUOUS
10
0.4338762992125984
20
-0.009720157480315
11
0.4330708661417323
21
0.
0
LINE
8
BLACK
6
CONTINUOUS
10
0.4330708661417323
20
0.
11
0.4338762992125984
21
0.009720157480315
0
LINE
8
BLACK
6
CONTINUOUS
10
0.4338762992125984
20
0.009720157480315
11
0.4362706299212598
21
0.019175157480315
0
LINE
8
BLACK
6
CONTINUOUS
10
0.4362706299212598
20
0.019175157480315
11
0.4401885433070866
21
0.028107125984252
0
LINE
8
BLACK
6
CONTINUOUS
10
0.4401885433070866
20
0.028107125984252
11
0.4455231889763779
21
0.0362724015748032
0
LINE
8
BLACK
6
CONTINUOUS
10
0.4455231889763779
20
0.0362724015748032
11
0.4521290551181102
21
0.0434482677165354
0
LINE
8
BLACK
6
CONTINUOUS
10
0.4521290551181102
20
0.0434482677165354
11
0.459825905511811
21
0.0494389763779528
0
LINE
8
BLACK
6
CONTINUOUS
10
0.459825905511811
20
0.0494389763779528
11
0.4684038188976378
21
0.0540811023622047
0
LINE
8
BLACK
6
CONTINUOUS
10
0.4684038188976378
20
0.0540811023622047
11
0.4776288188976378
21
0.057248031496063
0
LINE
8
BLACK
6
CONTINUOUS
10
0.4776288188976378
20
0.057248031496063
11
0.4872492519685039
21
0.0588534251968504
0
LINE
8
BLACK
6
CONTINUOUS
10
0.4872492519685039
20
0.0588534251968504
11
0.497002716535433
21
0.0588534251968504
0
LINE
8
BLACK
6
CONTINUOUS
10
0.497002716535433
20
0.0588534251968504
11
0.5066231496062992
21
0.057248031496063
0
LINE
8
BLACK
6
CONTINUOUS
10
0.9003239370078739
20
0.057248031496063
11
0.909548937007874
21
0.0540811023622047
0
LINE
8
BLACK
6
CONTINUOUS
10
0.909548937007874
20
0.0540811023622047
11
0.9181268503937008
21
0.0494389763779528
0
LINE
8
BLACK
6
CONTINUOUS
10
0.9181268503937008
20
0.0494389763779528
11
0.9258237007874015
21
0.0434482677165354
0
LINE
8
BLACK
6
CONTINUOUS
10
0.9258237007874015
20
0.0434482677165354
11
0.9324295669291338
21
0.0362724015748032
0
LINE
8
BLACK
6
CONTINUOUS
10
0.9324295669291338
20
0.0362724015748032
11
0.9377642125984251
21
0.028107125984252
0
LINE
8
BLACK
6
CONTINUOUS
10
0.9377642125984251
20
0.028107125984252
11
0.9416821259842519
21
0.019175157480315
0
LINE
8
BLACK
6
CONTINUOUS
10
0.9416821259842519
20
0.019175157480315
11
0.9440764566929134
21
0.009720157480315
0
LINE
8
BLACK
6
CONTINUOUS
10
0.9440764566929134
20
0.009720157480315
11
0.9448818897637795
21
0.
0
LINE
8
BLACK
6
CONTINUOUS
10
0.9448818897637795
20
0.
11
0.9440764566929134
21
-0.009720157480315
0
LINE
8
BLACK
6
CONTINUOUS
10
0.9440764566929134
20
-0.009720157480315
11
0.9416821259842519
21
-0.019175157480315
0
LINE
8
BLACK
6
CONTINUOUS
10
0.9416821259842519
20
-0.019175157480315
11
0.9377642125984251
21
-0.028107125984252
0
LINE
8
BLACK
6
CONTINUOUS
10
0.9377642125984251
20
-0.028107125984252
11
0.9324295669291338
21
-0.0362724015748032
0
LINE
8
BLACK
6
CONTINUOUS
10
0.9324295669291338
20
-0.0362724015748032
11
0.9258237007874015
21
-0.0434482677165354
0
LINE
8
BLACK
6
CONTINUOUS
10
0.9258237007874015
20
-0.0434482677165354
11
0.9181268503937008
21
-0.0494389763779528
0
LINE
8
BLACK
6
CONTINUOUS
10
0.9181268503937008
20
-0.0494389763779528
11
0.909548937007874
21
-0.0540811023622047
0
LINE
8
BLACK
6
CONTINUOUS
10
0.909548937007874
20
-0.0540811023622047
11
0.9003239370078739
21
-0.057248031496063
0
LINE
8
BLACK
6
CONTINUOUS
10
0.9003239370078739
20
-0.057248031496063
11
0.8907035039370078
21
-0.0588534251968504
0
LINE
8
BLACK
6
CONTINUOUS
10
0.8907035039370078
20
-0.0588534251968504
11
0.8809500393700788
21
-0.0588534251968504
0
LINE
8
BLACK
6
CONTINUOUS
10
0.8809500393700788
20
-0.0588534251968504
11
0.8713296062992126
21
-0.057248031496063
0
LINE
8
BLACK
6
CONTINUOUS
10
0.8713296062992126
20
-0.057248031496063
11
0.8621046062992126
21
-0.0540811023622047
0
LINE
8
BLACK
6
CONTINUOUS
10
0.8621046062992126
20
-0.0540811023622047
11
0.8535266929133858
21
-0.0494389763779528
0
LINE
8
BLACK
6
CONTINUOUS
10
0.8535266929133858
20
-0.0494389763779528
11
0.8458298425196851
21
-0.0434482677165354
0
LINE
8
BLACK
6
CONTINUOUS
10
0.8458298425196851
20
-0.0434482677165354
11
0.8392239763779528
21
-0.0362724015748032
0
LINE
8
BLACK
6
CONTINUOUS
10
0.8392239763779528
20
-0.0362724015748032
11
0.8338893307086614
21
-0.028107125984252
0
LINE
8
BLACK
6
CONTINUOUS
10
0.8338893307086614
20
-0.028107125984252
11
0.8299714173228346
21
-0.019175157480315
0
LINE
8
BLACK
6
CONTINUOUS
10
0.8299714173228346
20
-0.019175157480315
11
0.8275770866141732
21
-0.009720157480315
0
LINE
8
BLACK
6
CONTINUOUS
10
0.8275770866141732
20
-0.009720157480315
11
0.8267716535433071
21
0.
0
LINE
8
BLACK
6
CONTINUOUS
10
0.8267716535433071
20
0.
11
0.8275770866141732
21
0.009720157480315
0
LINE
8
BLACK
6
CONTINUOUS
10
0.8275770866141732
20
0.009720157480315
11
0.8299714173228346
21
0.019175157480315
0
LINE
8
BLACK
6
CONTINUOUS
10
0.8299714173228346
20
0.019175157480315
11
0.8338893307086614
21
0.028107125984252
0
LINE
8
BLACK
6
CONTINUOUS
10
0.8338893307086614
20
0.028107125984252
11
0.8392239763779528
21
0.0362724015748032
0
LINE
8
BLACK
6
CONTINUOUS
10
0.8392239763779528
20
0.0362724015748032
11
0.8458298425196851
21
0.0434482677165354
0
LINE
8
BLACK
6
CONTINUOUS
10
0.8458298425196851
20
0.0434482677165354
11
0.8535266929133858
21
0.0494389763779528
0
LINE
8
BLACK
6
CONTINUOUS
10
0.8535266929133858
20
0.0494389763779528
11
0.8621046062992126
21
0.0540811023622047
0
LINE
8
BLACK
6
CONTINUOUS
10
0.8621046062992126
20
0.0540811023622047
11
0.8713296062992126
21
0.057248031496063
0
LINE
8
BLACK
6
CONTINUOUS
10
0.8713296062992126
20
0.057248031496063
11
0.8809500393700788
21
0.0588534251968504
0
LINE
8
BLACK
6
CONTINUOUS
10
0.8809500393700788
20
0.0588534251968504
11
0.8907035039370078
21
0.0588534251968504
0
LINE
8
BLACK
6
CONTINUOUS
10
0.8907035039370078
20
0.0588534251968504
11
0.9003239370078739
21
0.057248031496063
0
LINE
8
BLACK
6
CONTINUOUS
10
0.8549594488188976
20
0.1763705118110236
11
0.8594866535433071
21
0.1740637795275591
0
LINE
8
BLACK
6
CONTINUOUS
10
0.8594866535433071
20
0.1740637795275591
11
0.8630795275590551
21
0.170470905511811
0
LINE
8
BLACK
6
CONTINUOUS
10
0.8630795275590551
20
0.170470905511811
11
0.8653862598425197
21
0.1659437007874016
0
LINE
8
BLACK
6
CONTINUOUS
10
0.8653862598425197
20
0.1659437007874016
11
0.8661811023622047
21
0.1609251968503937
0
LINE
8
BLACK
6
CONTINUOUS
10
0.8661811023622047
20
0.1609251968503937
11
0.8669759448818898
21
0.1659437007874016
0
LINE
8
BLACK
6
CONTINUOUS
10
0.8669759448818898
20
0.1659437007874016
11
0.8692826771653543
21
0.170470905511811
0
LINE
8
BLACK
6
CONTINUOUS
10
0.8692826771653543
20
0.170470905511811
11
0.8728755511811024
21
0.1740637795275591
0
LINE
8
BLACK
6
CONTINUOUS
10
0.8728755511811024
20
0.1740637795275591
11
0.8774027559055118
21
0.1763705118110236
0
LINE
8
BLACK
6
CONTINUOUS
10
0.8774027559055118
20
0.1763705118110236
11
0.8824212598425196
21
0.1771653543307087
0
LINE
8
BLACK
6
CONTINUOUS
10
0.8824212598425196
20
0.1771653543307087
11
0.8991535433070866
21
0.1771653543307087
0
LINE
8
BLACK
6
CONTINUOUS
10
0.8991535433070866
20
0.1771653543307087
11
0.9041720472440945
21
0.1763705118110236
0
LINE
8
BLACK
6
CONTINUOUS
10
0.9041720472440945
20
0.1763705118110236
11
0.9086992519685039
21
0.1740637795275591
0
LINE
8
BLACK
6
CONTINUOUS
10
0.9086992519685039
20
0.1740637795275591
11
0.9122921259842519
21
0.170470905511811
0
LINE
8
BLACK
6
CONTINUOUS
10
0.9122921259842519
20
0.170470905511811
11
0.9145988582677165
21
0.1659437007874016
0
LINE
8
BLACK
6
CONTINUOUS
10
0.9145988582677165
20
0.1659437007874016
11
0.9153937007874016
21
0.1609251968503937
0
LINE
8
BLACK
6
CONTINUOUS
10
0.9153937007874016
20
0.1609251968503937
11
0.9161885433070865
21
0.1659437007874016
0
LINE
8
BLACK
6
CONTINUOUS
10
0.9161885433070865
20
0.1659437007874016
11
0.9184952755905511
21
0.170470905511811
0
LINE
8
BLACK
6
CONTINUOUS
10
0.9184952755905511
20
0.170470905511811
11
0.9220881496062991
21
0.1740637795275591
0
LINE
8
BLACK
6
CONTINUOUS
10
0.9220881496062991
20
0.1740637795275591
11
0.9266153543307086
21
0.1763705118110236
0
LINE
8
BLACK
6
CONTINUOUS
10
0.9266153543307086
20
0.1763705118110236
11
0.9316338582677165
21
0.1771653543307087
0
LINE
8
BLACK
6
CONTINUOUS
10
0.9316338582677165
20
0.1771653543307087
11
0.9483661417322834
21
0.1771653543307087
0
LINE
8
BLACK
6
CONTINUOUS
10
0.9483661417322834
20
0.1771653543307087
11
0.9533846456692913
21
0.1763705118110236
0
LINE
8
BLACK
6
CONTINUOUS
10
0.9533846456692913
20
0.1763705118110236
11
0.9579118503937007
21
0.1740637795275591
0
LINE
8
BLACK
6
CONTINUOUS
10
0.9579118503937007
20
0.1740637795275591
11
0.9615047244094488
21
0.170470905511811
0
LINE
8
BLACK
6
CONTINUOUS
10
0.9615047244094488
20
0.170470905511811
11
0.9638114566929133
21
0.1659437007874016
0
LINE
8
BLACK
6
CONTINUOUS
10
0.9638114566929133
20
0.1659437007874016
11
0.9646062992125984
21
0.1609251968503937
0
LINE
8
BLACK
6
CONTINUOUS
10
0.9646062992125984
20
0.1609251968503937
11
0.9654011417322834
21
0.1659437007874016
0
LINE
8
BLACK
6
CONTINUOUS
10
0.9654011417322834
20
0.1659437007874016
11
0.967707874015748
21
0.170470905511811
0
LINE
8
BLACK
6
CONTINUOUS
10
0.967707874015748
20
0.170470905511811
11
0.971300748031496
21
0.1740637795275591
0
LINE
8
BLACK
6
CONTINUOUS
10
0.971300748031496
20
0.1740637795275591
11
0.9758279527559055
21
0.1763705118110236
0
LINE
8
BLACK
6
CONTINUOUS
10
0.9758279527559055
20
0.1763705118110236
11
0.9808464566929134
21
0.1771653543307087
0
LINE
8
BLACK
6
CONTINUOUS
10
0.9808464566929134
20
0.1771653543307087
11
0.9975787401574803
21
0.1771653543307087
0
LINE
8
BLACK
6
CONTINUOUS
10
0.9975787401574803
20
0.1771653543307087
11
1.0025972440944881
21
0.1763705118110236
0
LINE
8
BLACK
6
CONTINUOUS
10
1.0025972440944881
20
0.1763705118110236
11
1.0071244488188975
21
0.1740637795275591
0
LINE
8
BLACK
6
CONTINUOUS
10
1.0071244488188975
20
0.1740637795275591
11
1.0107173228346455
21
0.170470905511811
0
LINE
8
BLACK
6
CONTINUOUS
10
1.0107173228346455
20
0.170470905511811
11
1.0130240551181102
21
0.1659437007874016
0
LINE
8
BLACK
6
CONTINUOUS
10
1.0130240551181102
20
0.1659437007874016
11
1.0138188976377953
21
0.1609251968503937
0
LINE
8
BLACK
6
CONTINUOUS
10
1.0138188976377953
20
0.1609251968503937
11
1.0146137401574802
21
0.1659437007874016
0
LINE
8
BLACK
6
CONTINUOUS
10
1.0146137401574802
20
0.1659437007874016
11
1.0169204724409449
21
0.170470905511811
0
LINE
8
BLACK
6
CONTINUOUS
10
1.0169204724409449
20
0.170470905511811
11
1.0205133464566929
21
0.1740637795275591
0
LINE
8
BLACK
6
CONTINUOUS
10
1.0205133464566929
20
0.1740637795275591
11
1.0250405511811023
21
0.1763705118110236
0
LINE
8
BLACK
6
CONTINUOUS
10
1.0250405511811023
20
0.1763705118110236
11
1.0300590551181101
21
0.1771653543307087
0
LINE
8
BLACK
6
CONTINUOUS
10
1.0300590551181101
20
0.1771653543307087
11
1.046791338582677
21
0.1771653543307087
0
LINE
8
BLACK
6
CONTINUOUS
10
1.046791338582677
20
0.1771653543307087
11
1.0518098425196851
21
0.1763705118110236
0
LINE
8
BLACK
6
CONTINUOUS
10
1.0518098425196851
20
0.1763705118110236
11
1.0563370472440945
21
0.1740637795275591
0
LINE
8
BLACK
6
CONTINUOUS
10
1.0563370472440945
20
0.1740637795275591
11
1.0599299212598425
21
0.170470905511811
0
LINE
8
BLACK
6
CONTINUOUS
10
1.0599299212598425
20
0.170470905511811
11
1.062236653543307
21
0.1659437007874016
0
LINE
8
BLACK
6
CONTINUOUS
10
1.062236653543307
20
0.1659437007874016
11
1.0630314960629921
21
0.1609251968503937
0
LINE
8
BLACK
6
CONTINUOUS
10
1.0630314960629921
20
0.1609251968503937
11
1.0630314960629921
21
0.1028543307086614
0
LINE
8
BLACK
6
CONTINUOUS
10
1.0630314960629921
20
0.1028543307086614
11
1.062236653543307
21
0.0978358267716535
0
LINE
8
BLACK
6
CONTINUOUS
10
1.062236653543307
20
0.0978358267716535
11
1.0599299212598425
21
0.0933086220472441
0
LINE
8
BLACK
6
CONTINUOUS
10
1.0599299212598425
20
0.0933086220472441
11
1.0563370472440945
21
0.0897157480314961
0
LINE
8
BLACK
6
CONTINUOUS
10
1.0563370472440945
20
0.0897157480314961
11
1.0518098425196851
21
0.0874090157480315
0
LINE
8
BLACK
6
CONTINUOUS
10
1.0518098425196851
20
0.0874090157480315
11
1.046791338582677
21
0.0866141732283465
0
LINE
8
BLACK
6
CONTINUOUS
10
1.046791338582677
20
0.0866141732283465
11
1.0300590551181101
21
0.0866141732283465
0
LINE
8
BLACK
6
CONTINUOUS
10
1.0300590551181101
20
0.0866141732283465
11
1.0250405511811023
21
0.0874090157480315
0
LINE
8
BLACK
6
CONTINUOUS
10
1.0250405511811023
20
0.0874090157480315
11
1.0205133464566929
21
0.0897157480314961
0
LINE
8
BLACK
6
CONTINUOUS
10
1.0205133464566929
20
0.0897157480314961
11
1.0169204724409449
21
0.0933086220472441
0
LINE
8
BLACK
6
CONTINUOUS
10
1.0169204724409449
20
0.0933086220472441
11
1.0146137401574802
21
0.0978358267716535
0
LINE
8
BLACK
6
CONTINUOUS
10
1.0146137401574802
20
0.0978358267716535
11
1.0138188976377953
21
0.1028543307086614
0
LINE
8
BLACK
6
CONTINUOUS
10
1.0138188976377953
20
0.1028543307086614
11
1.0130240551181102
21
0.0978358267716535
0
LINE
8
BLACK
6
CONTINUOUS
10
1.0130240551181102
20
0.0978358267716535
11
1.0107173228346455
21
0.0933086220472441
0
LINE
8
BLACK
6
CONTINUOUS
10
1.0107173228346455
20
0.0933086220472441
11
1.0071244488188975
21
0.0897157480314961
0
LINE
8
BLACK
6
CONTINUOUS
10
1.0071244488188975
20
0.0897157480314961
11
1.0025972440944881
21
0.0874090157480315
0
LINE
8
BLACK
6
CONTINUOUS
10
1.0025972440944881
20
0.0874090157480315
11
0.9975787401574803
21
0.0866141732283465
0
LINE
8
BLACK
6
CONTINUOUS
10
0.9975787401574803
20
0.0866141732283465
11
0.9808464566929134
21
0.0866141732283465
0
LINE
8
BLACK
6
CONTINUOUS
10
0.9808464566929134
20
0.0866141732283465
11
0.9758279527559055
21
0.0874090157480315
0
LINE
8
BLACK
6
CONTINUOUS
10
0.9758279527559055
20
0.0874090157480315
11
0.971300748031496
21
0.0897157480314961
0
LINE
8
BLACK
6
CONTINUOUS
10
0.971300748031496
20
0.0897157480314961
11
0.967707874015748
21
0.0933086220472441
0
LINE
8
BLACK
6
CONTINUOUS
10
0.967707874015748
20
0.0933086220472441
11
0.9654011417322834
21
0.0978358267716535
0
LINE
8
BLACK
6
CONTINUOUS
10
0.9654011417322834
20
0.0978358267716535
11
0.9646062992125984
21
0.1028543307086614
0
LINE
8
BLACK
6
CONTINUOUS
10
0.9646062992125984
20
0.1028543307086614
11
0.9638114566929133
21
0.0978358267716535
0
LINE
8
BLACK
6
CONTINUOUS
10
0.9638114566929133
20
0.0978358267716535
11
0.9615047244094488
21
0.0933086220472441
0
LINE
8
BLACK
6
CONTINUOUS
10
0.9615047244094488
20
0.0933086220472441
11
0.9579118503937007
21
0.0897157480314961
0
LINE
8
BLACK
6
CONTINUOUS
10
0.9579118503937007
20
0.0897157480314961
11
0.9533846456692913
21
0.0874090157480315
0
LINE
8
BLACK
6
CONTINUOUS
10
0.9533846456692913
20
0.0874090157480315
11
0.9483661417322834
21
0.0866141732283465
0
LINE
8
BLACK
6
CONTINUOUS
10
0.9483661417322834
20
0.0866141732283465
11
0.9316338582677165
21
0.0866141732283465
0
LINE
8
BLACK
6
CONTINUOUS
10
0.9316338582677165
20
0.0866141732283465
11
0.9266153543307086
21
0.0874090157480315
0
LINE
8
BLACK
6
CONTINUOUS
10
0.9266153543307086
20
0.0874090157480315
11
0.9220881496062991
21
0.0897157480314961
0
LINE
8
BLACK
6
CONTINUOUS
10
0.9220881496062991
20
0.0897157480314961
11
0.9184952755905511
21
0.0933086220472441
0
LINE
8
BLACK
6
CONTINUOUS
10
0.9184952755905511
20
0.0933086220472441
11
0.9161885433070865
21
0.0978358267716535
0
LINE
8
BLACK
6
CONTINUOUS
10
0.9161885433070865
20
0.0978358267716535
11
0.9153937007874016
21
0.1028543307086614
0
LINE
8
BLACK
6
CONTINUOUS
10
0.9153937007874016
20
0.1028543307086614
11
0.9145988582677165
21
0.0978358267716535
0
LINE
8
BLACK
6
CONTINUOUS
10
0.9145988582677165
20
0.0978358267716535
11
0.9122921259842519
21
0.0933086220472441
0
LINE
8
BLACK
6
CONTINUOUS
10
0.9122921259842519
20
0.0933086220472441
11
0.9086992519685039
21
0.0897157480314961
0
LINE
8
BLACK
6
CONTINUOUS
10
0.9086992519685039
20
0.0897157480314961
11
0.9041720472440945
21
0.0874090157480315
0
LINE
8
BLACK
6
CONTINUOUS
10
0.9041720472440945
20
0.0874090157480315
11
0.8991535433070866
21
0.0866141732283465
0
LINE
8
BLACK
6
CONTINUOUS
10
0.8991535433070866
20
0.0866141732283465
11
0.8824212598425196
21
0.0866141732283465
0
LINE
8
BLACK
6
CONTINUOUS
10
0.8824212598425196
20
0.0866141732283465
11
0.8774027559055118
21
0.0874090157480315
0
LINE
8
BLACK
6
CONTINUOUS
10
0.8774027559055118
20
0.0874090157480315
11
0.8728755511811024
21
0.0897157480314961
0
LINE
8
BLACK
6
CONTINUOUS
10
0.8728755511811024
20
0.0897157480314961
11
0.8692826771653543
21
0.0933086220472441
0
LINE
8
BLACK
6
CONTINUOUS
10
0.8692826771653543
20
0.0933086220472441
11
0.8669759448818898
21
0.0978358267716535
0
LINE
8
BLACK
6
CONTINUOUS
10
0.8669759448818898
20
0.0978358267716535
11
0.8661811023622047
21
0.1028543307086614
0
LINE
8
BLACK
6
CONTINUOUS
10
0.8661811023622047
20
0.1028543307086614
11
0.8653862598425197
21
0.0978358267716535
0
LINE
8
BLACK
6
CONTINUOUS
10
0.8653862598425197
20
0.0978358267716535
11
0.8630795275590551
21
0.0933086220472441
0
LINE
8
BLACK
6
CONTINUOUS
10
0.8630795275590551
20
0.0933086220472441
11
0.8594866535433071
21
0.0897157480314961
0
LINE
8
BLACK
6
CONTINUOUS
10
0.8594866535433071
20
0.0897157480314961
11
0.8549594488188976
21
0.0874090157480315
0
LINE
8
BLACK
6
CONTINUOUS
10
0.8549594488188976
20
0.0874090157480315
11
0.8499409448818898
21
0.0866141732283465
0
LINE
8
BLACK
6
CONTINUOUS
10
0.8499409448818898
20
0.0866141732283465
11
0.8332086614173229
21
0.0866141732283465
0
LINE
8
BLACK
6
CONTINUOUS
10
0.8332086614173229
20
0.0866141732283465
11
0.828190157480315
21
0.0874090157480315
0
LINE
8
BLACK
6
CONTINUOUS
10
0.828190157480315
20
0.0874090157480315
11
0.8236629527559055
21
0.0897157480314961
0
LINE
8
BLACK
6
CONTINUOUS
10
0.8236629527559055
20
0.0897157480314961
11
0.8200700787401575
21
0.0933086220472441
0
LINE
8
BLACK
6
CONTINUOUS
10
0.8200700787401575
20
0.0933086220472441
11
0.8177633464566929
21
0.0978358267716535
0
LINE
8
BLACK
6
CONTINUOUS
10
0.8177633464566929
20
0.0978358267716535
11
0.8169685039370078
21
0.1028543307086614
0
LINE
8
BLACK
6
CONTINUOUS
10
0.8169685039370078
20
0.1028543307086614
11
0.8169685039370078
21
0.1609251968503937
0
LINE
8
BLACK
6
CONTINUOUS
10
0.8169685039370078
20
0.1609251968503937
11
0.8177633464566929
21
0.1659437007874016
0
LINE
8
BLACK
6
CONTINUOUS
10
0.8177633464566929
20
0.1659437007874016
11
0.8200700787401575
21
0.170470905511811
0
LINE
8
BLACK
6
CONTINUOUS
10
0.8200700787401575
20
0.170470905511811
11
0.8236629527559055
21
0.1740637795275591
0
LINE
8
BLACK
6
CONTINUOUS
10
0.8236629527559055
20
0.1740637795275591
11
0.828190157480315
21
0.1763705118110236
0
LINE
8
BLACK
6
CONTINUOUS
10
0.828190157480315
20
0.1763705118110236
11
0.8332086614173229
21
0.1771653543307087
0
LINE
8
BLACK
6
CONTINUOUS
10
0.8332086614173229
20
0.1771653543307087
11
0.8499409448818898
21
0.1771653543307087
0
LINE
8
BLACK
6
CONTINUOUS
10
0.8499409448818898
20
0.1771653543307087
11
0.8549594488188976
21
0.1763705118110236
0
LINE
8
BLACK
6
CONTINUOUS
10
0.1114511811023622
20
0.1758722440944882
11
0.1164358661417323
21
0.174128031496063
0
LINE
8
BLACK
6
CONTINUOUS
10
0.1164358661417323
20
0.174128031496063
11
0.1206849606299213
21
0.1709920472440945
0
LINE
8
BLACK
6
CONTINUOUS
10
0.1206849606299213
20
0.1709920472440945
11
0.1238209448818898
21
0.1667429527559055
0
LINE
8
BLACK
6
CONTINUOUS
10
0.1238209448818898
20
0.1667429527559055
11
0.125565157480315
21
0.1617582677165354
0
LINE
8
BLACK
6
CONTINUOUS
10
0.125565157480315
20
0.1617582677165354
11
0.1258740157480315
21
0.1584645669291339
0
LINE
8
BLACK
6
CONTINUOUS
10
0.1258740157480315
20
0.1584645669291339
11
0.1258740157480315
21
0.1387795275590551
0
LINE
8
BLACK
6
CONTINUOUS
10
0.1258740157480315
20
0.1387795275590551
11
0.125565157480315
21
0.1354858267716536
0
LINE
8
BLACK
6
CONTINUOUS
10
0.125565157480315
20
0.1354858267716536
11
0.1238209448818898
21
0.1305011417322835
0
LINE
8
BLACK
6
CONTINUOUS
10
0.1238209448818898
20
0.1305011417322835
11
0.1206849606299213
21
0.1262520472440945
0
LINE
8
BLACK
6
CONTINUOUS
10
0.1206849606299213
20
0.1262520472440945
11
0.1164358661417323
21
0.123116062992126
0
LINE
8
BLACK
6
CONTINUOUS
10
0.1164358661417323
20
0.123116062992126
11
0.1114511811023622
21
0.1213718503937008
0
LINE
8
BLACK
6
CONTINUOUS
10
0.1114511811023622
20
0.1213718503937008
11
0.1081574803149606
21
0.1210629921259842
0
LINE
8
BLACK
6
CONTINUOUS
10
0.1081574803149606
20
0.1210629921259842
11
0.0215433070866142
21
0.1210629921259842
0
LINE
8
BLACK
6
CONTINUOUS
10
0.0215433070866142
20
0.1210629921259842
11
0.0182496062992126
21
0.1213718503937008
0
LINE
8
BLACK
6
CONTINUOUS
10
0.0182496062992126
20
0.1213718503937008
11
0.0132649212598425
21
0.123116062992126
0
LINE
8
BLACK
6
CONTINUOUS
10
0.0132649212598425
20
0.123116062992126
11
0.0090158267716535
21
0.1262520472440945
0
LINE
8
BLACK
6
CONTINUOUS
10
0.0090158267716535
20
0.1262520472440945
11
0.005879842519685
21
0.1305011417322835
0
LINE
8
BLACK
6
CONTINUOUS
10
0.005879842519685
20
0.1305011417322835
11
0.0041356299212598
21
0.1354858267716536
0
LINE
8
BLACK
6
CONTINUOUS
10
0.0041356299212598
20
0.1354858267716536
11
0.0038267716535433
21
0.1387795275590551
0
LINE
8
BLACK
6
CONTINUOUS
10
0.0038267716535433
20
0.1387795275590551
11
0.0038267716535433
21
0.1584645669291339
0
LINE
8
BLACK
6
CONTINUOUS
10
0.0038267716535433
20
0.1584645669291339
11
0.0041356299212598
21
0.1617582677165354
0
LINE
8
BLACK
6
CONTINUOUS
10
0.0041356299212598
20
0.1617582677165354
11
0.005879842519685
21
0.1667429527559055
0
LINE
8
BLACK
6
CONTINUOUS
10
0.005879842519685
20
0.1667429527559055
11
0.0090158267716535
21
0.1709920472440945
0
LINE
8
BLACK
6
CONTINUOUS
10
0.0090158267716535
20
0.1709920472440945
11
0.0132649212598425
21
0.174128031496063
0
LINE
8
BLACK
6
CONTINUOUS
10
0.0132649212598425
20
0.174128031496063
11
0.0182496062992126
21
0.1758722440944882
0
LINE
8
BLACK
6
CONTINUOUS
10
0.0182496062992126
20
0.1758722440944882
11
0.0215433070866142
21
0.1761811023622047
0
LINE
8
BLACK
6
CONTINUOUS
10
0.0215433070866142
20
0.1761811023622047
11
0.1081574803149606
21
0.1761811023622047
0
LINE
8
BLACK
6
CONTINUOUS
10
0.1081574803149606
20
0.1761811023622047
11
0.1114511811023622
21
0.1758722440944882
0
LINE
8
BLACK
6
CONTINUOUS
10
0.6751831102362205
20
0.1832875984251968
11
0.679778937007874
21
0.180945905511811
0
LINE
8
BLACK
6
CONTINUOUS
10
0.679778937007874
20
0.180945905511811
11
0.6834262204724409
21
0.1772986220472441
0
LINE
8
BLACK
6
CONTINUOUS
10
0.6834262204724409
20
0.1772986220472441
11
0.6857679133858268
21
0.1727027952755905
0
LINE
8
BLACK
6
CONTINUOUS
10
0.6857679133858268
20
0.1727027952755905
11
0.6865748031496063
21
0.1676082677165354
0
LINE
8
BLACK
6
CONTINUOUS
10
0.6865748031496063
20
0.1676082677165354
11
0.6865748031496063
21
0.1503838582677165
0
LINE
8
BLACK
6
CONTINUOUS
10
0.6865748031496063
20
0.1503838582677165
11
0.6857679133858268
21
0.1452893307086614
0
LINE
8
BLACK
6
CONTINUOUS
10
0.6857679133858268
20
0.1452893307086614
11
0.6834262204724409
21
0.1406935039370079
0
LINE
8
BLACK
6
CONTINUOUS
10
0.6834262204724409
20
0.1406935039370079
11
0.679778937007874
21
0.1370462204724409
0
LINE
8
BLACK
6
CONTINUOUS
10
0.679778937007874
20
0.1370462204724409
11
0.6751831102362205
21
0.1347045275590551
0
LINE
8
BLACK
6
CONTINUOUS
10
0.6751831102362205
20
0.1347045275590551
11
0.6700885826771653
21
0.1338976377952756
0
LINE
8
BLACK
6
CONTINUOUS
10
0.6700885826771653
20
0.1338976377952756
11
0.6499114173228346
21
0.1338976377952756
0
LINE
8
BLACK
6
CONTINUOUS
10
0.6499114173228346
20
0.1338976377952756
11
0.6448168897637795
21
0.1347045275590551
0
LINE
8
BLACK
6
CONTINUOUS
10
0.6448168897637795
20
0.1347045275590551
11
0.640221062992126
21
0.1370462204724409
0
LINE
8
BLACK
6
CONTINUOUS
10
0.640221062992126
20
0.1370462204724409
11
0.636573779527559
21
0.1406935039370079
0
LINE
8
BLACK
6
CONTINUOUS
10
0.636573779527559
20
0.1406935039370079
11
0.6342320866141732
21
0.1452893307086614
0
LINE
8
BLACK
6
CONTINUOUS
10
0.6342320866141732
20
0.1452893307086614
11
0.6334251968503937
21
0.1503838582677165
0
LINE
8
BLACK
6
CONTINUOUS
10
0.6334251968503937
20
0.1503838582677165
11
0.6334251968503937
21
0.1676082677165354
0
LINE
8
BLACK
6
CONTINUOUS
10
0.6334251968503937
20
0.1676082677165354
11
0.6342320866141732
21
0.1727027952755905
0
LINE
8
BLACK
6
CONTINUOUS
10
0.6342320866141732
20
0.1727027952755905
11
0.636573779527559
21
0.1772986220472441
0
LINE
8
BLACK
6
CONTINUOUS
10
0.636573779527559
20
0.1772986220472441
11
0.640221062992126
21
0.180945905511811
0
LINE
8
BLACK
6
CONTINUOUS
10
0.640221062992126
20
0.180945905511811
11
0.6448168897637795
21
0.1832875984251968
0
LINE
8
BLACK
6
CONTINUOUS
10
0.6448168897637795
20
0.1832875984251968
11
0.6499114173228346
21
0.1840944881889764
0
LINE
8
BLACK
6
CONTINUOUS
10
0.6499114173228346
20
0.1840944881889764
11
0.6700885826771653
21
0.1840944881889764
0
LINE
8
BLACK
6
CONTINUOUS
10
0.6700885826771653
20
0.1840944881889764
11
0.6751831102362205
21
0.1832875984251968
0
LINE
8
BLACK
6
CONTINUOUS
10
0.4801831102362205
20
0.2042915354330709
11
0.484778937007874
21
0.201949842519685
0
LINE
8
BLACK
6
CONTINUOUS
10
0.484778937007874
20
0.201949842519685
11
0.4884262204724409
21
0.1983025590551181
0
LINE
8
BLACK
6
CONTINUOUS
10
0.4884262204724409
20
0.1983025590551181
11
0.4907679133858268
21
0.1937067322834645
0
LINE
8
BLACK
6
CONTINUOUS
10
0.4907679133858268
20
0.1937067322834645
11
0.4915748031496063
21
0.1886122047244095
0
LINE
8
BLACK
6
CONTINUOUS
10
0.4915748031496063
20
0.1886122047244095
11
0.4915748031496063
21
0.1713877952755906
0
LINE
8
BLACK
6
CONTINUOUS
10
0.4915748031496063
20
0.1713877952755906
11
0.4907679133858268
21
0.1662932677165354
0
LINE
8
BLACK
6
CONTINUOUS
10
0.4907679133858268
20
0.1662932677165354
11
0.4884262204724409
21
0.1616974409448819
0
LINE
8
BLACK
6
CONTINUOUS
10
0.4884262204724409
20
0.1616974409448819
11
0.484778937007874
21
0.158050157480315
0
LINE
8
BLACK
6
CONTINUOUS
10
0.484778937007874
20
0.158050157480315
11
0.4801831102362205
21
0.1557084645669291
0
LINE
8
BLACK
6
CONTINUOUS
10
0.4801831102362205
20
0.1557084645669291
11
0.4750885826771654
21
0.1549015748031496
0
LINE
8
BLACK
6
CONTINUOUS
10
0.4750885826771654
20
0.1549015748031496
11
0.4549114173228346
21
0.1549015748031496
0
LINE
8
BLACK
6
CONTINUOUS
10
0.4549114173228346
20
0.1549015748031496
11
0.4498168897637795
21
0.1557084645669291
0
LINE
8
BLACK
6
CONTINUOUS
10
0.4498168897637795
20
0.1557084645669291
11
0.445221062992126
21
0.158050157480315
0
LINE
8
BLACK
6
CONTINUOUS
10
0.445221062992126
20
0.158050157480315
11
0.4415737795275591
21
0.1616974409448819
0
LINE
8
BLACK
6
CONTINUOUS
10
0.4415737795275591
20
0.1616974409448819
11
0.4392320866141732
21
0.1662932677165354
0
LINE
8
BLACK
6
CONTINUOUS
10
0.4392320866141732
20
0.1662932677165354
11
0.4384251968503937
21
0.1713877952755906
0
LINE
8
BLACK
6
CONTINUOUS
10
0.4384251968503937
20
0.1713877952755906
11
0.4384251968503937
21
0.1886122047244095
0
LINE
8
BLACK
6
CONTINUOUS
10
0.4384251968503937
20
0.1886122047244095
11
0.4392320866141732
21
0.1937067322834645
0
LINE
8
BLACK
6
CONTINUOUS
10
0.4392320866141732
20
0.1937067322834645
11
0.4415737795275591
21
0.1983025590551181
0
LINE
8
BLACK
6
CONTINUOUS
10
0.4415737795275591
20
0.1983025590551181
11
0.445221062992126
21
0.201949842519685
0
LINE
8
BLACK
6
CONTINUOUS
10
0.445221062992126
20
0.201949842519685
11
0.4498168897637795
21
0.2042915354330709
0
LINE
8
BLACK
6
CONTINUOUS
10
0.4498168897637795
20
0.2042915354330709
11
0.4549114173228346
21
0.2050984251968504
0
LINE
8
BLACK
6
CONTINUOUS
10
0.4549114173228346
20
0.2050984251968504
11
0.4750885826771654
21
0.2050984251968504
0
LINE
8
BLACK
6
CONTINUOUS
10
0.4750885826771654
20
0.2050984251968504
11
0.4801831102362205
21
0.2042915354330709
0
LINE
8
BLACK
6
CONTINUOUS
10
0.333406968503937
20
0.2248337007874016
11
0.3359614566929134
21
0.223126811023622
0
LINE
8
BLACK
6
CONTINUOUS
10
0.3359614566929134
20
0.223126811023622
11
0.3362992125984252
21
0.2226213385826772
0
LINE
8
BLACK
6
CONTINUOUS
10
0.3362992125984252
20
0.2226213385826772
11
0.336636968503937
21
0.223126811023622
0
LINE
8
BLACK
6
CONTINUOUS
10
0.336636968503937
20
0.223126811023622
11
0.3391914566929134
21
0.2248337007874016
0
LINE
8
BLACK
6
CONTINUOUS
10
0.3391914566929134
20
0.2248337007874016
11
0.3422047244094488
21
0.2254330708661417
0
LINE
8
BLACK
6
CONTINUOUS
10
0.3422047244094488
20
0.2254330708661417
11
0.3677952755905512
21
0.2254330708661417
0
LINE
8
BLACK
6
CONTINUOUS
10
0.3677952755905512
20
0.2254330708661417
11
0.3708085433070866
21
0.2248337007874016
0
LINE
8
BLACK
6
CONTINUOUS
10
0.3708085433070866
20
0.2248337007874016
11
0.373363031496063
21
0.223126811023622
0
LINE
8
BLACK
6
CONTINUOUS
10
0.373363031496063
20
0.223126811023622
11
0.3737007874015748
21
0.2226213385826772
0
LINE
8
BLACK
6
CONTINUOUS
10
0.3737007874015748
20
0.2226213385826772
11
0.3740385433070866
21
0.223126811023622
0
LINE
8
BLACK
6
CONTINUOUS
10
0.3740385433070866
20
0.223126811023622
11
0.376593031496063
21
0.2248337007874016
0
LINE
8
BLACK
6
CONTINUOUS
10
0.376593031496063
20
0.2248337007874016
11
0.3796062992125984
21
0.2254330708661417
0
LINE
8
BLACK
6
CONTINUOUS
10
0.3796062992125984
20
0.2254330708661417
11
0.4051968503937008
21
0.2254330708661417
0
LINE
8
BLACK
6
CONTINUOUS
10
0.4051968503937008
20
0.2254330708661417
11
0.4082101181102362
21
0.2248337007874016
0
LINE
8
BLACK
6
CONTINUOUS
10
0.4082101181102362
20
0.2248337007874016
11
0.4107646062992126
21
0.223126811023622
0
LINE
8
BLACK
6
CONTINUOUS
10
0.4107646062992126
20
0.223126811023622
11
0.4124714960629921
21
0.2205723228346457
0
LINE
8
BLACK
6
CONTINUOUS
10
0.4124714960629921
20
0.2205723228346457
11
0.4130708661417323
21
0.2175590551181102
0
LINE
8
BLACK
6
CONTINUOUS
10
0.4130708661417323
20
0.2175590551181102
11
0.4130708661417323
21
0.1758267716535433
0
LINE
8
BLACK
6
CONTINUOUS
10
0.4130708661417323
20
0.1758267716535433
11
0.4124714960629921
21
0.1728135039370079
0
LINE
8
BLACK
6
CONTINUOUS
10
0.4124714960629921
20
0.1728135039370079
11
0.4107646062992126
21
0.1702590157480315
0
LINE
8
BLACK
6
CONTINUOUS
10
0.4107646062992126
20
0.1702590157480315
11
0.4082101181102362
21
0.168552125984252
0
LINE
8
BLACK
6
CONTINUOUS
10
0.4082101181102362
20
0.168552125984252
11
0.4051968503937008
21
0.1679527559055118
0
LINE
8
BLACK
6
CONTINUOUS
10
0.4051968503937008
20
0.1679527559055118
11
0.3796062992125984
21
0.1679527559055118
0
LINE
8
BLACK
6
CONTINUOUS
10
0.3796062992125984
20
0.1679527559055118
11
0.376593031496063
21
0.168552125984252
0
LINE
8
BLACK
6
CONTINUOUS
10
0.376593031496063
20
0.168552125984252
11
0.3740385433070866
21
0.1702590157480315
0
LINE
8
BLACK
6
CONTINUOUS
10
0.3740385433070866
20
0.1702590157480315
11
0.3737007874015748
21
0.1707645275590551
0
LINE
8
BLACK
6
CONTINUOUS
10
0.3737007874015748
20
0.1707645275590551
11
0.373363031496063
21
0.1702590157480315
0
LINE
8
BLACK
6
CONTINUOUS
10
0.373363031496063
20
0.1702590157480315
11
0.3708085433070866
21
0.168552125984252
0
LINE
8
BLACK
6
CONTINUOUS
10
0.3708085433070866
20
0.168552125984252
11
0.3677952755905512
21
0.1679527559055118
0
LINE
8
BLACK
6
CONTINUOUS
10
0.3677952755905512
20
0.1679527559055118
11
0.3422047244094488
21
0.1679527559055118
0
LINE
8
BLACK
6
CONTINUOUS
10
0.3422047244094488
20
0.1679527559055118
11
0.3391914566929134
21
0.168552125984252
0
LINE
8
BLACK
6
CONTINUOUS
10
0.3391914566929134
20
0.168552125984252
11
0.336636968503937
21
0.1702590157480315
0
LINE
8
BLACK
6
CONTINUOUS
10
0.336636968503937
20
0.1702590157480315
11
0.3362992125984252
21
0.1707645275590551
0
LINE
8
BLACK
6
CONTINUOUS
10
0.3362992125984252
20
0.1707645275590551
11
0.3359614566929134
21
0.1702590157480315
0
LINE
8
BLACK
6
CONTINUOUS
10
0.3359614566929134
20
0.1702590157480315
11
0.333406968503937
21
0.168552125984252
0
LINE
8
BLACK
6
CONTINUOUS
10
0.333406968503937
20
0.168552125984252
11
0.3303937007874015
21
0.1679527559055118
0
LINE
8
BLACK
6
CONTINUOUS
10
0.3303937007874015
20
0.1679527559055118
11
0.3048031496062992
21
0.1679527559055118
0
LINE
8
BLACK
6
CONTINUOUS
10
0.3048031496062992
20
0.1679527559055118
11
0.3017898818897638
21
0.168552125984252
0
LINE
8
BLACK
6
CONTINUOUS
10
0.3017898818897638
20
0.168552125984252
11
0.2992353937007874
21
0.1702590157480315
0
LINE
8
BLACK
6
CONTINUOUS
10
0.2992353937007874
20
0.1702590157480315
11
0.2975285039370079
21
0.1728135039370079
0
LINE
8
BLACK
6
CONTINUOUS
10
0.2975285039370079
20
0.1728135039370079
11
0.2969291338582677
21
0.1758267716535433
0
LINE
8
BLACK
6
CONTINUOUS
10
0.2969291338582677
20
0.1758267716535433
11
0.2969291338582677
21
0.2175590551181102
0
LINE
8
BLACK
6
CONTINUOUS
10
0.2969291338582677
20
0.2175590551181102
11
0.2975285039370079
21
0.2205723228346457
0
LINE
8
BLACK
6
CONTINUOUS
10
0.2975285039370079
20
0.2205723228346457
11
0.2992353937007874
21
0.223126811023622
0
LINE
8
BLACK
6
CONTINUOUS
10
0.2992353937007874
20
0.223126811023622
11
0.3017898818897638
21
0.2248337007874016
0
LINE
8
BLACK
6
CONTINUOUS
10
0.3017898818897638
20
0.2248337007874016
11
0.3048031496062992
21
0.2254330708661417
0
LINE
8
BLACK
6
CONTINUOUS
10
0.3048031496062992
20
0.2254330708661417
11
0.3303937007874015
21
0.2254330708661417
0
LINE
8
BLACK
6
CONTINUOUS
10
0.3303937007874015
20
0.2254330708661417
11
0.333406968503937
21
0.2248337007874016
0
LINE
8
BLACK
6
CONTINUOUS
10
0.8106681102362204
20
0.2206618503937008
11
0.8151953149606299
21
0.2183551181102362
0
LINE
8
BLACK
6
CONTINUOUS
10
0.8151953149606299
20
0.2183551181102362
11
0.818788188976378
21
0.2147622440944882
0
LINE
8
BLACK
6
CONTINUOUS
10
0.818788188976378
20
0.2147622440944882
11
0.8210949212598425
21
0.2102350393700787
0
LINE
8
BLACK
6
CONTINUOUS
10
0.8210949212598425
20
0.2102350393700787
11
0.8218897637795275
21
0.2052165354330709
0
LINE
8
BLACK
6
CONTINUOUS
10
0.8218897637795275
20
0.2052165354330709
11
0.8218897637795275
21
0.1884842519685039
0
LINE
8
BLACK
6
CONTINUOUS
10
0.8218897637795275
20
0.1884842519685039
11
0.8210949212598425
21
0.1834657480314961
0
LINE
8
BLACK
6
CONTINUOUS
10
0.8210949212598425
20
0.1834657480314961
11
0.818788188976378
21
0.1789385433070866
0
LINE
8
BLACK
6
CONTINUOUS
10
0.818788188976378
20
0.1789385433070866
11
0.8151953149606299
21
0.1753456692913386
0
LINE
8
BLACK
6
CONTINUOUS
10
0.8151953149606299
20
0.1753456692913386
11
0.8106681102362204
21
0.173038937007874
0
LINE
8
BLACK
6
CONTINUOUS
10
0.8106681102362204
20
0.173038937007874
11
0.8056496062992126
21
0.172244094488189
0
LINE
8
BLACK
6
CONTINUOUS
10
0.8056496062992126
20
0.172244094488189
11
0.7475787401574803
21
0.172244094488189
0
LINE
8
BLACK
6
CONTINUOUS
10
0.7475787401574803
20
0.172244094488189
11
0.7425602362204724
21
0.173038937007874
0
LINE
8
BLACK
6
CONTINUOUS
10
0.7425602362204724
20
0.173038937007874
11
0.738033031496063
21
0.1753456692913386
0
LINE
8
BLACK
6
CONTINUOUS
10
0.738033031496063
20
0.1753456692913386
11
0.734440157480315
21
0.1789385433070866
0
LINE
8
BLACK
6
CONTINUOUS
10
0.734440157480315
20
0.1789385433070866
11
0.7321334251968504
21
0.1834657480314961
0
LINE
8
BLACK
6
CONTINUOUS
10
0.7321334251968504
20
0.1834657480314961
11
0.7313385826771653
21
0.1884842519685039
0
LINE
8
BLACK
6
CONTINUOUS
10
0.7313385826771653
20
0.1884842519685039
11
0.7313385826771653
21
0.2052165354330709
0
LINE
8
BLACK
6
CONTINUOUS
10
0.7313385826771653
20
0.2052165354330709
11
0.7321334251968504
21
0.2102350393700787
0
LINE
8
BLACK
6
CONTINUOUS
10
0.7321334251968504
20
0.2102350393700787
11
0.734440157480315
21
0.2147622440944882
0
LINE
8
BLACK
6
CONTINUOUS
10
0.734440157480315
20
0.2147622440944882
11
0.738033031496063
21
0.2183551181102362
0
LINE
8
BLACK
6
CONTINUOUS
10
0.738033031496063
20
0.2183551181102362
11
0.7425602362204724
21
0.2206618503937008
0
LINE
8
BLACK
6
CONTINUOUS
10
0.7425602362204724
20
0.2206618503937008
11
0.7475787401574803
21
0.2214566929133858
0
LINE
8
BLACK
6
CONTINUOUS
10
0.7475787401574803
20
0.2214566929133858
11
0.7425602362204724
21
0.2222515354330709
0
LINE
8
BLACK
6
CONTINUOUS
10
0.7425602362204724
20
0.2222515354330709
11
0.738033031496063
21
0.2245582677165354
0
LINE
8
BLACK
6
CONTINUOUS
10
0.738033031496063
20
0.2245582677165354
11
0.734440157480315
21
0.2281511417322835
0
LINE
8
BLACK
6
CONTINUOUS
10
0.734440157480315
20
0.2281511417322835
11
0.7321334251968504
21
0.2326783464566929
0
LINE
8
BLACK
6
CONTINUOUS
10
0.7321334251968504
20
0.2326783464566929
11
0.7313385826771653
21
0.2376968503937008
0
LINE
8
BLACK
6
CONTINUOUS
10
0.7313385826771653
20
0.2376968503937008
11
0.7313385826771653
21
0.2544291338582677
0
LINE
8
BLACK
6
CONTINUOUS
10
0.7313385826771653
20
0.2544291338582677
11
0.7321334251968504
21
0.2594476377952756
0
LINE
8
BLACK
6
CONTINUOUS
10
0.7321334251968504
20
0.2594476377952756
11
0.734440157480315
21
0.2639748425196851
0
LINE
8
BLACK
6
CONTINUOUS
10
0.734440157480315
20
0.2639748425196851
11
0.738033031496063
21
0.267567716535433
0
LINE
8
BLACK
6
CONTINUOUS
10
0.738033031496063
20
0.267567716535433
11
0.7425602362204724
21
0.2698744488188976
0
LINE
8
BLACK
6
CONTINUOUS
10
0.7425602362204724
20
0.2698744488188976
11
0.7475787401574803
21
0.2706692913385827
0
LINE
8
BLACK
6
CONTINUOUS
10
0.7475787401574803
20
0.2706692913385827
11
0.7425602362204724
21
0.2714641338582677
0
LINE
8
BLACK
6
CONTINUOUS
10
0.7425602362204724
20
0.2714641338582677
11
0.738033031496063
21
0.2737708661417323
0
LINE
8
BLACK
6
CONTINUOUS
10
0.738033031496063
20
0.2737708661417323
11
0.734440157480315
21
0.2773637401574803
0
LINE
8
BLACK
6
CONTINUOUS
10
0.734440157480315
20
0.2773637401574803
11
0.7321334251968504
21
0.2818909448818898
0
LINE
8
BLACK
6
CONTINUOUS
10
0.7321334251968504
20
0.2818909448818898
11
0.7313385826771653
21
0.2869094488188976
0
LINE
8
BLACK
6
CONTINUOUS
10
0.7313385826771653
20
0.2869094488188976
11
0.7313385826771653
21
0.3036417322834646
0
LINE
8
BLACK
6
CONTINUOUS
10
0.7313385826771653
20
0.3036417322834646
11
0.7321334251968504
21
0.3086602362204725
0
LINE
8
BLACK
6
CONTINUOUS
10
0.7321334251968504
20
0.3086602362204725
11
0.734440157480315
21
0.3131874409448819
0
LINE
8
BLACK
6
CONTINUOUS
10
0.734440157480315
20
0.3131874409448819
11
0.738033031496063
21
0.3167803149606299
0
LINE
8
BLACK
6
CONTINUOUS
10
0.738033031496063
20
0.3167803149606299
11
0.7425602362204724
21
0.3190870472440945
0
LINE
8
BLACK
6
CONTINUOUS
10
0.7425602362204724
20
0.3190870472440945
11
0.7475787401574803
21
0.3198818897637795
0
LINE
8
BLACK
6
CONTINUOUS
10
0.7475787401574803
20
0.3198818897637795
11
0.7425602362204724
21
0.3206767322834645
0
LINE
8
BLACK
6
CONTINUOUS
10
0.7425602362204724
20
0.3206767322834645
11
0.738033031496063
21
0.3229834645669291
0
LINE
8
BLACK
6
CONTINUOUS
10
0.738033031496063
20
0.3229834645669291
11
0.734440157480315
21
0.3265763385826772
0
LINE
8
BLACK
6
CONTINUOUS
10
0.734440157480315
20
0.3265763385826772
11
0.7321334251968504
21
0.3311035433070866
0
LINE
8
BLACK
6
CONTINUOUS
10
0.7321334251968504
20
0.3311035433070866
11
0.7313385826771653
21
0.3361220472440945
0
LINE
8
BLACK
6
CONTINUOUS
10
0.7313385826771653
20
0.3361220472440945
11
0.7313385826771653
21
0.3528543307086614
0
LINE
8
BLACK
6
CONTINUOUS
10
0.7313385826771653
20
0.3528543307086614
11
0.7321334251968504
21
0.3578728346456693
0
LINE
8
BLACK
6
CONTINUOUS
10
0.7321334251968504
20
0.3578728346456693
11
0.734440157480315
21
0.3624000393700788
0
LINE
8
BLACK
6
CONTINUOUS
10
0.734440157480315
20
0.3624000393700788
11
0.738033031496063
21
0.3659929133858268
0
LINE
8
BLACK
6
CONTINUOUS
10
0.738033031496063
20
0.3659929133858268
11
0.7425602362204724
21
0.3682996456692914
0
LINE
8
BLACK
6
CONTINUOUS
10
0.7425602362204724
20
0.3682996456692914
11
0.7475787401574803
21
0.3690944881889764
0
LINE
8
BLACK
6
CONTINUOUS
10
0.7475787401574803
20
0.3690944881889764
11
0.7425602362204724
21
0.3698893307086614
0
LINE
8
BLACK
6
CONTINUOUS
10
0.7425602362204724
20
0.3698893307086614
11
0.738033031496063
21
0.372196062992126
0
LINE
8
BLACK
6
CONTINUOUS
10
0.738033031496063
20
0.372196062992126
11
0.734440157480315
21
0.375788937007874
0
LINE
8
BLACK
6
CONTINUOUS
10
0.734440157480315
20
0.375788937007874
11
0.7321334251968504
21
0.3803161417322835
0
LINE
8
BLACK
6
CONTINUOUS
10
0.7321334251968504
20
0.3803161417322835
11
0.7313385826771653
21
0.3853346456692913
0
LINE
8
BLACK
6
CONTINUOUS
10
0.7313385826771653
20
0.3853346456692913
11
0.7313385826771653
21
0.4020669291338583
0
LINE
8
BLACK
6
CONTINUOUS
10
0.7313385826771653
20
0.4020669291338583
11
0.7321334251968504
21
0.4070854330708661
0
LINE
8
BLACK
6
CONTINUOUS
10
0.7321334251968504
20
0.4070854330708661
11
0.734440157480315
21
0.4116126377952756
0
LINE
8
BLACK
6
CONTINUOUS
10
0.734440157480315
20
0.4116126377952756
11
0.738033031496063
21
0.4152055118110236
0
LINE
8
BLACK
6
CONTINUOUS
10
0.738033031496063
20
0.4152055118110236
11
0.7425602362204724
21
0.4175122440944882
0
LINE
8
BLACK
6
CONTINUOUS
10
0.7425602362204724
20
0.4175122440944882
11
0.7475787401574803
21
0.4183070866141732
0
LINE
8
BLACK
6
CONTINUOUS
10
0.7475787401574803
20
0.4183070866141732
11
0.8056496062992126
21
0.4183070866141732
0
LINE
8
BLACK
6
CONTINUOUS
10
0.8056496062992126
20
0.4183070866141732
11
0.8106681102362204
21
0.4175122440944882
0
LINE
8
BLACK
6
CONTINUOUS
10
0.8106681102362204
20
0.4175122440944882
11
0.8151953149606299
21
0.4152055118110236
0
LINE
8
BLACK
6
CONTINUOUS
10
0.8151953149606299
20
0.4152055118110236
11
0.818788188976378
21
0.4116126377952756
0
LINE
8
BLACK
6
CONTINUOUS
10
0.818788188976378
20
0.4116126377952756
11
0.8210949212598425
21
0.4070854330708661
0
LINE
8
BLACK
6
CONTINUOUS
10
0.8210949212598425
20
0.4070854330708661
11
0.8218897637795275
21
0.4020669291338583
0
LINE
8
BLACK
6
CONTINUOUS
10
0.8218897637795275
20
0.4020669291338583
11
0.8218897637795275
21
0.3853346456692913
0
LINE
8
BLACK
6
CONTINUOUS
10
0.8218897637795275
20
0.3853346456692913
11
0.8210949212598425
21
0.3803161417322835
0
LINE
8
BLACK
6
CONTINUOUS
10
0.8210949212598425
20
0.3803161417322835
11
0.818788188976378
21
0.375788937007874
0
LINE
8
BLACK
6
CONTINUOUS
10
0.818788188976378
20
0.375788937007874
11
0.8151953149606299
21
0.372196062992126
0
LINE
8
BLACK
6
CONTINUOUS
10
0.8151953149606299
20
0.372196062992126
11
0.8106681102362204
21
0.3698893307086614
0
LINE
8
BLACK
6
CONTINUOUS
10
0.8106681102362204
20
0.3698893307086614
11
0.8056496062992126
21
0.3690944881889764
0
LINE
8
BLACK
6
CONTINUOUS
10
0.8056496062992126
20
0.3690944881889764
11
0.8106681102362204
21
0.3682996456692914
0
LINE
8
BLACK
6
CONTINUOUS
10
0.8106681102362204
20
0.3682996456692914
11
0.8151953149606299
21
0.3659929133858268
0
LINE
8
BLACK
6
CONTINUOUS
10
0.8151953149606299
20
0.3659929133858268
11
0.818788188976378
21
0.3624000393700788
0
LINE
8
BLACK
6
CONTINUOUS
10
0.818788188976378
20
0.3624000393700788
11
0.8210949212598425
21
0.3578728346456693
0
LINE
8
BLACK
6
CONTINUOUS
10
0.8210949212598425
20
0.3578728346456693
11
0.8218897637795275
21
0.3528543307086614
0
LINE
8
BLACK
6
CONTINUOUS
10
0.8218897637795275
20
0.3528543307086614
11
0.8218897637795275
21
0.3361220472440945
0
LINE
8
BLACK
6
CONTINUOUS
10
0.8218897637795275
20
0.3361220472440945
11
0.8210949212598425
21
0.3311035433070866
0
LINE
8
BLACK
6
CONTINUOUS
10
0.8210949212598425
20
0.3311035433070866
11
0.818788188976378
21
0.3265763385826772
0
LINE
8
BLACK
6
CONTINUOUS
10
0.818788188976378
20
0.3265763385826772
11
0.8151953149606299
21
0.3229834645669291
0
LINE
8
BLACK
6
CONTINUOUS
10
0.8151953149606299
20
0.3229834645669291
11
0.8106681102362204
21
0.3206767322834645
0
LINE
8
BLACK
6
CONTINUOUS
10
0.8106681102362204
20
0.3206767322834645
11
0.8056496062992126
21
0.3198818897637795
0
LINE
8
BLACK
6
CONTINUOUS
10
0.8056496062992126
20
0.3198818897637795
11
0.8106681102362204
21
0.3190870472440945
0
LINE
8
BLACK
6
CONTINUOUS
10
0.8106681102362204
20
0.3190870472440945
11
0.8151953149606299
21
0.3167803149606299
0
LINE
8
BLACK
6
CONTINUOUS
10
0.8151953149606299
20
0.3167803149606299
11
0.818788188976378
21
0.3131874409448819
0
LINE
8
BLACK
6
CONTINUOUS
10
0.818788188976378
20
0.3131874409448819
11
0.8210949212598425
21
0.3086602362204725
0
LINE
8
BLACK
6
CONTINUOUS
10
0.8210949212598425
20
0.3086602362204725
11
0.8218897637795275
21
0.3036417322834646
0
LINE
8
BLACK
6
CONTINUOUS
10
0.8218897637795275
20
0.3036417322834646
11
0.8218897637795275
21
0.2869094488188976
0
LINE
8
BLACK
6
CONTINUOUS
10
0.8218897637795275
20
0.2869094488188976
11
0.8210949212598425
21
0.2818909448818898
0
LINE
8
BLACK
6
CONTINUOUS
10
0.8210949212598425
20
0.2818909448818898
11
0.818788188976378
21
0.2773637401574803
0
LINE
8
BLACK
6
CONTINUOUS
10
0.818788188976378
20
0.2773637401574803
11
0.8151953149606299
21
0.2737708661417323
0
LINE
8
BLACK
6
CONTINUOUS
10
0.8151953149606299
20
0.2737708661417323
11
0.8106681102362204
21
0.2714641338582677
0
LINE
8
BLACK
6
CONTINUOUS
10
0.8106681102362204
20
0.2714641338582677
11
0.8056496062992126
21
0.2706692913385827
0
LINE
8
BLACK
6
CONTINUOUS
10
0.8056496062992126
20
0.2706692913385827
11
0.8106681102362204
21
0.2698744488188976
0
LINE
8
BLACK
6
CONTINUOUS
10
0.8106681102362204
20
0.2698744488188976
11
0.8151953149606299
21
0.267567716535433
0
LINE
8
BLACK
6
CONTINUOUS
10
0.8151953149606299
20
0.267567716535433
11
0.818788188976378
21
0.2639748425196851
0
LINE
8
BLACK
6
CONTINUOUS
10
0.818788188976378
20
0.2639748425196851
11
0.8210949212598425
21
0.2594476377952756
0
LINE
8
BLACK
6
CONTINUOUS
10
0.8210949212598425
20
0.2594476377952756
11
0.8218897637795275
21
0.2544291338582677
0
LINE
8
BLACK
6
CONTINUOUS
10
0.8218897637795275
20
0.2544291338582677
11
0.8218897637795275
21
0.2376968503937008
0
LINE
8
BLACK
6
CONTINUOUS
10
0.8218897637795275
20
0.2376968503937008
11
0.8210949212598425
21
0.2326783464566929
0
LINE
8
BLACK
6
CONTINUOUS
10
0.8210949212598425
20
0.2326783464566929
11
0.818788188976378
21
0.2281511417322835
0
LINE
8
BLACK
6
CONTINUOUS
10
0.818788188976378
20
0.2281511417322835
11
0.8151953149606299
21
0.2245582677165354
0
LINE
8
BLACK
6
CONTINUOUS
10
0.8151953149606299
20
0.2245582677165354
11
0.8106681102362204
21
0.2222515354330709
0
LINE
8
BLACK
6
CONTINUOUS
10
0.8106681102362204
20
0.2222515354330709
11
0.8056496062992126
21
0.2214566929133858
0
LINE
8
BLACK
6
CONTINUOUS
10
0.8056496062992126
20
0.2214566929133858
11
0.8106681102362204
21
0.2206618503937008
0
LINE
8
BLACK
6
CONTINUOUS
10
1.1374397637795275
20
0.2206618503937008
11
1.1419669685039371
21
0.2183551181102362
0
LINE
8
BLACK
6
CONTINUOUS
10
1.1419669685039371
20
0.2183551181102362
11
1.1455598425196851
21
0.2147622440944882
0
LINE
8
BLACK
6
CONTINUOUS
10
1.1455598425196851
20
0.2147622440944882
11
1.1478665748031496
21
0.2102350393700787
0
LINE
8
BLACK
6
CONTINUOUS
10
1.1478665748031496
20
0.2102350393700787
11
1.1486614173228347
21
0.2052165354330709
0
LINE
8
BLACK
6
CONTINUOUS
10
1.1486614173228347
20
0.2052165354330709
11
1.1486614173228347
21
0.1884842519685039
0
LINE
8
BLACK
6
CONTINUOUS
10
1.1486614173228347
20
0.1884842519685039
11
1.1478665748031496
21
0.1834657480314961
0
LINE
8
BLACK
6
CONTINUOUS
10
1.1478665748031496
20
0.1834657480314961
11
1.1455598425196851
21
0.1789385433070866
0
LINE
8
BLACK
6
CONTINUOUS
10
1.1455598425196851
20
0.1789385433070866
11
1.1419669685039371
21
0.1753456692913386
0
LINE
8
BLACK
6
CONTINUOUS
10
1.1419669685039371
20
0.1753456692913386
11
1.1374397637795275
21
0.173038937007874
0
LINE
8
BLACK
6
CONTINUOUS
10
1.1374397637795275
20
0.173038937007874
11
1.1324212598425196
21
0.172244094488189
0
LINE
8
BLACK
6
CONTINUOUS
10
1.1324212598425196
20
0.172244094488189
11
1.0743503937007874
21
0.172244094488189
0
LINE
8
BLACK
6
CONTINUOUS
10
1.0743503937007874
20
0.172244094488189
11
1.0693318897637796
21
0.173038937007874
0
LINE
8
BLACK
6
CONTINUOUS
10
1.0693318897637796
20
0.173038937007874
11
1.06480468503937
21
0.1753456692913386
0
LINE
8
BLACK
6
CONTINUOUS
10
1.06480468503937
20
0.1753456692913386
11
1.0612118110236219
21
0.1789385433070866
0
LINE
8
BLACK
6
CONTINUOUS
10
1.0612118110236219
20
0.1789385433070866
11
1.0589050787401575
21
0.1834657480314961
0
LINE
8
BLACK
6
CONTINUOUS
10
1.0589050787401575
20
0.1834657480314961
11
1.0581102362204724
21
0.1884842519685039
0
LINE
8
BLACK
6
CONTINUOUS
10
1.0581102362204724
20
0.1884842519685039
11
1.0581102362204724
21
0.2052165354330709
0
LINE
8
BLACK
6
CONTINUOUS
10
1.0581102362204724
20
0.2052165354330709
11
1.0589050787401575
21
0.2102350393700787
0
LINE
8
BLACK
6
CONTINUOUS
10
1.0589050787401575
20
0.2102350393700787
11
1.0612118110236219
21
0.2147622440944882
0
LINE
8
BLACK
6
CONTINUOUS
10
1.0612118110236219
20
0.2147622440944882
11
1.06480468503937
21
0.2183551181102362
0
LINE
8
BLACK
6
CONTINUOUS
10
1.06480468503937
20
0.2183551181102362
11
1.0693318897637796
21
0.2206618503937008
0
LINE
8
BLACK
6
CONTINUOUS
10
1.0693318897637796
20
0.2206618503937008
11
1.0743503937007874
21
0.2214566929133858
0
LINE
8
BLACK
6
CONTINUOUS
10
1.0743503937007874
20
0.2214566929133858
11
1.0693318897637796
21
0.2222515354330709
0
LINE
8
BLACK
6
CONTINUOUS
10
1.0693318897637796
20
0.2222515354330709
11
1.06480468503937
21
0.2245582677165354
0
LINE
8
BLACK
6
CONTINUOUS
10
1.06480468503937
20
0.2245582677165354
11
1.0612118110236219
21
0.2281511417322835
0
LINE
8
BLACK
6
CONTINUOUS
10
1.0612118110236219
20
0.2281511417322835
11
1.0589050787401575
21
0.2326783464566929
0
LINE
8
BLACK
6
CONTINUOUS
10
1.0589050787401575
20
0.2326783464566929
11
1.0581102362204724
21
0.2376968503937008
0
LINE
8
BLACK
6
CONTINUOUS
10
1.0581102362204724
20
0.2376968503937008
11
1.0581102362204724
21
0.2544291338582677
0
LINE
8
BLACK
6
CONTINUOUS
10
1.0581102362204724
20
0.2544291338582677
11
1.0589050787401575
21
0.2594476377952756
0
LINE
8
BLACK
6
CONTINUOUS
10
1.0589050787401575
20
0.2594476377952756
11
1.0612118110236219
21
0.2639748425196851
0
LINE
8
BLACK
6
CONTINUOUS
10
1.0612118110236219
20
0.2639748425196851
11
1.06480468503937
21
0.267567716535433
0
LINE
8
BLACK
6
CONTINUOUS
10
1.06480468503937
20
0.267567716535433
11
1.0693318897637796
21
0.2698744488188976
0
LINE
8
BLACK
6
CONTINUOUS
10
1.0693318897637796
20
0.2698744488188976
11
1.0743503937007874
21
0.2706692913385827
0
LINE
8
BLACK
6
CONTINUOUS
10
1.0743503937007874
20
0.2706692913385827
11
1.0693318897637796
21
0.2714641338582677
0
LINE
8
BLACK
6
CONTINUOUS
10
1.0693318897637796
20
0.2714641338582677
11
1.06480468503937
21
0.2737708661417323
0
LINE
8
BLACK
6
CONTINUOUS
10
1.06480468503937
20
0.2737708661417323
11
1.0612118110236219
21
0.2773637401574803
0
LINE
8
BLACK
6
CONTINUOUS
10
1.0612118110236219
20
0.2773637401574803
11
1.0589050787401575
21
0.2818909448818898
0
LINE
8
BLACK
6
CONTINUOUS
10
1.0589050787401575
20
0.2818909448818898
11
1.0581102362204724
21
0.2869094488188976
0
LINE
8
BLACK
6
CONTINUOUS
10
1.0581102362204724
20
0.2869094488188976
11
1.0581102362204724
21
0.3036417322834646
0
LINE
8
BLACK
6
CONTINUOUS
10
1.0581102362204724
20
0.3036417322834646
11
1.0589050787401575
21
0.3086602362204725
0
LINE
8
BLACK
6
CONTINUOUS
10
1.0589050787401575
20
0.3086602362204725
11
1.0612118110236219
21
0.3131874409448819
0
LINE
8
BLACK
6
CONTINUOUS
10
1.0612118110236219
20
0.3131874409448819
11
1.06480468503937
21
0.3167803149606299
0
LINE
8
BLACK
6
CONTINUOUS
10
1.06480468503937
20
0.3167803149606299
11
1.0693318897637796
21
0.3190870472440945
0
LINE
8
BLACK
6
CONTINUOUS
10
1.0693318897637796
20
0.3190870472440945
11
1.0743503937007874
21
0.3198818897637795
0
LINE
8
BLACK
6
CONTINUOUS
10
1.0743503937007874
20
0.3198818897637795
11
1.0693318897637796
21
0.3206767322834645
0
LINE
8
BLACK
6
CONTINUOUS
10
1.0693318897637796
20
0.3206767322834645
11
1.06480468503937
21
0.3229834645669291
0
LINE
8
BLACK
6
CONTINUOUS
10
1.06480468503937
20
0.3229834645669291
11
1.0612118110236219
21
0.3265763385826772
0
LINE
8
BLACK
6
CONTINUOUS
10
1.0612118110236219
20
0.3265763385826772
11
1.0589050787401575
21
0.3311035433070866
0
LINE
8
BLACK
6
CONTINUOUS
10
1.0589050787401575
20
0.3311035433070866
11
1.0581102362204724
21
0.3361220472440945
0
LINE
8
BLACK
6
CONTINUOUS
10
1.0581102362204724
20
0.3361220472440945
11
1.0581102362204724
21
0.3528543307086614
0
LINE
8
BLACK
6
CONTINUOUS
10
1.0581102362204724
20
0.3528543307086614
11
1.0589050787401575
21
0.3578728346456693
0
LINE
8
BLACK
6
CONTINUOUS
10
1.0589050787401575
20
0.3578728346456693
11
1.0612118110236219
21
0.3624000393700788
0
LINE
8
BLACK
6
CONTINUOUS
10
1.0612118110236219
20
0.3624000393700788
11
1.06480468503937
21
0.3659929133858268
0
LINE
8
BLACK
6
CONTINUOUS
10
1.06480468503937
20
0.3659929133858268
11
1.0693318897637796
21
0.3682996456692914
0
LINE
8
BLACK
6
CONTINUOUS
10
1.0693318897637796
20
0.3682996456692914
11
1.0743503937007874
21
0.3690944881889764
0
LINE
8
BLACK
6
CONTINUOUS
10
1.0743503937007874
20
0.3690944881889764
11
1.0693318897637796
21
0.3698893307086614
0
LINE
8
BLACK
6
CONTINUOUS
10
1.0693318897637796
20
0.3698893307086614
11
1.06480468503937
21
0.372196062992126
0
LINE
8
BLACK
6
CONTINUOUS
10
1.06480468503937
20
0.372196062992126
11
1.0612118110236219
21
0.375788937007874
0
LINE
8
BLACK
6
CONTINUOUS
10
1.0612118110236219
20
0.375788937007874
11
1.0589050787401575
21
0.3803161417322835
0
LINE
8
BLACK
6
CONTINUOUS
10
1.0589050787401575
20
0.3803161417322835
11
1.0581102362204724
21
0.3853346456692913
0
LINE
8
BLACK
6
CONTINUOUS
10
1.0581102362204724
20
0.3853346456692913
11
1.0581102362204724
21
0.4020669291338583
0
LINE
8
BLACK
6
CONTINUOUS
10
1.0581102362204724
20
0.4020669291338583
11
1.0589050787401575
21
0.4070854330708661
0
LINE
8
BLACK
6
CONTINUOUS
10
1.0589050787401575
20
0.4070854330708661
11
1.0612118110236219
21
0.4116126377952756
0
LINE
8
BLACK
6
CONTINUOUS
10
1.0612118110236219
20
0.4116126377952756
11
1.06480468503937
21
0.4152055118110236
0
LINE
8
BLACK
6
CONTINUOUS
10
1.06480468503937
20
0.4152055118110236
11
1.0693318897637796
21
0.4175122440944882
0
LINE
8
BLACK
6
CONTINUOUS
10
1.0693318897637796
20
0.4175122440944882
11
1.0743503937007874
21
0.4183070866141732
0
LINE
8
BLACK
6
CONTINUOUS
10
1.0743503937007874
20
0.4183070866141732
11
1.1324212598425196
21
0.4183070866141732
0
LINE
8
BLACK
6
CONTINUOUS
10
1.1324212598425196
20
0.4183070866141732
11
1.1374397637795275
21
0.4175122440944882
0
LINE
8
BLACK
6
CONTINUOUS
10
1.1374397637795275
20
0.4175122440944882
11
1.1419669685039371
21
0.4152055118110236
0
LINE
8
BLACK
6
CONTINUOUS
10
1.1419669685039371
20
0.4152055118110236
11
1.1455598425196851
21
0.4116126377952756
0
LINE
8
BLACK
6
CONTINUOUS
10
1.1455598425196851
20
0.4116126377952756
11
1.1478665748031496
21
0.4070854330708661
0
LINE
8
BLACK
6
CONTINUOUS
10
1.1478665748031496
20
0.4070854330708661
11
1.1486614173228347
21
0.4020669291338583
0
LINE
8
BLACK
6
CONTINUOUS
10
1.1486614173228347
20
0.4020669291338583
11
1.1486614173228347
21
0.3853346456692913
0
LINE
8
BLACK
6
CONTINUOUS
10
1.1486614173228347
20
0.3853346456692913
11
1.1478665748031496
21
0.3803161417322835
0
LINE
8
BLACK
6
CONTINUOUS
10
1.1478665748031496
20
0.3803161417322835
11
1.1455598425196851
21
0.375788937007874
0
LINE
8
BLACK
6
CONTINUOUS
10
1.1455598425196851
20
0.375788937007874
11
1.1419669685039371
21
0.372196062992126
0
LINE
8
BLACK
6
CONTINUOUS
10
1.1419669685039371
20
0.372196062992126
11
1.1374397637795275
21
0.3698893307086614
0
LINE
8
BLACK
6
CONTINUOUS
10
1.1374397637795275
20
0.3698893307086614
11
1.1324212598425196
21
0.3690944881889764
0
LINE
8
BLACK
6
CONTINUOUS
10
1.1324212598425196
20
0.3690944881889764
11
1.1374397637795275
21
0.3682996456692914
0
LINE
8
BLACK
6
CONTINUOUS
10
1.1374397637795275
20
0.3682996456692914
11
1.1419669685039371
21
0.3659929133858268
0
LINE
8
BLACK
6
CONTINUOUS
10
1.1419669685039371
20
0.3659929133858268
11
1.1455598425196851
21
0.3624000393700788
0
LINE
8
BLACK
6
CONTINUOUS
10
1.1455598425196851
20
0.3624000393700788
11
1.1478665748031496
21
0.3578728346456693
0
LINE
8
BLACK
6
CONTINUOUS
10
1.1478665748031496
20
0.3578728346456693
11
1.1486614173228347
21
0.3528543307086614
0
LINE
8
BLACK
6
CONTINUOUS
10
1.1486614173228347
20
0.3528543307086614
11
1.1486614173228347
21
0.3361220472440945
0
LINE
8
BLACK
6
CONTINUOUS
10
1.1486614173228347
20
0.3361220472440945
11
1.1478665748031496
21
0.3311035433070866
0
LINE
8
BLACK
6
CONTINUOUS
10
1.1478665748031496
20
0.3311035433070866
11
1.1455598425196851
21
0.3265763385826772
0
LINE
8
BLACK
6
CONTINUOUS
10
1.1455598425196851
20
0.3265763385826772
11
1.1419669685039371
21
0.3229834645669291
0
LINE
8
BLACK
6
CONTINUOUS
10
1.1419669685039371
20
0.3229834645669291
11
1.1374397637795275
21
0.3206767322834645
0
LINE
8
BLACK
6
CONTINUOUS
10
1.1374397637795275
20
0.3206767322834645
11
1.1324212598425196
21
0.3198818897637795
0
LINE
8
BLACK
6
CONTINUOUS
10
1.1324212598425196
20
0.3198818897637795
11
1.1374397637795275
21
0.3190870472440945
0
LINE
8
BLACK
6
CONTINUOUS
10
1.1374397637795275
20
0.3190870472440945
11
1.1419669685039371
21
0.3167803149606299
0
LINE
8
BLACK
6
CONTINUOUS
10
1.1419669685039371
20
0.3167803149606299
11
1.1455598425196851
21
0.3131874409448819
0
LINE
8
BLACK
6
CONTINUOUS
10
1.1455598425196851
20
0.3131874409448819
11
1.1478665748031496
21
0.3086602362204725
0
LINE
8
BLACK
6
CONTINUOUS
10
1.1478665748031496
20
0.3086602362204725
11
1.1486614173228347
21
0.3036417322834646
0
LINE
8
BLACK
6
CONTINUOUS
10
1.1486614173228347
20
0.3036417322834646
11
1.1486614173228347
21
0.2869094488188976
0
LINE
8
BLACK
6
CONTINUOUS
10
1.1486614173228347
20
0.2869094488188976
11
1.1478665748031496
21
0.2818909448818898
0
LINE
8
BLACK
6
CONTINUOUS
10
1.1478665748031496
20
0.2818909448818898
11
1.1455598425196851
21
0.2773637401574803
0
LINE
8
BLACK
6
CONTINUOUS
10
1.1455598425196851
20
0.2773637401574803
11
1.1419669685039371
21
0.2737708661417323
0
LINE
8
BLACK
6
CONTINUOUS
10
1.1419669685039371
20
0.2737708661417323
11
1.1374397637795275
21
0.2714641338582677
0
LINE
8
BLACK
6
CONTINUOUS
10
1.1374397637795275
20
0.2714641338582677
11
1.1324212598425196
21
0.2706692913385827
0
LINE
8
BLACK
6
CONTINUOUS
10
1.1324212598425196
20
0.2706692913385827
11
1.1374397637795275
21
0.2698744488188976
0
LINE
8
BLACK
6
CONTINUOUS
10
1.1374397637795275
20
0.2698744488188976
11
1.1419669685039371
21
0.267567716535433
0
LINE
8
BLACK
6
CONTINUOUS
10
1.1419669685039371
20
0.267567716535433
11
1.1455598425196851
21
0.2639748425196851
0
LINE
8
BLACK
6
CONTINUOUS
10
1.1455598425196851
20
0.2639748425196851
11
1.1478665748031496
21
0.2594476377952756
0
LINE
8
BLACK
6
CONTINUOUS
10
1.1478665748031496
20
0.2594476377952756
11
1.1486614173228347
21
0.2544291338582677
0
LINE
8
BLACK
6
CONTINUOUS
10
1.1486614173228347
20
0.2544291338582677
11
1.1486614173228347
21
0.2376968503937008
0
LINE
8
BLACK
6
CONTINUOUS
10
1.1486614173228347
20
0.2376968503937008
11
1.1478665748031496
21
0.2326783464566929
0
LINE
8
BLACK
6
CONTINUOUS
10
1.1478665748031496
20
0.2326783464566929
11
1.1455598425196851
21
0.2281511417322835
0
LINE
8
BLACK
6
CONTINUOUS
10
1.1455598425196851
20
0.2281511417322835
11
1.1419669685039371
21
0.2245582677165354
0
LINE
8
BLACK
6
CONTINUOUS
10
1.1419669685039371
20
0.2245582677165354
11
1.1374397637795275
21
0.2222515354330709
0
LINE
8
BLACK
6
CONTINUOUS
10
1.1374397637795275
20
0.2222515354330709
11
1.1324212598425196
21
0.2214566929133858
0
LINE
8
BLACK
6
CONTINUOUS
10
1.1324212598425196
20
0.2214566929133858
11
1.1374397637795275
21
0.2206618503937008
0
LINE
8
BLACK
6
CONTINUOUS
10
1.0375014566929133
20
0.3970384251968504
11
1.0400559448818898
21
0.3953315354330709
0
LINE
8
BLACK
6
CONTINUOUS
10
1.0400559448818898
20
0.3953315354330709
11
1.0417628346456693
21
0.3927770472440945
0
LINE
8
BLACK
6
CONTINUOUS
10
1.0417628346456693
20
0.3927770472440945
11
1.0423622047244094
21
0.389763779527559
0
LINE
8
BLACK
6
CONTINUOUS
10
1.0423622047244094
20
0.389763779527559
11
1.0423622047244094
21
0.2007874015748032
0
LINE
8
BLACK
6
CONTINUOUS
10
1.0423622047244094
20
0.2007874015748032
11
1.0417628346456693
21
0.1977741338582677
0
LINE
8
BLACK
6
CONTINUOUS
10
1.0417628346456693
20
0.1977741338582677
11
1.0400559448818898
21
0.1952196456692913
0
LINE
8
BLACK
6
CONTINUOUS
10
1.0400559448818898
20
0.1952196456692913
11
1.0375014566929133
21
0.1935127559055118
0
LINE
8
BLACK
6
CONTINUOUS
10
1.0375014566929133
20
0.1935127559055118
11
1.034488188976378
21
0.1929133858267716
0
LINE
8
BLACK
6
CONTINUOUS
10
1.034488188976378
20
0.1929133858267716
11
0.8455118110236221
21
0.1929133858267716
0
LINE
8
BLACK
6
CONTINUOUS
10
0.8455118110236221
20
0.1929133858267716
11
0.8424985433070866
21
0.1935127559055118
0
LINE
8
BLACK
6
CONTINUOUS
10
0.8424985433070866
20
0.1935127559055118
11
0.8399440551181102
21
0.1952196456692913
0
LINE
8
BLACK
6
CONTINUOUS
10
0.8399440551181102
20
0.1952196456692913
11
0.8382371653543307
21
0.1977741338582677
0
LINE
8
BLACK
6
CONTINUOUS
10
0.8382371653543307
20
0.1977741338582677
11
0.8376377952755906
21
0.2007874015748032
0
LINE
8
BLACK
6
CONTINUOUS
10
0.8376377952755906
20
0.2007874015748032
11
0.8376377952755906
21
0.389763779527559
0
LINE
8
BLACK
6
CONTINUOUS
10
0.8376377952755906
20
0.389763779527559
11
0.8382371653543307
21
0.3927770472440945
0
LINE
8
BLACK
6
CONTINUOUS
10
0.8382371653543307
20
0.3927770472440945
11
0.8399440551181102
21
0.3953315354330709
0
LINE
8
BLACK
6
CONTINUOUS
10
0.8399440551181102
20
0.3953315354330709
11
0.8424985433070866
21
0.3970384251968504
0
LINE
8
BLACK
6
CONTINUOUS
10
0.8424985433070866
20
0.3970384251968504
11
0.8455118110236221
21
0.3976377952755906
0
LINE
8
BLACK
6
CONTINUOUS
10
0.8455118110236221
20
0.3976377952755906
11
1.034488188976378
21
0.3976377952755906
0
LINE
8
BLACK
6
CONTINUOUS
10
1.034488188976378
20
0.3976377952755906
11
1.0375014566929133
21
0.3970384251968504
0
LINE
8
BLACK
6
CONTINUOUS
10
0.6751831102362205
20
0.2452954724409449
11
0.679778937007874
21
0.2429537795275591
0
LINE
8
BLACK
6
CONTINUOUS
10
0.679778937007874
20
0.2429537795275591
11
0.6834262204724409
21
0.2393064960629921
0
LINE
8
BLACK
6
CONTINUOUS
10
0.6834262204724409
20
0.2393064960629921
11
0.6857679133858268
21
0.2347106692913386
0
LINE
8
BLACK
6
CONTINUOUS
10
0.6857679133858268
20
0.2347106692913386
11
0.6865748031496063
21
0.2296161417322835
0
LINE
8
BLACK
6
CONTINUOUS
10
0.6865748031496063
20
0.2296161417322835
11
0.6865748031496063
21
0.2123917322834646
0
LINE
8
BLACK
6
CONTINUOUS
10
0.6865748031496063
20
0.2123917322834646
11
0.6857679133858268
21
0.2072972047244094
0
LINE
8
BLACK
6
CONTINUOUS
10
0.6857679133858268
20
0.2072972047244094
11
0.6834262204724409
21
0.2027013779527559
0
LINE
8
BLACK
6
CONTINUOUS
10
0.6834262204724409
20
0.2027013779527559
11
0.679778937007874
21
0.199054094488189
0
LINE
8
BLACK
6
CONTINUOUS
10
0.679778937007874
20
0.199054094488189
11
0.6751831102362205
21
0.1967124015748032
0
LINE
8
BLACK
6
CONTINUOUS
10
0.6751831102362205
20
0.1967124015748032
11
0.6700885826771653
21
0.1959055118110236
0
LINE
8
BLACK
6
CONTINUOUS
10
0.6700885826771653
20
0.1959055118110236
11
0.6499114173228346
21
0.1959055118110236
0
LINE
8
BLACK
6
CONTINUOUS
10
0.6499114173228346
20
0.1959055118110236
11
0.6448168897637795
21
0.1967124015748032
0
LINE
8
BLACK
6
CONTINUOUS
10
0.6448168897637795
20
0.1967124015748032
11
0.640221062992126
21
0.199054094488189
0
LINE
8
BLACK
6
CONTINUOUS
10
0.640221062992126
20
0.199054094488189
11
0.636573779527559
21
0.2027013779527559
0
LINE
8
BLACK
6
CONTINUOUS
10
0.636573779527559
20
0.2027013779527559
11
0.6342320866141732
21
0.2072972047244094
0
LINE
8
BLACK
6
CONTINUOUS
10
0.6342320866141732
20
0.2072972047244094
11
0.6334251968503937
21
0.2123917322834646
0
LINE
8
BLACK
6
CONTINUOUS
10
0.6334251968503937
20
0.2123917322834646
11
0.6334251968503937
21
0.2296161417322835
0
LINE
8
BLACK
6
CONTINUOUS
10
0.6334251968503937
20
0.2296161417322835
11
0.6342320866141732
21
0.2347106692913386
0
LINE
8
BLACK
6
CONTINUOUS
10
0.6342320866141732
20
0.2347106692913386
11
0.636573779527559
21
0.2393064960629921
0
LINE
8
BLACK
6
CONTINUOUS
10
0.636573779527559
20
0.2393064960629921
11
0.640221062992126
21
0.2429537795275591
0
LINE
8
BLACK
6
CONTINUOUS
10
0.640221062992126
20
0.2429537795275591
11
0.6448168897637795
21
0.2452954724409449
0
LINE
8
BLACK
6
CONTINUOUS
10
0.6448168897637795
20
0.2452954724409449
11
0.6499114173228346
21
0.2461023622047244
0
LINE
8
BLACK
6
CONTINUOUS
10
0.6499114173228346
20
0.2461023622047244
11
0.6700885826771653
21
0.2461023622047244
0
LINE
8
BLACK
6
CONTINUOUS
10
0.6700885826771653
20
0.2461023622047244
11
0.6751831102362205
21
0.2452954724409449
0
LINE
8
BLACK
6
CONTINUOUS
10
0.2223255118110236
20
0.2405688976377953
11
0.2264006692913386
21
0.2385766535433071
0
LINE
8
BLACK
6
CONTINUOUS
10
0.2264006692913386
20
0.2385766535433071
11
0.2296081496062992
21
0.2353691732283464
0
LINE
8
BLACK
6
CONTINUOUS
10
0.2296081496062992
20
0.2353691732283464
11
0.2316003937007874
21
0.2312940157480315
0
LINE
8
BLACK
6
CONTINUOUS
10
0.2316003937007874
20
0.2312940157480315
11
0.2321732283464567
21
0.2273622047244094
0
LINE
8
BLACK
6
CONTINUOUS
10
0.2321732283464567
20
0.2273622047244094
11
0.2321732283464567
21
0.2155511811023622
0
LINE
8
BLACK
6
CONTINUOUS
10
0.2321732283464567
20
0.2155511811023622
11
0.2316003937007874
21
0.2116193700787402
0
LINE
8
BLACK
6
CONTINUOUS
10
0.2316003937007874
20
0.2116193700787402
11
0.2296081496062992
21
0.2075442125984252
0
LINE
8
BLACK
6
CONTINUOUS
10
0.2296081496062992
20
0.2075442125984252
11
0.2264006692913386
21
0.2043367322834646
0
LINE
8
BLACK
6
CONTINUOUS
10
0.2264006692913386
20
0.2043367322834646
11
0.2223255118110236
21
0.2023444881889764
0
LINE
8
BLACK
6
CONTINUOUS
10
0.2223255118110236
20
0.2023444881889764
11
0.2183937007874016
21
0.2017716535433071
0
LINE
8
BLACK
6
CONTINUOUS
10
0.2183937007874016
20
0.2017716535433071
11
0.1632755905511811
21
0.2017716535433071
0
LINE
8
BLACK
6
CONTINUOUS
10
0.1632755905511811
20
0.2017716535433071
11
0.159343779527559
21
0.2023444881889764
0
LINE
8
BLACK
6
CONTINUOUS
10
0.159343779527559
20
0.2023444881889764
11
0.1552686220472441
21
0.2043367322834646
0
LINE
8
BLACK
6
CONTINUOUS
10
0.1552686220472441
20
0.2043367322834646
11
0.1520611417322835
21
0.2075442125984252
0
LINE
8
BLACK
6
CONTINUOUS
10
0.1520611417322835
20
0.2075442125984252
11
0.1500688976377953
21
0.2116193700787402
0
LINE
8
BLACK
6
CONTINUOUS
10
0.1500688976377953
20
0.2116193700787402
11
0.149496062992126
21
0.2155511811023622
0
LINE
8
BLACK
6
CONTINUOUS
10
0.149496062992126
20
0.2155511811023622
11
0.149496062992126
21
0.2273622047244094
0
LINE
8
BLACK
6
CONTINUOUS
10
0.149496062992126
20
0.2273622047244094
11
0.1500688976377953
21
0.2312940157480315
0
LINE
8
BLACK
6
CONTINUOUS
10
0.1500688976377953
20
0.2312940157480315
11
0.1520611417322835
21
0.2353691732283464
0
LINE
8
BLACK
6
CONTINUOUS
10
0.1520611417322835
20
0.2353691732283464
11
0.1552686220472441
21
0.2385766535433071
0
LINE
8
BLACK
6
CONTINUOUS
10
0.1552686220472441
20
0.2385766535433071
11
0.159343779527559
21
0.2405688976377953
0
LINE
8
BLACK
6
CONTINUOUS
10
0.159343779527559
20
0.2405688976377953
11
0.1632755905511811
21
0.2411417322834646
0
LINE
8
BLACK
6
CONTINUOUS
10
0.1632755905511811
20
0.2411417322834646
11
0.2183937007874016
21
0.2411417322834646
0
LINE
8
BLACK
6
CONTINUOUS
10
0.2183937007874016
20
0.2411417322834646
11
0.2223255118110236
21
0.2405688976377953
0
LINE
8
BLACK
6
CONTINUOUS
10
0.4801831102362205
20
0.2662994094488189
11
0.484778937007874
21
0.263957716535433
0
LINE
8
BLACK
6
CONTINUOUS
10
0.484778937007874
20
0.263957716535433
11
0.4884262204724409
21
0.2603104330708662
0
LINE
8
BLACK
6
CONTINUOUS
10
0.4884262204724409
20
0.2603104330708662
11
0.4907679133858268
21
0.2557146062992126
0
LINE
8
BLACK
6
CONTINUOUS
10
0.4907679133858268
20
0.2557146062992126
11
0.4915748031496063
21
0.2506200787401575
0
LINE
8
BLACK
6
CONTINUOUS
10
0.4915748031496063
20
0.2506200787401575
11
0.4915748031496063
21
0.2333956692913386
0
LINE
8
BLACK
6
CONTINUOUS
10
0.4915748031496063
20
0.2333956692913386
11
0.4907679133858268
21
0.2283011417322835
0
LINE
8
BLACK
6
CONTINUOUS
10
0.4907679133858268
20
0.2283011417322835
11
0.4884262204724409
21
0.2237053149606299
0
LINE
8
BLACK
6
CONTINUOUS
10
0.4884262204724409
20
0.2237053149606299
11
0.484778937007874
21
0.220058031496063
0
LINE
8
BLACK
6
CONTINUOUS
10
0.484778937007874
20
0.220058031496063
11
0.4801831102362205
21
0.2177163385826772
0
LINE
8
BLACK
6
CONTINUOUS
10
0.4801831102362205
20
0.2177163385826772
11
0.4750885826771654
21
0.2169094488188976
0
LINE
8
BLACK
6
CONTINUOUS
10
0.4750885826771654
20
0.2169094488188976
11
0.4549114173228346
21
0.2169094488188976
0
LINE
8
BLACK
6
CONTINUOUS
10
0.4549114173228346
20
0.2169094488188976
11
0.4498168897637795
21
0.2177163385826772
0
LINE
8
BLACK
6
CONTINUOUS
10
0.4498168897637795
20
0.2177163385826772
11
0.445221062992126
21
0.220058031496063
0
LINE
8
BLACK
6
CONTINUOUS
10
0.445221062992126
20
0.220058031496063
11
0.4415737795275591
21
0.2237053149606299
0
LINE
8
BLACK
6
CONTINUOUS
10
0.4415737795275591
20
0.2237053149606299
11
0.4392320866141732
21
0.2283011417322835
0
LINE
8
BLACK
6
CONTINUOUS
10
0.4392320866141732
20
0.2283011417322835
11
0.4384251968503937
21
0.2333956692913386
0
LINE
8
BLACK
6
CONTINUOUS
10
0.4384251968503937
20
0.2333956692913386
11
0.4384251968503937
21
0.2506200787401575
0
LINE
8
BLACK
6
CONTINUOUS
10
0.4384251968503937
20
0.2506200787401575
11
0.4392320866141732
21
0.2557146062992126
0
LINE
8
BLACK
6
CONTINUOUS
10
0.4392320866141732
20
0.2557146062992126
11
0.4415737795275591
21
0.2603104330708662
0
LINE
8
BLACK
6
CONTINUOUS
10
0.4415737795275591
20
0.2603104330708662
11
0.445221062992126
21
0.263957716535433
0
LINE
8
BLACK
6
CONTINUOUS
10
0.445221062992126
20
0.263957716535433
11
0.4498168897637795
21
0.2662994094488189
0
LINE
8
BLACK
6
CONTINUOUS
10
0.4498168897637795
20
0.2662994094488189
11
0.4549114173228346
21
0.2671062992125984
0
LINE
8
BLACK
6
CONTINUOUS
10
0.4549114173228346
20
0.2671062992125984
11
0.4750885826771654
21
0.2671062992125984
0
LINE
8
BLACK
6
CONTINUOUS
10
0.4750885826771654
20
0.2671062992125984
11
0.4801831102362205
21
0.2662994094488189
0
LINE
8
BLACK
6
CONTINUOUS
10
0.2223255118110236
20
0.2897814960629921
11
0.2264006692913386
21
0.2877892519685039
0
LINE
8
BLACK
6
CONTINUOUS
10
0.2264006692913386
20
0.2877892519685039
11
0.2296081496062992
21
0.2845817716535433
0
LINE
8
BLACK
6
CONTINUOUS
10
0.2296081496062992
20
0.2845817716535433
11
0.2316003937007874
21
0.2805066141732284
0
LINE
8
BLACK
6
CONTINUOUS
10
0.2316003937007874
20
0.2805066141732284
11
0.2321732283464567
21
0.2765748031496063
0
LINE
8
BLACK
6
CONTINUOUS
10
0.2321732283464567
20
0.2765748031496063
11
0.2321732283464567
21
0.264763779527559
0
LINE
8
BLACK
6
CONTINUOUS
10
0.2321732283464567
20
0.264763779527559
11
0.2316003937007874
21
0.260831968503937
0
LINE
8
BLACK
6
CONTINUOUS
10
0.2316003937007874
20
0.260831968503937
11
0.2296081496062992
21
0.256756811023622
0
LINE
8
BLACK
6
CONTINUOUS
10
0.2296081496062992
20
0.256756811023622
11
0.2264006692913386
21
0.2535493307086614
0
LINE
8
BLACK
6
CONTINUOUS
10
0.2264006692913386
20
0.2535493307086614
11
0.2223255118110236
21
0.2515570866141732
0
LINE
8
BLACK
6
CONTINUOUS
10
0.2223255118110236
20
0.2515570866141732
11
0.2183937007874016
21
0.2509842519685039
0
LINE
8
BLACK
6
CONTINUOUS
10
0.2183937007874016
20
0.2509842519685039
11
0.1632755905511811
21
0.2509842519685039
0
LINE
8
BLACK
6
CONTINUOUS
10
0.1632755905511811
20
0.2509842519685039
11
0.159343779527559
21
0.2515570866141732
0
LINE
8
BLACK
6
CONTINUOUS
10
0.159343779527559
20
0.2515570866141732
11
0.1552686220472441
21
0.2535493307086614
0
LINE
8
BLACK
6
CONTINUOUS
10
0.1552686220472441
20
0.2535493307086614
11
0.1520611417322835
21
0.256756811023622
0
LINE
8
BLACK
6
CONTINUOUS
10
0.1520611417322835
20
0.256756811023622
11
0.1500688976377953
21
0.260831968503937
0
LINE
8
BLACK
6
CONTINUOUS
10
0.1500688976377953
20
0.260831968503937
11
0.149496062992126
21
0.264763779527559
0
LINE
8
BLACK
6
CONTINUOUS
10
0.149496062992126
20
0.264763779527559
11
0.149496062992126
21
0.2765748031496063
0
LINE
8
BLACK
6
CONTINUOUS
10
0.149496062992126
20
0.2765748031496063
11
0.1500688976377953
21
0.2805066141732284
0
LINE
8
BLACK
6
CONTINUOUS
10
0.1500688976377953
20
0.2805066141732284
11
0.1520611417322835
21
0.2845817716535433
0
LINE
8
BLACK
6
CONTINUOUS
10
0.1520611417322835
20
0.2845817716535433
11
0.1552686220472441
21
0.2877892519685039
0
LINE
8
BLACK
6
CONTINUOUS
10
0.1552686220472441
20
0.2877892519685039
11
0.159343779527559
21
0.2897814960629921
0
LINE
8
BLACK
6
CONTINUOUS
10
0.159343779527559
20
0.2897814960629921
11
0.1632755905511811
21
0.2903543307086614
0
LINE
8
BLACK
6
CONTINUOUS
10
0.1632755905511811
20
0.2903543307086614
11
0.2183937007874016
21
0.2903543307086614
0
LINE
8
BLACK
6
CONTINUOUS
10
0.2183937007874016
20
0.2903543307086614
11
0.2223255118110236
21
0.2897814960629921
0
LINE
8
BLACK
6
CONTINUOUS
10
0.333406968503937
20
0.311447874015748
11
0.3359614566929134
21
0.3097409842519685
0
LINE
8
BLACK
6
CONTINUOUS
10
0.3359614566929134
20
0.3097409842519685
11
0.3376683464566929
21
0.3071864960629921
0
LINE
8
BLACK
6
CONTINUOUS
10
0.3376683464566929
20
0.3071864960629921
11
0.3382677165354331
21
0.3041732283464567
0
LINE
8
BLACK
6
CONTINUOUS
10
0.3382677165354331
20
0.3041732283464567
11
0.3382677165354331
21
0.2624409448818897
0
LINE
8
BLACK
6
CONTINUOUS
10
0.3382677165354331
20
0.2624409448818897
11
0.3376683464566929
21
0.2594276771653543
0
LINE
8
BLACK
6
CONTINUOUS
10
0.3376683464566929
20
0.2594276771653543
11
0.3359614566929134
21
0.256873188976378
0
LINE
8
BLACK
6
CONTINUOUS
10
0.3359614566929134
20
0.256873188976378
11
0.333406968503937
21
0.2551662992125984
0
LINE
8
BLACK
6
CONTINUOUS
10
0.333406968503937
20
0.2551662992125984
11
0.3303937007874015
21
0.2545669291338583
0
LINE
8
BLACK
6
CONTINUOUS
10
0.3303937007874015
20
0.2545669291338583
11
0.3048031496062992
21
0.2545669291338583
0
LINE
8
BLACK
6
CONTINUOUS
10
0.3048031496062992
20
0.2545669291338583
11
0.3017898818897638
21
0.2551662992125984
0
LINE
8
BLACK
6
CONTINUOUS
10
0.3017898818897638
20
0.2551662992125984
11
0.2992353937007874
21
0.256873188976378
0
LINE
8
BLACK
6
CONTINUOUS
10
0.2992353937007874
20
0.256873188976378
11
0.2975285039370079
21
0.2594276771653543
0
LINE
8
BLACK
6
CONTINUOUS
10
0.2975285039370079
20
0.2594276771653543
11
0.2969291338582677
21
0.2624409448818897
0
LINE
8
BLACK
6
CONTINUOUS
10
0.2969291338582677
20
0.2624409448818897
11
0.2969291338582677
21
0.3041732283464567
0
LINE
8
BLACK
6
CONTINUOUS
10
0.2969291338582677
20
0.3041732283464567
11
0.2975285039370079
21
0.3071864960629921
0
LINE
8
BLACK
6
CONTINUOUS
10
0.2975285039370079
20
0.3071864960629921
11
0.2992353937007874
21
0.3097409842519685
0
LINE
8
BLACK
6
CONTINUOUS
10
0.2992353937007874
20
0.3097409842519685
11
0.3017898818897638
21
0.311447874015748
0
LINE
8
BLACK
6
CONTINUOUS
10
0.3017898818897638
20
0.311447874015748
11
0.3048031496062992
21
0.3120472440944882
0
LINE
8
BLACK
6
CONTINUOUS
10
0.3048031496062992
20
0.3120472440944882
11
0.3303937007874015
21
0.3120472440944882
0
LINE
8
BLACK
6
CONTINUOUS
10
0.3303937007874015
20
0.3120472440944882
11
0.333406968503937
21
0.311447874015748
0
LINE
8
BLACK
6
CONTINUOUS
10
0.4082101181102362
20
0.311447874015748
11
0.4107646062992126
21
0.3097409842519685
0
LINE
8
BLACK
6
CONTINUOUS
10
0.4107646062992126
20
0.3097409842519685
11
0.4124714960629921
21
0.3071864960629921
0
LINE
8
BLACK
6
CONTINUOUS
10
0.4124714960629921
20
0.3071864960629921
11
0.4130708661417323
21
0.3041732283464567
0
LINE
8
BLACK
6
CONTINUOUS
10
0.4130708661417323
20
0.3041732283464567
11
0.4130708661417323
21
0.2624409448818897
0
LINE
8
BLACK
6
CONTINUOUS
10
0.4130708661417323
20
0.2624409448818897
11
0.4124714960629921
21
0.2594276771653543
0
LINE
8
BLACK
6
CONTINUOUS
10
0.4124714960629921
20
0.2594276771653543
11
0.4107646062992126
21
0.256873188976378
0
LINE
8
BLACK
6
CONTINUOUS
10
0.4107646062992126
20
0.256873188976378
11
0.4082101181102362
21
0.2551662992125984
0
LINE
8
BLACK
6
CONTINUOUS
10
0.4082101181102362
20
0.2551662992125984
11
0.4051968503937008
21
0.2545669291338583
0
LINE
8
BLACK
6
CONTINUOUS
10
0.4051968503937008
20
0.2545669291338583
11
0.3796062992125984
21
0.2545669291338583
0
LINE
8
BLACK
6
CONTINUOUS
10
0.3796062992125984
20
0.2545669291338583
11
0.376593031496063
21
0.2551662992125984
0
LINE
8
BLACK
6
CONTINUOUS
10
0.376593031496063
20
0.2551662992125984
11
0.3740385433070866
21
0.256873188976378
0
LINE
8
BLACK
6
CONTINUOUS
10
0.3740385433070866
20
0.256873188976378
11
0.3723316535433071
21
0.2594276771653543
0
LINE
8
BLACK
6
CONTINUOUS
10
0.3723316535433071
20
0.2594276771653543
11
0.3717322834645669
21
0.2624409448818897
0
LINE
8
BLACK
6
CONTINUOUS
10
0.3717322834645669
20
0.2624409448818897
11
0.3717322834645669
21
0.3041732283464567
0
LINE
8
BLACK
6
CONTINUOUS
10
0.3717322834645669
20
0.3041732283464567
11
0.3723316535433071
21
0.3071864960629921
0
LINE
8
BLACK
6
CONTINUOUS
10
0.3723316535433071
20
0.3071864960629921
11
0.3740385433070866
21
0.3097409842519685
0
LINE
8
BLACK
6
CONTINUOUS
10
0.3740385433070866
20
0.3097409842519685
11
0.376593031496063
21
0.311447874015748
0
LINE
8
BLACK
6
CONTINUOUS
10
0.376593031496063
20
0.311447874015748
11
0.3796062992125984
21
0.3120472440944882
0
LINE
8
BLACK
6
CONTINUOUS
10
0.3796062992125984
20
0.3120472440944882
11
0.4051968503937008
21
0.3120472440944882
0
LINE
8
BLACK
6
CONTINUOUS
10
0.4051968503937008
20
0.3120472440944882
11
0.4082101181102362
21
0.311447874015748
0
LINE
8
BLACK
6
CONTINUOUS
10
0.2223255118110236
20
0.338994094488189
11
0.2264006692913386
21
0.3370018503937008
0
LINE
8
BLACK
6
CONTINUOUS
10
0.2264006692913386
20
0.3370018503937008
11
0.2296081496062992
21
0.3337943700787401
0
LINE
8
BLACK
6
CONTINUOUS
10
0.2296081496062992
20
0.3337943700787401
11
0.2316003937007874
21
0.3297192125984252
0
LINE
8
BLACK
6
CONTINUOUS
10
0.2316003937007874
20
0.3297192125984252
11
0.2321732283464567
21
0.3257874015748031
0
LINE
8
BLACK
6
CONTINUOUS
10
0.2321732283464567
20
0.3257874015748031
11
0.2321732283464567
21
0.3139763779527559
0
LINE
8
BLACK
6
CONTINUOUS
10
0.2321732283464567
20
0.3139763779527559
11
0.2316003937007874
21
0.3100445669291338
0
LINE
8
BLACK
6
CONTINUOUS
10
0.2316003937007874
20
0.3100445669291338
11
0.2296081496062992
21
0.3059694094488189
0
LINE
8
BLACK
6
CONTINUOUS
10
0.2296081496062992
20
0.3059694094488189
11
0.2264006692913386
21
0.3027619291338582
0
LINE
8
BLACK
6
CONTINUOUS
10
0.2264006692913386
20
0.3027619291338582
11
0.2223255118110236
21
0.3007696850393701
0
LINE
8
BLACK
6
CONTINUOUS
10
0.2223255118110236
20
0.3007696850393701
11
0.2183937007874016
21
0.3001968503937008
0
LINE
8
BLACK
6
CONTINUOUS
10
0.2183937007874016
20
0.3001968503937008
11
0.1632755905511811
21
0.3001968503937008
0
LINE
8
BLACK
6
CONTINUOUS
10
0.1632755905511811
20
0.3001968503937008
11
0.159343779527559
21
0.3007696850393701
0
LINE
8
BLACK
6
CONTINUOUS
10
0.159343779527559
20
0.3007696850393701
11
0.1552686220472441
21
0.3027619291338582
0
LINE
8
BLACK
6
CONTINUOUS
10
0.1552686220472441
20
0.3027619291338582
11
0.1520611417322835
21
0.3059694094488189
0
LINE
8
BLACK
6
CONTINUOUS
10
0.1520611417322835
20
0.3059694094488189
11
0.1500688976377953
21
0.3100445669291338
0
LINE
8
BLACK
6
CONTINUOUS
10
0.1500688976377953
20
0.3100445669291338
11
0.149496062992126
21
0.3139763779527559
0
LINE
8
BLACK
6
CONTINUOUS
10
0.149496062992126
20
0.3139763779527559
11
0.149496062992126
21
0.3257874015748031
0
LINE
8
BLACK
6
CONTINUOUS
10
0.149496062992126
20
0.3257874015748031
11
0.1500688976377953
21
0.3297192125984252
0
LINE
8
BLACK
6
CONTINUOUS
10
0.1500688976377953
20
0.3297192125984252
11
0.1520611417322835
21
0.3337943700787401
0
LINE
8
BLACK
6
CONTINUOUS
10
0.1520611417322835
20
0.3337943700787401
11
0.1552686220472441
21
0.3370018503937008
0
LINE
8
BLACK
6
CONTINUOUS
10
0.1552686220472441
20
0.3370018503937008
11
0.159343779527559
21
0.338994094488189
0
LINE
8
BLACK
6
CONTINUOUS
10
0.159343779527559
20
0.338994094488189
11
0.1632755905511811
21
0.3395669291338583
0
LINE
8
BLACK
6
CONTINUOUS
10
0.1632755905511811
20
0.3395669291338583
11
0.2183937007874016
21
0.3395669291338583
0
LINE
8
BLACK
6
CONTINUOUS
10
0.2183937007874016
20
0.3395669291338583
11
0.2223255118110236
21
0.338994094488189
0
LINE
8
BLACK
6
CONTINUOUS
10
0.4565368897637795
20
0.3770384251968504
11
0.4590913779527559
21
0.3753315354330709
0
LINE
8
BLACK
6
CONTINUOUS
10
0.4590913779527559
20
0.3753315354330709
11
0.4607982677165354
21
0.3727770472440945
0
LINE
8
BLACK
6
CONTINUOUS
10
0.4607982677165354
20
0.3727770472440945
11
0.4613976377952756
21
0.3697637795275591
0
LINE
8
BLACK
6
CONTINUOUS
10
0.4613976377952756
20
0.3697637795275591
11
0.4613976377952756
21
0.334763779527559
0
LINE
8
BLACK
6
CONTINUOUS
10
0.4613976377952756
20
0.334763779527559
11
0.4607982677165354
21
0.3317505118110236
0
LINE
8
BLACK
6
CONTINUOUS
10
0.4607982677165354
20
0.3317505118110236
11
0.4590913779527559
21
0.3291960236220473
0
LINE
8
BLACK
6
CONTINUOUS
10
0.4590913779527559
20
0.3291960236220473
11
0.4565368897637795
21
0.3274891338582677
0
LINE
8
BLACK
6
CONTINUOUS
10
0.4565368897637795
20
0.3274891338582677
11
0.4535236220472441
21
0.3268897637795276
0
LINE
8
BLACK
6
CONTINUOUS
10
0.4535236220472441
20
0.3268897637795276
11
0.3985236220472441
21
0.3268897637795276
0
LINE
8
BLACK
6
CONTINUOUS
10
0.3985236220472441
20
0.3268897637795276
11
0.3955103543307086
21
0.3274891338582677
0
LINE
8
BLACK
6
CONTINUOUS
10
0.3955103543307086
20
0.3274891338582677
11
0.3929558661417323
21
0.3291960236220473
0
LINE
8
BLACK
6
CONTINUOUS
10
0.3929558661417323
20
0.3291960236220473
11
0.3912489763779528
21
0.3317505118110236
0
LINE
8
BLACK
6
CONTINUOUS
10
0.3912489763779528
20
0.3317505118110236
11
0.3906496062992126
21
0.334763779527559
0
LINE
8
BLACK
6
CONTINUOUS
10
0.3906496062992126
20
0.334763779527559
11
0.3906496062992126
21
0.3697637795275591
0
LINE
8
BLACK
6
CONTINUOUS
10
0.3906496062992126
20
0.3697637795275591
11
0.3912489763779528
21
0.3727770472440945
0
LINE
8
BLACK
6
CONTINUOUS
10
0.3912489763779528
20
0.3727770472440945
11
0.3929558661417323
21
0.3753315354330709
0
LINE
8
BLACK
6
CONTINUOUS
10
0.3929558661417323
20
0.3753315354330709
11
0.3955103543307086
21
0.3770384251968504
0
LINE
8
BLACK
6
CONTINUOUS
10
0.3955103543307086
20
0.3770384251968504
11
0.3985236220472441
21
0.3776377952755905
0
LINE
8
BLACK
6
CONTINUOUS
10
0.3985236220472441
20
0.3776377952755905
11
0.4535236220472441
21
0.3776377952755905
0
LINE
8
BLACK
6
CONTINUOUS
10
0.4535236220472441
20
0.3776377952755905
11
0.4565368897637795
21
0.3770384251968504
0
LINE
8
BLACK
6
CONTINUOUS
10
0.5228996456692914
20
0.3771458661417323
11
0.5274954724409449
21
0.3748041732283465
0
LINE
8
BLACK
6
CONTINUOUS
10
0.5274954724409449
20
0.3748041732283465
11
0.5311427559055119
21
0.3711568897637795
0
LINE
8
BLACK
6
CONTINUOUS
10
0.5311427559055119
20
0.3711568897637795
11
0.5334844488188977
21
0.366561062992126
0
LINE
8
BLACK
6
CONTINUOUS
10
0.5334844488188977
20
0.366561062992126
11
0.5342913385826772
21
0.3614665354330708
0
LINE
8
BLACK
6
CONTINUOUS
10
0.5342913385826772
20
0.3614665354330708
11
0.5342913385826772
21
0.344242125984252
0
LINE
8
BLACK
6
CONTINUOUS
10
0.5342913385826772
20
0.344242125984252
11
0.5334844488188977
21
0.3391475984251968
0
LINE
8
BLACK
6
CONTINUOUS
10
0.5334844488188977
20
0.3391475984251968
11
0.5311427559055119
21
0.3345517716535433
0
LINE
8
BLACK
6
CONTINUOUS
10
0.5311427559055119
20
0.3345517716535433
11
0.5274954724409449
21
0.3309044881889764
0
LINE
8
BLACK
6
CONTINUOUS
10
0.5274954724409449
20
0.3309044881889764
11
0.5228996456692914
21
0.3285627952755906
0
LINE
8
BLACK
6
CONTINUOUS
10
0.5228996456692914
20
0.3285627952755906
11
0.5178051181102362
21
0.327755905511811
0
LINE
8
BLACK
6
CONTINUOUS
10
0.5178051181102362
20
0.327755905511811
11
0.4976279527559055
21
0.327755905511811
0
LINE
8
BLACK
6
CONTINUOUS
10
0.4976279527559055
20
0.327755905511811
11
0.4925334251968504
21
0.3285627952755906
0
LINE
8
BLACK
6
CONTINUOUS
10
0.4925334251968504
20
0.3285627952755906
11
0.4879375984251969
21
0.3309044881889764
0
LINE
8
BLACK
6
CONTINUOUS
10
0.4879375984251969
20
0.3309044881889764
11
0.4842903149606299
21
0.3345517716535433
0
LINE
8
BLACK
6
CONTINUOUS
10
0.4842903149606299
20
0.3345517716535433
11
0.4819486220472441
21
0.3391475984251968
0
LINE
8
BLACK
6
CONTINUOUS
10
0.4819486220472441
20
0.3391475984251968
11
0.4811417322834646
21
0.344242125984252
0
LINE
8
BLACK
6
CONTINUOUS
10
0.4811417322834646
20
0.344242125984252
11
0.4811417322834646
21
0.3614665354330708
0
LINE
8
BLACK
6
CONTINUOUS
10
0.4811417322834646
20
0.3614665354330708
11
0.4819486220472441
21
0.366561062992126
0
LINE
8
BLACK
6
CONTINUOUS
10
0.4819486220472441
20
0.366561062992126
11
0.4842903149606299
21
0.3711568897637795
0
LINE
8
BLACK
6
CONTINUOUS
10
0.4842903149606299
20
0.3711568897637795
11
0.4879375984251969
21
0.3748041732283465
0
LINE
8
BLACK
6
CONTINUOUS
10
0.4879375984251969
20
0.3748041732283465
11
0.4925334251968504
21
0.3771458661417323
0
LINE
8
BLACK
6
CONTINUOUS
10
0.4925334251968504
20
0.3771458661417323
11
0.4976279527559055
21
0.3779527559055118
0
LINE
8
BLACK
6
CONTINUOUS
10
0.4976279527559055
20
0.3779527559055118
11
0.5178051181102362
21
0.3779527559055118
0
LINE
8
BLACK
6
CONTINUOUS
10
0.5178051181102362
20
0.3779527559055118
11
0.5228996456692914
21
0.3771458661417323
0
LINE
8
BLACK
6
CONTINUOUS
10
0.5951831102362205
20
0.3782875984251968
11
0.599778937007874
21
0.375945905511811
0
LINE
8
BLACK
6
CONTINUOUS
10
0.599778937007874
20
0.375945905511811
11
0.6034262204724409
21
0.3722986220472441
0
LINE
8
BLACK
6
CONTINUOUS
10
0.6034262204724409
20
0.3722986220472441
11
0.6057679133858268
21
0.3677027952755905
0
LINE
8
BLACK
6
CONTINUOUS
10
0.6057679133858268
20
0.3677027952755905
11
0.6065748031496063
21
0.3626082677165354
0
LINE
8
BLACK
6
CONTINUOUS
10
0.6065748031496063
20
0.3626082677165354
11
0.6065748031496063
21
0.3453838582677165
0
LINE
8
BLACK
6
CONTINUOUS
10
0.6065748031496063
20
0.3453838582677165
11
0.6057679133858268
21
0.3402893307086614
0
LINE
8
BLACK
6
CONTINUOUS
10
0.6057679133858268
20
0.3402893307086614
11
0.6034262204724409
21
0.3356935039370079
0
LINE
8
BLACK
6
CONTINUOUS
10
0.6034262204724409
20
0.3356935039370079
11
0.599778937007874
21
0.3320462204724409
0
LINE
8
BLACK
6
CONTINUOUS
10
0.599778937007874
20
0.3320462204724409
11
0.5951831102362205
21
0.3297045275590551
0
LINE
8
BLACK
6
CONTINUOUS
10
0.5951831102362205
20
0.3297045275590551
11
0.5900885826771654
21
0.3288976377952756
0
LINE
8
BLACK
6
CONTINUOUS
10
0.5900885826771654
20
0.3288976377952756
11
0.5699114173228347
21
0.3288976377952756
0
LINE
8
BLACK
6
CONTINUOUS
10
0.5699114173228347
20
0.3288976377952756
11
0.5648168897637795
21
0.3297045275590551
0
LINE
8
BLACK
6
CONTINUOUS
10
0.5648168897637795
20
0.3297045275590551
11
0.5602210629921259
21
0.3320462204724409
0
LINE
8
BLACK
6
CONTINUOUS
10
0.5602210629921259
20
0.3320462204724409
11
0.556573779527559
21
0.3356935039370079
0
LINE
8
BLACK
6
CONTINUOUS
10
0.556573779527559
20
0.3356935039370079
11
0.5542320866141732
21
0.3402893307086614
0
LINE
8
BLACK
6
CONTINUOUS
10
0.5542320866141732
20
0.3402893307086614
11
0.5534251968503937
21
0.3453838582677165
0
LINE
8
BLACK
6
CONTINUOUS
10
0.5534251968503937
20
0.3453838582677165
11
0.5534251968503937
21
0.3626082677165354
0
LINE
8
BLACK
6
CONTINUOUS
10
0.5534251968503937
20
0.3626082677165354
11
0.5542320866141732
21
0.3677027952755905
0
LINE
8
BLACK
6
CONTINUOUS
10
0.5542320866141732
20
0.3677027952755905
11
0.556573779527559
21
0.3722986220472441
0
LINE
8
BLACK
6
CONTINUOUS
10
0.556573779527559
20
0.3722986220472441
11
0.5602210629921259
21
0.375945905511811
0
LINE
8
BLACK
6
CONTINUOUS
10
0.5602210629921259
20
0.375945905511811
11
0.5648168897637795
21
0.3782875984251968
0
LINE
8
BLACK
6
CONTINUOUS
10
0.5648168897637795
20
0.3782875984251968
11
0.5699114173228347
21
0.3790944881889763
0
LINE
8
BLACK
6
CONTINUOUS
10
0.5699114173228347
20
0.3790944881889763
11
0.5900885826771654
21
0.3790944881889763
0
LINE
8
BLACK
6
CONTINUOUS
10
0.5900885826771654
20
0.3790944881889763
11
0.5951831102362205
21
0.3782875984251968
0
LINE
8
BLACK
6
CONTINUOUS
10
0.6701831102362205
20
0.3782875984251968
11
0.6747789370078739
21
0.375945905511811
0
LINE
8
BLACK
6
CONTINUOUS
10
0.6747789370078739
20
0.375945905511811
11
0.6784262204724409
21
0.3722986220472441
0
LINE
8
BLACK
6
CONTINUOUS
10
0.6784262204724409
20
0.3722986220472441
11
0.6807679133858268
21
0.3677027952755905
0
LINE
8
BLACK
6
CONTINUOUS
10
0.6807679133858268
20
0.3677027952755905
11
0.6815748031496063
21
0.3626082677165354
0
LINE
8
BLACK
6
CONTINUOUS
10
0.6815748031496063
20
0.3626082677165354
11
0.6815748031496063
21
0.3453838582677165
0
LINE
8
BLACK
6
CONTINUOUS
10
0.6815748031496063
20
0.3453838582677165
11
0.6807679133858268
21
0.3402893307086614
0
LINE
8
BLACK
6
CONTINUOUS
10
0.6807679133858268
20
0.3402893307086614
11
0.6784262204724409
21
0.3356935039370079
0
LINE
8
BLACK
6
CONTINUOUS
10
0.6784262204724409
20
0.3356935039370079
11
0.6747789370078739
21
0.3320462204724409
0
LINE
8
BLACK
6
CONTINUOUS
10
0.6747789370078739
20
0.3320462204724409
11
0.6701831102362205
21
0.3297045275590551
0
LINE
8
BLACK
6
CONTINUOUS
10
0.6701831102362205
20
0.3297045275590551
11
0.6650885826771653
21
0.3288976377952756
0
LINE
8
BLACK
6
CONTINUOUS
10
0.6650885826771653
20
0.3288976377952756
11
0.6449114173228346
21
0.3288976377952756
0
LINE
8
BLACK
6
CONTINUOUS
10
0.6449114173228346
20
0.3288976377952756
11
0.6398168897637795
21
0.3297045275590551
0
LINE
8
BLACK
6
CONTINUOUS
10
0.6398168897637795
20
0.3297045275590551
11
0.635221062992126
21
0.3320462204724409
0
LINE
8
BLACK
6
CONTINUOUS
10
0.635221062992126
20
0.3320462204724409
11
0.631573779527559
21
0.3356935039370079
0
LINE
8
BLACK
6
CONTINUOUS
10
0.631573779527559
20
0.3356935039370079
11
0.6292320866141732
21
0.3402893307086614
0
LINE
8
BLACK
6
CONTINUOUS
10
0.6292320866141732
20
0.3402893307086614
11
0.6284251968503937
21
0.3453838582677165
0
LINE
8
BLACK
6
CONTINUOUS
10
0.6284251968503937
20
0.3453838582677165
11
0.6284251968503937
21
0.3626082677165354
0
LINE
8
BLACK
6
CONTINUOUS
10
0.6284251968503937
20
0.3626082677165354
11
0.6292320866141732
21
0.3677027952755905
0
LINE
8
BLACK
6
CONTINUOUS
10
0.6292320866141732
20
0.3677027952755905
11
0.631573779527559
21
0.3722986220472441
0
LINE
8
BLACK
6
CONTINUOUS
10
0.631573779527559
20
0.3722986220472441
11
0.635221062992126
21
0.375945905511811
0
LINE
8
BLACK
6
CONTINUOUS
10
0.635221062992126
20
0.375945905511811
11
0.6398168897637795
21
0.3782875984251968
0
LINE
8
BLACK
6
CONTINUOUS
10
0.6398168897637795
20
0.3782875984251968
11
0.6449114173228346
21
0.3790944881889763
0
LINE
8
BLACK
6
CONTINUOUS
10
0.6449114173228346
20
0.3790944881889763
11
0.6650885826771653
21
0.3790944881889763
0
LINE
8
BLACK
6
CONTINUOUS
10
0.6650885826771653
20
0.3790944881889763
11
0.6701831102362205
21
0.3782875984251968
0
LINE
8
BLACK
6
CONTINUOUS
10
0.3073484645669291
20
0.381082874015748
11
0.3119442913385826
21
0.3787411811023622
0
LINE
8
BLACK
6
CONTINUOUS
10
0.3119442913385826
20
0.3787411811023622
11
0.3155915748031496
21
0.3750938976377953
0
LINE
8
BLACK
6
CONTINUOUS
10
0.3155915748031496
20
0.3750938976377953
11
0.3179332677165354
21
0.3704980708661417
0
LINE
8
BLACK
6
CONTINUOUS
10
0.3179332677165354
20
0.3704980708661417
11
0.318740157480315
21
0.3654035433070866
0
LINE
8
BLACK
6
CONTINUOUS
10
0.318740157480315
20
0.3654035433070866
11
0.318740157480315
21
0.3481791338582677
0
LINE
8
BLACK
6
CONTINUOUS
10
0.318740157480315
20
0.3481791338582677
11
0.3179332677165354
21
0.3430846062992126
0
LINE
8
BLACK
6
CONTINUOUS
10
0.3179332677165354
20
0.3430846062992126
11
0.3155915748031496
21
0.3384887795275591
0
LINE
8
BLACK
6
CONTINUOUS
10
0.3155915748031496
20
0.3384887795275591
11
0.3119442913385826
21
0.3348414960629921
0
LINE
8
BLACK
6
CONTINUOUS
10
0.3119442913385826
20
0.3348414960629921
11
0.3073484645669291
21
0.3324998031496063
0
LINE
8
BLACK
6
CONTINUOUS
10
0.3073484645669291
20
0.3324998031496063
11
0.302253937007874
21
0.3316929133858267
0
LINE
8
BLACK
6
CONTINUOUS
10
0.302253937007874
20
0.3316929133858267
11
0.2820767716535433
21
0.3316929133858267
0
LINE
8
BLACK
6
CONTINUOUS
10
0.2820767716535433
20
0.3316929133858267
11
0.2769822440944882
21
0.3324998031496063
0
LINE
8
BLACK
6
CONTINUOUS
10
0.2769822440944882
20
0.3324998031496063
11
0.2723864173228346
21
0.3348414960629921
0
LINE
8
BLACK
6
CONTINUOUS
10
0.2723864173228346
20
0.3348414960629921
11
0.2687391338582677
21
0.3384887795275591
0
LINE
8
BLACK
6
CONTINUOUS
10
0.2687391338582677
20
0.3384887795275591
11
0.2663974409448819
21
0.3430846062992126
0
LINE
8
BLACK
6
CONTINUOUS
10
0.2663974409448819
20
0.3430846062992126
11
0.2655905511811024
21
0.3481791338582677
0
LINE
8
BLACK
6
CONTINUOUS
10
0.2655905511811024
20
0.3481791338582677
11
0.2655905511811024
21
0.3654035433070866
0
LINE
8
BLACK
6
CONTINUOUS
10
0.2655905511811024
20
0.3654035433070866
11
0.2663974409448819
21
0.3704980708661417
0
LINE
8
BLACK
6
CONTINUOUS
10
0.2663974409448819
20
0.3704980708661417
11
0.2687391338582677
21
0.3750938976377953
0
LINE
8
BLACK
6
CONTINUOUS
10
0.2687391338582677
20
0.3750938976377953
11
0.2723864173228346
21
0.3787411811023622
0
LINE
8
BLACK
6
CONTINUOUS
10
0.2723864173228346
20
0.3787411811023622
11
0.2769822440944882
21
0.381082874015748
0
LINE
8
BLACK
6
CONTINUOUS
10
0.2769822440944882
20
0.381082874015748
11
0.2820767716535433
21
0.3818897637795275
0
LINE
8
BLACK
6
CONTINUOUS
10
0.2820767716535433
20
0.3818897637795275
11
0.302253937007874
21
0.3818897637795275
0
LINE
8
BLACK
6
CONTINUOUS
10
0.302253937007874
20
0.3818897637795275
11
0.3073484645669291
21
0.381082874015748
0
LINE
8
BLACK
6
CONTINUOUS
10
0.373918779527559
20
0.3763691338582677
11
0.3764732677165354
21
0.3746622440944882
0
LINE
8
BLACK
6
CONTINUOUS
10
0.3764732677165354
20
0.3746622440944882
11
0.378180157480315
21
0.3721077559055118
0
LINE
8
BLACK
6
CONTINUOUS
10
0.378180157480315
20
0.3721077559055118
11
0.3787795275590551
21
0.3690944881889764
0
LINE
8
BLACK
6
CONTINUOUS
10
0.3787795275590551
20
0.3690944881889764
11
0.3787795275590551
21
0.3454724409448819
0
LINE
8
BLACK
6
CONTINUOUS
10
0.3787795275590551
20
0.3454724409448819
11
0.378180157480315
21
0.3424591732283465
0
LINE
8
BLACK
6
CONTINUOUS
10
0.378180157480315
20
0.3424591732283465
11
0.3764732677165354
21
0.33990468503937
0
LINE
8
BLACK
6
CONTINUOUS
10
0.3764732677165354
20
0.33990468503937
11
0.373918779527559
21
0.3381977952755905
0
LINE
8
BLACK
6
CONTINUOUS
10
0.373918779527559
20
0.3381977952755905
11
0.3709055118110236
21
0.3375984251968504
0
LINE
8
BLACK
6
CONTINUOUS
10
0.3709055118110236
20
0.3375984251968504
11
0.3433464566929134
21
0.3375984251968504
0
LINE
8
BLACK
6
CONTINUOUS
10
0.3433464566929134
20
0.3375984251968504
11
0.3403331889763779
21
0.3381977952755905
0
LINE
8
BLACK
6
CONTINUOUS
10
0.3403331889763779
20
0.3381977952755905
11
0.3377787007874016
21
0.33990468503937
0
LINE
8
BLACK
6
CONTINUOUS
10
0.3377787007874016
20
0.33990468503937
11
0.336071811023622
21
0.3424591732283465
0
LINE
8
BLACK
6
CONTINUOUS
10
0.336071811023622
20
0.3424591732283465
11
0.3354724409448819
21
0.3454724409448819
0
LINE
8
BLACK
6
CONTINUOUS
10
0.3354724409448819
20
0.3454724409448819
11
0.3354724409448819
21
0.3690944881889764
0
LINE
8
BLACK
6
CONTINUOUS
10
0.3354724409448819
20
0.3690944881889764
11
0.336071811023622
21
0.3721077559055118
0
LINE
8
BLACK
6
CONTINUOUS
10
0.336071811023622
20
0.3721077559055118
11
0.3377787007874016
21
0.3746622440944882
0
LINE
8
BLACK
6
CONTINUOUS
10
0.3377787007874016
20
0.3746622440944882
11
0.3403331889763779
21
0.3763691338582677
0
LINE
8
BLACK
6
CONTINUOUS
10
0.3403331889763779
20
0.3763691338582677
11
0.3433464566929134
21
0.3769685039370079
0
LINE
8
BLACK
6
CONTINUOUS
10
0.3433464566929134
20
0.3769685039370079
11
0.3709055118110236
21
0.3769685039370079
0
LINE
8
BLACK
6
CONTINUOUS
10
0.3709055118110236
20
0.3769685039370079
11
0.373918779527559
21
0.3763691338582677
0
LINE
8
BLACK
6
CONTINUOUS
10
0.2223255118110236
20
0.3882066929133858
11
0.2264006692913386
21
0.3862144488188976
0
LINE
8
BLACK
6
CONTINUOUS
10
0.2264006692913386
20
0.3862144488188976
11
0.2296081496062992
21
0.383006968503937
0
LINE
8
BLACK
6
CONTINUOUS
10
0.2296081496062992
20
0.383006968503937
11
0.2316003937007874
21
0.3789318110236221
0
LINE
8
BLACK
6
CONTINUOUS
10
0.2316003937007874
20
0.3789318110236221
11
0.2321732283464567
21
0.375
0
LINE
8
BLACK
6
CONTINUOUS
10
0.2321732283464567
20
0.375
11
0.2321732283464567
21
0.3631889763779527
0
LINE
8
BLACK
6
CONTINUOUS
10
0.2321732283464567
20
0.3631889763779527
11
0.2316003937007874
21
0.3592571653543307
0
LINE
8
BLACK
6
CONTINUOUS
10
0.2316003937007874
20
0.3592571653543307
11
0.2296081496062992
21
0.3551820078740157
0
LINE
8
BLACK
6
CONTINUOUS
10
0.2296081496062992
20
0.3551820078740157
11
0.2264006692913386
21
0.3519745275590551
0
LINE
8
BLACK
6
CONTINUOUS
10
0.2264006692913386
20
0.3519745275590551
11
0.2223255118110236
21
0.3499822834645669
0
LINE
8
BLACK
6
CONTINUOUS
10
0.2223255118110236
20
0.3499822834645669
11
0.2183937007874016
21
0.3494094488188976
0
LINE
8
BLACK
6
CONTINUOUS
10
0.2183937007874016
20
0.3494094488188976
11
0.1632755905511811
21
0.3494094488188976
0
LINE
8
BLACK
6
CONTINUOUS
10
0.1632755905511811
20
0.3494094488188976
11
0.159343779527559
21
0.3499822834645669
0
LINE
8
BLACK
6
CONTINUOUS
10
0.159343779527559
20
0.3499822834645669
11
0.1552686220472441
21
0.3519745275590551
0
LINE
8
BLACK
6
CONTINUOUS
10
0.1552686220472441
20
0.3519745275590551
11
0.1520611417322835
21
0.3551820078740157
0
LINE
8
BLACK
6
CONTINUOUS
10
0.1520611417322835
20
0.3551820078740157
11
0.1500688976377953
21
0.3592571653543307
0
LINE
8
BLACK
6
CONTINUOUS
10
0.1500688976377953
20
0.3592571653543307
11
0.149496062992126
21
0.3631889763779527
0
LINE
8
BLACK
6
CONTINUOUS
10
0.149496062992126
20
0.3631889763779527
11
0.149496062992126
21
0.375
0
LINE
8
BLACK
6
CONTINUOUS
10
0.149496062992126
20
0.375
11
0.1500688976377953
21
0.3789318110236221
0
LINE
8
BLACK
6
CONTINUOUS
10
0.1500688976377953
20
0.3789318110236221
11
0.1520611417322835
21
0.383006968503937
0
LINE
8
BLACK
6
CONTINUOUS
10
0.1520611417322835
20
0.383006968503937
11
0.1552686220472441
21
0.3862144488188976
0
LINE
8
BLACK
6
CONTINUOUS
10
0.1552686220472441
20
0.3862144488188976
11
0.159343779527559
21
0.3882066929133858
0
LINE
8
BLACK
6
CONTINUOUS
10
0.159343779527559
20
0.3882066929133858
11
0.1632755905511811
21
0.3887795275590551
0
LINE
8
BLACK
6
CONTINUOUS
10
0.1632755905511811
20
0.3887795275590551
11
0.2183937007874016
21
0.3887795275590551
0
LINE
8
BLACK
6
CONTINUOUS
10
0.2183937007874016
20
0.3887795275590551
11
0.2223255118110236
21
0.3882066929133858
0
LINE
8
BLACK
6
CONTINUOUS
10
0.5228996456692914
20
0.4391537401574803
11
0.5274954724409449
21
0.4368120472440945
0
LINE
8
BLACK
6
CONTINUOUS
10
0.5274954724409449
20
0.4368120472440945
11
0.5311427559055119
21
0.4331647637795276
0
LINE
8
BLACK
6
CONTINUOUS
10
0.5311427559055119
20
0.4331647637795276
11
0.5334844488188977
21
0.428568937007874
0
LINE
8
BLACK
6
CONTINUOUS
10
0.5334844488188977
20
0.428568937007874
11
0.5342913385826772
21
0.4234744094488189
0
LINE
8
BLACK
6
CONTINUOUS
10
0.5342913385826772
20
0.4234744094488189
11
0.5342913385826772
21
0.40625
0
LINE
8
BLACK
6
CONTINUOUS
10
0.5342913385826772
20
0.40625
11
0.5334844488188977
21
0.4011554724409448
0
LINE
8
BLACK
6
CONTINUOUS
10
0.5334844488188977
20
0.4011554724409448
11
0.5311427559055119
21
0.3965596456692913
0
LINE
8
BLACK
6
CONTINUOUS
10
0.5311427559055119
20
0.3965596456692913
11
0.5274954724409449
21
0.3929123622047244
0
LINE
8
BLACK
6
CONTINUOUS
10
0.5274954724409449
20
0.3929123622047244
11
0.5228996456692914
21
0.3905706692913386
0
LINE
8
BLACK
6
CONTINUOUS
10
0.5228996456692914
20
0.3905706692913386
11
0.5178051181102362
21
0.389763779527559
0
LINE
8
BLACK
6
CONTINUOUS
10
0.5178051181102362
20
0.389763779527559
11
0.4976279527559055
21
0.389763779527559
0
LINE
8
BLACK
6
CONTINUOUS
10
0.4976279527559055
20
0.389763779527559
11
0.4925334251968504
21
0.3905706692913386
0
LINE
8
BLACK
6
CONTINUOUS
10
0.4925334251968504
20
0.3905706692913386
11
0.4879375984251969
21
0.3929123622047244
0
LINE
8
BLACK
6
CONTINUOUS
10
0.4879375984251969
20
0.3929123622047244
11
0.4842903149606299
21
0.3965596456692913
0
LINE
8
BLACK
6
CONTINUOUS
10
0.4842903149606299
20
0.3965596456692913
11
0.4819486220472441
21
0.4011554724409448
0
LINE
8
BLACK
6
CONTINUOUS
10
0.4819486220472441
20
0.4011554724409448
11
0.4811417322834646
21
0.40625
0
LINE
8
BLACK
6
CONTINUOUS
10
0.4811417322834646
20
0.40625
11
0.4811417322834646
21
0.4234744094488189
0
LINE
8
BLACK
6
CONTINUOUS
10
0.4811417322834646
20
0.4234744094488189
11
0.4819486220472441
21
0.428568937007874
0
LINE
8
BLACK
6
CONTINUOUS
10
0.4819486220472441
20
0.428568937007874
11
0.4842903149606299
21
0.4331647637795276
0
LINE
8
BLACK
6
CONTINUOUS
10
0.4842903149606299
20
0.4331647637795276
11
0.4879375984251969
21
0.4368120472440945
0
LINE
8
BLACK
6
CONTINUOUS
10
0.4879375984251969
20
0.4368120472440945
11
0.4925334251968504
21
0.4391537401574803
0
LINE
8
BLACK
6
CONTINUOUS
10
0.4925334251968504
20
0.4391537401574803
11
0.4976279527559055
21
0.4399606299212598
0
LINE
8
BLACK
6
CONTINUOUS
10
0.4976279527559055
20
0.4399606299212598
11
0.5178051181102362
21
0.4399606299212598
0
LINE
8
BLACK
6
CONTINUOUS
10
0.5178051181102362
20
0.4399606299212598
11
0.5228996456692914
21
0.4391537401574803
0
LINE
8
BLACK
6
CONTINUOUS
10
0.5951831102362205
20
0.4402954724409449
11
0.599778937007874
21
0.437953779527559
0
LINE
8
BLACK
6
CONTINUOUS
10
0.599778937007874
20
0.437953779527559
11
0.6034262204724409
21
0.4343064960629921
0
LINE
8
BLACK
6
CONTINUOUS
10
0.6034262204724409
20
0.4343064960629921
11
0.6057679133858268
21
0.4297106692913386
0
LINE
8
BLACK
6
CONTINUOUS
10
0.6057679133858268
20
0.4297106692913386
11
0.6065748031496063
21
0.4246161417322835
0
LINE
8
BLACK
6
CONTINUOUS
10
0.6065748031496063
20
0.4246161417322835
11
0.6065748031496063
21
0.4073917322834645
0
LINE
8
BLACK
6
CONTINUOUS
10
0.6065748031496063
20
0.4073917322834645
11
0.6057679133858268
21
0.4022972047244094
0
LINE
8
BLACK
6
CONTINUOUS
10
0.6057679133858268
20
0.4022972047244094
11
0.6034262204724409
21
0.3977013779527559
0
LINE
8
BLACK
6
CONTINUOUS
10
0.6034262204724409
20
0.3977013779527559
11
0.599778937007874
21
0.394054094488189
0
LINE
8
BLACK
6
CONTINUOUS
10
0.599778937007874
20
0.394054094488189
11
0.5951831102362205
21
0.3917124015748031
0
LINE
8
BLACK
6
CONTINUOUS
10
0.5951831102362205
20
0.3917124015748031
11
0.5900885826771654
21
0.3909055118110236
0
LINE
8
BLACK
6
CONTINUOUS
10
0.5900885826771654
20
0.3909055118110236
11
0.5699114173228347
21
0.3909055118110236
0
LINE
8
BLACK
6
CONTINUOUS
10
0.5699114173228347
20
0.3909055118110236
11
0.5648168897637795
21
0.3917124015748031
0
LINE
8
BLACK
6
CONTINUOUS
10
0.5648168897637795
20
0.3917124015748031
11
0.5602210629921259
21
0.394054094488189
0
LINE
8
BLACK
6
CONTINUOUS
10
0.5602210629921259
20
0.394054094488189
11
0.556573779527559
21
0.3977013779527559
0
LINE
8
BLACK
6
CONTINUOUS
10
0.556573779527559
20
0.3977013779527559
11
0.5542320866141732
21
0.4022972047244094
0
LINE
8
BLACK
6
CONTINUOUS
10
0.5542320866141732
20
0.4022972047244094
11
0.5534251968503937
21
0.4073917322834645
0
LINE
8
BLACK
6
CONTINUOUS
10
0.5534251968503937
20
0.4073917322834645
11
0.5534251968503937
21
0.4246161417322835
0
LINE
8
BLACK
6
CONTINUOUS
10
0.5534251968503937
20
0.4246161417322835
11
0.5542320866141732
21
0.4297106692913386
0
LINE
8
BLACK
6
CONTINUOUS
10
0.5542320866141732
20
0.4297106692913386
11
0.556573779527559
21
0.4343064960629921
0
LINE
8
BLACK
6
CONTINUOUS
10
0.556573779527559
20
0.4343064960629921
11
0.5602210629921259
21
0.437953779527559
0
LINE
8
BLACK
6
CONTINUOUS
10
0.5602210629921259
20
0.437953779527559
11
0.5648168897637795
21
0.4402954724409449
0
LINE
8
BLACK
6
CONTINUOUS
10
0.5648168897637795
20
0.4402954724409449
11
0.5699114173228347
21
0.4411023622047244
0
LINE
8
BLACK
6
CONTINUOUS
10
0.5699114173228347
20
0.4411023622047244
11
0.5900885826771654
21
0.4411023622047244
0
LINE
8
BLACK
6
CONTINUOUS
10
0.5900885826771654
20
0.4411023622047244
11
0.5951831102362205
21
0.4402954724409449
0
LINE
8
BLACK
6
CONTINUOUS
10
0.6701831102362205
20
0.4402954724409449
11
0.6747789370078739
21
0.437953779527559
0
LINE
8
BLACK
6
CONTINUOUS
10
0.6747789370078739
20
0.437953779527559
11
0.6784262204724409
21
0.4343064960629921
0
LINE
8
BLACK
6
CONTINUOUS
10
0.6784262204724409
20
0.4343064960629921
11
0.6807679133858268
21
0.4297106692913386
0
LINE
8
BLACK
6
CONTINUOUS
10
0.6807679133858268
20
0.4297106692913386
11
0.6815748031496063
21
0.4246161417322835
0
LINE
8
BLACK
6
CONTINUOUS
10
0.6815748031496063
20
0.4246161417322835
11
0.6815748031496063
21
0.4073917322834645
0
LINE
8
BLACK
6
CONTINUOUS
10
0.6815748031496063
20
0.4073917322834645
11
0.6807679133858268
21
0.4022972047244094
0
LINE
8
BLACK
6
CONTINUOUS
10
0.6807679133858268
20
0.4022972047244094
11
0.6784262204724409
21
0.3977013779527559
0
LINE
8
BLACK
6
CONTINUOUS
10
0.6784262204724409
20
0.3977013779527559
11
0.6747789370078739
21
0.394054094488189
0
LINE
8
BLACK
6
CONTINUOUS
10
0.6747789370078739
20
0.394054094488189
11
0.6701831102362205
21
0.3917124015748031
0
LINE
8
BLACK
6
CONTINUOUS
10
0.6701831102362205
20
0.3917124015748031
11
0.6650885826771653
21
0.3909055118110236
0
LINE
8
BLACK
6
CONTINUOUS
10
0.6650885826771653
20
0.3909055118110236
11
0.6449114173228346
21
0.3909055118110236
0
LINE
8
BLACK
6
CONTINUOUS
10
0.6449114173228346
20
0.3909055118110236
11
0.6398168897637795
21
0.3917124015748031
0
LINE
8
BLACK
6
CONTINUOUS
10
0.6398168897637795
20
0.3917124015748031
11
0.635221062992126
21
0.394054094488189
0
LINE
8
BLACK
6
CONTINUOUS
10
0.635221062992126
20
0.394054094488189
11
0.631573779527559
21
0.3977013779527559
0
LINE
8
BLACK
6
CONTINUOUS
10
0.631573779527559
20
0.3977013779527559
11
0.6292320866141732
21
0.4022972047244094
0
LINE
8
BLACK
6
CONTINUOUS
10
0.6292320866141732
20
0.4022972047244094
11
0.6284251968503937
21
0.4073917322834645
0
LINE
8
BLACK
6
CONTINUOUS
10
0.6284251968503937
20
0.4073917322834645
11
0.6284251968503937
21
0.4246161417322835
0
LINE
8
BLACK
6
CONTINUOUS
10
0.6284251968503937
20
0.4246161417322835
11
0.6292320866141732
21
0.4297106692913386
0
LINE
8
BLACK
6
CONTINUOUS
10
0.6292320866141732
20
0.4297106692913386
11
0.631573779527559
21
0.4343064960629921
0
LINE
8
BLACK
6
CONTINUOUS
10
0.631573779527559
20
0.4343064960629921
11
0.635221062992126
21
0.437953779527559
0
LINE
8
BLACK
6
CONTINUOUS
10
0.635221062992126
20
0.437953779527559
11
0.6398168897637795
21
0.4402954724409449
0
LINE
8
BLACK
6
CONTINUOUS
10
0.6398168897637795
20
0.4402954724409449
11
0.6449114173228346
21
0.4411023622047244
0
LINE
8
BLACK
6
CONTINUOUS
10
0.6449114173228346
20
0.4411023622047244
11
0.6650885826771653
21
0.4411023622047244
0
LINE
8
BLACK
6
CONTINUOUS
10
0.6650885826771653
20
0.4411023622047244
11
0.6701831102362205
21
0.4402954724409449
0
LINE
8
BLACK
6
CONTINUOUS
10
0.373918779527559
20
0.4314872440944882
11
0.3764732677165354
21
0.4297803543307087
0
LINE
8
BLACK
6
CONTINUOUS
10
0.3764732677165354
20
0.4297803543307087
11
0.378180157480315
21
0.4272258661417322
0
LINE
8
BLACK
6
CONTINUOUS
10
0.378180157480315
20
0.4272258661417322
11
0.3787795275590551
21
0.4242125984251968
0
LINE
8
BLACK
6
CONTINUOUS
10
0.3787795275590551
20
0.4242125984251968
11
0.3787795275590551
21
0.4005905511811024
0
LINE
8
BLACK
6
CONTINUOUS
10
0.3787795275590551
20
0.4005905511811024
11
0.378180157480315
21
0.3975772834645669
0
LINE
8
BLACK
6
CONTINUOUS
10
0.378180157480315
20
0.3975772834645669
11
0.3764732677165354
21
0.3950227952755905
0
LINE
8
BLACK
6
CONTINUOUS
10
0.3764732677165354
20
0.3950227952755905
11
0.373918779527559
21
0.393315905511811
0
LINE
8
BLACK
6
CONTINUOUS
10
0.373918779527559
20
0.393315905511811
11
0.3709055118110236
21
0.3927165354330708
0
LINE
8
BLACK
6
CONTINUOUS
10
0.3709055118110236
20
0.3927165354330708
11
0.3433464566929134
21
0.3927165354330708
0
LINE
8
BLACK
6
CONTINUOUS
10
0.3433464566929134
20
0.3927165354330708
11
0.3403331889763779
21
0.393315905511811
0
LINE
8
BLACK
6
CONTINUOUS
10
0.3403331889763779
20
0.393315905511811
11
0.3377787007874016
21
0.3950227952755905
0
LINE
8
BLACK
6
CONTINUOUS
10
0.3377787007874016
20
0.3950227952755905
11
0.336071811023622
21
0.3975772834645669
0
LINE
8
BLACK
6
CONTINUOUS
10
0.336071811023622
20
0.3975772834645669
11
0.3354724409448819
21
0.4005905511811024
0
LINE
8
BLACK
6
CONTINUOUS
10
0.3354724409448819
20
0.4005905511811024
11
0.3354724409448819
21
0.4242125984251968
0
LINE
8
BLACK
6
CONTINUOUS
10
0.3354724409448819
20
0.4242125984251968
11
0.336071811023622
21
0.4272258661417322
0
LINE
8
BLACK
6
CONTINUOUS
10
0.336071811023622
20
0.4272258661417322
11
0.3377787007874016
21
0.4297803543307087
0
LINE
8
BLACK
6
CONTINUOUS
10
0.3377787007874016
20
0.4297803543307087
11
0.3403331889763779
21
0.4314872440944882
0
LINE
8
BLACK
6
CONTINUOUS
10
0.3403331889763779
20
0.4314872440944882
11
0.3433464566929134
21
0.4320866141732284
0
LINE
8
BLACK
6
CONTINUOUS
10
0.3433464566929134
20
0.4320866141732284
11
0.3709055118110236
21
0.4320866141732284
0
LINE
8
BLACK
6
CONTINUOUS
10
0.3709055118110236
20
0.4320866141732284
11
0.373918779527559
21
0.4314872440944882
0
LINE
8
BLACK
6
CONTINUOUS
10
0.3073484645669291
20
0.4430907480314961
11
0.3119442913385826
21
0.4407490551181102
0
LINE
8
BLACK
6
CONTINUOUS
10
0.3119442913385826
20
0.4407490551181102
11
0.3155915748031496
21
0.4371017716535433
0
LINE
8
BLACK
6
CONTINUOUS
10
0.3155915748031496
20
0.4371017716535433
11
0.3179332677165354
21
0.4325059448818898
0
LINE
8
BLACK
6
CONTINUOUS
10
0.3179332677165354
20
0.4325059448818898
11
0.318740157480315
21
0.4274114173228347
0
LINE
8
BLACK
6
CONTINUOUS
10
0.318740157480315
20
0.4274114173228347
11
0.318740157480315
21
0.4101870078740157
0
LINE
8
BLACK
6
CONTINUOUS
10
0.318740157480315
20
0.4101870078740157
11
0.3179332677165354
21
0.4050924803149606
0
LINE
8
BLACK
6
CONTINUOUS
10
0.3179332677165354
20
0.4050924803149606
11
0.3155915748031496
21
0.4004966535433071
0
LINE
8
BLACK
6
CONTINUOUS
10
0.3155915748031496
20
0.4004966535433071
11
0.3119442913385826
21
0.3968493700787402
0
LINE
8
BLACK
6
CONTINUOUS
10
0.3119442913385826
20
0.3968493700787402
11
0.3073484645669291
21
0.3945076771653543
0
LINE
8
BLACK
6
CONTINUOUS
10
0.3073484645669291
20
0.3945076771653543
11
0.302253937007874
21
0.3937007874015748
0
LINE
8
BLACK
6
CONTINUOUS
10
0.302253937007874
20
0.3937007874015748
11
0.2820767716535433
21
0.3937007874015748
0
LINE
8
BLACK
6
CONTINUOUS
10
0.2820767716535433
20
0.3937007874015748
11
0.2769822440944882
21
0.3945076771653543
0
LINE
8
BLACK
6
CONTINUOUS
10
0.2769822440944882
20
0.3945076771653543
11
0.2723864173228346
21
0.3968493700787402
0
LINE
8
BLACK
6
CONTINUOUS
10
0.2723864173228346
20
0.3968493700787402
11
0.2687391338582677
21
0.4004966535433071
0
LINE
8
BLACK
6
CONTINUOUS
10
0.2687391338582677
20
0.4004966535433071
11
0.2663974409448819
21
0.4050924803149606
0
LINE
8
BLACK
6
CONTINUOUS
10
0.2663974409448819
20
0.4050924803149606
11
0.2655905511811024
21
0.4101870078740157
0
LINE
8
BLACK
6
CONTINUOUS
10
0.2655905511811024
20
0.4101870078740157
11
0.2655905511811024
21
0.4274114173228347
0
LINE
8
BLACK
6
CONTINUOUS
10
0.2655905511811024
20
0.4274114173228347
11
0.2663974409448819
21
0.4325059448818898
0
LINE
8
BLACK
6
CONTINUOUS
10
0.2663974409448819
20
0.4325059448818898
11
0.2687391338582677
21
0.4371017716535433
0
LINE
8
BLACK
6
CONTINUOUS
10
0.2687391338582677
20
0.4371017716535433
11
0.2723864173228346
21
0.4407490551181102
0
LINE
8
BLACK
6
CONTINUOUS
10
0.2723864173228346
20
0.4407490551181102
11
0.2769822440944882
21
0.4430907480314961
0
LINE
8
BLACK
6
CONTINUOUS
10
0.2769822440944882
20
0.4430907480314961
11
0.2820767716535433
21
0.4438976377952756
0
LINE
8
BLACK
6
CONTINUOUS
10
0.2820767716535433
20
0.4438976377952756
11
0.302253937007874
21
0.4438976377952756
0
LINE
8
BLACK
6
CONTINUOUS
10
0.302253937007874
20
0.4438976377952756
11
0.3073484645669291
21
0.4430907480314961
0
LINE
8
BLACK
6
CONTINUOUS
10
0.4565368897637795
20
0.4520384251968504
11
0.4590913779527559
21
0.4503315354330709
0
LINE
8
BLACK
6
CONTINUOUS
10
0.4590913779527559
20
0.4503315354330709
11
0.4607982677165354
21
0.4477770472440945
0
LINE
8
BLACK
6
CONTINUOUS
10
0.4607982677165354
20
0.4477770472440945
11
0.4613976377952756
21
0.444763779527559
0
LINE
8
BLACK
6
CONTINUOUS
10
0.4613976377952756
20
0.444763779527559
11
0.4613976377952756
21
0.409763779527559
0
LINE
8
BLACK
6
CONTINUOUS
10
0.4613976377952756
20
0.409763779527559
11
0.4607982677165354
21
0.4067505118110236
0
LINE
8
BLACK
6
CONTINUOUS
10
0.4607982677165354
20
0.4067505118110236
11
0.4590913779527559
21
0.4041960236220473
0
LINE
8
BLACK
6
CONTINUOUS
10
0.4590913779527559
20
0.4041960236220473
11
0.4565368897637795
21
0.4024891338582677
0
LINE
8
BLACK
6
CONTINUOUS
10
0.4565368897637795
20
0.4024891338582677
11
0.4535236220472441
21
0.4018897637795276
0
LINE
8
BLACK
6
CONTINUOUS
10
0.4535236220472441
20
0.4018897637795276
11
0.3985236220472441
21
0.4018897637795276
0
LINE
8
BLACK
6
CONTINUOUS
10
0.3985236220472441
20
0.4018897637795276
11
0.3955103543307086
21
0.4024891338582677
0
LINE
8
BLACK
6
CONTINUOUS
10
0.3955103543307086
20
0.4024891338582677
11
0.3929558661417323
21
0.4041960236220473
0
LINE
8
BLACK
6
CONTINUOUS
10
0.3929558661417323
20
0.4041960236220473
11
0.3912489763779528
21
0.4067505118110236
0
LINE
8
BLACK
6
CONTINUOUS
10
0.3912489763779528
20
0.4067505118110236
11
0.3906496062992126
21
0.409763779527559
0
LINE
8
BLACK
6
CONTINUOUS
10
0.3906496062992126
20
0.409763779527559
11
0.3906496062992126
21
0.444763779527559
0
LINE
8
BLACK
6
CONTINUOUS
10
0.3906496062992126
20
0.444763779527559
11
0.3912489763779528
21
0.4477770472440945
0
LINE
8
BLACK
6
CONTINUOUS
10
0.3912489763779528
20
0.4477770472440945
11
0.3929558661417323
21
0.4503315354330709
0
LINE
8
BLACK
6
CONTINUOUS
10
0.3929558661417323
20
0.4503315354330709
11
0.3955103543307086
21
0.4520384251968504
0
LINE
8
BLACK
6
CONTINUOUS
10
0.3955103543307086
20
0.4520384251968504
11
0.3985236220472441
21
0.4526377952755906
0
LINE
8
BLACK
6
CONTINUOUS
10
0.3985236220472441
20
0.4526377952755906
11
0.4535236220472441
21
0.4526377952755906
0
LINE
8
BLACK
6
CONTINUOUS
10
0.4535236220472441
20
0.4526377952755906
11
0.4565368897637795
21
0.4520384251968504
0
LINE
8
BLACK
6
CONTINUOUS
10
0.8549594488188976
20
0.5031421653543307
11
0.8594866535433071
21
0.5008354330708661
0
LINE
8
BLACK
6
CONTINUOUS
10
0.8594866535433071
20
0.5008354330708661
11
0.8630795275590551
21
0.4972425590551181
0
LINE
8
BLACK
6
CONTINUOUS
10
0.8630795275590551
20
0.4972425590551181
11
0.8653862598425197
21
0.4927153543307087
0
LINE
8
BLACK
6
CONTINUOUS
10
0.8653862598425197
20
0.4927153543307087
11
0.8661811023622047
21
0.4876968503937008
0
LINE
8
BLACK
6
CONTINUOUS
10
0.8661811023622047
20
0.4876968503937008
11
0.8669759448818898
21
0.4927153543307087
0
LINE
8
BLACK
6
CONTINUOUS
10
0.8669759448818898
20
0.4927153543307087
11
0.8692826771653543
21
0.4972425590551181
0
LINE
8
BLACK
6
CONTINUOUS
10
0.8692826771653543
20
0.4972425590551181
11
0.8728755511811024
21
0.5008354330708661
0
LINE
8
BLACK
6
CONTINUOUS
10
0.8728755511811024
20
0.5008354330708661
11
0.8774027559055118
21
0.5031421653543307
0
LINE
8
BLACK
6
CONTINUOUS
10
0.8774027559055118
20
0.5031421653543307
11
0.8824212598425196
21
0.5039370078740157
0
LINE
8
BLACK
6
CONTINUOUS
10
0.8824212598425196
20
0.5039370078740157
11
0.8991535433070866
21
0.5039370078740157
0
LINE
8
BLACK
6
CONTINUOUS
10
0.8991535433070866
20
0.5039370078740157
11
0.9041720472440945
21
0.5031421653543307
0
LINE
8
BLACK
6
CONTINUOUS
10
0.9041720472440945
20
0.5031421653543307
11
0.9086992519685039
21
0.5008354330708661
0
LINE
8
BLACK
6
CONTINUOUS
10
0.9086992519685039
20
0.5008354330708661
11
0.9122921259842519
21
0.4972425590551181
0
LINE
8
BLACK
6
CONTINUOUS
10
0.9122921259842519
20
0.4972425590551181
11
0.9145988582677165
21
0.4927153543307087
0
LINE
8
BLACK
6
CONTINUOUS
10
0.9145988582677165
20
0.4927153543307087
11
0.9153937007874016
21
0.4876968503937008
0
LINE
8
BLACK
6
CONTINUOUS
10
0.9153937007874016
20
0.4876968503937008
11
0.9161885433070865
21
0.4927153543307087
0
LINE
8
BLACK
6
CONTINUOUS
10
0.9161885433070865
20
0.4927153543307087
11
0.9184952755905511
21
0.4972425590551181
0
LINE
8
BLACK
6
CONTINUOUS
10
0.9184952755905511
20
0.4972425590551181
11
0.9220881496062991
21
0.5008354330708661
0
LINE
8
BLACK
6
CONTINUOUS
10
0.9220881496062991
20
0.5008354330708661
11
0.9266153543307086
21
0.5031421653543307
0
LINE
8
BLACK
6
CONTINUOUS
10
0.9266153543307086
20
0.5031421653543307
11
0.9316338582677165
21
0.5039370078740157
0
LINE
8
BLACK
6
CONTINUOUS
10
0.9316338582677165
20
0.5039370078740157
11
0.9483661417322834
21
0.5039370078740157
0
LINE
8
BLACK
6
CONTINUOUS
10
0.9483661417322834
20
0.5039370078740157
11
0.9533846456692913
21
0.5031421653543307
0
LINE
8
BLACK
6
CONTINUOUS
10
0.9533846456692913
20
0.5031421653543307
11
0.9579118503937007
21
0.5008354330708661
0
LINE
8
BLACK
6
CONTINUOUS
10
0.9579118503937007
20
0.5008354330708661
11
0.9615047244094488
21
0.4972425590551181
0
LINE
8
BLACK
6
CONTINUOUS
10
0.9615047244094488
20
0.4972425590551181
11
0.9638114566929133
21
0.4927153543307087
0
LINE
8
BLACK
6
CONTINUOUS
10
0.9638114566929133
20
0.4927153543307087
11
0.9646062992125984
21
0.4876968503937008
0
LINE
8
BLACK
6
CONTINUOUS
10
0.9646062992125984
20
0.4876968503937008
11
0.9654011417322834
21
0.4927153543307087
0
LINE
8
BLACK
6
CONTINUOUS
10
0.9654011417322834
20
0.4927153543307087
11
0.967707874015748
21
0.4972425590551181
0
LINE
8
BLACK
6
CONTINUOUS
10
0.967707874015748
20
0.4972425590551181
11
0.971300748031496
21
0.5008354330708661
0
LINE
8
BLACK
6
CONTINUOUS
10
0.971300748031496
20
0.5008354330708661
11
0.9758279527559055
21
0.5031421653543307
0
LINE
8
BLACK
6
CONTINUOUS
10
0.9758279527559055
20
0.5031421653543307
11
0.9808464566929134
21
0.5039370078740157
0
LINE
8
BLACK
6
CONTINUOUS
10
0.9808464566929134
20
0.5039370078740157
11
0.9975787401574803
21
0.5039370078740157
0
LINE
8
BLACK
6
CONTINUOUS
10
0.9975787401574803
20
0.5039370078740157
11
1.0025972440944881
21
0.5031421653543307
0
LINE
8
BLACK
6
CONTINUOUS
10
1.0025972440944881
20
0.5031421653543307
11
1.0071244488188975
21
0.5008354330708661
0
LINE
8
BLACK
6
CONTINUOUS
10
1.0071244488188975
20
0.5008354330708661
11
1.0107173228346455
21
0.4972425590551181
0
LINE
8
BLACK
6
CONTINUOUS
10
1.0107173228346455
20
0.4972425590551181
11
1.0130240551181102
21
0.4927153543307087
0
LINE
8
BLACK
6
CONTINUOUS
10
1.0130240551181102
20
0.4927153543307087
11
1.0138188976377953
21
0.4876968503937008
0
LINE
8
BLACK
6
CONTINUOUS
10
1.0138188976377953
20
0.4876968503937008
11
1.0146137401574802
21
0.4927153543307087
0
LINE
8
BLACK
6
CONTINUOUS
10
1.0146137401574802
20
0.4927153543307087
11
1.0169204724409449
21
0.4972425590551181
0
LINE
8
BLACK
6
CONTINUOUS
10
1.0169204724409449
20
0.4972425590551181
11
1.0205133464566929
21
0.5008354330708661
0
LINE
8
BLACK
6
CONTINUOUS
10
1.0205133464566929
20
0.5008354330708661
11
1.0250405511811023
21
0.5031421653543307
0
LINE
8
BLACK
6
CONTINUOUS
10
1.0250405511811023
20
0.5031421653543307
11
1.0300590551181101
21
0.5039370078740157
0
LINE
8
BLACK
6
CONTINUOUS
10
1.0300590551181101
20
0.5039370078740157
11
1.046791338582677
21
0.5039370078740157
0
LINE
8
BLACK
6
CONTINUOUS
10
1.046791338582677
20
0.5039370078740157
11
1.0518098425196851
21
0.5031421653543307
0
LINE
8
BLACK
6
CONTINUOUS
10
1.0518098425196851
20
0.5031421653543307
11
1.0563370472440945
21
0.5008354330708661
0
LINE
8
BLACK
6
CONTINUOUS
10
1.0563370472440945
20
0.5008354330708661
11
1.0599299212598425
21
0.4972425590551181
0
LINE
8
BLACK
6
CONTINUOUS
10
1.0599299212598425
20
0.4972425590551181
11
1.062236653543307
21
0.4927153543307087
0
LINE
8
BLACK
6
CONTINUOUS
10
1.062236653543307
20
0.4927153543307087
11
1.0630314960629921
21
0.4876968503937008
0
LINE
8
BLACK
6
CONTINUOUS
10
1.0630314960629921
20
0.4876968503937008
11
1.0630314960629921
21
0.4296259842519685
0
LINE
8
BLACK
6
CONTINUOUS
10
1.0630314960629921
20
0.4296259842519685
11
1.062236653543307
21
0.4246074803149606
0
LINE
8
BLACK
6
CONTINUOUS
10
1.062236653543307
20
0.4246074803149606
11
1.0599299212598425
21
0.4200802755905512
0
LINE
8
BLACK
6
CONTINUOUS
10
1.0599299212598425
20
0.4200802755905512
11
1.0563370472440945
21
0.4164874015748031
0
LINE
8
BLACK
6
CONTINUOUS
10
1.0563370472440945
20
0.4164874015748031
11
1.0518098425196851
21
0.4141806692913386
0
LINE
8
BLACK
6
CONTINUOUS
10
1.0518098425196851
20
0.4141806692913386
11
1.046791338582677
21
0.4133858267716535
0
LINE
8
BLACK
6
CONTINUOUS
10
1.046791338582677
20
0.4133858267716535
11
1.0300590551181101
21
0.4133858267716535
0
LINE
8
BLACK
6
CONTINUOUS
10
1.0300590551181101
20
0.4133858267716535
11
1.0250405511811023
21
0.4141806692913386
0
LINE
8
BLACK
6
CONTINUOUS
10
1.0250405511811023
20
0.4141806692913386
11
1.0205133464566929
21
0.4164874015748031
0
LINE
8
BLACK
6
CONTINUOUS
10
1.0205133464566929
20
0.4164874015748031
11
1.0169204724409449
21
0.4200802755905512
0
LINE
8
BLACK
6
CONTINUOUS
10
1.0169204724409449
20
0.4200802755905512
11
1.0146137401574802
21
0.4246074803149606
0
LINE
8
BLACK
6
CONTINUOUS
10
1.0146137401574802
20
0.4246074803149606
11
1.0138188976377953
21
0.4296259842519685
0
LINE
8
BLACK
6
CONTINUOUS
10
1.0138188976377953
20
0.4296259842519685
11
1.0130240551181102
21
0.4246074803149606
0
LINE
8
BLACK
6
CONTINUOUS
10
1.0130240551181102
20
0.4246074803149606
11
1.0107173228346455
21
0.4200802755905512
0
LINE
8
BLACK
6
CONTINUOUS
10
1.0107173228346455
20
0.4200802755905512
11
1.0071244488188975
21
0.4164874015748031
0
LINE
8
BLACK
6
CONTINUOUS
10
1.0071244488188975
20
0.4164874015748031
11
1.0025972440944881
21
0.4141806692913386
0
LINE
8
BLACK
6
CONTINUOUS
10
1.0025972440944881
20
0.4141806692913386
11
0.9975787401574803
21
0.4133858267716535
0
LINE
8
BLACK
6
CONTINUOUS
10
0.9975787401574803
20
0.4133858267716535
11
0.9808464566929134
21
0.4133858267716535
0
LINE
8
BLACK
6
CONTINUOUS
10
0.9808464566929134
20
0.4133858267716535
11
0.9758279527559055
21
0.4141806692913386
0
LINE
8
BLACK
6
CONTINUOUS
10
0.9758279527559055
20
0.4141806692913386
11
0.971300748031496
21
0.4164874015748031
0
LINE
8
BLACK
6
CONTINUOUS
10
0.971300748031496
20
0.4164874015748031
11
0.967707874015748
21
0.4200802755905512
0
LINE
8
BLACK
6
CONTINUOUS
10
0.967707874015748
20
0.4200802755905512
11
0.9654011417322834
21
0.4246074803149606
0
LINE
8
BLACK
6
CONTINUOUS
10
0.9654011417322834
20
0.4246074803149606
11
0.9646062992125984
21
0.4296259842519685
0
LINE
8
BLACK
6
CONTINUOUS
10
0.9646062992125984
20
0.4296259842519685
11
0.9638114566929133
21
0.4246074803149606
0
LINE
8
BLACK
6
CONTINUOUS
10
0.9638114566929133
20
0.4246074803149606
11
0.9615047244094488
21
0.4200802755905512
0
LINE
8
BLACK
6
CONTINUOUS
10
0.9615047244094488
20
0.4200802755905512
11
0.9579118503937007
21
0.4164874015748031
0
LINE
8
BLACK
6
CONTINUOUS
10
0.9579118503937007
20
0.4164874015748031
11
0.9533846456692913
21
0.4141806692913386
0
LINE
8
BLACK
6
CONTINUOUS
10
0.9533846456692913
20
0.4141806692913386
11
0.9483661417322834
21
0.4133858267716535
0
LINE
8
BLACK
6
CONTINUOUS
10
0.9483661417322834
20
0.4133858267716535
11
0.9316338582677165
21
0.4133858267716535
0
LINE
8
BLACK
6
CONTINUOUS
10
0.9316338582677165
20
0.4133858267716535
11
0.9266153543307086
21
0.4141806692913386
0
LINE
8
BLACK
6
CONTINUOUS
10
0.9266153543307086
20
0.4141806692913386
11
0.9220881496062991
21
0.4164874015748031
0
LINE
8
BLACK
6
CONTINUOUS
10
0.9220881496062991
20
0.4164874015748031
11
0.9184952755905511
21
0.4200802755905512
0
LINE
8
BLACK
6
CONTINUOUS
10
0.9184952755905511
20
0.4200802755905512
11
0.9161885433070865
21
0.4246074803149606
0
LINE
8
BLACK
6
CONTINUOUS
10
0.9161885433070865
20
0.4246074803149606
11
0.9153937007874016
21
0.4296259842519685
0
LINE
8
BLACK
6
CONTINUOUS
10
0.9153937007874016
20
0.4296259842519685
11
0.9145988582677165
21
0.4246074803149606
0
LINE
8
BLACK
6
CONTINUOUS
10
0.9145988582677165
20
0.4246074803149606
11
0.9122921259842519
21
0.4200802755905512
0
LINE
8
BLACK
6
CONTINUOUS
10
0.9122921259842519
20
0.4200802755905512
11
0.9086992519685039
21
0.4164874015748031
0
LINE
8
BLACK
6
CONTINUOUS
10
0.9086992519685039
20
0.4164874015748031
11
0.9041720472440945
21
0.4141806692913386
0
LINE
8
BLACK
6
CONTINUOUS
10
0.9041720472440945
20
0.4141806692913386
11
0.8991535433070866
21
0.4133858267716535
0
LINE
8
BLACK
6
CONTINUOUS
10
0.8991535433070866
20
0.4133858267716535
11
0.8824212598425196
21
0.4133858267716535
0
LINE
8
BLACK
6
CONTINUOUS
10
0.8824212598425196
20
0.4133858267716535
11
0.8774027559055118
21
0.4141806692913386
0
LINE
8
BLACK
6
CONTINUOUS
10
0.8774027559055118
20
0.4141806692913386
11
0.8728755511811024
21
0.4164874015748031
0
LINE
8
BLACK
6
CONTINUOUS
10
0.8728755511811024
20
0.4164874015748031
11
0.8692826771653543
21
0.4200802755905512
0
LINE
8
BLACK
6
CONTINUOUS
10
0.8692826771653543
20
0.4200802755905512
11
0.8669759448818898
21
0.4246074803149606
0
LINE
8
BLACK
6
CONTINUOUS
10
0.8669759448818898
20
0.4246074803149606
11
0.8661811023622047
21
0.4296259842519685
0
LINE
8
BLACK
6
CONTINUOUS
10
0.8661811023622047
20
0.4296259842519685
11
0.8653862598425197
21
0.4246074803149606
0
LINE
8
BLACK
6
CONTINUOUS
10
0.8653862598425197
20
0.4246074803149606
11
0.8630795275590551
21
0.4200802755905512
0
LINE
8
BLACK
6
CONTINUOUS
10
0.8630795275590551
20
0.4200802755905512
11
0.8594866535433071
21
0.4164874015748031
0
LINE
8
BLACK
6
CONTINUOUS
10
0.8594866535433071
20
0.4164874015748031
11
0.8549594488188976
21
0.4141806692913386
0
LINE
8
BLACK
6
CONTINUOUS
10
0.8549594488188976
20
0.4141806692913386
11
0.8499409448818898
21
0.4133858267716535
0
LINE
8
BLACK
6
CONTINUOUS
10
0.8499409448818898
20
0.4133858267716535
11
0.8332086614173229
21
0.4133858267716535
0
LINE
8
BLACK
6
CONTINUOUS
10
0.8332086614173229
20
0.4133858267716535
11
0.828190157480315
21
0.4141806692913386
0
LINE
8
BLACK
6
CONTINUOUS
10
0.828190157480315
20
0.4141806692913386
11
0.8236629527559055
21
0.4164874015748031
0
LINE
8
BLACK
6
CONTINUOUS
10
0.8236629527559055
20
0.4164874015748031
11
0.8200700787401575
21
0.4200802755905512
0
LINE
8
BLACK
6
CONTINUOUS
10
0.8200700787401575
20
0.4200802755905512
11
0.8177633464566929
21
0.4246074803149606
0
LINE
8
BLACK
6
CONTINUOUS
10
0.8177633464566929
20
0.4246074803149606
11
0.8169685039370078
21
0.4296259842519685
0
LINE
8
BLACK
6
CONTINUOUS
10
0.8169685039370078
20
0.4296259842519685
11
0.8169685039370078
21
0.4876968503937008
0
LINE
8
BLACK
6
CONTINUOUS
10
0.8169685039370078
20
0.4876968503937008
11
0.8177633464566929
21
0.4927153543307087
0
LINE
8
BLACK
6
CONTINUOUS
10
0.8177633464566929
20
0.4927153543307087
11
0.8200700787401575
21
0.4972425590551181
0
LINE
8
BLACK
6
CONTINUOUS
10
0.8200700787401575
20
0.4972425590551181
11
0.8236629527559055
21
0.5008354330708661
0
LINE
8
BLACK
6
CONTINUOUS
10
0.8236629527559055
20
0.5008354330708661
11
0.828190157480315
21
0.5031421653543307
0
LINE
8
BLACK
6
CONTINUOUS
10
0.828190157480315
20
0.5031421653543307
11
0.8332086614173229
21
0.5039370078740157
0
LINE
8
BLACK
6
CONTINUOUS
10
0.8332086614173229
20
0.5039370078740157
11
0.8499409448818898
21
0.5039370078740157
0
LINE
8
BLACK
6
CONTINUOUS
10
0.8499409448818898
20
0.5039370078740157
11
0.8549594488188976
21
0.5031421653543307
0
LINE
8
BLACK
6
CONTINUOUS
10
0.1114511811023622
20
0.4691793307086614
11
0.1164358661417323
21
0.4674351181102362
0
LINE
8
BLACK
6
CONTINUOUS
10
0.1164358661417323
20
0.4674351181102362
11
0.1206849606299213
21
0.4642991338582677
0
LINE
8
BLACK
6
CONTINUOUS
10
0.1206849606299213
20
0.4642991338582677
11
0.1238209448818898
21
0.4600500393700787
0
LINE
8
BLACK
6
CONTINUOUS
10
0.1238209448818898
20
0.4600500393700787
11
0.125565157480315
21
0.4550653543307087
0
LINE
8
BLACK
6
CONTINUOUS
10
0.125565157480315
20
0.4550653543307087
11
0.1258740157480315
21
0.4517716535433071
0
LINE
8
BLACK
6
CONTINUOUS
10
0.1258740157480315
20
0.4517716535433071
11
0.1258740157480315
21
0.4320866141732284
0
LINE
8
BLACK
6
CONTINUOUS
10
0.1258740157480315
20
0.4320866141732284
11
0.125565157480315
21
0.4287929133858268
0
LINE
8
BLACK
6
CONTINUOUS
10
0.125565157480315
20
0.4287929133858268
11
0.1238209448818898
21
0.4238082283464567
0
LINE
8
BLACK
6
CONTINUOUS
10
0.1238209448818898
20
0.4238082283464567
11
0.1206849606299213
21
0.4195591338582677
0
LINE
8
BLACK
6
CONTINUOUS
10
0.1206849606299213
20
0.4195591338582677
11
0.1164358661417323
21
0.4164231496062992
0
LINE
8
BLACK
6
CONTINUOUS
10
0.1164358661417323
20
0.4164231496062992
11
0.1114511811023622
21
0.414678937007874
0
LINE
8
BLACK
6
CONTINUOUS
10
0.1114511811023622
20
0.414678937007874
11
0.1081574803149606
21
0.4143700787401575
0
LINE
8
BLACK
6
CONTINUOUS
10
0.1081574803149606
20
0.4143700787401575
11
0.0215433070866142
21
0.4143700787401575
0
LINE
8
BLACK
6
CONTINUOUS
10
0.0215433070866142
20
0.4143700787401575
11
0.0182496062992126
21
0.414678937007874
0
LINE
8
BLACK
6
CONTINUOUS
10
0.0182496062992126
20
0.414678937007874
11
0.0132649212598425
21
0.4164231496062992
0
LINE
8
BLACK
6
CONTINUOUS
10
0.0132649212598425
20
0.4164231496062992
11
0.0090158267716535
21
0.4195591338582677
0
LINE
8
BLACK
6
CONTINUOUS
10
0.0090158267716535
20
0.4195591338582677
11
0.005879842519685
21
0.4238082283464567
0
LINE
8
BLACK
6
CONTINUOUS
10
0.005879842519685
20
0.4238082283464567
11
0.0041356299212598
21
0.4287929133858268
0
LINE
8
BLACK
6
CONTINUOUS
10
0.0041356299212598
20
0.4287929133858268
11
0.0038267716535433
21
0.4320866141732284
0
LINE
8
BLACK
6
CONTINUOUS
10
0.0038267716535433
20
0.4320866141732284
11
0.0038267716535433
21
0.4517716535433071
0
LINE
8
BLACK
6
CONTINUOUS
10
0.0038267716535433
20
0.4517716535433071
11
0.0041356299212598
21
0.4550653543307087
0
LINE
8
BLACK
6
CONTINUOUS
10
0.0041356299212598
20
0.4550653543307087
11
0.005879842519685
21
0.4600500393700787
0
LINE
8
BLACK
6
CONTINUOUS
10
0.005879842519685
20
0.4600500393700787
11
0.0090158267716535
21
0.4642991338582677
0
LINE
8
BLACK
6
CONTINUOUS
10
0.0090158267716535
20
0.4642991338582677
11
0.0132649212598425
21
0.4674351181102362
0
LINE
8
BLACK
6
CONTINUOUS
10
0.0132649212598425
20
0.4674351181102362
11
0.0182496062992126
21
0.4691793307086614
0
LINE
8
BLACK
6
CONTINUOUS
10
0.0182496062992126
20
0.4691793307086614
11
0.0215433070866142
21
0.469488188976378
0
LINE
8
BLACK
6
CONTINUOUS
10
0.0215433070866142
20
0.469488188976378
11
0.1081574803149606
21
0.469488188976378
0
LINE
8
BLACK
6
CONTINUOUS
10
0.1081574803149606
20
0.469488188976378
11
0.1114511811023622
21
0.4691793307086614
0
LINE
8
BLACK
6
CONTINUOUS
10
0.2859431496062992
20
0.5486124803149606
11
0.2902124015748032
21
0.5465253543307087
0
LINE
8
BLACK
6
CONTINUOUS
10
0.2902124015748032
20
0.5465253543307087
11
0.2935725984251968
21
0.5431651574803149
0
LINE
8
BLACK
6
CONTINUOUS
10
0.2935725984251968
20
0.5431651574803149
11
0.2956597244094488
21
0.538895905511811
0
LINE
8
BLACK
6
CONTINUOUS
10
0.2956597244094488
20
0.538895905511811
11
0.2962598031496063
21
0.5347768503937008
0
LINE
8
BLACK
6
CONTINUOUS
10
0.2962598031496063
20
0.5347768503937008
11
0.296259842519685
21
0.4888451574803149
0
LINE
8
BLACK
6
CONTINUOUS
10
0.296259842519685
20
0.4888451574803149
11
0.2956597244094488
21
0.4847261417322835
0
LINE
8
BLACK
6
CONTINUOUS
10
0.2956597244094488
20
0.4847261417322835
11
0.2935725984251968
21
0.4804568897637795
0
LINE
8
BLACK
6
CONTINUOUS
10
0.2935725984251968
20
0.4804568897637795
11
0.2902124015748032
21
0.4770966929133858
0
LINE
8
BLACK
6
CONTINUOUS
10
0.2902124015748032
20
0.4770966929133858
11
0.2859431496062992
21
0.4750095669291339
0
LINE
8
BLACK
6
CONTINUOUS
10
0.2859431496062992
20
0.4750095669291339
11
0.281824094488189
21
0.4744094881889764
0
LINE
8
BLACK
6
CONTINUOUS
10
0.281824094488189
20
0.4744094881889764
11
0.2457349212598425
21
0.4744094488188976
0
LINE
8
BLACK
6
CONTINUOUS
10
0.2457349212598425
20
0.4744094488188976
11
0.241615905511811
21
0.4750095669291339
0
LINE
8
BLACK
6
CONTINUOUS
10
0.241615905511811
20
0.4750095669291339
11
0.2373466535433071
21
0.4770966929133858
0
LINE
8
BLACK
6
CONTINUOUS
10
0.2373466535433071
20
0.4770966929133858
11
0.2339864566929134
21
0.4804568897637795
0
LINE
8
BLACK
6
CONTINUOUS
10
0.2339864566929134
20
0.4804568897637795
11
0.2318993307086614
21
0.4847261417322835
0
LINE
8
BLACK
6
CONTINUOUS
10
0.2318993307086614
20
0.4847261417322835
11
0.2312992519685039
21
0.4888451968503937
0
LINE
8
BLACK
6
CONTINUOUS
10
0.2312992519685039
20
0.4888451968503937
11
0.2312992125984252
21
0.5347768897637795
0
LINE
8
BLACK
6
CONTINUOUS
10
0.2312992125984252
20
0.5347768897637795
11
0.2318993307086614
21
0.538895905511811
0
LINE
8
BLACK
6
CONTINUOUS
10
0.2318993307086614
20
0.538895905511811
11
0.2339864566929134
21
0.5431651574803149
0
LINE
8
BLACK
6
CONTINUOUS
10
0.2339864566929134
20
0.5431651574803149
11
0.2373466535433071
21
0.5465253543307087
0
LINE
8
BLACK
6
CONTINUOUS
10
0.2373466535433071
20
0.5465253543307087
11
0.241615905511811
21
0.5486124803149606
0
LINE
8
BLACK
6
CONTINUOUS
10
0.241615905511811
20
0.5486124803149606
11
0.2457349606299213
21
0.5492125590551181
0
LINE
8
BLACK
6
CONTINUOUS
10
0.2457349606299213
20
0.5492125590551181
11
0.2818241338582677
21
0.5492125984251969
0
LINE
8
BLACK
6
CONTINUOUS
10
0.2818241338582677
20
0.5492125984251969
11
0.2859431496062992
21
0.5486124803149606
0
LINE
8
BLACK
6
CONTINUOUS
10
0.4276754330708661
20
0.5486124803149606
11
0.4319446850393701
21
0.5465253543307087
0
LINE
8
BLACK
6
CONTINUOUS
10
0.4319446850393701
20
0.5465253543307087
11
0.4353048818897638
21
0.5431651574803149
0
LINE
8
BLACK
6
CONTINUOUS
10
0.4353048818897638
20
0.5431651574803149
11
0.4373920078740157
21
0.538895905511811
0
LINE
8
BLACK
6
CONTINUOUS
10
0.4373920078740157
20
0.538895905511811
11
0.4379920866141732
21
0.5347768503937008
0
LINE
8
BLACK
6
CONTINUOUS
10
0.4379920866141732
20
0.5347768503937008
11
0.437992125984252
21
0.4888451574803149
0
LINE
8
BLACK
6
CONTINUOUS
10
0.437992125984252
20
0.4888451574803149
11
0.4373920078740157
21
0.4847261417322835
0
LINE
8
BLACK
6
CONTINUOUS
10
0.4373920078740157
20
0.4847261417322835
11
0.4353048818897638
21
0.4804568897637795
0
LINE
8
BLACK
6
CONTINUOUS
10
0.4353048818897638
20
0.4804568897637795
11
0.4319446850393701
21
0.4770966929133858
0
LINE
8
BLACK
6
CONTINUOUS
10
0.4319446850393701
20
0.4770966929133858
11
0.4276754330708661
21
0.4750095669291339
0
LINE
8
BLACK
6
CONTINUOUS
10
0.4276754330708661
20
0.4750095669291339
11
0.4235563779527559
21
0.4744094881889764
0
LINE
8
BLACK
6
CONTINUOUS
10
0.4235563779527559
20
0.4744094881889764
11
0.3874672047244094
21
0.4744094488188976
0
LINE
8
BLACK
6
CONTINUOUS
10
0.3874672047244094
20
0.4744094488188976
11
0.383348188976378
21
0.4750095669291339
0
LINE
8
BLACK
6
CONTINUOUS
10
0.383348188976378
20
0.4750095669291339
11
0.379078937007874
21
0.4770966929133858
0
LINE
8
BLACK
6
CONTINUOUS
10
0.379078937007874
20
0.4770966929133858
11
0.3757187401574803
21
0.4804568897637795
0
LINE
8
BLACK
6
CONTINUOUS
10
0.3757187401574803
20
0.4804568897637795
11
0.3736316141732283
21
0.4847261417322835
0
LINE
8
BLACK
6
CONTINUOUS
10
0.3736316141732283
20
0.4847261417322835
11
0.3730315354330709
21
0.4888451968503937
0
LINE
8
BLACK
6
CONTINUOUS
10
0.3730315354330709
20
0.4888451968503937
11
0.3730314960629921
21
0.5347768897637795
0
LINE
8
BLACK
6
CONTINUOUS
10
0.3730314960629921
20
0.5347768897637795
11
0.3736316141732283
21
0.538895905511811
0
LINE
8
BLACK
6
CONTINUOUS
10
0.3736316141732283
20
0.538895905511811
11
0.3757187401574803
21
0.5431651574803149
0
LINE
8
BLACK
6
CONTINUOUS
10
0.3757187401574803
20
0.5431651574803149
11
0.379078937007874
21
0.5465253543307087
0
LINE
8
BLACK
6
CONTINUOUS
10
0.379078937007874
20
0.5465253543307087
11
0.383348188976378
21
0.5486124803149606
0
LINE
8
BLACK
6
CONTINUOUS
10
0.383348188976378
20
0.5486124803149606
11
0.3874672440944882
21
0.5492125590551181
0
LINE
8
BLACK
6
CONTINUOUS
10
0.3874672440944882
20
0.5492125590551181
11
0.4235564173228346
21
0.5492125984251969
0
LINE
8
BLACK
6
CONTINUOUS
10
0.4235564173228346
20
0.5492125984251969
11
0.4276754330708661
21
0.5486124803149606
0
LINE
8
BLACK
6
CONTINUOUS
10
0.1129223622047244
20
0.6477992125984252
11
0.1221473622047244
21
0.6446322834645669
0
LINE
8
BLACK
6
CONTINUOUS
10
0.1221473622047244
20
0.6446322834645669
11
0.1307252755905512
21
0.639990157480315
0
LINE
8
BLACK
6
CONTINUOUS
10
0.1307252755905512
20
0.639990157480315
11
0.138422125984252
21
0.6339994488188976
0
LINE
8
BLACK
6
CONTINUOUS
10
0.138422125984252
20
0.6339994488188976
11
0.1450279921259842
21
0.6268235826771653
0
LINE
8
BLACK
6
CONTINUOUS
10
0.1450279921259842
20
0.6268235826771653
11
0.1503626377952756
21
0.6186583070866142
0
LINE
8
BLACK
6
CONTINUOUS
10
0.1503626377952756
20
0.6186583070866142
11
0.1542805511811024
21
0.6097263385826771
0
LINE
8
BLACK
6
CONTINUOUS
10
0.1542805511811024
20
0.6097263385826771
11
0.1566748818897638
21
0.6002713385826771
0
LINE
8
BLACK
6
CONTINUOUS
10
0.1566748818897638
20
0.6002713385826771
11
0.1574803149606299
21
0.5905511811023622
0
LINE
8
BLACK
6
CONTINUOUS
10
0.1574803149606299
20
0.5905511811023622
11
0.1566748818897638
21
0.5808310236220472
0
LINE
8
BLACK
6
CONTINUOUS
10
0.1566748818897638
20
0.5808310236220472
11
0.1542805511811024
21
0.5713760236220472
0
LINE
8
BLACK
6
CONTINUOUS
10
0.1542805511811024
20
0.5713760236220472
11
0.1503626377952756
21
0.5624440551181102
0
LINE
8
BLACK
6
CONTINUOUS
10
0.1503626377952756
20
0.5624440551181102
11
0.1450279921259842
21
0.554278779527559
0
LINE
8
BLACK
6
CONTINUOUS
10
0.1450279921259842
20
0.554278779527559
11
0.138422125984252
21
0.5471029133858267
0
LINE
8
BLACK
6
CONTINUOUS
10
0.138422125984252
20
0.5471029133858267
11
0.1307252755905512
21
0.5411122047244095
0
LINE
8
BLACK
6
CONTINUOUS
10
0.1307252755905512
20
0.5411122047244095
11
0.1221473622047244
21
0.5364700787401575
0
LINE
8
BLACK
6
CONTINUOUS
10
0.1221473622047244
20
0.5364700787401575
11
0.1129223622047244
21
0.5333031496062992
0
LINE
8
BLACK
6
CONTINUOUS
10
0.1129223622047244
20
0.5333031496062992
11
0.1033019291338583
21
0.5316977559055118
0
LINE
8
BLACK
6
CONTINUOUS
10
0.1033019291338583
20
0.5316977559055118
11
0.0935484645669291
21
0.5316977559055118
0
LINE
8
BLACK
6
CONTINUOUS
10
0.0935484645669291
20
0.5316977559055118
11
0.083928031496063
21
0.5333031496062992
0
LINE
8
BLACK
6
CONTINUOUS
10
0.083928031496063
20
0.5333031496062992
11
0.074703031496063
21
0.5364700787401575
0
LINE
8
BLACK
6
CONTINUOUS
10
0.074703031496063
20
0.5364700787401575
11
0.0661251181102362
21
0.5411122047244095
0
LINE
8
BLACK
6
CONTINUOUS
10
0.0661251181102362
20
0.5411122047244095
11
0.0584282677165354
21
0.5471029133858267
0
LINE
8
BLACK
6
CONTINUOUS
10
0.0584282677165354
20
0.5471029133858267
11
0.0518224015748031
21
0.554278779527559
0
LINE
8
BLACK
6
CONTINUOUS
10
0.0518224015748031
20
0.554278779527559
11
0.0464877559055118
21
0.5624440551181102
0
LINE
8
BLACK
6
CONTINUOUS
10
0.0464877559055118
20
0.5624440551181102
11
0.042569842519685
21
0.5713760236220472
0
LINE
8
BLACK
6
CONTINUOUS
10
0.042569842519685
20
0.5713760236220472
11
0.0401755118110236
21
0.5808310236220472
0
LINE
8
BLACK
6
CONTINUOUS
10
0.0401755118110236
20
0.5808310236220472
11
0.0393700787401575
21
0.5905511811023622
0
LINE
8
BLACK
6
CONTINUOUS
10
0.0393700787401575
20
0.5905511811023622
11
0.0401755118110236
21
0.6002713385826771
0
LINE
8
BLACK
6
CONTINUOUS
10
0.0401755118110236
20
0.6002713385826771
11
0.042569842519685
21
0.6097263385826771
0
LINE
8
BLACK
6
CONTINUOUS
10
0.042569842519685
20
0.6097263385826771
11
0.0464877559055118
21
0.6186583070866142
0
LINE
8
BLACK
6
CONTINUOUS
10
0.0464877559055118
20
0.6186583070866142
11
0.0518224015748031
21
0.6268235826771653
0
LINE
8
BLACK
6
CONTINUOUS
10
0.0518224015748031
20
0.6268235826771653
11
0.0584282677165354
21
0.6339994488188976
0
LINE
8
BLACK
6
CONTINUOUS
10
0.0584282677165354
20
0.6339994488188976
11
0.0661251181102362
21
0.639990157480315
0
LINE
8
BLACK
6
CONTINUOUS
10
0.0661251181102362
20
0.639990157480315
11
0.074703031496063
21
0.6446322834645669
0
LINE
8
BLACK
6
CONTINUOUS
10
0.074703031496063
20
0.6446322834645669
11
0.083928031496063
21
0.6477992125984252
0
LINE
8
BLACK
6
CONTINUOUS
10
0.083928031496063
20
0.6477992125984252
11
0.0935484645669291
21
0.6494046062992126
0
LINE
8
BLACK
6
CONTINUOUS
10
0.0935484645669291
20
0.6494046062992126
11
0.1033019291338583
21
0.6494046062992126
0
LINE
8
BLACK
6
CONTINUOUS
10
0.1033019291338583
20
0.6494046062992126
11
0.1129223622047244
21
0.6477992125984252
0
LINE
8
BLACK
6
CONTINUOUS
10
0.5066231496062992
20
0.6477992125984252
11
0.5158481496062992
21
0.6446322834645669
0
LINE
8
BLACK
6
CONTINUOUS
10
0.5158481496062992
20
0.6446322834645669
11
0.524426062992126
21
0.639990157480315
0
LINE
8
BLACK
6
CONTINUOUS
10
0.524426062992126
20
0.639990157480315
11
0.5321229133858267
21
0.6339994488188976
0
LINE
8
BLACK
6
CONTINUOUS
10
0.5321229133858267
20
0.6339994488188976
11
0.538728779527559
21
0.6268235826771653
0
LINE
8
BLACK
6
CONTINUOUS
10
0.538728779527559
20
0.6268235826771653
11
0.5440634251968504
21
0.6186583070866142
0
LINE
8
BLACK
6
CONTINUOUS
10
0.5440634251968504
20
0.6186583070866142
11
0.5479813385826772
21
0.6097263385826771
0
LINE
8
BLACK
6
CONTINUOUS
10
0.5479813385826772
20
0.6097263385826771
11
0.5503756692913385
21
0.6002713385826771
0
LINE
8
BLACK
6
CONTINUOUS
10
0.5503756692913385
20
0.6002713385826771
11
0.5511811023622047
21
0.5905511811023622
0
LINE
8
BLACK
6
CONTINUOUS
10
0.5511811023622047
20
0.5905511811023622
11
0.5503756692913385
21
0.5808310236220472
0
LINE
8
BLACK
6
CONTINUOUS
10
0.5503756692913385
20
0.5808310236220472
11
0.5479813385826772
21
0.5713760236220472
0
LINE
8
BLACK
6
CONTINUOUS
10
0.5479813385826772
20
0.5713760236220472
11
0.5440634251968504
21
0.5624440551181102
0
LINE
8
BLACK
6
CONTINUOUS
10
0.5440634251968504
20
0.5624440551181102
11
0.538728779527559
21
0.554278779527559
0
LINE
8
BLACK
6
CONTINUOUS
10
0.538728779527559
20
0.554278779527559
11
0.5321229133858267
21
0.5471029133858267
0
LINE
8
BLACK
6
CONTINUOUS
10
0.5321229133858267
20
0.5471029133858267
11
0.524426062992126
21
0.5411122047244095
0
LINE
8
BLACK
6
CONTINUOUS
10
0.524426062992126
20
0.5411122047244095
11
0.5158481496062992
21
0.5364700787401575
0
LINE
8
BLACK
6
CONTINUOUS
10
0.5158481496062992
20
0.5364700787401575
11
0.5066231496062992
21
0.5333031496062992
0
LINE
8
BLACK
6
CONTINUOUS
10
0.5066231496062992
20
0.5333031496062992
11
0.497002716535433
21
0.5316977559055118
0
LINE
8
BLACK
6
CONTINUOUS
10
0.497002716535433
20
0.5316977559055118
11
0.4872492519685039
21
0.5316977559055118
0
LINE
8
BLACK
6
CONTINUOUS
10
0.4872492519685039
20
0.5316977559055118
11
0.4776288188976378
21
0.5333031496062992
0
LINE
8
BLACK
6
CONTINUOUS
10
0.4776288188976378
20
0.5333031496062992
11
0.4684038188976378
21
0.5364700787401575
0
LINE
8
BLACK
6
CONTINUOUS
10
0.4684038188976378
20
0.5364700787401575
11
0.459825905511811
21
0.5411122047244095
0
LINE
8
BLACK
6
CONTINUOUS
10
0.459825905511811
20
0.5411122047244095
11
0.4521290551181102
21
0.5471029133858267
0
LINE
8
BLACK
6
CONTINUOUS
10
0.4521290551181102
20
0.5471029133858267
11
0.4455231889763779
21
0.554278779527559
0
LINE
8
BLACK
6
CONTINUOUS
10
0.4455231889763779
20
0.554278779527559
11
0.4401885433070866
21
0.5624440551181102
0
LINE
8
BLACK
6
CONTINUOUS
10
0.4401885433070866
20
0.5624440551181102
11
0.4362706299212598
21
0.5713760236220472
0
LINE
8
BLACK
6
CONTINUOUS
10
0.4362706299212598
20
0.5713760236220472
11
0.4338762992125984
21
0.5808310236220472
0
LINE
8
BLACK
6
CONTINUOUS
10
0.4338762992125984
20
0.5808310236220472
11
0.4330708661417323
21
0.5905511811023622
0
LINE
8
BLACK
6
CONTINUOUS
10
0.4330708661417323
20
0.5905511811023622
11
0.4338762992125984
21
0.6002713385826771
0
LINE
8
BLACK
6
CONTINUOUS
10
0.4338762992125984
20
0.6002713385826771
11
0.4362706299212598
21
0.6097263385826771
0
LINE
8
BLACK
6
CONTINUOUS
10
0.4362706299212598
20
0.6097263385826771
11
0.4401885433070866
21
0.6186583070866142
0
LINE
8
BLACK
6
CONTINUOUS
10
0.4401885433070866
20
0.6186583070866142
11
0.4455231889763779
21
0.6268235826771653
0
LINE
8
BLACK
6
CONTINUOUS
10
0.4455231889763779
20
0.6268235826771653
11
0.4521290551181102
21
0.6339994488188976
0
LINE
8
BLACK
6
CONTINUOUS
10
0.4521290551181102
20
0.6339994488188976
11
0.459825905511811
21
0.639990157480315
0
LINE
8
BLACK
6
CONTINUOUS
10
0.459825905511811
20
0.639990157480315
11
0.4684038188976378
21
0.6446322834645669
0
LINE
8
BLACK
6
CONTINUOUS
10
0.4684038188976378
20
0.6446322834645669
11
0.4776288188976378
21
0.6477992125984252
0
LINE
8
BLACK
6
CONTINUOUS
10
0.4776288188976378
20
0.6477992125984252
11
0.4872492519685039
21
0.6494046062992126
0
LINE
8
BLACK
6
CONTINUOUS
10
0.4872492519685039
20
0.6494046062992126
11
0.497002716535433
21
0.6494046062992126
0
LINE
8
BLACK
6
CONTINUOUS
10
0.497002716535433
20
0.6494046062992126
11
0.5066231496062992
21
0.6477992125984252
0
LINE
8
BLACK
6
CONTINUOUS
10
0.9003239370078739
20
0.6477992125984252
11
0.909548937007874
21
0.6446322834645669
0
LINE
8
BLACK
6
CONTINUOUS
10
0.909548937007874
20
0.6446322834645669
11
0.9181268503937008
21
0.639990157480315
0
LINE
8
BLACK
6
CONTINUOUS
10
0.9181268503937008
20
0.639990157480315
11
0.9258237007874015
21
0.6339994488188976
0
LINE
8
BLACK
6
CONTINUOUS
10
0.9258237007874015
20
0.6339994488188976
11
0.9324295669291338
21
0.6268235826771653
0
LINE
8
BLACK
6
CONTINUOUS
10
0.9324295669291338
20
0.6268235826771653
11
0.9377642125984251
21
0.6186583070866142
0
LINE
8
BLACK
6
CONTINUOUS
10
0.9377642125984251
20
0.6186583070866142
11
0.9416821259842519
21
0.6097263385826771
0
LINE
8
BLACK
6
CONTINUOUS
10
0.9416821259842519
20
0.6097263385826771
11
0.9440764566929134
21
0.6002713385826771
0
LINE
8
BLACK
6
CONTINUOUS
10
0.9440764566929134
20
0.6002713385826771
11
0.9448818897637795
21
0.5905511811023622
0
LINE
8
BLACK
6
CONTINUOUS
10
0.9448818897637795
20
0.5905511811023622
11
0.9440764566929134
21
0.5808310236220472
0
LINE
8
BLACK
6
CONTINUOUS
10
0.9440764566929134
20
0.5808310236220472
11
0.9416821259842519
21
0.5713760236220472
0
LINE
8
BLACK
6
CONTINUOUS
10
0.9416821259842519
20
0.5713760236220472
11
0.9377642125984251
21
0.5624440551181102
0
LINE
8
BLACK
6
CONTINUOUS
10
0.9377642125984251
20
0.5624440551181102
11
0.9324295669291338
21
0.554278779527559
0
LINE
8
BLACK
6
CONTINUOUS
10
0.9324295669291338
20
0.554278779527559
11
0.9258237007874015
21
0.5471029133858267
0
LINE
8
BLACK
6
CONTINUOUS
10
0.9258237007874015
20
0.5471029133858267
11
0.9181268503937008
21
0.5411122047244095
0
LINE
8
BLACK
6
CONTINUOUS
10
0.9181268503937008
20
0.5411122047244095
11
0.909548937007874
21
0.5364700787401575
0
LINE
8
BLACK
6
CONTINUOUS
10
0.909548937007874
20
0.5364700787401575
11
0.9003239370078739
21
0.5333031496062992
0
LINE
8
BLACK
6
CONTINUOUS
10
0.9003239370078739
20
0.5333031496062992
11
0.8907035039370078
21
0.5316977559055118
0
LINE
8
BLACK
6
CONTINUOUS
10
0.8907035039370078
20
0.5316977559055118
11
0.8809500393700788
21
0.5316977559055118
0
LINE
8
BLACK
6
CONTINUOUS
10
0.8809500393700788
20
0.5316977559055118
11
0.8713296062992126
21
0.5333031496062992
0
LINE
8
BLACK
6
CONTINUOUS
10
0.8713296062992126
20
0.5333031496062992
11
0.8621046062992126
21
0.5364700787401575
0
LINE
8
BLACK
6
CONTINUOUS
10
0.8621046062992126
20
0.5364700787401575
11
0.8535266929133858
21
0.5411122047244095
0
LINE
8
BLACK
6
CONTINUOUS
10
0.8535266929133858
20
0.5411122047244095
11
0.8458298425196851
21
0.5471029133858267
0
LINE
8
BLACK
6
CONTINUOUS
10
0.8458298425196851
20
0.5471029133858267
11
0.8392239763779528
21
0.554278779527559
0
LINE
8
BLACK
6
CONTINUOUS
10
0.8392239763779528
20
0.554278779527559
11
0.8338893307086614
21
0.5624440551181102
0
LINE
8
BLACK
6
CONTINUOUS
10
0.8338893307086614
20
0.5624440551181102
11
0.8299714173228346
21
0.5713760236220472
0
LINE
8
BLACK
6
CONTINUOUS
10
0.8299714173228346
20
0.5713760236220472
11
0.8275770866141732
21
0.5808310236220472
0
LINE
8
BLACK
6
CONTINUOUS
10
0.8275770866141732
20
0.5808310236220472
11
0.8267716535433071
21
0.5905511811023622
0
LINE
8
BLACK
6
CONTINUOUS
10
0.8267716535433071
20
0.5905511811023622
11
0.8275770866141732
21
0.6002713385826771
0
LINE
8
BLACK
6
CONTINUOUS
10
0.8275770866141732
20
0.6002713385826771
11
0.8299714173228346
21
0.6097263385826771
0
LINE
8
BLACK
6
CONTINUOUS
10
0.8299714173228346
20
0.6097263385826771
11
0.8338893307086614
21
0.6186583070866142
0
LINE
8
BLACK
6
CONTINUOUS
10
0.8338893307086614
20
0.6186583070866142
11
0.8392239763779528
21
0.6268235826771653
0
LINE
8
BLACK
6
CONTINUOUS
10
0.8392239763779528
20
0.6268235826771653
11
0.8458298425196851
21
0.6339994488188976
0
LINE
8
BLACK
6
CONTINUOUS
10
0.8458298425196851
20
0.6339994488188976
11
0.8535266929133858
21
0.639990157480315
0
LINE
8
BLACK
6
CONTINUOUS
10
0.8535266929133858
20
0.639990157480315
11
0.8621046062992126
21
0.6446322834645669
0
LINE
8
BLACK
6
CONTINUOUS
10
0.8621046062992126
20
0.6446322834645669
11
0.8713296062992126
21
0.6477992125984252
0
LINE
8
BLACK
6
CONTINUOUS
10
0.8713296062992126
20
0.6477992125984252
11
0.8809500393700788
21
0.6494046062992126
0
LINE
8
BLACK
6
CONTINUOUS
10
0.8809500393700788
20
0.6494046062992126
11
0.8907035039370078
21
0.6494046062992126
0
LINE
8
BLACK
6
CONTINUOUS
10
0.8907035039370078
20
0.6494046062992126
11
0.9003239370078739
21
0.6477992125984252
  0
ENDSEC
  0
EOF
