  0
SECTION
  2
HEADER
  9
$ANGBASE
  50
0.0
  9
$ANGDIR
  70
1
  9
$MEASUREMENT
  70
0
  0
ENDSEC
  0
SECTION
  2
TABLES
  0
TABLE
  2
LTYPE
  70
4
  0
LTYPE
  5
40F
  2
CONTINUOUS
  70
0
  3
Solid line
  72
65
  73
0
  40
0.0
  0
LTYPE
  5
410
  2
DASHDOT
 70
0
  3
Dash Dot ____ _ ____ _
 72
65
 73
4
 40
2.0
 49
1.25
 49
-0.25
 49
0.25
 49
-0.25
  0
LTYPE
  5
411
  2
DASHED
 70
0
  3
Dashed __ __ __ __ __
 72
65
 73
2
 40
0.75
 49
0.5
 49
-0.25
  0
LTYPE
  5
43B
  2
DOTTED
 70
0
  3
Dotted .  .  .  .
 72
65
 73
2
 40
0.2
 49
0.0
 49
-0.2
  0
ENDTAB
  0
TABLE
  2
STYLE
  70
4
  0
STYLE
  2
KICAD
  70
0
  40
0
  41
1
  42
1
  50
0
  71
0
  3
isocp.shx
  0
STYLE
  2
KICADB
  70
0
  40
0
  41
1
  42
1
  50
0
  71
0
  3
isocp.shx
  0
STYLE
  2
KICADI
  70
0
  40
0
  41
1
  42
1
  50
15
  71
0
  3
isocp.shx
  0
STYLE
  2
KICADBI
  70
0
  40
0
  41
1
  42
1
  50
15
  71
0
  3
isocp.shx
  0
ENDTAB
  0
TABLE
  2
LAYER
  70
1
  0
LAYER
  2
BLACK
  70
0
  62
7
  6
CONTINUOUS
  0
ENDTAB
  0
ENDSEC
  0
SECTION
  2
ENTITIES
0
LINE
8
BLACK
6
CONTINUOUS
10
0.184308
20
0.078622
11
0.18542
21
0.0769365
0
LINE
8
BLACK
6
CONTINUOUS
10
0.18542
20
0.0769365
11
0.18519
21
0.07493
0
LINE
8
BLACK
6
CONTINUOUS
10
0.18519
20
0.07493
11
0.183315
21
0.0711804
0
LINE
8
BLACK
6
CONTINUOUS
10
0.183315
20
0.0711804
11
0.182789
21
0.0704714
0
LINE
8
BLACK
6
CONTINUOUS
10
0.182789
20
0.0704714
11
0.182762
21
0.070413
0
LINE
8
BLACK
6
CONTINUOUS
10
0.182762
20
0.070413
11
0.180303
21
0.0679546
0
LINE
8
BLACK
6
CONTINUOUS
10
0.180303
20
0.0679546
11
0.207717
21
0.0679546
0
LINE
8
BLACK
6
CONTINUOUS
10
0.207717
20
0.0679546
11
0.207717
21
0.0762505
0
LINE
8
BLACK
6
CONTINUOUS
10
0.207717
20
0.0762505
11
0.207895
21
0.0772604
0
LINE
8
BLACK
6
CONTINUOUS
10
0.207895
20
0.0772604
11
0.209194
21
0.0788076
0
LINE
8
BLACK
6
CONTINUOUS
10
0.209194
20
0.0788076
11
0.211183
21
0.0791584
0
LINE
8
BLACK
6
CONTINUOUS
10
0.211183
20
0.0791584
11
0.212932
21
0.0781485
0
LINE
8
BLACK
6
CONTINUOUS
10
0.212932
20
0.0781485
11
0.213623
21
0.0762505
0
LINE
8
BLACK
6
CONTINUOUS
10
0.213623
20
0.0762505
11
0.213623
21
0.0537533
0
LINE
8
BLACK
6
CONTINUOUS
10
0.213623
20
0.0537533
11
0.213445
21
0.0527434
0
LINE
8
BLACK
6
CONTINUOUS
10
0.213445
20
0.0527434
11
0.212146
21
0.0511961
0
LINE
8
BLACK
6
CONTINUOUS
10
0.212146
20
0.0511961
11
0.210157
21
0.0508454
0
LINE
8
BLACK
6
CONTINUOUS
10
0.210157
20
0.0508454
11
0.208408
21
0.0518553
0
LINE
8
BLACK
6
CONTINUOUS
10
0.208408
20
0.0518553
11
0.207717
21
0.0537533
0
LINE
8
BLACK
6
CONTINUOUS
10
0.207717
20
0.0537533
11
0.207717
21
0.0620491
0
LINE
8
BLACK
6
CONTINUOUS
10
0.207717
20
0.0620491
11
0.1713
21
0.0620491
0
LINE
8
BLACK
6
CONTINUOUS
10
0.1713
20
0.0620491
11
0.17029
21
0.0622272
0
LINE
8
BLACK
6
CONTINUOUS
10
0.17029
20
0.0622272
11
0.17016
21
0.0623363
0
LINE
8
BLACK
6
CONTINUOUS
10
0.17016
20
0.0623363
11
0.169991
21
0.062355
0
LINE
8
BLACK
6
CONTINUOUS
10
0.169991
20
0.062355
11
0.169399
21
0.0629746
0
LINE
8
BLACK
6
CONTINUOUS
10
0.169399
20
0.0629746
11
0.168743
21
0.0635255
0
LINE
8
BLACK
6
CONTINUOUS
10
0.168743
20
0.0635255
11
0.168713
21
0.0636928
0
LINE
8
BLACK
6
CONTINUOUS
10
0.168713
20
0.0636928
11
0.168596
21
0.0638155
0
LINE
8
BLACK
6
CONTINUOUS
10
0.168596
20
0.0638155
11
0.168541
21
0.0646707
0
LINE
8
BLACK
6
CONTINUOUS
10
0.168541
20
0.0646707
11
0.168392
21
0.0655146
0
LINE
8
BLACK
6
CONTINUOUS
10
0.168392
20
0.0655146
11
0.168477
21
0.0656617
0
LINE
8
BLACK
6
CONTINUOUS
10
0.168477
20
0.0656617
11
0.168466
21
0.0658311
0
LINE
8
BLACK
6
CONTINUOUS
10
0.168466
20
0.0658311
11
0.168973
21
0.0665217
0
LINE
8
BLACK
6
CONTINUOUS
10
0.168973
20
0.0665217
11
0.169402
21
0.0672638
0
LINE
8
BLACK
6
CONTINUOUS
10
0.169402
20
0.0672638
11
0.169561
21
0.0673219
0
LINE
8
BLACK
6
CONTINUOUS
10
0.169561
20
0.0673219
11
0.169662
21
0.0674587
0
LINE
8
BLACK
6
CONTINUOUS
10
0.169662
20
0.0674587
11
0.175043
21
0.0710461
0
LINE
8
BLACK
6
CONTINUOUS
10
0.175043
20
0.0710461
11
0.178247
21
0.07425
0
LINE
8
BLACK
6
CONTINUOUS
10
0.178247
20
0.07425
11
0.179908
21
0.077571
0
LINE
8
BLACK
6
CONTINUOUS
10
0.179908
20
0.077571
11
0.180518
21
0.0783946
0
LINE
8
BLACK
6
CONTINUOUS
10
0.180518
20
0.0783946
11
0.182372
21
0.0791979
0
LINE
8
BLACK
6
CONTINUOUS
10
0.182372
20
0.0791979
11
0.184308
21
0.078622
0
LINE
8
BLACK
6
CONTINUOUS
10
0.738521
20
0.171552
11
0.739213
21
0.169882
0
LINE
8
BLACK
6
CONTINUOUS
10
0.739213
20
0.169882
11
0.739213
21
0.0944882
0
LINE
8
BLACK
6
CONTINUOUS
10
0.739213
20
0.0944882
11
0.814606
21
0.0944882
0
LINE
8
BLACK
6
CONTINUOUS
10
0.814606
20
0.0944882
11
0.816277
21
0.0937963
0
LINE
8
BLACK
6
CONTINUOUS
10
0.816277
20
0.0937963
11
0.816969
21
0.092126
0
LINE
8
BLACK
6
CONTINUOUS
10
0.816969
20
0.092126
11
0.816277
21
0.0904557
0
LINE
8
BLACK
6
CONTINUOUS
10
0.816277
20
0.0904557
11
0.814606
21
0.0897638
0
LINE
8
BLACK
6
CONTINUOUS
10
0.814606
20
0.0897638
11
0.73685
21
0.0897638
0
LINE
8
BLACK
6
CONTINUOUS
10
0.73685
20
0.0897638
11
0.73518
21
0.0904557
0
LINE
8
BLACK
6
CONTINUOUS
10
0.73518
20
0.0904557
11
0.734488
21
0.092126
0
LINE
8
BLACK
6
CONTINUOUS
10
0.734488
20
0.092126
11
0.734488
21
0.169882
0
LINE
8
BLACK
6
CONTINUOUS
10
0.734488
20
0.169882
11
0.73518
21
0.171552
0
LINE
8
BLACK
6
CONTINUOUS
10
0.73518
20
0.171552
11
0.73685
21
0.172244
0
LINE
8
BLACK
6
CONTINUOUS
10
0.73685
20
0.172244
11
0.738521
21
0.171552
0
LINE
8
BLACK
6
CONTINUOUS
10
1.14482
20
0.171552
11
1.14551
21
0.169882
0
LINE
8
BLACK
6
CONTINUOUS
10
1.14551
20
0.169882
11
1.14551
21
0.092126
0
LINE
8
BLACK
6
CONTINUOUS
10
1.14551
20
0.092126
11
1.14482
21
0.0904557
0
LINE
8
BLACK
6
CONTINUOUS
10
1.14482
20
0.0904557
11
1.14315
21
0.0897638
0
LINE
8
BLACK
6
CONTINUOUS
10
1.14315
20
0.0897638
11
1.14148
21
0.0904557
0
LINE
8
BLACK
6
CONTINUOUS
10
1.14148
20
0.0904557
11
1.14079
21
0.092126
0
LINE
8
BLACK
6
CONTINUOUS
10
1.14079
20
0.092126
11
1.14079
21
0.169882
0
LINE
8
BLACK
6
CONTINUOUS
10
1.14079
20
0.169882
11
1.14148
21
0.171552
0
LINE
8
BLACK
6
CONTINUOUS
10
1.14148
20
0.171552
11
1.14315
21
0.172244
0
LINE
8
BLACK
6
CONTINUOUS
10
1.14315
20
0.172244
11
1.14482
21
0.171552
0
LINE
8
BLACK
6
CONTINUOUS
10
0.212932
20
0.110019
11
0.213623
21
0.108121
0
LINE
8
BLACK
6
CONTINUOUS
10
0.213623
20
0.108121
11
0.213623
21
0.104372
0
LINE
8
BLACK
6
CONTINUOUS
10
0.213623
20
0.104372
11
0.213469
21
0.103503
0
LINE
8
BLACK
6
CONTINUOUS
10
0.213469
20
0.103503
11
0.213471
21
0.103438
0
LINE
8
BLACK
6
CONTINUOUS
10
0.213471
20
0.103438
11
0.211596
21
0.0978139
0
LINE
8
BLACK
6
CONTINUOUS
10
0.211596
20
0.0978139
11
0.211108
21
0.0969122
0
LINE
8
BLACK
6
CONTINUOUS
10
0.211108
20
0.0969122
11
0.210958
21
0.0968198
0
LINE
8
BLACK
6
CONTINUOUS
10
0.210958
20
0.0968198
11
0.210883
21
0.0966598
0
LINE
8
BLACK
6
CONTINUOUS
10
0.210883
20
0.0966598
11
0.207134
21
0.0929102
0
LINE
8
BLACK
6
CONTINUOUS
10
0.207134
20
0.0929102
11
0.206294
21
0.092322
0
LINE
8
BLACK
6
CONTINUOUS
10
0.206294
20
0.092322
11
0.206118
21
0.0923067
0
LINE
8
BLACK
6
CONTINUOUS
10
0.206118
20
0.0923067
11
0.205979
21
0.0921969
0
LINE
8
BLACK
6
CONTINUOUS
10
0.205979
20
0.0921969
11
0.200355
21
0.0903222
0
LINE
8
BLACK
6
CONTINUOUS
10
0.200355
20
0.0903222
11
0.199482
21
0.0901927
0
LINE
8
BLACK
6
CONTINUOUS
10
0.199482
20
0.0901927
11
0.199421
21
0.0901706
0
LINE
8
BLACK
6
CONTINUOUS
10
0.199421
20
0.0901706
11
0.1713
21
0.0901706
0
LINE
8
BLACK
6
CONTINUOUS
10
0.1713
20
0.0901706
11
0.17029
21
0.0903487
0
LINE
8
BLACK
6
CONTINUOUS
10
0.17029
20
0.0903487
11
0.168743
21
0.091647
0
LINE
8
BLACK
6
CONTINUOUS
10
0.168743
20
0.091647
11
0.168392
21
0.0936361
0
LINE
8
BLACK
6
CONTINUOUS
10
0.168392
20
0.0936361
11
0.169402
21
0.0953853
0
LINE
8
BLACK
6
CONTINUOUS
10
0.169402
20
0.0953853
11
0.1713
21
0.0960761
0
LINE
8
BLACK
6
CONTINUOUS
10
0.1713
20
0.0960761
11
0.198942
21
0.0960761
0
LINE
8
BLACK
6
CONTINUOUS
10
0.198942
20
0.0960761
11
0.203451
21
0.097579
0
LINE
8
BLACK
6
CONTINUOUS
10
0.203451
20
0.097579
11
0.206214
21
0.100343
0
LINE
8
BLACK
6
CONTINUOUS
10
0.206214
20
0.100343
11
0.207717
21
0.104851
0
LINE
8
BLACK
6
CONTINUOUS
10
0.207717
20
0.104851
11
0.207717
21
0.108121
0
LINE
8
BLACK
6
CONTINUOUS
10
0.207717
20
0.108121
11
0.207895
21
0.109131
0
LINE
8
BLACK
6
CONTINUOUS
10
0.207895
20
0.109131
11
0.209194
21
0.110679
0
LINE
8
BLACK
6
CONTINUOUS
10
0.209194
20
0.110679
11
0.211183
21
0.111029
0
LINE
8
BLACK
6
CONTINUOUS
10
0.211183
20
0.111029
11
0.212932
21
0.110019
0
LINE
8
BLACK
6
CONTINUOUS
10
0.353511
20
0.139239
11
0.355058
21
0.13794
0
LINE
8
BLACK
6
CONTINUOUS
10
0.355058
20
0.13794
11
0.355409
21
0.135951
0
LINE
8
BLACK
6
CONTINUOUS
10
0.355409
20
0.135951
11
0.354399
21
0.134202
0
LINE
8
BLACK
6
CONTINUOUS
10
0.354399
20
0.134202
11
0.352501
21
0.133511
0
LINE
8
BLACK
6
CONTINUOUS
10
0.352501
20
0.133511
11
0.334636
21
0.133511
0
LINE
8
BLACK
6
CONTINUOUS
10
0.334636
20
0.133511
11
0.343474
21
0.12341
0
LINE
8
BLACK
6
CONTINUOUS
10
0.343474
20
0.12341
11
0.343704
21
0.12303
0
LINE
8
BLACK
6
CONTINUOUS
10
0.343704
20
0.12303
11
0.343809
21
0.122942
0
LINE
8
BLACK
6
CONTINUOUS
10
0.343809
20
0.122942
11
0.343831
21
0.122822
0
LINE
8
BLACK
6
CONTINUOUS
10
0.343831
20
0.122822
11
0.344006
21
0.122533
0
LINE
8
BLACK
6
CONTINUOUS
10
0.344006
20
0.122533
11
0.344022
21
0.121737
0
LINE
8
BLACK
6
CONTINUOUS
10
0.344022
20
0.121737
11
0.34416
21
0.120953
0
LINE
8
BLACK
6
CONTINUOUS
10
0.34416
20
0.120953
11
0.344042
21
0.120749
0
LINE
8
BLACK
6
CONTINUOUS
10
0.344042
20
0.120749
11
0.344047
21
0.120513
0
LINE
8
BLACK
6
CONTINUOUS
10
0.344047
20
0.120513
11
0.343548
21
0.119893
0
LINE
8
BLACK
6
CONTINUOUS
10
0.343548
20
0.119893
11
0.34315
21
0.119204
0
LINE
8
BLACK
6
CONTINUOUS
10
0.34315
20
0.119204
11
0.342929
21
0.119123
0
LINE
8
BLACK
6
CONTINUOUS
10
0.342929
20
0.119123
11
0.342781
21
0.11894
0
LINE
8
BLACK
6
CONTINUOUS
10
0.342781
20
0.11894
11
0.342
21
0.118785
0
LINE
8
BLACK
6
CONTINUOUS
10
0.342
20
0.118785
11
0.341252
21
0.118513
0
LINE
8
BLACK
6
CONTINUOUS
10
0.341252
20
0.118513
11
0.336325
21
0.118513
0
LINE
8
BLACK
6
CONTINUOUS
10
0.336325
20
0.118513
11
0.333628
21
0.117164
0
LINE
8
BLACK
6
CONTINUOUS
10
0.333628
20
0.117164
11
0.33243
21
0.115967
0
LINE
8
BLACK
6
CONTINUOUS
10
0.33243
20
0.115967
11
0.331082
21
0.11327
0
LINE
8
BLACK
6
CONTINUOUS
10
0.331082
20
0.11327
11
0.331082
21
0.10529
0
LINE
8
BLACK
6
CONTINUOUS
10
0.331082
20
0.10529
11
0.33243
21
0.102592
0
LINE
8
BLACK
6
CONTINUOUS
10
0.33243
20
0.102592
11
0.333628
21
0.101395
0
LINE
8
BLACK
6
CONTINUOUS
10
0.333628
20
0.101395
11
0.336325
21
0.100046
0
LINE
8
BLACK
6
CONTINUOUS
10
0.336325
20
0.100046
11
0.34618
21
0.100046
0
LINE
8
BLACK
6
CONTINUOUS
10
0.34618
20
0.100046
11
0.348877
21
0.101395
0
LINE
8
BLACK
6
CONTINUOUS
10
0.348877
20
0.101395
11
0.350413
21
0.102931
0
LINE
8
BLACK
6
CONTINUOUS
10
0.350413
20
0.102931
11
0.351253
21
0.103519
0
LINE
8
BLACK
6
CONTINUOUS
10
0.351253
20
0.103519
11
0.353265
21
0.103695
0
LINE
8
BLACK
6
CONTINUOUS
10
0.353265
20
0.103695
11
0.35492
21
0.102537
0
LINE
8
BLACK
6
CONTINUOUS
10
0.35492
20
0.102537
11
0.355442
21
0.100586
0
LINE
8
BLACK
6
CONTINUOUS
10
0.355442
20
0.100586
11
0.354589
21
0.0987554
0
LINE
8
BLACK
6
CONTINUOUS
10
0.354589
20
0.0987554
11
0.352714
21
0.0968806
0
LINE
8
BLACK
6
CONTINUOUS
10
0.352714
20
0.0968806
11
0.351991
21
0.0963743
0
LINE
8
BLACK
6
CONTINUOUS
10
0.351991
20
0.0963743
11
0.351947
21
0.0963275
0
LINE
8
BLACK
6
CONTINUOUS
10
0.351947
20
0.0963275
11
0.348197
21
0.0944527
0
LINE
8
BLACK
6
CONTINUOUS
10
0.348197
20
0.0944527
11
0.347214
21
0.0941604
0
LINE
8
BLACK
6
CONTINUOUS
10
0.347214
20
0.0941604
11
0.347042
21
0.0942014
0
LINE
8
BLACK
6
CONTINUOUS
10
0.347042
20
0.0942014
11
0.346877
21
0.094141
0
LINE
8
BLACK
6
CONTINUOUS
10
0.346877
20
0.094141
11
0.335628
21
0.094141
0
LINE
8
BLACK
6
CONTINUOUS
10
0.335628
20
0.094141
11
0.334618
21
0.0943191
0
LINE
8
BLACK
6
CONTINUOUS
10
0.334618
20
0.0943191
11
0.334483
21
0.0944326
0
LINE
8
BLACK
6
CONTINUOUS
10
0.334483
20
0.0944326
11
0.334308
21
0.0944527
0
LINE
8
BLACK
6
CONTINUOUS
10
0.334308
20
0.0944527
11
0.330558
21
0.0963275
0
LINE
8
BLACK
6
CONTINUOUS
10
0.330558
20
0.0963275
11
0.329849
21
0.0968535
0
LINE
8
BLACK
6
CONTINUOUS
10
0.329849
20
0.0968535
11
0.329791
21
0.0968806
0
LINE
8
BLACK
6
CONTINUOUS
10
0.329791
20
0.0968806
11
0.327916
21
0.0987554
0
LINE
8
BLACK
6
CONTINUOUS
10
0.327916
20
0.0987554
11
0.327409
21
0.0994785
0
LINE
8
BLACK
6
CONTINUOUS
10
0.327409
20
0.0994785
11
0.327363
21
0.0995228
0
LINE
8
BLACK
6
CONTINUOUS
10
0.327363
20
0.0995228
11
0.325488
21
0.103272
0
LINE
8
BLACK
6
CONTINUOUS
10
0.325488
20
0.103272
11
0.325196
21
0.104255
0
LINE
8
BLACK
6
CONTINUOUS
10
0.325196
20
0.104255
11
0.325237
21
0.104427
0
LINE
8
BLACK
6
CONTINUOUS
10
0.325237
20
0.104427
11
0.325176
21
0.104593
0
LINE
8
BLACK
6
CONTINUOUS
10
0.325176
20
0.104593
11
0.325176
21
0.113967
0
LINE
8
BLACK
6
CONTINUOUS
10
0.325176
20
0.113967
11
0.325354
21
0.114977
0
LINE
8
BLACK
6
CONTINUOUS
10
0.325354
20
0.114977
11
0.325468
21
0.115112
0
LINE
8
BLACK
6
CONTINUOUS
10
0.325468
20
0.115112
11
0.325488
21
0.115287
0
LINE
8
BLACK
6
CONTINUOUS
10
0.325488
20
0.115287
11
0.327363
21
0.119037
0
LINE
8
BLACK
6
CONTINUOUS
10
0.327363
20
0.119037
11
0.327889
21
0.119746
0
LINE
8
BLACK
6
CONTINUOUS
10
0.327889
20
0.119746
11
0.327916
21
0.119804
0
LINE
8
BLACK
6
CONTINUOUS
10
0.327916
20
0.119804
11
0.329791
21
0.121679
0
LINE
8
BLACK
6
CONTINUOUS
10
0.329791
20
0.121679
11
0.330514
21
0.122185
0
LINE
8
BLACK
6
CONTINUOUS
10
0.330514
20
0.122185
11
0.330558
21
0.122232
0
LINE
8
BLACK
6
CONTINUOUS
10
0.330558
20
0.122232
11
0.334308
21
0.124107
0
LINE
8
BLACK
6
CONTINUOUS
10
0.334308
20
0.124107
11
0.334871
21
0.124274
0
LINE
8
BLACK
6
CONTINUOUS
10
0.334871
20
0.124274
11
0.325907
21
0.134519
0
LINE
8
BLACK
6
CONTINUOUS
10
0.325907
20
0.134519
11
0.325677
21
0.134899
0
LINE
8
BLACK
6
CONTINUOUS
10
0.325677
20
0.134899
11
0.325572
21
0.134987
0
LINE
8
BLACK
6
CONTINUOUS
10
0.325572
20
0.134987
11
0.325551
21
0.135108
0
LINE
8
BLACK
6
CONTINUOUS
10
0.325551
20
0.135108
11
0.325376
21
0.135397
0
LINE
8
BLACK
6
CONTINUOUS
10
0.325376
20
0.135397
11
0.325359
21
0.136193
0
LINE
8
BLACK
6
CONTINUOUS
10
0.325359
20
0.136193
11
0.325221
21
0.136977
0
LINE
8
BLACK
6
CONTINUOUS
10
0.325221
20
0.136977
11
0.325339
21
0.137181
0
LINE
8
BLACK
6
CONTINUOUS
10
0.325339
20
0.137181
11
0.325334
21
0.137416
0
LINE
8
BLACK
6
CONTINUOUS
10
0.325334
20
0.137416
11
0.325833
21
0.138036
0
LINE
8
BLACK
6
CONTINUOUS
10
0.325833
20
0.138036
11
0.326231
21
0.138726
0
LINE
8
BLACK
6
CONTINUOUS
10
0.326231
20
0.138726
11
0.326452
21
0.138806
0
LINE
8
BLACK
6
CONTINUOUS
10
0.326452
20
0.138806
11
0.3266
21
0.13899
0
LINE
8
BLACK
6
CONTINUOUS
10
0.3266
20
0.13899
11
0.327381
21
0.139144
0
LINE
8
BLACK
6
CONTINUOUS
10
0.327381
20
0.139144
11
0.328129
21
0.139417
0
LINE
8
BLACK
6
CONTINUOUS
10
0.328129
20
0.139417
11
0.352501
21
0.139417
0
LINE
8
BLACK
6
CONTINUOUS
10
0.352501
20
0.139417
11
0.353511
21
0.139239
0
LINE
8
BLACK
6
CONTINUOUS
10
0.392258
20
0.138362
11
0.392949
21
0.136464
0
LINE
8
BLACK
6
CONTINUOUS
10
0.392949
20
0.136464
11
0.392949
21
0.104593
0
LINE
8
BLACK
6
CONTINUOUS
10
0.392949
20
0.104593
11
0.392771
21
0.103583
0
LINE
8
BLACK
6
CONTINUOUS
10
0.392771
20
0.103583
11
0.392657
21
0.103448
0
LINE
8
BLACK
6
CONTINUOUS
10
0.392657
20
0.103448
11
0.392637
21
0.103272
0
LINE
8
BLACK
6
CONTINUOUS
10
0.392637
20
0.103272
11
0.390762
21
0.0995228
0
LINE
8
BLACK
6
CONTINUOUS
10
0.390762
20
0.0995228
11
0.390237
21
0.0988137
0
LINE
8
BLACK
6
CONTINUOUS
10
0.390237
20
0.0988137
11
0.390209
21
0.0987554
0
LINE
8
BLACK
6
CONTINUOUS
10
0.390209
20
0.0987554
11
0.388335
21
0.0968806
0
LINE
8
BLACK
6
CONTINUOUS
10
0.388335
20
0.0968806
11
0.387611
21
0.0963743
0
LINE
8
BLACK
6
CONTINUOUS
10
0.387611
20
0.0963743
11
0.387567
21
0.0963275
0
LINE
8
BLACK
6
CONTINUOUS
10
0.387567
20
0.0963275
11
0.383818
21
0.0944527
0
LINE
8
BLACK
6
CONTINUOUS
10
0.383818
20
0.0944527
11
0.382835
21
0.0941604
0
LINE
8
BLACK
6
CONTINUOUS
10
0.382835
20
0.0941604
11
0.382663
21
0.0942014
0
LINE
8
BLACK
6
CONTINUOUS
10
0.382663
20
0.0942014
11
0.382497
21
0.094141
0
LINE
8
BLACK
6
CONTINUOUS
10
0.382497
20
0.094141
11
0.374998
21
0.094141
0
LINE
8
BLACK
6
CONTINUOUS
10
0.374998
20
0.094141
11
0.373988
21
0.0943191
0
LINE
8
BLACK
6
CONTINUOUS
10
0.373988
20
0.0943191
11
0.373853
21
0.0944326
0
LINE
8
BLACK
6
CONTINUOUS
10
0.373853
20
0.0944326
11
0.373678
21
0.0944527
0
LINE
8
BLACK
6
CONTINUOUS
10
0.373678
20
0.0944527
11
0.369928
21
0.0963275
0
LINE
8
BLACK
6
CONTINUOUS
10
0.369928
20
0.0963275
11
0.369219
21
0.0968535
0
LINE
8
BLACK
6
CONTINUOUS
10
0.369219
20
0.0968535
11
0.369161
21
0.0968806
0
LINE
8
BLACK
6
CONTINUOUS
10
0.369161
20
0.0968806
11
0.367286
21
0.0987554
0
LINE
8
BLACK
6
CONTINUOUS
10
0.367286
20
0.0987554
11
0.36678
21
0.0994785
0
LINE
8
BLACK
6
CONTINUOUS
10
0.36678
20
0.0994785
11
0.366733
21
0.0995228
0
LINE
8
BLACK
6
CONTINUOUS
10
0.366733
20
0.0995228
11
0.364858
21
0.103272
0
LINE
8
BLACK
6
CONTINUOUS
10
0.364858
20
0.103272
11
0.364566
21
0.104255
0
LINE
8
BLACK
6
CONTINUOUS
10
0.364566
20
0.104255
11
0.364607
21
0.104427
0
LINE
8
BLACK
6
CONTINUOUS
10
0.364607
20
0.104427
11
0.364546
21
0.104593
0
LINE
8
BLACK
6
CONTINUOUS
10
0.364546
20
0.104593
11
0.364546
21
0.136464
0
LINE
8
BLACK
6
CONTINUOUS
10
0.364546
20
0.136464
11
0.364724
21
0.137474
0
LINE
8
BLACK
6
CONTINUOUS
10
0.364724
20
0.137474
11
0.366023
21
0.139021
0
LINE
8
BLACK
6
CONTINUOUS
10
0.366023
20
0.139021
11
0.368012
21
0.139372
0
LINE
8
BLACK
6
CONTINUOUS
10
0.368012
20
0.139372
11
0.369761
21
0.138362
0
LINE
8
BLACK
6
CONTINUOUS
10
0.369761
20
0.138362
11
0.370452
21
0.136464
0
LINE
8
BLACK
6
CONTINUOUS
10
0.370452
20
0.136464
11
0.370452
21
0.10529
0
LINE
8
BLACK
6
CONTINUOUS
10
0.370452
20
0.10529
11
0.371801
21
0.102592
0
LINE
8
BLACK
6
CONTINUOUS
10
0.371801
20
0.102592
11
0.372998
21
0.101395
0
LINE
8
BLACK
6
CONTINUOUS
10
0.372998
20
0.101395
11
0.375695
21
0.100046
0
LINE
8
BLACK
6
CONTINUOUS
10
0.375695
20
0.100046
11
0.3818
21
0.100046
0
LINE
8
BLACK
6
CONTINUOUS
10
0.3818
20
0.100046
11
0.384498
21
0.101395
0
LINE
8
BLACK
6
CONTINUOUS
10
0.384498
20
0.101395
11
0.385695
21
0.102592
0
LINE
8
BLACK
6
CONTINUOUS
10
0.385695
20
0.102592
11
0.387043
21
0.10529
0
LINE
8
BLACK
6
CONTINUOUS
10
0.387043
20
0.10529
11
0.387043
21
0.136464
0
LINE
8
BLACK
6
CONTINUOUS
10
0.387043
20
0.136464
11
0.387222
21
0.137474
0
LINE
8
BLACK
6
CONTINUOUS
10
0.387222
20
0.137474
11
0.38852
21
0.139021
0
LINE
8
BLACK
6
CONTINUOUS
10
0.38852
20
0.139021
11
0.390509
21
0.139372
0
LINE
8
BLACK
6
CONTINUOUS
10
0.390509
20
0.139372
11
0.392258
21
0.138362
0
LINE
8
BLACK
6
CONTINUOUS
10
0.22597
20
0.20108
11
0.226661
21
0.199409
0
LINE
8
BLACK
6
CONTINUOUS
10
0.226661
20
0.199409
11
0.22597
21
0.197739
0
LINE
8
BLACK
6
CONTINUOUS
10
0.22597
20
0.197739
11
0.224299
21
0.197047
0
LINE
8
BLACK
6
CONTINUOUS
10
0.224299
20
0.197047
11
0.187685
21
0.197047
0
LINE
8
BLACK
6
CONTINUOUS
10
0.187685
20
0.197047
11
0.187685
21
0.128543
0
LINE
8
BLACK
6
CONTINUOUS
10
0.187685
20
0.128543
11
0.186993
21
0.126873
0
LINE
8
BLACK
6
CONTINUOUS
10
0.186993
20
0.126873
11
0.185323
21
0.126181
0
LINE
8
BLACK
6
CONTINUOUS
10
0.185323
20
0.126181
11
0.128236
21
0.126181
0
LINE
8
BLACK
6
CONTINUOUS
10
0.128236
20
0.126181
11
0.126566
21
0.126873
0
LINE
8
BLACK
6
CONTINUOUS
10
0.126566
20
0.126873
11
0.125874
21
0.128543
0
LINE
8
BLACK
6
CONTINUOUS
10
0.125874
20
0.128543
11
0.126566
21
0.130214
0
LINE
8
BLACK
6
CONTINUOUS
10
0.126566
20
0.130214
11
0.128236
21
0.130906
0
LINE
8
BLACK
6
CONTINUOUS
10
0.128236
20
0.130906
11
0.182961
21
0.130906
0
LINE
8
BLACK
6
CONTINUOUS
10
0.182961
20
0.130906
11
0.182961
21
0.199409
0
LINE
8
BLACK
6
CONTINUOUS
10
0.182961
20
0.199409
11
0.183653
21
0.20108
0
LINE
8
BLACK
6
CONTINUOUS
10
0.183653
20
0.20108
11
0.185323
21
0.201772
0
LINE
8
BLACK
6
CONTINUOUS
10
0.185323
20
0.201772
11
0.224299
21
0.201772
0
LINE
8
BLACK
6
CONTINUOUS
10
0.224299
20
0.201772
11
0.22597
21
0.20108
0
LINE
8
BLACK
6
CONTINUOUS
10
0.619945
20
0.183651
11
0.62182
21
0.181777
0
LINE
8
BLACK
6
CONTINUOUS
10
0.62182
20
0.181777
11
0.622327
21
0.181054
0
LINE
8
BLACK
6
CONTINUOUS
10
0.622327
20
0.181054
11
0.622373
21
0.181009
0
LINE
8
BLACK
6
CONTINUOUS
10
0.622373
20
0.181009
11
0.624248
21
0.17726
0
LINE
8
BLACK
6
CONTINUOUS
10
0.624248
20
0.17726
11
0.62454
21
0.176277
0
LINE
8
BLACK
6
CONTINUOUS
10
0.62454
20
0.176277
11
0.624499
21
0.176105
0
LINE
8
BLACK
6
CONTINUOUS
10
0.624499
20
0.176105
11
0.62456
21
0.175939
0
LINE
8
BLACK
6
CONTINUOUS
10
0.62456
20
0.175939
11
0.62456
21
0.166565
0
LINE
8
BLACK
6
CONTINUOUS
10
0.62456
20
0.166565
11
0.624382
21
0.165556
0
LINE
8
BLACK
6
CONTINUOUS
10
0.624382
20
0.165556
11
0.624268
21
0.16542
0
LINE
8
BLACK
6
CONTINUOUS
10
0.624268
20
0.16542
11
0.624248
21
0.165245
0
LINE
8
BLACK
6
CONTINUOUS
10
0.624248
20
0.165245
11
0.622373
21
0.161495
0
LINE
8
BLACK
6
CONTINUOUS
10
0.622373
20
0.161495
11
0.621847
21
0.160786
0
LINE
8
BLACK
6
CONTINUOUS
10
0.621847
20
0.160786
11
0.62182
21
0.160728
0
LINE
8
BLACK
6
CONTINUOUS
10
0.62182
20
0.160728
11
0.619945
21
0.158853
0
LINE
8
BLACK
6
CONTINUOUS
10
0.619945
20
0.158853
11
0.619222
21
0.158347
0
LINE
8
BLACK
6
CONTINUOUS
10
0.619222
20
0.158347
11
0.619178
21
0.1583
0
LINE
8
BLACK
6
CONTINUOUS
10
0.619178
20
0.1583
11
0.615428
21
0.156425
0
LINE
8
BLACK
6
CONTINUOUS
10
0.615428
20
0.156425
11
0.614446
21
0.156133
0
LINE
8
BLACK
6
CONTINUOUS
10
0.614446
20
0.156133
11
0.614274
21
0.156174
0
LINE
8
BLACK
6
CONTINUOUS
10
0.614274
20
0.156174
11
0.614108
21
0.156114
0
LINE
8
BLACK
6
CONTINUOUS
10
0.614108
20
0.156114
11
0.604734
21
0.156114
0
LINE
8
BLACK
6
CONTINUOUS
10
0.604734
20
0.156114
11
0.603724
21
0.156292
0
LINE
8
BLACK
6
CONTINUOUS
10
0.603724
20
0.156292
11
0.603589
21
0.156405
0
LINE
8
BLACK
6
CONTINUOUS
10
0.603589
20
0.156405
11
0.603414
21
0.156425
0
LINE
8
BLACK
6
CONTINUOUS
10
0.603414
20
0.156425
11
0.599664
21
0.1583
0
LINE
8
BLACK
6
CONTINUOUS
10
0.599664
20
0.1583
11
0.598955
21
0.158826
0
LINE
8
BLACK
6
CONTINUOUS
10
0.598955
20
0.158826
11
0.598897
21
0.158853
0
LINE
8
BLACK
6
CONTINUOUS
10
0.598897
20
0.158853
11
0.597022
21
0.160728
0
LINE
8
BLACK
6
CONTINUOUS
10
0.597022
20
0.160728
11
0.596516
21
0.161451
0
LINE
8
BLACK
6
CONTINUOUS
10
0.596516
20
0.161451
11
0.596469
21
0.161495
0
LINE
8
BLACK
6
CONTINUOUS
10
0.596469
20
0.161495
11
0.594594
21
0.165245
0
LINE
8
BLACK
6
CONTINUOUS
10
0.594594
20
0.165245
11
0.594302
21
0.166228
0
LINE
8
BLACK
6
CONTINUOUS
10
0.594302
20
0.166228
11
0.594343
21
0.1664
0
LINE
8
BLACK
6
CONTINUOUS
10
0.594343
20
0.1664
11
0.594282
21
0.166565
0
LINE
8
BLACK
6
CONTINUOUS
10
0.594282
20
0.166565
11
0.594282
21
0.175939
0
LINE
8
BLACK
6
CONTINUOUS
10
0.594282
20
0.175939
11
0.59446
21
0.176949
0
LINE
8
BLACK
6
CONTINUOUS
10
0.59446
20
0.176949
11
0.594574
21
0.177084
0
LINE
8
BLACK
6
CONTINUOUS
10
0.594574
20
0.177084
11
0.594594
21
0.17726
0
LINE
8
BLACK
6
CONTINUOUS
10
0.594594
20
0.17726
11
0.594961
21
0.177994
0
LINE
8
BLACK
6
CONTINUOUS
10
0.594961
20
0.177994
11
0.58519
21
0.177017
0
LINE
8
BLACK
6
CONTINUOUS
10
0.58519
20
0.177017
11
0.58519
21
0.160941
0
LINE
8
BLACK
6
CONTINUOUS
10
0.58519
20
0.160941
11
0.585012
21
0.159931
0
LINE
8
BLACK
6
CONTINUOUS
10
0.585012
20
0.159931
11
0.583713
21
0.158384
0
LINE
8
BLACK
6
CONTINUOUS
10
0.583713
20
0.158384
11
0.581724
21
0.158033
0
LINE
8
BLACK
6
CONTINUOUS
10
0.581724
20
0.158033
11
0.579975
21
0.159043
0
LINE
8
BLACK
6
CONTINUOUS
10
0.579975
20
0.159043
11
0.579284
21
0.160941
0
LINE
8
BLACK
6
CONTINUOUS
10
0.579284
20
0.160941
11
0.579284
21
0.179689
0
LINE
8
BLACK
6
CONTINUOUS
10
0.579284
20
0.179689
11
0.579311
21
0.179843
0
LINE
8
BLACK
6
CONTINUOUS
10
0.579311
20
0.179843
11
0.579292
21
0.17991
0
LINE
8
BLACK
6
CONTINUOUS
10
0.579292
20
0.17991
11
0.579343
21
0.180021
0
LINE
8
BLACK
6
CONTINUOUS
10
0.579343
20
0.180021
11
0.579462
21
0.180699
0
LINE
8
BLACK
6
CONTINUOUS
10
0.579462
20
0.180699
11
0.579865
21
0.181179
0
LINE
8
BLACK
6
CONTINUOUS
10
0.579865
20
0.181179
11
0.580123
21
0.181751
0
LINE
8
BLACK
6
CONTINUOUS
10
0.580123
20
0.181751
11
0.580495
21
0.18193
0
LINE
8
BLACK
6
CONTINUOUS
10
0.580495
20
0.18193
11
0.580761
21
0.182246
0
LINE
8
BLACK
6
CONTINUOUS
10
0.580761
20
0.182246
11
0.581378
21
0.182355
0
LINE
8
BLACK
6
CONTINUOUS
10
0.581378
20
0.182355
11
0.581943
21
0.182627
0
LINE
8
BLACK
6
CONTINUOUS
10
0.581943
20
0.182627
11
0.600691
21
0.184502
0
LINE
8
BLACK
6
CONTINUOUS
10
0.600691
20
0.184502
11
0.601713
21
0.184425
0
LINE
8
BLACK
6
CONTINUOUS
10
0.601713
20
0.184425
11
0.601729
21
0.184414
0
LINE
8
BLACK
6
CONTINUOUS
10
0.601729
20
0.184414
11
0.601749
21
0.184416
0
LINE
8
BLACK
6
CONTINUOUS
10
0.601749
20
0.184416
11
0.602561
21
0.183847
0
LINE
8
BLACK
6
CONTINUOUS
10
0.602561
20
0.183847
11
0.603382
21
0.183287
0
LINE
8
BLACK
6
CONTINUOUS
10
0.603382
20
0.183287
11
0.603387
21
0.183268
0
LINE
8
BLACK
6
CONTINUOUS
10
0.603387
20
0.183268
11
0.603403
21
0.183257
0
LINE
8
BLACK
6
CONTINUOUS
10
0.603403
20
0.183257
11
0.60366
21
0.182298
0
LINE
8
BLACK
6
CONTINUOUS
10
0.60366
20
0.182298
11
0.603929
21
0.181343
0
LINE
8
BLACK
6
CONTINUOUS
10
0.603929
20
0.181343
11
0.603921
21
0.181325
0
LINE
8
BLACK
6
CONTINUOUS
10
0.603921
20
0.181325
11
0.603926
21
0.181306
0
LINE
8
BLACK
6
CONTINUOUS
10
0.603926
20
0.181306
11
0.603507
21
0.180408
0
LINE
8
BLACK
6
CONTINUOUS
10
0.603507
20
0.180408
11
0.603098
21
0.179502
0
LINE
8
BLACK
6
CONTINUOUS
10
0.603098
20
0.179502
11
0.603081
21
0.179493
0
LINE
8
BLACK
6
CONTINUOUS
10
0.603081
20
0.179493
11
0.603073
21
0.179476
0
LINE
8
BLACK
6
CONTINUOUS
10
0.603073
20
0.179476
11
0.601537
21
0.17794
0
LINE
8
BLACK
6
CONTINUOUS
10
0.601537
20
0.17794
11
0.600188
21
0.175242
0
LINE
8
BLACK
6
CONTINUOUS
10
0.600188
20
0.175242
11
0.600188
21
0.167262
0
LINE
8
BLACK
6
CONTINUOUS
10
0.600188
20
0.167262
11
0.601537
21
0.164565
0
LINE
8
BLACK
6
CONTINUOUS
10
0.601537
20
0.164565
11
0.602734
21
0.163368
0
LINE
8
BLACK
6
CONTINUOUS
10
0.602734
20
0.163368
11
0.605431
21
0.162019
0
LINE
8
BLACK
6
CONTINUOUS
10
0.605431
20
0.162019
11
0.613411
21
0.162019
0
LINE
8
BLACK
6
CONTINUOUS
10
0.613411
20
0.162019
11
0.616108
21
0.163368
0
LINE
8
BLACK
6
CONTINUOUS
10
0.616108
20
0.163368
11
0.617306
21
0.164565
0
LINE
8
BLACK
6
CONTINUOUS
10
0.617306
20
0.164565
11
0.618654
21
0.167262
0
LINE
8
BLACK
6
CONTINUOUS
10
0.618654
20
0.167262
11
0.618654
21
0.175242
0
LINE
8
BLACK
6
CONTINUOUS
10
0.618654
20
0.175242
11
0.617306
21
0.17794
0
LINE
8
BLACK
6
CONTINUOUS
10
0.617306
20
0.17794
11
0.61577
21
0.179476
0
LINE
8
BLACK
6
CONTINUOUS
10
0.61577
20
0.179476
11
0.615181
21
0.180316
0
LINE
8
BLACK
6
CONTINUOUS
10
0.615181
20
0.180316
11
0.615005
21
0.182328
0
LINE
8
BLACK
6
CONTINUOUS
10
0.615005
20
0.182328
11
0.616164
21
0.183982
0
LINE
8
BLACK
6
CONTINUOUS
10
0.616164
20
0.183982
11
0.618115
21
0.184505
0
LINE
8
BLACK
6
CONTINUOUS
10
0.618115
20
0.184505
11
0.619945
21
0.183651
0
LINE
8
BLACK
6
CONTINUOUS
10
0.526373
20
0.205436
11
0.526595
21
0.205475
0
LINE
8
BLACK
6
CONTINUOUS
10
0.526595
20
0.205475
11
0.527292
21
0.205073
0
LINE
8
BLACK
6
CONTINUOUS
10
0.527292
20
0.205073
11
0.528041
21
0.204777
0
LINE
8
BLACK
6
CONTINUOUS
10
0.528041
20
0.204777
11
0.528149
21
0.204578
0
LINE
8
BLACK
6
CONTINUOUS
10
0.528149
20
0.204578
11
0.528344
21
0.204465
0
LINE
8
BLACK
6
CONTINUOUS
10
0.528344
20
0.204465
11
0.528619
21
0.203709
0
LINE
8
BLACK
6
CONTINUOUS
10
0.528619
20
0.203709
11
0.529003
21
0.203001
0
LINE
8
BLACK
6
CONTINUOUS
10
0.529003
20
0.203001
11
0.528958
21
0.20278
0
LINE
8
BLACK
6
CONTINUOUS
10
0.528958
20
0.20278
11
0.529035
21
0.202567
0
LINE
8
BLACK
6
CONTINUOUS
10
0.529035
20
0.202567
11
0.529035
21
0.186773
0
LINE
8
BLACK
6
CONTINUOUS
10
0.529035
20
0.186773
11
0.539205
21
0.186773
0
LINE
8
BLACK
6
CONTINUOUS
10
0.539205
20
0.186773
11
0.540215
21
0.186595
0
LINE
8
BLACK
6
CONTINUOUS
10
0.540215
20
0.186595
11
0.541763
21
0.185296
0
LINE
8
BLACK
6
CONTINUOUS
10
0.541763
20
0.185296
11
0.542113
21
0.183307
0
LINE
8
BLACK
6
CONTINUOUS
10
0.542113
20
0.183307
11
0.541103
21
0.181558
0
LINE
8
BLACK
6
CONTINUOUS
10
0.541103
20
0.181558
11
0.539205
21
0.180867
0
LINE
8
BLACK
6
CONTINUOUS
10
0.539205
20
0.180867
11
0.529035
21
0.180867
0
LINE
8
BLACK
6
CONTINUOUS
10
0.529035
20
0.180867
11
0.529035
21
0.178196
0
LINE
8
BLACK
6
CONTINUOUS
10
0.529035
20
0.178196
11
0.528857
21
0.177186
0
LINE
8
BLACK
6
CONTINUOUS
10
0.528857
20
0.177186
11
0.527558
21
0.175638
0
LINE
8
BLACK
6
CONTINUOUS
10
0.527558
20
0.175638
11
0.525569
21
0.175288
0
LINE
8
BLACK
6
CONTINUOUS
10
0.525569
20
0.175288
11
0.52382
21
0.176298
0
LINE
8
BLACK
6
CONTINUOUS
10
0.52382
20
0.176298
11
0.523129
21
0.178196
0
LINE
8
BLACK
6
CONTINUOUS
10
0.523129
20
0.178196
11
0.523129
21
0.180867
0
LINE
8
BLACK
6
CONTINUOUS
10
0.523129
20
0.180867
11
0.512959
21
0.180867
0
LINE
8
BLACK
6
CONTINUOUS
10
0.512959
20
0.180867
11
0.511949
21
0.181045
0
LINE
8
BLACK
6
CONTINUOUS
10
0.511949
20
0.181045
11
0.510402
21
0.182343
0
LINE
8
BLACK
6
CONTINUOUS
10
0.510402
20
0.182343
11
0.510051
21
0.184333
0
LINE
8
BLACK
6
CONTINUOUS
10
0.510051
20
0.184333
11
0.511061
21
0.186082
0
LINE
8
BLACK
6
CONTINUOUS
10
0.511061
20
0.186082
11
0.512959
21
0.186773
0
LINE
8
BLACK
6
CONTINUOUS
10
0.512959
20
0.186773
11
0.523129
21
0.186773
0
LINE
8
BLACK
6
CONTINUOUS
10
0.523129
20
0.186773
11
0.523129
21
0.198471
0
LINE
8
BLACK
6
CONTINUOUS
10
0.523129
20
0.198471
11
0.498894
21
0.190392
0
LINE
8
BLACK
6
CONTINUOUS
10
0.498894
20
0.190392
11
0.49788
21
0.190242
0
LINE
8
BLACK
6
CONTINUOUS
10
0.49788
20
0.190242
11
0.496002
21
0.190984
0
LINE
8
BLACK
6
CONTINUOUS
10
0.496002
20
0.190984
11
0.49504
21
0.192761
0
LINE
8
BLACK
6
CONTINUOUS
10
0.49504
20
0.192761
11
0.495445
21
0.194739
0
LINE
8
BLACK
6
CONTINUOUS
10
0.495445
20
0.194739
11
0.497027
21
0.195995
0
LINE
8
BLACK
6
CONTINUOUS
10
0.497027
20
0.195995
11
0.525148
21
0.205369
0
LINE
8
BLACK
6
CONTINUOUS
10
0.525148
20
0.205369
11
0.526163
21
0.205519
0
LINE
8
BLACK
6
CONTINUOUS
10
0.526163
20
0.205519
11
0.526373
21
0.205436
0
LINE
8
BLACK
6
CONTINUOUS
10
0.0188829
20
0.413678
11
0.0195748
21
0.412008
0
LINE
8
BLACK
6
CONTINUOUS
10
0.0195748
20
0.412008
11
0.0195748
21
0.178543
0
LINE
8
BLACK
6
CONTINUOUS
10
0.0195748
20
0.178543
11
0.0188829
21
0.176873
0
LINE
8
BLACK
6
CONTINUOUS
10
0.0188829
20
0.176873
11
0.0172126
21
0.176181
0
LINE
8
BLACK
6
CONTINUOUS
10
0.0172126
20
0.176181
11
0.0155423
21
0.176873
0
LINE
8
BLACK
6
CONTINUOUS
10
0.0155423
20
0.176873
11
0.0148504
21
0.178543
0
LINE
8
BLACK
6
CONTINUOUS
10
0.0148504
20
0.178543
11
0.0148504
21
0.412008
0
LINE
8
BLACK
6
CONTINUOUS
10
0.0148504
20
0.412008
11
0.0155423
21
0.413678
0
LINE
8
BLACK
6
CONTINUOUS
10
0.0155423
20
0.413678
11
0.0172126
21
0.41437
0
LINE
8
BLACK
6
CONTINUOUS
10
0.0172126
20
0.41437
11
0.0188829
21
0.413678
0
LINE
8
BLACK
6
CONTINUOUS
10
0.420056
20
0.277103
11
0.420748
21
0.275433
0
LINE
8
BLACK
6
CONTINUOUS
10
0.420748
20
0.275433
11
0.420748
21
0.178976
0
LINE
8
BLACK
6
CONTINUOUS
10
0.420748
20
0.178976
11
0.420056
21
0.177306
0
LINE
8
BLACK
6
CONTINUOUS
10
0.420056
20
0.177306
11
0.418386
21
0.176614
0
LINE
8
BLACK
6
CONTINUOUS
10
0.418386
20
0.176614
11
0.416716
21
0.177306
0
LINE
8
BLACK
6
CONTINUOUS
10
0.416716
20
0.177306
11
0.416024
21
0.178976
0
LINE
8
BLACK
6
CONTINUOUS
10
0.416024
20
0.178976
11
0.416024
21
0.275433
0
LINE
8
BLACK
6
CONTINUOUS
10
0.416024
20
0.275433
11
0.416716
21
0.277103
0
LINE
8
BLACK
6
CONTINUOUS
10
0.416716
20
0.277103
11
0.418386
21
0.277795
0
LINE
8
BLACK
6
CONTINUOUS
10
0.418386
20
0.277795
11
0.420056
21
0.277103
0
LINE
8
BLACK
6
CONTINUOUS
10
0.641592
20
0.198079
11
0.642283
21
0.196409
0
LINE
8
BLACK
6
CONTINUOUS
10
0.642283
20
0.196409
11
0.642283
21
0.183591
0
LINE
8
BLACK
6
CONTINUOUS
10
0.642283
20
0.183591
11
0.641592
21
0.181921
0
LINE
8
BLACK
6
CONTINUOUS
10
0.641592
20
0.181921
11
0.639921
21
0.181229
0
LINE
8
BLACK
6
CONTINUOUS
10
0.639921
20
0.181229
11
0.638251
21
0.181921
0
LINE
8
BLACK
6
CONTINUOUS
10
0.638251
20
0.181921
11
0.637559
21
0.183591
0
LINE
8
BLACK
6
CONTINUOUS
10
0.637559
20
0.183591
11
0.637559
21
0.196409
0
LINE
8
BLACK
6
CONTINUOUS
10
0.637559
20
0.196409
11
0.638251
21
0.198079
0
LINE
8
BLACK
6
CONTINUOUS
10
0.638251
20
0.198079
11
0.639921
21
0.198771
0
LINE
8
BLACK
6
CONTINUOUS
10
0.639921
20
0.198771
11
0.641592
21
0.198079
0
LINE
8
BLACK
6
CONTINUOUS
10
0.681749
20
0.198079
11
0.682441
21
0.196409
0
LINE
8
BLACK
6
CONTINUOUS
10
0.682441
20
0.196409
11
0.682441
21
0.183591
0
LINE
8
BLACK
6
CONTINUOUS
10
0.682441
20
0.183591
11
0.681749
21
0.181921
0
LINE
8
BLACK
6
CONTINUOUS
10
0.681749
20
0.181921
11
0.680079
21
0.181229
0
LINE
8
BLACK
6
CONTINUOUS
10
0.680079
20
0.181229
11
0.678408
21
0.181921
0
LINE
8
BLACK
6
CONTINUOUS
10
0.678408
20
0.181921
11
0.677717
21
0.183591
0
LINE
8
BLACK
6
CONTINUOUS
10
0.677717
20
0.183591
11
0.677717
21
0.196409
0
LINE
8
BLACK
6
CONTINUOUS
10
0.677717
20
0.196409
11
0.678408
21
0.198079
0
LINE
8
BLACK
6
CONTINUOUS
10
0.678408
20
0.198079
11
0.680079
21
0.198771
0
LINE
8
BLACK
6
CONTINUOUS
10
0.680079
20
0.198771
11
0.681749
21
0.198079
0
LINE
8
BLACK
6
CONTINUOUS
10
0.605314
20
0.223784
11
0.60545
21
0.223798
0
LINE
8
BLACK
6
CONTINUOUS
10
0.60545
20
0.223798
11
0.612949
21
0.221923
0
LINE
8
BLACK
6
CONTINUOUS
10
0.612949
20
0.221923
11
0.613415
21
0.221716
0
LINE
8
BLACK
6
CONTINUOUS
10
0.613415
20
0.221716
11
0.613554
21
0.2217
0
LINE
8
BLACK
6
CONTINUOUS
10
0.613554
20
0.2217
11
0.617303
21
0.219825
0
LINE
8
BLACK
6
CONTINUOUS
10
0.617303
20
0.219825
11
0.618012
21
0.219299
0
LINE
8
BLACK
6
CONTINUOUS
10
0.618012
20
0.219299
11
0.618071
21
0.219272
0
LINE
8
BLACK
6
CONTINUOUS
10
0.618071
20
0.219272
11
0.62182
21
0.215522
0
LINE
8
BLACK
6
CONTINUOUS
10
0.62182
20
0.215522
11
0.622408
21
0.214682
0
LINE
8
BLACK
6
CONTINUOUS
10
0.622408
20
0.214682
11
0.622424
21
0.214507
0
LINE
8
BLACK
6
CONTINUOUS
10
0.622424
20
0.214507
11
0.622534
21
0.214368
0
LINE
8
BLACK
6
CONTINUOUS
10
0.622534
20
0.214368
11
0.624408
21
0.208744
0
LINE
8
BLACK
6
CONTINUOUS
10
0.624408
20
0.208744
11
0.624538
21
0.207871
0
LINE
8
BLACK
6
CONTINUOUS
10
0.624538
20
0.207871
11
0.62456
21
0.20781
0
LINE
8
BLACK
6
CONTINUOUS
10
0.62456
20
0.20781
11
0.62456
21
0.204061
0
LINE
8
BLACK
6
CONTINUOUS
10
0.62456
20
0.204061
11
0.624406
21
0.203191
0
LINE
8
BLACK
6
CONTINUOUS
10
0.624406
20
0.203191
11
0.624408
21
0.203127
0
LINE
8
BLACK
6
CONTINUOUS
10
0.624408
20
0.203127
11
0.622534
21
0.197503
0
LINE
8
BLACK
6
CONTINUOUS
10
0.622534
20
0.197503
11
0.622045
21
0.196601
0
LINE
8
BLACK
6
CONTINUOUS
10
0.622045
20
0.196601
11
0.621895
21
0.196509
0
LINE
8
BLACK
6
CONTINUOUS
10
0.621895
20
0.196509
11
0.62182
21
0.196349
0
LINE
8
BLACK
6
CONTINUOUS
10
0.62182
20
0.196349
11
0.619945
21
0.194474
0
LINE
8
BLACK
6
CONTINUOUS
10
0.619945
20
0.194474
11
0.619105
21
0.193886
0
LINE
8
BLACK
6
CONTINUOUS
10
0.619105
20
0.193886
11
0.617093
21
0.19371
0
LINE
8
BLACK
6
CONTINUOUS
10
0.617093
20
0.19371
11
0.615439
21
0.194868
0
LINE
8
BLACK
6
CONTINUOUS
10
0.615439
20
0.194868
11
0.614916
21
0.196819
0
LINE
8
BLACK
6
CONTINUOUS
10
0.614916
20
0.196819
11
0.61577
21
0.19865
0
LINE
8
BLACK
6
CONTINUOUS
10
0.61577
20
0.19865
11
0.617151
21
0.200032
0
LINE
8
BLACK
6
CONTINUOUS
10
0.617151
20
0.200032
11
0.618654
21
0.20454
0
LINE
8
BLACK
6
CONTINUOUS
10
0.618654
20
0.20454
11
0.618654
21
0.207331
0
LINE
8
BLACK
6
CONTINUOUS
10
0.618654
20
0.207331
11
0.617151
21
0.21184
0
LINE
8
BLACK
6
CONTINUOUS
10
0.617151
20
0.21184
11
0.614234
21
0.214757
0
LINE
8
BLACK
6
CONTINUOUS
10
0.614234
20
0.214757
11
0.611203
21
0.216273
0
LINE
8
BLACK
6
CONTINUOUS
10
0.611203
20
0.216273
11
0.604371
21
0.217981
0
LINE
8
BLACK
6
CONTINUOUS
10
0.604371
20
0.217981
11
0.599473
21
0.217981
0
LINE
8
BLACK
6
CONTINUOUS
10
0.599473
20
0.217981
11
0.592641
21
0.216273
0
LINE
8
BLACK
6
CONTINUOUS
10
0.592641
20
0.216273
11
0.58961
21
0.214757
0
LINE
8
BLACK
6
CONTINUOUS
10
0.58961
20
0.214757
11
0.586693
21
0.21184
0
LINE
8
BLACK
6
CONTINUOUS
10
0.586693
20
0.21184
11
0.58519
21
0.207331
0
LINE
8
BLACK
6
CONTINUOUS
10
0.58519
20
0.207331
11
0.58519
21
0.20454
0
LINE
8
BLACK
6
CONTINUOUS
10
0.58519
20
0.20454
11
0.586693
21
0.200031
0
LINE
8
BLACK
6
CONTINUOUS
10
0.586693
20
0.200031
11
0.588074
21
0.19865
0
LINE
8
BLACK
6
CONTINUOUS
10
0.588074
20
0.19865
11
0.588663
21
0.19781
0
LINE
8
BLACK
6
CONTINUOUS
10
0.588663
20
0.19781
11
0.588839
21
0.195797
0
LINE
8
BLACK
6
CONTINUOUS
10
0.588839
20
0.195797
11
0.58768
21
0.194143
0
LINE
8
BLACK
6
CONTINUOUS
10
0.58768
20
0.194143
11
0.585729
21
0.19362
0
LINE
8
BLACK
6
CONTINUOUS
10
0.585729
20
0.19362
11
0.583899
21
0.194474
0
LINE
8
BLACK
6
CONTINUOUS
10
0.583899
20
0.194474
11
0.582024
21
0.196349
0
LINE
8
BLACK
6
CONTINUOUS
10
0.582024
20
0.196349
11
0.581436
21
0.197189
0
LINE
8
BLACK
6
CONTINUOUS
10
0.581436
20
0.197189
11
0.58142
21
0.197364
0
LINE
8
BLACK
6
CONTINUOUS
10
0.58142
20
0.197364
11
0.581311
21
0.197503
0
LINE
8
BLACK
6
CONTINUOUS
10
0.581311
20
0.197503
11
0.579436
21
0.203127
0
LINE
8
BLACK
6
CONTINUOUS
10
0.579436
20
0.203127
11
0.579306
21
0.204
0
LINE
8
BLACK
6
CONTINUOUS
10
0.579306
20
0.204
11
0.579284
21
0.204061
0
LINE
8
BLACK
6
CONTINUOUS
10
0.579284
20
0.204061
11
0.579284
21
0.20781
0
LINE
8
BLACK
6
CONTINUOUS
10
0.579284
20
0.20781
11
0.579437
21
0.20868
0
LINE
8
BLACK
6
CONTINUOUS
10
0.579437
20
0.20868
11
0.579436
21
0.208744
0
LINE
8
BLACK
6
CONTINUOUS
10
0.579436
20
0.208744
11
0.581311
21
0.214368
0
LINE
8
BLACK
6
CONTINUOUS
10
0.581311
20
0.214368
11
0.581799
21
0.21527
0
LINE
8
BLACK
6
CONTINUOUS
10
0.581799
20
0.21527
11
0.581949
21
0.215363
0
LINE
8
BLACK
6
CONTINUOUS
10
0.581949
20
0.215363
11
0.582024
21
0.215522
0
LINE
8
BLACK
6
CONTINUOUS
10
0.582024
20
0.215522
11
0.585773
21
0.219272
0
LINE
8
BLACK
6
CONTINUOUS
10
0.585773
20
0.219272
11
0.586496
21
0.219778
0
LINE
8
BLACK
6
CONTINUOUS
10
0.586496
20
0.219778
11
0.586541
21
0.219825
0
LINE
8
BLACK
6
CONTINUOUS
10
0.586541
20
0.219825
11
0.59029
21
0.2217
0
LINE
8
BLACK
6
CONTINUOUS
10
0.59029
20
0.2217
11
0.590779
21
0.221845
0
LINE
8
BLACK
6
CONTINUOUS
10
0.590779
20
0.221845
11
0.590895
21
0.221923
0
LINE
8
BLACK
6
CONTINUOUS
10
0.590895
20
0.221923
11
0.598394
21
0.223798
0
LINE
8
BLACK
6
CONTINUOUS
10
0.598394
20
0.223798
11
0.598982
21
0.22384
0
LINE
8
BLACK
6
CONTINUOUS
10
0.598982
20
0.22384
11
0.59911
21
0.223886
0
LINE
8
BLACK
6
CONTINUOUS
10
0.59911
20
0.223886
11
0.604734
21
0.223886
0
LINE
8
BLACK
6
CONTINUOUS
10
0.604734
20
0.223886
11
0.605314
21
0.223784
0
LINE
8
BLACK
6
CONTINUOUS
10
0.293284
20
0.277103
11
0.293976
21
0.275433
0
LINE
8
BLACK
6
CONTINUOUS
10
0.293976
20
0.275433
11
0.293976
21
0.204567
0
LINE
8
BLACK
6
CONTINUOUS
10
0.293976
20
0.204567
11
0.293284
21
0.202897
0
LINE
8
BLACK
6
CONTINUOUS
10
0.293284
20
0.202897
11
0.291614
21
0.202205
0
LINE
8
BLACK
6
CONTINUOUS
10
0.291614
20
0.202205
11
0.289944
21
0.202897
0
LINE
8
BLACK
6
CONTINUOUS
10
0.289944
20
0.202897
11
0.289252
21
0.204567
0
LINE
8
BLACK
6
CONTINUOUS
10
0.289252
20
0.204567
11
0.289252
21
0.275433
0
LINE
8
BLACK
6
CONTINUOUS
10
0.289252
20
0.275433
11
0.289944
21
0.277103
0
LINE
8
BLACK
6
CONTINUOUS
10
0.289944
20
0.277103
11
0.291614
21
0.277795
0
LINE
8
BLACK
6
CONTINUOUS
10
0.291614
20
0.277795
11
0.293284
21
0.277103
0
LINE
8
BLACK
6
CONTINUOUS
10
0.446592
20
0.219083
11
0.447283
21
0.217413
0
LINE
8
BLACK
6
CONTINUOUS
10
0.447283
20
0.217413
11
0.447283
21
0.204595
0
LINE
8
BLACK
6
CONTINUOUS
10
0.447283
20
0.204595
11
0.446592
21
0.202925
0
LINE
8
BLACK
6
CONTINUOUS
10
0.446592
20
0.202925
11
0.444921
21
0.202233
0
LINE
8
BLACK
6
CONTINUOUS
10
0.444921
20
0.202233
11
0.443251
21
0.202925
0
LINE
8
BLACK
6
CONTINUOUS
10
0.443251
20
0.202925
11
0.442559
21
0.204595
0
LINE
8
BLACK
6
CONTINUOUS
10
0.442559
20
0.204595
11
0.442559
21
0.217413
0
LINE
8
BLACK
6
CONTINUOUS
10
0.442559
20
0.217413
11
0.443251
21
0.219083
0
LINE
8
BLACK
6
CONTINUOUS
10
0.443251
20
0.219083
11
0.444921
21
0.219775
0
LINE
8
BLACK
6
CONTINUOUS
10
0.444921
20
0.219775
11
0.446592
21
0.219083
0
LINE
8
BLACK
6
CONTINUOUS
10
0.486749
20
0.219083
11
0.487441
21
0.217413
0
LINE
8
BLACK
6
CONTINUOUS
10
0.487441
20
0.217413
11
0.487441
21
0.204595
0
LINE
8
BLACK
6
CONTINUOUS
10
0.487441
20
0.204595
11
0.486749
21
0.202925
0
LINE
8
BLACK
6
CONTINUOUS
10
0.486749
20
0.202925
11
0.485079
21
0.202233
0
LINE
8
BLACK
6
CONTINUOUS
10
0.485079
20
0.202233
11
0.483408
21
0.202925
0
LINE
8
BLACK
6
CONTINUOUS
10
0.483408
20
0.202925
11
0.482717
21
0.204595
0
LINE
8
BLACK
6
CONTINUOUS
10
0.482717
20
0.204595
11
0.482717
21
0.217413
0
LINE
8
BLACK
6
CONTINUOUS
10
0.482717
20
0.217413
11
0.483408
21
0.219083
0
LINE
8
BLACK
6
CONTINUOUS
10
0.483408
20
0.219083
11
0.485079
21
0.219775
0
LINE
8
BLACK
6
CONTINUOUS
10
0.485079
20
0.219775
11
0.486749
21
0.219083
0
LINE
8
BLACK
6
CONTINUOUS
10
0.522913
20
0.244788
11
0.523049
21
0.244802
0
LINE
8
BLACK
6
CONTINUOUS
10
0.523049
20
0.244802
11
0.530548
21
0.242927
0
LINE
8
BLACK
6
CONTINUOUS
10
0.530548
20
0.242927
11
0.531013
21
0.24272
0
LINE
8
BLACK
6
CONTINUOUS
10
0.531013
20
0.24272
11
0.531152
21
0.242704
0
LINE
8
BLACK
6
CONTINUOUS
10
0.531152
20
0.242704
11
0.534902
21
0.240829
0
LINE
8
BLACK
6
CONTINUOUS
10
0.534902
20
0.240829
11
0.535611
21
0.240303
0
LINE
8
BLACK
6
CONTINUOUS
10
0.535611
20
0.240303
11
0.535669
21
0.240276
0
LINE
8
BLACK
6
CONTINUOUS
10
0.535669
20
0.240276
11
0.539419
21
0.236526
0
LINE
8
BLACK
6
CONTINUOUS
10
0.539419
20
0.236526
11
0.540007
21
0.235686
0
LINE
8
BLACK
6
CONTINUOUS
10
0.540007
20
0.235686
11
0.540022
21
0.23551
0
LINE
8
BLACK
6
CONTINUOUS
10
0.540022
20
0.23551
11
0.540132
21
0.235372
0
LINE
8
BLACK
6
CONTINUOUS
10
0.540132
20
0.235372
11
0.542007
21
0.229748
0
LINE
8
BLACK
6
CONTINUOUS
10
0.542007
20
0.229748
11
0.542136
21
0.228875
0
LINE
8
BLACK
6
CONTINUOUS
10
0.542136
20
0.228875
11
0.542158
21
0.228814
0
LINE
8
BLACK
6
CONTINUOUS
10
0.542158
20
0.228814
11
0.542158
21
0.225065
0
LINE
8
BLACK
6
CONTINUOUS
10
0.542158
20
0.225065
11
0.542005
21
0.224195
0
LINE
8
BLACK
6
CONTINUOUS
10
0.542005
20
0.224195
11
0.542007
21
0.224131
0
LINE
8
BLACK
6
CONTINUOUS
10
0.542007
20
0.224131
11
0.540132
21
0.218507
0
LINE
8
BLACK
6
CONTINUOUS
10
0.540132
20
0.218507
11
0.539644
21
0.217605
0
LINE
8
BLACK
6
CONTINUOUS
10
0.539644
20
0.217605
11
0.539493
21
0.217512
0
LINE
8
BLACK
6
CONTINUOUS
10
0.539493
20
0.217512
11
0.539419
21
0.217352
0
LINE
8
BLACK
6
CONTINUOUS
10
0.539419
20
0.217352
11
0.537544
21
0.215478
0
LINE
8
BLACK
6
CONTINUOUS
10
0.537544
20
0.215478
11
0.536704
21
0.214889
0
LINE
8
BLACK
6
CONTINUOUS
10
0.536704
20
0.214889
11
0.534692
21
0.214714
0
LINE
8
BLACK
6
CONTINUOUS
10
0.534692
20
0.214714
11
0.533037
21
0.215872
0
LINE
8
BLACK
6
CONTINUOUS
10
0.533037
20
0.215872
11
0.532514
21
0.217823
0
LINE
8
BLACK
6
CONTINUOUS
10
0.532514
20
0.217823
11
0.533368
21
0.219654
0
LINE
8
BLACK
6
CONTINUOUS
10
0.533368
20
0.219654
11
0.53475
21
0.221035
0
LINE
8
BLACK
6
CONTINUOUS
10
0.53475
20
0.221035
11
0.536253
21
0.225544
0
LINE
8
BLACK
6
CONTINUOUS
10
0.536253
20
0.225544
11
0.536253
21
0.228335
0
LINE
8
BLACK
6
CONTINUOUS
10
0.536253
20
0.228335
11
0.53475
21
0.232843
0
LINE
8
BLACK
6
CONTINUOUS
10
0.53475
20
0.232843
11
0.531832
21
0.235761
0
LINE
8
BLACK
6
CONTINUOUS
10
0.531832
20
0.235761
11
0.528801
21
0.237277
0
LINE
8
BLACK
6
CONTINUOUS
10
0.528801
20
0.237277
11
0.521969
21
0.238985
0
LINE
8
BLACK
6
CONTINUOUS
10
0.521969
20
0.238985
11
0.517072
21
0.238985
0
LINE
8
BLACK
6
CONTINUOUS
10
0.517072
20
0.238985
11
0.51024
21
0.237277
0
LINE
8
BLACK
6
CONTINUOUS
10
0.51024
20
0.237277
11
0.507209
21
0.235761
0
LINE
8
BLACK
6
CONTINUOUS
10
0.507209
20
0.235761
11
0.504291
21
0.232844
0
LINE
8
BLACK
6
CONTINUOUS
10
0.504291
20
0.232844
11
0.502788
21
0.228335
0
LINE
8
BLACK
6
CONTINUOUS
10
0.502788
20
0.228335
11
0.502788
21
0.225544
0
LINE
8
BLACK
6
CONTINUOUS
10
0.502788
20
0.225544
11
0.504291
21
0.221035
0
LINE
8
BLACK
6
CONTINUOUS
10
0.504291
20
0.221035
11
0.505673
21
0.219654
0
LINE
8
BLACK
6
CONTINUOUS
10
0.505673
20
0.219654
11
0.506261
21
0.218814
0
LINE
8
BLACK
6
CONTINUOUS
10
0.506261
20
0.218814
11
0.506437
21
0.216801
0
LINE
8
BLACK
6
CONTINUOUS
10
0.506437
20
0.216801
11
0.505279
21
0.215147
0
LINE
8
BLACK
6
CONTINUOUS
10
0.505279
20
0.215147
11
0.503328
21
0.214624
0
LINE
8
BLACK
6
CONTINUOUS
10
0.503328
20
0.214624
11
0.501497
21
0.215478
0
LINE
8
BLACK
6
CONTINUOUS
10
0.501497
20
0.215478
11
0.499622
21
0.217352
0
LINE
8
BLACK
6
CONTINUOUS
10
0.499622
20
0.217352
11
0.499034
21
0.218193
0
LINE
8
BLACK
6
CONTINUOUS
10
0.499034
20
0.218193
11
0.499019
21
0.218368
0
LINE
8
BLACK
6
CONTINUOUS
10
0.499019
20
0.218368
11
0.498909
21
0.218507
0
LINE
8
BLACK
6
CONTINUOUS
10
0.498909
20
0.218507
11
0.497034
21
0.224131
0
LINE
8
BLACK
6
CONTINUOUS
10
0.497034
20
0.224131
11
0.496905
21
0.225004
0
LINE
8
BLACK
6
CONTINUOUS
10
0.496905
20
0.225004
11
0.496883
21
0.225065
0
LINE
8
BLACK
6
CONTINUOUS
10
0.496883
20
0.225065
11
0.496883
21
0.228814
0
LINE
8
BLACK
6
CONTINUOUS
10
0.496883
20
0.228814
11
0.497036
21
0.229684
0
LINE
8
BLACK
6
CONTINUOUS
10
0.497036
20
0.229684
11
0.497034
21
0.229748
0
LINE
8
BLACK
6
CONTINUOUS
10
0.497034
20
0.229748
11
0.498909
21
0.235372
0
LINE
8
BLACK
6
CONTINUOUS
10
0.498909
20
0.235372
11
0.499397
21
0.236274
0
LINE
8
BLACK
6
CONTINUOUS
10
0.499397
20
0.236274
11
0.499548
21
0.236366
0
LINE
8
BLACK
6
CONTINUOUS
10
0.499548
20
0.236366
11
0.499622
21
0.236526
0
LINE
8
BLACK
6
CONTINUOUS
10
0.499622
20
0.236526
11
0.503372
21
0.240276
0
LINE
8
BLACK
6
CONTINUOUS
10
0.503372
20
0.240276
11
0.504095
21
0.240782
0
LINE
8
BLACK
6
CONTINUOUS
10
0.504095
20
0.240782
11
0.504139
21
0.240829
0
LINE
8
BLACK
6
CONTINUOUS
10
0.504139
20
0.240829
11
0.507889
21
0.242704
0
LINE
8
BLACK
6
CONTINUOUS
10
0.507889
20
0.242704
11
0.508377
21
0.242849
0
LINE
8
BLACK
6
CONTINUOUS
10
0.508377
20
0.242849
11
0.508493
21
0.242927
0
LINE
8
BLACK
6
CONTINUOUS
10
0.508493
20
0.242927
11
0.515992
21
0.244802
0
LINE
8
BLACK
6
CONTINUOUS
10
0.515992
20
0.244802
11
0.51658
21
0.244844
0
LINE
8
BLACK
6
CONTINUOUS
10
0.51658
20
0.244844
11
0.516708
21
0.24489
0
LINE
8
BLACK
6
CONTINUOUS
10
0.516708
20
0.24489
11
0.522333
21
0.24489
0
LINE
8
BLACK
6
CONTINUOUS
10
0.522333
20
0.24489
11
0.522913
21
0.244788
0
LINE
8
BLACK
6
CONTINUOUS
10
0.346544
20
0.293935
11
0.347657
21
0.29225
0
LINE
8
BLACK
6
CONTINUOUS
10
0.347657
20
0.29225
11
0.347426
21
0.290243
0
LINE
8
BLACK
6
CONTINUOUS
10
0.347426
20
0.290243
11
0.345551
21
0.286494
0
LINE
8
BLACK
6
CONTINUOUS
10
0.345551
20
0.286494
11
0.345025
21
0.285784
0
LINE
8
BLACK
6
CONTINUOUS
10
0.345025
20
0.285784
11
0.344998
21
0.285726
0
LINE
8
BLACK
6
CONTINUOUS
10
0.344998
20
0.285726
11
0.34254
21
0.283268
0
LINE
8
BLACK
6
CONTINUOUS
10
0.34254
20
0.283268
11
0.369954
21
0.283268
0
LINE
8
BLACK
6
CONTINUOUS
10
0.369954
20
0.283268
11
0.369954
21
0.291564
0
LINE
8
BLACK
6
CONTINUOUS
10
0.369954
20
0.291564
11
0.370132
21
0.292573
0
LINE
8
BLACK
6
CONTINUOUS
10
0.370132
20
0.292573
11
0.37143
21
0.294121
0
LINE
8
BLACK
6
CONTINUOUS
10
0.37143
20
0.294121
11
0.373419
21
0.294471
0
LINE
8
BLACK
6
CONTINUOUS
10
0.373419
20
0.294471
11
0.375168
21
0.293462
0
LINE
8
BLACK
6
CONTINUOUS
10
0.375168
20
0.293462
11
0.375859
21
0.291564
0
LINE
8
BLACK
6
CONTINUOUS
10
0.375859
20
0.291564
11
0.375859
21
0.269066
0
LINE
8
BLACK
6
CONTINUOUS
10
0.375859
20
0.269066
11
0.375681
21
0.268056
0
LINE
8
BLACK
6
CONTINUOUS
10
0.375681
20
0.268056
11
0.374383
21
0.266509
0
LINE
8
BLACK
6
CONTINUOUS
10
0.374383
20
0.266509
11
0.372394
21
0.266158
0
LINE
8
BLACK
6
CONTINUOUS
10
0.372394
20
0.266158
11
0.370644
21
0.267168
0
LINE
8
BLACK
6
CONTINUOUS
10
0.370644
20
0.267168
11
0.369954
21
0.269066
0
LINE
8
BLACK
6
CONTINUOUS
10
0.369954
20
0.269066
11
0.369954
21
0.277362
0
LINE
8
BLACK
6
CONTINUOUS
10
0.369954
20
0.277362
11
0.333536
21
0.277362
0
LINE
8
BLACK
6
CONTINUOUS
10
0.333536
20
0.277362
11
0.332526
21
0.27754
0
LINE
8
BLACK
6
CONTINUOUS
10
0.332526
20
0.27754
11
0.332396
21
0.277649
0
LINE
8
BLACK
6
CONTINUOUS
10
0.332396
20
0.277649
11
0.332227
21
0.277668
0
LINE
8
BLACK
6
CONTINUOUS
10
0.332227
20
0.277668
11
0.331636
21
0.278288
0
LINE
8
BLACK
6
CONTINUOUS
10
0.331636
20
0.278288
11
0.330979
21
0.278839
0
LINE
8
BLACK
6
CONTINUOUS
10
0.330979
20
0.278839
11
0.33095
21
0.279006
0
LINE
8
BLACK
6
CONTINUOUS
10
0.33095
20
0.279006
11
0.330832
21
0.279129
0
LINE
8
BLACK
6
CONTINUOUS
10
0.330832
20
0.279129
11
0.330777
21
0.279984
0
LINE
8
BLACK
6
CONTINUOUS
10
0.330777
20
0.279984
11
0.330628
21
0.280828
0
LINE
8
BLACK
6
CONTINUOUS
10
0.330628
20
0.280828
11
0.330713
21
0.280975
0
LINE
8
BLACK
6
CONTINUOUS
10
0.330713
20
0.280975
11
0.330702
21
0.281144
0
LINE
8
BLACK
6
CONTINUOUS
10
0.330702
20
0.281144
11
0.33121
21
0.281835
0
LINE
8
BLACK
6
CONTINUOUS
10
0.33121
20
0.281835
11
0.331638
21
0.282577
0
LINE
8
BLACK
6
CONTINUOUS
10
0.331638
20
0.282577
11
0.331798
21
0.282635
0
LINE
8
BLACK
6
CONTINUOUS
10
0.331798
20
0.282635
11
0.331898
21
0.282772
0
LINE
8
BLACK
6
CONTINUOUS
10
0.331898
20
0.282772
11
0.337279
21
0.286359
0
LINE
8
BLACK
6
CONTINUOUS
10
0.337279
20
0.286359
11
0.340483
21
0.289563
0
LINE
8
BLACK
6
CONTINUOUS
10
0.340483
20
0.289563
11
0.342144
21
0.292884
0
LINE
8
BLACK
6
CONTINUOUS
10
0.342144
20
0.292884
11
0.342755
21
0.293708
0
LINE
8
BLACK
6
CONTINUOUS
10
0.342755
20
0.293708
11
0.344608
21
0.294511
0
LINE
8
BLACK
6
CONTINUOUS
10
0.344608
20
0.294511
11
0.346544
21
0.293935
0
LINE
8
BLACK
6
CONTINUOUS
10
0.37329
20
0.331944
11
0.373419
21
0.331967
0
LINE
8
BLACK
6
CONTINUOUS
10
0.373419
20
0.331967
11
0.373533
21
0.331901
0
LINE
8
BLACK
6
CONTINUOUS
10
0.373533
20
0.331901
11
0.373916
21
0.331834
0
LINE
8
BLACK
6
CONTINUOUS
10
0.373916
20
0.331834
11
0.374504
21
0.33134
0
LINE
8
BLACK
6
CONTINUOUS
10
0.374504
20
0.33134
11
0.375168
21
0.330957
0
LINE
8
BLACK
6
CONTINUOUS
10
0.375168
20
0.330957
11
0.375259
21
0.330707
0
LINE
8
BLACK
6
CONTINUOUS
10
0.375259
20
0.330707
11
0.375463
21
0.330535
0
LINE
8
BLACK
6
CONTINUOUS
10
0.375463
20
0.330535
11
0.375597
21
0.32978
0
LINE
8
BLACK
6
CONTINUOUS
10
0.375597
20
0.32978
11
0.375859
21
0.329059
0
LINE
8
BLACK
6
CONTINUOUS
10
0.375859
20
0.329059
11
0.375859
21
0.319685
0
LINE
8
BLACK
6
CONTINUOUS
10
0.375859
20
0.319685
11
0.375706
21
0.318816
0
LINE
8
BLACK
6
CONTINUOUS
10
0.375706
20
0.318816
11
0.375707
21
0.318751
0
LINE
8
BLACK
6
CONTINUOUS
10
0.375707
20
0.318751
11
0.373833
21
0.313127
0
LINE
8
BLACK
6
CONTINUOUS
10
0.373833
20
0.313127
11
0.373344
21
0.312225
0
LINE
8
BLACK
6
CONTINUOUS
10
0.373344
20
0.312225
11
0.373194
21
0.312133
0
LINE
8
BLACK
6
CONTINUOUS
10
0.373194
20
0.312133
11
0.373119
21
0.311973
0
LINE
8
BLACK
6
CONTINUOUS
10
0.373119
20
0.311973
11
0.36937
21
0.308223
0
LINE
8
BLACK
6
CONTINUOUS
10
0.36937
20
0.308223
11
0.368647
21
0.307717
0
LINE
8
BLACK
6
CONTINUOUS
10
0.368647
20
0.307717
11
0.368602
21
0.30767
0
LINE
8
BLACK
6
CONTINUOUS
10
0.368602
20
0.30767
11
0.364853
21
0.305795
0
LINE
8
BLACK
6
CONTINUOUS
10
0.364853
20
0.305795
11
0.364364
21
0.30565
0
LINE
8
BLACK
6
CONTINUOUS
10
0.364364
20
0.30565
11
0.364249
21
0.305572
0
LINE
8
BLACK
6
CONTINUOUS
10
0.364249
20
0.305572
11
0.356749
21
0.303697
0
LINE
8
BLACK
6
CONTINUOUS
10
0.356749
20
0.303697
11
0.356162
21
0.303656
0
LINE
8
BLACK
6
CONTINUOUS
10
0.356162
20
0.303656
11
0.356033
21
0.303609
0
LINE
8
BLACK
6
CONTINUOUS
10
0.356033
20
0.303609
11
0.350409
21
0.303609
0
LINE
8
BLACK
6
CONTINUOUS
10
0.350409
20
0.303609
11
0.349829
21
0.303711
0
LINE
8
BLACK
6
CONTINUOUS
10
0.349829
20
0.303711
11
0.349693
21
0.303697
0
LINE
8
BLACK
6
CONTINUOUS
10
0.349693
20
0.303697
11
0.342194
21
0.305572
0
LINE
8
BLACK
6
CONTINUOUS
10
0.342194
20
0.305572
11
0.341728
21
0.305779
0
LINE
8
BLACK
6
CONTINUOUS
10
0.341728
20
0.305779
11
0.341589
21
0.305795
0
LINE
8
BLACK
6
CONTINUOUS
10
0.341589
20
0.305795
11
0.33784
21
0.30767
0
LINE
8
BLACK
6
CONTINUOUS
10
0.33784
20
0.30767
11
0.337131
21
0.308196
0
LINE
8
BLACK
6
CONTINUOUS
10
0.337131
20
0.308196
11
0.337073
21
0.308223
0
LINE
8
BLACK
6
CONTINUOUS
10
0.337073
20
0.308223
11
0.333323
21
0.311973
0
LINE
8
BLACK
6
CONTINUOUS
10
0.333323
20
0.311973
11
0.332735
21
0.312813
0
LINE
8
BLACK
6
CONTINUOUS
10
0.332735
20
0.312813
11
0.332719
21
0.312989
0
LINE
8
BLACK
6
CONTINUOUS
10
0.332719
20
0.312989
11
0.33261
21
0.313127
0
LINE
8
BLACK
6
CONTINUOUS
10
0.33261
20
0.313127
11
0.330735
21
0.318751
0
LINE
8
BLACK
6
CONTINUOUS
10
0.330735
20
0.318751
11
0.330605
21
0.319624
0
LINE
8
BLACK
6
CONTINUOUS
10
0.330605
20
0.319624
11
0.330583
21
0.319685
0
LINE
8
BLACK
6
CONTINUOUS
10
0.330583
20
0.319685
11
0.330583
21
0.329059
0
LINE
8
BLACK
6
CONTINUOUS
10
0.330583
20
0.329059
11
0.330651
21
0.329442
0
LINE
8
BLACK
6
CONTINUOUS
10
0.330651
20
0.329442
11
0.330628
21
0.329572
0
LINE
8
BLACK
6
CONTINUOUS
10
0.330628
20
0.329572
11
0.330694
21
0.329685
0
LINE
8
BLACK
6
CONTINUOUS
10
0.330694
20
0.329685
11
0.330761
21
0.330069
0
LINE
8
BLACK
6
CONTINUOUS
10
0.330761
20
0.330069
11
0.331255
21
0.330656
0
LINE
8
BLACK
6
CONTINUOUS
10
0.331255
20
0.330656
11
0.331638
21
0.331321
0
LINE
8
BLACK
6
CONTINUOUS
10
0.331638
20
0.331321
11
0.331889
21
0.331412
0
LINE
8
BLACK
6
CONTINUOUS
10
0.331889
20
0.331412
11
0.33206
21
0.331616
0
LINE
8
BLACK
6
CONTINUOUS
10
0.33206
20
0.331616
11
0.332815
21
0.331749
0
LINE
8
BLACK
6
CONTINUOUS
10
0.332815
20
0.331749
11
0.333536
21
0.332012
0
LINE
8
BLACK
6
CONTINUOUS
10
0.333536
20
0.332012
11
0.372906
21
0.332012
0
LINE
8
BLACK
6
CONTINUOUS
10
0.372906
20
0.332012
11
0.37329
21
0.331944
0
LINE
8
BLACK
6
CONTINUOUS
10
0.336489
20
0.320164
11
0.337992
21
0.315656
0
LINE
8
BLACK
6
CONTINUOUS
10
0.337992
20
0.315656
11
0.34091
21
0.312738
0
LINE
8
BLACK
6
CONTINUOUS
10
0.34091
20
0.312738
11
0.343941
21
0.311222
0
LINE
8
BLACK
6
CONTINUOUS
10
0.343941
20
0.311222
11
0.350773
21
0.309514
0
LINE
8
BLACK
6
CONTINUOUS
10
0.350773
20
0.309514
11
0.35567
21
0.309514
0
LINE
8
BLACK
6
CONTINUOUS
10
0.35567
20
0.309514
11
0.362502
21
0.311222
0
LINE
8
BLACK
6
CONTINUOUS
10
0.362502
20
0.311222
11
0.365533
21
0.312738
0
LINE
8
BLACK
6
CONTINUOUS
10
0.365533
20
0.312738
11
0.368451
21
0.315656
0
LINE
8
BLACK
6
CONTINUOUS
10
0.368451
20
0.315656
11
0.369954
21
0.320164
0
LINE
8
BLACK
6
CONTINUOUS
10
0.369954
20
0.320164
11
0.369954
21
0.326106
0
LINE
8
BLACK
6
CONTINUOUS
10
0.369954
20
0.326106
11
0.336489
21
0.326106
0
LINE
8
BLACK
6
CONTINUOUS
10
0.336489
20
0.326106
11
0.336489
21
0.320164
0
LINE
8
BLACK
6
CONTINUOUS
10
0.457034
20
0.332538
11
0.458581
21
0.33124
0
LINE
8
BLACK
6
CONTINUOUS
10
0.458581
20
0.33124
11
0.458932
21
0.329251
0
LINE
8
BLACK
6
CONTINUOUS
10
0.458932
20
0.329251
11
0.457922
21
0.327502
0
LINE
8
BLACK
6
CONTINUOUS
10
0.457922
20
0.327502
11
0.456024
21
0.326811
0
LINE
8
BLACK
6
CONTINUOUS
10
0.456024
20
0.326811
11
0.396024
21
0.326811
0
LINE
8
BLACK
6
CONTINUOUS
10
0.396024
20
0.326811
11
0.395014
21
0.326989
0
LINE
8
BLACK
6
CONTINUOUS
10
0.395014
20
0.326989
11
0.393466
21
0.328287
0
LINE
8
BLACK
6
CONTINUOUS
10
0.393466
20
0.328287
11
0.393116
21
0.330277
0
LINE
8
BLACK
6
CONTINUOUS
10
0.393116
20
0.330277
11
0.394126
21
0.332026
0
LINE
8
BLACK
6
CONTINUOUS
10
0.394126
20
0.332026
11
0.396024
21
0.332717
0
LINE
8
BLACK
6
CONTINUOUS
10
0.396024
20
0.332717
11
0.456024
21
0.332717
0
LINE
8
BLACK
6
CONTINUOUS
10
0.456024
20
0.332717
11
0.457034
21
0.332538
0
LINE
8
BLACK
6
CONTINUOUS
10
0.382418
20
0.414072
11
0.38311
21
0.412402
0
LINE
8
BLACK
6
CONTINUOUS
10
0.38311
20
0.412402
11
0.38311
21
0.339567
0
LINE
8
BLACK
6
CONTINUOUS
10
0.38311
20
0.339567
11
0.382418
21
0.337897
0
LINE
8
BLACK
6
CONTINUOUS
10
0.382418
20
0.337897
11
0.380748
21
0.337205
0
LINE
8
BLACK
6
CONTINUOUS
10
0.380748
20
0.337205
11
0.333504
21
0.337205
0
LINE
8
BLACK
6
CONTINUOUS
10
0.333504
20
0.337205
11
0.331834
21
0.337897
0
LINE
8
BLACK
6
CONTINUOUS
10
0.331834
20
0.337897
11
0.331142
21
0.339567
0
LINE
8
BLACK
6
CONTINUOUS
10
0.331142
20
0.339567
11
0.331142
21
0.412402
0
LINE
8
BLACK
6
CONTINUOUS
10
0.331142
20
0.412402
11
0.331834
21
0.414072
0
LINE
8
BLACK
6
CONTINUOUS
10
0.331834
20
0.414072
11
0.333504
21
0.414764
0
LINE
8
BLACK
6
CONTINUOUS
10
0.333504
20
0.414764
11
0.335174
21
0.414072
0
LINE
8
BLACK
6
CONTINUOUS
10
0.335174
20
0.414072
11
0.335866
21
0.412402
0
LINE
8
BLACK
6
CONTINUOUS
10
0.335866
20
0.412402
11
0.335866
21
0.341929
0
LINE
8
BLACK
6
CONTINUOUS
10
0.335866
20
0.341929
11
0.378386
21
0.341929
0
LINE
8
BLACK
6
CONTINUOUS
10
0.378386
20
0.341929
11
0.378386
21
0.412402
0
LINE
8
BLACK
6
CONTINUOUS
10
0.378386
20
0.412402
11
0.379078
21
0.414072
0
LINE
8
BLACK
6
CONTINUOUS
10
0.379078
20
0.414072
11
0.380748
21
0.414764
0
LINE
8
BLACK
6
CONTINUOUS
10
0.380748
20
0.414764
11
0.382418
21
0.414072
0
LINE
8
BLACK
6
CONTINUOUS
10
0.397694
20
0.406434
11
0.398386
21
0.404764
0
LINE
8
BLACK
6
CONTINUOUS
10
0.398386
20
0.404764
11
0.398386
21
0.374764
0
LINE
8
BLACK
6
CONTINUOUS
10
0.398386
20
0.374764
11
0.397694
21
0.373093
0
LINE
8
BLACK
6
CONTINUOUS
10
0.397694
20
0.373093
11
0.396024
21
0.372402
0
LINE
8
BLACK
6
CONTINUOUS
10
0.396024
20
0.372402
11
0.394353
21
0.373093
0
LINE
8
BLACK
6
CONTINUOUS
10
0.394353
20
0.373093
11
0.393661
21
0.374764
0
LINE
8
BLACK
6
CONTINUOUS
10
0.393661
20
0.374764
11
0.393661
21
0.404764
0
LINE
8
BLACK
6
CONTINUOUS
10
0.393661
20
0.404764
11
0.394353
21
0.406434
0
LINE
8
BLACK
6
CONTINUOUS
10
0.394353
20
0.406434
11
0.396024
21
0.407126
0
LINE
8
BLACK
6
CONTINUOUS
10
0.396024
20
0.407126
11
0.397694
21
0.406434
0
LINE
8
BLACK
6
CONTINUOUS
10
0.457694
20
0.406434
11
0.458386
21
0.404764
0
LINE
8
BLACK
6
CONTINUOUS
10
0.458386
20
0.404764
11
0.458386
21
0.374764
0
LINE
8
BLACK
6
CONTINUOUS
10
0.458386
20
0.374764
11
0.457694
21
0.373093
0
LINE
8
BLACK
6
CONTINUOUS
10
0.457694
20
0.373093
11
0.456024
21
0.372402
0
LINE
8
BLACK
6
CONTINUOUS
10
0.456024
20
0.372402
11
0.454353
21
0.373093
0
LINE
8
BLACK
6
CONTINUOUS
10
0.454353
20
0.373093
11
0.453661
21
0.374764
0
LINE
8
BLACK
6
CONTINUOUS
10
0.453661
20
0.374764
11
0.453661
21
0.404764
0
LINE
8
BLACK
6
CONTINUOUS
10
0.453661
20
0.404764
11
0.454353
21
0.406434
0
LINE
8
BLACK
6
CONTINUOUS
10
0.454353
20
0.406434
11
0.456024
21
0.407126
0
LINE
8
BLACK
6
CONTINUOUS
10
0.456024
20
0.407126
11
0.457694
21
0.406434
0
LINE
8
BLACK
6
CONTINUOUS
10
0.489308
20
0.391937
11
0.49
21
0.390267
0
LINE
8
BLACK
6
CONTINUOUS
10
0.49
20
0.390267
11
0.49
21
0.37745
0
LINE
8
BLACK
6
CONTINUOUS
10
0.49
20
0.37745
11
0.489308
21
0.375779
0
LINE
8
BLACK
6
CONTINUOUS
10
0.489308
20
0.375779
11
0.487638
21
0.375087
0
LINE
8
BLACK
6
CONTINUOUS
10
0.487638
20
0.375087
11
0.485967
21
0.375779
0
LINE
8
BLACK
6
CONTINUOUS
10
0.485967
20
0.375779
11
0.485276
21
0.37745
0
LINE
8
BLACK
6
CONTINUOUS
10
0.485276
20
0.37745
11
0.485276
21
0.390267
0
LINE
8
BLACK
6
CONTINUOUS
10
0.485276
20
0.390267
11
0.485967
21
0.391937
0
LINE
8
BLACK
6
CONTINUOUS
10
0.485967
20
0.391937
11
0.487638
21
0.392629
0
LINE
8
BLACK
6
CONTINUOUS
10
0.487638
20
0.392629
11
0.489308
21
0.391937
0
LINE
8
BLACK
6
CONTINUOUS
10
0.529466
20
0.391937
11
0.530157
21
0.390267
0
LINE
8
BLACK
6
CONTINUOUS
10
0.530157
20
0.390267
11
0.530157
21
0.37745
0
LINE
8
BLACK
6
CONTINUOUS
10
0.530157
20
0.37745
11
0.529466
21
0.375779
0
LINE
8
BLACK
6
CONTINUOUS
10
0.529466
20
0.375779
11
0.527795
21
0.375087
0
LINE
8
BLACK
6
CONTINUOUS
10
0.527795
20
0.375087
11
0.526125
21
0.375779
0
LINE
8
BLACK
6
CONTINUOUS
10
0.526125
20
0.375779
11
0.525433
21
0.37745
0
LINE
8
BLACK
6
CONTINUOUS
10
0.525433
20
0.37745
11
0.525433
21
0.390267
0
LINE
8
BLACK
6
CONTINUOUS
10
0.525433
20
0.390267
11
0.526125
21
0.391937
0
LINE
8
BLACK
6
CONTINUOUS
10
0.526125
20
0.391937
11
0.527795
21
0.392629
0
LINE
8
BLACK
6
CONTINUOUS
10
0.527795
20
0.392629
11
0.529466
21
0.391937
0
LINE
8
BLACK
6
CONTINUOUS
10
0.561592
20
0.393079
11
0.562283
21
0.391409
0
LINE
8
BLACK
6
CONTINUOUS
10
0.562283
20
0.391409
11
0.562283
21
0.378591
0
LINE
8
BLACK
6
CONTINUOUS
10
0.562283
20
0.378591
11
0.561592
21
0.376921
0
LINE
8
BLACK
6
CONTINUOUS
10
0.561592
20
0.376921
11
0.559921
21
0.376229
0
LINE
8
BLACK
6
CONTINUOUS
10
0.559921
20
0.376229
11
0.558251
21
0.376921
0
LINE
8
BLACK
6
CONTINUOUS
10
0.558251
20
0.376921
11
0.557559
21
0.378591
0
LINE
8
BLACK
6
CONTINUOUS
10
0.557559
20
0.378591
11
0.557559
21
0.391409
0
LINE
8
BLACK
6
CONTINUOUS
10
0.557559
20
0.391409
11
0.558251
21
0.393079
0
LINE
8
BLACK
6
CONTINUOUS
10
0.558251
20
0.393079
11
0.559921
21
0.393771
0
LINE
8
BLACK
6
CONTINUOUS
10
0.559921
20
0.393771
11
0.561592
21
0.393079
0
LINE
8
BLACK
6
CONTINUOUS
10
0.601749
20
0.393079
11
0.602441
21
0.391409
0
LINE
8
BLACK
6
CONTINUOUS
10
0.602441
20
0.391409
11
0.602441
21
0.378591
0
LINE
8
BLACK
6
CONTINUOUS
10
0.602441
20
0.378591
11
0.601749
21
0.376921
0
LINE
8
BLACK
6
CONTINUOUS
10
0.601749
20
0.376921
11
0.600079
21
0.376229
0
LINE
8
BLACK
6
CONTINUOUS
10
0.600079
20
0.376229
11
0.598408
21
0.376921
0
LINE
8
BLACK
6
CONTINUOUS
10
0.598408
20
0.376921
11
0.597717
21
0.378591
0
LINE
8
BLACK
6
CONTINUOUS
10
0.597717
20
0.378591
11
0.597717
21
0.391409
0
LINE
8
BLACK
6
CONTINUOUS
10
0.597717
20
0.391409
11
0.598408
21
0.393079
0
LINE
8
BLACK
6
CONTINUOUS
10
0.598408
20
0.393079
11
0.600079
21
0.393771
0
LINE
8
BLACK
6
CONTINUOUS
10
0.600079
20
0.393771
11
0.601749
21
0.393079
0
LINE
8
BLACK
6
CONTINUOUS
10
0.636592
20
0.393079
11
0.637283
21
0.391409
0
LINE
8
BLACK
6
CONTINUOUS
10
0.637283
20
0.391409
11
0.637283
21
0.378591
0
LINE
8
BLACK
6
CONTINUOUS
10
0.637283
20
0.378591
11
0.636592
21
0.376921
0
LINE
8
BLACK
6
CONTINUOUS
10
0.636592
20
0.376921
11
0.634921
21
0.376229
0
LINE
8
BLACK
6
CONTINUOUS
10
0.634921
20
0.376229
11
0.633251
21
0.376921
0
LINE
8
BLACK
6
CONTINUOUS
10
0.633251
20
0.376921
11
0.632559
21
0.378591
0
LINE
8
BLACK
6
CONTINUOUS
10
0.632559
20
0.378591
11
0.632559
21
0.391409
0
LINE
8
BLACK
6
CONTINUOUS
10
0.632559
20
0.391409
11
0.633251
21
0.393079
0
LINE
8
BLACK
6
CONTINUOUS
10
0.633251
20
0.393079
11
0.634921
21
0.393771
0
LINE
8
BLACK
6
CONTINUOUS
10
0.634921
20
0.393771
11
0.636592
21
0.393079
0
LINE
8
BLACK
6
CONTINUOUS
10
0.676749
20
0.393079
11
0.677441
21
0.391409
0
LINE
8
BLACK
6
CONTINUOUS
10
0.677441
20
0.391409
11
0.677441
21
0.378591
0
LINE
8
BLACK
6
CONTINUOUS
10
0.677441
20
0.378591
11
0.676749
21
0.376921
0
LINE
8
BLACK
6
CONTINUOUS
10
0.676749
20
0.376921
11
0.675079
21
0.376229
0
LINE
8
BLACK
6
CONTINUOUS
10
0.675079
20
0.376229
11
0.673408
21
0.376921
0
LINE
8
BLACK
6
CONTINUOUS
10
0.673408
20
0.376921
11
0.672717
21
0.378591
0
LINE
8
BLACK
6
CONTINUOUS
10
0.672717
20
0.378591
11
0.672717
21
0.391409
0
LINE
8
BLACK
6
CONTINUOUS
10
0.672717
20
0.391409
11
0.673408
21
0.393079
0
LINE
8
BLACK
6
CONTINUOUS
10
0.673408
20
0.393079
11
0.675079
21
0.393771
0
LINE
8
BLACK
6
CONTINUOUS
10
0.675079
20
0.393771
11
0.676749
21
0.393079
0
LINE
8
BLACK
6
CONTINUOUS
10
0.273757
20
0.395874
11
0.274449
21
0.394204
0
LINE
8
BLACK
6
CONTINUOUS
10
0.274449
20
0.394204
11
0.274449
21
0.381387
0
LINE
8
BLACK
6
CONTINUOUS
10
0.274449
20
0.381387
11
0.273757
21
0.379716
0
LINE
8
BLACK
6
CONTINUOUS
10
0.273757
20
0.379716
11
0.272087
21
0.379024
0
LINE
8
BLACK
6
CONTINUOUS
10
0.272087
20
0.379024
11
0.270416
21
0.379716
0
LINE
8
BLACK
6
CONTINUOUS
10
0.270416
20
0.379716
11
0.269724
21
0.381387
0
LINE
8
BLACK
6
CONTINUOUS
10
0.269724
20
0.381387
11
0.269724
21
0.394204
0
LINE
8
BLACK
6
CONTINUOUS
10
0.269724
20
0.394204
11
0.270416
21
0.395874
0
LINE
8
BLACK
6
CONTINUOUS
10
0.270416
20
0.395874
11
0.272087
21
0.396566
0
LINE
8
BLACK
6
CONTINUOUS
10
0.272087
20
0.396566
11
0.273757
21
0.395874
0
LINE
8
BLACK
6
CONTINUOUS
10
0.313914
20
0.395874
11
0.314606
21
0.394204
0
LINE
8
BLACK
6
CONTINUOUS
10
0.314606
20
0.394204
11
0.314606
21
0.381387
0
LINE
8
BLACK
6
CONTINUOUS
10
0.314606
20
0.381387
11
0.313914
21
0.379716
0
LINE
8
BLACK
6
CONTINUOUS
10
0.313914
20
0.379716
11
0.312244
21
0.379024
0
LINE
8
BLACK
6
CONTINUOUS
10
0.312244
20
0.379024
11
0.310574
21
0.379716
0
LINE
8
BLACK
6
CONTINUOUS
10
0.310574
20
0.379716
11
0.309882
21
0.381387
0
LINE
8
BLACK
6
CONTINUOUS
10
0.309882
20
0.381387
11
0.309882
21
0.394204
0
LINE
8
BLACK
6
CONTINUOUS
10
0.309882
20
0.394204
11
0.310574
21
0.395874
0
LINE
8
BLACK
6
CONTINUOUS
10
0.310574
20
0.395874
11
0.312244
21
0.396566
0
LINE
8
BLACK
6
CONTINUOUS
10
0.312244
20
0.396566
11
0.313914
21
0.395874
0
LINE
8
BLACK
6
CONTINUOUS
10
0.185323
20
0.46437
11
0.186993
21
0.463678
0
LINE
8
BLACK
6
CONTINUOUS
10
0.186993
20
0.463678
11
0.187685
21
0.462008
0
LINE
8
BLACK
6
CONTINUOUS
10
0.187685
20
0.462008
11
0.187685
21
0.391142
0
LINE
8
BLACK
6
CONTINUOUS
10
0.187685
20
0.391142
11
0.186993
21
0.389471
0
LINE
8
BLACK
6
CONTINUOUS
10
0.186993
20
0.389471
11
0.185323
21
0.38878
0
LINE
8
BLACK
6
CONTINUOUS
10
0.185323
20
0.38878
11
0.183653
21
0.389471
0
LINE
8
BLACK
6
CONTINUOUS
10
0.183653
20
0.389471
11
0.182961
21
0.391142
0
LINE
8
BLACK
6
CONTINUOUS
10
0.182961
20
0.391142
11
0.182961
21
0.459646
0
LINE
8
BLACK
6
CONTINUOUS
10
0.182961
20
0.459646
11
0.128236
21
0.459646
0
LINE
8
BLACK
6
CONTINUOUS
10
0.128236
20
0.459646
11
0.126566
21
0.460338
0
LINE
8
BLACK
6
CONTINUOUS
10
0.126566
20
0.460338
11
0.125874
21
0.462008
0
LINE
8
BLACK
6
CONTINUOUS
10
0.125874
20
0.462008
11
0.126566
21
0.463678
0
LINE
8
BLACK
6
CONTINUOUS
10
0.126566
20
0.463678
11
0.128236
21
0.46437
0
LINE
8
BLACK
6
CONTINUOUS
10
0.128236
20
0.46437
11
0.185323
21
0.46437
0
LINE
8
BLACK
6
CONTINUOUS
10
0.231544
20
0.418935
11
0.232657
21
0.41725
0
LINE
8
BLACK
6
CONTINUOUS
10
0.232657
20
0.41725
11
0.232426
21
0.415243
0
LINE
8
BLACK
6
CONTINUOUS
10
0.232426
20
0.415243
11
0.230551
21
0.411494
0
LINE
8
BLACK
6
CONTINUOUS
10
0.230551
20
0.411494
11
0.230025
21
0.410784
0
LINE
8
BLACK
6
CONTINUOUS
10
0.230025
20
0.410784
11
0.229998
21
0.410726
0
LINE
8
BLACK
6
CONTINUOUS
10
0.229998
20
0.410726
11
0.22754
21
0.408268
0
LINE
8
BLACK
6
CONTINUOUS
10
0.22754
20
0.408268
11
0.254954
21
0.408268
0
LINE
8
BLACK
6
CONTINUOUS
10
0.254954
20
0.408268
11
0.254954
21
0.416564
0
LINE
8
BLACK
6
CONTINUOUS
10
0.254954
20
0.416564
11
0.255132
21
0.417573
0
LINE
8
BLACK
6
CONTINUOUS
10
0.255132
20
0.417573
11
0.25643
21
0.419121
0
LINE
8
BLACK
6
CONTINUOUS
10
0.25643
20
0.419121
11
0.258419
21
0.419471
0
LINE
8
BLACK
6
CONTINUOUS
10
0.258419
20
0.419471
11
0.260168
21
0.418462
0
LINE
8
BLACK
6
CONTINUOUS
10
0.260168
20
0.418462
11
0.260859
21
0.416564
0
LINE
8
BLACK
6
CONTINUOUS
10
0.260859
20
0.416564
11
0.260859
21
0.394066
0
LINE
8
BLACK
6
CONTINUOUS
10
0.260859
20
0.394066
11
0.260681
21
0.393056
0
LINE
8
BLACK
6
CONTINUOUS
10
0.260681
20
0.393056
11
0.259383
21
0.391509
0
LINE
8
BLACK
6
CONTINUOUS
10
0.259383
20
0.391509
11
0.257394
21
0.391158
0
LINE
8
BLACK
6
CONTINUOUS
10
0.257394
20
0.391158
11
0.255644
21
0.392168
0
LINE
8
BLACK
6
CONTINUOUS
10
0.255644
20
0.392168
11
0.254954
21
0.394066
0
LINE
8
BLACK
6
CONTINUOUS
10
0.254954
20
0.394066
11
0.254954
21
0.402362
0
LINE
8
BLACK
6
CONTINUOUS
10
0.254954
20
0.402362
11
0.218536
21
0.402362
0
LINE
8
BLACK
6
CONTINUOUS
10
0.218536
20
0.402362
11
0.217526
21
0.40254
0
LINE
8
BLACK
6
CONTINUOUS
10
0.217526
20
0.40254
11
0.217396
21
0.402649
0
LINE
8
BLACK
6
CONTINUOUS
10
0.217396
20
0.402649
11
0.217227
21
0.402668
0
LINE
8
BLACK
6
CONTINUOUS
10
0.217227
20
0.402668
11
0.216636
21
0.403288
0
LINE
8
BLACK
6
CONTINUOUS
10
0.216636
20
0.403288
11
0.215979
21
0.403839
0
LINE
8
BLACK
6
CONTINUOUS
10
0.215979
20
0.403839
11
0.21595
21
0.404006
0
LINE
8
BLACK
6
CONTINUOUS
10
0.21595
20
0.404006
11
0.215832
21
0.404129
0
LINE
8
BLACK
6
CONTINUOUS
10
0.215832
20
0.404129
11
0.215777
21
0.404984
0
LINE
8
BLACK
6
CONTINUOUS
10
0.215777
20
0.404984
11
0.215628
21
0.405828
0
LINE
8
BLACK
6
CONTINUOUS
10
0.215628
20
0.405828
11
0.215713
21
0.405975
0
LINE
8
BLACK
6
CONTINUOUS
10
0.215713
20
0.405975
11
0.215702
21
0.406144
0
LINE
8
BLACK
6
CONTINUOUS
10
0.215702
20
0.406144
11
0.21621
21
0.406835
0
LINE
8
BLACK
6
CONTINUOUS
10
0.21621
20
0.406835
11
0.216638
21
0.407577
0
LINE
8
BLACK
6
CONTINUOUS
10
0.216638
20
0.407577
11
0.216798
21
0.407635
0
LINE
8
BLACK
6
CONTINUOUS
10
0.216798
20
0.407635
11
0.216898
21
0.407772
0
LINE
8
BLACK
6
CONTINUOUS
10
0.216898
20
0.407772
11
0.222279
21
0.411359
0
LINE
8
BLACK
6
CONTINUOUS
10
0.222279
20
0.411359
11
0.225483
21
0.414563
0
LINE
8
BLACK
6
CONTINUOUS
10
0.225483
20
0.414563
11
0.227144
21
0.417884
0
LINE
8
BLACK
6
CONTINUOUS
10
0.227144
20
0.417884
11
0.227755
21
0.418708
0
LINE
8
BLACK
6
CONTINUOUS
10
0.227755
20
0.418708
11
0.229608
21
0.419511
0
LINE
8
BLACK
6
CONTINUOUS
10
0.229608
20
0.419511
11
0.231544
21
0.418935
0
LINE
8
BLACK
6
CONTINUOUS
10
0.816277
20
0.500096
11
0.816969
21
0.498425
0
LINE
8
BLACK
6
CONTINUOUS
10
0.816969
20
0.498425
11
0.816277
21
0.496755
0
LINE
8
BLACK
6
CONTINUOUS
10
0.816277
20
0.496755
11
0.814606
21
0.496063
0
LINE
8
BLACK
6
CONTINUOUS
10
0.814606
20
0.496063
11
0.739213
21
0.496063
0
LINE
8
BLACK
6
CONTINUOUS
10
0.739213
20
0.496063
11
0.739213
21
0.420669
0
LINE
8
BLACK
6
CONTINUOUS
10
0.739213
20
0.420669
11
0.738521
21
0.418999
0
LINE
8
BLACK
6
CONTINUOUS
10
0.738521
20
0.418999
11
0.73685
21
0.418307
0
LINE
8
BLACK
6
CONTINUOUS
10
0.73685
20
0.418307
11
0.73518
21
0.418999
0
LINE
8
BLACK
6
CONTINUOUS
10
0.73518
20
0.418999
11
0.734488
21
0.420669
0
LINE
8
BLACK
6
CONTINUOUS
10
0.734488
20
0.420669
11
0.734488
21
0.498425
0
LINE
8
BLACK
6
CONTINUOUS
10
0.734488
20
0.498425
11
0.73518
21
0.500096
0
LINE
8
BLACK
6
CONTINUOUS
10
0.73518
20
0.500096
11
0.73685
21
0.500787
0
LINE
8
BLACK
6
CONTINUOUS
10
0.73685
20
0.500787
11
0.814606
21
0.500787
0
LINE
8
BLACK
6
CONTINUOUS
10
0.814606
20
0.500787
11
0.816277
21
0.500096
0
LINE
8
BLACK
6
CONTINUOUS
10
1.14315
20
0.500787
11
1.14482
21
0.500096
0
LINE
8
BLACK
6
CONTINUOUS
10
1.14482
20
0.500096
11
1.14551
21
0.498425
0
LINE
8
BLACK
6
CONTINUOUS
10
1.14551
20
0.498425
11
1.14551
21
0.420669
0
LINE
8
BLACK
6
CONTINUOUS
10
1.14551
20
0.420669
11
1.14482
21
0.418999
0
LINE
8
BLACK
6
CONTINUOUS
10
1.14482
20
0.418999
11
1.14315
21
0.418307
0
LINE
8
BLACK
6
CONTINUOUS
10
1.14315
20
0.418307
11
1.14148
21
0.418999
0
LINE
8
BLACK
6
CONTINUOUS
10
1.14148
20
0.418999
11
1.14079
21
0.420669
0
LINE
8
BLACK
6
CONTINUOUS
10
1.14079
20
0.420669
11
1.14079
21
0.496063
0
LINE
8
BLACK
6
CONTINUOUS
10
1.14079
20
0.496063
11
1.06539
21
0.496063
0
LINE
8
BLACK
6
CONTINUOUS
10
1.06539
20
0.496063
11
1.06372
21
0.496755
0
LINE
8
BLACK
6
CONTINUOUS
10
1.06372
20
0.496755
11
1.06303
21
0.498425
0
LINE
8
BLACK
6
CONTINUOUS
10
1.06303
20
0.498425
11
1.06372
21
0.500096
0
LINE
8
BLACK
6
CONTINUOUS
10
1.06372
20
0.500096
11
1.06539
21
0.500787
0
LINE
8
BLACK
6
CONTINUOUS
10
1.06539
20
0.500787
11
1.14315
21
0.500787
0
LINE
8
BLACK
6
CONTINUOUS
10
0.258916
20
0.456834
11
0.260463
21
0.455535
0
LINE
8
BLACK
6
CONTINUOUS
10
0.260463
20
0.455535
11
0.260814
21
0.453546
0
LINE
8
BLACK
6
CONTINUOUS
10
0.260814
20
0.453546
11
0.259804
21
0.451797
0
LINE
8
BLACK
6
CONTINUOUS
10
0.259804
20
0.451797
11
0.257906
21
0.451106
0
LINE
8
BLACK
6
CONTINUOUS
10
0.257906
20
0.451106
11
0.242111
21
0.451106
0
LINE
8
BLACK
6
CONTINUOUS
10
0.242111
20
0.451106
11
0.242111
21
0.446222
0
LINE
8
BLACK
6
CONTINUOUS
10
0.242111
20
0.446222
11
0.2596
21
0.433981
0
LINE
8
BLACK
6
CONTINUOUS
10
0.2596
20
0.433981
11
0.260325
21
0.433256
0
LINE
8
BLACK
6
CONTINUOUS
10
0.260325
20
0.433256
11
0.260848
21
0.431305
0
LINE
8
BLACK
6
CONTINUOUS
10
0.260848
20
0.431305
11
0.259994
21
0.429474
0
LINE
8
BLACK
6
CONTINUOUS
10
0.259994
20
0.429474
11
0.258164
21
0.42862
0
LINE
8
BLACK
6
CONTINUOUS
10
0.258164
20
0.42862
11
0.256213
21
0.429143
0
LINE
8
BLACK
6
CONTINUOUS
10
0.256213
20
0.429143
11
0.242104
21
0.439019
0
LINE
8
BLACK
6
CONTINUOUS
10
0.242104
20
0.439019
11
0.241933
21
0.438051
0
LINE
8
BLACK
6
CONTINUOUS
10
0.241933
20
0.438051
11
0.24182
21
0.437916
0
LINE
8
BLACK
6
CONTINUOUS
10
0.24182
20
0.437916
11
0.2418
21
0.43774
0
LINE
8
BLACK
6
CONTINUOUS
10
0.2418
20
0.43774
11
0.239925
21
0.433991
0
LINE
8
BLACK
6
CONTINUOUS
10
0.239925
20
0.433991
11
0.239399
21
0.433282
0
LINE
8
BLACK
6
CONTINUOUS
10
0.239399
20
0.433282
11
0.239372
21
0.433223
0
LINE
8
BLACK
6
CONTINUOUS
10
0.239372
20
0.433223
11
0.237497
21
0.431349
0
LINE
8
BLACK
6
CONTINUOUS
10
0.237497
20
0.431349
11
0.236774
21
0.430842
0
LINE
8
BLACK
6
CONTINUOUS
10
0.236774
20
0.430842
11
0.23673
21
0.430795
0
LINE
8
BLACK
6
CONTINUOUS
10
0.23673
20
0.430795
11
0.23298
21
0.428921
0
LINE
8
BLACK
6
CONTINUOUS
10
0.23298
20
0.428921
11
0.231997
21
0.428628
0
LINE
8
BLACK
6
CONTINUOUS
10
0.231997
20
0.428628
11
0.231825
21
0.428669
0
LINE
8
BLACK
6
CONTINUOUS
10
0.231825
20
0.428669
11
0.23166
21
0.428609
0
LINE
8
BLACK
6
CONTINUOUS
10
0.23166
20
0.428609
11
0.226035
21
0.428609
0
LINE
8
BLACK
6
CONTINUOUS
10
0.226035
20
0.428609
11
0.225025
21
0.428787
0
LINE
8
BLACK
6
CONTINUOUS
10
0.225025
20
0.428787
11
0.22489
21
0.428901
0
LINE
8
BLACK
6
CONTINUOUS
10
0.22489
20
0.428901
11
0.224715
21
0.428921
0
LINE
8
BLACK
6
CONTINUOUS
10
0.224715
20
0.428921
11
0.220965
21
0.430795
0
LINE
8
BLACK
6
CONTINUOUS
10
0.220965
20
0.430795
11
0.220256
21
0.431321
0
LINE
8
BLACK
6
CONTINUOUS
10
0.220256
20
0.431321
11
0.220198
21
0.431349
0
LINE
8
BLACK
6
CONTINUOUS
10
0.220198
20
0.431349
11
0.218323
21
0.433223
0
LINE
8
BLACK
6
CONTINUOUS
10
0.218323
20
0.433223
11
0.217817
21
0.433946
0
LINE
8
BLACK
6
CONTINUOUS
10
0.217817
20
0.433946
11
0.21777
21
0.433991
0
LINE
8
BLACK
6
CONTINUOUS
10
0.21777
20
0.433991
11
0.215895
21
0.43774
0
LINE
8
BLACK
6
CONTINUOUS
10
0.215895
20
0.43774
11
0.215603
21
0.438723
0
LINE
8
BLACK
6
CONTINUOUS
10
0.215603
20
0.438723
11
0.215644
21
0.438895
0
LINE
8
BLACK
6
CONTINUOUS
10
0.215644
20
0.438895
11
0.215583
21
0.439061
0
LINE
8
BLACK
6
CONTINUOUS
10
0.215583
20
0.439061
11
0.215583
21
0.454059
0
LINE
8
BLACK
6
CONTINUOUS
10
0.215583
20
0.454059
11
0.215651
21
0.454442
0
LINE
8
BLACK
6
CONTINUOUS
10
0.215651
20
0.454442
11
0.215628
21
0.454572
0
LINE
8
BLACK
6
CONTINUOUS
10
0.215628
20
0.454572
11
0.215694
21
0.454685
0
LINE
8
BLACK
6
CONTINUOUS
10
0.215694
20
0.454685
11
0.215761
21
0.455069
0
LINE
8
BLACK
6
CONTINUOUS
10
0.215761
20
0.455069
11
0.216255
21
0.455656
0
LINE
8
BLACK
6
CONTINUOUS
10
0.216255
20
0.455656
11
0.216638
21
0.456321
0
LINE
8
BLACK
6
CONTINUOUS
10
0.216638
20
0.456321
11
0.216889
21
0.456412
0
LINE
8
BLACK
6
CONTINUOUS
10
0.216889
20
0.456412
11
0.21706
21
0.456616
0
LINE
8
BLACK
6
CONTINUOUS
10
0.21706
20
0.456616
11
0.217815
21
0.456749
0
LINE
8
BLACK
6
CONTINUOUS
10
0.217815
20
0.456749
11
0.218536
21
0.457012
0
LINE
8
BLACK
6
CONTINUOUS
10
0.218536
20
0.457012
11
0.257906
21
0.457012
0
LINE
8
BLACK
6
CONTINUOUS
10
0.257906
20
0.457012
11
0.258916
21
0.456834
0
LINE
8
BLACK
6
CONTINUOUS
10
0.221489
20
0.439758
11
0.222838
21
0.43706
0
LINE
8
BLACK
6
CONTINUOUS
10
0.222838
20
0.43706
11
0.224035
21
0.435863
0
LINE
8
BLACK
6
CONTINUOUS
10
0.224035
20
0.435863
11
0.226732
21
0.434514
0
LINE
8
BLACK
6
CONTINUOUS
10
0.226732
20
0.434514
11
0.230962
21
0.434514
0
LINE
8
BLACK
6
CONTINUOUS
10
0.230962
20
0.434514
11
0.23366
21
0.435863
0
LINE
8
BLACK
6
CONTINUOUS
10
0.23366
20
0.435863
11
0.234857
21
0.43706
0
LINE
8
BLACK
6
CONTINUOUS
10
0.234857
20
0.43706
11
0.236206
21
0.439758
0
LINE
8
BLACK
6
CONTINUOUS
10
0.236206
20
0.439758
11
0.236206
21
0.451106
0
LINE
8
BLACK
6
CONTINUOUS
10
0.236206
20
0.451106
11
0.221489
21
0.451106
0
LINE
8
BLACK
6
CONTINUOUS
10
0.221489
20
0.451106
11
0.221489
21
0.439758
0
LINE
8
BLACK
6
CONTINUOUS
10
0.516544
20
0.473935
11
0.517657
21
0.47225
0
LINE
8
BLACK
6
CONTINUOUS
10
0.517657
20
0.47225
11
0.517426
21
0.470243
0
LINE
8
BLACK
6
CONTINUOUS
10
0.517426
20
0.470243
11
0.515551
21
0.466494
0
LINE
8
BLACK
6
CONTINUOUS
10
0.515551
20
0.466494
11
0.515025
21
0.465784
0
LINE
8
BLACK
6
CONTINUOUS
10
0.515025
20
0.465784
11
0.514998
21
0.465726
0
LINE
8
BLACK
6
CONTINUOUS
10
0.514998
20
0.465726
11
0.51254
21
0.463268
0
LINE
8
BLACK
6
CONTINUOUS
10
0.51254
20
0.463268
11
0.539954
21
0.463268
0
LINE
8
BLACK
6
CONTINUOUS
10
0.539954
20
0.463268
11
0.539954
21
0.471564
0
LINE
8
BLACK
6
CONTINUOUS
10
0.539954
20
0.471564
11
0.540132
21
0.472573
0
LINE
8
BLACK
6
CONTINUOUS
10
0.540132
20
0.472573
11
0.54143
21
0.474121
0
LINE
8
BLACK
6
CONTINUOUS
10
0.54143
20
0.474121
11
0.543419
21
0.474471
0
LINE
8
BLACK
6
CONTINUOUS
10
0.543419
20
0.474471
11
0.545168
21
0.473462
0
LINE
8
BLACK
6
CONTINUOUS
10
0.545168
20
0.473462
11
0.545859
21
0.471564
0
LINE
8
BLACK
6
CONTINUOUS
10
0.545859
20
0.471564
11
0.545859
21
0.449066
0
LINE
8
BLACK
6
CONTINUOUS
10
0.545859
20
0.449066
11
0.545681
21
0.448056
0
LINE
8
BLACK
6
CONTINUOUS
10
0.545681
20
0.448056
11
0.544383
21
0.446509
0
LINE
8
BLACK
6
CONTINUOUS
10
0.544383
20
0.446509
11
0.542394
21
0.446158
0
LINE
8
BLACK
6
CONTINUOUS
10
0.542394
20
0.446158
11
0.540644
21
0.447168
0
LINE
8
BLACK
6
CONTINUOUS
10
0.540644
20
0.447168
11
0.539954
21
0.449066
0
LINE
8
BLACK
6
CONTINUOUS
10
0.539954
20
0.449066
11
0.539954
21
0.457362
0
LINE
8
BLACK
6
CONTINUOUS
10
0.539954
20
0.457362
11
0.503536
21
0.457362
0
LINE
8
BLACK
6
CONTINUOUS
10
0.503536
20
0.457362
11
0.502526
21
0.45754
0
LINE
8
BLACK
6
CONTINUOUS
10
0.502526
20
0.45754
11
0.502396
21
0.457649
0
LINE
8
BLACK
6
CONTINUOUS
10
0.502396
20
0.457649
11
0.502227
21
0.457668
0
LINE
8
BLACK
6
CONTINUOUS
10
0.502227
20
0.457668
11
0.501636
21
0.458288
0
LINE
8
BLACK
6
CONTINUOUS
10
0.501636
20
0.458288
11
0.500979
21
0.458839
0
LINE
8
BLACK
6
CONTINUOUS
10
0.500979
20
0.458839
11
0.50095
21
0.459006
0
LINE
8
BLACK
6
CONTINUOUS
10
0.50095
20
0.459006
11
0.500832
21
0.459129
0
LINE
8
BLACK
6
CONTINUOUS
10
0.500832
20
0.459129
11
0.500777
21
0.459984
0
LINE
8
BLACK
6
CONTINUOUS
10
0.500777
20
0.459984
11
0.500628
21
0.460828
0
LINE
8
BLACK
6
CONTINUOUS
10
0.500628
20
0.460828
11
0.500713
21
0.460975
0
LINE
8
BLACK
6
CONTINUOUS
10
0.500713
20
0.460975
11
0.500702
21
0.461144
0
LINE
8
BLACK
6
CONTINUOUS
10
0.500702
20
0.461144
11
0.50121
21
0.461835
0
LINE
8
BLACK
6
CONTINUOUS
10
0.50121
20
0.461835
11
0.501638
21
0.462577
0
LINE
8
BLACK
6
CONTINUOUS
10
0.501638
20
0.462577
11
0.501798
21
0.462635
0
LINE
8
BLACK
6
CONTINUOUS
10
0.501798
20
0.462635
11
0.501898
21
0.462772
0
LINE
8
BLACK
6
CONTINUOUS
10
0.501898
20
0.462772
11
0.507279
21
0.466359
0
LINE
8
BLACK
6
CONTINUOUS
10
0.507279
20
0.466359
11
0.510483
21
0.469563
0
LINE
8
BLACK
6
CONTINUOUS
10
0.510483
20
0.469563
11
0.512144
21
0.472884
0
LINE
8
BLACK
6
CONTINUOUS
10
0.512144
20
0.472884
11
0.512755
21
0.473708
0
LINE
8
BLACK
6
CONTINUOUS
10
0.512755
20
0.473708
11
0.514608
21
0.474511
0
LINE
8
BLACK
6
CONTINUOUS
10
0.514608
20
0.474511
11
0.516544
21
0.473935
0
LINE
8
BLACK
6
CONTINUOUS
10
0.457034
20
0.452538
11
0.458581
21
0.45124
0
LINE
8
BLACK
6
CONTINUOUS
10
0.458581
20
0.45124
11
0.458932
21
0.449251
0
LINE
8
BLACK
6
CONTINUOUS
10
0.458932
20
0.449251
11
0.457922
21
0.447502
0
LINE
8
BLACK
6
CONTINUOUS
10
0.457922
20
0.447502
11
0.456024
21
0.446811
0
LINE
8
BLACK
6
CONTINUOUS
10
0.456024
20
0.446811
11
0.396024
21
0.446811
0
LINE
8
BLACK
6
CONTINUOUS
10
0.396024
20
0.446811
11
0.395014
21
0.446989
0
LINE
8
BLACK
6
CONTINUOUS
10
0.395014
20
0.446989
11
0.393466
21
0.448287
0
LINE
8
BLACK
6
CONTINUOUS
10
0.393466
20
0.448287
11
0.393116
21
0.450277
0
LINE
8
BLACK
6
CONTINUOUS
10
0.393116
20
0.450277
11
0.394126
21
0.452026
0
LINE
8
BLACK
6
CONTINUOUS
10
0.394126
20
0.452026
11
0.396024
21
0.452717
0
LINE
8
BLACK
6
CONTINUOUS
10
0.396024
20
0.452717
11
0.456024
21
0.452717
0
LINE
8
BLACK
6
CONTINUOUS
10
0.456024
20
0.452717
11
0.457034
21
0.452538
0
LINE
8
BLACK
6
CONTINUOUS
10
0.666245
20
0.480526
11
0.668119
21
0.478651
0
LINE
8
BLACK
6
CONTINUOUS
10
0.668119
20
0.478651
11
0.668626
21
0.477928
0
LINE
8
BLACK
6
CONTINUOUS
10
0.668626
20
0.477928
11
0.668673
21
0.477884
0
LINE
8
BLACK
6
CONTINUOUS
10
0.668673
20
0.477884
11
0.670547
21
0.474135
0
LINE
8
BLACK
6
CONTINUOUS
10
0.670547
20
0.474135
11
0.67084
21
0.473152
0
LINE
8
BLACK
6
CONTINUOUS
10
0.67084
20
0.473152
11
0.670799
21
0.47298
0
LINE
8
BLACK
6
CONTINUOUS
10
0.670799
20
0.47298
11
0.670859
21
0.472814
0
LINE
8
BLACK
6
CONTINUOUS
10
0.670859
20
0.472814
11
0.670859
21
0.461565
0
LINE
8
BLACK
6
CONTINUOUS
10
0.670859
20
0.461565
11
0.670681
21
0.460556
0
LINE
8
BLACK
6
CONTINUOUS
10
0.670681
20
0.460556
11
0.670567
21
0.46042
0
LINE
8
BLACK
6
CONTINUOUS
10
0.670567
20
0.46042
11
0.670547
21
0.460245
0
LINE
8
BLACK
6
CONTINUOUS
10
0.670547
20
0.460245
11
0.668673
21
0.456495
0
LINE
8
BLACK
6
CONTINUOUS
10
0.668673
20
0.456495
11
0.668147
21
0.455786
0
LINE
8
BLACK
6
CONTINUOUS
10
0.668147
20
0.455786
11
0.668119
21
0.455728
0
LINE
8
BLACK
6
CONTINUOUS
10
0.668119
20
0.455728
11
0.666245
21
0.453853
0
LINE
8
BLACK
6
CONTINUOUS
10
0.666245
20
0.453853
11
0.665521
21
0.453347
0
LINE
8
BLACK
6
CONTINUOUS
10
0.665521
20
0.453347
11
0.665477
21
0.4533
0
LINE
8
BLACK
6
CONTINUOUS
10
0.665477
20
0.4533
11
0.661728
21
0.451425
0
LINE
8
BLACK
6
CONTINUOUS
10
0.661728
20
0.451425
11
0.660745
21
0.451133
0
LINE
8
BLACK
6
CONTINUOUS
10
0.660745
20
0.451133
11
0.660573
21
0.451174
0
LINE
8
BLACK
6
CONTINUOUS
10
0.660573
20
0.451174
11
0.660407
21
0.451114
0
LINE
8
BLACK
6
CONTINUOUS
10
0.660407
20
0.451114
11
0.651033
21
0.451114
0
LINE
8
BLACK
6
CONTINUOUS
10
0.651033
20
0.451114
11
0.650023
21
0.451292
0
LINE
8
BLACK
6
CONTINUOUS
10
0.650023
20
0.451292
11
0.649888
21
0.451405
0
LINE
8
BLACK
6
CONTINUOUS
10
0.649888
20
0.451405
11
0.649713
21
0.451425
0
LINE
8
BLACK
6
CONTINUOUS
10
0.649713
20
0.451425
11
0.645963
21
0.4533
0
LINE
8
BLACK
6
CONTINUOUS
10
0.645963
20
0.4533
11
0.645254
21
0.453826
0
LINE
8
BLACK
6
CONTINUOUS
10
0.645254
20
0.453826
11
0.645196
21
0.453853
0
LINE
8
BLACK
6
CONTINUOUS
10
0.645196
20
0.453853
11
0.643321
21
0.455728
0
LINE
8
BLACK
6
CONTINUOUS
10
0.643321
20
0.455728
11
0.642815
21
0.456451
0
LINE
8
BLACK
6
CONTINUOUS
10
0.642815
20
0.456451
11
0.642768
21
0.456495
0
LINE
8
BLACK
6
CONTINUOUS
10
0.642768
20
0.456495
11
0.640893
21
0.460245
0
LINE
8
BLACK
6
CONTINUOUS
10
0.640893
20
0.460245
11
0.640726
21
0.460809
0
LINE
8
BLACK
6
CONTINUOUS
10
0.640726
20
0.460809
11
0.630481
21
0.451844
0
LINE
8
BLACK
6
CONTINUOUS
10
0.630481
20
0.451844
11
0.630101
21
0.451614
0
LINE
8
BLACK
6
CONTINUOUS
10
0.630101
20
0.451614
11
0.630013
21
0.451509
0
LINE
8
BLACK
6
CONTINUOUS
10
0.630013
20
0.451509
11
0.629892
21
0.451488
0
LINE
8
BLACK
6
CONTINUOUS
10
0.629892
20
0.451488
11
0.629603
21
0.451313
0
LINE
8
BLACK
6
CONTINUOUS
10
0.629603
20
0.451313
11
0.628807
21
0.451297
0
LINE
8
BLACK
6
CONTINUOUS
10
0.628807
20
0.451297
11
0.628023
21
0.451158
0
LINE
8
BLACK
6
CONTINUOUS
10
0.628023
20
0.451158
11
0.627819
21
0.451276
0
LINE
8
BLACK
6
CONTINUOUS
10
0.627819
20
0.451276
11
0.627584
21
0.451271
0
LINE
8
BLACK
6
CONTINUOUS
10
0.627584
20
0.451271
11
0.626964
21
0.45177
0
LINE
8
BLACK
6
CONTINUOUS
10
0.626964
20
0.45177
11
0.626274
21
0.452168
0
LINE
8
BLACK
6
CONTINUOUS
10
0.626274
20
0.452168
11
0.626194
21
0.45239
0
LINE
8
BLACK
6
CONTINUOUS
10
0.626194
20
0.45239
11
0.62601
21
0.452537
0
LINE
8
BLACK
6
CONTINUOUS
10
0.62601
20
0.452537
11
0.625856
21
0.453318
0
LINE
8
BLACK
6
CONTINUOUS
10
0.625856
20
0.453318
11
0.625583
21
0.454066
0
LINE
8
BLACK
6
CONTINUOUS
10
0.625583
20
0.454066
11
0.625583
21
0.478438
0
LINE
8
BLACK
6
CONTINUOUS
10
0.625583
20
0.478438
11
0.625761
21
0.479448
0
LINE
8
BLACK
6
CONTINUOUS
10
0.625761
20
0.479448
11
0.62706
21
0.480995
0
LINE
8
BLACK
6
CONTINUOUS
10
0.62706
20
0.480995
11
0.629049
21
0.481346
0
LINE
8
BLACK
6
CONTINUOUS
10
0.629049
20
0.481346
11
0.630798
21
0.480336
0
LINE
8
BLACK
6
CONTINUOUS
10
0.630798
20
0.480336
11
0.631489
21
0.478438
0
LINE
8
BLACK
6
CONTINUOUS
10
0.631489
20
0.478438
11
0.631489
21
0.460574
0
LINE
8
BLACK
6
CONTINUOUS
10
0.631489
20
0.460574
11
0.64159
21
0.469412
0
LINE
8
BLACK
6
CONTINUOUS
10
0.64159
20
0.469412
11
0.64197
21
0.469642
0
LINE
8
BLACK
6
CONTINUOUS
10
0.64197
20
0.469642
11
0.642058
21
0.469747
0
LINE
8
BLACK
6
CONTINUOUS
10
0.642058
20
0.469747
11
0.642178
21
0.469768
0
LINE
8
BLACK
6
CONTINUOUS
10
0.642178
20
0.469768
11
0.642467
21
0.469943
0
LINE
8
BLACK
6
CONTINUOUS
10
0.642467
20
0.469943
11
0.643263
21
0.469959
0
LINE
8
BLACK
6
CONTINUOUS
10
0.643263
20
0.469959
11
0.644047
21
0.470098
0
LINE
8
BLACK
6
CONTINUOUS
10
0.644047
20
0.470098
11
0.644251
21
0.46998
0
LINE
8
BLACK
6
CONTINUOUS
10
0.644251
20
0.46998
11
0.644487
21
0.469985
0
LINE
8
BLACK
6
CONTINUOUS
10
0.644487
20
0.469985
11
0.645107
21
0.469486
0
LINE
8
BLACK
6
CONTINUOUS
10
0.645107
20
0.469486
11
0.645796
21
0.469088
0
LINE
8
BLACK
6
CONTINUOUS
10
0.645796
20
0.469088
11
0.645877
21
0.468866
0
LINE
8
BLACK
6
CONTINUOUS
10
0.645877
20
0.468866
11
0.64606
21
0.468719
0
LINE
8
BLACK
6
CONTINUOUS
10
0.64606
20
0.468719
11
0.646215
21
0.467938
0
LINE
8
BLACK
6
CONTINUOUS
10
0.646215
20
0.467938
11
0.646487
21
0.46719
0
LINE
8
BLACK
6
CONTINUOUS
10
0.646487
20
0.46719
11
0.646487
21
0.462262
0
LINE
8
BLACK
6
CONTINUOUS
10
0.646487
20
0.462262
11
0.647836
21
0.459565
0
LINE
8
BLACK
6
CONTINUOUS
10
0.647836
20
0.459565
11
0.649033
21
0.458368
0
LINE
8
BLACK
6
CONTINUOUS
10
0.649033
20
0.458368
11
0.65173
21
0.457019
0
LINE
8
BLACK
6
CONTINUOUS
10
0.65173
20
0.457019
11
0.65971
21
0.457019
0
LINE
8
BLACK
6
CONTINUOUS
10
0.65971
20
0.457019
11
0.662408
21
0.458368
0
LINE
8
BLACK
6
CONTINUOUS
10
0.662408
20
0.458368
11
0.663605
21
0.459565
0
LINE
8
BLACK
6
CONTINUOUS
10
0.663605
20
0.459565
11
0.664954
21
0.462262
0
LINE
8
BLACK
6
CONTINUOUS
10
0.664954
20
0.462262
11
0.664954
21
0.472117
0
LINE
8
BLACK
6
CONTINUOUS
10
0.664954
20
0.472117
11
0.663605
21
0.474814
0
LINE
8
BLACK
6
CONTINUOUS
10
0.663605
20
0.474814
11
0.662069
21
0.47635
0
LINE
8
BLACK
6
CONTINUOUS
10
0.662069
20
0.47635
11
0.661481
21
0.47719
0
LINE
8
BLACK
6
CONTINUOUS
10
0.661481
20
0.47719
11
0.661305
21
0.479203
0
LINE
8
BLACK
6
CONTINUOUS
10
0.661305
20
0.479203
11
0.662463
21
0.480857
0
LINE
8
BLACK
6
CONTINUOUS
10
0.662463
20
0.480857
11
0.664414
21
0.48138
0
LINE
8
BLACK
6
CONTINUOUS
10
0.664414
20
0.48138
11
0.666245
21
0.480526
0
LINE
8
BLACK
6
CONTINUOUS
10
0.583488
20
0.480666
11
0.583624
21
0.480681
0
LINE
8
BLACK
6
CONTINUOUS
10
0.583624
20
0.480681
11
0.591123
21
0.478806
0
LINE
8
BLACK
6
CONTINUOUS
10
0.591123
20
0.478806
11
0.591589
21
0.478598
0
LINE
8
BLACK
6
CONTINUOUS
10
0.591589
20
0.478598
11
0.591728
21
0.478582
0
LINE
8
BLACK
6
CONTINUOUS
10
0.591728
20
0.478582
11
0.595477
21
0.476707
0
LINE
8
BLACK
6
CONTINUOUS
10
0.595477
20
0.476707
11
0.596186
21
0.476182
0
LINE
8
BLACK
6
CONTINUOUS
10
0.596186
20
0.476182
11
0.596245
21
0.476154
0
LINE
8
BLACK
6
CONTINUOUS
10
0.596245
20
0.476154
11
0.598119
21
0.47428
0
LINE
8
BLACK
6
CONTINUOUS
10
0.598119
20
0.47428
11
0.598626
21
0.473556
0
LINE
8
BLACK
6
CONTINUOUS
10
0.598626
20
0.473556
11
0.598673
21
0.473512
0
LINE
8
BLACK
6
CONTINUOUS
10
0.598673
20
0.473512
11
0.600547
21
0.469763
0
LINE
8
BLACK
6
CONTINUOUS
10
0.600547
20
0.469763
11
0.60084
21
0.46878
0
LINE
8
BLACK
6
CONTINUOUS
10
0.60084
20
0.46878
11
0.600799
21
0.468608
0
LINE
8
BLACK
6
CONTINUOUS
10
0.600799
20
0.468608
11
0.600859
21
0.468442
0
LINE
8
BLACK
6
CONTINUOUS
10
0.600859
20
0.468442
11
0.600859
21
0.464693
0
LINE
8
BLACK
6
CONTINUOUS
10
0.600859
20
0.464693
11
0.600681
21
0.463683
0
LINE
8
BLACK
6
CONTINUOUS
10
0.600681
20
0.463683
11
0.600567
21
0.463547
0
LINE
8
BLACK
6
CONTINUOUS
10
0.600567
20
0.463547
11
0.600547
21
0.463372
0
LINE
8
BLACK
6
CONTINUOUS
10
0.600547
20
0.463372
11
0.598673
21
0.459623
0
LINE
8
BLACK
6
CONTINUOUS
10
0.598673
20
0.459623
11
0.598147
21
0.458913
0
LINE
8
BLACK
6
CONTINUOUS
10
0.598147
20
0.458913
11
0.598119
21
0.458855
0
LINE
8
BLACK
6
CONTINUOUS
10
0.598119
20
0.458855
11
0.596245
21
0.45698
0
LINE
8
BLACK
6
CONTINUOUS
10
0.596245
20
0.45698
11
0.595521
21
0.456474
0
LINE
8
BLACK
6
CONTINUOUS
10
0.595521
20
0.456474
11
0.595477
21
0.456427
0
LINE
8
BLACK
6
CONTINUOUS
10
0.595477
20
0.456427
11
0.591728
21
0.454552
0
LINE
8
BLACK
6
CONTINUOUS
10
0.591728
20
0.454552
11
0.591239
21
0.454407
0
LINE
8
BLACK
6
CONTINUOUS
10
0.591239
20
0.454407
11
0.591123
21
0.454329
0
LINE
8
BLACK
6
CONTINUOUS
10
0.591123
20
0.454329
11
0.583624
21
0.452454
0
LINE
8
BLACK
6
CONTINUOUS
10
0.583624
20
0.452454
11
0.583036
21
0.452413
0
LINE
8
BLACK
6
CONTINUOUS
10
0.583036
20
0.452413
11
0.582908
21
0.452366
0
LINE
8
BLACK
6
CONTINUOUS
10
0.582908
20
0.452366
11
0.573534
21
0.452366
0
LINE
8
BLACK
6
CONTINUOUS
10
0.573534
20
0.452366
11
0.572954
21
0.452468
0
LINE
8
BLACK
6
CONTINUOUS
10
0.572954
20
0.452468
11
0.572818
21
0.452454
0
LINE
8
BLACK
6
CONTINUOUS
10
0.572818
20
0.452454
11
0.565319
21
0.454329
0
LINE
8
BLACK
6
CONTINUOUS
10
0.565319
20
0.454329
11
0.564854
21
0.454536
0
LINE
8
BLACK
6
CONTINUOUS
10
0.564854
20
0.454536
11
0.564715
21
0.454552
0
LINE
8
BLACK
6
CONTINUOUS
10
0.564715
20
0.454552
11
0.560965
21
0.456427
0
LINE
8
BLACK
6
CONTINUOUS
10
0.560965
20
0.456427
11
0.560256
21
0.456953
0
LINE
8
BLACK
6
CONTINUOUS
10
0.560256
20
0.456953
11
0.560198
21
0.45698
0
LINE
8
BLACK
6
CONTINUOUS
10
0.560198
20
0.45698
11
0.558323
21
0.458855
0
LINE
8
BLACK
6
CONTINUOUS
10
0.558323
20
0.458855
11
0.557817
21
0.459578
0
LINE
8
BLACK
6
CONTINUOUS
10
0.557817
20
0.459578
11
0.55777
21
0.459623
0
LINE
8
BLACK
6
CONTINUOUS
10
0.55777
20
0.459623
11
0.555895
21
0.463372
0
LINE
8
BLACK
6
CONTINUOUS
10
0.555895
20
0.463372
11
0.555603
21
0.464355
0
LINE
8
BLACK
6
CONTINUOUS
10
0.555603
20
0.464355
11
0.555644
21
0.464527
0
LINE
8
BLACK
6
CONTINUOUS
10
0.555644
20
0.464527
11
0.555583
21
0.464693
0
LINE
8
BLACK
6
CONTINUOUS
10
0.555583
20
0.464693
11
0.555583
21
0.468442
0
LINE
8
BLACK
6
CONTINUOUS
10
0.555583
20
0.468442
11
0.555761
21
0.469452
0
LINE
8
BLACK
6
CONTINUOUS
10
0.555761
20
0.469452
11
0.555875
21
0.469587
0
LINE
8
BLACK
6
CONTINUOUS
10
0.555875
20
0.469587
11
0.555895
21
0.469763
0
LINE
8
BLACK
6
CONTINUOUS
10
0.555895
20
0.469763
11
0.55777
21
0.473512
0
LINE
8
BLACK
6
CONTINUOUS
10
0.55777
20
0.473512
11
0.558296
21
0.474221
0
LINE
8
BLACK
6
CONTINUOUS
10
0.558296
20
0.474221
11
0.558323
21
0.47428
0
LINE
8
BLACK
6
CONTINUOUS
10
0.558323
20
0.47428
11
0.560198
21
0.476154
0
LINE
8
BLACK
6
CONTINUOUS
10
0.560198
20
0.476154
11
0.560921
21
0.476661
0
LINE
8
BLACK
6
CONTINUOUS
10
0.560921
20
0.476661
11
0.560965
21
0.476707
0
LINE
8
BLACK
6
CONTINUOUS
10
0.560965
20
0.476707
11
0.564715
21
0.478582
0
LINE
8
BLACK
6
CONTINUOUS
10
0.564715
20
0.478582
11
0.565203
21
0.478727
0
LINE
8
BLACK
6
CONTINUOUS
10
0.565203
20
0.478727
11
0.565319
21
0.478806
0
LINE
8
BLACK
6
CONTINUOUS
10
0.565319
20
0.478806
11
0.572818
21
0.480681
0
LINE
8
BLACK
6
CONTINUOUS
10
0.572818
20
0.480681
11
0.573406
21
0.480722
0
LINE
8
BLACK
6
CONTINUOUS
10
0.573406
20
0.480722
11
0.573534
21
0.480769
0
LINE
8
BLACK
6
CONTINUOUS
10
0.573534
20
0.480769
11
0.582908
21
0.480769
0
LINE
8
BLACK
6
CONTINUOUS
10
0.582908
20
0.480769
11
0.583488
21
0.480666
0
LINE
8
BLACK
6
CONTINUOUS
10
0.567066
20
0.473155
11
0.564035
21
0.47164
0
LINE
8
BLACK
6
CONTINUOUS
10
0.564035
20
0.47164
11
0.562838
21
0.470443
0
LINE
8
BLACK
6
CONTINUOUS
10
0.562838
20
0.470443
11
0.561489
21
0.467745
0
LINE
8
BLACK
6
CONTINUOUS
10
0.561489
20
0.467745
11
0.561489
21
0.46539
0
LINE
8
BLACK
6
CONTINUOUS
10
0.561489
20
0.46539
11
0.562838
21
0.462692
0
LINE
8
BLACK
6
CONTINUOUS
10
0.562838
20
0.462692
11
0.564035
21
0.461495
0
LINE
8
BLACK
6
CONTINUOUS
10
0.564035
20
0.461495
11
0.567066
21
0.45998
0
LINE
8
BLACK
6
CONTINUOUS
10
0.567066
20
0.45998
11
0.573898
21
0.458271
0
LINE
8
BLACK
6
CONTINUOUS
10
0.573898
20
0.458271
11
0.582545
21
0.458271
0
LINE
8
BLACK
6
CONTINUOUS
10
0.582545
20
0.458271
11
0.589377
21
0.45998
0
LINE
8
BLACK
6
CONTINUOUS
10
0.589377
20
0.45998
11
0.592408
21
0.461495
0
LINE
8
BLACK
6
CONTINUOUS
10
0.592408
20
0.461495
11
0.593605
21
0.462692
0
LINE
8
BLACK
6
CONTINUOUS
10
0.593605
20
0.462692
11
0.594954
21
0.46539
0
LINE
8
BLACK
6
CONTINUOUS
10
0.594954
20
0.46539
11
0.594954
21
0.467745
0
LINE
8
BLACK
6
CONTINUOUS
10
0.594954
20
0.467745
11
0.593605
21
0.470443
0
LINE
8
BLACK
6
CONTINUOUS
10
0.593605
20
0.470443
11
0.592408
21
0.47164
0
LINE
8
BLACK
6
CONTINUOUS
10
0.592408
20
0.47164
11
0.589377
21
0.473155
0
LINE
8
BLACK
6
CONTINUOUS
10
0.589377
20
0.473155
11
0.582545
21
0.474863
0
LINE
8
BLACK
6
CONTINUOUS
10
0.582545
20
0.474863
11
0.573898
21
0.474863
0
LINE
8
BLACK
6
CONTINUOUS
10
0.573898
20
0.474863
11
0.567066
21
0.473155
0
LINE
8
BLACK
6
CONTINUOUS
10
0.478534
20
0.478237
11
0.479472
21
0.477299
0
LINE
8
BLACK
6
CONTINUOUS
10
0.479472
20
0.477299
11
0.479608
21
0.476972
0
LINE
8
BLACK
6
CONTINUOUS
10
0.479608
20
0.476972
11
0.479875
21
0.47674
0
LINE
8
BLACK
6
CONTINUOUS
10
0.479875
20
0.47674
11
0.480813
21
0.474864
0
LINE
8
BLACK
6
CONTINUOUS
10
0.480813
20
0.474864
11
0.480848
21
0.474365
0
LINE
8
BLACK
6
CONTINUOUS
10
0.480848
20
0.474365
11
0.48104
21
0.473902
0
LINE
8
BLACK
6
CONTINUOUS
10
0.48104
20
0.473902
11
0.48104
21
0.468274
0
LINE
8
BLACK
6
CONTINUOUS
10
0.48104
20
0.468274
11
0.480848
21
0.467811
0
LINE
8
BLACK
6
CONTINUOUS
10
0.480848
20
0.467811
11
0.480813
21
0.467312
0
LINE
8
BLACK
6
CONTINUOUS
10
0.480813
20
0.467312
11
0.479875
21
0.465436
0
LINE
8
BLACK
6
CONTINUOUS
10
0.479875
20
0.465436
11
0.479608
21
0.465204
0
LINE
8
BLACK
6
CONTINUOUS
10
0.479608
20
0.465204
11
0.479472
21
0.464877
0
LINE
8
BLACK
6
CONTINUOUS
10
0.479472
20
0.464877
11
0.478534
21
0.463939
0
LINE
8
BLACK
6
CONTINUOUS
10
0.478534
20
0.463939
11
0.478207
21
0.463804
0
LINE
8
BLACK
6
CONTINUOUS
10
0.478207
20
0.463804
11
0.477975
21
0.463536
0
LINE
8
BLACK
6
CONTINUOUS
10
0.477975
20
0.463536
11
0.476099
21
0.462598
0
LINE
8
BLACK
6
CONTINUOUS
10
0.476099
20
0.462598
11
0.4756
21
0.462563
0
LINE
8
BLACK
6
CONTINUOUS
10
0.4756
20
0.462563
11
0.475138
21
0.462371
0
LINE
8
BLACK
6
CONTINUOUS
10
0.475138
20
0.462371
11
0.470447
21
0.462371
0
LINE
8
BLACK
6
CONTINUOUS
10
0.470447
20
0.462371
11
0.469985
21
0.462563
0
LINE
8
BLACK
6
CONTINUOUS
10
0.469985
20
0.462563
11
0.469486
21
0.462598
0
LINE
8
BLACK
6
CONTINUOUS
10
0.469486
20
0.462598
11
0.467609
21
0.463536
0
LINE
8
BLACK
6
CONTINUOUS
10
0.467609
20
0.463536
11
0.467378
21
0.463804
0
LINE
8
BLACK
6
CONTINUOUS
10
0.467378
20
0.463804
11
0.467051
21
0.463939
0
LINE
8
BLACK
6
CONTINUOUS
10
0.467051
20
0.463939
11
0.466113
21
0.464877
0
LINE
8
BLACK
6
CONTINUOUS
10
0.466113
20
0.464877
11
0.465977
21
0.465204
0
LINE
8
BLACK
6
CONTINUOUS
10
0.465977
20
0.465204
11
0.46571
21
0.465436
0
LINE
8
BLACK
6
CONTINUOUS
10
0.46571
20
0.465436
11
0.465037
21
0.466781
0
LINE
8
BLACK
6
CONTINUOUS
10
0.465037
20
0.466781
11
0.460606
21
0.462903
0
LINE
8
BLACK
6
CONTINUOUS
10
0.460606
20
0.462903
11
0.459889
21
0.462661
0
LINE
8
BLACK
6
CONTINUOUS
10
0.459889
20
0.462661
11
0.45919
21
0.462371
0
LINE
8
BLACK
6
CONTINUOUS
10
0.45919
20
0.462371
11
0.459119
21
0.462401
0
LINE
8
BLACK
6
CONTINUOUS
10
0.459119
20
0.462401
11
0.459047
21
0.462376
0
LINE
8
BLACK
6
CONTINUOUS
10
0.459047
20
0.462376
11
0.458369
21
0.462712
0
LINE
8
BLACK
6
CONTINUOUS
10
0.458369
20
0.462712
11
0.45767
21
0.463001
0
LINE
8
BLACK
6
CONTINUOUS
10
0.45767
20
0.463001
11
0.45764
21
0.463072
0
LINE
8
BLACK
6
CONTINUOUS
10
0.45764
20
0.463072
11
0.457572
21
0.463106
0
LINE
8
BLACK
6
CONTINUOUS
10
0.457572
20
0.463106
11
0.45733
21
0.463822
0
LINE
8
BLACK
6
CONTINUOUS
10
0.45733
20
0.463822
11
0.45704
21
0.464521
0
LINE
8
BLACK
6
CONTINUOUS
10
0.45704
20
0.464521
11
0.45704
21
0.476717
0
LINE
8
BLACK
6
CONTINUOUS
10
0.45704
20
0.476717
11
0.45767
21
0.478237
0
LINE
8
BLACK
6
CONTINUOUS
10
0.45767
20
0.478237
11
0.45919
21
0.478867
0
LINE
8
BLACK
6
CONTINUOUS
10
0.45919
20
0.478867
11
0.46071
21
0.478237
0
LINE
8
BLACK
6
CONTINUOUS
10
0.46071
20
0.478237
11
0.46134
21
0.476717
0
LINE
8
BLACK
6
CONTINUOUS
10
0.46134
20
0.476717
11
0.46134
21
0.46926
0
LINE
8
BLACK
6
CONTINUOUS
10
0.46134
20
0.46926
11
0.465279
21
0.472706
0
LINE
8
BLACK
6
CONTINUOUS
10
0.465279
20
0.472706
11
0.465996
21
0.472949
0
LINE
8
BLACK
6
CONTINUOUS
10
0.465996
20
0.472949
11
0.466695
21
0.473238
0
LINE
8
BLACK
6
CONTINUOUS
10
0.466695
20
0.473238
11
0.466765
21
0.473209
0
LINE
8
BLACK
6
CONTINUOUS
10
0.466765
20
0.473209
11
0.466838
21
0.473233
0
LINE
8
BLACK
6
CONTINUOUS
10
0.466838
20
0.473233
11
0.467516
21
0.472898
0
LINE
8
BLACK
6
CONTINUOUS
10
0.467516
20
0.472898
11
0.468215
21
0.472608
0
LINE
8
BLACK
6
CONTINUOUS
10
0.468215
20
0.472608
11
0.468244
21
0.472538
0
LINE
8
BLACK
6
CONTINUOUS
10
0.468244
20
0.472538
11
0.468313
21
0.472504
0
LINE
8
BLACK
6
CONTINUOUS
10
0.468313
20
0.472504
11
0.468555
21
0.471787
0
LINE
8
BLACK
6
CONTINUOUS
10
0.468555
20
0.471787
11
0.468845
21
0.471088
0
LINE
8
BLACK
6
CONTINUOUS
10
0.468845
20
0.471088
11
0.468845
21
0.468781
0
LINE
8
BLACK
6
CONTINUOUS
10
0.468845
20
0.468781
11
0.4694
21
0.467671
0
LINE
8
BLACK
6
CONTINUOUS
10
0.4694
20
0.467671
11
0.469844
21
0.467227
0
LINE
8
BLACK
6
CONTINUOUS
10
0.469844
20
0.467227
11
0.470955
21
0.466671
0
LINE
8
BLACK
6
CONTINUOUS
10
0.470955
20
0.466671
11
0.47463
21
0.466671
0
LINE
8
BLACK
6
CONTINUOUS
10
0.47463
20
0.466671
11
0.47574
21
0.467227
0
LINE
8
BLACK
6
CONTINUOUS
10
0.47574
20
0.467227
11
0.476185
21
0.467671
0
LINE
8
BLACK
6
CONTINUOUS
10
0.476185
20
0.467671
11
0.47674
21
0.468781
0
LINE
8
BLACK
6
CONTINUOUS
10
0.47674
20
0.468781
11
0.47674
21
0.473395
0
LINE
8
BLACK
6
CONTINUOUS
10
0.47674
20
0.473395
11
0.476185
21
0.474505
0
LINE
8
BLACK
6
CONTINUOUS
10
0.476185
20
0.474505
11
0.475494
21
0.475196
0
LINE
8
BLACK
6
CONTINUOUS
10
0.475494
20
0.475196
11
0.474864
21
0.476717
0
LINE
8
BLACK
6
CONTINUOUS
10
0.474864
20
0.476717
11
0.475494
21
0.478237
0
LINE
8
BLACK
6
CONTINUOUS
10
0.475494
20
0.478237
11
0.477014
21
0.478867
0
LINE
8
BLACK
6
CONTINUOUS
10
0.477014
20
0.478867
11
0.478534
21
0.478237
0
LINE
8
BLACK
6
CONTINUOUS
10
0.470699
20
0.497524
11
0.470969
21
0.497564
0
LINE
8
BLACK
6
CONTINUOUS
10
0.470969
20
0.497564
11
0.474721
21
0.496626
0
LINE
8
BLACK
6
CONTINUOUS
10
0.474721
20
0.496626
11
0.474917
21
0.496481
0
LINE
8
BLACK
6
CONTINUOUS
10
0.474917
20
0.496481
11
0.475161
21
0.496464
0
LINE
8
BLACK
6
CONTINUOUS
10
0.475161
20
0.496464
11
0.477037
21
0.495525
0
LINE
8
BLACK
6
CONTINUOUS
10
0.477037
20
0.495525
11
0.477269
21
0.495258
0
LINE
8
BLACK
6
CONTINUOUS
10
0.477269
20
0.495258
11
0.477596
21
0.495123
0
LINE
8
BLACK
6
CONTINUOUS
10
0.477596
20
0.495123
11
0.479472
21
0.493247
0
LINE
8
BLACK
6
CONTINUOUS
10
0.479472
20
0.493247
11
0.479664
21
0.492784
0
LINE
8
BLACK
6
CONTINUOUS
10
0.479664
20
0.492784
11
0.479992
21
0.492406
0
LINE
8
BLACK
6
CONTINUOUS
10
0.479992
20
0.492406
11
0.48093
21
0.489592
0
LINE
8
BLACK
6
CONTINUOUS
10
0.48093
20
0.489592
11
0.480905
21
0.489239
0
LINE
8
BLACK
6
CONTINUOUS
10
0.480905
20
0.489239
11
0.48104
21
0.488912
0
LINE
8
BLACK
6
CONTINUOUS
10
0.48104
20
0.488912
11
0.48104
21
0.487036
0
LINE
8
BLACK
6
CONTINUOUS
10
0.48104
20
0.487036
11
0.480905
21
0.486709
0
LINE
8
BLACK
6
CONTINUOUS
10
0.480905
20
0.486709
11
0.48093
21
0.486356
0
LINE
8
BLACK
6
CONTINUOUS
10
0.48093
20
0.486356
11
0.479992
21
0.483542
0
LINE
8
BLACK
6
CONTINUOUS
10
0.479992
20
0.483542
11
0.479664
21
0.483164
0
LINE
8
BLACK
6
CONTINUOUS
10
0.479664
20
0.483164
11
0.479472
21
0.482701
0
LINE
8
BLACK
6
CONTINUOUS
10
0.479472
20
0.482701
11
0.478534
21
0.481763
0
LINE
8
BLACK
6
CONTINUOUS
10
0.478534
20
0.481763
11
0.477014
21
0.481133
0
LINE
8
BLACK
6
CONTINUOUS
10
0.477014
20
0.481133
11
0.475494
21
0.481763
0
LINE
8
BLACK
6
CONTINUOUS
10
0.475494
20
0.481763
11
0.474864
21
0.483283
0
LINE
8
BLACK
6
CONTINUOUS
10
0.474864
20
0.483283
11
0.475494
21
0.484804
0
LINE
8
BLACK
6
CONTINUOUS
10
0.475494
20
0.484804
11
0.476073
21
0.485383
0
LINE
8
BLACK
6
CONTINUOUS
10
0.476073
20
0.485383
11
0.47674
21
0.487385
0
LINE
8
BLACK
6
CONTINUOUS
10
0.47674
20
0.487385
11
0.47674
21
0.488563
0
LINE
8
BLACK
6
CONTINUOUS
10
0.47674
20
0.488563
11
0.476073
21
0.490565
0
LINE
8
BLACK
6
CONTINUOUS
10
0.476073
20
0.490565
11
0.474802
21
0.491835
0
LINE
8
BLACK
6
CONTINUOUS
10
0.474802
20
0.491835
11
0.473449
21
0.492512
0
LINE
8
BLACK
6
CONTINUOUS
10
0.473449
20
0.492512
11
0.470183
21
0.493329
0
LINE
8
BLACK
6
CONTINUOUS
10
0.470183
20
0.493329
11
0.467898
21
0.493329
0
LINE
8
BLACK
6
CONTINUOUS
10
0.467898
20
0.493329
11
0.464631
21
0.492512
0
LINE
8
BLACK
6
CONTINUOUS
10
0.464631
20
0.492512
11
0.463278
21
0.491835
0
LINE
8
BLACK
6
CONTINUOUS
10
0.463278
20
0.491835
11
0.462007
21
0.490565
0
LINE
8
BLACK
6
CONTINUOUS
10
0.462007
20
0.490565
11
0.46134
21
0.488563
0
LINE
8
BLACK
6
CONTINUOUS
10
0.46134
20
0.488563
11
0.46134
21
0.487385
0
LINE
8
BLACK
6
CONTINUOUS
10
0.46134
20
0.487385
11
0.462007
21
0.485383
0
LINE
8
BLACK
6
CONTINUOUS
10
0.462007
20
0.485383
11
0.462586
21
0.484804
0
LINE
8
BLACK
6
CONTINUOUS
10
0.462586
20
0.484804
11
0.463216
21
0.483283
0
LINE
8
BLACK
6
CONTINUOUS
10
0.463216
20
0.483283
11
0.462586
21
0.481763
0
LINE
8
BLACK
6
CONTINUOUS
10
0.462586
20
0.481763
11
0.461066
21
0.481133
0
LINE
8
BLACK
6
CONTINUOUS
10
0.461066
20
0.481133
11
0.459546
21
0.481763
0
LINE
8
BLACK
6
CONTINUOUS
10
0.459546
20
0.481763
11
0.458608
21
0.482701
0
LINE
8
BLACK
6
CONTINUOUS
10
0.458608
20
0.482701
11
0.458416
21
0.483164
0
LINE
8
BLACK
6
CONTINUOUS
10
0.458416
20
0.483164
11
0.458088
21
0.483542
0
LINE
8
BLACK
6
CONTINUOUS
10
0.458088
20
0.483542
11
0.45715
21
0.486356
0
LINE
8
BLACK
6
CONTINUOUS
10
0.45715
20
0.486356
11
0.457175
21
0.486709
0
LINE
8
BLACK
6
CONTINUOUS
10
0.457175
20
0.486709
11
0.45704
21
0.487036
0
LINE
8
BLACK
6
CONTINUOUS
10
0.45704
20
0.487036
11
0.45704
21
0.488912
0
LINE
8
BLACK
6
CONTINUOUS
10
0.45704
20
0.488912
11
0.457175
21
0.489239
0
LINE
8
BLACK
6
CONTINUOUS
10
0.457175
20
0.489239
11
0.45715
21
0.489592
0
LINE
8
BLACK
6
CONTINUOUS
10
0.45715
20
0.489592
11
0.458088
21
0.492406
0
LINE
8
BLACK
6
CONTINUOUS
10
0.458088
20
0.492406
11
0.458416
21
0.492784
0
LINE
8
BLACK
6
CONTINUOUS
10
0.458416
20
0.492784
11
0.458608
21
0.493246
0
LINE
8
BLACK
6
CONTINUOUS
10
0.458608
20
0.493246
11
0.460484
21
0.495123
0
LINE
8
BLACK
6
CONTINUOUS
10
0.460484
20
0.495123
11
0.460811
21
0.495258
0
LINE
8
BLACK
6
CONTINUOUS
10
0.460811
20
0.495258
11
0.461043
21
0.495525
0
LINE
8
BLACK
6
CONTINUOUS
10
0.461043
20
0.495525
11
0.462919
21
0.496464
0
LINE
8
BLACK
6
CONTINUOUS
10
0.462919
20
0.496464
11
0.463163
21
0.496481
0
LINE
8
BLACK
6
CONTINUOUS
10
0.463163
20
0.496481
11
0.463359
21
0.496626
0
LINE
8
BLACK
6
CONTINUOUS
10
0.463359
20
0.496626
11
0.467111
21
0.497564
0
LINE
8
BLACK
6
CONTINUOUS
10
0.467111
20
0.497564
11
0.467381
21
0.497524
0
LINE
8
BLACK
6
CONTINUOUS
10
0.467381
20
0.497524
11
0.467633
21
0.497629
0
LINE
8
BLACK
6
CONTINUOUS
10
0.467633
20
0.497629
11
0.470447
21
0.497629
0
LINE
8
BLACK
6
CONTINUOUS
10
0.470447
20
0.497629
11
0.470699
21
0.497524
0
LINE
8
BLACK
6
CONTINUOUS
10
0.526614
20
0.513784
11
0.526749
21
0.513798
0
LINE
8
BLACK
6
CONTINUOUS
10
0.526749
20
0.513798
11
0.534249
21
0.511923
0
LINE
8
BLACK
6
CONTINUOUS
10
0.534249
20
0.511923
11
0.534714
21
0.511716
0
LINE
8
BLACK
6
CONTINUOUS
10
0.534714
20
0.511716
11
0.534853
21
0.5117
0
LINE
8
BLACK
6
CONTINUOUS
10
0.534853
20
0.5117
11
0.538602
21
0.509825
0
LINE
8
BLACK
6
CONTINUOUS
10
0.538602
20
0.509825
11
0.539311
21
0.509299
0
LINE
8
BLACK
6
CONTINUOUS
10
0.539311
20
0.509299
11
0.53937
21
0.509272
0
LINE
8
BLACK
6
CONTINUOUS
10
0.53937
20
0.509272
11
0.543119
21
0.505522
0
LINE
8
BLACK
6
CONTINUOUS
10
0.543119
20
0.505522
11
0.543708
21
0.504682
0
LINE
8
BLACK
6
CONTINUOUS
10
0.543708
20
0.504682
11
0.543723
21
0.504507
0
LINE
8
BLACK
6
CONTINUOUS
10
0.543723
20
0.504507
11
0.543833
21
0.504368
0
LINE
8
BLACK
6
CONTINUOUS
10
0.543833
20
0.504368
11
0.545707
21
0.498744
0
LINE
8
BLACK
6
CONTINUOUS
10
0.545707
20
0.498744
11
0.545837
21
0.497871
0
LINE
8
BLACK
6
CONTINUOUS
10
0.545837
20
0.497871
11
0.545859
21
0.49781
0
LINE
8
BLACK
6
CONTINUOUS
10
0.545859
20
0.49781
11
0.545859
21
0.494061
0
LINE
8
BLACK
6
CONTINUOUS
10
0.545859
20
0.494061
11
0.545706
21
0.493191
0
LINE
8
BLACK
6
CONTINUOUS
10
0.545706
20
0.493191
11
0.545707
21
0.493127
0
LINE
8
BLACK
6
CONTINUOUS
10
0.545707
20
0.493127
11
0.543833
21
0.487503
0
LINE
8
BLACK
6
CONTINUOUS
10
0.543833
20
0.487503
11
0.543344
21
0.486601
0
LINE
8
BLACK
6
CONTINUOUS
10
0.543344
20
0.486601
11
0.543194
21
0.486509
0
LINE
8
BLACK
6
CONTINUOUS
10
0.543194
20
0.486509
11
0.543119
21
0.486349
0
LINE
8
BLACK
6
CONTINUOUS
10
0.543119
20
0.486349
11
0.541245
21
0.484474
0
LINE
8
BLACK
6
CONTINUOUS
10
0.541245
20
0.484474
11
0.540405
21
0.483886
0
LINE
8
BLACK
6
CONTINUOUS
10
0.540405
20
0.483886
11
0.538392
21
0.48371
0
LINE
8
BLACK
6
CONTINUOUS
10
0.538392
20
0.48371
11
0.536738
21
0.484868
0
LINE
8
BLACK
6
CONTINUOUS
10
0.536738
20
0.484868
11
0.536215
21
0.486819
0
LINE
8
BLACK
6
CONTINUOUS
10
0.536215
20
0.486819
11
0.537069
21
0.48865
0
LINE
8
BLACK
6
CONTINUOUS
10
0.537069
20
0.48865
11
0.538451
21
0.490032
0
LINE
8
BLACK
6
CONTINUOUS
10
0.538451
20
0.490032
11
0.539954
21
0.49454
0
LINE
8
BLACK
6
CONTINUOUS
10
0.539954
20
0.49454
11
0.539954
21
0.497331
0
LINE
8
BLACK
6
CONTINUOUS
10
0.539954
20
0.497331
11
0.538451
21
0.50184
0
LINE
8
BLACK
6
CONTINUOUS
10
0.538451
20
0.50184
11
0.535533
21
0.504757
0
LINE
8
BLACK
6
CONTINUOUS
10
0.535533
20
0.504757
11
0.532502
21
0.506273
0
LINE
8
BLACK
6
CONTINUOUS
10
0.532502
20
0.506273
11
0.52567
21
0.507981
0
LINE
8
BLACK
6
CONTINUOUS
10
0.52567
20
0.507981
11
0.520773
21
0.507981
0
LINE
8
BLACK
6
CONTINUOUS
10
0.520773
20
0.507981
11
0.513941
21
0.506273
0
LINE
8
BLACK
6
CONTINUOUS
10
0.513941
20
0.506273
11
0.51091
21
0.504757
0
LINE
8
BLACK
6
CONTINUOUS
10
0.51091
20
0.504757
11
0.507992
21
0.50184
0
LINE
8
BLACK
6
CONTINUOUS
10
0.507992
20
0.50184
11
0.506489
21
0.497331
0
LINE
8
BLACK
6
CONTINUOUS
10
0.506489
20
0.497331
11
0.506489
21
0.49454
0
LINE
8
BLACK
6
CONTINUOUS
10
0.506489
20
0.49454
11
0.507992
21
0.490031
0
LINE
8
BLACK
6
CONTINUOUS
10
0.507992
20
0.490031
11
0.509374
21
0.48865
0
LINE
8
BLACK
6
CONTINUOUS
10
0.509374
20
0.48865
11
0.509962
21
0.48781
0
LINE
8
BLACK
6
CONTINUOUS
10
0.509962
20
0.48781
11
0.510138
21
0.485797
0
LINE
8
BLACK
6
CONTINUOUS
10
0.510138
20
0.485797
11
0.508979
21
0.484143
0
LINE
8
BLACK
6
CONTINUOUS
10
0.508979
20
0.484143
11
0.507028
21
0.48362
0
LINE
8
BLACK
6
CONTINUOUS
10
0.507028
20
0.48362
11
0.505198
21
0.484474
0
LINE
8
BLACK
6
CONTINUOUS
10
0.505198
20
0.484474
11
0.503323
21
0.486349
0
LINE
8
BLACK
6
CONTINUOUS
10
0.503323
20
0.486349
11
0.502735
21
0.487189
0
LINE
8
BLACK
6
CONTINUOUS
10
0.502735
20
0.487189
11
0.502719
21
0.487364
0
LINE
8
BLACK
6
CONTINUOUS
10
0.502719
20
0.487364
11
0.50261
21
0.487503
0
LINE
8
BLACK
6
CONTINUOUS
10
0.50261
20
0.487503
11
0.500735
21
0.493127
0
LINE
8
BLACK
6
CONTINUOUS
10
0.500735
20
0.493127
11
0.500605
21
0.494
0
LINE
8
BLACK
6
CONTINUOUS
10
0.500605
20
0.494
11
0.500583
21
0.494061
0
LINE
8
BLACK
6
CONTINUOUS
10
0.500583
20
0.494061
11
0.500583
21
0.49781
0
LINE
8
BLACK
6
CONTINUOUS
10
0.500583
20
0.49781
11
0.500737
21
0.49868
0
LINE
8
BLACK
6
CONTINUOUS
10
0.500737
20
0.49868
11
0.500735
21
0.498744
0
LINE
8
BLACK
6
CONTINUOUS
10
0.500735
20
0.498744
11
0.50261
21
0.504368
0
LINE
8
BLACK
6
CONTINUOUS
10
0.50261
20
0.504368
11
0.503098
21
0.50527
0
LINE
8
BLACK
6
CONTINUOUS
10
0.503098
20
0.50527
11
0.503248
21
0.505363
0
LINE
8
BLACK
6
CONTINUOUS
10
0.503248
20
0.505363
11
0.503323
21
0.505522
0
LINE
8
BLACK
6
CONTINUOUS
10
0.503323
20
0.505522
11
0.507073
21
0.509272
0
LINE
8
BLACK
6
CONTINUOUS
10
0.507073
20
0.509272
11
0.507796
21
0.509778
0
LINE
8
BLACK
6
CONTINUOUS
10
0.507796
20
0.509778
11
0.50784
21
0.509825
0
LINE
8
BLACK
6
CONTINUOUS
10
0.50784
20
0.509825
11
0.511589
21
0.5117
0
LINE
8
BLACK
6
CONTINUOUS
10
0.511589
20
0.5117
11
0.512078
21
0.511845
0
LINE
8
BLACK
6
CONTINUOUS
10
0.512078
20
0.511845
11
0.512194
21
0.511923
0
LINE
8
BLACK
6
CONTINUOUS
10
0.512194
20
0.511923
11
0.519693
21
0.513798
0
LINE
8
BLACK
6
CONTINUOUS
10
0.519693
20
0.513798
11
0.520281
21
0.51384
0
LINE
8
BLACK
6
CONTINUOUS
10
0.520281
20
0.51384
11
0.520409
21
0.513886
0
LINE
8
BLACK
6
CONTINUOUS
10
0.520409
20
0.513886
11
0.526033
21
0.513886
0
LINE
8
BLACK
6
CONTINUOUS
10
0.526033
20
0.513886
11
0.526614
21
0.513784
0
LINE
8
BLACK
6
CONTINUOUS
10
0.668916
20
0.516834
11
0.670463
21
0.515535
0
LINE
8
BLACK
6
CONTINUOUS
10
0.670463
20
0.515535
11
0.670814
21
0.513546
0
LINE
8
BLACK
6
CONTINUOUS
10
0.670814
20
0.513546
11
0.669804
21
0.511797
0
LINE
8
BLACK
6
CONTINUOUS
10
0.669804
20
0.511797
11
0.667906
21
0.511106
0
LINE
8
BLACK
6
CONTINUOUS
10
0.667906
20
0.511106
11
0.652111
21
0.511106
0
LINE
8
BLACK
6
CONTINUOUS
10
0.652111
20
0.511106
11
0.652111
21
0.506222
0
LINE
8
BLACK
6
CONTINUOUS
10
0.652111
20
0.506222
11
0.6696
21
0.493981
0
LINE
8
BLACK
6
CONTINUOUS
10
0.6696
20
0.493981
11
0.670325
21
0.493256
0
LINE
8
BLACK
6
CONTINUOUS
10
0.670325
20
0.493256
11
0.670848
21
0.491305
0
LINE
8
BLACK
6
CONTINUOUS
10
0.670848
20
0.491305
11
0.669994
21
0.489474
0
LINE
8
BLACK
6
CONTINUOUS
10
0.669994
20
0.489474
11
0.668164
21
0.48862
0
LINE
8
BLACK
6
CONTINUOUS
10
0.668164
20
0.48862
11
0.666213
21
0.489143
0
LINE
8
BLACK
6
CONTINUOUS
10
0.666213
20
0.489143
11
0.652104
21
0.499019
0
LINE
8
BLACK
6
CONTINUOUS
10
0.652104
20
0.499019
11
0.651933
21
0.498051
0
LINE
8
BLACK
6
CONTINUOUS
10
0.651933
20
0.498051
11
0.65182
21
0.497916
0
LINE
8
BLACK
6
CONTINUOUS
10
0.65182
20
0.497916
11
0.6518
21
0.49774
0
LINE
8
BLACK
6
CONTINUOUS
10
0.6518
20
0.49774
11
0.649925
21
0.493991
0
LINE
8
BLACK
6
CONTINUOUS
10
0.649925
20
0.493991
11
0.649399
21
0.493282
0
LINE
8
BLACK
6
CONTINUOUS
10
0.649399
20
0.493282
11
0.649372
21
0.493223
0
LINE
8
BLACK
6
CONTINUOUS
10
0.649372
20
0.493223
11
0.647497
21
0.491349
0
LINE
8
BLACK
6
CONTINUOUS
10
0.647497
20
0.491349
11
0.646774
21
0.490842
0
LINE
8
BLACK
6
CONTINUOUS
10
0.646774
20
0.490842
11
0.64673
21
0.490795
0
LINE
8
BLACK
6
CONTINUOUS
10
0.64673
20
0.490795
11
0.64298
21
0.488921
0
LINE
8
BLACK
6
CONTINUOUS
10
0.64298
20
0.488921
11
0.641997
21
0.488628
0
LINE
8
BLACK
6
CONTINUOUS
10
0.641997
20
0.488628
11
0.641825
21
0.488669
0
LINE
8
BLACK
6
CONTINUOUS
10
0.641825
20
0.488669
11
0.64166
21
0.488609
0
LINE
8
BLACK
6
CONTINUOUS
10
0.64166
20
0.488609
11
0.636035
21
0.488609
0
LINE
8
BLACK
6
CONTINUOUS
10
0.636035
20
0.488609
11
0.635025
21
0.488787
0
LINE
8
BLACK
6
CONTINUOUS
10
0.635025
20
0.488787
11
0.63489
21
0.488901
0
LINE
8
BLACK
6
CONTINUOUS
10
0.63489
20
0.488901
11
0.634715
21
0.488921
0
LINE
8
BLACK
6
CONTINUOUS
10
0.634715
20
0.488921
11
0.630965
21
0.490795
0
LINE
8
BLACK
6
CONTINUOUS
10
0.630965
20
0.490795
11
0.630256
21
0.491321
0
LINE
8
BLACK
6
CONTINUOUS
10
0.630256
20
0.491321
11
0.630198
21
0.491349
0
LINE
8
BLACK
6
CONTINUOUS
10
0.630198
20
0.491349
11
0.628323
21
0.493223
0
LINE
8
BLACK
6
CONTINUOUS
10
0.628323
20
0.493223
11
0.627817
21
0.493946
0
LINE
8
BLACK
6
CONTINUOUS
10
0.627817
20
0.493946
11
0.62777
21
0.493991
0
LINE
8
BLACK
6
CONTINUOUS
10
0.62777
20
0.493991
11
0.625895
21
0.49774
0
LINE
8
BLACK
6
CONTINUOUS
10
0.625895
20
0.49774
11
0.625603
21
0.498723
0
LINE
8
BLACK
6
CONTINUOUS
10
0.625603
20
0.498723
11
0.625644
21
0.498895
0
LINE
8
BLACK
6
CONTINUOUS
10
0.625644
20
0.498895
11
0.625583
21
0.499061
0
LINE
8
BLACK
6
CONTINUOUS
10
0.625583
20
0.499061
11
0.625583
21
0.514059
0
LINE
8
BLACK
6
CONTINUOUS
10
0.625583
20
0.514059
11
0.625651
21
0.514442
0
LINE
8
BLACK
6
CONTINUOUS
10
0.625651
20
0.514442
11
0.625628
21
0.514572
0
LINE
8
BLACK
6
CONTINUOUS
10
0.625628
20
0.514572
11
0.625694
21
0.514685
0
LINE
8
BLACK
6
CONTINUOUS
10
0.625694
20
0.514685
11
0.625761
21
0.515069
0
LINE
8
BLACK
6
CONTINUOUS
10
0.625761
20
0.515069
11
0.626255
21
0.515656
0
LINE
8
BLACK
6
CONTINUOUS
10
0.626255
20
0.515656
11
0.626638
21
0.516321
0
LINE
8
BLACK
6
CONTINUOUS
10
0.626638
20
0.516321
11
0.626889
21
0.516412
0
LINE
8
BLACK
6
CONTINUOUS
10
0.626889
20
0.516412
11
0.62706
21
0.516616
0
LINE
8
BLACK
6
CONTINUOUS
10
0.62706
20
0.516616
11
0.627815
21
0.516749
0
LINE
8
BLACK
6
CONTINUOUS
10
0.627815
20
0.516749
11
0.628536
21
0.517012
0
LINE
8
BLACK
6
CONTINUOUS
10
0.628536
20
0.517012
11
0.667906
21
0.517012
0
LINE
8
BLACK
6
CONTINUOUS
10
0.667906
20
0.517012
11
0.668916
21
0.516834
0
LINE
8
BLACK
6
CONTINUOUS
10
0.631489
20
0.499758
11
0.632838
21
0.49706
0
LINE
8
BLACK
6
CONTINUOUS
10
0.632838
20
0.49706
11
0.634035
21
0.495863
0
LINE
8
BLACK
6
CONTINUOUS
10
0.634035
20
0.495863
11
0.636732
21
0.494514
0
LINE
8
BLACK
6
CONTINUOUS
10
0.636732
20
0.494514
11
0.640962
21
0.494514
0
LINE
8
BLACK
6
CONTINUOUS
10
0.640962
20
0.494514
11
0.64366
21
0.495863
0
LINE
8
BLACK
6
CONTINUOUS
10
0.64366
20
0.495863
11
0.644857
21
0.49706
0
LINE
8
BLACK
6
CONTINUOUS
10
0.644857
20
0.49706
11
0.646206
21
0.499758
0
LINE
8
BLACK
6
CONTINUOUS
10
0.646206
20
0.499758
11
0.646206
21
0.511106
0
LINE
8
BLACK
6
CONTINUOUS
10
0.646206
20
0.511106
11
0.631489
21
0.511106
0
LINE
8
BLACK
6
CONTINUOUS
10
0.631489
20
0.511106
11
0.631489
21
0.499758
0
LINE
8
BLACK
6
CONTINUOUS
10
0.571544
20
0.517683
11
0.572657
21
0.515997
0
LINE
8
BLACK
6
CONTINUOUS
10
0.572657
20
0.515997
11
0.572426
21
0.513991
0
LINE
8
BLACK
6
CONTINUOUS
10
0.572426
20
0.513991
11
0.570551
21
0.510241
0
LINE
8
BLACK
6
CONTINUOUS
10
0.570551
20
0.510241
11
0.570025
21
0.509532
0
LINE
8
BLACK
6
CONTINUOUS
10
0.570025
20
0.509532
11
0.569998
21
0.509474
0
LINE
8
BLACK
6
CONTINUOUS
10
0.569998
20
0.509474
11
0.56754
21
0.507015
0
LINE
8
BLACK
6
CONTINUOUS
10
0.56754
20
0.507015
11
0.594954
21
0.507015
0
LINE
8
BLACK
6
CONTINUOUS
10
0.594954
20
0.507015
11
0.594954
21
0.515311
0
LINE
8
BLACK
6
CONTINUOUS
10
0.594954
20
0.515311
11
0.595132
21
0.516321
0
LINE
8
BLACK
6
CONTINUOUS
10
0.595132
20
0.516321
11
0.59643
21
0.517868
0
LINE
8
BLACK
6
CONTINUOUS
10
0.59643
20
0.517868
11
0.598419
21
0.518219
0
LINE
8
BLACK
6
CONTINUOUS
10
0.598419
20
0.518219
11
0.600168
21
0.517209
0
LINE
8
BLACK
6
CONTINUOUS
10
0.600168
20
0.517209
11
0.600859
21
0.515311
0
LINE
8
BLACK
6
CONTINUOUS
10
0.600859
20
0.515311
11
0.600859
21
0.492814
0
LINE
8
BLACK
6
CONTINUOUS
10
0.600859
20
0.492814
11
0.600681
21
0.491804
0
LINE
8
BLACK
6
CONTINUOUS
10
0.600681
20
0.491804
11
0.599383
21
0.490257
0
LINE
8
BLACK
6
CONTINUOUS
10
0.599383
20
0.490257
11
0.597394
21
0.489906
0
LINE
8
BLACK
6
CONTINUOUS
10
0.597394
20
0.489906
11
0.595644
21
0.490916
0
LINE
8
BLACK
6
CONTINUOUS
10
0.595644
20
0.490916
11
0.594954
21
0.492814
0
LINE
8
BLACK
6
CONTINUOUS
10
0.594954
20
0.492814
11
0.594954
21
0.50111
0
LINE
8
BLACK
6
CONTINUOUS
10
0.594954
20
0.50111
11
0.558536
21
0.50111
0
LINE
8
BLACK
6
CONTINUOUS
10
0.558536
20
0.50111
11
0.557526
21
0.501288
0
LINE
8
BLACK
6
CONTINUOUS
10
0.557526
20
0.501288
11
0.557396
21
0.501397
0
LINE
8
BLACK
6
CONTINUOUS
10
0.557396
20
0.501397
11
0.557227
21
0.501416
0
LINE
8
BLACK
6
CONTINUOUS
10
0.557227
20
0.501416
11
0.556636
21
0.502035
0
LINE
8
BLACK
6
CONTINUOUS
10
0.556636
20
0.502035
11
0.555979
21
0.502586
0
LINE
8
BLACK
6
CONTINUOUS
10
0.555979
20
0.502586
11
0.55595
21
0.502754
0
LINE
8
BLACK
6
CONTINUOUS
10
0.55595
20
0.502754
11
0.555832
21
0.502876
0
LINE
8
BLACK
6
CONTINUOUS
10
0.555832
20
0.502876
11
0.555777
21
0.503731
0
LINE
8
BLACK
6
CONTINUOUS
10
0.555777
20
0.503731
11
0.555628
21
0.504575
0
LINE
8
BLACK
6
CONTINUOUS
10
0.555628
20
0.504575
11
0.555713
21
0.504722
0
LINE
8
BLACK
6
CONTINUOUS
10
0.555713
20
0.504722
11
0.555702
21
0.504892
0
LINE
8
BLACK
6
CONTINUOUS
10
0.555702
20
0.504892
11
0.55621
21
0.505582
0
LINE
8
BLACK
6
CONTINUOUS
10
0.55621
20
0.505582
11
0.556638
21
0.506325
0
LINE
8
BLACK
6
CONTINUOUS
10
0.556638
20
0.506325
11
0.556798
21
0.506383
0
LINE
8
BLACK
6
CONTINUOUS
10
0.556798
20
0.506383
11
0.556898
21
0.506519
0
LINE
8
BLACK
6
CONTINUOUS
10
0.556898
20
0.506519
11
0.562279
21
0.510107
0
LINE
8
BLACK
6
CONTINUOUS
10
0.562279
20
0.510107
11
0.565483
21
0.513311
0
LINE
8
BLACK
6
CONTINUOUS
10
0.565483
20
0.513311
11
0.567144
21
0.516632
0
LINE
8
BLACK
6
CONTINUOUS
10
0.567144
20
0.516632
11
0.567755
21
0.517455
0
LINE
8
BLACK
6
CONTINUOUS
10
0.567755
20
0.517455
11
0.569608
21
0.518259
0
LINE
8
BLACK
6
CONTINUOUS
10
0.569608
20
0.518259
11
0.571544
21
0.517683
0
LINE
8
BLACK
6
CONTINUOUS
10
1.08601
20
0.564239
11
1.08615
21
0.564125
0
LINE
8
BLACK
6
CONTINUOUS
10
1.08615
20
0.564125
11
1.08632
21
0.564105
0
LINE
8
BLACK
6
CONTINUOUS
10
1.08632
20
0.564105
11
1.09007
21
0.56223
0
LINE
8
BLACK
6
CONTINUOUS
10
1.09007
20
0.56223
11
1.09078
21
0.561704
0
LINE
8
BLACK
6
CONTINUOUS
10
1.09078
20
0.561704
11
1.09084
21
0.561677
0
LINE
8
BLACK
6
CONTINUOUS
10
1.09084
20
0.561677
11
1.09271
21
0.559802
0
LINE
8
BLACK
6
CONTINUOUS
10
1.09271
20
0.559802
11
1.0933
21
0.558962
0
LINE
8
BLACK
6
CONTINUOUS
10
1.0933
20
0.558962
11
1.09348
21
0.55695
0
LINE
8
BLACK
6
CONTINUOUS
10
1.09348
20
0.55695
11
1.09232
21
0.555296
0
LINE
8
BLACK
6
CONTINUOUS
10
1.09232
20
0.555296
11
1.09037
21
0.554773
0
LINE
8
BLACK
6
CONTINUOUS
10
1.09037
20
0.554773
11
1.08854
21
0.555626
0
LINE
8
BLACK
6
CONTINUOUS
10
1.08854
20
0.555626
11
1.087
21
0.557162
0
LINE
8
BLACK
6
CONTINUOUS
10
1.087
20
0.557162
11
1.0843
21
0.558511
0
LINE
8
BLACK
6
CONTINUOUS
10
1.0843
20
0.558511
11
1.07633
21
0.558511
0
LINE
8
BLACK
6
CONTINUOUS
10
1.07633
20
0.558511
11
1.07363
21
0.557162
0
LINE
8
BLACK
6
CONTINUOUS
10
1.07363
20
0.557162
11
1.07243
21
0.555965
0
LINE
8
BLACK
6
CONTINUOUS
10
1.07243
20
0.555965
11
1.07108
21
0.553268
0
LINE
8
BLACK
6
CONTINUOUS
10
1.07108
20
0.553268
11
1.07108
21
0.550694
0
LINE
8
BLACK
6
CONTINUOUS
10
1.07108
20
0.550694
11
1.07258
21
0.546186
0
LINE
8
BLACK
6
CONTINUOUS
10
1.07258
20
0.546186
11
1.09459
21
0.524182
0
LINE
8
BLACK
6
CONTINUOUS
10
1.09459
20
0.524182
11
1.09496
21
0.523654
0
LINE
8
BLACK
6
CONTINUOUS
10
1.09496
20
0.523654
11
1.09506
21
0.52357
0
LINE
8
BLACK
6
CONTINUOUS
10
1.09506
20
0.52357
11
1.09507
21
0.523492
0
LINE
8
BLACK
6
CONTINUOUS
10
1.09507
20
0.523492
11
1.09518
21
0.523342
0
LINE
8
BLACK
6
CONTINUOUS
10
1.09518
20
0.523342
11
1.09525
21
0.522456
0
LINE
8
BLACK
6
CONTINUOUS
10
1.09525
20
0.522456
11
1.09541
21
0.521581
0
LINE
8
BLACK
6
CONTINUOUS
10
1.09541
20
0.521581
11
1.09534
21
0.521464
0
LINE
8
BLACK
6
CONTINUOUS
10
1.09534
20
0.521464
11
1.09535
21
0.521329
0
LINE
8
BLACK
6
CONTINUOUS
10
1.09535
20
0.521329
11
1.09484
21
0.520601
0
LINE
8
BLACK
6
CONTINUOUS
10
1.09484
20
0.520601
11
1.0944
21
0.519832
0
LINE
8
BLACK
6
CONTINUOUS
10
1.0944
20
0.519832
11
1.09427
21
0.519786
0
LINE
8
BLACK
6
CONTINUOUS
10
1.09427
20
0.519786
11
1.09419
21
0.519675
0
LINE
8
BLACK
6
CONTINUOUS
10
1.09419
20
0.519675
11
1.09334
21
0.519445
0
LINE
8
BLACK
6
CONTINUOUS
10
1.09334
20
0.519445
11
1.0925
21
0.519141
0
LINE
8
BLACK
6
CONTINUOUS
10
1.0925
20
0.519141
11
1.06813
21
0.519141
0
LINE
8
BLACK
6
CONTINUOUS
10
1.06813
20
0.519141
11
1.06712
21
0.519319
0
LINE
8
BLACK
6
CONTINUOUS
10
1.06712
20
0.519319
11
1.06557
21
0.520617
0
LINE
8
BLACK
6
CONTINUOUS
10
1.06557
20
0.520617
11
1.06522
21
0.522606
0
LINE
8
BLACK
6
CONTINUOUS
10
1.06522
20
0.522606
11
1.06623
21
0.524356
0
LINE
8
BLACK
6
CONTINUOUS
10
1.06623
20
0.524356
11
1.06813
21
0.525046
0
LINE
8
BLACK
6
CONTINUOUS
10
1.06813
20
0.525046
11
1.08537
21
0.525046
0
LINE
8
BLACK
6
CONTINUOUS
10
1.08537
20
0.525046
11
1.06792
21
0.542503
0
LINE
8
BLACK
6
CONTINUOUS
10
1.06792
20
0.542503
11
1.06733
21
0.543343
0
LINE
8
BLACK
6
CONTINUOUS
10
1.06733
20
0.543343
11
1.06731
21
0.543519
0
LINE
8
BLACK
6
CONTINUOUS
10
1.06731
20
0.543519
11
1.0672
21
0.543657
0
LINE
8
BLACK
6
CONTINUOUS
10
1.0672
20
0.543657
11
1.06533
21
0.549281
0
LINE
8
BLACK
6
CONTINUOUS
10
1.06533
20
0.549281
11
1.0652
21
0.550155
0
LINE
8
BLACK
6
CONTINUOUS
10
1.0652
20
0.550155
11
1.06518
21
0.550215
0
LINE
8
BLACK
6
CONTINUOUS
10
1.06518
20
0.550215
11
1.06518
21
0.553965
0
LINE
8
BLACK
6
CONTINUOUS
10
1.06518
20
0.553965
11
1.06535
21
0.554975
0
LINE
8
BLACK
6
CONTINUOUS
10
1.06535
20
0.554975
11
1.06547
21
0.55511
0
LINE
8
BLACK
6
CONTINUOUS
10
1.06547
20
0.55511
11
1.06549
21
0.555285
0
LINE
8
BLACK
6
CONTINUOUS
10
1.06549
20
0.555285
11
1.06736
21
0.559035
0
LINE
8
BLACK
6
CONTINUOUS
10
1.06736
20
0.559035
11
1.06789
21
0.559744
0
LINE
8
BLACK
6
CONTINUOUS
10
1.06789
20
0.559744
11
1.06792
21
0.559802
0
LINE
8
BLACK
6
CONTINUOUS
10
1.06792
20
0.559802
11
1.06979
21
0.561677
0
LINE
8
BLACK
6
CONTINUOUS
10
1.06979
20
0.561677
11
1.07051
21
0.562183
0
LINE
8
BLACK
6
CONTINUOUS
10
1.07051
20
0.562183
11
1.07056
21
0.56223
0
LINE
8
BLACK
6
CONTINUOUS
10
1.07056
20
0.56223
11
1.07431
21
0.564105
0
LINE
8
BLACK
6
CONTINUOUS
10
1.07431
20
0.564105
11
1.07529
21
0.564397
0
LINE
8
BLACK
6
CONTINUOUS
10
1.07529
20
0.564397
11
1.07546
21
0.564356
0
LINE
8
BLACK
6
CONTINUOUS
10
1.07546
20
0.564356
11
1.07563
21
0.564417
0
LINE
8
BLACK
6
CONTINUOUS
10
1.07563
20
0.564417
11
1.085
21
0.564417
0
LINE
8
BLACK
6
CONTINUOUS
10
1.085
20
0.564417
11
1.08601
21
0.564239
0
LINE
8
BLACK
6
CONTINUOUS
10
1.13226
20
0.563362
11
1.13295
21
0.561464
0
LINE
8
BLACK
6
CONTINUOUS
10
1.13295
20
0.561464
11
1.13295
21
0.529593
0
LINE
8
BLACK
6
CONTINUOUS
10
1.13295
20
0.529593
11
1.13277
21
0.528583
0
LINE
8
BLACK
6
CONTINUOUS
10
1.13277
20
0.528583
11
1.13266
21
0.528448
0
LINE
8
BLACK
6
CONTINUOUS
10
1.13266
20
0.528448
11
1.13264
21
0.528272
0
LINE
8
BLACK
6
CONTINUOUS
10
1.13264
20
0.528272
11
1.13076
21
0.524523
0
LINE
8
BLACK
6
CONTINUOUS
10
1.13076
20
0.524523
11
1.13024
21
0.523814
0
LINE
8
BLACK
6
CONTINUOUS
10
1.13024
20
0.523814
11
1.13021
21
0.523755
0
LINE
8
BLACK
6
CONTINUOUS
10
1.13021
20
0.523755
11
1.12833
21
0.521881
0
LINE
8
BLACK
6
CONTINUOUS
10
1.12833
20
0.521881
11
1.12761
21
0.521374
0
LINE
8
BLACK
6
CONTINUOUS
10
1.12761
20
0.521374
11
1.12757
21
0.521327
0
LINE
8
BLACK
6
CONTINUOUS
10
1.12757
20
0.521327
11
1.12382
21
0.519453
0
LINE
8
BLACK
6
CONTINUOUS
10
1.12382
20
0.519453
11
1.12283
21
0.51916
0
LINE
8
BLACK
6
CONTINUOUS
10
1.12283
20
0.51916
11
1.12266
21
0.519201
0
LINE
8
BLACK
6
CONTINUOUS
10
1.12266
20
0.519201
11
1.1225
21
0.519141
0
LINE
8
BLACK
6
CONTINUOUS
10
1.1225
20
0.519141
11
1.115
21
0.519141
0
LINE
8
BLACK
6
CONTINUOUS
10
1.115
20
0.519141
11
1.11399
21
0.519319
0
LINE
8
BLACK
6
CONTINUOUS
10
1.11399
20
0.519319
11
1.11385
21
0.519433
0
LINE
8
BLACK
6
CONTINUOUS
10
1.11385
20
0.519433
11
1.11368
21
0.519453
0
LINE
8
BLACK
6
CONTINUOUS
10
1.11368
20
0.519453
11
1.10993
21
0.521327
0
LINE
8
BLACK
6
CONTINUOUS
10
1.10993
20
0.521327
11
1.10922
21
0.521853
0
LINE
8
BLACK
6
CONTINUOUS
10
1.10922
20
0.521853
11
1.10916
21
0.521881
0
LINE
8
BLACK
6
CONTINUOUS
10
1.10916
20
0.521881
11
1.10729
21
0.523755
0
LINE
8
BLACK
6
CONTINUOUS
10
1.10729
20
0.523755
11
1.10678
21
0.524479
0
LINE
8
BLACK
6
CONTINUOUS
10
1.10678
20
0.524479
11
1.10673
21
0.524523
0
LINE
8
BLACK
6
CONTINUOUS
10
1.10673
20
0.524523
11
1.10486
21
0.528272
0
LINE
8
BLACK
6
CONTINUOUS
10
1.10486
20
0.528272
11
1.10457
21
0.529255
0
LINE
8
BLACK
6
CONTINUOUS
10
1.10457
20
0.529255
11
1.10461
21
0.529427
0
LINE
8
BLACK
6
CONTINUOUS
10
1.10461
20
0.529427
11
1.10455
21
0.529593
0
LINE
8
BLACK
6
CONTINUOUS
10
1.10455
20
0.529593
11
1.10455
21
0.561464
0
LINE
8
BLACK
6
CONTINUOUS
10
1.10455
20
0.561464
11
1.10472
21
0.562474
0
LINE
8
BLACK
6
CONTINUOUS
10
1.10472
20
0.562474
11
1.10602
21
0.564021
0
LINE
8
BLACK
6
CONTINUOUS
10
1.10602
20
0.564021
11
1.10801
21
0.564372
0
LINE
8
BLACK
6
CONTINUOUS
10
1.10801
20
0.564372
11
1.10976
21
0.563362
0
LINE
8
BLACK
6
CONTINUOUS
10
1.10976
20
0.563362
11
1.11045
21
0.561464
0
LINE
8
BLACK
6
CONTINUOUS
10
1.11045
20
0.561464
11
1.11045
21
0.53029
0
LINE
8
BLACK
6
CONTINUOUS
10
1.11045
20
0.53029
11
1.1118
21
0.527592
0
LINE
8
BLACK
6
CONTINUOUS
10
1.1118
20
0.527592
11
1.113
21
0.526395
0
LINE
8
BLACK
6
CONTINUOUS
10
1.113
20
0.526395
11
1.1157
21
0.525046
0
LINE
8
BLACK
6
CONTINUOUS
10
1.1157
20
0.525046
11
1.1218
21
0.525046
0
LINE
8
BLACK
6
CONTINUOUS
10
1.1218
20
0.525046
11
1.1245
21
0.526395
0
LINE
8
BLACK
6
CONTINUOUS
10
1.1245
20
0.526395
11
1.12569
21
0.527592
0
LINE
8
BLACK
6
CONTINUOUS
10
1.12569
20
0.527592
11
1.12704
21
0.53029
0
LINE
8
BLACK
6
CONTINUOUS
10
1.12704
20
0.53029
11
1.12704
21
0.561464
0
LINE
8
BLACK
6
CONTINUOUS
10
1.12704
20
0.561464
11
1.12722
21
0.562474
0
LINE
8
BLACK
6
CONTINUOUS
10
1.12722
20
0.562474
11
1.12852
21
0.564021
0
LINE
8
BLACK
6
CONTINUOUS
10
1.12852
20
0.564021
11
1.13051
21
0.564372
0
LINE
8
BLACK
6
CONTINUOUS
10
1.13051
20
0.564372
11
1.13226
21
0.563362
0
LINE
8
BLACK
6
CONTINUOUS
10
0.598916
20
0.555581
11
0.600463
21
0.554283
0
LINE
8
BLACK
6
CONTINUOUS
10
0.600463
20
0.554283
11
0.600814
21
0.552294
0
LINE
8
BLACK
6
CONTINUOUS
10
0.600814
20
0.552294
11
0.599804
21
0.550545
0
LINE
8
BLACK
6
CONTINUOUS
10
0.599804
20
0.550545
11
0.597906
21
0.549854
0
LINE
8
BLACK
6
CONTINUOUS
10
0.597906
20
0.549854
11
0.582111
21
0.549854
0
LINE
8
BLACK
6
CONTINUOUS
10
0.582111
20
0.549854
11
0.582111
21
0.54497
0
LINE
8
BLACK
6
CONTINUOUS
10
0.582111
20
0.54497
11
0.5996
21
0.532728
0
LINE
8
BLACK
6
CONTINUOUS
10
0.5996
20
0.532728
11
0.600325
21
0.532003
0
LINE
8
BLACK
6
CONTINUOUS
10
0.600325
20
0.532003
11
0.600848
21
0.530052
0
LINE
8
BLACK
6
CONTINUOUS
10
0.600848
20
0.530052
11
0.599994
21
0.528222
0
LINE
8
BLACK
6
CONTINUOUS
10
0.599994
20
0.528222
11
0.598164
21
0.527368
0
LINE
8
BLACK
6
CONTINUOUS
10
0.598164
20
0.527368
11
0.596213
21
0.52789
0
LINE
8
BLACK
6
CONTINUOUS
10
0.596213
20
0.52789
11
0.582104
21
0.537767
0
LINE
8
BLACK
6
CONTINUOUS
10
0.582104
20
0.537767
11
0.581933
21
0.536799
0
LINE
8
BLACK
6
CONTINUOUS
10
0.581933
20
0.536799
11
0.58182
21
0.536663
0
LINE
8
BLACK
6
CONTINUOUS
10
0.58182
20
0.536663
11
0.5818
21
0.536488
0
LINE
8
BLACK
6
CONTINUOUS
10
0.5818
20
0.536488
11
0.579925
21
0.532738
0
LINE
8
BLACK
6
CONTINUOUS
10
0.579925
20
0.532738
11
0.579399
21
0.532029
0
LINE
8
BLACK
6
CONTINUOUS
10
0.579399
20
0.532029
11
0.579372
21
0.531971
0
LINE
8
BLACK
6
CONTINUOUS
10
0.579372
20
0.531971
11
0.577497
21
0.530096
0
LINE
8
BLACK
6
CONTINUOUS
10
0.577497
20
0.530096
11
0.576774
21
0.52959
0
LINE
8
BLACK
6
CONTINUOUS
10
0.576774
20
0.52959
11
0.57673
21
0.529543
0
LINE
8
BLACK
6
CONTINUOUS
10
0.57673
20
0.529543
11
0.57298
21
0.527668
0
LINE
8
BLACK
6
CONTINUOUS
10
0.57298
20
0.527668
11
0.571997
21
0.527376
0
LINE
8
BLACK
6
CONTINUOUS
10
0.571997
20
0.527376
11
0.571825
21
0.527417
0
LINE
8
BLACK
6
CONTINUOUS
10
0.571825
20
0.527417
11
0.57166
21
0.527357
0
LINE
8
BLACK
6
CONTINUOUS
10
0.57166
20
0.527357
11
0.566035
21
0.527357
0
LINE
8
BLACK
6
CONTINUOUS
10
0.566035
20
0.527357
11
0.565025
21
0.527535
0
LINE
8
BLACK
6
CONTINUOUS
10
0.565025
20
0.527535
11
0.56489
21
0.527648
0
LINE
8
BLACK
6
CONTINUOUS
10
0.56489
20
0.527648
11
0.564715
21
0.527668
0
LINE
8
BLACK
6
CONTINUOUS
10
0.564715
20
0.527668
11
0.560965
21
0.529543
0
LINE
8
BLACK
6
CONTINUOUS
10
0.560965
20
0.529543
11
0.560256
21
0.530069
0
LINE
8
BLACK
6
CONTINUOUS
10
0.560256
20
0.530069
11
0.560198
21
0.530096
0
LINE
8
BLACK
6
CONTINUOUS
10
0.560198
20
0.530096
11
0.558323
21
0.531971
0
LINE
8
BLACK
6
CONTINUOUS
10
0.558323
20
0.531971
11
0.557817
21
0.532694
0
LINE
8
BLACK
6
CONTINUOUS
10
0.557817
20
0.532694
11
0.55777
21
0.532738
0
LINE
8
BLACK
6
CONTINUOUS
10
0.55777
20
0.532738
11
0.555895
21
0.536488
0
LINE
8
BLACK
6
CONTINUOUS
10
0.555895
20
0.536488
11
0.555603
21
0.537471
0
LINE
8
BLACK
6
CONTINUOUS
10
0.555603
20
0.537471
11
0.555644
21
0.537643
0
LINE
8
BLACK
6
CONTINUOUS
10
0.555644
20
0.537643
11
0.555583
21
0.537808
0
LINE
8
BLACK
6
CONTINUOUS
10
0.555583
20
0.537808
11
0.555583
21
0.552807
0
LINE
8
BLACK
6
CONTINUOUS
10
0.555583
20
0.552807
11
0.555651
21
0.55319
0
LINE
8
BLACK
6
CONTINUOUS
10
0.555651
20
0.55319
11
0.555628
21
0.553319
0
LINE
8
BLACK
6
CONTINUOUS
10
0.555628
20
0.553319
11
0.555694
21
0.553433
0
LINE
8
BLACK
6
CONTINUOUS
10
0.555694
20
0.553433
11
0.555761
21
0.553816
0
LINE
8
BLACK
6
CONTINUOUS
10
0.555761
20
0.553816
11
0.556255
21
0.554404
0
LINE
8
BLACK
6
CONTINUOUS
10
0.556255
20
0.554404
11
0.556638
21
0.555068
0
LINE
8
BLACK
6
CONTINUOUS
10
0.556638
20
0.555068
11
0.556889
21
0.55516
0
LINE
8
BLACK
6
CONTINUOUS
10
0.556889
20
0.55516
11
0.55706
21
0.555364
0
LINE
8
BLACK
6
CONTINUOUS
10
0.55706
20
0.555364
11
0.557815
21
0.555497
0
LINE
8
BLACK
6
CONTINUOUS
10
0.557815
20
0.555497
11
0.558536
21
0.555759
0
LINE
8
BLACK
6
CONTINUOUS
10
0.558536
20
0.555759
11
0.597906
21
0.555759
0
LINE
8
BLACK
6
CONTINUOUS
10
0.597906
20
0.555759
11
0.598916
21
0.555581
0
LINE
8
BLACK
6
CONTINUOUS
10
0.561489
20
0.538505
11
0.562838
21
0.535808
0
LINE
8
BLACK
6
CONTINUOUS
10
0.562838
20
0.535808
11
0.564035
21
0.534611
0
LINE
8
BLACK
6
CONTINUOUS
10
0.564035
20
0.534611
11
0.566732
21
0.533262
0
LINE
8
BLACK
6
CONTINUOUS
10
0.566732
20
0.533262
11
0.570962
21
0.533262
0
LINE
8
BLACK
6
CONTINUOUS
10
0.570962
20
0.533262
11
0.57366
21
0.534611
0
LINE
8
BLACK
6
CONTINUOUS
10
0.57366
20
0.534611
11
0.574857
21
0.535808
0
LINE
8
BLACK
6
CONTINUOUS
10
0.574857
20
0.535808
11
0.576206
21
0.538505
0
LINE
8
BLACK
6
CONTINUOUS
10
0.576206
20
0.538505
11
0.576206
21
0.549854
0
LINE
8
BLACK
6
CONTINUOUS
10
0.576206
20
0.549854
11
0.561489
21
0.549854
0
LINE
8
BLACK
6
CONTINUOUS
10
0.561489
20
0.549854
11
0.561489
21
0.538505
0
CIRCLE
8
BLACK
10
0.492126
20
0.590551
40
0.00688976
0
CIRCLE
8
BLACK
10
0.492126
20
0
40
0.00688976
0
CIRCLE
8
BLACK
10
0.0984252
20
0.590551
40
0.00688976
0
CIRCLE
8
BLACK
10
0.885827
20
0
40
0.00688976
0
CIRCLE
8
BLACK
10
0.885827
20
0.590551
40
0.00688976
0
CIRCLE
8
BLACK
10
0.0984252
20
0
40
0.00688976
  0
ENDSEC
  0
EOF
