  0
SECTION
  2
HEADER
  9
$ANGBASE
  50
0.0
  9
$ANGDIR
  70
1
  9
$MEASUREMENT
  70
0
  0
ENDSEC
  0
SECTION
  2
TABLES
  0
TABLE
  2
LTYPE
  70
4
  0
LTYPE
  5
40F
  2
CONTINUOUS
  70
0
  3
Solid line
  72
65
  73
0
  40
0.0
  0
LTYPE
  5
410
  2
DASHDOT
 70
0
  3
Dash Dot ____ _ ____ _
 72
65
 73
4
 40
2.0
 49
1.25
 49
-0.25
 49
0.25
 49
-0.25
  0
LTYPE
  5
411
  2
DASHED
 70
0
  3
Dashed __ __ __ __ __
 72
65
 73
2
 40
0.75
 49
0.5
 49
-0.25
  0
LTYPE
  5
43B
  2
DOTTED
 70
0
  3
Dotted .  .  .  .
 72
65
 73
2
 40
0.2
 49
0.0
 49
-0.2
  0
ENDTAB
  0
TABLE
  2
STYLE
  70
4
  0
STYLE
  2
KICAD
  70
0
  40
0
  41
1
  42
1
  50
0
  71
0
  3
isocp.shx
  0
STYLE
  2
KICADB
  70
0
  40
0
  41
1
  42
1
  50
0
  71
0
  3
isocp.shx
  0
STYLE
  2
KICADI
  70
0
  40
0
  41
1
  42
1
  50
15
  71
0
  3
isocp.shx
  0
STYLE
  2
KICADBI
  70
0
  40
0
  41
1
  42
1
  50
15
  71
0
  3
isocp.shx
  0
ENDTAB
  0
TABLE
  2
LAYER
  70
1
  0
LAYER
  2
BLACK
  70
0
  62
7
  6
CONTINUOUS
  0
ENDTAB
  0
ENDSEC
  0
SECTION
  2
ENTITIES
0
LINE
8
BLACK
6
CONTINUOUS
10
0.853143
20
0.168654
11
0.855857
21
0.166841
0
LINE
8
BLACK
6
CONTINUOUS
10
0.855857
20
0.166841
11
0.85767
21
0.164127
0
LINE
8
BLACK
6
CONTINUOUS
10
0.85767
20
0.164127
11
0.858307
21
0.160925
0
LINE
8
BLACK
6
CONTINUOUS
10
0.858307
20
0.160925
11
0.858307
21
0.102854
0
LINE
8
BLACK
6
CONTINUOUS
10
0.858307
20
0.102854
11
0.85767
21
0.0996528
0
LINE
8
BLACK
6
CONTINUOUS
10
0.85767
20
0.0996528
11
0.855857
21
0.0969386
0
LINE
8
BLACK
6
CONTINUOUS
10
0.855857
20
0.0969386
11
0.853143
21
0.095125
0
LINE
8
BLACK
6
CONTINUOUS
10
0.853143
20
0.095125
11
0.849941
21
0.0944882
0
LINE
8
BLACK
6
CONTINUOUS
10
0.849941
20
0.0944882
11
0.833209
21
0.0944882
0
LINE
8
BLACK
6
CONTINUOUS
10
0.833209
20
0.0944882
11
0.830007
21
0.095125
0
LINE
8
BLACK
6
CONTINUOUS
10
0.830007
20
0.095125
11
0.827293
21
0.0969386
0
LINE
8
BLACK
6
CONTINUOUS
10
0.827293
20
0.0969386
11
0.825479
21
0.0996528
0
LINE
8
BLACK
6
CONTINUOUS
10
0.825479
20
0.0996528
11
0.824843
21
0.102854
0
LINE
8
BLACK
6
CONTINUOUS
10
0.824843
20
0.102854
11
0.824843
21
0.160925
0
LINE
8
BLACK
6
CONTINUOUS
10
0.824843
20
0.160925
11
0.825479
21
0.164127
0
LINE
8
BLACK
6
CONTINUOUS
10
0.825479
20
0.164127
11
0.827293
21
0.166841
0
LINE
8
BLACK
6
CONTINUOUS
10
0.827293
20
0.166841
11
0.830007
21
0.168654
0
LINE
8
BLACK
6
CONTINUOUS
10
0.830007
20
0.168654
11
0.833209
21
0.169291
0
LINE
8
BLACK
6
CONTINUOUS
10
0.833209
20
0.169291
11
0.849941
21
0.169291
0
LINE
8
BLACK
6
CONTINUOUS
10
0.849941
20
0.169291
11
0.853143
21
0.168654
0
LINE
8
BLACK
6
CONTINUOUS
10
0.902355
20
0.168654
11
0.905069
21
0.166841
0
LINE
8
BLACK
6
CONTINUOUS
10
0.905069
20
0.166841
11
0.906883
21
0.164127
0
LINE
8
BLACK
6
CONTINUOUS
10
0.906883
20
0.164127
11
0.90752
21
0.160925
0
LINE
8
BLACK
6
CONTINUOUS
10
0.90752
20
0.160925
11
0.90752
21
0.102854
0
LINE
8
BLACK
6
CONTINUOUS
10
0.90752
20
0.102854
11
0.906883
21
0.0996528
0
LINE
8
BLACK
6
CONTINUOUS
10
0.906883
20
0.0996528
11
0.905069
21
0.0969386
0
LINE
8
BLACK
6
CONTINUOUS
10
0.905069
20
0.0969386
11
0.902355
21
0.095125
0
LINE
8
BLACK
6
CONTINUOUS
10
0.902355
20
0.095125
11
0.899154
21
0.0944882
0
LINE
8
BLACK
6
CONTINUOUS
10
0.899154
20
0.0944882
11
0.882421
21
0.0944882
0
LINE
8
BLACK
6
CONTINUOUS
10
0.882421
20
0.0944882
11
0.87922
21
0.095125
0
LINE
8
BLACK
6
CONTINUOUS
10
0.87922
20
0.095125
11
0.876506
21
0.0969386
0
LINE
8
BLACK
6
CONTINUOUS
10
0.876506
20
0.0969386
11
0.874692
21
0.0996528
0
LINE
8
BLACK
6
CONTINUOUS
10
0.874692
20
0.0996528
11
0.874055
21
0.102854
0
LINE
8
BLACK
6
CONTINUOUS
10
0.874055
20
0.102854
11
0.874055
21
0.160925
0
LINE
8
BLACK
6
CONTINUOUS
10
0.874055
20
0.160925
11
0.874692
21
0.164127
0
LINE
8
BLACK
6
CONTINUOUS
10
0.874692
20
0.164127
11
0.876506
21
0.166841
0
LINE
8
BLACK
6
CONTINUOUS
10
0.876506
20
0.166841
11
0.87922
21
0.168654
0
LINE
8
BLACK
6
CONTINUOUS
10
0.87922
20
0.168654
11
0.882421
21
0.169291
0
LINE
8
BLACK
6
CONTINUOUS
10
0.882421
20
0.169291
11
0.899154
21
0.169291
0
LINE
8
BLACK
6
CONTINUOUS
10
0.899154
20
0.169291
11
0.902355
21
0.168654
0
LINE
8
BLACK
6
CONTINUOUS
10
0.951568
20
0.168654
11
0.954282
21
0.166841
0
LINE
8
BLACK
6
CONTINUOUS
10
0.954282
20
0.166841
11
0.956095
21
0.164127
0
LINE
8
BLACK
6
CONTINUOUS
10
0.956095
20
0.164127
11
0.956732
21
0.160925
0
LINE
8
BLACK
6
CONTINUOUS
10
0.956732
20
0.160925
11
0.956732
21
0.102854
0
LINE
8
BLACK
6
CONTINUOUS
10
0.956732
20
0.102854
11
0.956095
21
0.0996528
0
LINE
8
BLACK
6
CONTINUOUS
10
0.956095
20
0.0996528
11
0.954282
21
0.0969386
0
LINE
8
BLACK
6
CONTINUOUS
10
0.954282
20
0.0969386
11
0.951568
21
0.095125
0
LINE
8
BLACK
6
CONTINUOUS
10
0.951568
20
0.095125
11
0.948366
21
0.0944882
0
LINE
8
BLACK
6
CONTINUOUS
10
0.948366
20
0.0944882
11
0.931634
21
0.0944882
0
LINE
8
BLACK
6
CONTINUOUS
10
0.931634
20
0.0944882
11
0.928432
21
0.095125
0
LINE
8
BLACK
6
CONTINUOUS
10
0.928432
20
0.095125
11
0.925718
21
0.0969386
0
LINE
8
BLACK
6
CONTINUOUS
10
0.925718
20
0.0969386
11
0.923905
21
0.0996528
0
LINE
8
BLACK
6
CONTINUOUS
10
0.923905
20
0.0996528
11
0.923268
21
0.102854
0
LINE
8
BLACK
6
CONTINUOUS
10
0.923268
20
0.102854
11
0.923268
21
0.160925
0
LINE
8
BLACK
6
CONTINUOUS
10
0.923268
20
0.160925
11
0.923905
21
0.164127
0
LINE
8
BLACK
6
CONTINUOUS
10
0.923905
20
0.164127
11
0.925718
21
0.166841
0
LINE
8
BLACK
6
CONTINUOUS
10
0.925718
20
0.166841
11
0.928432
21
0.168654
0
LINE
8
BLACK
6
CONTINUOUS
10
0.928432
20
0.168654
11
0.931634
21
0.169291
0
LINE
8
BLACK
6
CONTINUOUS
10
0.931634
20
0.169291
11
0.948366
21
0.169291
0
LINE
8
BLACK
6
CONTINUOUS
10
0.948366
20
0.169291
11
0.951568
21
0.168654
0
LINE
8
BLACK
6
CONTINUOUS
10
1.00078
20
0.168654
11
1.00349
21
0.166841
0
LINE
8
BLACK
6
CONTINUOUS
10
1.00349
20
0.166841
11
1.00531
21
0.164127
0
LINE
8
BLACK
6
CONTINUOUS
10
1.00531
20
0.164127
11
1.00594
21
0.160925
0
LINE
8
BLACK
6
CONTINUOUS
10
1.00594
20
0.160925
11
1.00594
21
0.102854
0
LINE
8
BLACK
6
CONTINUOUS
10
1.00594
20
0.102854
11
1.00531
21
0.0996528
0
LINE
8
BLACK
6
CONTINUOUS
10
1.00531
20
0.0996528
11
1.00349
21
0.0969386
0
LINE
8
BLACK
6
CONTINUOUS
10
1.00349
20
0.0969386
11
1.00078
21
0.095125
0
LINE
8
BLACK
6
CONTINUOUS
10
1.00078
20
0.095125
11
0.997579
21
0.0944882
0
LINE
8
BLACK
6
CONTINUOUS
10
0.997579
20
0.0944882
11
0.980846
21
0.0944882
0
LINE
8
BLACK
6
CONTINUOUS
10
0.980846
20
0.0944882
11
0.977645
21
0.095125
0
LINE
8
BLACK
6
CONTINUOUS
10
0.977645
20
0.095125
11
0.974931
21
0.0969386
0
LINE
8
BLACK
6
CONTINUOUS
10
0.974931
20
0.0969386
11
0.973117
21
0.0996528
0
LINE
8
BLACK
6
CONTINUOUS
10
0.973117
20
0.0996528
11
0.97248
21
0.102854
0
LINE
8
BLACK
6
CONTINUOUS
10
0.97248
20
0.102854
11
0.97248
21
0.160925
0
LINE
8
BLACK
6
CONTINUOUS
10
0.97248
20
0.160925
11
0.973117
21
0.164127
0
LINE
8
BLACK
6
CONTINUOUS
10
0.973117
20
0.164127
11
0.974931
21
0.166841
0
LINE
8
BLACK
6
CONTINUOUS
10
0.974931
20
0.166841
11
0.977645
21
0.168654
0
LINE
8
BLACK
6
CONTINUOUS
10
0.977645
20
0.168654
11
0.980846
21
0.169291
0
LINE
8
BLACK
6
CONTINUOUS
10
0.980846
20
0.169291
11
0.997579
21
0.169291
0
LINE
8
BLACK
6
CONTINUOUS
10
0.997579
20
0.169291
11
1.00078
21
0.168654
0
LINE
8
BLACK
6
CONTINUOUS
10
1.04999
20
0.168654
11
1.05271
21
0.166841
0
LINE
8
BLACK
6
CONTINUOUS
10
1.05271
20
0.166841
11
1.05452
21
0.164127
0
LINE
8
BLACK
6
CONTINUOUS
10
1.05452
20
0.164127
11
1.05516
21
0.160925
0
LINE
8
BLACK
6
CONTINUOUS
10
1.05516
20
0.160925
11
1.05516
21
0.102854
0
LINE
8
BLACK
6
CONTINUOUS
10
1.05516
20
0.102854
11
1.05452
21
0.0996528
0
LINE
8
BLACK
6
CONTINUOUS
10
1.05452
20
0.0996528
11
1.05271
21
0.0969386
0
LINE
8
BLACK
6
CONTINUOUS
10
1.05271
20
0.0969386
11
1.04999
21
0.095125
0
LINE
8
BLACK
6
CONTINUOUS
10
1.04999
20
0.095125
11
1.04679
21
0.0944882
0
LINE
8
BLACK
6
CONTINUOUS
10
1.04679
20
0.0944882
11
1.03006
21
0.0944882
0
LINE
8
BLACK
6
CONTINUOUS
10
1.03006
20
0.0944882
11
1.02686
21
0.095125
0
LINE
8
BLACK
6
CONTINUOUS
10
1.02686
20
0.095125
11
1.02414
21
0.0969386
0
LINE
8
BLACK
6
CONTINUOUS
10
1.02414
20
0.0969386
11
1.02233
21
0.0996528
0
LINE
8
BLACK
6
CONTINUOUS
10
1.02233
20
0.0996528
11
1.02169
21
0.102854
0
LINE
8
BLACK
6
CONTINUOUS
10
1.02169
20
0.102854
11
1.02169
21
0.160925
0
LINE
8
BLACK
6
CONTINUOUS
10
1.02169
20
0.160925
11
1.02233
21
0.164127
0
LINE
8
BLACK
6
CONTINUOUS
10
1.02233
20
0.164127
11
1.02414
21
0.166841
0
LINE
8
BLACK
6
CONTINUOUS
10
1.02414
20
0.166841
11
1.02686
21
0.168654
0
LINE
8
BLACK
6
CONTINUOUS
10
1.02686
20
0.168654
11
1.03006
21
0.169291
0
LINE
8
BLACK
6
CONTINUOUS
10
1.03006
20
0.169291
11
1.04679
21
0.169291
0
LINE
8
BLACK
6
CONTINUOUS
10
1.04679
20
0.169291
11
1.04999
21
0.168654
0
LINE
8
BLACK
6
CONTINUOUS
10
0.111924
20
0.167558
11
0.115117
21
0.165424
0
LINE
8
BLACK
6
CONTINUOUS
10
0.115117
20
0.165424
11
0.117251
21
0.162231
0
LINE
8
BLACK
6
CONTINUOUS
10
0.117251
20
0.162231
11
0.118
21
0.158465
0
LINE
8
BLACK
6
CONTINUOUS
10
0.118
20
0.158465
11
0.118
21
0.13878
0
LINE
8
BLACK
6
CONTINUOUS
10
0.118
20
0.13878
11
0.117251
21
0.135013
0
LINE
8
BLACK
6
CONTINUOUS
10
0.117251
20
0.135013
11
0.115117
21
0.13182
0
LINE
8
BLACK
6
CONTINUOUS
10
0.115117
20
0.13182
11
0.111924
21
0.129686
0
LINE
8
BLACK
6
CONTINUOUS
10
0.111924
20
0.129686
11
0.108157
21
0.128937
0
LINE
8
BLACK
6
CONTINUOUS
10
0.108157
20
0.128937
11
0.0215433
21
0.128937
0
LINE
8
BLACK
6
CONTINUOUS
10
0.0215433
20
0.128937
11
0.0177767
21
0.129686
0
LINE
8
BLACK
6
CONTINUOUS
10
0.0177767
20
0.129686
11
0.0145836
21
0.13182
0
LINE
8
BLACK
6
CONTINUOUS
10
0.0145836
20
0.13182
11
0.01245
21
0.135013
0
LINE
8
BLACK
6
CONTINUOUS
10
0.01245
20
0.135013
11
0.0117008
21
0.13878
0
LINE
8
BLACK
6
CONTINUOUS
10
0.0117008
20
0.13878
11
0.0117008
21
0.158465
0
LINE
8
BLACK
6
CONTINUOUS
10
0.0117008
20
0.158465
11
0.01245
21
0.162231
0
LINE
8
BLACK
6
CONTINUOUS
10
0.01245
20
0.162231
11
0.0145836
21
0.165424
0
LINE
8
BLACK
6
CONTINUOUS
10
0.0145836
20
0.165424
11
0.0177767
21
0.167558
0
LINE
8
BLACK
6
CONTINUOUS
10
0.0177767
20
0.167558
11
0.0215433
21
0.168307
0
LINE
8
BLACK
6
CONTINUOUS
10
0.0215433
20
0.168307
11
0.108157
21
0.168307
0
LINE
8
BLACK
6
CONTINUOUS
10
0.108157
20
0.168307
11
0.111924
21
0.167558
0
LINE
8
BLACK
6
CONTINUOUS
10
0.673384
20
0.175565
11
0.676178
21
0.173698
0
LINE
8
BLACK
6
CONTINUOUS
10
0.676178
20
0.173698
11
0.678045
21
0.170904
0
LINE
8
BLACK
6
CONTINUOUS
10
0.678045
20
0.170904
11
0.678701
21
0.167608
0
LINE
8
BLACK
6
CONTINUOUS
10
0.678701
20
0.167608
11
0.678701
21
0.150384
0
LINE
8
BLACK
6
CONTINUOUS
10
0.678701
20
0.150384
11
0.678045
21
0.147088
0
LINE
8
BLACK
6
CONTINUOUS
10
0.678045
20
0.147088
11
0.676178
21
0.144294
0
LINE
8
BLACK
6
CONTINUOUS
10
0.676178
20
0.144294
11
0.673384
21
0.142427
0
LINE
8
BLACK
6
CONTINUOUS
10
0.673384
20
0.142427
11
0.670089
21
0.141772
0
LINE
8
BLACK
6
CONTINUOUS
10
0.670089
20
0.141772
11
0.649911
21
0.141772
0
LINE
8
BLACK
6
CONTINUOUS
10
0.649911
20
0.141772
11
0.646616
21
0.142427
0
LINE
8
BLACK
6
CONTINUOUS
10
0.646616
20
0.142427
11
0.643822
21
0.144294
0
LINE
8
BLACK
6
CONTINUOUS
10
0.643822
20
0.144294
11
0.641955
21
0.147088
0
LINE
8
BLACK
6
CONTINUOUS
10
0.641955
20
0.147088
11
0.641299
21
0.150384
0
LINE
8
BLACK
6
CONTINUOUS
10
0.641299
20
0.150384
11
0.641299
21
0.167608
0
LINE
8
BLACK
6
CONTINUOUS
10
0.641299
20
0.167608
11
0.641955
21
0.170904
0
LINE
8
BLACK
6
CONTINUOUS
10
0.641955
20
0.170904
11
0.643822
21
0.173698
0
LINE
8
BLACK
6
CONTINUOUS
10
0.643822
20
0.173698
11
0.646616
21
0.175565
0
LINE
8
BLACK
6
CONTINUOUS
10
0.646616
20
0.175565
11
0.649911
21
0.17622
0
LINE
8
BLACK
6
CONTINUOUS
10
0.649911
20
0.17622
11
0.670089
21
0.17622
0
LINE
8
BLACK
6
CONTINUOUS
10
0.670089
20
0.17622
11
0.673384
21
0.175565
0
LINE
8
BLACK
6
CONTINUOUS
10
0.478384
20
0.196569
11
0.481178
21
0.194702
0
LINE
8
BLACK
6
CONTINUOUS
10
0.481178
20
0.194702
11
0.483045
21
0.191908
0
LINE
8
BLACK
6
CONTINUOUS
10
0.483045
20
0.191908
11
0.483701
21
0.188612
0
LINE
8
BLACK
6
CONTINUOUS
10
0.483701
20
0.188612
11
0.483701
21
0.171388
0
LINE
8
BLACK
6
CONTINUOUS
10
0.483701
20
0.171388
11
0.483045
21
0.168092
0
LINE
8
BLACK
6
CONTINUOUS
10
0.483045
20
0.168092
11
0.481178
21
0.165298
0
LINE
8
BLACK
6
CONTINUOUS
10
0.481178
20
0.165298
11
0.478384
21
0.163431
0
LINE
8
BLACK
6
CONTINUOUS
10
0.478384
20
0.163431
11
0.475089
21
0.162776
0
LINE
8
BLACK
6
CONTINUOUS
10
0.475089
20
0.162776
11
0.454911
21
0.162776
0
LINE
8
BLACK
6
CONTINUOUS
10
0.454911
20
0.162776
11
0.451616
21
0.163431
0
LINE
8
BLACK
6
CONTINUOUS
10
0.451616
20
0.163431
11
0.448822
21
0.165298
0
LINE
8
BLACK
6
CONTINUOUS
10
0.448822
20
0.165298
11
0.446955
21
0.168092
0
LINE
8
BLACK
6
CONTINUOUS
10
0.446955
20
0.168092
11
0.446299
21
0.171388
0
LINE
8
BLACK
6
CONTINUOUS
10
0.446299
20
0.171388
11
0.446299
21
0.188612
0
LINE
8
BLACK
6
CONTINUOUS
10
0.446299
20
0.188612
11
0.446955
21
0.191908
0
LINE
8
BLACK
6
CONTINUOUS
10
0.446955
20
0.191908
11
0.448822
21
0.194702
0
LINE
8
BLACK
6
CONTINUOUS
10
0.448822
20
0.194702
11
0.451616
21
0.196569
0
LINE
8
BLACK
6
CONTINUOUS
10
0.451616
20
0.196569
11
0.454911
21
0.197224
0
LINE
8
BLACK
6
CONTINUOUS
10
0.454911
20
0.197224
11
0.475089
21
0.197224
0
LINE
8
BLACK
6
CONTINUOUS
10
0.475089
20
0.197224
11
0.478384
21
0.196569
0
LINE
8
BLACK
6
CONTINUOUS
10
0.330394
20
0.175827
11
0.304803
21
0.175827
0
LINE
8
BLACK
6
CONTINUOUS
10
0.304803
20
0.175827
11
0.304803
21
0.217559
0
LINE
8
BLACK
6
CONTINUOUS
10
0.304803
20
0.217559
11
0.330394
21
0.217559
0
LINE
8
BLACK
6
CONTINUOUS
10
0.330394
20
0.217559
11
0.330394
21
0.175827
0
LINE
8
BLACK
6
CONTINUOUS
10
0.367795
20
0.175827
11
0.342205
21
0.175827
0
LINE
8
BLACK
6
CONTINUOUS
10
0.342205
20
0.175827
11
0.342205
21
0.217559
0
LINE
8
BLACK
6
CONTINUOUS
10
0.342205
20
0.217559
11
0.367795
21
0.217559
0
LINE
8
BLACK
6
CONTINUOUS
10
0.367795
20
0.217559
11
0.367795
21
0.175827
0
LINE
8
BLACK
6
CONTINUOUS
10
0.405197
20
0.175827
11
0.379606
21
0.175827
0
LINE
8
BLACK
6
CONTINUOUS
10
0.379606
20
0.175827
11
0.379606
21
0.217559
0
LINE
8
BLACK
6
CONTINUOUS
10
0.379606
20
0.217559
11
0.405197
21
0.217559
0
LINE
8
BLACK
6
CONTINUOUS
10
0.405197
20
0.217559
11
0.405197
21
0.175827
0
LINE
8
BLACK
6
CONTINUOUS
10
0.808851
20
0.212946
11
0.811565
21
0.211132
0
LINE
8
BLACK
6
CONTINUOUS
10
0.811565
20
0.211132
11
0.813379
21
0.208418
0
LINE
8
BLACK
6
CONTINUOUS
10
0.813379
20
0.208418
11
0.814016
21
0.205217
0
LINE
8
BLACK
6
CONTINUOUS
10
0.814016
20
0.205217
11
0.814016
21
0.188484
0
LINE
8
BLACK
6
CONTINUOUS
10
0.814016
20
0.188484
11
0.813379
21
0.185283
0
LINE
8
BLACK
6
CONTINUOUS
10
0.813379
20
0.185283
11
0.811565
21
0.182569
0
LINE
8
BLACK
6
CONTINUOUS
10
0.811565
20
0.182569
11
0.808851
21
0.180755
0
LINE
8
BLACK
6
CONTINUOUS
10
0.808851
20
0.180755
11
0.80565
21
0.180118
0
LINE
8
BLACK
6
CONTINUOUS
10
0.80565
20
0.180118
11
0.747579
21
0.180118
0
LINE
8
BLACK
6
CONTINUOUS
10
0.747579
20
0.180118
11
0.744377
21
0.180755
0
LINE
8
BLACK
6
CONTINUOUS
10
0.744377
20
0.180755
11
0.741663
21
0.182569
0
LINE
8
BLACK
6
CONTINUOUS
10
0.741663
20
0.182569
11
0.739849
21
0.185283
0
LINE
8
BLACK
6
CONTINUOUS
10
0.739849
20
0.185283
11
0.739213
21
0.188484
0
LINE
8
BLACK
6
CONTINUOUS
10
0.739213
20
0.188484
11
0.739213
21
0.205217
0
LINE
8
BLACK
6
CONTINUOUS
10
0.739213
20
0.205217
11
0.739849
21
0.208418
0
LINE
8
BLACK
6
CONTINUOUS
10
0.739849
20
0.208418
11
0.741663
21
0.211132
0
LINE
8
BLACK
6
CONTINUOUS
10
0.741663
20
0.211132
11
0.744377
21
0.212946
0
LINE
8
BLACK
6
CONTINUOUS
10
0.744377
20
0.212946
11
0.747579
21
0.213583
0
LINE
8
BLACK
6
CONTINUOUS
10
0.747579
20
0.213583
11
0.80565
21
0.213583
0
LINE
8
BLACK
6
CONTINUOUS
10
0.80565
20
0.213583
11
0.808851
21
0.212946
0
LINE
8
BLACK
6
CONTINUOUS
10
1.13562
20
0.212946
11
1.13834
21
0.211132
0
LINE
8
BLACK
6
CONTINUOUS
10
1.13834
20
0.211132
11
1.14015
21
0.208418
0
LINE
8
BLACK
6
CONTINUOUS
10
1.14015
20
0.208418
11
1.14079
21
0.205217
0
LINE
8
BLACK
6
CONTINUOUS
10
1.14079
20
0.205217
11
1.14079
21
0.188484
0
LINE
8
BLACK
6
CONTINUOUS
10
1.14079
20
0.188484
11
1.14015
21
0.185283
0
LINE
8
BLACK
6
CONTINUOUS
10
1.14015
20
0.185283
11
1.13834
21
0.182569
0
LINE
8
BLACK
6
CONTINUOUS
10
1.13834
20
0.182569
11
1.13562
21
0.180755
0
LINE
8
BLACK
6
CONTINUOUS
10
1.13562
20
0.180755
11
1.13242
21
0.180118
0
LINE
8
BLACK
6
CONTINUOUS
10
1.13242
20
0.180118
11
1.07435
21
0.180118
0
LINE
8
BLACK
6
CONTINUOUS
10
1.07435
20
0.180118
11
1.07115
21
0.180755
0
LINE
8
BLACK
6
CONTINUOUS
10
1.07115
20
0.180755
11
1.06843
21
0.182569
0
LINE
8
BLACK
6
CONTINUOUS
10
1.06843
20
0.182569
11
1.06662
21
0.185283
0
LINE
8
BLACK
6
CONTINUOUS
10
1.06662
20
0.185283
11
1.06598
21
0.188484
0
LINE
8
BLACK
6
CONTINUOUS
10
1.06598
20
0.188484
11
1.06598
21
0.205217
0
LINE
8
BLACK
6
CONTINUOUS
10
1.06598
20
0.205217
11
1.06662
21
0.208418
0
LINE
8
BLACK
6
CONTINUOUS
10
1.06662
20
0.208418
11
1.06843
21
0.211132
0
LINE
8
BLACK
6
CONTINUOUS
10
1.06843
20
0.211132
11
1.07115
21
0.212946
0
LINE
8
BLACK
6
CONTINUOUS
10
1.07115
20
0.212946
11
1.07435
21
0.213583
0
LINE
8
BLACK
6
CONTINUOUS
10
1.07435
20
0.213583
11
1.13242
21
0.213583
0
LINE
8
BLACK
6
CONTINUOUS
10
1.13242
20
0.213583
11
1.13562
21
0.212946
0
LINE
8
BLACK
6
CONTINUOUS
10
0.673384
20
0.237573
11
0.676178
21
0.235706
0
LINE
8
BLACK
6
CONTINUOUS
10
0.676178
20
0.235706
11
0.678045
21
0.232912
0
LINE
8
BLACK
6
CONTINUOUS
10
0.678045
20
0.232912
11
0.678701
21
0.229616
0
LINE
8
BLACK
6
CONTINUOUS
10
0.678701
20
0.229616
11
0.678701
21
0.212392
0
LINE
8
BLACK
6
CONTINUOUS
10
0.678701
20
0.212392
11
0.678045
21
0.209096
0
LINE
8
BLACK
6
CONTINUOUS
10
0.678045
20
0.209096
11
0.676178
21
0.206302
0
LINE
8
BLACK
6
CONTINUOUS
10
0.676178
20
0.206302
11
0.673384
21
0.204435
0
LINE
8
BLACK
6
CONTINUOUS
10
0.673384
20
0.204435
11
0.670089
21
0.20378
0
LINE
8
BLACK
6
CONTINUOUS
10
0.670089
20
0.20378
11
0.649911
21
0.20378
0
LINE
8
BLACK
6
CONTINUOUS
10
0.649911
20
0.20378
11
0.646616
21
0.204435
0
LINE
8
BLACK
6
CONTINUOUS
10
0.646616
20
0.204435
11
0.643822
21
0.206302
0
LINE
8
BLACK
6
CONTINUOUS
10
0.643822
20
0.206302
11
0.641955
21
0.209096
0
LINE
8
BLACK
6
CONTINUOUS
10
0.641955
20
0.209096
11
0.641299
21
0.212392
0
LINE
8
BLACK
6
CONTINUOUS
10
0.641299
20
0.212392
11
0.641299
21
0.229616
0
LINE
8
BLACK
6
CONTINUOUS
10
0.641299
20
0.229616
11
0.641955
21
0.232912
0
LINE
8
BLACK
6
CONTINUOUS
10
0.641955
20
0.232912
11
0.643822
21
0.235706
0
LINE
8
BLACK
6
CONTINUOUS
10
0.643822
20
0.235706
11
0.646616
21
0.237573
0
LINE
8
BLACK
6
CONTINUOUS
10
0.646616
20
0.237573
11
0.649911
21
0.238228
0
LINE
8
BLACK
6
CONTINUOUS
10
0.649911
20
0.238228
11
0.670089
21
0.238228
0
LINE
8
BLACK
6
CONTINUOUS
10
0.670089
20
0.238228
11
0.673384
21
0.237573
0
LINE
8
BLACK
6
CONTINUOUS
10
0.220654
20
0.232818
11
0.22257
21
0.231538
0
LINE
8
BLACK
6
CONTINUOUS
10
0.22257
20
0.231538
11
0.22385
21
0.229622
0
LINE
8
BLACK
6
CONTINUOUS
10
0.22385
20
0.229622
11
0.224299
21
0.227362
0
LINE
8
BLACK
6
CONTINUOUS
10
0.224299
20
0.227362
11
0.224299
21
0.215551
0
LINE
8
BLACK
6
CONTINUOUS
10
0.224299
20
0.215551
11
0.22385
21
0.213291
0
LINE
8
BLACK
6
CONTINUOUS
10
0.22385
20
0.213291
11
0.22257
21
0.211375
0
LINE
8
BLACK
6
CONTINUOUS
10
0.22257
20
0.211375
11
0.220654
21
0.210095
0
LINE
8
BLACK
6
CONTINUOUS
10
0.220654
20
0.210095
11
0.218394
21
0.209646
0
LINE
8
BLACK
6
CONTINUOUS
10
0.218394
20
0.209646
11
0.163276
21
0.209646
0
LINE
8
BLACK
6
CONTINUOUS
10
0.163276
20
0.209646
11
0.161016
21
0.210095
0
LINE
8
BLACK
6
CONTINUOUS
10
0.161016
20
0.210095
11
0.1591
21
0.211375
0
LINE
8
BLACK
6
CONTINUOUS
10
0.1591
20
0.211375
11
0.15782
21
0.213291
0
LINE
8
BLACK
6
CONTINUOUS
10
0.15782
20
0.213291
11
0.15737
21
0.215551
0
LINE
8
BLACK
6
CONTINUOUS
10
0.15737
20
0.215551
11
0.15737
21
0.227362
0
LINE
8
BLACK
6
CONTINUOUS
10
0.15737
20
0.227362
11
0.15782
21
0.229622
0
LINE
8
BLACK
6
CONTINUOUS
10
0.15782
20
0.229622
11
0.1591
21
0.231538
0
LINE
8
BLACK
6
CONTINUOUS
10
0.1591
20
0.231538
11
0.161016
21
0.232818
0
LINE
8
BLACK
6
CONTINUOUS
10
0.161016
20
0.232818
11
0.163276
21
0.233268
0
LINE
8
BLACK
6
CONTINUOUS
10
0.163276
20
0.233268
11
0.218394
21
0.233268
0
LINE
8
BLACK
6
CONTINUOUS
10
0.218394
20
0.233268
11
0.220654
21
0.232818
0
LINE
8
BLACK
6
CONTINUOUS
10
0.924672
20
0.285274
11
0.927865
21
0.283141
0
LINE
8
BLACK
6
CONTINUOUS
10
0.927865
20
0.283141
11
0.929999
21
0.279948
0
LINE
8
BLACK
6
CONTINUOUS
10
0.929999
20
0.279948
11
0.930748
21
0.276181
0
LINE
8
BLACK
6
CONTINUOUS
10
0.930748
20
0.276181
11
0.930748
21
0.219882
0
LINE
8
BLACK
6
CONTINUOUS
10
0.930748
20
0.219882
11
0.929999
21
0.216115
0
LINE
8
BLACK
6
CONTINUOUS
10
0.929999
20
0.216115
11
0.927865
21
0.212922
0
LINE
8
BLACK
6
CONTINUOUS
10
0.927865
20
0.212922
11
0.924672
21
0.210789
0
LINE
8
BLACK
6
CONTINUOUS
10
0.924672
20
0.210789
11
0.920905
21
0.210039
0
LINE
8
BLACK
6
CONTINUOUS
10
0.920905
20
0.210039
11
0.864606
21
0.210039
0
LINE
8
BLACK
6
CONTINUOUS
10
0.864606
20
0.210039
11
0.86084
21
0.210789
0
LINE
8
BLACK
6
CONTINUOUS
10
0.86084
20
0.210789
11
0.857647
21
0.212922
0
LINE
8
BLACK
6
CONTINUOUS
10
0.857647
20
0.212922
11
0.855513
21
0.216115
0
LINE
8
BLACK
6
CONTINUOUS
10
0.855513
20
0.216115
11
0.854764
21
0.219882
0
LINE
8
BLACK
6
CONTINUOUS
10
0.854764
20
0.219882
11
0.854764
21
0.276181
0
LINE
8
BLACK
6
CONTINUOUS
10
0.854764
20
0.276181
11
0.855513
21
0.279948
0
LINE
8
BLACK
6
CONTINUOUS
10
0.855513
20
0.279948
11
0.857647
21
0.283141
0
LINE
8
BLACK
6
CONTINUOUS
10
0.857647
20
0.283141
11
0.86084
21
0.285274
0
LINE
8
BLACK
6
CONTINUOUS
10
0.86084
20
0.285274
11
0.864606
21
0.286024
0
LINE
8
BLACK
6
CONTINUOUS
10
0.864606
20
0.286024
11
0.920905
21
0.286024
0
LINE
8
BLACK
6
CONTINUOUS
10
0.920905
20
0.286024
11
0.924672
21
0.285274
0
LINE
8
BLACK
6
CONTINUOUS
10
1.01916
20
0.285274
11
1.02235
21
0.283141
0
LINE
8
BLACK
6
CONTINUOUS
10
1.02235
20
0.283141
11
1.02449
21
0.279948
0
LINE
8
BLACK
6
CONTINUOUS
10
1.02449
20
0.279948
11
1.02524
21
0.276181
0
LINE
8
BLACK
6
CONTINUOUS
10
1.02524
20
0.276181
11
1.02524
21
0.219882
0
LINE
8
BLACK
6
CONTINUOUS
10
1.02524
20
0.219882
11
1.02449
21
0.216115
0
LINE
8
BLACK
6
CONTINUOUS
10
1.02449
20
0.216115
11
1.02235
21
0.212922
0
LINE
8
BLACK
6
CONTINUOUS
10
1.02235
20
0.212922
11
1.01916
21
0.210789
0
LINE
8
BLACK
6
CONTINUOUS
10
1.01916
20
0.210789
11
1.01539
21
0.210039
0
LINE
8
BLACK
6
CONTINUOUS
10
1.01539
20
0.210039
11
0.959095
21
0.210039
0
LINE
8
BLACK
6
CONTINUOUS
10
0.959095
20
0.210039
11
0.955328
21
0.210789
0
LINE
8
BLACK
6
CONTINUOUS
10
0.955328
20
0.210789
11
0.952135
21
0.212922
0
LINE
8
BLACK
6
CONTINUOUS
10
0.952135
20
0.212922
11
0.950001
21
0.216115
0
LINE
8
BLACK
6
CONTINUOUS
10
0.950001
20
0.216115
11
0.949252
21
0.219882
0
LINE
8
BLACK
6
CONTINUOUS
10
0.949252
20
0.219882
11
0.949252
21
0.276181
0
LINE
8
BLACK
6
CONTINUOUS
10
0.949252
20
0.276181
11
0.950001
21
0.279948
0
LINE
8
BLACK
6
CONTINUOUS
10
0.950001
20
0.279948
11
0.952135
21
0.283141
0
LINE
8
BLACK
6
CONTINUOUS
10
0.952135
20
0.283141
11
0.955328
21
0.285274
0
LINE
8
BLACK
6
CONTINUOUS
10
0.955328
20
0.285274
11
0.959095
21
0.286024
0
LINE
8
BLACK
6
CONTINUOUS
10
0.959095
20
0.286024
11
1.01539
21
0.286024
0
LINE
8
BLACK
6
CONTINUOUS
10
1.01539
20
0.286024
11
1.01916
21
0.285274
0
LINE
8
BLACK
6
CONTINUOUS
10
0.478384
20
0.258577
11
0.481178
21
0.25671
0
LINE
8
BLACK
6
CONTINUOUS
10
0.481178
20
0.25671
11
0.483045
21
0.253916
0
LINE
8
BLACK
6
CONTINUOUS
10
0.483045
20
0.253916
11
0.483701
21
0.25062
0
LINE
8
BLACK
6
CONTINUOUS
10
0.483701
20
0.25062
11
0.483701
21
0.233396
0
LINE
8
BLACK
6
CONTINUOUS
10
0.483701
20
0.233396
11
0.483045
21
0.2301
0
LINE
8
BLACK
6
CONTINUOUS
10
0.483045
20
0.2301
11
0.481178
21
0.227306
0
LINE
8
BLACK
6
CONTINUOUS
10
0.481178
20
0.227306
11
0.478384
21
0.225439
0
LINE
8
BLACK
6
CONTINUOUS
10
0.478384
20
0.225439
11
0.475089
21
0.224783
0
LINE
8
BLACK
6
CONTINUOUS
10
0.475089
20
0.224783
11
0.454911
21
0.224783
0
LINE
8
BLACK
6
CONTINUOUS
10
0.454911
20
0.224783
11
0.451616
21
0.225439
0
LINE
8
BLACK
6
CONTINUOUS
10
0.451616
20
0.225439
11
0.448822
21
0.227306
0
LINE
8
BLACK
6
CONTINUOUS
10
0.448822
20
0.227306
11
0.446955
21
0.2301
0
LINE
8
BLACK
6
CONTINUOUS
10
0.446955
20
0.2301
11
0.446299
21
0.233396
0
LINE
8
BLACK
6
CONTINUOUS
10
0.446299
20
0.233396
11
0.446299
21
0.25062
0
LINE
8
BLACK
6
CONTINUOUS
10
0.446299
20
0.25062
11
0.446955
21
0.253916
0
LINE
8
BLACK
6
CONTINUOUS
10
0.446955
20
0.253916
11
0.448822
21
0.25671
0
LINE
8
BLACK
6
CONTINUOUS
10
0.448822
20
0.25671
11
0.451616
21
0.258577
0
LINE
8
BLACK
6
CONTINUOUS
10
0.451616
20
0.258577
11
0.454911
21
0.259232
0
LINE
8
BLACK
6
CONTINUOUS
10
0.454911
20
0.259232
11
0.475089
21
0.259232
0
LINE
8
BLACK
6
CONTINUOUS
10
0.475089
20
0.259232
11
0.478384
21
0.258577
0
LINE
8
BLACK
6
CONTINUOUS
10
0.808851
20
0.262158
11
0.811565
21
0.260345
0
LINE
8
BLACK
6
CONTINUOUS
10
0.811565
20
0.260345
11
0.813379
21
0.257631
0
LINE
8
BLACK
6
CONTINUOUS
10
0.813379
20
0.257631
11
0.814016
21
0.254429
0
LINE
8
BLACK
6
CONTINUOUS
10
0.814016
20
0.254429
11
0.814016
21
0.237697
0
LINE
8
BLACK
6
CONTINUOUS
10
0.814016
20
0.237697
11
0.813379
21
0.234495
0
LINE
8
BLACK
6
CONTINUOUS
10
0.813379
20
0.234495
11
0.811565
21
0.231781
0
LINE
8
BLACK
6
CONTINUOUS
10
0.811565
20
0.231781
11
0.808851
21
0.229968
0
LINE
8
BLACK
6
CONTINUOUS
10
0.808851
20
0.229968
11
0.80565
21
0.229331
0
LINE
8
BLACK
6
CONTINUOUS
10
0.80565
20
0.229331
11
0.747579
21
0.229331
0
LINE
8
BLACK
6
CONTINUOUS
10
0.747579
20
0.229331
11
0.744377
21
0.229968
0
LINE
8
BLACK
6
CONTINUOUS
10
0.744377
20
0.229968
11
0.741663
21
0.231781
0
LINE
8
BLACK
6
CONTINUOUS
10
0.741663
20
0.231781
11
0.739849
21
0.234495
0
LINE
8
BLACK
6
CONTINUOUS
10
0.739849
20
0.234495
11
0.739213
21
0.237697
0
LINE
8
BLACK
6
CONTINUOUS
10
0.739213
20
0.237697
11
0.739213
21
0.254429
0
LINE
8
BLACK
6
CONTINUOUS
10
0.739213
20
0.254429
11
0.739849
21
0.257631
0
LINE
8
BLACK
6
CONTINUOUS
10
0.739849
20
0.257631
11
0.741663
21
0.260345
0
LINE
8
BLACK
6
CONTINUOUS
10
0.741663
20
0.260345
11
0.744377
21
0.262158
0
LINE
8
BLACK
6
CONTINUOUS
10
0.744377
20
0.262158
11
0.747579
21
0.262795
0
LINE
8
BLACK
6
CONTINUOUS
10
0.747579
20
0.262795
11
0.80565
21
0.262795
0
LINE
8
BLACK
6
CONTINUOUS
10
0.80565
20
0.262795
11
0.808851
21
0.262158
0
LINE
8
BLACK
6
CONTINUOUS
10
1.13562
20
0.262158
11
1.13834
21
0.260345
0
LINE
8
BLACK
6
CONTINUOUS
10
1.13834
20
0.260345
11
1.14015
21
0.257631
0
LINE
8
BLACK
6
CONTINUOUS
10
1.14015
20
0.257631
11
1.14079
21
0.254429
0
LINE
8
BLACK
6
CONTINUOUS
10
1.14079
20
0.254429
11
1.14079
21
0.237697
0
LINE
8
BLACK
6
CONTINUOUS
10
1.14079
20
0.237697
11
1.14015
21
0.234495
0
LINE
8
BLACK
6
CONTINUOUS
10
1.14015
20
0.234495
11
1.13834
21
0.231781
0
LINE
8
BLACK
6
CONTINUOUS
10
1.13834
20
0.231781
11
1.13562
21
0.229968
0
LINE
8
BLACK
6
CONTINUOUS
10
1.13562
20
0.229968
11
1.13242
21
0.229331
0
LINE
8
BLACK
6
CONTINUOUS
10
1.13242
20
0.229331
11
1.07435
21
0.229331
0
LINE
8
BLACK
6
CONTINUOUS
10
1.07435
20
0.229331
11
1.07115
21
0.229968
0
LINE
8
BLACK
6
CONTINUOUS
10
1.07115
20
0.229968
11
1.06843
21
0.231781
0
LINE
8
BLACK
6
CONTINUOUS
10
1.06843
20
0.231781
11
1.06662
21
0.234495
0
LINE
8
BLACK
6
CONTINUOUS
10
1.06662
20
0.234495
11
1.06598
21
0.237697
0
LINE
8
BLACK
6
CONTINUOUS
10
1.06598
20
0.237697
11
1.06598
21
0.254429
0
LINE
8
BLACK
6
CONTINUOUS
10
1.06598
20
0.254429
11
1.06662
21
0.257631
0
LINE
8
BLACK
6
CONTINUOUS
10
1.06662
20
0.257631
11
1.06843
21
0.260345
0
LINE
8
BLACK
6
CONTINUOUS
10
1.06843
20
0.260345
11
1.07115
21
0.262158
0
LINE
8
BLACK
6
CONTINUOUS
10
1.07115
20
0.262158
11
1.07435
21
0.262795
0
LINE
8
BLACK
6
CONTINUOUS
10
1.07435
20
0.262795
11
1.13242
21
0.262795
0
LINE
8
BLACK
6
CONTINUOUS
10
1.13242
20
0.262795
11
1.13562
21
0.262158
0
LINE
8
BLACK
6
CONTINUOUS
10
0.220654
20
0.282031
11
0.22257
21
0.280751
0
LINE
8
BLACK
6
CONTINUOUS
10
0.22257
20
0.280751
11
0.22385
21
0.278835
0
LINE
8
BLACK
6
CONTINUOUS
10
0.22385
20
0.278835
11
0.224299
21
0.276575
0
LINE
8
BLACK
6
CONTINUOUS
10
0.224299
20
0.276575
11
0.224299
21
0.264764
0
LINE
8
BLACK
6
CONTINUOUS
10
0.224299
20
0.264764
11
0.22385
21
0.262504
0
LINE
8
BLACK
6
CONTINUOUS
10
0.22385
20
0.262504
11
0.22257
21
0.260588
0
LINE
8
BLACK
6
CONTINUOUS
10
0.22257
20
0.260588
11
0.220654
21
0.259308
0
LINE
8
BLACK
6
CONTINUOUS
10
0.220654
20
0.259308
11
0.218394
21
0.258858
0
LINE
8
BLACK
6
CONTINUOUS
10
0.218394
20
0.258858
11
0.163276
21
0.258858
0
LINE
8
BLACK
6
CONTINUOUS
10
0.163276
20
0.258858
11
0.161016
21
0.259308
0
LINE
8
BLACK
6
CONTINUOUS
10
0.161016
20
0.259308
11
0.1591
21
0.260588
0
LINE
8
BLACK
6
CONTINUOUS
10
0.1591
20
0.260588
11
0.15782
21
0.262504
0
LINE
8
BLACK
6
CONTINUOUS
10
0.15782
20
0.262504
11
0.15737
21
0.264764
0
LINE
8
BLACK
6
CONTINUOUS
10
0.15737
20
0.264764
11
0.15737
21
0.276575
0
LINE
8
BLACK
6
CONTINUOUS
10
0.15737
20
0.276575
11
0.15782
21
0.278835
0
LINE
8
BLACK
6
CONTINUOUS
10
0.15782
20
0.278835
11
0.1591
21
0.280751
0
LINE
8
BLACK
6
CONTINUOUS
10
0.1591
20
0.280751
11
0.161016
21
0.282031
0
LINE
8
BLACK
6
CONTINUOUS
10
0.161016
20
0.282031
11
0.163276
21
0.28248
0
LINE
8
BLACK
6
CONTINUOUS
10
0.163276
20
0.28248
11
0.218394
21
0.28248
0
LINE
8
BLACK
6
CONTINUOUS
10
0.218394
20
0.28248
11
0.220654
21
0.282031
0
LINE
8
BLACK
6
CONTINUOUS
10
0.330394
20
0.262441
11
0.304803
21
0.262441
0
LINE
8
BLACK
6
CONTINUOUS
10
0.304803
20
0.262441
11
0.304803
21
0.304173
0
LINE
8
BLACK
6
CONTINUOUS
10
0.304803
20
0.304173
11
0.330394
21
0.304173
0
LINE
8
BLACK
6
CONTINUOUS
10
0.330394
20
0.304173
11
0.330394
21
0.262441
0
LINE
8
BLACK
6
CONTINUOUS
10
0.405197
20
0.262441
11
0.379606
21
0.262441
0
LINE
8
BLACK
6
CONTINUOUS
10
0.379606
20
0.262441
11
0.379606
21
0.304173
0
LINE
8
BLACK
6
CONTINUOUS
10
0.379606
20
0.304173
11
0.405197
21
0.304173
0
LINE
8
BLACK
6
CONTINUOUS
10
0.405197
20
0.304173
11
0.405197
21
0.262441
0
LINE
8
BLACK
6
CONTINUOUS
10
0.808851
20
0.311371
11
0.811565
21
0.309557
0
LINE
8
BLACK
6
CONTINUOUS
10
0.811565
20
0.309557
11
0.813379
21
0.306843
0
LINE
8
BLACK
6
CONTINUOUS
10
0.813379
20
0.306843
11
0.814016
21
0.303642
0
LINE
8
BLACK
6
CONTINUOUS
10
0.814016
20
0.303642
11
0.814016
21
0.286909
0
LINE
8
BLACK
6
CONTINUOUS
10
0.814016
20
0.286909
11
0.813379
21
0.283708
0
LINE
8
BLACK
6
CONTINUOUS
10
0.813379
20
0.283708
11
0.811565
21
0.280994
0
LINE
8
BLACK
6
CONTINUOUS
10
0.811565
20
0.280994
11
0.808851
21
0.27918
0
LINE
8
BLACK
6
CONTINUOUS
10
0.808851
20
0.27918
11
0.80565
21
0.278543
0
LINE
8
BLACK
6
CONTINUOUS
10
0.80565
20
0.278543
11
0.747579
21
0.278543
0
LINE
8
BLACK
6
CONTINUOUS
10
0.747579
20
0.278543
11
0.744377
21
0.27918
0
LINE
8
BLACK
6
CONTINUOUS
10
0.744377
20
0.27918
11
0.741663
21
0.280994
0
LINE
8
BLACK
6
CONTINUOUS
10
0.741663
20
0.280994
11
0.739849
21
0.283708
0
LINE
8
BLACK
6
CONTINUOUS
10
0.739849
20
0.283708
11
0.739213
21
0.286909
0
LINE
8
BLACK
6
CONTINUOUS
10
0.739213
20
0.286909
11
0.739213
21
0.303642
0
LINE
8
BLACK
6
CONTINUOUS
10
0.739213
20
0.303642
11
0.739849
21
0.306843
0
LINE
8
BLACK
6
CONTINUOUS
10
0.739849
20
0.306843
11
0.741663
21
0.309557
0
LINE
8
BLACK
6
CONTINUOUS
10
0.741663
20
0.309557
11
0.744377
21
0.311371
0
LINE
8
BLACK
6
CONTINUOUS
10
0.744377
20
0.311371
11
0.747579
21
0.312008
0
LINE
8
BLACK
6
CONTINUOUS
10
0.747579
20
0.312008
11
0.80565
21
0.312008
0
LINE
8
BLACK
6
CONTINUOUS
10
0.80565
20
0.312008
11
0.808851
21
0.311371
0
LINE
8
BLACK
6
CONTINUOUS
10
1.13562
20
0.311371
11
1.13834
21
0.309557
0
LINE
8
BLACK
6
CONTINUOUS
10
1.13834
20
0.309557
11
1.14015
21
0.306843
0
LINE
8
BLACK
6
CONTINUOUS
10
1.14015
20
0.306843
11
1.14079
21
0.303642
0
LINE
8
BLACK
6
CONTINUOUS
10
1.14079
20
0.303642
11
1.14079
21
0.286909
0
LINE
8
BLACK
6
CONTINUOUS
10
1.14079
20
0.286909
11
1.14015
21
0.283708
0
LINE
8
BLACK
6
CONTINUOUS
10
1.14015
20
0.283708
11
1.13834
21
0.280994
0
LINE
8
BLACK
6
CONTINUOUS
10
1.13834
20
0.280994
11
1.13562
21
0.27918
0
LINE
8
BLACK
6
CONTINUOUS
10
1.13562
20
0.27918
11
1.13242
21
0.278543
0
LINE
8
BLACK
6
CONTINUOUS
10
1.13242
20
0.278543
11
1.07435
21
0.278543
0
LINE
8
BLACK
6
CONTINUOUS
10
1.07435
20
0.278543
11
1.07115
21
0.27918
0
LINE
8
BLACK
6
CONTINUOUS
10
1.07115
20
0.27918
11
1.06843
21
0.280994
0
LINE
8
BLACK
6
CONTINUOUS
10
1.06843
20
0.280994
11
1.06662
21
0.283708
0
LINE
8
BLACK
6
CONTINUOUS
10
1.06662
20
0.283708
11
1.06598
21
0.286909
0
LINE
8
BLACK
6
CONTINUOUS
10
1.06598
20
0.286909
11
1.06598
21
0.303642
0
LINE
8
BLACK
6
CONTINUOUS
10
1.06598
20
0.303642
11
1.06662
21
0.306843
0
LINE
8
BLACK
6
CONTINUOUS
10
1.06662
20
0.306843
11
1.06843
21
0.309557
0
LINE
8
BLACK
6
CONTINUOUS
10
1.06843
20
0.309557
11
1.07115
21
0.311371
0
LINE
8
BLACK
6
CONTINUOUS
10
1.07115
20
0.311371
11
1.07435
21
0.312008
0
LINE
8
BLACK
6
CONTINUOUS
10
1.07435
20
0.312008
11
1.13242
21
0.312008
0
LINE
8
BLACK
6
CONTINUOUS
10
1.13242
20
0.312008
11
1.13562
21
0.311371
0
LINE
8
BLACK
6
CONTINUOUS
10
0.924672
20
0.379763
11
0.927865
21
0.377629
0
LINE
8
BLACK
6
CONTINUOUS
10
0.927865
20
0.377629
11
0.929999
21
0.374436
0
LINE
8
BLACK
6
CONTINUOUS
10
0.929999
20
0.374436
11
0.930748
21
0.370669
0
LINE
8
BLACK
6
CONTINUOUS
10
0.930748
20
0.370669
11
0.930748
21
0.31437
0
LINE
8
BLACK
6
CONTINUOUS
10
0.930748
20
0.31437
11
0.929999
21
0.310604
0
LINE
8
BLACK
6
CONTINUOUS
10
0.929999
20
0.310604
11
0.927865
21
0.30741
0
LINE
8
BLACK
6
CONTINUOUS
10
0.927865
20
0.30741
11
0.924672
21
0.305277
0
LINE
8
BLACK
6
CONTINUOUS
10
0.924672
20
0.305277
11
0.920905
21
0.304528
0
LINE
8
BLACK
6
CONTINUOUS
10
0.920905
20
0.304528
11
0.864606
21
0.304528
0
LINE
8
BLACK
6
CONTINUOUS
10
0.864606
20
0.304528
11
0.86084
21
0.305277
0
LINE
8
BLACK
6
CONTINUOUS
10
0.86084
20
0.305277
11
0.857647
21
0.30741
0
LINE
8
BLACK
6
CONTINUOUS
10
0.857647
20
0.30741
11
0.855513
21
0.310604
0
LINE
8
BLACK
6
CONTINUOUS
10
0.855513
20
0.310604
11
0.854764
21
0.31437
0
LINE
8
BLACK
6
CONTINUOUS
10
0.854764
20
0.31437
11
0.854764
21
0.370669
0
LINE
8
BLACK
6
CONTINUOUS
10
0.854764
20
0.370669
11
0.855513
21
0.374436
0
LINE
8
BLACK
6
CONTINUOUS
10
0.855513
20
0.374436
11
0.857647
21
0.377629
0
LINE
8
BLACK
6
CONTINUOUS
10
0.857647
20
0.377629
11
0.86084
21
0.379763
0
LINE
8
BLACK
6
CONTINUOUS
10
0.86084
20
0.379763
11
0.864606
21
0.380512
0
LINE
8
BLACK
6
CONTINUOUS
10
0.864606
20
0.380512
11
0.920905
21
0.380512
0
LINE
8
BLACK
6
CONTINUOUS
10
0.920905
20
0.380512
11
0.924672
21
0.379763
0
LINE
8
BLACK
6
CONTINUOUS
10
1.01916
20
0.379763
11
1.02235
21
0.377629
0
LINE
8
BLACK
6
CONTINUOUS
10
1.02235
20
0.377629
11
1.02449
21
0.374436
0
LINE
8
BLACK
6
CONTINUOUS
10
1.02449
20
0.374436
11
1.02524
21
0.370669
0
LINE
8
BLACK
6
CONTINUOUS
10
1.02524
20
0.370669
11
1.02524
21
0.31437
0
LINE
8
BLACK
6
CONTINUOUS
10
1.02524
20
0.31437
11
1.02449
21
0.310604
0
LINE
8
BLACK
6
CONTINUOUS
10
1.02449
20
0.310604
11
1.02235
21
0.30741
0
LINE
8
BLACK
6
CONTINUOUS
10
1.02235
20
0.30741
11
1.01916
21
0.305277
0
LINE
8
BLACK
6
CONTINUOUS
10
1.01916
20
0.305277
11
1.01539
21
0.304528
0
LINE
8
BLACK
6
CONTINUOUS
10
1.01539
20
0.304528
11
0.959095
21
0.304528
0
LINE
8
BLACK
6
CONTINUOUS
10
0.959095
20
0.304528
11
0.955328
21
0.305277
0
LINE
8
BLACK
6
CONTINUOUS
10
0.955328
20
0.305277
11
0.952135
21
0.30741
0
LINE
8
BLACK
6
CONTINUOUS
10
0.952135
20
0.30741
11
0.950001
21
0.310604
0
LINE
8
BLACK
6
CONTINUOUS
10
0.950001
20
0.310604
11
0.949252
21
0.31437
0
LINE
8
BLACK
6
CONTINUOUS
10
0.949252
20
0.31437
11
0.949252
21
0.370669
0
LINE
8
BLACK
6
CONTINUOUS
10
0.949252
20
0.370669
11
0.950001
21
0.374436
0
LINE
8
BLACK
6
CONTINUOUS
10
0.950001
20
0.374436
11
0.952135
21
0.377629
0
LINE
8
BLACK
6
CONTINUOUS
10
0.952135
20
0.377629
11
0.955328
21
0.379763
0
LINE
8
BLACK
6
CONTINUOUS
10
0.955328
20
0.379763
11
0.959095
21
0.380512
0
LINE
8
BLACK
6
CONTINUOUS
10
0.959095
20
0.380512
11
1.01539
21
0.380512
0
LINE
8
BLACK
6
CONTINUOUS
10
1.01539
20
0.380512
11
1.01916
21
0.379763
0
LINE
8
BLACK
6
CONTINUOUS
10
0.220654
20
0.331243
11
0.22257
21
0.329963
0
LINE
8
BLACK
6
CONTINUOUS
10
0.22257
20
0.329963
11
0.22385
21
0.328047
0
LINE
8
BLACK
6
CONTINUOUS
10
0.22385
20
0.328047
11
0.224299
21
0.325787
0
LINE
8
BLACK
6
CONTINUOUS
10
0.224299
20
0.325787
11
0.224299
21
0.313976
0
LINE
8
BLACK
6
CONTINUOUS
10
0.224299
20
0.313976
11
0.22385
21
0.311716
0
LINE
8
BLACK
6
CONTINUOUS
10
0.22385
20
0.311716
11
0.22257
21
0.309801
0
LINE
8
BLACK
6
CONTINUOUS
10
0.22257
20
0.309801
11
0.220654
21
0.30852
0
LINE
8
BLACK
6
CONTINUOUS
10
0.220654
20
0.30852
11
0.218394
21
0.308071
0
LINE
8
BLACK
6
CONTINUOUS
10
0.218394
20
0.308071
11
0.163276
21
0.308071
0
LINE
8
BLACK
6
CONTINUOUS
10
0.163276
20
0.308071
11
0.161016
21
0.30852
0
LINE
8
BLACK
6
CONTINUOUS
10
0.161016
20
0.30852
11
0.1591
21
0.309801
0
LINE
8
BLACK
6
CONTINUOUS
10
0.1591
20
0.309801
11
0.15782
21
0.311716
0
LINE
8
BLACK
6
CONTINUOUS
10
0.15782
20
0.311716
11
0.15737
21
0.313976
0
LINE
8
BLACK
6
CONTINUOUS
10
0.15737
20
0.313976
11
0.15737
21
0.325787
0
LINE
8
BLACK
6
CONTINUOUS
10
0.15737
20
0.325787
11
0.15782
21
0.328047
0
LINE
8
BLACK
6
CONTINUOUS
10
0.15782
20
0.328047
11
0.1591
21
0.329963
0
LINE
8
BLACK
6
CONTINUOUS
10
0.1591
20
0.329963
11
0.161016
21
0.331243
0
LINE
8
BLACK
6
CONTINUOUS
10
0.161016
20
0.331243
11
0.163276
21
0.331693
0
LINE
8
BLACK
6
CONTINUOUS
10
0.163276
20
0.331693
11
0.218394
21
0.331693
0
LINE
8
BLACK
6
CONTINUOUS
10
0.218394
20
0.331693
11
0.220654
21
0.331243
0
LINE
8
BLACK
6
CONTINUOUS
10
0.808851
20
0.360584
11
0.811565
21
0.35877
0
LINE
8
BLACK
6
CONTINUOUS
10
0.811565
20
0.35877
11
0.813379
21
0.356056
0
LINE
8
BLACK
6
CONTINUOUS
10
0.813379
20
0.356056
11
0.814016
21
0.352854
0
LINE
8
BLACK
6
CONTINUOUS
10
0.814016
20
0.352854
11
0.814016
21
0.336122
0
LINE
8
BLACK
6
CONTINUOUS
10
0.814016
20
0.336122
11
0.813379
21
0.33292
0
LINE
8
BLACK
6
CONTINUOUS
10
0.813379
20
0.33292
11
0.811565
21
0.330206
0
LINE
8
BLACK
6
CONTINUOUS
10
0.811565
20
0.330206
11
0.808851
21
0.328393
0
LINE
8
BLACK
6
CONTINUOUS
10
0.808851
20
0.328393
11
0.80565
21
0.327756
0
LINE
8
BLACK
6
CONTINUOUS
10
0.80565
20
0.327756
11
0.747579
21
0.327756
0
LINE
8
BLACK
6
CONTINUOUS
10
0.747579
20
0.327756
11
0.744377
21
0.328393
0
LINE
8
BLACK
6
CONTINUOUS
10
0.744377
20
0.328393
11
0.741663
21
0.330206
0
LINE
8
BLACK
6
CONTINUOUS
10
0.741663
20
0.330206
11
0.739849
21
0.33292
0
LINE
8
BLACK
6
CONTINUOUS
10
0.739849
20
0.33292
11
0.739213
21
0.336122
0
LINE
8
BLACK
6
CONTINUOUS
10
0.739213
20
0.336122
11
0.739213
21
0.352854
0
LINE
8
BLACK
6
CONTINUOUS
10
0.739213
20
0.352854
11
0.739849
21
0.356056
0
LINE
8
BLACK
6
CONTINUOUS
10
0.739849
20
0.356056
11
0.741663
21
0.35877
0
LINE
8
BLACK
6
CONTINUOUS
10
0.741663
20
0.35877
11
0.744377
21
0.360584
0
LINE
8
BLACK
6
CONTINUOUS
10
0.744377
20
0.360584
11
0.747579
21
0.36122
0
LINE
8
BLACK
6
CONTINUOUS
10
0.747579
20
0.36122
11
0.80565
21
0.36122
0
LINE
8
BLACK
6
CONTINUOUS
10
0.80565
20
0.36122
11
0.808851
21
0.360584
0
LINE
8
BLACK
6
CONTINUOUS
10
1.13562
20
0.360584
11
1.13834
21
0.35877
0
LINE
8
BLACK
6
CONTINUOUS
10
1.13834
20
0.35877
11
1.14015
21
0.356056
0
LINE
8
BLACK
6
CONTINUOUS
10
1.14015
20
0.356056
11
1.14079
21
0.352854
0
LINE
8
BLACK
6
CONTINUOUS
10
1.14079
20
0.352854
11
1.14079
21
0.336122
0
LINE
8
BLACK
6
CONTINUOUS
10
1.14079
20
0.336122
11
1.14015
21
0.33292
0
LINE
8
BLACK
6
CONTINUOUS
10
1.14015
20
0.33292
11
1.13834
21
0.330206
0
LINE
8
BLACK
6
CONTINUOUS
10
1.13834
20
0.330206
11
1.13562
21
0.328393
0
LINE
8
BLACK
6
CONTINUOUS
10
1.13562
20
0.328393
11
1.13242
21
0.327756
0
LINE
8
BLACK
6
CONTINUOUS
10
1.13242
20
0.327756
11
1.07435
21
0.327756
0
LINE
8
BLACK
6
CONTINUOUS
10
1.07435
20
0.327756
11
1.07115
21
0.328393
0
LINE
8
BLACK
6
CONTINUOUS
10
1.07115
20
0.328393
11
1.06843
21
0.330206
0
LINE
8
BLACK
6
CONTINUOUS
10
1.06843
20
0.330206
11
1.06662
21
0.33292
0
LINE
8
BLACK
6
CONTINUOUS
10
1.06662
20
0.33292
11
1.06598
21
0.336122
0
LINE
8
BLACK
6
CONTINUOUS
10
1.06598
20
0.336122
11
1.06598
21
0.352854
0
LINE
8
BLACK
6
CONTINUOUS
10
1.06598
20
0.352854
11
1.06662
21
0.356056
0
LINE
8
BLACK
6
CONTINUOUS
10
1.06662
20
0.356056
11
1.06843
21
0.35877
0
LINE
8
BLACK
6
CONTINUOUS
10
1.06843
20
0.35877
11
1.07115
21
0.360584
0
LINE
8
BLACK
6
CONTINUOUS
10
1.07115
20
0.360584
11
1.07435
21
0.36122
0
LINE
8
BLACK
6
CONTINUOUS
10
1.07435
20
0.36122
11
1.13242
21
0.36122
0
LINE
8
BLACK
6
CONTINUOUS
10
1.13242
20
0.36122
11
1.13562
21
0.360584
0
LINE
8
BLACK
6
CONTINUOUS
10
0.453524
20
0.334764
11
0.398524
21
0.334764
0
LINE
8
BLACK
6
CONTINUOUS
10
0.398524
20
0.334764
11
0.398524
21
0.369764
0
LINE
8
BLACK
6
CONTINUOUS
10
0.398524
20
0.369764
11
0.453524
21
0.369764
0
LINE
8
BLACK
6
CONTINUOUS
10
0.453524
20
0.369764
11
0.453524
21
0.334764
0
LINE
8
BLACK
6
CONTINUOUS
10
0.521101
20
0.369423
11
0.523895
21
0.367556
0
LINE
8
BLACK
6
CONTINUOUS
10
0.523895
20
0.367556
11
0.525762
21
0.364762
0
LINE
8
BLACK
6
CONTINUOUS
10
0.525762
20
0.364762
11
0.526417
21
0.361467
0
LINE
8
BLACK
6
CONTINUOUS
10
0.526417
20
0.361467
11
0.526417
21
0.344242
0
LINE
8
BLACK
6
CONTINUOUS
10
0.526417
20
0.344242
11
0.525762
21
0.340946
0
LINE
8
BLACK
6
CONTINUOUS
10
0.525762
20
0.340946
11
0.523895
21
0.338152
0
LINE
8
BLACK
6
CONTINUOUS
10
0.523895
20
0.338152
11
0.521101
21
0.336285
0
LINE
8
BLACK
6
CONTINUOUS
10
0.521101
20
0.336285
11
0.517805
21
0.33563
0
LINE
8
BLACK
6
CONTINUOUS
10
0.517805
20
0.33563
11
0.497628
21
0.33563
0
LINE
8
BLACK
6
CONTINUOUS
10
0.497628
20
0.33563
11
0.494332
21
0.336285
0
LINE
8
BLACK
6
CONTINUOUS
10
0.494332
20
0.336285
11
0.491538
21
0.338152
0
LINE
8
BLACK
6
CONTINUOUS
10
0.491538
20
0.338152
11
0.489671
21
0.340946
0
LINE
8
BLACK
6
CONTINUOUS
10
0.489671
20
0.340946
11
0.489016
21
0.344242
0
LINE
8
BLACK
6
CONTINUOUS
10
0.489016
20
0.344242
11
0.489016
21
0.361467
0
LINE
8
BLACK
6
CONTINUOUS
10
0.489016
20
0.361467
11
0.489671
21
0.364762
0
LINE
8
BLACK
6
CONTINUOUS
10
0.489671
20
0.364762
11
0.491538
21
0.367556
0
LINE
8
BLACK
6
CONTINUOUS
10
0.491538
20
0.367556
11
0.494332
21
0.369423
0
LINE
8
BLACK
6
CONTINUOUS
10
0.494332
20
0.369423
11
0.497628
21
0.370079
0
LINE
8
BLACK
6
CONTINUOUS
10
0.497628
20
0.370079
11
0.517805
21
0.370079
0
LINE
8
BLACK
6
CONTINUOUS
10
0.517805
20
0.370079
11
0.521101
21
0.369423
0
LINE
8
BLACK
6
CONTINUOUS
10
0.593384
20
0.370565
11
0.596178
21
0.368698
0
LINE
8
BLACK
6
CONTINUOUS
10
0.596178
20
0.368698
11
0.598045
21
0.365904
0
LINE
8
BLACK
6
CONTINUOUS
10
0.598045
20
0.365904
11
0.598701
21
0.362608
0
LINE
8
BLACK
6
CONTINUOUS
10
0.598701
20
0.362608
11
0.598701
21
0.345384
0
LINE
8
BLACK
6
CONTINUOUS
10
0.598701
20
0.345384
11
0.598045
21
0.342088
0
LINE
8
BLACK
6
CONTINUOUS
10
0.598045
20
0.342088
11
0.596178
21
0.339294
0
LINE
8
BLACK
6
CONTINUOUS
10
0.596178
20
0.339294
11
0.593384
21
0.337427
0
LINE
8
BLACK
6
CONTINUOUS
10
0.593384
20
0.337427
11
0.590089
21
0.336772
0
LINE
8
BLACK
6
CONTINUOUS
10
0.590089
20
0.336772
11
0.569911
21
0.336772
0
LINE
8
BLACK
6
CONTINUOUS
10
0.569911
20
0.336772
11
0.566616
21
0.337427
0
LINE
8
BLACK
6
CONTINUOUS
10
0.566616
20
0.337427
11
0.563822
21
0.339294
0
LINE
8
BLACK
6
CONTINUOUS
10
0.563822
20
0.339294
11
0.561955
21
0.342088
0
LINE
8
BLACK
6
CONTINUOUS
10
0.561955
20
0.342088
11
0.561299
21
0.345384
0
LINE
8
BLACK
6
CONTINUOUS
10
0.561299
20
0.345384
11
0.561299
21
0.362608
0
LINE
8
BLACK
6
CONTINUOUS
10
0.561299
20
0.362608
11
0.561955
21
0.365904
0
LINE
8
BLACK
6
CONTINUOUS
10
0.561955
20
0.365904
11
0.563822
21
0.368698
0
LINE
8
BLACK
6
CONTINUOUS
10
0.563822
20
0.368698
11
0.566616
21
0.370565
0
LINE
8
BLACK
6
CONTINUOUS
10
0.566616
20
0.370565
11
0.569911
21
0.37122
0
LINE
8
BLACK
6
CONTINUOUS
10
0.569911
20
0.37122
11
0.590089
21
0.37122
0
LINE
8
BLACK
6
CONTINUOUS
10
0.590089
20
0.37122
11
0.593384
21
0.370565
0
LINE
8
BLACK
6
CONTINUOUS
10
0.668384
20
0.370565
11
0.671178
21
0.368698
0
LINE
8
BLACK
6
CONTINUOUS
10
0.671178
20
0.368698
11
0.673045
21
0.365904
0
LINE
8
BLACK
6
CONTINUOUS
10
0.673045
20
0.365904
11
0.673701
21
0.362608
0
LINE
8
BLACK
6
CONTINUOUS
10
0.673701
20
0.362608
11
0.673701
21
0.345384
0
LINE
8
BLACK
6
CONTINUOUS
10
0.673701
20
0.345384
11
0.673045
21
0.342088
0
LINE
8
BLACK
6
CONTINUOUS
10
0.673045
20
0.342088
11
0.671178
21
0.339294
0
LINE
8
BLACK
6
CONTINUOUS
10
0.671178
20
0.339294
11
0.668384
21
0.337427
0
LINE
8
BLACK
6
CONTINUOUS
10
0.668384
20
0.337427
11
0.665089
21
0.336772
0
LINE
8
BLACK
6
CONTINUOUS
10
0.665089
20
0.336772
11
0.644911
21
0.336772
0
LINE
8
BLACK
6
CONTINUOUS
10
0.644911
20
0.336772
11
0.641616
21
0.337427
0
LINE
8
BLACK
6
CONTINUOUS
10
0.641616
20
0.337427
11
0.638822
21
0.339294
0
LINE
8
BLACK
6
CONTINUOUS
10
0.638822
20
0.339294
11
0.636955
21
0.342088
0
LINE
8
BLACK
6
CONTINUOUS
10
0.636955
20
0.342088
11
0.636299
21
0.345384
0
LINE
8
BLACK
6
CONTINUOUS
10
0.636299
20
0.345384
11
0.636299
21
0.362608
0
LINE
8
BLACK
6
CONTINUOUS
10
0.636299
20
0.362608
11
0.636955
21
0.365904
0
LINE
8
BLACK
6
CONTINUOUS
10
0.636955
20
0.365904
11
0.638822
21
0.368698
0
LINE
8
BLACK
6
CONTINUOUS
10
0.638822
20
0.368698
11
0.641616
21
0.370565
0
LINE
8
BLACK
6
CONTINUOUS
10
0.641616
20
0.370565
11
0.644911
21
0.37122
0
LINE
8
BLACK
6
CONTINUOUS
10
0.644911
20
0.37122
11
0.665089
21
0.37122
0
LINE
8
BLACK
6
CONTINUOUS
10
0.665089
20
0.37122
11
0.668384
21
0.370565
0
LINE
8
BLACK
6
CONTINUOUS
10
0.30555
20
0.37336
11
0.308344
21
0.371493
0
LINE
8
BLACK
6
CONTINUOUS
10
0.308344
20
0.371493
11
0.310211
21
0.368699
0
LINE
8
BLACK
6
CONTINUOUS
10
0.310211
20
0.368699
11
0.310866
21
0.365404
0
LINE
8
BLACK
6
CONTINUOUS
10
0.310866
20
0.365404
11
0.310866
21
0.348179
0
LINE
8
BLACK
6
CONTINUOUS
10
0.310866
20
0.348179
11
0.310211
21
0.344883
0
LINE
8
BLACK
6
CONTINUOUS
10
0.310211
20
0.344883
11
0.308344
21
0.342089
0
LINE
8
BLACK
6
CONTINUOUS
10
0.308344
20
0.342089
11
0.30555
21
0.340222
0
LINE
8
BLACK
6
CONTINUOUS
10
0.30555
20
0.340222
11
0.302254
21
0.339567
0
LINE
8
BLACK
6
CONTINUOUS
10
0.302254
20
0.339567
11
0.282077
21
0.339567
0
LINE
8
BLACK
6
CONTINUOUS
10
0.282077
20
0.339567
11
0.278781
21
0.340222
0
LINE
8
BLACK
6
CONTINUOUS
10
0.278781
20
0.340222
11
0.275987
21
0.342089
0
LINE
8
BLACK
6
CONTINUOUS
10
0.275987
20
0.342089
11
0.27412
21
0.344883
0
LINE
8
BLACK
6
CONTINUOUS
10
0.27412
20
0.344883
11
0.273465
21
0.348179
0
LINE
8
BLACK
6
CONTINUOUS
10
0.273465
20
0.348179
11
0.273465
21
0.365404
0
LINE
8
BLACK
6
CONTINUOUS
10
0.273465
20
0.365404
11
0.27412
21
0.368699
0
LINE
8
BLACK
6
CONTINUOUS
10
0.27412
20
0.368699
11
0.275987
21
0.371493
0
LINE
8
BLACK
6
CONTINUOUS
10
0.275987
20
0.371493
11
0.278781
21
0.37336
0
LINE
8
BLACK
6
CONTINUOUS
10
0.278781
20
0.37336
11
0.282077
21
0.374016
0
LINE
8
BLACK
6
CONTINUOUS
10
0.282077
20
0.374016
11
0.302254
21
0.374016
0
LINE
8
BLACK
6
CONTINUOUS
10
0.302254
20
0.374016
11
0.30555
21
0.37336
0
LINE
8
BLACK
6
CONTINUOUS
10
0.370906
20
0.345472
11
0.343346
21
0.345472
0
LINE
8
BLACK
6
CONTINUOUS
10
0.343346
20
0.345472
11
0.343346
21
0.369094
0
LINE
8
BLACK
6
CONTINUOUS
10
0.343346
20
0.369094
11
0.370906
21
0.369094
0
LINE
8
BLACK
6
CONTINUOUS
10
0.370906
20
0.369094
11
0.370906
21
0.345472
0
LINE
8
BLACK
6
CONTINUOUS
10
0.220654
20
0.380456
11
0.22257
21
0.379176
0
LINE
8
BLACK
6
CONTINUOUS
10
0.22257
20
0.379176
11
0.22385
21
0.37726
0
LINE
8
BLACK
6
CONTINUOUS
10
0.22385
20
0.37726
11
0.224299
21
0.375
0
LINE
8
BLACK
6
CONTINUOUS
10
0.224299
20
0.375
11
0.224299
21
0.363189
0
LINE
8
BLACK
6
CONTINUOUS
10
0.224299
20
0.363189
11
0.22385
21
0.360929
0
LINE
8
BLACK
6
CONTINUOUS
10
0.22385
20
0.360929
11
0.22257
21
0.359013
0
LINE
8
BLACK
6
CONTINUOUS
10
0.22257
20
0.359013
11
0.220654
21
0.357733
0
LINE
8
BLACK
6
CONTINUOUS
10
0.220654
20
0.357733
11
0.218394
21
0.357283
0
LINE
8
BLACK
6
CONTINUOUS
10
0.218394
20
0.357283
11
0.163276
21
0.357283
0
LINE
8
BLACK
6
CONTINUOUS
10
0.163276
20
0.357283
11
0.161016
21
0.357733
0
LINE
8
BLACK
6
CONTINUOUS
10
0.161016
20
0.357733
11
0.1591
21
0.359013
0
LINE
8
BLACK
6
CONTINUOUS
10
0.1591
20
0.359013
11
0.15782
21
0.360929
0
LINE
8
BLACK
6
CONTINUOUS
10
0.15782
20
0.360929
11
0.15737
21
0.363189
0
LINE
8
BLACK
6
CONTINUOUS
10
0.15737
20
0.363189
11
0.15737
21
0.375
0
LINE
8
BLACK
6
CONTINUOUS
10
0.15737
20
0.375
11
0.15782
21
0.37726
0
LINE
8
BLACK
6
CONTINUOUS
10
0.15782
20
0.37726
11
0.1591
21
0.379176
0
LINE
8
BLACK
6
CONTINUOUS
10
0.1591
20
0.379176
11
0.161016
21
0.380456
0
LINE
8
BLACK
6
CONTINUOUS
10
0.161016
20
0.380456
11
0.163276
21
0.380906
0
LINE
8
BLACK
6
CONTINUOUS
10
0.163276
20
0.380906
11
0.218394
21
0.380906
0
LINE
8
BLACK
6
CONTINUOUS
10
0.218394
20
0.380906
11
0.220654
21
0.380456
0
LINE
8
BLACK
6
CONTINUOUS
10
0.808851
20
0.409796
11
0.811565
21
0.407983
0
LINE
8
BLACK
6
CONTINUOUS
10
0.811565
20
0.407983
11
0.813379
21
0.405269
0
LINE
8
BLACK
6
CONTINUOUS
10
0.813379
20
0.405269
11
0.814016
21
0.402067
0
LINE
8
BLACK
6
CONTINUOUS
10
0.814016
20
0.402067
11
0.814016
21
0.385335
0
LINE
8
BLACK
6
CONTINUOUS
10
0.814016
20
0.385335
11
0.813379
21
0.382133
0
LINE
8
BLACK
6
CONTINUOUS
10
0.813379
20
0.382133
11
0.811565
21
0.379419
0
LINE
8
BLACK
6
CONTINUOUS
10
0.811565
20
0.379419
11
0.808851
21
0.377605
0
LINE
8
BLACK
6
CONTINUOUS
10
0.808851
20
0.377605
11
0.80565
21
0.376969
0
LINE
8
BLACK
6
CONTINUOUS
10
0.80565
20
0.376969
11
0.747579
21
0.376969
0
LINE
8
BLACK
6
CONTINUOUS
10
0.747579
20
0.376969
11
0.744377
21
0.377605
0
LINE
8
BLACK
6
CONTINUOUS
10
0.744377
20
0.377605
11
0.741663
21
0.379419
0
LINE
8
BLACK
6
CONTINUOUS
10
0.741663
20
0.379419
11
0.739849
21
0.382133
0
LINE
8
BLACK
6
CONTINUOUS
10
0.739849
20
0.382133
11
0.739213
21
0.385335
0
LINE
8
BLACK
6
CONTINUOUS
10
0.739213
20
0.385335
11
0.739213
21
0.402067
0
LINE
8
BLACK
6
CONTINUOUS
10
0.739213
20
0.402067
11
0.739849
21
0.405269
0
LINE
8
BLACK
6
CONTINUOUS
10
0.739849
20
0.405269
11
0.741663
21
0.407983
0
LINE
8
BLACK
6
CONTINUOUS
10
0.741663
20
0.407983
11
0.744377
21
0.409796
0
LINE
8
BLACK
6
CONTINUOUS
10
0.744377
20
0.409796
11
0.747579
21
0.410433
0
LINE
8
BLACK
6
CONTINUOUS
10
0.747579
20
0.410433
11
0.80565
21
0.410433
0
LINE
8
BLACK
6
CONTINUOUS
10
0.80565
20
0.410433
11
0.808851
21
0.409796
0
LINE
8
BLACK
6
CONTINUOUS
10
1.13562
20
0.409796
11
1.13834
21
0.407983
0
LINE
8
BLACK
6
CONTINUOUS
10
1.13834
20
0.407983
11
1.14015
21
0.405269
0
LINE
8
BLACK
6
CONTINUOUS
10
1.14015
20
0.405269
11
1.14079
21
0.402067
0
LINE
8
BLACK
6
CONTINUOUS
10
1.14079
20
0.402067
11
1.14079
21
0.385335
0
LINE
8
BLACK
6
CONTINUOUS
10
1.14079
20
0.385335
11
1.14015
21
0.382133
0
LINE
8
BLACK
6
CONTINUOUS
10
1.14015
20
0.382133
11
1.13834
21
0.379419
0
LINE
8
BLACK
6
CONTINUOUS
10
1.13834
20
0.379419
11
1.13562
21
0.377605
0
LINE
8
BLACK
6
CONTINUOUS
10
1.13562
20
0.377605
11
1.13242
21
0.376969
0
LINE
8
BLACK
6
CONTINUOUS
10
1.13242
20
0.376969
11
1.07435
21
0.376969
0
LINE
8
BLACK
6
CONTINUOUS
10
1.07435
20
0.376969
11
1.07115
21
0.377605
0
LINE
8
BLACK
6
CONTINUOUS
10
1.07115
20
0.377605
11
1.06843
21
0.379419
0
LINE
8
BLACK
6
CONTINUOUS
10
1.06843
20
0.379419
11
1.06662
21
0.382133
0
LINE
8
BLACK
6
CONTINUOUS
10
1.06662
20
0.382133
11
1.06598
21
0.385335
0
LINE
8
BLACK
6
CONTINUOUS
10
1.06598
20
0.385335
11
1.06598
21
0.402067
0
LINE
8
BLACK
6
CONTINUOUS
10
1.06598
20
0.402067
11
1.06662
21
0.405269
0
LINE
8
BLACK
6
CONTINUOUS
10
1.06662
20
0.405269
11
1.06843
21
0.407983
0
LINE
8
BLACK
6
CONTINUOUS
10
1.06843
20
0.407983
11
1.07115
21
0.409796
0
LINE
8
BLACK
6
CONTINUOUS
10
1.07115
20
0.409796
11
1.07435
21
0.410433
0
LINE
8
BLACK
6
CONTINUOUS
10
1.07435
20
0.410433
11
1.13242
21
0.410433
0
LINE
8
BLACK
6
CONTINUOUS
10
1.13242
20
0.410433
11
1.13562
21
0.409796
0
LINE
8
BLACK
6
CONTINUOUS
10
0.521101
20
0.431431
11
0.523895
21
0.429564
0
LINE
8
BLACK
6
CONTINUOUS
10
0.523895
20
0.429564
11
0.525762
21
0.42677
0
LINE
8
BLACK
6
CONTINUOUS
10
0.525762
20
0.42677
11
0.526417
21
0.423474
0
LINE
8
BLACK
6
CONTINUOUS
10
0.526417
20
0.423474
11
0.526417
21
0.40625
0
LINE
8
BLACK
6
CONTINUOUS
10
0.526417
20
0.40625
11
0.525762
21
0.402954
0
LINE
8
BLACK
6
CONTINUOUS
10
0.525762
20
0.402954
11
0.523895
21
0.40016
0
LINE
8
BLACK
6
CONTINUOUS
10
0.523895
20
0.40016
11
0.521101
21
0.398293
0
LINE
8
BLACK
6
CONTINUOUS
10
0.521101
20
0.398293
11
0.517805
21
0.397638
0
LINE
8
BLACK
6
CONTINUOUS
10
0.517805
20
0.397638
11
0.497628
21
0.397638
0
LINE
8
BLACK
6
CONTINUOUS
10
0.497628
20
0.397638
11
0.494332
21
0.398293
0
LINE
8
BLACK
6
CONTINUOUS
10
0.494332
20
0.398293
11
0.491538
21
0.40016
0
LINE
8
BLACK
6
CONTINUOUS
10
0.491538
20
0.40016
11
0.489671
21
0.402954
0
LINE
8
BLACK
6
CONTINUOUS
10
0.489671
20
0.402954
11
0.489016
21
0.40625
0
LINE
8
BLACK
6
CONTINUOUS
10
0.489016
20
0.40625
11
0.489016
21
0.423474
0
LINE
8
BLACK
6
CONTINUOUS
10
0.489016
20
0.423474
11
0.489671
21
0.42677
0
LINE
8
BLACK
6
CONTINUOUS
10
0.489671
20
0.42677
11
0.491538
21
0.429564
0
LINE
8
BLACK
6
CONTINUOUS
10
0.491538
20
0.429564
11
0.494332
21
0.431431
0
LINE
8
BLACK
6
CONTINUOUS
10
0.494332
20
0.431431
11
0.497628
21
0.432087
0
LINE
8
BLACK
6
CONTINUOUS
10
0.497628
20
0.432087
11
0.517805
21
0.432087
0
LINE
8
BLACK
6
CONTINUOUS
10
0.517805
20
0.432087
11
0.521101
21
0.431431
0
LINE
8
BLACK
6
CONTINUOUS
10
0.593384
20
0.432573
11
0.596178
21
0.430706
0
LINE
8
BLACK
6
CONTINUOUS
10
0.596178
20
0.430706
11
0.598045
21
0.427912
0
LINE
8
BLACK
6
CONTINUOUS
10
0.598045
20
0.427912
11
0.598701
21
0.424616
0
LINE
8
BLACK
6
CONTINUOUS
10
0.598701
20
0.424616
11
0.598701
21
0.407392
0
LINE
8
BLACK
6
CONTINUOUS
10
0.598701
20
0.407392
11
0.598045
21
0.404096
0
LINE
8
BLACK
6
CONTINUOUS
10
0.598045
20
0.404096
11
0.596178
21
0.401302
0
LINE
8
BLACK
6
CONTINUOUS
10
0.596178
20
0.401302
11
0.593384
21
0.399435
0
LINE
8
BLACK
6
CONTINUOUS
10
0.593384
20
0.399435
11
0.590089
21
0.39878
0
LINE
8
BLACK
6
CONTINUOUS
10
0.590089
20
0.39878
11
0.569911
21
0.39878
0
LINE
8
BLACK
6
CONTINUOUS
10
0.569911
20
0.39878
11
0.566616
21
0.399435
0
LINE
8
BLACK
6
CONTINUOUS
10
0.566616
20
0.399435
11
0.563822
21
0.401302
0
LINE
8
BLACK
6
CONTINUOUS
10
0.563822
20
0.401302
11
0.561955
21
0.404096
0
LINE
8
BLACK
6
CONTINUOUS
10
0.561955
20
0.404096
11
0.561299
21
0.407392
0
LINE
8
BLACK
6
CONTINUOUS
10
0.561299
20
0.407392
11
0.561299
21
0.424616
0
LINE
8
BLACK
6
CONTINUOUS
10
0.561299
20
0.424616
11
0.561955
21
0.427912
0
LINE
8
BLACK
6
CONTINUOUS
10
0.561955
20
0.427912
11
0.563822
21
0.430706
0
LINE
8
BLACK
6
CONTINUOUS
10
0.563822
20
0.430706
11
0.566616
21
0.432573
0
LINE
8
BLACK
6
CONTINUOUS
10
0.566616
20
0.432573
11
0.569911
21
0.433228
0
LINE
8
BLACK
6
CONTINUOUS
10
0.569911
20
0.433228
11
0.590089
21
0.433228
0
LINE
8
BLACK
6
CONTINUOUS
10
0.590089
20
0.433228
11
0.593384
21
0.432573
0
LINE
8
BLACK
6
CONTINUOUS
10
0.668384
20
0.432573
11
0.671178
21
0.430706
0
LINE
8
BLACK
6
CONTINUOUS
10
0.671178
20
0.430706
11
0.673045
21
0.427912
0
LINE
8
BLACK
6
CONTINUOUS
10
0.673045
20
0.427912
11
0.673701
21
0.424616
0
LINE
8
BLACK
6
CONTINUOUS
10
0.673701
20
0.424616
11
0.673701
21
0.407392
0
LINE
8
BLACK
6
CONTINUOUS
10
0.673701
20
0.407392
11
0.673045
21
0.404096
0
LINE
8
BLACK
6
CONTINUOUS
10
0.673045
20
0.404096
11
0.671178
21
0.401302
0
LINE
8
BLACK
6
CONTINUOUS
10
0.671178
20
0.401302
11
0.668384
21
0.399435
0
LINE
8
BLACK
6
CONTINUOUS
10
0.668384
20
0.399435
11
0.665089
21
0.39878
0
LINE
8
BLACK
6
CONTINUOUS
10
0.665089
20
0.39878
11
0.644911
21
0.39878
0
LINE
8
BLACK
6
CONTINUOUS
10
0.644911
20
0.39878
11
0.641616
21
0.399435
0
LINE
8
BLACK
6
CONTINUOUS
10
0.641616
20
0.399435
11
0.638822
21
0.401302
0
LINE
8
BLACK
6
CONTINUOUS
10
0.638822
20
0.401302
11
0.636955
21
0.404096
0
LINE
8
BLACK
6
CONTINUOUS
10
0.636955
20
0.404096
11
0.636299
21
0.407392
0
LINE
8
BLACK
6
CONTINUOUS
10
0.636299
20
0.407392
11
0.636299
21
0.424616
0
LINE
8
BLACK
6
CONTINUOUS
10
0.636299
20
0.424616
11
0.636955
21
0.427912
0
LINE
8
BLACK
6
CONTINUOUS
10
0.636955
20
0.427912
11
0.638822
21
0.430706
0
LINE
8
BLACK
6
CONTINUOUS
10
0.638822
20
0.430706
11
0.641616
21
0.432573
0
LINE
8
BLACK
6
CONTINUOUS
10
0.641616
20
0.432573
11
0.644911
21
0.433228
0
LINE
8
BLACK
6
CONTINUOUS
10
0.644911
20
0.433228
11
0.665089
21
0.433228
0
LINE
8
BLACK
6
CONTINUOUS
10
0.665089
20
0.433228
11
0.668384
21
0.432573
0
LINE
8
BLACK
6
CONTINUOUS
10
0.370906
20
0.400591
11
0.343346
21
0.400591
0
LINE
8
BLACK
6
CONTINUOUS
10
0.343346
20
0.400591
11
0.343346
21
0.424213
0
LINE
8
BLACK
6
CONTINUOUS
10
0.343346
20
0.424213
11
0.370906
21
0.424213
0
LINE
8
BLACK
6
CONTINUOUS
10
0.370906
20
0.424213
11
0.370906
21
0.400591
0
LINE
8
BLACK
6
CONTINUOUS
10
0.30555
20
0.435368
11
0.308344
21
0.433501
0
LINE
8
BLACK
6
CONTINUOUS
10
0.308344
20
0.433501
11
0.310211
21
0.430707
0
LINE
8
BLACK
6
CONTINUOUS
10
0.310211
20
0.430707
11
0.310866
21
0.427411
0
LINE
8
BLACK
6
CONTINUOUS
10
0.310866
20
0.427411
11
0.310866
21
0.410187
0
LINE
8
BLACK
6
CONTINUOUS
10
0.310866
20
0.410187
11
0.310211
21
0.406891
0
LINE
8
BLACK
6
CONTINUOUS
10
0.310211
20
0.406891
11
0.308344
21
0.404097
0
LINE
8
BLACK
6
CONTINUOUS
10
0.308344
20
0.404097
11
0.30555
21
0.40223
0
LINE
8
BLACK
6
CONTINUOUS
10
0.30555
20
0.40223
11
0.302254
21
0.401575
0
LINE
8
BLACK
6
CONTINUOUS
10
0.302254
20
0.401575
11
0.282077
21
0.401575
0
LINE
8
BLACK
6
CONTINUOUS
10
0.282077
20
0.401575
11
0.278781
21
0.40223
0
LINE
8
BLACK
6
CONTINUOUS
10
0.278781
20
0.40223
11
0.275987
21
0.404097
0
LINE
8
BLACK
6
CONTINUOUS
10
0.275987
20
0.404097
11
0.27412
21
0.406891
0
LINE
8
BLACK
6
CONTINUOUS
10
0.27412
20
0.406891
11
0.273465
21
0.410187
0
LINE
8
BLACK
6
CONTINUOUS
10
0.273465
20
0.410187
11
0.273465
21
0.427411
0
LINE
8
BLACK
6
CONTINUOUS
10
0.273465
20
0.427411
11
0.27412
21
0.430707
0
LINE
8
BLACK
6
CONTINUOUS
10
0.27412
20
0.430707
11
0.275987
21
0.433501
0
LINE
8
BLACK
6
CONTINUOUS
10
0.275987
20
0.433501
11
0.278781
21
0.435368
0
LINE
8
BLACK
6
CONTINUOUS
10
0.278781
20
0.435368
11
0.282077
21
0.436024
0
LINE
8
BLACK
6
CONTINUOUS
10
0.282077
20
0.436024
11
0.302254
21
0.436024
0
LINE
8
BLACK
6
CONTINUOUS
10
0.302254
20
0.436024
11
0.30555
21
0.435368
0
LINE
8
BLACK
6
CONTINUOUS
10
0.453524
20
0.409764
11
0.398524
21
0.409764
0
LINE
8
BLACK
6
CONTINUOUS
10
0.398524
20
0.409764
11
0.398524
21
0.444764
0
LINE
8
BLACK
6
CONTINUOUS
10
0.398524
20
0.444764
11
0.453524
21
0.444764
0
LINE
8
BLACK
6
CONTINUOUS
10
0.453524
20
0.444764
11
0.453524
21
0.409764
0
LINE
8
BLACK
6
CONTINUOUS
10
0.853143
20
0.495426
11
0.855857
21
0.493613
0
LINE
8
BLACK
6
CONTINUOUS
10
0.855857
20
0.493613
11
0.85767
21
0.490898
0
LINE
8
BLACK
6
CONTINUOUS
10
0.85767
20
0.490898
11
0.858307
21
0.487697
0
LINE
8
BLACK
6
CONTINUOUS
10
0.858307
20
0.487697
11
0.858307
21
0.429626
0
LINE
8
BLACK
6
CONTINUOUS
10
0.858307
20
0.429626
11
0.85767
21
0.426424
0
LINE
8
BLACK
6
CONTINUOUS
10
0.85767
20
0.426424
11
0.855857
21
0.42371
0
LINE
8
BLACK
6
CONTINUOUS
10
0.855857
20
0.42371
11
0.853143
21
0.421897
0
LINE
8
BLACK
6
CONTINUOUS
10
0.853143
20
0.421897
11
0.849941
21
0.42126
0
LINE
8
BLACK
6
CONTINUOUS
10
0.849941
20
0.42126
11
0.833209
21
0.42126
0
LINE
8
BLACK
6
CONTINUOUS
10
0.833209
20
0.42126
11
0.830007
21
0.421897
0
LINE
8
BLACK
6
CONTINUOUS
10
0.830007
20
0.421897
11
0.827293
21
0.42371
0
LINE
8
BLACK
6
CONTINUOUS
10
0.827293
20
0.42371
11
0.825479
21
0.426424
0
LINE
8
BLACK
6
CONTINUOUS
10
0.825479
20
0.426424
11
0.824843
21
0.429626
0
LINE
8
BLACK
6
CONTINUOUS
10
0.824843
20
0.429626
11
0.824843
21
0.487697
0
LINE
8
BLACK
6
CONTINUOUS
10
0.824843
20
0.487697
11
0.825479
21
0.490898
0
LINE
8
BLACK
6
CONTINUOUS
10
0.825479
20
0.490898
11
0.827293
21
0.493613
0
LINE
8
BLACK
6
CONTINUOUS
10
0.827293
20
0.493613
11
0.830007
21
0.495426
0
LINE
8
BLACK
6
CONTINUOUS
10
0.830007
20
0.495426
11
0.833209
21
0.496063
0
LINE
8
BLACK
6
CONTINUOUS
10
0.833209
20
0.496063
11
0.849941
21
0.496063
0
LINE
8
BLACK
6
CONTINUOUS
10
0.849941
20
0.496063
11
0.853143
21
0.495426
0
LINE
8
BLACK
6
CONTINUOUS
10
0.902355
20
0.495426
11
0.905069
21
0.493613
0
LINE
8
BLACK
6
CONTINUOUS
10
0.905069
20
0.493613
11
0.906883
21
0.490898
0
LINE
8
BLACK
6
CONTINUOUS
10
0.906883
20
0.490898
11
0.90752
21
0.487697
0
LINE
8
BLACK
6
CONTINUOUS
10
0.90752
20
0.487697
11
0.90752
21
0.429626
0
LINE
8
BLACK
6
CONTINUOUS
10
0.90752
20
0.429626
11
0.906883
21
0.426424
0
LINE
8
BLACK
6
CONTINUOUS
10
0.906883
20
0.426424
11
0.905069
21
0.42371
0
LINE
8
BLACK
6
CONTINUOUS
10
0.905069
20
0.42371
11
0.902355
21
0.421897
0
LINE
8
BLACK
6
CONTINUOUS
10
0.902355
20
0.421897
11
0.899154
21
0.42126
0
LINE
8
BLACK
6
CONTINUOUS
10
0.899154
20
0.42126
11
0.882421
21
0.42126
0
LINE
8
BLACK
6
CONTINUOUS
10
0.882421
20
0.42126
11
0.87922
21
0.421897
0
LINE
8
BLACK
6
CONTINUOUS
10
0.87922
20
0.421897
11
0.876506
21
0.42371
0
LINE
8
BLACK
6
CONTINUOUS
10
0.876506
20
0.42371
11
0.874692
21
0.426424
0
LINE
8
BLACK
6
CONTINUOUS
10
0.874692
20
0.426424
11
0.874055
21
0.429626
0
LINE
8
BLACK
6
CONTINUOUS
10
0.874055
20
0.429626
11
0.874055
21
0.487697
0
LINE
8
BLACK
6
CONTINUOUS
10
0.874055
20
0.487697
11
0.874692
21
0.490898
0
LINE
8
BLACK
6
CONTINUOUS
10
0.874692
20
0.490898
11
0.876506
21
0.493613
0
LINE
8
BLACK
6
CONTINUOUS
10
0.876506
20
0.493613
11
0.87922
21
0.495426
0
LINE
8
BLACK
6
CONTINUOUS
10
0.87922
20
0.495426
11
0.882421
21
0.496063
0
LINE
8
BLACK
6
CONTINUOUS
10
0.882421
20
0.496063
11
0.899154
21
0.496063
0
LINE
8
BLACK
6
CONTINUOUS
10
0.899154
20
0.496063
11
0.902355
21
0.495426
0
LINE
8
BLACK
6
CONTINUOUS
10
0.951568
20
0.495426
11
0.954282
21
0.493613
0
LINE
8
BLACK
6
CONTINUOUS
10
0.954282
20
0.493613
11
0.956095
21
0.490898
0
LINE
8
BLACK
6
CONTINUOUS
10
0.956095
20
0.490898
11
0.956732
21
0.487697
0
LINE
8
BLACK
6
CONTINUOUS
10
0.956732
20
0.487697
11
0.956732
21
0.429626
0
LINE
8
BLACK
6
CONTINUOUS
10
0.956732
20
0.429626
11
0.956095
21
0.426424
0
LINE
8
BLACK
6
CONTINUOUS
10
0.956095
20
0.426424
11
0.954282
21
0.42371
0
LINE
8
BLACK
6
CONTINUOUS
10
0.954282
20
0.42371
11
0.951568
21
0.421897
0
LINE
8
BLACK
6
CONTINUOUS
10
0.951568
20
0.421897
11
0.948366
21
0.42126
0
LINE
8
BLACK
6
CONTINUOUS
10
0.948366
20
0.42126
11
0.931634
21
0.42126
0
LINE
8
BLACK
6
CONTINUOUS
10
0.931634
20
0.42126
11
0.928432
21
0.421897
0
LINE
8
BLACK
6
CONTINUOUS
10
0.928432
20
0.421897
11
0.925718
21
0.42371
0
LINE
8
BLACK
6
CONTINUOUS
10
0.925718
20
0.42371
11
0.923905
21
0.426424
0
LINE
8
BLACK
6
CONTINUOUS
10
0.923905
20
0.426424
11
0.923268
21
0.429626
0
LINE
8
BLACK
6
CONTINUOUS
10
0.923268
20
0.429626
11
0.923268
21
0.487697
0
LINE
8
BLACK
6
CONTINUOUS
10
0.923268
20
0.487697
11
0.923905
21
0.490898
0
LINE
8
BLACK
6
CONTINUOUS
10
0.923905
20
0.490898
11
0.925718
21
0.493613
0
LINE
8
BLACK
6
CONTINUOUS
10
0.925718
20
0.493613
11
0.928432
21
0.495426
0
LINE
8
BLACK
6
CONTINUOUS
10
0.928432
20
0.495426
11
0.931634
21
0.496063
0
LINE
8
BLACK
6
CONTINUOUS
10
0.931634
20
0.496063
11
0.948366
21
0.496063
0
LINE
8
BLACK
6
CONTINUOUS
10
0.948366
20
0.496063
11
0.951568
21
0.495426
0
LINE
8
BLACK
6
CONTINUOUS
10
1.00078
20
0.495426
11
1.00349
21
0.493613
0
LINE
8
BLACK
6
CONTINUOUS
10
1.00349
20
0.493613
11
1.00531
21
0.490898
0
LINE
8
BLACK
6
CONTINUOUS
10
1.00531
20
0.490898
11
1.00594
21
0.487697
0
LINE
8
BLACK
6
CONTINUOUS
10
1.00594
20
0.487697
11
1.00594
21
0.429626
0
LINE
8
BLACK
6
CONTINUOUS
10
1.00594
20
0.429626
11
1.00531
21
0.426424
0
LINE
8
BLACK
6
CONTINUOUS
10
1.00531
20
0.426424
11
1.00349
21
0.42371
0
LINE
8
BLACK
6
CONTINUOUS
10
1.00349
20
0.42371
11
1.00078
21
0.421897
0
LINE
8
BLACK
6
CONTINUOUS
10
1.00078
20
0.421897
11
0.997579
21
0.42126
0
LINE
8
BLACK
6
CONTINUOUS
10
0.997579
20
0.42126
11
0.980846
21
0.42126
0
LINE
8
BLACK
6
CONTINUOUS
10
0.980846
20
0.42126
11
0.977645
21
0.421897
0
LINE
8
BLACK
6
CONTINUOUS
10
0.977645
20
0.421897
11
0.974931
21
0.42371
0
LINE
8
BLACK
6
CONTINUOUS
10
0.974931
20
0.42371
11
0.973117
21
0.426424
0
LINE
8
BLACK
6
CONTINUOUS
10
0.973117
20
0.426424
11
0.97248
21
0.429626
0
LINE
8
BLACK
6
CONTINUOUS
10
0.97248
20
0.429626
11
0.97248
21
0.487697
0
LINE
8
BLACK
6
CONTINUOUS
10
0.97248
20
0.487697
11
0.973117
21
0.490898
0
LINE
8
BLACK
6
CONTINUOUS
10
0.973117
20
0.490898
11
0.974931
21
0.493613
0
LINE
8
BLACK
6
CONTINUOUS
10
0.974931
20
0.493613
11
0.977645
21
0.495426
0
LINE
8
BLACK
6
CONTINUOUS
10
0.977645
20
0.495426
11
0.980846
21
0.496063
0
LINE
8
BLACK
6
CONTINUOUS
10
0.980846
20
0.496063
11
0.997579
21
0.496063
0
LINE
8
BLACK
6
CONTINUOUS
10
0.997579
20
0.496063
11
1.00078
21
0.495426
0
LINE
8
BLACK
6
CONTINUOUS
10
1.04999
20
0.495426
11
1.05271
21
0.493613
0
LINE
8
BLACK
6
CONTINUOUS
10
1.05271
20
0.493613
11
1.05452
21
0.490898
0
LINE
8
BLACK
6
CONTINUOUS
10
1.05452
20
0.490898
11
1.05516
21
0.487697
0
LINE
8
BLACK
6
CONTINUOUS
10
1.05516
20
0.487697
11
1.05516
21
0.429626
0
LINE
8
BLACK
6
CONTINUOUS
10
1.05516
20
0.429626
11
1.05452
21
0.426424
0
LINE
8
BLACK
6
CONTINUOUS
10
1.05452
20
0.426424
11
1.05271
21
0.42371
0
LINE
8
BLACK
6
CONTINUOUS
10
1.05271
20
0.42371
11
1.04999
21
0.421897
0
LINE
8
BLACK
6
CONTINUOUS
10
1.04999
20
0.421897
11
1.04679
21
0.42126
0
LINE
8
BLACK
6
CONTINUOUS
10
1.04679
20
0.42126
11
1.03006
21
0.42126
0
LINE
8
BLACK
6
CONTINUOUS
10
1.03006
20
0.42126
11
1.02686
21
0.421897
0
LINE
8
BLACK
6
CONTINUOUS
10
1.02686
20
0.421897
11
1.02414
21
0.42371
0
LINE
8
BLACK
6
CONTINUOUS
10
1.02414
20
0.42371
11
1.02233
21
0.426424
0
LINE
8
BLACK
6
CONTINUOUS
10
1.02233
20
0.426424
11
1.02169
21
0.429626
0
LINE
8
BLACK
6
CONTINUOUS
10
1.02169
20
0.429626
11
1.02169
21
0.487697
0
LINE
8
BLACK
6
CONTINUOUS
10
1.02169
20
0.487697
11
1.02233
21
0.490898
0
LINE
8
BLACK
6
CONTINUOUS
10
1.02233
20
0.490898
11
1.02414
21
0.493613
0
LINE
8
BLACK
6
CONTINUOUS
10
1.02414
20
0.493613
11
1.02686
21
0.495426
0
LINE
8
BLACK
6
CONTINUOUS
10
1.02686
20
0.495426
11
1.03006
21
0.496063
0
LINE
8
BLACK
6
CONTINUOUS
10
1.03006
20
0.496063
11
1.04679
21
0.496063
0
LINE
8
BLACK
6
CONTINUOUS
10
1.04679
20
0.496063
11
1.04999
21
0.495426
0
LINE
8
BLACK
6
CONTINUOUS
10
0.111924
20
0.460865
11
0.115117
21
0.458731
0
LINE
8
BLACK
6
CONTINUOUS
10
0.115117
20
0.458731
11
0.117251
21
0.455538
0
LINE
8
BLACK
6
CONTINUOUS
10
0.117251
20
0.455538
11
0.118
21
0.451772
0
LINE
8
BLACK
6
CONTINUOUS
10
0.118
20
0.451772
11
0.118
21
0.432087
0
LINE
8
BLACK
6
CONTINUOUS
10
0.118
20
0.432087
11
0.117251
21
0.42832
0
LINE
8
BLACK
6
CONTINUOUS
10
0.117251
20
0.42832
11
0.115117
21
0.425127
0
LINE
8
BLACK
6
CONTINUOUS
10
0.115117
20
0.425127
11
0.111924
21
0.422993
0
LINE
8
BLACK
6
CONTINUOUS
10
0.111924
20
0.422993
11
0.108157
21
0.422244
0
LINE
8
BLACK
6
CONTINUOUS
10
0.108157
20
0.422244
11
0.0215433
21
0.422244
0
LINE
8
BLACK
6
CONTINUOUS
10
0.0215433
20
0.422244
11
0.0177767
21
0.422993
0
LINE
8
BLACK
6
CONTINUOUS
10
0.0177767
20
0.422993
11
0.0145836
21
0.425127
0
LINE
8
BLACK
6
CONTINUOUS
10
0.0145836
20
0.425127
11
0.01245
21
0.42832
0
LINE
8
BLACK
6
CONTINUOUS
10
0.01245
20
0.42832
11
0.0117008
21
0.432087
0
LINE
8
BLACK
6
CONTINUOUS
10
0.0117008
20
0.432087
11
0.0117008
21
0.451772
0
LINE
8
BLACK
6
CONTINUOUS
10
0.0117008
20
0.451772
11
0.01245
21
0.455538
0
LINE
8
BLACK
6
CONTINUOUS
10
0.01245
20
0.455538
11
0.0145836
21
0.458731
0
LINE
8
BLACK
6
CONTINUOUS
10
0.0145836
20
0.458731
11
0.0177767
21
0.460865
0
LINE
8
BLACK
6
CONTINUOUS
10
0.0177767
20
0.460865
11
0.0215433
21
0.461614
0
LINE
8
BLACK
6
CONTINUOUS
10
0.0215433
20
0.461614
11
0.108157
21
0.461614
0
LINE
8
BLACK
6
CONTINUOUS
10
0.108157
20
0.461614
11
0.111924
21
0.460865
0
LINE
8
BLACK
6
CONTINUOUS
10
0.284335
20
0.540839
11
0.286464
21
0.539417
0
LINE
8
BLACK
6
CONTINUOUS
10
0.286464
20
0.539417
11
0.287886
21
0.537288
0
LINE
8
BLACK
6
CONTINUOUS
10
0.287886
20
0.537288
11
0.288386
21
0.534777
0
LINE
8
BLACK
6
CONTINUOUS
10
0.288386
20
0.534777
11
0.288386
21
0.488845
0
LINE
8
BLACK
6
CONTINUOUS
10
0.288386
20
0.488845
11
0.287886
21
0.486334
0
LINE
8
BLACK
6
CONTINUOUS
10
0.287886
20
0.486334
11
0.286464
21
0.484205
0
LINE
8
BLACK
6
CONTINUOUS
10
0.286464
20
0.484205
11
0.284335
21
0.482783
0
LINE
8
BLACK
6
CONTINUOUS
10
0.284335
20
0.482783
11
0.281824
21
0.482284
0
LINE
8
BLACK
6
CONTINUOUS
10
0.281824
20
0.482284
11
0.245735
21
0.482283
0
LINE
8
BLACK
6
CONTINUOUS
10
0.245735
20
0.482283
11
0.243224
21
0.482783
0
LINE
8
BLACK
6
CONTINUOUS
10
0.243224
20
0.482783
11
0.241095
21
0.484205
0
LINE
8
BLACK
6
CONTINUOUS
10
0.241095
20
0.484205
11
0.239673
21
0.486334
0
LINE
8
BLACK
6
CONTINUOUS
10
0.239673
20
0.486334
11
0.239173
21
0.488845
0
LINE
8
BLACK
6
CONTINUOUS
10
0.239173
20
0.488845
11
0.239173
21
0.534777
0
LINE
8
BLACK
6
CONTINUOUS
10
0.239173
20
0.534777
11
0.239673
21
0.537288
0
LINE
8
BLACK
6
CONTINUOUS
10
0.239673
20
0.537288
11
0.241095
21
0.539417
0
LINE
8
BLACK
6
CONTINUOUS
10
0.241095
20
0.539417
11
0.243224
21
0.540839
0
LINE
8
BLACK
6
CONTINUOUS
10
0.243224
20
0.540839
11
0.245735
21
0.541339
0
LINE
8
BLACK
6
CONTINUOUS
10
0.245735
20
0.541339
11
0.281824
21
0.541339
0
LINE
8
BLACK
6
CONTINUOUS
10
0.281824
20
0.541339
11
0.284335
21
0.540839
0
LINE
8
BLACK
6
CONTINUOUS
10
0.426067
20
0.540839
11
0.428196
21
0.539417
0
LINE
8
BLACK
6
CONTINUOUS
10
0.428196
20
0.539417
11
0.429619
21
0.537288
0
LINE
8
BLACK
6
CONTINUOUS
10
0.429619
20
0.537288
11
0.430118
21
0.534777
0
LINE
8
BLACK
6
CONTINUOUS
10
0.430118
20
0.534777
11
0.430118
21
0.488845
0
LINE
8
BLACK
6
CONTINUOUS
10
0.430118
20
0.488845
11
0.429619
21
0.486334
0
LINE
8
BLACK
6
CONTINUOUS
10
0.429619
20
0.486334
11
0.428196
21
0.484205
0
LINE
8
BLACK
6
CONTINUOUS
10
0.428196
20
0.484205
11
0.426067
21
0.482783
0
LINE
8
BLACK
6
CONTINUOUS
10
0.426067
20
0.482783
11
0.423556
21
0.482284
0
LINE
8
BLACK
6
CONTINUOUS
10
0.423556
20
0.482284
11
0.387467
21
0.482283
0
LINE
8
BLACK
6
CONTINUOUS
10
0.387467
20
0.482283
11
0.384956
21
0.482783
0
LINE
8
BLACK
6
CONTINUOUS
10
0.384956
20
0.482783
11
0.382827
21
0.484205
0
LINE
8
BLACK
6
CONTINUOUS
10
0.382827
20
0.484205
11
0.381405
21
0.486334
0
LINE
8
BLACK
6
CONTINUOUS
10
0.381405
20
0.486334
11
0.380906
21
0.488845
0
LINE
8
BLACK
6
CONTINUOUS
10
0.380906
20
0.488845
11
0.380906
21
0.534777
0
LINE
8
BLACK
6
CONTINUOUS
10
0.380906
20
0.534777
11
0.381405
21
0.537288
0
LINE
8
BLACK
6
CONTINUOUS
10
0.381405
20
0.537288
11
0.382827
21
0.539417
0
LINE
8
BLACK
6
CONTINUOUS
10
0.382827
20
0.539417
11
0.384956
21
0.540839
0
LINE
8
BLACK
6
CONTINUOUS
10
0.384956
20
0.540839
11
0.387467
21
0.541339
0
LINE
8
BLACK
6
CONTINUOUS
10
0.387467
20
0.541339
11
0.423556
21
0.541339
0
LINE
8
BLACK
6
CONTINUOUS
10
0.423556
20
0.541339
11
0.426067
21
0.540839
  0
ENDSEC
  0
EOF
