  0
SECTION
  2
HEADER
  9
$ANGBASE
  50
0.0
  9
$ANGDIR
  70
1
  9
$MEASUREMENT
  70
0
  0
ENDSEC
  0
SECTION
  2
TABLES
  0
TABLE
  2
LTYPE
  70
4
  0
LTYPE
  5
40F
  2
CONTINUOUS
  70
0
  3
Solid line
  72
65
  73
0
  40
0.0
  0
LTYPE
  5
410
  2
DASHDOT
 70
0
  3
Dash Dot ____ _ ____ _
 72
65
 73
4
 40
2.0
 49
1.25
 49
-0.25
 49
0.25
 49
-0.25
  0
LTYPE
  5
411
  2
DASHED
 70
0
  3
Dashed __ __ __ __ __
 72
65
 73
2
 40
0.75
 49
0.5
 49
-0.25
  0
LTYPE
  5
43B
  2
DOTTED
 70
0
  3
Dotted .  .  .  .
 72
65
 73
2
 40
0.2
 49
0.0
 49
-0.2
  0
ENDTAB
  0
TABLE
  2
STYLE
  70
4
  0
STYLE
  2
KICAD
  70
0
  40
0
  41
1
  42
1
  50
0
  71
0
  3
isocp.shx
  0
STYLE
  2
KICADB
  70
0
  40
0
  41
1
  42
1
  50
0
  71
0
  3
isocp.shx
  0
STYLE
  2
KICADI
  70
0
  40
0
  41
1
  42
1
  50
15
  71
0
  3
isocp.shx
  0
STYLE
  2
KICADBI
  70
0
  40
0
  41
1
  42
1
  50
15
  71
0
  3
isocp.shx
  0
ENDTAB
  0
TABLE
  2
LAYER
  70
1
  0
LAYER
  2
BLACK
  70
0
  62
7
  6
CONTINUOUS
  0
ENDTAB
  0
ENDSEC
  0
SECTION
  2
ENTITIES
0
LINE
8
BLACK
6
CONTINUOUS
10
0.2548664173228347
20
0.3849772834645669
11
0.2592564566929134
21
0.3827404330708661
0
LINE
8
BLACK
6
CONTINUOUS
10
0.2592564566929134
20
0.3827404330708661
11
0.2627404330708661
21
0.3792564566929134
0
LINE
8
BLACK
6
CONTINUOUS
10
0.2627404330708661
20
0.3792564566929134
11
0.2649772834645669
21
0.3748664173228347
0
LINE
8
BLACK
6
CONTINUOUS
10
0.2649772834645669
20
0.3748664173228347
11
0.265748031496063
21
0.37
0
LINE
8
BLACK
6
CONTINUOUS
10
0.265748031496063
20
0.37
11
0.2649772834645669
21
0.3651335826771653
0
LINE
8
BLACK
6
CONTINUOUS
10
0.2649772834645669
20
0.3651335826771653
11
0.2627404330708661
21
0.3607435433070866
0
LINE
8
BLACK
6
CONTINUOUS
10
0.2627404330708661
20
0.3607435433070866
11
0.2592564566929134
21
0.3572595669291339
0
LINE
8
BLACK
6
CONTINUOUS
10
0.2592564566929134
20
0.3572595669291339
11
0.2548664173228347
21
0.355022716535433
0
LINE
8
BLACK
6
CONTINUOUS
10
0.2548664173228347
20
0.355022716535433
11
0.25
21
0.354251968503937
0
LINE
8
BLACK
6
CONTINUOUS
10
0.25
20
0.354251968503937
11
0.2451335826771653
21
0.355022716535433
0
LINE
8
BLACK
6
CONTINUOUS
10
0.2451335826771653
20
0.355022716535433
11
0.2407435433070866
21
0.3572595669291339
0
LINE
8
BLACK
6
CONTINUOUS
10
0.2407435433070866
20
0.3572595669291339
11
0.2372595669291339
21
0.3607435433070866
0
LINE
8
BLACK
6
CONTINUOUS
10
0.2372595669291339
20
0.3607435433070866
11
0.2370165748031496
21
0.3612204724409449
0
LINE
8
BLACK
6
CONTINUOUS
10
0.2370165748031496
20
0.3612204724409449
11
0.2239076771653543
21
0.3612204724409449
0
LINE
8
BLACK
6
CONTINUOUS
10
0.2239076771653543
20
0.3612204724409449
11
0.2238496850393701
21
0.3609290157480315
0
LINE
8
BLACK
6
CONTINUOUS
10
0.2238496850393701
20
0.3609290157480315
11
0.2225695275590551
21
0.3590131496062992
0
LINE
8
BLACK
6
CONTINUOUS
10
0.2225695275590551
20
0.3590131496062992
11
0.2206536614173228
21
0.3577329921259843
0
LINE
8
BLACK
6
CONTINUOUS
10
0.2206536614173228
20
0.3577329921259843
11
0.2183937007874016
21
0.3572834645669291
0
LINE
8
BLACK
6
CONTINUOUS
10
0.2183937007874016
20
0.3572834645669291
11
0.1632755905511811
21
0.3572834645669291
0
LINE
8
BLACK
6
CONTINUOUS
10
0.1632755905511811
20
0.3572834645669291
11
0.1610156299212598
21
0.3577329921259843
0
LINE
8
BLACK
6
CONTINUOUS
10
0.1610156299212598
20
0.3577329921259843
11
0.1590997637795276
21
0.3590131496062992
0
LINE
8
BLACK
6
CONTINUOUS
10
0.1590997637795276
20
0.3590131496062992
11
0.1578196062992126
21
0.3609290157480315
0
LINE
8
BLACK
6
CONTINUOUS
10
0.1578196062992126
20
0.3609290157480315
11
0.1575815354330709
21
0.3621259842519685
0
LINE
8
BLACK
6
CONTINUOUS
10
0.1575815354330709
20
0.3621259842519685
11
0.123444842519685
21
0.3621259842519685
0
LINE
8
BLACK
6
CONTINUOUS
10
0.123444842519685
20
0.3621259842519685
11
0.1227404330708661
21
0.3607435433070866
0
LINE
8
BLACK
6
CONTINUOUS
10
0.1227404330708661
20
0.3607435433070866
11
0.1192564566929134
21
0.3572595669291339
0
LINE
8
BLACK
6
CONTINUOUS
10
0.1192564566929134
20
0.3572595669291339
11
0.1148664173228346
21
0.355022716535433
0
LINE
8
BLACK
6
CONTINUOUS
10
0.1148664173228346
20
0.355022716535433
11
0.11
21
0.354251968503937
0
LINE
8
BLACK
6
CONTINUOUS
10
0.11
20
0.354251968503937
11
0.1051335826771654
21
0.355022716535433
0
LINE
8
BLACK
6
CONTINUOUS
10
0.1051335826771654
20
0.355022716535433
11
0.1007435433070866
21
0.3572595669291339
0
LINE
8
BLACK
6
CONTINUOUS
10
0.1007435433070866
20
0.3572595669291339
11
0.0972595669291339
21
0.3607435433070866
0
LINE
8
BLACK
6
CONTINUOUS
10
0.0972595669291339
20
0.3607435433070866
11
0.0950227165354331
21
0.3651335826771653
0
LINE
8
BLACK
6
CONTINUOUS
10
0.0950227165354331
20
0.3651335826771653
11
0.094251968503937
21
0.37
0
LINE
8
BLACK
6
CONTINUOUS
10
0.094251968503937
20
0.37
11
0.0950227165354331
21
0.3748664173228347
0
LINE
8
BLACK
6
CONTINUOUS
10
0.0950227165354331
20
0.3748664173228347
11
0.0972595669291339
21
0.3792564566929134
0
LINE
8
BLACK
6
CONTINUOUS
10
0.0972595669291339
20
0.3792564566929134
11
0.1007435433070866
21
0.3827404330708661
0
LINE
8
BLACK
6
CONTINUOUS
10
0.1007435433070866
20
0.3827404330708661
11
0.1051335826771654
21
0.3849772834645669
0
LINE
8
BLACK
6
CONTINUOUS
10
0.1051335826771654
20
0.3849772834645669
11
0.11
21
0.385748031496063
0
LINE
8
BLACK
6
CONTINUOUS
10
0.11
20
0.385748031496063
11
0.1148664173228346
21
0.3849772834645669
0
LINE
8
BLACK
6
CONTINUOUS
10
0.1148664173228346
20
0.3849772834645669
11
0.1192564566929134
21
0.3827404330708661
0
LINE
8
BLACK
6
CONTINUOUS
10
0.1192564566929134
20
0.3827404330708661
11
0.1227404330708661
21
0.3792564566929134
0
LINE
8
BLACK
6
CONTINUOUS
10
0.1227404330708661
20
0.3792564566929134
11
0.123444842519685
21
0.3778740157480315
0
LINE
8
BLACK
6
CONTINUOUS
10
0.123444842519685
20
0.3778740157480315
11
0.1582299212598425
21
0.3778740157480315
0
LINE
8
BLACK
6
CONTINUOUS
10
0.1582299212598425
20
0.3778740157480315
11
0.1590997637795276
21
0.3791758267716535
0
LINE
8
BLACK
6
CONTINUOUS
10
0.1590997637795276
20
0.3791758267716535
11
0.1610156299212598
21
0.3804559842519685
0
LINE
8
BLACK
6
CONTINUOUS
10
0.1610156299212598
20
0.3804559842519685
11
0.1632755905511811
21
0.3809055118110236
0
LINE
8
BLACK
6
CONTINUOUS
10
0.1632755905511811
20
0.3809055118110236
11
0.2183937007874016
21
0.3809055118110236
0
LINE
8
BLACK
6
CONTINUOUS
10
0.2183937007874016
20
0.3809055118110236
11
0.2206536614173228
21
0.3804559842519685
0
LINE
8
BLACK
6
CONTINUOUS
10
0.2206536614173228
20
0.3804559842519685
11
0.2225695275590551
21
0.3791758267716535
0
LINE
8
BLACK
6
CONTINUOUS
10
0.2225695275590551
20
0.3791758267716535
11
0.2238496850393701
21
0.3772599606299212
0
LINE
8
BLACK
6
CONTINUOUS
10
0.2238496850393701
20
0.3772599606299212
11
0.2239076771653543
21
0.3769685039370079
0
LINE
8
BLACK
6
CONTINUOUS
10
0.2239076771653543
20
0.3769685039370079
11
0.2360937795275591
21
0.3769685039370079
0
LINE
8
BLACK
6
CONTINUOUS
10
0.2360937795275591
20
0.3769685039370079
11
0.2372595669291339
21
0.3792564566929134
0
LINE
8
BLACK
6
CONTINUOUS
10
0.2372595669291339
20
0.3792564566929134
11
0.2407435433070866
21
0.3827404330708661
0
LINE
8
BLACK
6
CONTINUOUS
10
0.2407435433070866
20
0.3827404330708661
11
0.2451335826771653
21
0.3849772834645669
0
LINE
8
BLACK
6
CONTINUOUS
10
0.2451335826771653
20
0.3849772834645669
11
0.25
21
0.385748031496063
0
LINE
8
BLACK
6
CONTINUOUS
10
0.25
20
0.385748031496063
11
0.2548664173228347
21
0.3849772834645669
0
LINE
8
BLACK
6
CONTINUOUS
10
0.0342357086614173
20
0.5699931496062992
11
0.0348672440944882
21
0.5690479527559055
0
LINE
8
BLACK
6
CONTINUOUS
10
0.0348672440944882
20
0.5690479527559055
11
0.0348932677165354
21
0.5689851181102362
0
LINE
8
BLACK
6
CONTINUOUS
10
0.0348932677165354
20
0.5689851181102362
11
0.0348933070866142
21
0.568985
0
LINE
8
BLACK
6
CONTINUOUS
10
0.0348933070866142
20
0.568985
11
0.0363324015748031
21
0.5655106692913385
0
LINE
8
BLACK
6
CONTINUOUS
10
0.0363324015748031
20
0.5655106692913385
11
0.0382516141732283
21
0.5608772834645669
0
LINE
8
BLACK
6
CONTINUOUS
10
0.0382516141732283
20
0.5608772834645669
11
0.0382517322834646
21
0.560876968503937
0
LINE
8
BLACK
6
CONTINUOUS
10
0.0382517322834646
20
0.560876968503937
11
0.0426397244094488
21
0.5532767716535433
0
LINE
8
BLACK
6
CONTINUOUS
10
0.0426397244094488
20
0.5532767716535433
11
0.0426398818897638
21
0.5532765354330709
0
LINE
8
BLACK
6
CONTINUOUS
10
0.0426398818897638
20
0.5532765354330709
11
0.0479821653543307
21
0.5463142519685039
0
LINE
8
BLACK
6
CONTINUOUS
10
0.0479821653543307
20
0.5463142519685039
11
0.0541882283464567
21
0.5401081889763779
0
LINE
8
BLACK
6
CONTINUOUS
10
0.0541882283464567
20
0.5401081889763779
11
0.0611505118110236
21
0.534765905511811
0
LINE
8
BLACK
6
CONTINUOUS
10
0.0611505118110236
20
0.534765905511811
11
0.0611506299212598
21
0.5347658267716535
0
LINE
8
BLACK
6
CONTINUOUS
10
0.0611506299212598
20
0.5347658267716535
11
0.0687509448818898
21
0.5303777559055118
0
LINE
8
BLACK
6
CONTINUOUS
10
0.0687509448818898
20
0.5303777559055118
11
0.0768590157480315
21
0.5270192913385827
0
LINE
8
BLACK
6
CONTINUOUS
10
0.0768590157480315
20
0.5270192913385827
11
0.0853361023622047
21
0.5247478740157481
0
LINE
8
BLACK
6
CONTINUOUS
10
0.0853361023622047
20
0.5247478740157481
11
0.094037125984252
21
0.5236023622047244
0
LINE
8
BLACK
6
CONTINUOUS
10
0.094037125984252
20
0.5236023622047244
11
0.0940372047244094
21
0.5236023622047244
0
LINE
8
BLACK
6
CONTINUOUS
10
0.0940372047244094
20
0.5236023622047244
11
0.102813188976378
21
0.5236023622047244
0
LINE
8
BLACK
6
CONTINUOUS
10
0.102813188976378
20
0.5236023622047244
11
0.1028132677165354
21
0.5236023622047244
0
LINE
8
BLACK
6
CONTINUOUS
10
0.1028132677165354
20
0.5236023622047244
11
0.1115142913385827
21
0.5247478740157481
0
LINE
8
BLACK
6
CONTINUOUS
10
0.1115142913385827
20
0.5247478740157481
11
0.1199913779527559
21
0.5270192913385827
0
LINE
8
BLACK
6
CONTINUOUS
10
0.1199913779527559
20
0.5270192913385827
11
0.1280994488188976
21
0.5303777559055118
0
LINE
8
BLACK
6
CONTINUOUS
10
0.1280994488188976
20
0.5303777559055118
11
0.1356997637795276
21
0.5347658267716535
0
LINE
8
BLACK
6
CONTINUOUS
10
0.1356997637795276
20
0.5347658267716535
11
0.1394609842519685
21
0.5376519291338583
0
LINE
8
BLACK
6
CONTINUOUS
10
0.1394609842519685
20
0.5376519291338583
11
0.142662125984252
21
0.5401081889763779
0
LINE
8
BLACK
6
CONTINUOUS
10
0.142662125984252
20
0.5401081889763779
11
0.1426621653543307
21
0.5401082677165354
0
LINE
8
BLACK
6
CONTINUOUS
10
0.1426621653543307
20
0.5401082677165354
11
0.1426623622047244
21
0.5401083858267717
0
LINE
8
BLACK
6
CONTINUOUS
10
0.1426623622047244
20
0.5401083858267717
11
0.1488679921259843
21
0.5463140157480315
0
LINE
8
BLACK
6
CONTINUOUS
10
0.1488679921259843
20
0.5463140157480315
11
0.1505934645669291
21
0.5485626771653543
0
LINE
8
BLACK
6
CONTINUOUS
10
0.1505934645669291
20
0.5485626771653543
11
0.1542104724409449
21
0.5532765354330709
0
LINE
8
BLACK
6
CONTINUOUS
10
0.1542104724409449
20
0.5532765354330709
11
0.1542105511811024
21
0.5532766141732284
0
LINE
8
BLACK
6
CONTINUOUS
10
0.1542105511811024
20
0.5532766141732284
11
0.1585986220472441
21
0.5608769291338582
0
LINE
8
BLACK
6
CONTINUOUS
10
0.1585986220472441
20
0.5608769291338582
11
0.1619570866141732
21
0.568985
0
LINE
8
BLACK
6
CONTINUOUS
10
0.1619570866141732
20
0.568985
11
0.1619570866141732
21
0.5689851181102362
0
LINE
8
BLACK
6
CONTINUOUS
10
0.1619570866141732
20
0.5689851181102362
11
0.1619831496062992
21
0.5690479527559055
0
LINE
8
BLACK
6
CONTINUOUS
10
0.1619831496062992
20
0.5690479527559055
11
0.163559842519685
21
0.57062468503937
0
LINE
8
BLACK
6
CONTINUOUS
10
0.163559842519685
20
0.57062468503937
11
0.1646747637795276
21
0.5708464566929133
0
LINE
8
BLACK
6
CONTINUOUS
10
0.1646747637795276
20
0.5708464566929133
11
0.2839263385826772
21
0.5708464566929133
0
LINE
8
BLACK
6
CONTINUOUS
10
0.2839263385826772
20
0.5708464566929133
11
0.2859864173228346
21
0.5699931496062992
0
LINE
8
BLACK
6
CONTINUOUS
10
0.2859864173228346
20
0.5699931496062992
11
0.2868397244094488
21
0.5679330708661418
0
LINE
8
BLACK
6
CONTINUOUS
10
0.2868397244094488
20
0.5679330708661418
11
0.2859864173228346
21
0.5658729921259842
0
LINE
8
BLACK
6
CONTINUOUS
10
0.2859864173228346
20
0.5658729921259842
11
0.2855449212598425
21
0.5655106692913385
0
LINE
8
BLACK
6
CONTINUOUS
10
0.2855449212598425
20
0.5655106692913385
11
0.2830594881889764
21
0.56385
0
LINE
8
BLACK
6
CONTINUOUS
10
0.2830594881889764
20
0.56385
11
0.2830594488188976
21
0.5638499212598425
0
LINE
8
BLACK
6
CONTINUOUS
10
0.2830594488188976
20
0.5638499212598425
11
0.2786697637795276
21
0.5594602362204725
0
LINE
8
BLACK
6
CONTINUOUS
10
0.2786697637795276
20
0.5594602362204725
11
0.2786696850393701
21
0.5594601968503937
0
LINE
8
BLACK
6
CONTINUOUS
10
0.2786696850393701
20
0.5594601968503937
11
0.2752205905511811
21
0.5542982283464567
0
LINE
8
BLACK
6
CONTINUOUS
10
0.2752205905511811
20
0.5542982283464567
11
0.2728450393700788
21
0.5485630708661418
0
LINE
8
BLACK
6
CONTINUOUS
10
0.2728450393700788
20
0.5485630708661418
11
0.2728449212598425
21
0.5485626771653543
0
LINE
8
BLACK
6
CONTINUOUS
10
0.2728449212598425
20
0.5485626771653543
11
0.2716338582677165
21
0.5424740551181102
0
LINE
8
BLACK
6
CONTINUOUS
10
0.2716338582677165
20
0.5424740551181102
11
0.2716338582677165
21
0.481148031496063
0
LINE
8
BLACK
6
CONTINUOUS
10
0.2716338582677165
20
0.481148031496063
11
0.2728449212598425
21
0.4750594094488189
0
LINE
8
BLACK
6
CONTINUOUS
10
0.2728449212598425
20
0.4750594094488189
11
0.2728450393700788
21
0.4750590157480315
0
LINE
8
BLACK
6
CONTINUOUS
10
0.2728450393700788
20
0.4750590157480315
11
0.2752205905511811
21
0.4693238582677165
0
LINE
8
BLACK
6
CONTINUOUS
10
0.2752205905511811
20
0.4693238582677165
11
0.2752206692913386
21
0.4693237401574803
0
LINE
8
BLACK
6
CONTINUOUS
10
0.2752206692913386
20
0.4693237401574803
11
0.2752207086614173
21
0.4693236614173228
0
LINE
8
BLACK
6
CONTINUOUS
10
0.2752207086614173
20
0.4693236614173228
11
0.2786697244094488
21
0.4641618503937008
0
LINE
8
BLACK
6
CONTINUOUS
10
0.2786697244094488
20
0.4641618503937008
11
0.2830594881889764
21
0.4597720866141732
0
LINE
8
BLACK
6
CONTINUOUS
10
0.2830594881889764
20
0.4597720866141732
11
0.2882212992125984
21
0.4563230708661417
0
LINE
8
BLACK
6
CONTINUOUS
10
0.2882212992125984
20
0.4563230708661417
11
0.2882214960629921
21
0.4563229921259843
0
LINE
8
BLACK
6
CONTINUOUS
10
0.2882214960629921
20
0.4563229921259843
11
0.2882214566929134
21
0.4563229921259843
0
LINE
8
BLACK
6
CONTINUOUS
10
0.2882214566929134
20
0.4563229921259843
11
0.2939566141732283
21
0.4539474409448819
0
LINE
8
BLACK
6
CONTINUOUS
10
0.2939566141732283
20
0.4539474409448819
11
0.293956811023622
21
0.4539473622047244
0
LINE
8
BLACK
6
CONTINUOUS
10
0.293956811023622
20
0.4539473622047244
11
0.3000455905511811
21
0.4527362204724409
0
LINE
8
BLACK
6
CONTINUOUS
10
0.3000455905511811
20
0.4527362204724409
11
0.3000456692913386
21
0.4527362204724409
0
LINE
8
BLACK
6
CONTINUOUS
10
0.3000456692913386
20
0.4527362204724409
11
0.3508176771653543
21
0.4527362204724409
0
LINE
8
BLACK
6
CONTINUOUS
10
0.3508176771653543
20
0.4527362204724409
11
0.3512753149606299
21
0.4529694094488189
0
LINE
8
BLACK
6
CONTINUOUS
10
0.3512753149606299
20
0.4529694094488189
11
0.3561417322834646
21
0.4537401574803149
0
LINE
8
BLACK
6
CONTINUOUS
10
0.3561417322834646
20
0.4537401574803149
11
0.3610081496062992
21
0.4529694094488189
0
LINE
8
BLACK
6
CONTINUOUS
10
0.3610081496062992
20
0.4529694094488189
11
0.3614657874015748
21
0.4527362204724409
0
LINE
8
BLACK
6
CONTINUOUS
10
0.3614657874015748
20
0.4527362204724409
11
0.3692456692913386
21
0.4527362204724409
0
LINE
8
BLACK
6
CONTINUOUS
10
0.3692456692913386
20
0.4527362204724409
11
0.3692457480314961
21
0.4527362204724409
0
LINE
8
BLACK
6
CONTINUOUS
10
0.3692457480314961
20
0.4527362204724409
11
0.3753345275590551
21
0.4539473622047244
0
LINE
8
BLACK
6
CONTINUOUS
10
0.3753345275590551
20
0.4539473622047244
11
0.3810700393700787
21
0.4563230708661417
0
LINE
8
BLACK
6
CONTINUOUS
10
0.3810700393700787
20
0.4563230708661417
11
0.3862318503937008
21
0.4597720866141732
0
LINE
8
BLACK
6
CONTINUOUS
10
0.3862318503937008
20
0.4597720866141732
11
0.3906216141732283
21
0.4641618503937008
0
LINE
8
BLACK
6
CONTINUOUS
10
0.3906216141732283
20
0.4641618503937008
11
0.3940706299212599
21
0.4693236614173228
0
LINE
8
BLACK
6
CONTINUOUS
10
0.3940706299212599
20
0.4693236614173228
11
0.3964463385826771
21
0.4750591732283465
0
LINE
8
BLACK
6
CONTINUOUS
10
0.3964463385826771
20
0.4750591732283465
11
0.3976574803149606
21
0.4811479527559055
0
LINE
8
BLACK
6
CONTINUOUS
10
0.3976574803149606
20
0.4811479527559055
11
0.3976574803149606
21
0.484251968503937
0
LINE
8
BLACK
6
CONTINUOUS
10
0.3976574803149606
20
0.484251968503937
11
0.3976574803149606
21
0.4868461417322835
0
LINE
8
BLACK
6
CONTINUOUS
10
0.3976574803149606
20
0.4868461417322835
11
0.3976574803149606
21
0.541964251968504
0
LINE
8
BLACK
6
CONTINUOUS
10
0.3976574803149606
20
0.541964251968504
11
0.3976574803149606
21
0.542474094488189
0
LINE
8
BLACK
6
CONTINUOUS
10
0.3976574803149606
20
0.542474094488189
11
0.3964463385826771
21
0.548562874015748
0
LINE
8
BLACK
6
CONTINUOUS
10
0.3964463385826771
20
0.548562874015748
11
0.3944938582677165
21
0.5532766141732284
0
LINE
8
BLACK
6
CONTINUOUS
10
0.3944938582677165
20
0.5532766141732284
11
0.3940707086614173
21
0.5542982283464567
0
LINE
8
BLACK
6
CONTINUOUS
10
0.3940707086614173
20
0.5542982283464567
11
0.3940706692913385
21
0.5542983070866142
0
LINE
8
BLACK
6
CONTINUOUS
10
0.3940706692913385
20
0.5542983070866142
11
0.3940706299212599
21
0.5542983858267716
0
LINE
8
BLACK
6
CONTINUOUS
10
0.3940706299212599
20
0.5542983858267716
11
0.3906216141732283
21
0.5594601968503937
0
LINE
8
BLACK
6
CONTINUOUS
10
0.3906216141732283
20
0.5594601968503937
11
0.3862318503937008
21
0.5638499606299212
0
LINE
8
BLACK
6
CONTINUOUS
10
0.3862318503937008
20
0.5638499606299212
11
0.3837463779527559
21
0.5655107086614173
0
LINE
8
BLACK
6
CONTINUOUS
10
0.3837463779527559
20
0.5655107086614173
11
0.3825075984251968
21
0.5673646850393701
0
LINE
8
BLACK
6
CONTINUOUS
10
0.3825075984251968
20
0.5673646850393701
11
0.3829425984251968
21
0.5695516535433071
0
LINE
8
BLACK
6
CONTINUOUS
10
0.3829425984251968
20
0.5695516535433071
11
0.3847966141732284
21
0.5707904724409448
0
LINE
8
BLACK
6
CONTINUOUS
10
0.3847966141732284
20
0.5707904724409448
11
0.385365
21
0.5708464566929133
0
LINE
8
BLACK
6
CONTINUOUS
10
0.385365
20
0.5708464566929133
11
0.4258764173228347
21
0.5708464566929133
0
LINE
8
BLACK
6
CONTINUOUS
10
0.4258764173228347
20
0.5708464566929133
11
0.4279364960629921
21
0.5699931496062992
0
LINE
8
BLACK
6
CONTINUOUS
10
0.4279364960629921
20
0.5699931496062992
11
0.428568031496063
21
0.5690479527559055
0
LINE
8
BLACK
6
CONTINUOUS
10
0.428568031496063
20
0.5690479527559055
11
0.4285940551181102
21
0.5689851181102362
0
LINE
8
BLACK
6
CONTINUOUS
10
0.4285940551181102
20
0.5689851181102362
11
0.428594094488189
21
0.568985
0
LINE
8
BLACK
6
CONTINUOUS
10
0.428594094488189
20
0.568985
11
0.4300331889763779
21
0.5655106692913385
0
LINE
8
BLACK
6
CONTINUOUS
10
0.4300331889763779
20
0.5655106692913385
11
0.4319524015748031
21
0.5608772834645669
0
LINE
8
BLACK
6
CONTINUOUS
10
0.4319524015748031
20
0.5608772834645669
11
0.4319525196850393
21
0.560876968503937
0
LINE
8
BLACK
6
CONTINUOUS
10
0.4319525196850393
20
0.560876968503937
11
0.4363405118110236
21
0.5532767716535433
0
LINE
8
BLACK
6
CONTINUOUS
10
0.4363405118110236
20
0.5532767716535433
11
0.4363406692913386
21
0.5532765354330709
0
LINE
8
BLACK
6
CONTINUOUS
10
0.4363406692913386
20
0.5532765354330709
11
0.4416829527559055
21
0.5463142519685039
0
LINE
8
BLACK
6
CONTINUOUS
10
0.4416829527559055
20
0.5463142519685039
11
0.4478890157480315
21
0.5401081889763779
0
LINE
8
BLACK
6
CONTINUOUS
10
0.4478890157480315
20
0.5401081889763779
11
0.4548512992125984
21
0.534765905511811
0
LINE
8
BLACK
6
CONTINUOUS
10
0.4548512992125984
20
0.534765905511811
11
0.4548514173228346
21
0.5347658267716535
0
LINE
8
BLACK
6
CONTINUOUS
10
0.4548514173228346
20
0.5347658267716535
11
0.4624517322834645
21
0.5303777559055118
0
LINE
8
BLACK
6
CONTINUOUS
10
0.4624517322834645
20
0.5303777559055118
11
0.4705598031496063
21
0.5270192913385827
0
LINE
8
BLACK
6
CONTINUOUS
10
0.4705598031496063
20
0.5270192913385827
11
0.4790368897637795
21
0.5247478740157481
0
LINE
8
BLACK
6
CONTINUOUS
10
0.4790368897637795
20
0.5247478740157481
11
0.4877379133858268
21
0.5236023622047244
0
LINE
8
BLACK
6
CONTINUOUS
10
0.4877379133858268
20
0.5236023622047244
11
0.4877379921259842
21
0.5236023622047244
0
LINE
8
BLACK
6
CONTINUOUS
10
0.4877379921259842
20
0.5236023622047244
11
0.4965139763779527
21
0.5236023622047244
0
LINE
8
BLACK
6
CONTINUOUS
10
0.4965139763779527
20
0.5236023622047244
11
0.4965140551181102
21
0.5236023622047244
0
LINE
8
BLACK
6
CONTINUOUS
10
0.4965140551181102
20
0.5236023622047244
11
0.5052150787401575
21
0.5247478740157481
0
LINE
8
BLACK
6
CONTINUOUS
10
0.5052150787401575
20
0.5247478740157481
11
0.5136921653543307
21
0.5270192913385827
0
LINE
8
BLACK
6
CONTINUOUS
10
0.5136921653543307
20
0.5270192913385827
11
0.5218002362204724
21
0.5303777559055118
0
LINE
8
BLACK
6
CONTINUOUS
10
0.5218002362204724
20
0.5303777559055118
11
0.5294005511811023
21
0.5347658267716535
0
LINE
8
BLACK
6
CONTINUOUS
10
0.5294005511811023
20
0.5347658267716535
11
0.5331617716535433
21
0.5376519291338583
0
LINE
8
BLACK
6
CONTINUOUS
10
0.5331617716535433
20
0.5376519291338583
11
0.5363629133858268
21
0.5401081889763779
0
LINE
8
BLACK
6
CONTINUOUS
10
0.5363629133858268
20
0.5401081889763779
11
0.5363629527559055
21
0.5401082677165354
0
LINE
8
BLACK
6
CONTINUOUS
10
0.5363629527559055
20
0.5401082677165354
11
0.5363631496062992
21
0.5401083858267717
0
LINE
8
BLACK
6
CONTINUOUS
10
0.5363631496062992
20
0.5401083858267717
11
0.542568779527559
21
0.5463140157480315
0
LINE
8
BLACK
6
CONTINUOUS
10
0.542568779527559
20
0.5463140157480315
11
0.5442942519685039
21
0.5485626771653543
0
LINE
8
BLACK
6
CONTINUOUS
10
0.5442942519685039
20
0.5485626771653543
11
0.5479112598425196
21
0.5532765354330709
0
LINE
8
BLACK
6
CONTINUOUS
10
0.5479112598425196
20
0.5532765354330709
11
0.5479113385826772
21
0.5532766141732284
0
LINE
8
BLACK
6
CONTINUOUS
10
0.5479113385826772
20
0.5532766141732284
11
0.5522994094488188
21
0.5608769291338582
0
LINE
8
BLACK
6
CONTINUOUS
10
0.5522994094488188
20
0.5608769291338582
11
0.5556578740157481
21
0.568985
0
LINE
8
BLACK
6
CONTINUOUS
10
0.5556578740157481
20
0.568985
11
0.5556578740157481
21
0.5689851181102362
0
LINE
8
BLACK
6
CONTINUOUS
10
0.5556578740157481
20
0.5689851181102362
11
0.555683937007874
21
0.5690479527559055
0
LINE
8
BLACK
6
CONTINUOUS
10
0.555683937007874
20
0.5690479527559055
11
0.5572606299212598
21
0.57062468503937
0
LINE
8
BLACK
6
CONTINUOUS
10
0.5572606299212598
20
0.57062468503937
11
0.5583755511811024
21
0.5708464566929133
0
LINE
8
BLACK
6
CONTINUOUS
10
0.5583755511811024
20
0.5708464566929133
11
0.8195772047244094
21
0.5708464566929133
0
LINE
8
BLACK
6
CONTINUOUS
10
0.8195772047244094
20
0.5708464566929133
11
0.8216372834645669
21
0.5699931496062992
0
LINE
8
BLACK
6
CONTINUOUS
10
0.8216372834645669
20
0.5699931496062992
11
0.8222688188976378
21
0.5690479527559055
0
LINE
8
BLACK
6
CONTINUOUS
10
0.8222688188976378
20
0.5690479527559055
11
0.822294842519685
21
0.5689851181102362
0
LINE
8
BLACK
6
CONTINUOUS
10
0.822294842519685
20
0.5689851181102362
11
0.8222948818897637
21
0.568985
0
LINE
8
BLACK
6
CONTINUOUS
10
0.8222948818897637
20
0.568985
11
0.8237339763779528
21
0.5655106692913385
0
LINE
8
BLACK
6
CONTINUOUS
10
0.8237339763779528
20
0.5655106692913385
11
0.825653188976378
21
0.5608772834645669
0
LINE
8
BLACK
6
CONTINUOUS
10
0.825653188976378
20
0.5608772834645669
11
0.8256533070866141
21
0.560876968503937
0
LINE
8
BLACK
6
CONTINUOUS
10
0.8256533070866141
20
0.560876968503937
11
0.8300412992125984
21
0.5532767716535433
0
LINE
8
BLACK
6
CONTINUOUS
10
0.8300412992125984
20
0.5532767716535433
11
0.8300414566929134
21
0.5532765354330709
0
LINE
8
BLACK
6
CONTINUOUS
10
0.8300414566929134
20
0.5532765354330709
11
0.8353837401574803
21
0.5463142519685039
0
LINE
8
BLACK
6
CONTINUOUS
10
0.8353837401574803
20
0.5463142519685039
11
0.8415898031496063
21
0.5401081889763779
0
LINE
8
BLACK
6
CONTINUOUS
10
0.8415898031496063
20
0.5401081889763779
11
0.8485520866141733
21
0.534765905511811
0
LINE
8
BLACK
6
CONTINUOUS
10
0.8485520866141733
20
0.534765905511811
11
0.8485522047244094
21
0.5347658267716535
0
LINE
8
BLACK
6
CONTINUOUS
10
0.8485522047244094
20
0.5347658267716535
11
0.8561525196850394
21
0.5303777559055118
0
LINE
8
BLACK
6
CONTINUOUS
10
0.8561525196850394
20
0.5303777559055118
11
0.8642605905511811
21
0.5270192913385827
0
LINE
8
BLACK
6
CONTINUOUS
10
0.8642605905511811
20
0.5270192913385827
11
0.8727376771653543
21
0.5247478740157481
0
LINE
8
BLACK
6
CONTINUOUS
10
0.8727376771653543
20
0.5247478740157481
11
0.8814387007874016
21
0.5236023622047244
0
LINE
8
BLACK
6
CONTINUOUS
10
0.8814387007874016
20
0.5236023622047244
11
0.881438779527559
21
0.5236023622047244
0
LINE
8
BLACK
6
CONTINUOUS
10
0.881438779527559
20
0.5236023622047244
11
0.8902147637795276
21
0.5236023622047244
0
LINE
8
BLACK
6
CONTINUOUS
10
0.8902147637795276
20
0.5236023622047244
11
0.890214842519685
21
0.5236023622047244
0
LINE
8
BLACK
6
CONTINUOUS
10
0.890214842519685
20
0.5236023622047244
11
0.8989158661417322
21
0.5247478740157481
0
LINE
8
BLACK
6
CONTINUOUS
10
0.8989158661417322
20
0.5247478740157481
11
0.9073929527559055
21
0.5270192913385827
0
LINE
8
BLACK
6
CONTINUOUS
10
0.9073929527559055
20
0.5270192913385827
11
0.9155010236220472
21
0.5303777559055118
0
LINE
8
BLACK
6
CONTINUOUS
10
0.9155010236220472
20
0.5303777559055118
11
0.9231013385826772
21
0.5347658267716535
0
LINE
8
BLACK
6
CONTINUOUS
10
0.9231013385826772
20
0.5347658267716535
11
0.9268625590551181
21
0.5376519291338583
0
LINE
8
BLACK
6
CONTINUOUS
10
0.9268625590551181
20
0.5376519291338583
11
0.9300637007874015
21
0.5401081889763779
0
LINE
8
BLACK
6
CONTINUOUS
10
0.9300637007874015
20
0.5401081889763779
11
0.9300637401574803
21
0.5401082677165354
0
LINE
8
BLACK
6
CONTINUOUS
10
0.9300637401574803
20
0.5401082677165354
11
0.930063937007874
21
0.5401083858267717
0
LINE
8
BLACK
6
CONTINUOUS
10
0.930063937007874
20
0.5401083858267717
11
0.9362695669291339
21
0.5463140157480315
0
LINE
8
BLACK
6
CONTINUOUS
10
0.9362695669291339
20
0.5463140157480315
11
0.9379950393700787
21
0.5485626771653543
0
LINE
8
BLACK
6
CONTINUOUS
10
0.9379950393700787
20
0.5485626771653543
11
0.9416120472440944
21
0.5532765354330709
0
LINE
8
BLACK
6
CONTINUOUS
10
0.9416120472440944
20
0.5532765354330709
11
0.9416121259842519
21
0.5532766141732284
0
LINE
8
BLACK
6
CONTINUOUS
10
0.9416121259842519
20
0.5532766141732284
11
0.9460001968503937
21
0.5608769291338582
0
LINE
8
BLACK
6
CONTINUOUS
10
0.9460001968503937
20
0.5608769291338582
11
0.9493586614173228
21
0.568985
0
LINE
8
BLACK
6
CONTINUOUS
10
0.9493586614173228
20
0.568985
11
0.9493586614173228
21
0.5689851181102362
0
LINE
8
BLACK
6
CONTINUOUS
10
0.9493586614173228
20
0.5689851181102362
11
0.9493847244094488
21
0.5690479527559055
0
LINE
8
BLACK
6
CONTINUOUS
10
0.9493847244094488
20
0.5690479527559055
11
0.9509614173228347
21
0.57062468503937
0
LINE
8
BLACK
6
CONTINUOUS
10
0.9509614173228347
20
0.57062468503937
11
0.9520763385826772
21
0.5708464566929133
0
LINE
8
BLACK
6
CONTINUOUS
10
0.9520763385826772
20
0.5708464566929133
11
1.1584842519685039
21
0.5708464566929133
0
LINE
8
BLACK
6
CONTINUOUS
10
1.1584842519685039
20
0.5708464566929133
11
1.1605443307086614
21
0.5699931496062992
0
LINE
8
BLACK
6
CONTINUOUS
10
1.1605443307086614
20
0.5699931496062992
11
1.1613976377952755
21
0.5679330708661418
0
LINE
8
BLACK
6
CONTINUOUS
10
1.1613976377952755
20
0.5679330708661418
11
1.1613976377952755
21
0.2684431102362205
0
LINE
8
BLACK
6
CONTINUOUS
10
1.1613976377952755
20
0.2684431102362205
11
1.1605443307086614
21
0.266383031496063
0
LINE
8
BLACK
6
CONTINUOUS
10
1.1605443307086614
20
0.266383031496063
11
1.1584842519685039
21
0.2655297244094488
0
LINE
8
BLACK
6
CONTINUOUS
10
1.1584842519685039
20
0.2655297244094488
11
1.1573693700787402
21
0.2657514960629921
0
LINE
8
BLACK
6
CONTINUOUS
10
1.1573693700787402
20
0.2657514960629921
11
1.1518607874015747
21
0.2680332283464567
0
LINE
8
BLACK
6
CONTINUOUS
10
1.1518607874015747
20
0.2680332283464567
11
1.1518606299212599
21
0.2680332677165354
0
LINE
8
BLACK
6
CONTINUOUS
10
1.1518606299212599
20
0.2680332677165354
11
1.1456889763779528
21
0.2688457480314961
0
LINE
8
BLACK
6
CONTINUOUS
10
1.1456889763779528
20
0.2688457480314961
11
1.1395172834645668
21
0.2680332677165354
0
LINE
8
BLACK
6
CONTINUOUS
10
1.1395172834645668
20
0.2680332677165354
11
1.1395172440944881
21
0.2680332677165354
0
LINE
8
BLACK
6
CONTINUOUS
10
1.1395172440944881
20
0.2680332677165354
11
1.133766062992126
21
0.2656510236220472
0
LINE
8
BLACK
6
CONTINUOUS
10
1.133766062992126
20
0.2656510236220472
11
1.128827559055118
21
0.2618616141732283
0
LINE
8
BLACK
6
CONTINUOUS
10
1.128827559055118
20
0.2618616141732283
11
1.1288273622047245
21
0.2618614173228346
0
LINE
8
BLACK
6
CONTINUOUS
10
1.1288273622047245
20
0.2618614173228346
11
1.1250379527559056
21
0.2569229133858268
0
LINE
8
BLACK
6
CONTINUOUS
10
1.1250379527559056
20
0.2569229133858268
11
1.1226557086614173
21
0.2511717322834646
0
LINE
8
BLACK
6
CONTINUOUS
10
1.1226557086614173
20
0.2511717322834646
11
1.1226557086614173
21
0.2511716929133858
0
LINE
8
BLACK
6
CONTINUOUS
10
1.1226557086614173
20
0.2511716929133858
11
1.1218432283464568
21
0.2450000393700787
0
LINE
8
BLACK
6
CONTINUOUS
10
1.1218432283464568
20
0.2450000393700787
11
1.1218432283464568
21
0.244809094488189
0
LINE
8
BLACK
6
CONTINUOUS
10
1.1218432283464568
20
0.244809094488189
11
1.1217692125984251
21
0.244809094488189
0
LINE
8
BLACK
6
CONTINUOUS
10
1.1217692125984251
20
0.244809094488189
11
1.121258188976378
21
0.2429033464566929
0
LINE
8
BLACK
6
CONTINUOUS
10
1.121258188976378
20
0.2429033464566929
11
1.1210074015748031
21
0.2426174015748031
0
LINE
8
BLACK
6
CONTINUOUS
10
1.1210074015748031
20
0.2426174015748031
11
1.1204737401574802
21
0.2420837795275591
0
LINE
8
BLACK
6
CONTINUOUS
10
1.1204737401574802
20
0.2420837795275591
11
1.1184138188976378
21
0.2412303149606299
0
LINE
8
BLACK
6
CONTINUOUS
10
1.1184138188976378
20
0.2412303149606299
11
0.7286748818897638
21
0.2412303149606299
0
LINE
8
BLACK
6
CONTINUOUS
10
0.7286748818897638
20
0.2412303149606299
11
0.7266148031496062
21
0.2420836220472441
0
LINE
8
BLACK
6
CONTINUOUS
10
0.7266148031496062
20
0.2420836220472441
11
0.7264398031496063
21
0.2422831496062992
0
LINE
8
BLACK
6
CONTINUOUS
10
0.7264398031496063
20
0.2422831496062992
11
0.7263987007874015
21
0.2423242913385827
0
LINE
8
BLACK
6
CONTINUOUS
10
0.7263987007874015
20
0.2423242913385827
11
0.7224192519685039
21
0.2453777952755905
0
LINE
8
BLACK
6
CONTINUOUS
10
0.7224192519685039
20
0.2453777952755905
11
0.7213043307086614
21
0.2473088582677165
0
LINE
8
BLACK
6
CONTINUOUS
10
0.7213043307086614
20
0.2473088582677165
11
0.7218814566929134
21
0.2494626771653543
0
LINE
8
BLACK
6
CONTINUOUS
10
0.7218814566929134
20
0.2494626771653543
11
0.7224192519685039
21
0.2500004724409449
0
LINE
8
BLACK
6
CONTINUOUS
10
0.7224192519685039
20
0.2500004724409449
11
0.7224424409448819
21
0.2500182677165354
0
LINE
8
BLACK
6
CONTINUOUS
10
0.7224424409448819
20
0.2500182677165354
11
0.7267231496062992
21
0.2533029527559055
0
LINE
8
BLACK
6
CONTINUOUS
10
0.7267231496062992
20
0.2533029527559055
11
0.7305126771653543
21
0.2582415748031496
0
LINE
8
BLACK
6
CONTINUOUS
10
0.7305126771653543
20
0.2582415748031496
11
0.7328948818897638
21
0.263992716535433
0
LINE
8
BLACK
6
CONTINUOUS
10
0.7328948818897638
20
0.263992716535433
11
0.7337074015748032
21
0.2701644488188976
0
LINE
8
BLACK
6
CONTINUOUS
10
0.7337074015748032
20
0.2701644488188976
11
0.7328948818897638
21
0.2763361811023622
0
LINE
8
BLACK
6
CONTINUOUS
10
0.7328948818897638
20
0.2763361811023622
11
0.7305126771653543
21
0.2820873228346457
0
LINE
8
BLACK
6
CONTINUOUS
10
0.7305126771653543
20
0.2820873228346457
11
0.7283027559055117
21
0.2849673622047244
0
LINE
8
BLACK
6
CONTINUOUS
10
0.7283027559055117
20
0.2849673622047244
11
0.7267232283464566
21
0.2870258661417323
0
LINE
8
BLACK
6
CONTINUOUS
10
0.7267232283464566
20
0.2870258661417323
11
0.726723031496063
21
0.287026062992126
0
LINE
8
BLACK
6
CONTINUOUS
10
0.726723031496063
20
0.287026062992126
11
0.7217845275590551
21
0.2908154724409449
0
LINE
8
BLACK
6
CONTINUOUS
10
0.7217845275590551
20
0.2908154724409449
11
0.7160333464566929
21
0.2931977165354331
0
LINE
8
BLACK
6
CONTINUOUS
10
0.7160333464566929
20
0.2931977165354331
11
0.7106741338582677
21
0.2939032677165354
0
LINE
8
BLACK
6
CONTINUOUS
10
0.7106741338582677
20
0.2939032677165354
11
0.7098616535433071
21
0.2940101968503937
0
LINE
8
BLACK
6
CONTINUOUS
10
0.7098616535433071
20
0.2940101968503937
11
0.7098616141732284
21
0.2940101968503937
0
LINE
8
BLACK
6
CONTINUOUS
10
0.7098616141732284
20
0.2940101968503937
11
0.7074591338582678
21
0.293693937007874
0
LINE
8
BLACK
6
CONTINUOUS
10
0.7074591338582678
20
0.293693937007874
11
0.7053053149606299
21
0.294271062992126
0
LINE
8
BLACK
6
CONTINUOUS
10
0.7053053149606299
20
0.294271062992126
11
0.7050188188976377
21
0.2945223228346457
0
LINE
8
BLACK
6
CONTINUOUS
10
0.7050188188976377
20
0.2945223228346457
11
0.6834990157480315
21
0.316042125984252
0
LINE
8
BLACK
6
CONTINUOUS
10
0.6834990157480315
20
0.316042125984252
11
0.6803524409448819
21
0.3178588188976378
0
LINE
8
BLACK
6
CONTINUOUS
10
0.6803524409448819
20
0.3178588188976378
11
0.6802615354330709
21
0.317883188976378
0
LINE
8
BLACK
6
CONTINUOUS
10
0.6802615354330709
20
0.317883188976378
11
0.680104094488189
21
0.3179253543307087
0
LINE
8
BLACK
6
CONTINUOUS
10
0.680104094488189
20
0.3179253543307087
11
0.6768428740157481
21
0.3187992125984252
0
LINE
8
BLACK
6
CONTINUOUS
10
0.6768428740157481
20
0.3187992125984252
11
0.6768427952755905
21
0.3187992125984252
0
LINE
8
BLACK
6
CONTINUOUS
10
0.6768427952755905
20
0.3187992125984252
11
0.6756483858267717
21
0.3187992125984252
0
LINE
8
BLACK
6
CONTINUOUS
10
0.6756483858267717
20
0.3187992125984252
11
0.6735883070866142
21
0.3196525196850394
0
LINE
8
BLACK
6
CONTINUOUS
10
0.6735883070866142
20
0.3196525196850394
11
0.6733370472440945
21
0.3199390551181102
0
LINE
8
BLACK
6
CONTINUOUS
10
0.6733370472440945
20
0.3199390551181102
11
0.671861968503937
21
0.3218614173228346
0
LINE
8
BLACK
6
CONTINUOUS
10
0.671861968503937
20
0.3218614173228346
11
0.6718617716535433
21
0.3218616141732283
0
LINE
8
BLACK
6
CONTINUOUS
10
0.6718617716535433
20
0.3218616141732283
11
0.6669232677165354
21
0.3256510236220472
0
LINE
8
BLACK
6
CONTINUOUS
10
0.6669232677165354
20
0.3256510236220472
11
0.6611720866141733
21
0.3280332677165354
0
LINE
8
BLACK
6
CONTINUOUS
10
0.6611720866141733
20
0.3280332677165354
11
0.6550003937007874
21
0.3288457480314961
0
LINE
8
BLACK
6
CONTINUOUS
10
0.6550003937007874
20
0.3288457480314961
11
0.6488287007874015
21
0.3280332677165354
0
LINE
8
BLACK
6
CONTINUOUS
10
0.6488287007874015
20
0.3280332677165354
11
0.6488286614173229
21
0.3280332677165354
0
LINE
8
BLACK
6
CONTINUOUS
10
0.6488286614173229
20
0.3280332677165354
11
0.6430774803149606
21
0.3256510236220472
0
LINE
8
BLACK
6
CONTINUOUS
10
0.6430774803149606
20
0.3256510236220472
11
0.6381389763779527
21
0.3218616141732283
0
LINE
8
BLACK
6
CONTINUOUS
10
0.6381389763779527
20
0.3218616141732283
11
0.638138779527559
21
0.3218614173228346
0
LINE
8
BLACK
6
CONTINUOUS
10
0.638138779527559
20
0.3218614173228346
11
0.6343493700787401
21
0.3169229133858268
0
LINE
8
BLACK
6
CONTINUOUS
10
0.6343493700787401
20
0.3169229133858268
11
0.631967125984252
21
0.3111717322834646
0
LINE
8
BLACK
6
CONTINUOUS
10
0.631967125984252
20
0.3111717322834646
11
0.631967125984252
21
0.3111716929133858
0
LINE
8
BLACK
6
CONTINUOUS
10
0.631967125984252
20
0.3111716929133858
11
0.6311546456692914
21
0.305
0
LINE
8
BLACK
6
CONTINUOUS
10
0.6311546456692914
20
0.305
11
0.631470905511811
21
0.3025975590551181
0
LINE
8
BLACK
6
CONTINUOUS
10
0.631470905511811
20
0.3025975590551181
11
0.6308937795275591
21
0.3004437401574803
0
LINE
8
BLACK
6
CONTINUOUS
10
0.6308937795275591
20
0.3004437401574803
11
0.6306425196850394
21
0.3001572440944882
0
LINE
8
BLACK
6
CONTINUOUS
10
0.6306425196850394
20
0.3001572440944882
11
0.615137874015748
21
0.2846525196850394
0
LINE
8
BLACK
6
CONTINUOUS
10
0.615137874015748
20
0.2846525196850394
11
0.6130777952755906
21
0.2837992125984252
0
LINE
8
BLACK
6
CONTINUOUS
10
0.6130777952755906
20
0.2837992125984252
11
0.2706479921259842
21
0.2837992125984252
0
LINE
8
BLACK
6
CONTINUOUS
10
0.2706479921259842
20
0.2837992125984252
11
0.2685879133858268
21
0.2846525196850394
0
LINE
8
BLACK
6
CONTINUOUS
10
0.2685879133858268
20
0.2846525196850394
11
0.2683368897637795
21
0.2849387401574803
0
LINE
8
BLACK
6
CONTINUOUS
10
0.2683368897637795
20
0.2849387401574803
11
0.2683149212598425
21
0.2849673622047244
0
LINE
8
BLACK
6
CONTINUOUS
10
0.2683149212598425
20
0.2849673622047244
11
0.2677375196850393
21
0.2871211023622047
0
LINE
8
BLACK
6
CONTINUOUS
10
0.2677375196850393
20
0.2871211023622047
11
0.2688521653543307
21
0.2890523228346457
0
LINE
8
BLACK
6
CONTINUOUS
10
0.2688521653543307
20
0.2890523228346457
11
0.2702457086614173
21
0.2896296850393701
0
LINE
8
BLACK
6
CONTINUOUS
10
0.2702457086614173
20
0.2896296850393701
11
0.2727465354330709
21
0.2899588976377953
0
LINE
8
BLACK
6
CONTINUOUS
10
0.2727465354330709
20
0.2899588976377953
11
0.2784976771653543
21
0.2923411023622047
0
LINE
8
BLACK
6
CONTINUOUS
10
0.2784976771653543
20
0.2923411023622047
11
0.2834362992125984
21
0.2961306299212598
0
LINE
8
BLACK
6
CONTINUOUS
10
0.2834362992125984
20
0.2961306299212598
11
0.2839494488188976
21
0.2967994094488189
0
LINE
8
BLACK
6
CONTINUOUS
10
0.2839494488188976
20
0.2967994094488189
11
0.2849114566929134
21
0.2980530708661417
0
LINE
8
BLACK
6
CONTINUOUS
10
0.2849114566929134
20
0.2980530708661417
11
0.2868425196850394
21
0.2991679921259843
0
LINE
8
BLACK
6
CONTINUOUS
10
0.2868425196850394
20
0.2991679921259843
11
0.2872227952755905
21
0.2991929133858268
0
LINE
8
BLACK
6
CONTINUOUS
10
0.2872227952755905
20
0.2991929133858268
11
0.5558888976377953
21
0.2991929133858268
0
LINE
8
BLACK
6
CONTINUOUS
10
0.5558888976377953
20
0.2991929133858268
11
0.5576624409448819
21
0.2985908661417323
0
LINE
8
BLACK
6
CONTINUOUS
10
0.5576624409448819
20
0.2985908661417323
11
0.5605484645669291
21
0.2963763385826771
0
LINE
8
BLACK
6
CONTINUOUS
10
0.5605484645669291
20
0.2963763385826771
11
0.5626994881889764
21
0.2947258267716535
0
LINE
8
BLACK
6
CONTINUOUS
10
0.5626994881889764
20
0.2947258267716535
11
0.5684506299212598
21
0.2923436220472441
0
LINE
8
BLACK
6
CONTINUOUS
10
0.5684506299212598
20
0.2923436220472441
11
0.5746223622047244
21
0.2915311023622047
0
LINE
8
BLACK
6
CONTINUOUS
10
0.5746223622047244
20
0.2915311023622047
11
0.580794094488189
21
0.2923436220472441
0
LINE
8
BLACK
6
CONTINUOUS
10
0.580794094488189
20
0.2923436220472441
11
0.5865452362204724
21
0.2947258267716535
0
LINE
8
BLACK
6
CONTINUOUS
10
0.5865452362204724
20
0.2947258267716535
11
0.5914838582677165
21
0.2985153543307086
0
LINE
8
BLACK
6
CONTINUOUS
10
0.5914838582677165
20
0.2985153543307086
11
0.5952733858267717
21
0.3034539763779527
0
LINE
8
BLACK
6
CONTINUOUS
10
0.5952733858267717
20
0.3034539763779527
11
0.5976555905511811
21
0.3092051181102362
0
LINE
8
BLACK
6
CONTINUOUS
10
0.5976555905511811
20
0.3092051181102362
11
0.5984681102362205
21
0.3153768503937008
0
LINE
8
BLACK
6
CONTINUOUS
10
0.5984681102362205
20
0.3153768503937008
11
0.5976555905511811
21
0.3215485826771654
0
LINE
8
BLACK
6
CONTINUOUS
10
0.5976555905511811
20
0.3215485826771654
11
0.5952733858267717
21
0.3272997244094488
0
LINE
8
BLACK
6
CONTINUOUS
10
0.5952733858267717
20
0.3272997244094488
11
0.593313779527559
21
0.3298535433070866
0
LINE
8
BLACK
6
CONTINUOUS
10
0.593313779527559
20
0.3298535433070866
11
0.591483937007874
21
0.3322382677165354
0
LINE
8
BLACK
6
CONTINUOUS
10
0.591483937007874
20
0.3322382677165354
11
0.5914837401574803
21
0.3322384645669291
0
LINE
8
BLACK
6
CONTINUOUS
10
0.5914837401574803
20
0.3322384645669291
11
0.5865452362204724
21
0.336027874015748
0
LINE
8
BLACK
6
CONTINUOUS
10
0.5865452362204724
20
0.336027874015748
11
0.5807940551181102
21
0.3384101181102362
0
LINE
8
BLACK
6
CONTINUOUS
10
0.5807940551181102
20
0.3384101181102362
11
0.5746223622047244
21
0.3392225984251969
0
LINE
8
BLACK
6
CONTINUOUS
10
0.5746223622047244
20
0.3392225984251969
11
0.5684506692913386
21
0.3384101181102362
0
LINE
8
BLACK
6
CONTINUOUS
10
0.5684506692913386
20
0.3384101181102362
11
0.5684506299212598
21
0.3384101181102362
0
LINE
8
BLACK
6
CONTINUOUS
10
0.5684506299212598
20
0.3384101181102362
11
0.5626994488188977
21
0.336027874015748
0
LINE
8
BLACK
6
CONTINUOUS
10
0.5626994488188977
20
0.336027874015748
11
0.5577609448818898
21
0.3322384645669291
0
LINE
8
BLACK
6
CONTINUOUS
10
0.5577609448818898
20
0.3322384645669291
11
0.557760748031496
21
0.3322382677165354
0
LINE
8
BLACK
6
CONTINUOUS
10
0.557760748031496
20
0.3322382677165354
11
0.5544558267716535
21
0.3279311811023622
0
LINE
8
BLACK
6
CONTINUOUS
10
0.5544558267716535
20
0.3279311811023622
11
0.5525247637795275
21
0.3268162598425197
0
LINE
8
BLACK
6
CONTINUOUS
10
0.5525247637795275
20
0.3268162598425197
11
0.5521444881889763
21
0.3267913385826772
0
LINE
8
BLACK
6
CONTINUOUS
10
0.5521444881889763
20
0.3267913385826772
11
0.2872227952755905
21
0.3267913385826772
0
LINE
8
BLACK
6
CONTINUOUS
10
0.2872227952755905
20
0.3267913385826772
11
0.2851627165354331
21
0.3276446456692914
0
LINE
8
BLACK
6
CONTINUOUS
10
0.2851627165354331
20
0.3276446456692914
11
0.2849114566929134
21
0.3279311811023622
0
LINE
8
BLACK
6
CONTINUOUS
10
0.2849114566929134
20
0.3279311811023622
11
0.2834363779527559
21
0.3298535433070866
0
LINE
8
BLACK
6
CONTINUOUS
10
0.2834363779527559
20
0.3298535433070866
11
0.2834361811023622
21
0.3298537401574803
0
LINE
8
BLACK
6
CONTINUOUS
10
0.2834361811023622
20
0.3298537401574803
11
0.2784976771653543
21
0.3336431496062992
0
LINE
8
BLACK
6
CONTINUOUS
10
0.2784976771653543
20
0.3336431496062992
11
0.2727464960629921
21
0.3360253937007874
0
LINE
8
BLACK
6
CONTINUOUS
10
0.2727464960629921
20
0.3360253937007874
11
0.2665748031496063
21
0.3368378740157481
0
LINE
8
BLACK
6
CONTINUOUS
10
0.2665748031496063
20
0.3368378740157481
11
0.2604031102362205
21
0.3360253937007874
0
LINE
8
BLACK
6
CONTINUOUS
10
0.2604031102362205
20
0.3360253937007874
11
0.2604030708661417
21
0.3360253937007874
0
LINE
8
BLACK
6
CONTINUOUS
10
0.2604030708661417
20
0.3360253937007874
11
0.2546518897637795
21
0.3336431496062992
0
LINE
8
BLACK
6
CONTINUOUS
10
0.2546518897637795
20
0.3336431496062992
11
0.2497133858267717
21
0.3298537401574803
0
LINE
8
BLACK
6
CONTINUOUS
10
0.2497133858267717
20
0.3298537401574803
11
0.249713188976378
21
0.3298535433070866
0
LINE
8
BLACK
6
CONTINUOUS
10
0.249713188976378
20
0.3298535433070866
11
0.2459237795275591
21
0.3249150393700787
0
LINE
8
BLACK
6
CONTINUOUS
10
0.2459237795275591
20
0.3249150393700787
11
0.243641968503937
21
0.3194063385826771
0
LINE
8
BLACK
6
CONTINUOUS
10
0.243641968503937
20
0.3194063385826771
11
0.2420652362204724
21
0.3178296456692913
0
LINE
8
BLACK
6
CONTINUOUS
10
0.2420652362204724
20
0.3178296456692913
11
0.2398354330708661
21
0.3178296456692913
0
LINE
8
BLACK
6
CONTINUOUS
10
0.2398354330708661
20
0.3178296456692913
11
0.2388902755905512
21
0.3184611811023622
0
LINE
8
BLACK
6
CONTINUOUS
10
0.2388902755905512
20
0.3184611811023622
11
0.2330462204724409
21
0.3243052362204724
0
LINE
8
BLACK
6
CONTINUOUS
10
0.2330462204724409
20
0.3243052362204724
11
0.2321929133858268
21
0.3263653149606299
0
LINE
8
BLACK
6
CONTINUOUS
10
0.2321929133858268
20
0.3263653149606299
11
0.2321929133858268
21
0.3270966141732283
0
LINE
8
BLACK
6
CONTINUOUS
10
0.2321929133858268
20
0.3270966141732283
11
0.2321929133858268
21
0.3270968503937008
0
LINE
8
BLACK
6
CONTINUOUS
10
0.2321929133858268
20
0.3270968503937008
11
0.2318020866141732
21
0.3297792519685039
0
LINE
8
BLACK
6
CONTINUOUS
10
0.2318020866141732
20
0.3297792519685039
11
0.2297794488188976
21
0.3339166535433071
0
LINE
8
BLACK
6
CONTINUOUS
10
0.2297794488188976
20
0.3339166535433071
11
0.2265229527559055
21
0.3371731496062992
0
LINE
8
BLACK
6
CONTINUOUS
10
0.2265229527559055
20
0.3371731496062992
11
0.2265229133858268
21
0.3371731889763779
0
LINE
8
BLACK
6
CONTINUOUS
10
0.2265229133858268
20
0.3371731889763779
11
0.2223855905511811
21
0.3391957874015748
0
LINE
8
BLACK
6
CONTINUOUS
10
0.2223855905511811
20
0.3391957874015748
11
0.2197033070866142
21
0.3395866141732283
0
LINE
8
BLACK
6
CONTINUOUS
10
0.2197033070866142
20
0.3395866141732283
11
0.2197031496062992
21
0.3395866141732283
0
LINE
8
BLACK
6
CONTINUOUS
10
0.2197031496062992
20
0.3395866141732283
11
0.1619661417322835
21
0.3395866141732283
0
LINE
8
BLACK
6
CONTINUOUS
10
0.1619661417322835
20
0.3395866141732283
11
0.1619659448818898
21
0.3395866141732283
0
LINE
8
BLACK
6
CONTINUOUS
10
0.1619659448818898
20
0.3395866141732283
11
0.1592837007874016
21
0.3391957874015748
0
LINE
8
BLACK
6
CONTINUOUS
10
0.1592837007874016
20
0.3391957874015748
11
0.1592836614173228
21
0.3391957874015748
0
LINE
8
BLACK
6
CONTINUOUS
10
0.1592836614173228
20
0.3391957874015748
11
0.1551463385826772
21
0.3371731889763779
0
LINE
8
BLACK
6
CONTINUOUS
10
0.1551463385826772
20
0.3371731889763779
11
0.1518898031496063
21
0.3339166535433071
0
LINE
8
BLACK
6
CONTINUOUS
10
0.1518898031496063
20
0.3339166535433071
11
0.1498672047244095
21
0.3297793307086614
0
LINE
8
BLACK
6
CONTINUOUS
10
0.1498672047244095
20
0.3297793307086614
11
0.1498672047244095
21
0.3297792913385827
0
LINE
8
BLACK
6
CONTINUOUS
10
0.1498672047244095
20
0.3297792913385827
11
0.1494763779527559
21
0.3270970472440945
0
LINE
8
BLACK
6
CONTINUOUS
10
0.1494763779527559
20
0.3270970472440945
11
0.1494763779527559
21
0.3126667716535433
0
LINE
8
BLACK
6
CONTINUOUS
10
0.1494763779527559
20
0.3126667716535433
11
0.1498672047244095
21
0.3099845275590551
0
LINE
8
BLACK
6
CONTINUOUS
10
0.1498672047244095
20
0.3099845275590551
11
0.1498672047244095
21
0.3099844881889764
0
LINE
8
BLACK
6
CONTINUOUS
10
0.1498672047244095
20
0.3099844881889764
11
0.1518898031496063
21
0.3058471653543307
0
LINE
8
BLACK
6
CONTINUOUS
10
0.1518898031496063
20
0.3058471653543307
11
0.151889842519685
21
0.305847125984252
0
LINE
8
BLACK
6
CONTINUOUS
10
0.151889842519685
20
0.305847125984252
11
0.1551463385826772
21
0.3025906299212598
0
LINE
8
BLACK
6
CONTINUOUS
10
0.1551463385826772
20
0.3025906299212598
11
0.1592837401574803
21
0.3005679921259842
0
LINE
8
BLACK
6
CONTINUOUS
10
0.1592837401574803
20
0.3005679921259842
11
0.1619661417322835
21
0.3001771653543307
0
LINE
8
BLACK
6
CONTINUOUS
10
0.1619661417322835
20
0.3001771653543307
11
0.2113696456692913
21
0.3001771653543307
0
LINE
8
BLACK
6
CONTINUOUS
10
0.2113696456692913
20
0.3001771653543307
11
0.2134297244094488
21
0.2993238582677165
0
LINE
8
BLACK
6
CONTINUOUS
10
0.2134297244094488
20
0.2993238582677165
11
0.2174061023622047
21
0.2953474803149606
0
LINE
8
BLACK
6
CONTINUOUS
10
0.2174061023622047
20
0.2953474803149606
11
0.2182594094488189
21
0.2932874015748032
0
LINE
8
BLACK
6
CONTINUOUS
10
0.2182594094488189
20
0.2932874015748032
11
0.2174061023622047
21
0.2912273228346456
0
LINE
8
BLACK
6
CONTINUOUS
10
0.2174061023622047
20
0.2912273228346456
11
0.2153460236220472
21
0.2903740157480315
0
LINE
8
BLACK
6
CONTINUOUS
10
0.2153460236220472
20
0.2903740157480315
11
0.1619659448818898
21
0.2903740157480315
0
LINE
8
BLACK
6
CONTINUOUS
10
0.1619659448818898
20
0.2903740157480315
11
0.1592837007874016
21
0.2899831889763779
0
LINE
8
BLACK
6
CONTINUOUS
10
0.1592837007874016
20
0.2899831889763779
11
0.1592836614173228
21
0.2899831889763779
0
LINE
8
BLACK
6
CONTINUOUS
10
0.1592836614173228
20
0.2899831889763779
11
0.1551463385826772
21
0.2879605905511811
0
LINE
8
BLACK
6
CONTINUOUS
10
0.1551463385826772
20
0.2879605905511811
11
0.1544761023622047
21
0.2872903149606299
0
LINE
8
BLACK
6
CONTINUOUS
10
0.1544761023622047
20
0.2872903149606299
11
0.1524160236220472
21
0.2864370078740157
0
LINE
8
BLACK
6
CONTINUOUS
10
0.1524160236220472
20
0.2864370078740157
11
0.1313422047244094
21
0.2864370078740157
0
LINE
8
BLACK
6
CONTINUOUS
10
0.1313422047244094
20
0.2864370078740157
11
0.129282125984252
21
0.2872903149606299
0
LINE
8
BLACK
6
CONTINUOUS
10
0.129282125984252
20
0.2872903149606299
11
0.129107125984252
21
0.287489842519685
0
LINE
8
BLACK
6
CONTINUOUS
10
0.129107125984252
20
0.287489842519685
11
0.1290660236220472
21
0.2875309842519685
0
LINE
8
BLACK
6
CONTINUOUS
10
0.1290660236220472
20
0.2875309842519685
11
0.1241275984251968
21
0.2913203149606299
0
LINE
8
BLACK
6
CONTINUOUS
10
0.1241275984251968
20
0.2913203149606299
11
0.1183764173228346
21
0.2937025590551181
0
LINE
8
BLACK
6
CONTINUOUS
10
0.1183764173228346
20
0.2937025590551181
11
0.1122047244094488
21
0.2945150393700787
0
LINE
8
BLACK
6
CONTINUOUS
10
0.1122047244094488
20
0.2945150393700787
11
0.106033031496063
21
0.2937025590551181
0
LINE
8
BLACK
6
CONTINUOUS
10
0.106033031496063
20
0.2937025590551181
11
0.1060329921259842
21
0.2937025590551181
0
LINE
8
BLACK
6
CONTINUOUS
10
0.1060329921259842
20
0.2937025590551181
11
0.100281811023622
21
0.2913203149606299
0
LINE
8
BLACK
6
CONTINUOUS
10
0.100281811023622
20
0.2913203149606299
11
0.0953433070866142
21
0.287530905511811
0
LINE
8
BLACK
6
CONTINUOUS
10
0.0953433070866142
20
0.287530905511811
11
0.0953431102362205
21
0.2875307086614173
0
LINE
8
BLACK
6
CONTINUOUS
10
0.0953431102362205
20
0.2875307086614173
11
0.0915537007874016
21
0.2825922047244094
0
LINE
8
BLACK
6
CONTINUOUS
10
0.0915537007874016
20
0.2825922047244094
11
0.0891714566929134
21
0.2768410236220472
0
LINE
8
BLACK
6
CONTINUOUS
10
0.0891714566929134
20
0.2768410236220472
11
0.0891714566929134
21
0.2768409842519685
0
LINE
8
BLACK
6
CONTINUOUS
10
0.0891714566929134
20
0.2768409842519685
11
0.0883589763779528
21
0.2706692913385827
0
LINE
8
BLACK
6
CONTINUOUS
10
0.0883589763779528
20
0.2706692913385827
11
0.0891714566929134
21
0.2644976377952756
0
LINE
8
BLACK
6
CONTINUOUS
10
0.0891714566929134
20
0.2644976377952756
11
0.0891714566929134
21
0.2644975984251968
0
LINE
8
BLACK
6
CONTINUOUS
10
0.0891714566929134
20
0.2644975984251968
11
0.0915537007874016
21
0.2587464173228347
0
LINE
8
BLACK
6
CONTINUOUS
10
0.0915537007874016
20
0.2587464173228347
11
0.0953431102362205
21
0.2538079133858268
0
LINE
8
BLACK
6
CONTINUOUS
10
0.0953431102362205
20
0.2538079133858268
11
0.0953433070866142
21
0.253807716535433
0
LINE
8
BLACK
6
CONTINUOUS
10
0.0953433070866142
20
0.253807716535433
11
0.0985392519685039
21
0.2513553937007874
0
LINE
8
BLACK
6
CONTINUOUS
10
0.0985392519685039
20
0.2513553937007874
11
0.1002818503937008
21
0.2500182677165354
0
LINE
8
BLACK
6
CONTINUOUS
10
0.1002818503937008
20
0.2500182677165354
11
0.1060329921259842
21
0.247636062992126
0
LINE
8
BLACK
6
CONTINUOUS
10
0.1060329921259842
20
0.247636062992126
11
0.1122047244094488
21
0.2468235433070866
0
LINE
8
BLACK
6
CONTINUOUS
10
0.1122047244094488
20
0.2468235433070866
11
0.1183764566929134
21
0.247636062992126
0
LINE
8
BLACK
6
CONTINUOUS
10
0.1183764566929134
20
0.247636062992126
11
0.1241275984251968
21
0.2500182677165354
0
LINE
8
BLACK
6
CONTINUOUS
10
0.1241275984251968
20
0.2500182677165354
11
0.1290662204724409
21
0.2538077952755906
0
LINE
8
BLACK
6
CONTINUOUS
10
0.1290662204724409
20
0.2538077952755906
11
0.1290663385826772
21
0.2538079921259843
0
LINE
8
BLACK
6
CONTINUOUS
10
0.1290663385826772
20
0.2538079921259843
11
0.129201062992126
21
0.2539426771653543
0
LINE
8
BLACK
6
CONTINUOUS
10
0.129201062992126
20
0.2539426771653543
11
0.1292534251968504
21
0.2538903149606299
0
LINE
8
BLACK
6
CONTINUOUS
10
0.1292534251968504
20
0.2538903149606299
11
0.1309620078740157
21
0.2548766535433071
0
LINE
8
BLACK
6
CONTINUOUS
10
0.1309620078740157
20
0.2548766535433071
11
0.1313422047244094
21
0.2549015748031496
0
LINE
8
BLACK
6
CONTINUOUS
10
0.1313422047244094
20
0.2549015748031496
11
0.1483018110236221
21
0.2549015748031496
0
LINE
8
BLACK
6
CONTINUOUS
10
0.1483018110236221
20
0.2549015748031496
11
0.1503618897637795
21
0.2540482677165354
0
LINE
8
BLACK
6
CONTINUOUS
10
0.1503618897637795
20
0.2540482677165354
11
0.1512151968503937
21
0.2519881889763779
0
LINE
8
BLACK
6
CONTINUOUS
10
0.1512151968503937
20
0.2519881889763779
11
0.1503618897637795
21
0.2499281102362205
0
LINE
8
BLACK
6
CONTINUOUS
10
0.1503618897637795
20
0.2499281102362205
11
0.149784842519685
21
0.2494805118110236
0
LINE
8
BLACK
6
CONTINUOUS
10
0.149784842519685
20
0.2494805118110236
11
0.1472716929133858
21
0.2479942913385827
0
LINE
8
BLACK
6
CONTINUOUS
10
0.1472716929133858
20
0.2479942913385827
11
0.1426435039370079
21
0.2433661023622047
0
LINE
8
BLACK
6
CONTINUOUS
10
0.1426435039370079
20
0.2433661023622047
11
0.1393117322834646
21
0.2377323622047244
0
LINE
8
BLACK
6
CONTINUOUS
10
0.1393117322834646
20
0.2377323622047244
11
0.1374884645669291
21
0.2314566929133858
0
LINE
8
BLACK
6
CONTINUOUS
10
0.1374884645669291
20
0.2314566929133858
11
0.1590454330708661
21
0.2314566929133858
0
LINE
8
BLACK
6
CONTINUOUS
10
0.1590454330708661
20
0.2314566929133858
11
0.1590997637795276
21
0.231538031496063
0
LINE
8
BLACK
6
CONTINUOUS
10
0.1590997637795276
20
0.231538031496063
11
0.1610156299212598
21
0.232818188976378
0
LINE
8
BLACK
6
CONTINUOUS
10
0.1610156299212598
20
0.232818188976378
11
0.1632755905511811
21
0.2332677165354331
0
LINE
8
BLACK
6
CONTINUOUS
10
0.1632755905511811
20
0.2332677165354331
11
0.2183937007874016
21
0.2332677165354331
0
LINE
8
BLACK
6
CONTINUOUS
10
0.2183937007874016
20
0.2332677165354331
11
0.2206536614173228
21
0.232818188976378
0
LINE
8
BLACK
6
CONTINUOUS
10
0.2206536614173228
20
0.232818188976378
11
0.2225695275590551
21
0.231538031496063
0
LINE
8
BLACK
6
CONTINUOUS
10
0.2225695275590551
20
0.231538031496063
11
0.2226238582677165
21
0.2314566929133858
0
LINE
8
BLACK
6
CONTINUOUS
10
0.2226238582677165
20
0.2314566929133858
11
0.2441807874015748
21
0.2314566929133858
0
LINE
8
BLACK
6
CONTINUOUS
10
0.2441807874015748
20
0.2314566929133858
11
0.2423575196850394
21
0.2377323622047244
0
LINE
8
BLACK
6
CONTINUOUS
10
0.2423575196850394
20
0.2377323622047244
11
0.2390924803149606
21
0.2432532283464567
0
LINE
8
BLACK
6
CONTINUOUS
10
0.2390924803149606
20
0.2432532283464567
11
0.2387783070866142
21
0.2454607874015748
0
LINE
8
BLACK
6
CONTINUOUS
10
0.2387783070866142
20
0.2454607874015748
11
0.240117125984252
21
0.247243937007874
0
LINE
8
BLACK
6
CONTINUOUS
10
0.240117125984252
20
0.247243937007874
11
0.2423246850393701
21
0.2475581102362205
0
LINE
8
BLACK
6
CONTINUOUS
10
0.2423246850393701
20
0.2475581102362205
11
0.242715
21
0.2474279133858268
0
LINE
8
BLACK
6
CONTINUOUS
10
0.242715
20
0.2474279133858268
11
0.2438282677165354
21
0.2469667716535433
0
LINE
8
BLACK
6
CONTINUOUS
10
0.2438282677165354
20
0.2469667716535433
11
0.25
21
0.2461542519685039
0
LINE
8
BLACK
6
CONTINUOUS
10
0.25
20
0.2461542519685039
11
0.2561717322834646
21
0.2469667716535433
0
LINE
8
BLACK
6
CONTINUOUS
10
0.2561717322834646
20
0.2469667716535433
11
0.261922874015748
21
0.2493489763779528
0
LINE
8
BLACK
6
CONTINUOUS
10
0.261922874015748
20
0.2493489763779528
11
0.2668614960629921
21
0.2531385039370079
0
LINE
8
BLACK
6
CONTINUOUS
10
0.2668614960629921
20
0.2531385039370079
11
0.2681952362204724
21
0.2548766535433071
0
LINE
8
BLACK
6
CONTINUOUS
10
0.2681952362204724
20
0.2548766535433071
11
0.2683366535433071
21
0.2550609448818897
0
LINE
8
BLACK
6
CONTINUOUS
10
0.2683366535433071
20
0.2550609448818897
11
0.2702677165354331
21
0.2561758661417323
0
LINE
8
BLACK
6
CONTINUOUS
10
0.2702677165354331
20
0.2561758661417323
11
0.2706479921259842
21
0.2562007874015748
0
LINE
8
BLACK
6
CONTINUOUS
10
0.2706479921259842
20
0.2562007874015748
11
0.6218171653543307
21
0.2562007874015748
0
LINE
8
BLACK
6
CONTINUOUS
10
0.6218171653543307
20
0.2562007874015748
11
0.6218171653543307
21
0.2562008267716535
0
LINE
8
BLACK
6
CONTINUOUS
10
0.6218171653543307
20
0.2562008267716535
11
0.6253266929133858
21
0.2571411811023622
0
LINE
8
BLACK
6
CONTINUOUS
10
0.6253266929133858
20
0.2571411811023622
11
0.6284733070866142
21
0.258957874015748
0
LINE
8
BLACK
6
CONTINUOUS
10
0.6284733070866142
20
0.258957874015748
11
0.6501575590551181
21
0.2806422047244094
0
LINE
8
BLACK
6
CONTINUOUS
10
0.6501575590551181
20
0.2806422047244094
11
0.6522175984251969
21
0.2814954724409449
0
LINE
8
BLACK
6
CONTINUOUS
10
0.6522175984251969
20
0.2814954724409449
11
0.6525977952755906
21
0.2814705905511811
0
LINE
8
BLACK
6
CONTINUOUS
10
0.6525977952755906
20
0.2814705905511811
11
0.6550003937007874
21
0.2811542519685039
0
LINE
8
BLACK
6
CONTINUOUS
10
0.6550003937007874
20
0.2811542519685039
11
0.6611721259842519
21
0.2819667716535433
0
LINE
8
BLACK
6
CONTINUOUS
10
0.6611721259842519
20
0.2819667716535433
11
0.6669232677165354
21
0.2843489763779528
0
LINE
8
BLACK
6
CONTINUOUS
10
0.6669232677165354
20
0.2843489763779528
11
0.6701238976377952
21
0.2868049212598425
0
LINE
8
BLACK
6
CONTINUOUS
10
0.6701238976377952
20
0.2868049212598425
11
0.6722775984251969
21
0.2873820078740157
0
LINE
8
BLACK
6
CONTINUOUS
10
0.6722775984251969
20
0.2873820078740157
11
0.6739574409448819
21
0.2865536220472441
0
LINE
8
BLACK
6
CONTINUOUS
10
0.6739574409448819
20
0.2865536220472441
11
0.685503779527559
21
0.2750072834645669
0
LINE
8
BLACK
6
CONTINUOUS
10
0.685503779527559
20
0.2750072834645669
11
0.6863570866141732
21
0.2729472047244094
0
LINE
8
BLACK
6
CONTINUOUS
10
0.6863570866141732
20
0.2729472047244094
11
0.6863321653543307
21
0.272566968503937
0
LINE
8
BLACK
6
CONTINUOUS
10
0.6863321653543307
20
0.272566968503937
11
0.686015905511811
21
0.2701644881889764
0
LINE
8
BLACK
6
CONTINUOUS
10
0.686015905511811
20
0.2701644881889764
11
0.6868283858267716
21
0.2639927952755906
0
LINE
8
BLACK
6
CONTINUOUS
10
0.6868283858267716
20
0.2639927952755906
11
0.6868283858267716
21
0.2639927559055118
0
LINE
8
BLACK
6
CONTINUOUS
10
0.6868283858267716
20
0.2639927559055118
11
0.6892106299212598
21
0.2582415748031496
0
LINE
8
BLACK
6
CONTINUOUS
10
0.6892106299212598
20
0.2582415748031496
11
0.6930000393700787
21
0.2533030708661417
0
LINE
8
BLACK
6
CONTINUOUS
10
0.6930000393700787
20
0.2533030708661417
11
0.6930002362204725
21
0.253302874015748
0
LINE
8
BLACK
6
CONTINUOUS
10
0.6930002362204725
20
0.253302874015748
11
0.6969797637795275
21
0.2502492913385826
0
LINE
8
BLACK
6
CONTINUOUS
10
0.6969797637795275
20
0.2502492913385826
11
0.6980946850393701
21
0.2483182283464567
0
LINE
8
BLACK
6
CONTINUOUS
10
0.6980946850393701
20
0.2483182283464567
11
0.6975175590551181
21
0.2461644094488189
0
LINE
8
BLACK
6
CONTINUOUS
10
0.6975175590551181
20
0.2461644094488189
11
0.6969798031496063
21
0.2456266141732283
0
LINE
8
BLACK
6
CONTINUOUS
10
0.6969798031496063
20
0.2456266141732283
11
0.6926758661417323
21
0.242324094488189
0
LINE
8
BLACK
6
CONTINUOUS
10
0.6926758661417323
20
0.242324094488189
11
0.6926757874015748
21
0.2423240157480315
0
LINE
8
BLACK
6
CONTINUOUS
10
0.6926757874015748
20
0.2423240157480315
11
0.6888863779527559
21
0.2373855118110236
0
LINE
8
BLACK
6
CONTINUOUS
10
0.6888863779527559
20
0.2373855118110236
11
0.6865041338582677
21
0.2316343307086614
0
LINE
8
BLACK
6
CONTINUOUS
10
0.6865041338582677
20
0.2316343307086614
11
0.6865041338582677
21
0.2316342913385827
0
LINE
8
BLACK
6
CONTINUOUS
10
0.6865041338582677
20
0.2316342913385827
11
0.6856916535433071
21
0.2254625984251968
0
LINE
8
BLACK
6
CONTINUOUS
10
0.6856916535433071
20
0.2254625984251968
11
0.6865041338582677
21
0.2192909448818898
0
LINE
8
BLACK
6
CONTINUOUS
10
0.6865041338582677
20
0.2192909448818898
11
0.6865041338582677
21
0.219290905511811
0
LINE
8
BLACK
6
CONTINUOUS
10
0.6865041338582677
20
0.219290905511811
11
0.6888863779527559
21
0.2135397244094488
0
LINE
8
BLACK
6
CONTINUOUS
10
0.6888863779527559
20
0.2135397244094488
11
0.6926757874015748
21
0.208601220472441
0
LINE
8
BLACK
6
CONTINUOUS
10
0.6926757874015748
20
0.208601220472441
11
0.6926759842519685
21
0.2086010236220472
0
LINE
8
BLACK
6
CONTINUOUS
10
0.6926759842519685
20
0.2086010236220472
11
0.6926761023622047
21
0.2086009448818898
0
LINE
8
BLACK
6
CONTINUOUS
10
0.6926761023622047
20
0.2086009448818898
11
0.6976145275590551
21
0.2048115748031496
0
LINE
8
BLACK
6
CONTINUOUS
10
0.6976145275590551
20
0.2048115748031496
11
0.7033656692913386
21
0.2024293700787402
0
LINE
8
BLACK
6
CONTINUOUS
10
0.7033656692913386
20
0.2024293700787402
11
0.7095374015748032
21
0.2016168503937008
0
LINE
8
BLACK
6
CONTINUOUS
10
0.7095374015748032
20
0.2016168503937008
11
0.7157091338582677
21
0.2024293700787402
0
LINE
8
BLACK
6
CONTINUOUS
10
0.7157091338582677
20
0.2024293700787402
11
0.7214602755905511
21
0.2048115748031496
0
LINE
8
BLACK
6
CONTINUOUS
10
0.7214602755905511
20
0.2048115748031496
11
0.7263988976377953
21
0.2086011023622047
0
LINE
8
BLACK
6
CONTINUOUS
10
0.7263988976377953
20
0.2086011023622047
11
0.7263990157480315
21
0.2086012992125984
0
LINE
8
BLACK
6
CONTINUOUS
10
0.7263990157480315
20
0.2086012992125984
11
0.7265337401574803
21
0.2087359842519685
0
LINE
8
BLACK
6
CONTINUOUS
10
0.7265337401574803
20
0.2087359842519685
11
0.7265861023622047
21
0.2086836220472441
0
LINE
8
BLACK
6
CONTINUOUS
10
0.7265861023622047
20
0.2086836220472441
11
0.7282946850393701
21
0.2096699606299212
0
LINE
8
BLACK
6
CONTINUOUS
10
0.7282946850393701
20
0.2096699606299212
11
0.7286748818897638
21
0.2096948818897638
0
LINE
8
BLACK
6
CONTINUOUS
10
0.7286748818897638
20
0.2096948818897638
11
1.1282274015748031
21
0.2096948818897638
0
LINE
8
BLACK
6
CONTINUOUS
10
1.1282274015748031
20
0.2096948818897638
11
1.1282274409448818
21
0.2096948818897638
0
LINE
8
BLACK
6
CONTINUOUS
10
1.1282274409448818
20
0.2096948818897638
11
1.1322377165354331
21
0.2107694094488189
0
LINE
8
BLACK
6
CONTINUOUS
10
1.1322377165354331
20
0.2107694094488189
11
1.135833188976378
21
0.2128452755905512
0
LINE
8
BLACK
6
CONTINUOUS
10
1.135833188976378
20
0.2128452755905512
11
1.1433061811023622
21
0.2203183464566929
0
LINE
8
BLACK
6
CONTINUOUS
10
1.1433061811023622
20
0.2203183464566929
11
1.1453662204724409
21
0.2211716141732283
0
LINE
8
BLACK
6
CONTINUOUS
10
1.1453662204724409
20
0.2211716141732283
11
1.1456308661417323
21
0.2211542519685039
0
LINE
8
BLACK
6
CONTINUOUS
10
1.1456308661417323
20
0.2211542519685039
11
1.145688937007874
21
0.2211542519685039
0
LINE
8
BLACK
6
CONTINUOUS
10
1.145688937007874
20
0.2211542519685039
11
1.145688937007874
21
0.2211542913385827
0
LINE
8
BLACK
6
CONTINUOUS
10
1.145688937007874
20
0.2211542913385827
11
1.1456889763779528
21
0.2211542519685039
0
LINE
8
BLACK
6
CONTINUOUS
10
1.1456889763779528
20
0.2211542519685039
11
1.1518607086614172
21
0.2219667716535433
0
LINE
8
BLACK
6
CONTINUOUS
10
1.1518607086614172
20
0.2219667716535433
11
1.1573693700787402
21
0.2242485433070866
0
LINE
8
BLACK
6
CONTINUOUS
10
1.1573693700787402
20
0.2242485433070866
11
1.1595991338582676
21
0.2242485433070866
0
LINE
8
BLACK
6
CONTINUOUS
10
1.1595991338582676
20
0.2242485433070866
11
1.1611758661417322
21
0.2226718503937008
0
LINE
8
BLACK
6
CONTINUOUS
10
1.1611758661417322
20
0.2226718503937008
11
1.1613976377952755
21
0.2215569291338583
0
LINE
8
BLACK
6
CONTINUOUS
10
1.1613976377952755
20
0.2215569291338583
11
1.1613976377952755
21
0.0226181102362205
0
LINE
8
BLACK
6
CONTINUOUS
10
1.1613976377952755
20
0.0226181102362205
11
1.1605443307086614
21
0.020558031496063
0
LINE
8
BLACK
6
CONTINUOUS
10
1.1605443307086614
20
0.020558031496063
11
1.1584842519685039
21
0.0197047244094488
0
LINE
8
BLACK
6
CONTINUOUS
10
1.1584842519685039
20
0.0197047244094488
11
0.9520763385826772
21
0.0197047244094488
0
LINE
8
BLACK
6
CONTINUOUS
10
0.9520763385826772
20
0.0197047244094488
11
0.9500162598425197
21
0.020558031496063
0
LINE
8
BLACK
6
CONTINUOUS
10
0.9500162598425197
20
0.020558031496063
11
0.9493847244094488
21
0.0215032283464567
0
LINE
8
BLACK
6
CONTINUOUS
10
0.9493847244094488
20
0.0215032283464567
11
0.9489229133858268
21
0.0226181102362205
0
LINE
8
BLACK
6
CONTINUOUS
10
0.9489229133858268
20
0.0226181102362205
11
0.9460001968503937
21
0.0296742519685039
0
LINE
8
BLACK
6
CONTINUOUS
10
0.9460001968503937
20
0.0296742519685039
11
0.9416121259842519
21
0.0372745669291339
0
LINE
8
BLACK
6
CONTINUOUS
10
0.9416121259842519
20
0.0372745669291339
11
0.9416120472440944
21
0.0372746850393701
0
LINE
8
BLACK
6
CONTINUOUS
10
0.9416120472440944
20
0.0372746850393701
11
0.9362697637795275
21
0.044236968503937
0
LINE
8
BLACK
6
CONTINUOUS
10
0.9362697637795275
20
0.044236968503937
11
0.9300637007874015
21
0.050443031496063
0
LINE
8
BLACK
6
CONTINUOUS
10
0.9300637007874015
20
0.050443031496063
11
0.9231014173228346
21
0.0557853149606299
0
LINE
8
BLACK
6
CONTINUOUS
10
0.9231014173228346
20
0.0557853149606299
11
0.9231011811023622
21
0.0557854724409449
0
LINE
8
BLACK
6
CONTINUOUS
10
0.9231011811023622
20
0.0557854724409449
11
0.9155009842519685
21
0.0601734645669291
0
LINE
8
BLACK
6
CONTINUOUS
10
0.9155009842519685
20
0.0601734645669291
11
0.9155006692913386
21
0.0601735826771654
0
LINE
8
BLACK
6
CONTINUOUS
10
0.9155006692913386
20
0.0601735826771654
11
0.9073929921259842
21
0.0635318897637795
0
LINE
8
BLACK
6
CONTINUOUS
10
0.9073929921259842
20
0.0635318897637795
11
0.8989157874015747
21
0.0658033464566929
0
LINE
8
BLACK
6
CONTINUOUS
10
0.8989157874015747
20
0.0658033464566929
11
0.8925057874015748
21
0.0666472440944882
0
LINE
8
BLACK
6
CONTINUOUS
10
0.8925057874015748
20
0.0666472440944882
11
0.890214842519685
21
0.0669488188976378
0
LINE
8
BLACK
6
CONTINUOUS
10
0.890214842519685
20
0.0669488188976378
11
0.8814387007874016
21
0.0669488188976378
0
LINE
8
BLACK
6
CONTINUOUS
10
0.8814387007874016
20
0.0669488188976378
11
0.8794142519685039
21
0.0666823228346457
0
LINE
8
BLACK
6
CONTINUOUS
10
0.8794142519685039
20
0.0666823228346457
11
0.8727377165354331
21
0.0658033464566929
0
LINE
8
BLACK
6
CONTINUOUS
10
0.8727377165354331
20
0.0658033464566929
11
0.8642605118110236
21
0.0635318897637795
0
LINE
8
BLACK
6
CONTINUOUS
10
0.8642605118110236
20
0.0635318897637795
11
0.8561528346456693
21
0.0601735826771654
0
LINE
8
BLACK
6
CONTINUOUS
10
0.8561528346456693
20
0.0601735826771654
11
0.8561525196850394
21
0.0601734645669291
0
LINE
8
BLACK
6
CONTINUOUS
10
0.8561525196850394
20
0.0601734645669291
11
0.8485523228346457
21
0.0557854724409449
0
LINE
8
BLACK
6
CONTINUOUS
10
0.8485523228346457
20
0.0557854724409449
11
0.8485520866141733
21
0.0557853149606299
0
LINE
8
BLACK
6
CONTINUOUS
10
0.8485520866141733
20
0.0557853149606299
11
0.8415898031496063
21
0.050443031496063
0
LINE
8
BLACK
6
CONTINUOUS
10
0.8415898031496063
20
0.050443031496063
11
0.8353837401574803
21
0.044236968503937
0
LINE
8
BLACK
6
CONTINUOUS
10
0.8353837401574803
20
0.044236968503937
11
0.8300414566929134
21
0.0372746850393701
0
LINE
8
BLACK
6
CONTINUOUS
10
0.8300414566929134
20
0.0372746850393701
11
0.8300412992125984
21
0.0372744488188976
0
LINE
8
BLACK
6
CONTINUOUS
10
0.8300412992125984
20
0.0372744488188976
11
0.8256533070866141
21
0.0296742519685039
0
LINE
8
BLACK
6
CONTINUOUS
10
0.8256533070866141
20
0.0296742519685039
11
0.825653188976378
21
0.029673937007874
0
LINE
8
BLACK
6
CONTINUOUS
10
0.825653188976378
20
0.029673937007874
11
0.8233583464566929
21
0.0241336614173228
0
LINE
8
BLACK
6
CONTINUOUS
10
0.8233583464566929
20
0.0241336614173228
11
0.8227306299212598
21
0.0226181102362205
0
LINE
8
BLACK
6
CONTINUOUS
10
0.8227306299212598
20
0.0226181102362205
11
0.8222688188976378
21
0.0215032283464567
0
LINE
8
BLACK
6
CONTINUOUS
10
0.8222688188976378
20
0.0215032283464567
11
0.8206921259842519
21
0.0199264960629921
0
LINE
8
BLACK
6
CONTINUOUS
10
0.8206921259842519
20
0.0199264960629921
11
0.8195772047244094
21
0.0197047244094488
0
LINE
8
BLACK
6
CONTINUOUS
10
0.8195772047244094
20
0.0197047244094488
11
0.5583755511811024
21
0.0197047244094488
0
LINE
8
BLACK
6
CONTINUOUS
10
0.5583755511811024
20
0.0197047244094488
11
0.5563154724409448
21
0.020558031496063
0
LINE
8
BLACK
6
CONTINUOUS
10
0.5563154724409448
20
0.020558031496063
11
0.555683937007874
21
0.0215032283464567
0
LINE
8
BLACK
6
CONTINUOUS
10
0.555683937007874
20
0.0215032283464567
11
0.5552221259842519
21
0.0226181102362205
0
LINE
8
BLACK
6
CONTINUOUS
10
0.5552221259842519
20
0.0226181102362205
11
0.5522994094488188
21
0.0296742519685039
0
LINE
8
BLACK
6
CONTINUOUS
10
0.5522994094488188
20
0.0296742519685039
11
0.5479113385826772
21
0.0372745669291339
0
LINE
8
BLACK
6
CONTINUOUS
10
0.5479113385826772
20
0.0372745669291339
11
0.5479112598425196
21
0.0372746850393701
0
LINE
8
BLACK
6
CONTINUOUS
10
0.5479112598425196
20
0.0372746850393701
11
0.5425689763779528
21
0.044236968503937
0
LINE
8
BLACK
6
CONTINUOUS
10
0.5425689763779528
20
0.044236968503937
11
0.5363629133858268
21
0.050443031496063
0
LINE
8
BLACK
6
CONTINUOUS
10
0.5363629133858268
20
0.050443031496063
11
0.5294006299212598
21
0.0557853149606299
0
LINE
8
BLACK
6
CONTINUOUS
10
0.5294006299212598
20
0.0557853149606299
11
0.5294003937007874
21
0.0557854724409449
0
LINE
8
BLACK
6
CONTINUOUS
10
0.5294003937007874
20
0.0557854724409449
11
0.5218001968503937
21
0.0601734645669291
0
LINE
8
BLACK
6
CONTINUOUS
10
0.5218001968503937
20
0.0601734645669291
11
0.5217998818897638
21
0.0601735826771654
0
LINE
8
BLACK
6
CONTINUOUS
10
0.5217998818897638
20
0.0601735826771654
11
0.5136922047244095
21
0.0635318897637795
0
LINE
8
BLACK
6
CONTINUOUS
10
0.5136922047244095
20
0.0635318897637795
11
0.505215
21
0.0658033464566929
0
LINE
8
BLACK
6
CONTINUOUS
10
0.505215
20
0.0658033464566929
11
0.498805
21
0.0666472440944882
0
LINE
8
BLACK
6
CONTINUOUS
10
0.498805
20
0.0666472440944882
11
0.4965140551181102
21
0.0669488188976378
0
LINE
8
BLACK
6
CONTINUOUS
10
0.4965140551181102
20
0.0669488188976378
11
0.4877379133858268
21
0.0669488188976378
0
LINE
8
BLACK
6
CONTINUOUS
10
0.4877379133858268
20
0.0669488188976378
11
0.4857134645669291
21
0.0666823228346457
0
LINE
8
BLACK
6
CONTINUOUS
10
0.4857134645669291
20
0.0666823228346457
11
0.4790369291338583
21
0.0658033464566929
0
LINE
8
BLACK
6
CONTINUOUS
10
0.4790369291338583
20
0.0658033464566929
11
0.4705597244094488
21
0.0635318897637795
0
LINE
8
BLACK
6
CONTINUOUS
10
0.4705597244094488
20
0.0635318897637795
11
0.4624520472440945
21
0.0601735826771654
0
LINE
8
BLACK
6
CONTINUOUS
10
0.4624520472440945
20
0.0601735826771654
11
0.4624517322834645
21
0.0601734645669291
0
LINE
8
BLACK
6
CONTINUOUS
10
0.4624517322834645
20
0.0601734645669291
11
0.4548515354330708
21
0.0557854724409449
0
LINE
8
BLACK
6
CONTINUOUS
10
0.4548515354330708
20
0.0557854724409449
11
0.4548512992125984
21
0.0557853149606299
0
LINE
8
BLACK
6
CONTINUOUS
10
0.4548512992125984
20
0.0557853149606299
11
0.4478890157480315
21
0.050443031496063
0
LINE
8
BLACK
6
CONTINUOUS
10
0.4478890157480315
20
0.050443031496063
11
0.4416829527559055
21
0.044236968503937
0
LINE
8
BLACK
6
CONTINUOUS
10
0.4416829527559055
20
0.044236968503937
11
0.4363406692913386
21
0.0372746850393701
0
LINE
8
BLACK
6
CONTINUOUS
10
0.4363406692913386
20
0.0372746850393701
11
0.4363405118110236
21
0.0372744488188976
0
LINE
8
BLACK
6
CONTINUOUS
10
0.4363405118110236
20
0.0372744488188976
11
0.4319525196850393
21
0.0296742519685039
0
LINE
8
BLACK
6
CONTINUOUS
10
0.4319525196850393
20
0.0296742519685039
11
0.4319524015748031
21
0.029673937007874
0
LINE
8
BLACK
6
CONTINUOUS
10
0.4319524015748031
20
0.029673937007874
11
0.4296575590551181
21
0.0241336614173228
0
LINE
8
BLACK
6
CONTINUOUS
10
0.4296575590551181
20
0.0241336614173228
11
0.429029842519685
21
0.0226181102362205
0
LINE
8
BLACK
6
CONTINUOUS
10
0.429029842519685
20
0.0226181102362205
11
0.428568031496063
21
0.0215032283464567
0
LINE
8
BLACK
6
CONTINUOUS
10
0.428568031496063
20
0.0215032283464567
11
0.4269913385826772
21
0.0199264960629921
0
LINE
8
BLACK
6
CONTINUOUS
10
0.4269913385826772
20
0.0199264960629921
11
0.4258764173228347
21
0.0197047244094488
0
LINE
8
BLACK
6
CONTINUOUS
10
0.4258764173228347
20
0.0197047244094488
11
0.1646747637795276
21
0.0197047244094488
0
LINE
8
BLACK
6
CONTINUOUS
10
0.1646747637795276
20
0.0197047244094488
11
0.1626146850393701
21
0.020558031496063
0
LINE
8
BLACK
6
CONTINUOUS
10
0.1626146850393701
20
0.020558031496063
11
0.1619831496062992
21
0.0215032283464567
0
LINE
8
BLACK
6
CONTINUOUS
10
0.1619831496062992
20
0.0215032283464567
11
0.1615213385826772
21
0.0226181102362205
0
LINE
8
BLACK
6
CONTINUOUS
10
0.1615213385826772
20
0.0226181102362205
11
0.1585986220472441
21
0.0296742519685039
0
LINE
8
BLACK
6
CONTINUOUS
10
0.1585986220472441
20
0.0296742519685039
11
0.1542105511811024
21
0.0372745669291339
0
LINE
8
BLACK
6
CONTINUOUS
10
0.1542105511811024
20
0.0372745669291339
11
0.1542104724409449
21
0.0372746850393701
0
LINE
8
BLACK
6
CONTINUOUS
10
0.1542104724409449
20
0.0372746850393701
11
0.148868188976378
21
0.044236968503937
0
LINE
8
BLACK
6
CONTINUOUS
10
0.148868188976378
20
0.044236968503937
11
0.142662125984252
21
0.050443031496063
0
LINE
8
BLACK
6
CONTINUOUS
10
0.142662125984252
20
0.050443031496063
11
0.135699842519685
21
0.0557853149606299
0
LINE
8
BLACK
6
CONTINUOUS
10
0.135699842519685
20
0.0557853149606299
11
0.1356996062992126
21
0.0557854724409449
0
LINE
8
BLACK
6
CONTINUOUS
10
0.1356996062992126
20
0.0557854724409449
11
0.1280994094488189
21
0.0601734645669291
0
LINE
8
BLACK
6
CONTINUOUS
10
0.1280994094488189
20
0.0601734645669291
11
0.128099094488189
21
0.0601735826771654
0
LINE
8
BLACK
6
CONTINUOUS
10
0.128099094488189
20
0.0601735826771654
11
0.1199914173228346
21
0.0635318897637795
0
LINE
8
BLACK
6
CONTINUOUS
10
0.1199914173228346
20
0.0635318897637795
11
0.1115142125984252
21
0.0658033464566929
0
LINE
8
BLACK
6
CONTINUOUS
10
0.1115142125984252
20
0.0658033464566929
11
0.1051042125984252
21
0.0666472440944882
0
LINE
8
BLACK
6
CONTINUOUS
10
0.1051042125984252
20
0.0666472440944882
11
0.1028132677165354
21
0.0669488188976378
0
LINE
8
BLACK
6
CONTINUOUS
10
0.1028132677165354
20
0.0669488188976378
11
0.094037125984252
21
0.0669488188976378
0
LINE
8
BLACK
6
CONTINUOUS
10
0.094037125984252
20
0.0669488188976378
11
0.0920126771653543
21
0.0666823228346457
0
LINE
8
BLACK
6
CONTINUOUS
10
0.0920126771653543
20
0.0666823228346457
11
0.0853361417322835
21
0.0658033464566929
0
LINE
8
BLACK
6
CONTINUOUS
10
0.0853361417322835
20
0.0658033464566929
11
0.076858937007874
21
0.0635318897637795
0
LINE
8
BLACK
6
CONTINUOUS
10
0.076858937007874
20
0.0635318897637795
11
0.0687512598425197
21
0.0601735826771654
0
LINE
8
BLACK
6
CONTINUOUS
10
0.0687512598425197
20
0.0601735826771654
11
0.0687509448818898
21
0.0601734645669291
0
LINE
8
BLACK
6
CONTINUOUS
10
0.0687509448818898
20
0.0601734645669291
11
0.0611507480314961
21
0.0557854724409449
0
LINE
8
BLACK
6
CONTINUOUS
10
0.0611507480314961
20
0.0557854724409449
11
0.0611505118110236
21
0.0557853149606299
0
LINE
8
BLACK
6
CONTINUOUS
10
0.0611505118110236
20
0.0557853149606299
11
0.0541882283464567
21
0.050443031496063
0
LINE
8
BLACK
6
CONTINUOUS
10
0.0541882283464567
20
0.050443031496063
11
0.0479821653543307
21
0.044236968503937
0
LINE
8
BLACK
6
CONTINUOUS
10
0.0479821653543307
20
0.044236968503937
11
0.0426398818897638
21
0.0372746850393701
0
LINE
8
BLACK
6
CONTINUOUS
10
0.0426398818897638
20
0.0372746850393701
11
0.0426397244094488
21
0.0372744488188976
0
LINE
8
BLACK
6
CONTINUOUS
10
0.0426397244094488
20
0.0372744488188976
11
0.0382517322834646
21
0.0296742519685039
0
LINE
8
BLACK
6
CONTINUOUS
10
0.0382517322834646
20
0.0296742519685039
11
0.0382516141732283
21
0.029673937007874
0
LINE
8
BLACK
6
CONTINUOUS
10
0.0382516141732283
20
0.029673937007874
11
0.0359567716535433
21
0.0241336614173228
0
LINE
8
BLACK
6
CONTINUOUS
10
0.0359567716535433
20
0.0241336614173228
11
0.0353290551181102
21
0.0226181102362205
0
LINE
8
BLACK
6
CONTINUOUS
10
0.0353290551181102
20
0.0226181102362205
11
0.0348672440944882
21
0.0215032283464567
0
LINE
8
BLACK
6
CONTINUOUS
10
0.0348672440944882
20
0.0215032283464567
11
0.0332905511811024
21
0.0199264960629921
0
LINE
8
BLACK
6
CONTINUOUS
10
0.0332905511811024
20
0.0199264960629921
11
0.0321756299212598
21
0.0197047244094488
0
LINE
8
BLACK
6
CONTINUOUS
10
0.0321756299212598
20
0.0197047244094488
11
0.0226181102362205
21
0.0197047244094488
0
LINE
8
BLACK
6
CONTINUOUS
10
0.0226181102362205
20
0.0197047244094488
11
0.020558031496063
21
0.020558031496063
0
LINE
8
BLACK
6
CONTINUOUS
10
0.020558031496063
20
0.020558031496063
11
0.0197047244094488
21
0.0226181102362205
0
LINE
8
BLACK
6
CONTINUOUS
10
0.0197047244094488
20
0.0226181102362205
11
0.0197047244094488
21
0.1060236220472441
0
LINE
8
BLACK
6
CONTINUOUS
10
0.0197047244094488
20
0.1060236220472441
11
0.020558031496063
21
0.1080837007874016
0
LINE
8
BLACK
6
CONTINUOUS
10
0.020558031496063
20
0.1080837007874016
11
0.0226181102362205
21
0.1089370078740158
0
LINE
8
BLACK
6
CONTINUOUS
10
0.0226181102362205
20
0.1089370078740158
11
0.0548503937007874
21
0.1089370078740158
0
LINE
8
BLACK
6
CONTINUOUS
10
0.0548503937007874
20
0.1089370078740158
11
0.0548503937007874
21
0.1289370078740157
0
LINE
8
BLACK
6
CONTINUOUS
10
0.0548503937007874
20
0.1289370078740157
11
0.0215433070866142
21
0.1289370078740157
0
LINE
8
BLACK
6
CONTINUOUS
10
0.0215433070866142
20
0.1289370078740157
11
0.0177767322834646
21
0.1296862204724409
0
LINE
8
BLACK
6
CONTINUOUS
10
0.0177767322834646
20
0.1296862204724409
11
0.0145835826771654
21
0.1318198031496063
0
LINE
8
BLACK
6
CONTINUOUS
10
0.0145835826771654
20
0.1318198031496063
11
0.01245
21
0.1350129527559055
0
LINE
8
BLACK
6
CONTINUOUS
10
0.01245
20
0.1350129527559055
11
0.0117007874015748
21
0.1387795275590551
0
LINE
8
BLACK
6
CONTINUOUS
10
0.0117007874015748
20
0.1387795275590551
11
0.0117007874015748
21
0.1584645669291339
0
LINE
8
BLACK
6
CONTINUOUS
10
0.0117007874015748
20
0.1584645669291339
11
0.01245
21
0.1622311417322835
0
LINE
8
BLACK
6
CONTINUOUS
10
0.01245
20
0.1622311417322835
11
0.0145835826771654
21
0.1654242913385827
0
LINE
8
BLACK
6
CONTINUOUS
10
0.0145835826771654
20
0.1654242913385827
11
0.0177767322834646
21
0.167557874015748
0
LINE
8
BLACK
6
CONTINUOUS
10
0.0177767322834646
20
0.167557874015748
11
0.0215433070866142
21
0.1683070866141732
0
LINE
8
BLACK
6
CONTINUOUS
10
0.0215433070866142
20
0.1683070866141732
11
0.0548503937007874
21
0.1683070866141732
0
LINE
8
BLACK
6
CONTINUOUS
10
0.0548503937007874
20
0.1683070866141732
11
0.0548503937007874
21
0.1883070866141732
0
LINE
8
BLACK
6
CONTINUOUS
10
0.0548503937007874
20
0.1883070866141732
11
0.0226181102362205
21
0.1883070866141732
0
LINE
8
BLACK
6
CONTINUOUS
10
0.0226181102362205
20
0.1883070866141732
11
0.020558031496063
21
0.1891603937007874
0
LINE
8
BLACK
6
CONTINUOUS
10
0.020558031496063
20
0.1891603937007874
11
0.0197047244094488
21
0.1912204724409449
0
LINE
8
BLACK
6
CONTINUOUS
10
0.0197047244094488
20
0.1912204724409449
11
0.0197047244094488
21
0.2114566929133858
0
LINE
8
BLACK
6
CONTINUOUS
10
0.0197047244094488
20
0.2114566929133858
11
0.0197047244094488
21
0.37
0
LINE
8
BLACK
6
CONTINUOUS
10
0.0197047244094488
20
0.37
11
0.0197047244094488
21
0.3993307086614173
0
LINE
8
BLACK
6
CONTINUOUS
10
0.0197047244094488
20
0.3993307086614173
11
0.020558031496063
21
0.4013907874015748
0
LINE
8
BLACK
6
CONTINUOUS
10
0.020558031496063
20
0.4013907874015748
11
0.0226181102362205
21
0.402244094488189
0
LINE
8
BLACK
6
CONTINUOUS
10
0.0226181102362205
20
0.402244094488189
11
0.0548503937007874
21
0.402244094488189
0
LINE
8
BLACK
6
CONTINUOUS
10
0.0548503937007874
20
0.402244094488189
11
0.0548503937007874
21
0.4222440944881889
0
LINE
8
BLACK
6
CONTINUOUS
10
0.0548503937007874
20
0.4222440944881889
11
0.0215433070866142
21
0.4222440944881889
0
LINE
8
BLACK
6
CONTINUOUS
10
0.0215433070866142
20
0.4222440944881889
11
0.0177767322834646
21
0.4229933070866141
0
LINE
8
BLACK
6
CONTINUOUS
10
0.0177767322834646
20
0.4229933070866141
11
0.0145835826771654
21
0.4251268897637795
0
LINE
8
BLACK
6
CONTINUOUS
10
0.0145835826771654
20
0.4251268897637795
11
0.01245
21
0.4283200393700787
0
LINE
8
BLACK
6
CONTINUOUS
10
0.01245
20
0.4283200393700787
11
0.0117007874015748
21
0.4320866141732284
0
LINE
8
BLACK
6
CONTINUOUS
10
0.0117007874015748
20
0.4320866141732284
11
0.0117007874015748
21
0.4517716535433071
0
LINE
8
BLACK
6
CONTINUOUS
10
0.0117007874015748
20
0.4517716535433071
11
0.01245
21
0.4555382283464567
0
LINE
8
BLACK
6
CONTINUOUS
10
0.01245
20
0.4555382283464567
11
0.0145835826771654
21
0.4587313779527559
0
LINE
8
BLACK
6
CONTINUOUS
10
0.0145835826771654
20
0.4587313779527559
11
0.0177767322834646
21
0.4608649606299213
0
LINE
8
BLACK
6
CONTINUOUS
10
0.0177767322834646
20
0.4608649606299213
11
0.0215433070866142
21
0.4616141732283465
0
LINE
8
BLACK
6
CONTINUOUS
10
0.0215433070866142
20
0.4616141732283465
11
0.0548503937007874
21
0.4616141732283465
0
LINE
8
BLACK
6
CONTINUOUS
10
0.0548503937007874
20
0.4616141732283465
11
0.0548503937007874
21
0.4816141732283464
0
LINE
8
BLACK
6
CONTINUOUS
10
0.0548503937007874
20
0.4816141732283464
11
0.0226181102362205
21
0.4816141732283464
0
LINE
8
BLACK
6
CONTINUOUS
10
0.0226181102362205
20
0.4816141732283464
11
0.020558031496063
21
0.4824674803149606
0
LINE
8
BLACK
6
CONTINUOUS
10
0.020558031496063
20
0.4824674803149606
11
0.0197047244094488
21
0.4845275590551181
0
LINE
8
BLACK
6
CONTINUOUS
10
0.0197047244094488
20
0.4845275590551181
11
0.0197047244094488
21
0.5679330708661418
0
LINE
8
BLACK
6
CONTINUOUS
10
0.0197047244094488
20
0.5679330708661418
11
0.020558031496063
21
0.5699931496062992
0
LINE
8
BLACK
6
CONTINUOUS
10
0.020558031496063
20
0.5699931496062992
11
0.0226181102362205
21
0.5708464566929133
0
LINE
8
BLACK
6
CONTINUOUS
10
0.0226181102362205
20
0.5708464566929133
11
0.0321756299212598
21
0.5708464566929133
0
LINE
8
BLACK
6
CONTINUOUS
10
0.0321756299212598
20
0.5708464566929133
11
0.0342357086614173
21
0.5699931496062992
0
LINE
8
BLACK
6
CONTINUOUS
10
0.0748503937007874
20
0.1683070866141732
11
0.1081574803149606
21
0.1683070866141732
0
LINE
8
BLACK
6
CONTINUOUS
10
0.1081574803149606
20
0.1683070866141732
11
0.1119240551181102
21
0.167557874015748
0
LINE
8
BLACK
6
CONTINUOUS
10
0.1119240551181102
20
0.167557874015748
11
0.1151172047244094
21
0.1654242913385827
0
LINE
8
BLACK
6
CONTINUOUS
10
0.1151172047244094
20
0.1654242913385827
11
0.1172507874015748
21
0.1622311417322835
0
LINE
8
BLACK
6
CONTINUOUS
10
0.1172507874015748
20
0.1622311417322835
11
0.1179686614173228
21
0.1586220472440945
0
LINE
8
BLACK
6
CONTINUOUS
10
0.1179686614173228
20
0.1586220472440945
11
0.138
21
0.1586220472440945
0
LINE
8
BLACK
6
CONTINUOUS
10
0.138
20
0.1586220472440945
11
0.138
21
0.160452874015748
0
LINE
8
BLACK
6
CONTINUOUS
10
0.138
20
0.160452874015748
11
0.1379999606299213
21
0.1604529527559055
0
LINE
8
BLACK
6
CONTINUOUS
10
0.1379999606299213
20
0.1604529527559055
11
0.1375824015748031
21
0.1645403937007874
0
LINE
8
BLACK
6
CONTINUOUS
10
0.1375824015748031
20
0.1645403937007874
11
0.1353880708661417
21
0.1711624015748031
0
LINE
8
BLACK
6
CONTINUOUS
10
0.1353880708661417
20
0.1711624015748031
11
0.1317257480314961
21
0.1770999606299213
0
LINE
8
BLACK
6
CONTINUOUS
10
0.1317257480314961
20
0.1770999606299213
11
0.1317256692913386
21
0.1771000787401575
0
LINE
8
BLACK
6
CONTINUOUS
10
0.1317256692913386
20
0.1771000787401575
11
0.1267929921259842
21
0.1820327559055118
0
LINE
8
BLACK
6
CONTINUOUS
10
0.1267929921259842
20
0.1820327559055118
11
0.1267928346456693
21
0.182032874015748
0
LINE
8
BLACK
6
CONTINUOUS
10
0.1267928346456693
20
0.182032874015748
11
0.1208552755905512
21
0.1856951968503937
0
LINE
8
BLACK
6
CONTINUOUS
10
0.1208552755905512
20
0.1856951968503937
11
0.1142332677165354
21
0.1878895275590551
0
LINE
8
BLACK
6
CONTINUOUS
10
0.1142332677165354
20
0.1878895275590551
11
0.1101458267716535
21
0.1883070866141732
0
LINE
8
BLACK
6
CONTINUOUS
10
0.1101458267716535
20
0.1883070866141732
11
0.0748503937007874
21
0.1883070866141732
0
LINE
8
BLACK
6
CONTINUOUS
10
0.0748503937007874
20
0.1883070866141732
11
0.0748503937007874
21
0.1683070866141732
0
LINE
8
BLACK
6
CONTINUOUS
10
0.2225695275590551
20
0.2113753543307087
11
0.2206536614173228
21
0.2100951968503937
0
LINE
8
BLACK
6
CONTINUOUS
10
0.2206536614173228
20
0.2100951968503937
11
0.2183937007874016
21
0.2096456692913386
0
LINE
8
BLACK
6
CONTINUOUS
10
0.2183937007874016
20
0.2096456692913386
11
0.2008346456692913
21
0.2096456692913386
0
LINE
8
BLACK
6
CONTINUOUS
10
0.2008346456692913
20
0.2096456692913386
11
0.2008346456692913
21
0.1896457086614173
0
LINE
8
BLACK
6
CONTINUOUS
10
0.2008346456692913
20
0.1896457086614173
11
0.2210100393700787
21
0.1896457086614173
0
LINE
8
BLACK
6
CONTINUOUS
10
0.2210100393700787
20
0.1896457086614173
11
0.2210100787401575
21
0.1896457480314961
0
LINE
8
BLACK
6
CONTINUOUS
10
0.2210100787401575
20
0.1896457480314961
11
0.2224784251968504
21
0.1897612598425197
0
LINE
8
BLACK
6
CONTINUOUS
10
0.2224784251968504
20
0.1897612598425197
11
0.2287638188976378
21
0.1915873622047244
0
LINE
8
BLACK
6
CONTINUOUS
10
0.2287638188976378
20
0.1915873622047244
11
0.2343975590551181
21
0.1949191338582677
0
LINE
8
BLACK
6
CONTINUOUS
10
0.2343975590551181
20
0.1949191338582677
11
0.2390257480314961
21
0.1995473228346457
0
LINE
8
BLACK
6
CONTINUOUS
10
0.2390257480314961
20
0.1995473228346457
11
0.2423575196850394
21
0.205181062992126
0
LINE
8
BLACK
6
CONTINUOUS
10
0.2423575196850394
20
0.205181062992126
11
0.2441808267716535
21
0.2114566929133858
0
LINE
8
BLACK
6
CONTINUOUS
10
0.2441808267716535
20
0.2114566929133858
11
0.2226238582677165
21
0.2114566929133858
0
LINE
8
BLACK
6
CONTINUOUS
10
0.2226238582677165
20
0.2114566929133858
11
0.2225695275590551
21
0.2113753543307087
0
LINE
8
BLACK
6
CONTINUOUS
10
0.1393117322834646
20
0.205181062992126
11
0.1426435039370079
21
0.1995473228346457
0
LINE
8
BLACK
6
CONTINUOUS
10
0.1426435039370079
20
0.1995473228346457
11
0.1472716929133858
21
0.1949191338582677
0
LINE
8
BLACK
6
CONTINUOUS
10
0.1472716929133858
20
0.1949191338582677
11
0.1529054330708661
21
0.1915873622047244
0
LINE
8
BLACK
6
CONTINUOUS
10
0.1529054330708661
20
0.1915873622047244
11
0.159190748031496
21
0.1897612598425197
0
LINE
8
BLACK
6
CONTINUOUS
10
0.159190748031496
20
0.1897612598425197
11
0.1606591732283464
21
0.1896457086614173
0
LINE
8
BLACK
6
CONTINUOUS
10
0.1606591732283464
20
0.1896457086614173
11
0.1808346456692913
21
0.1896457086614173
0
LINE
8
BLACK
6
CONTINUOUS
10
0.1808346456692913
20
0.1896457086614173
11
0.1808346456692913
21
0.2096456692913386
0
LINE
8
BLACK
6
CONTINUOUS
10
0.1808346456692913
20
0.2096456692913386
11
0.1632755905511811
21
0.2096456692913386
0
LINE
8
BLACK
6
CONTINUOUS
10
0.1632755905511811
20
0.2096456692913386
11
0.1610156299212598
21
0.2100951968503937
0
LINE
8
BLACK
6
CONTINUOUS
10
0.1610156299212598
20
0.2100951968503937
11
0.1590997637795276
21
0.2113753543307087
0
LINE
8
BLACK
6
CONTINUOUS
10
0.1590997637795276
20
0.2113753543307087
11
0.1590454330708661
21
0.2114566929133858
0
LINE
8
BLACK
6
CONTINUOUS
10
0.1590454330708661
20
0.2114566929133858
11
0.1374884645669291
21
0.2114566929133858
0
LINE
8
BLACK
6
CONTINUOUS
10
0.1374884645669291
20
0.2114566929133858
11
0.1393117322834646
21
0.205181062992126
0
LINE
8
BLACK
6
CONTINUOUS
10
0.2438283070866142
20
0.3930332677165354
11
0.2438282677165354
21
0.3930332677165354
0
LINE
8
BLACK
6
CONTINUOUS
10
0.2438282677165354
20
0.3930332677165354
11
0.2380770866141732
21
0.3906510236220472
0
LINE
8
BLACK
6
CONTINUOUS
10
0.2380770866141732
20
0.3906510236220472
11
0.2331385826771654
21
0.3868616141732283
0
LINE
8
BLACK
6
CONTINUOUS
10
0.2331385826771654
20
0.3868616141732283
11
0.2331385433070866
21
0.3868615748031496
0
LINE
8
BLACK
6
CONTINUOUS
10
0.2331385433070866
20
0.3868615748031496
11
0.2331384251968504
21
0.3868614173228346
0
LINE
8
BLACK
6
CONTINUOUS
10
0.2331384251968504
20
0.3868614173228346
11
0.2324789763779528
21
0.3860020472440945
0
LINE
8
BLACK
6
CONTINUOUS
10
0.2324789763779528
20
0.3860020472440945
11
0.2305479921259843
21
0.384887125984252
0
LINE
8
BLACK
6
CONTINUOUS
10
0.2305479921259843
20
0.384887125984252
11
0.2301676771653543
21
0.3848622047244095
0
LINE
8
BLACK
6
CONTINUOUS
10
0.2301676771653543
20
0.3848622047244095
11
0.2292532677165354
21
0.3848622047244095
0
LINE
8
BLACK
6
CONTINUOUS
10
0.2292532677165354
20
0.3848622047244095
11
0.2271931889763779
21
0.3857155118110236
0
LINE
8
BLACK
6
CONTINUOUS
10
0.2271931889763779
20
0.3857155118110236
11
0.2265229133858268
21
0.3863857874015748
0
LINE
8
BLACK
6
CONTINUOUS
10
0.2265229133858268
20
0.3863857874015748
11
0.2223855905511811
21
0.3884083858267716
0
LINE
8
BLACK
6
CONTINUOUS
10
0.2223855905511811
20
0.3884083858267716
11
0.2197033070866142
21
0.3887992125984252
0
LINE
8
BLACK
6
CONTINUOUS
10
0.2197033070866142
20
0.3887992125984252
11
0.2197031496062992
21
0.3887992125984252
0
LINE
8
BLACK
6
CONTINUOUS
10
0.2197031496062992
20
0.3887992125984252
11
0.1619661417322835
21
0.3887992125984252
0
LINE
8
BLACK
6
CONTINUOUS
10
0.1619661417322835
20
0.3887992125984252
11
0.1619659448818898
21
0.3887992125984252
0
LINE
8
BLACK
6
CONTINUOUS
10
0.1619659448818898
20
0.3887992125984252
11
0.1592837007874016
21
0.3884083858267716
0
LINE
8
BLACK
6
CONTINUOUS
10
0.1592837007874016
20
0.3884083858267716
11
0.1592836614173228
21
0.3884083858267716
0
LINE
8
BLACK
6
CONTINUOUS
10
0.1592836614173228
20
0.3884083858267716
11
0.1551463385826772
21
0.3863857874015748
0
LINE
8
BLACK
6
CONTINUOUS
10
0.1551463385826772
20
0.3863857874015748
11
0.1550402362204724
21
0.38631
0
LINE
8
BLACK
6
CONTINUOUS
10
0.1550402362204724
20
0.38631
11
0.1533474015748031
21
0.3857677165354331
0
LINE
8
BLACK
6
CONTINUOUS
10
0.1533474015748031
20
0.3857677165354331
11
0.1291374803149606
21
0.3857677165354331
0
LINE
8
BLACK
6
CONTINUOUS
10
0.1291374803149606
20
0.3857677165354331
11
0.1270774015748032
21
0.3866210236220473
0
LINE
8
BLACK
6
CONTINUOUS
10
0.1270774015748032
20
0.3866210236220473
11
0.1269024015748031
21
0.3868205511811024
0
LINE
8
BLACK
6
CONTINUOUS
10
0.1269024015748031
20
0.3868205511811024
11
0.1268612992125984
21
0.3868616929133858
0
LINE
8
BLACK
6
CONTINUOUS
10
0.1268612992125984
20
0.3868616929133858
11
0.121922874015748
21
0.3906510236220472
0
LINE
8
BLACK
6
CONTINUOUS
10
0.121922874015748
20
0.3906510236220472
11
0.1161716929133858
21
0.3930332677165354
0
LINE
8
BLACK
6
CONTINUOUS
10
0.1161716929133858
20
0.3930332677165354
11
0.11
21
0.3938457480314961
0
LINE
8
BLACK
6
CONTINUOUS
10
0.11
20
0.3938457480314961
11
0.1038283070866142
21
0.3930332677165354
0
LINE
8
BLACK
6
CONTINUOUS
10
0.1038283070866142
20
0.3930332677165354
11
0.1038282677165354
21
0.3930332677165354
0
LINE
8
BLACK
6
CONTINUOUS
10
0.1038282677165354
20
0.3930332677165354
11
0.0980770866141732
21
0.3906510236220472
0
LINE
8
BLACK
6
CONTINUOUS
10
0.0980770866141732
20
0.3906510236220472
11
0.0931385826771653
21
0.3868616141732283
0
LINE
8
BLACK
6
CONTINUOUS
10
0.0931385826771653
20
0.3868616141732283
11
0.0931383858267717
21
0.3868614173228346
0
LINE
8
BLACK
6
CONTINUOUS
10
0.0931383858267717
20
0.3868614173228346
11
0.0893489763779527
21
0.3819229133858268
0
LINE
8
BLACK
6
CONTINUOUS
10
0.0893489763779527
20
0.3819229133858268
11
0.0869667322834646
21
0.3761717322834646
0
LINE
8
BLACK
6
CONTINUOUS
10
0.0869667322834646
20
0.3761717322834646
11
0.0869667322834646
21
0.3761716929133858
0
LINE
8
BLACK
6
CONTINUOUS
10
0.0869667322834646
20
0.3761716929133858
11
0.0861542519685039
21
0.37
0
LINE
8
BLACK
6
CONTINUOUS
10
0.0861542519685039
20
0.37
11
0.0869667322834646
21
0.3638283464566929
0
LINE
8
BLACK
6
CONTINUOUS
10
0.0869667322834646
20
0.3638283464566929
11
0.0869667322834646
21
0.3638283070866142
0
LINE
8
BLACK
6
CONTINUOUS
10
0.0869667322834646
20
0.3638283070866142
11
0.0893489763779527
21
0.358077125984252
0
LINE
8
BLACK
6
CONTINUOUS
10
0.0893489763779527
20
0.358077125984252
11
0.0931383858267717
21
0.3531386220472441
0
LINE
8
BLACK
6
CONTINUOUS
10
0.0931383858267717
20
0.3531386220472441
11
0.0931385826771653
21
0.3531384251968504
0
LINE
8
BLACK
6
CONTINUOUS
10
0.0931385826771653
20
0.3531384251968504
11
0.0940051968503937
21
0.3524734645669291
0
LINE
8
BLACK
6
CONTINUOUS
10
0.0940051968503937
20
0.3524734645669291
11
0.098077125984252
21
0.3493489763779528
0
LINE
8
BLACK
6
CONTINUOUS
10
0.098077125984252
20
0.3493489763779528
11
0.1038282677165354
21
0.3469667716535433
0
LINE
8
BLACK
6
CONTINUOUS
10
0.1038282677165354
20
0.3469667716535433
11
0.11
21
0.3461542519685039
0
LINE
8
BLACK
6
CONTINUOUS
10
0.11
20
0.3461542519685039
11
0.1161717322834646
21
0.3469667716535433
0
LINE
8
BLACK
6
CONTINUOUS
10
0.1161717322834646
20
0.3469667716535433
11
0.121922874015748
21
0.3493489763779528
0
LINE
8
BLACK
6
CONTINUOUS
10
0.121922874015748
20
0.3493489763779528
11
0.1268614960629921
21
0.3531385039370079
0
LINE
8
BLACK
6
CONTINUOUS
10
0.1268614960629921
20
0.3531385039370079
11
0.1268616141732283
21
0.3531387007874016
0
LINE
8
BLACK
6
CONTINUOUS
10
0.1268616141732283
20
0.3531387007874016
11
0.1269963385826772
21
0.3532733858267716
0
LINE
8
BLACK
6
CONTINUOUS
10
0.1269963385826772
20
0.3532733858267716
11
0.1270487007874016
21
0.3532210236220472
0
LINE
8
BLACK
6
CONTINUOUS
10
0.1270487007874016
20
0.3532210236220472
11
0.1287572834645669
21
0.3542073622047244
0
LINE
8
BLACK
6
CONTINUOUS
10
0.1287572834645669
20
0.3542073622047244
11
0.1291374803149606
21
0.3542322834645669
0
LINE
8
BLACK
6
CONTINUOUS
10
0.1291374803149606
20
0.3542322834645669
11
0.1515105118110236
21
0.3542322834645669
0
LINE
8
BLACK
6
CONTINUOUS
10
0.1515105118110236
20
0.3542322834645669
11
0.1535705905511811
21
0.3533789763779527
0
LINE
8
BLACK
6
CONTINUOUS
10
0.1535705905511811
20
0.3533789763779527
11
0.1551463385826772
21
0.3518032283464567
0
LINE
8
BLACK
6
CONTINUOUS
10
0.1551463385826772
20
0.3518032283464567
11
0.1592837401574803
21
0.3497805905511811
0
LINE
8
BLACK
6
CONTINUOUS
10
0.1592837401574803
20
0.3497805905511811
11
0.1619661417322835
21
0.3493897637795276
0
LINE
8
BLACK
6
CONTINUOUS
10
0.1619661417322835
20
0.3493897637795276
11
0.1619663779527559
21
0.3493897637795276
0
LINE
8
BLACK
6
CONTINUOUS
10
0.1619663779527559
20
0.3493897637795276
11
0.2197029133858268
21
0.3493897637795276
0
LINE
8
BLACK
6
CONTINUOUS
10
0.2197029133858268
20
0.3493897637795276
11
0.2197031496062992
21
0.3493897637795276
0
LINE
8
BLACK
6
CONTINUOUS
10
0.2197031496062992
20
0.3493897637795276
11
0.2223855511811024
21
0.3497805905511811
0
LINE
8
BLACK
6
CONTINUOUS
10
0.2223855511811024
20
0.3497805905511811
11
0.2265229527559055
21
0.3518032283464567
0
LINE
8
BLACK
6
CONTINUOUS
10
0.2265229527559055
20
0.3518032283464567
11
0.2271931889763779
21
0.3524734645669291
0
LINE
8
BLACK
6
CONTINUOUS
10
0.2271931889763779
20
0.3524734645669291
11
0.2292532677165354
21
0.3533267716535433
0
LINE
8
BLACK
6
CONTINUOUS
10
0.2292532677165354
20
0.3533267716535433
11
0.2319041732283464
21
0.3533267716535433
0
LINE
8
BLACK
6
CONTINUOUS
10
0.2319041732283464
20
0.3533267716535433
11
0.2336777165354331
21
0.3527247244094488
0
LINE
8
BLACK
6
CONTINUOUS
10
0.2336777165354331
20
0.3527247244094488
11
0.2348786614173228
21
0.3518032283464567
0
LINE
8
BLACK
6
CONTINUOUS
10
0.2348786614173228
20
0.3518032283464567
11
0.238077125984252
21
0.3493489763779528
0
LINE
8
BLACK
6
CONTINUOUS
10
0.238077125984252
20
0.3493489763779528
11
0.2438282677165354
21
0.3469667716535433
0
LINE
8
BLACK
6
CONTINUOUS
10
0.2438282677165354
20
0.3469667716535433
11
0.25
21
0.3461542519685039
0
LINE
8
BLACK
6
CONTINUOUS
10
0.25
20
0.3461542519685039
11
0.2561717322834646
21
0.3469667716535433
0
LINE
8
BLACK
6
CONTINUOUS
10
0.2561717322834646
20
0.3469667716535433
11
0.261922874015748
21
0.3493489763779528
0
LINE
8
BLACK
6
CONTINUOUS
10
0.261922874015748
20
0.3493489763779528
11
0.2668614960629921
21
0.3531385039370079
0
LINE
8
BLACK
6
CONTINUOUS
10
0.2668614960629921
20
0.3531385039370079
11
0.2706510236220472
21
0.358077125984252
0
LINE
8
BLACK
6
CONTINUOUS
10
0.2706510236220472
20
0.358077125984252
11
0.2730332283464567
21
0.3638282677165354
0
LINE
8
BLACK
6
CONTINUOUS
10
0.2730332283464567
20
0.3638282677165354
11
0.2738457480314961
21
0.37
0
LINE
8
BLACK
6
CONTINUOUS
10
0.2738457480314961
20
0.37
11
0.2730332283464567
21
0.3761717322834646
0
LINE
8
BLACK
6
CONTINUOUS
10
0.2730332283464567
20
0.3761717322834646
11
0.2706510236220472
21
0.381922874015748
0
LINE
8
BLACK
6
CONTINUOUS
10
0.2706510236220472
20
0.381922874015748
11
0.2683764960629921
21
0.384887125984252
0
LINE
8
BLACK
6
CONTINUOUS
10
0.2683764960629921
20
0.384887125984252
11
0.2668615748031496
21
0.3868614173228346
0
LINE
8
BLACK
6
CONTINUOUS
10
0.2668615748031496
20
0.3868614173228346
11
0.2668613779527559
21
0.3868616141732283
0
LINE
8
BLACK
6
CONTINUOUS
10
0.2668613779527559
20
0.3868616141732283
11
0.261922874015748
21
0.3906510236220472
0
LINE
8
BLACK
6
CONTINUOUS
10
0.261922874015748
20
0.3906510236220472
11
0.2561716929133858
21
0.3930332677165354
0
LINE
8
BLACK
6
CONTINUOUS
10
0.2561716929133858
20
0.3930332677165354
11
0.25
21
0.3938457480314961
0
LINE
8
BLACK
6
CONTINUOUS
10
0.25
20
0.3938457480314961
11
0.2438283070866142
21
0.3930332677165354
0
LINE
8
BLACK
6
CONTINUOUS
10
0.0748503937007874
20
0.4616141732283465
11
0.1081574803149606
21
0.4616141732283465
0
LINE
8
BLACK
6
CONTINUOUS
10
0.1081574803149606
20
0.4616141732283465
11
0.1119240551181102
21
0.4608649606299213
0
LINE
8
BLACK
6
CONTINUOUS
10
0.1119240551181102
20
0.4608649606299213
11
0.1151172047244094
21
0.4587313779527559
0
LINE
8
BLACK
6
CONTINUOUS
10
0.1151172047244094
20
0.4587313779527559
11
0.1172507874015748
21
0.4555382283464567
0
LINE
8
BLACK
6
CONTINUOUS
10
0.1172507874015748
20
0.4555382283464567
11
0.1179686614173228
21
0.4519291338582677
0
LINE
8
BLACK
6
CONTINUOUS
10
0.1179686614173228
20
0.4519291338582677
11
0.138
21
0.4519291338582677
0
LINE
8
BLACK
6
CONTINUOUS
10
0.138
20
0.4519291338582677
11
0.138
21
0.4537599606299212
0
LINE
8
BLACK
6
CONTINUOUS
10
0.138
20
0.4537599606299212
11
0.1379999606299213
21
0.4537600393700787
0
LINE
8
BLACK
6
CONTINUOUS
10
0.1379999606299213
20
0.4537600393700787
11
0.1375824015748031
21
0.4578474803149606
0
LINE
8
BLACK
6
CONTINUOUS
10
0.1375824015748031
20
0.4578474803149606
11
0.1353880708661417
21
0.4644694881889764
0
LINE
8
BLACK
6
CONTINUOUS
10
0.1353880708661417
20
0.4644694881889764
11
0.1317257480314961
21
0.4704070472440945
0
LINE
8
BLACK
6
CONTINUOUS
10
0.1317257480314961
20
0.4704070472440945
11
0.1317256692913386
21
0.4704071653543307
0
LINE
8
BLACK
6
CONTINUOUS
10
0.1317256692913386
20
0.4704071653543307
11
0.1267929921259842
21
0.475339842519685
0
LINE
8
BLACK
6
CONTINUOUS
10
0.1267929921259842
20
0.475339842519685
11
0.1267928346456693
21
0.4753399606299212
0
LINE
8
BLACK
6
CONTINUOUS
10
0.1267928346456693
20
0.4753399606299212
11
0.1208552755905512
21
0.4790022834645669
0
LINE
8
BLACK
6
CONTINUOUS
10
0.1208552755905512
20
0.4790022834645669
11
0.1142332677165354
21
0.4811966141732283
0
LINE
8
BLACK
6
CONTINUOUS
10
0.1142332677165354
20
0.4811966141732283
11
0.1101458267716535
21
0.4816141732283464
0
LINE
8
BLACK
6
CONTINUOUS
10
0.1101458267716535
20
0.4816141732283464
11
0.0748503937007874
21
0.4816141732283464
0
LINE
8
BLACK
6
CONTINUOUS
10
0.0748503937007874
20
0.4816141732283464
11
0.0748503937007874
21
0.4616141732283465
0
LINE
8
BLACK
6
CONTINUOUS
10
0.1101457874015748
20
0.1089370078740158
11
0.1101458267716535
21
0.1089370472440945
0
LINE
8
BLACK
6
CONTINUOUS
10
0.1101458267716535
20
0.1089370472440945
11
0.1142332677165354
21
0.1093546062992126
0
LINE
8
BLACK
6
CONTINUOUS
10
0.1142332677165354
20
0.1093546062992126
11
0.1208552755905512
21
0.111548937007874
0
LINE
8
BLACK
6
CONTINUOUS
10
0.1208552755905512
20
0.111548937007874
11
0.1267928346456693
21
0.1152112598425197
0
LINE
8
BLACK
6
CONTINUOUS
10
0.1267928346456693
20
0.1152112598425197
11
0.1267929921259842
21
0.1152113385826772
0
LINE
8
BLACK
6
CONTINUOUS
10
0.1267929921259842
20
0.1152113385826772
11
0.1317256692913386
21
0.1201440157480315
0
LINE
8
BLACK
6
CONTINUOUS
10
0.1317256692913386
20
0.1201440157480315
11
0.1317257480314961
21
0.1201441732283465
0
LINE
8
BLACK
6
CONTINUOUS
10
0.1317257480314961
20
0.1201441732283465
11
0.1353880708661417
21
0.1260817322834646
0
LINE
8
BLACK
6
CONTINUOUS
10
0.1353880708661417
20
0.1260817322834646
11
0.1375824015748031
21
0.1327037401574803
0
LINE
8
BLACK
6
CONTINUOUS
10
0.1375824015748031
20
0.1327037401574803
11
0.1379999606299213
21
0.1367911811023622
0
LINE
8
BLACK
6
CONTINUOUS
10
0.1379999606299213
20
0.1367911811023622
11
0.138
21
0.1367912598425197
0
LINE
8
BLACK
6
CONTINUOUS
10
0.138
20
0.1367912598425197
11
0.138
21
0.1386220472440945
0
LINE
8
BLACK
6
CONTINUOUS
10
0.138
20
0.1386220472440945
11
0.1179686614173228
21
0.1386220472440945
0
LINE
8
BLACK
6
CONTINUOUS
10
0.1179686614173228
20
0.1386220472440945
11
0.1172507874015748
21
0.1350129527559055
0
LINE
8
BLACK
6
CONTINUOUS
10
0.1172507874015748
20
0.1350129527559055
11
0.1151172047244094
21
0.1318198031496063
0
LINE
8
BLACK
6
CONTINUOUS
10
0.1151172047244094
20
0.1318198031496063
11
0.1119240551181102
21
0.1296862204724409
0
LINE
8
BLACK
6
CONTINUOUS
10
0.1119240551181102
20
0.1296862204724409
11
0.1081574803149606
21
0.1289370078740157
0
LINE
8
BLACK
6
CONTINUOUS
10
0.1081574803149606
20
0.1289370078740157
11
0.0748503937007874
21
0.1289370078740157
0
LINE
8
BLACK
6
CONTINUOUS
10
0.0748503937007874
20
0.1289370078740157
11
0.0748503937007874
21
0.1089370078740158
0
LINE
8
BLACK
6
CONTINUOUS
10
0.0748503937007874
20
0.1089370078740158
11
0.1101457874015748
21
0.1089370078740158
0
LINE
8
BLACK
6
CONTINUOUS
10
0.1101457874015748
20
0.402244094488189
11
0.1101458267716535
21
0.4022441338582677
0
LINE
8
BLACK
6
CONTINUOUS
10
0.1101458267716535
20
0.4022441338582677
11
0.1142332677165354
21
0.4026616929133858
0
LINE
8
BLACK
6
CONTINUOUS
10
0.1142332677165354
20
0.4026616929133858
11
0.1208552755905512
21
0.4048560236220473
0
LINE
8
BLACK
6
CONTINUOUS
10
0.1208552755905512
20
0.4048560236220473
11
0.1267928346456693
21
0.4085183464566929
0
LINE
8
BLACK
6
CONTINUOUS
10
0.1267928346456693
20
0.4085183464566929
11
0.1267929921259842
21
0.4085184251968504
0
LINE
8
BLACK
6
CONTINUOUS
10
0.1267929921259842
20
0.4085184251968504
11
0.1317256692913386
21
0.4134511023622047
0
LINE
8
BLACK
6
CONTINUOUS
10
0.1317256692913386
20
0.4134511023622047
11
0.1317257480314961
21
0.4134512598425197
0
LINE
8
BLACK
6
CONTINUOUS
10
0.1317257480314961
20
0.4134512598425197
11
0.1353880708661417
21
0.4193888188976378
0
LINE
8
BLACK
6
CONTINUOUS
10
0.1353880708661417
20
0.4193888188976378
11
0.1375824015748031
21
0.4260108267716535
0
LINE
8
BLACK
6
CONTINUOUS
10
0.1375824015748031
20
0.4260108267716535
11
0.1379999606299213
21
0.4300982677165354
0
LINE
8
BLACK
6
CONTINUOUS
10
0.1379999606299213
20
0.4300982677165354
11
0.138
21
0.4300983464566929
0
LINE
8
BLACK
6
CONTINUOUS
10
0.138
20
0.4300983464566929
11
0.138
21
0.4319291338582677
0
LINE
8
BLACK
6
CONTINUOUS
10
0.138
20
0.4319291338582677
11
0.1179686614173228
21
0.4319291338582677
0
LINE
8
BLACK
6
CONTINUOUS
10
0.1179686614173228
20
0.4319291338582677
11
0.1172507874015748
21
0.4283200393700787
0
LINE
8
BLACK
6
CONTINUOUS
10
0.1172507874015748
20
0.4283200393700787
11
0.1151172047244094
21
0.4251268897637795
0
LINE
8
BLACK
6
CONTINUOUS
10
0.1151172047244094
20
0.4251268897637795
11
0.1119240551181102
21
0.4229933070866141
0
LINE
8
BLACK
6
CONTINUOUS
10
0.1119240551181102
20
0.4229933070866141
11
0.1081574803149606
21
0.4222440944881889
0
LINE
8
BLACK
6
CONTINUOUS
10
0.1081574803149606
20
0.4222440944881889
11
0.0748503937007874
21
0.4222440944881889
0
LINE
8
BLACK
6
CONTINUOUS
10
0.0748503937007874
20
0.4222440944881889
11
0.0748503937007874
21
0.402244094488189
0
LINE
8
BLACK
6
CONTINUOUS
10
0.0748503937007874
20
0.402244094488189
11
0.1101457874015748
21
0.402244094488189
0
LINE
8
BLACK
6
CONTINUOUS
10
1.1505553937007873
20
0.2599772834645669
11
1.1549454330708662
21
0.2577404330708661
0
LINE
8
BLACK
6
CONTINUOUS
10
1.1549454330708662
20
0.2577404330708661
11
1.1584294094488188
21
0.2542564566929134
0
LINE
8
BLACK
6
CONTINUOUS
10
1.1584294094488188
20
0.2542564566929134
11
1.1606662598425197
21
0.2498664173228346
0
LINE
8
BLACK
6
CONTINUOUS
10
1.1606662598425197
20
0.2498664173228346
11
1.1614370078740157
21
0.245
0
LINE
8
BLACK
6
CONTINUOUS
10
1.1614370078740157
20
0.245
11
1.1606662598425197
21
0.2401335826771653
0
LINE
8
BLACK
6
CONTINUOUS
10
1.1606662598425197
20
0.2401335826771653
11
1.1584294094488188
21
0.2357435433070866
0
LINE
8
BLACK
6
CONTINUOUS
10
1.1584294094488188
20
0.2357435433070866
11
1.1549454330708662
21
0.2322595669291339
0
LINE
8
BLACK
6
CONTINUOUS
10
1.1549454330708662
20
0.2322595669291339
11
1.1505553937007873
21
0.2300227165354331
0
LINE
8
BLACK
6
CONTINUOUS
10
1.1505553937007873
20
0.2300227165354331
11
1.1456889763779528
21
0.229251968503937
0
LINE
8
BLACK
6
CONTINUOUS
10
1.1456889763779528
20
0.229251968503937
11
1.1417071259842519
21
0.2298826377952756
0
LINE
8
BLACK
6
CONTINUOUS
10
1.1417071259842519
20
0.2298826377952756
11
1.1317193307086615
21
0.219894842519685
0
LINE
8
BLACK
6
CONTINUOUS
10
1.1317193307086615
20
0.219894842519685
11
1.1305261417322834
21
0.2189155905511811
0
LINE
8
BLACK
6
CONTINUOUS
10
1.1305261417322834
20
0.2189155905511811
11
1.1276877165354331
21
0.2177398818897638
0
LINE
8
BLACK
6
CONTINUOUS
10
1.1276877165354331
20
0.2177398818897638
11
1.1261515748031496
21
0.2175885826771654
0
LINE
8
BLACK
6
CONTINUOUS
10
1.1261515748031496
20
0.2175885826771654
11
0.7229822440944882
21
0.2175885826771654
0
LINE
8
BLACK
6
CONTINUOUS
10
0.7229822440944882
20
0.2175885826771654
11
0.7222778346456693
21
0.2162061417322834
0
LINE
8
BLACK
6
CONTINUOUS
10
0.7222778346456693
20
0.2162061417322834
11
0.7187938582677165
21
0.2127221653543307
0
LINE
8
BLACK
6
CONTINUOUS
10
0.7187938582677165
20
0.2127221653543307
11
0.7144038188976378
21
0.2104853149606299
0
LINE
8
BLACK
6
CONTINUOUS
10
0.7144038188976378
20
0.2104853149606299
11
0.7095374015748032
21
0.2097145669291338
0
LINE
8
BLACK
6
CONTINUOUS
10
0.7095374015748032
20
0.2097145669291338
11
0.7046709842519685
21
0.2104853149606299
0
LINE
8
BLACK
6
CONTINUOUS
10
0.7046709842519685
20
0.2104853149606299
11
0.7002809448818897
21
0.2127221653543307
0
LINE
8
BLACK
6
CONTINUOUS
10
0.7002809448818897
20
0.2127221653543307
11
0.696796968503937
21
0.2162061417322834
0
LINE
8
BLACK
6
CONTINUOUS
10
0.696796968503937
20
0.2162061417322834
11
0.6945601181102362
21
0.2205961811023622
0
LINE
8
BLACK
6
CONTINUOUS
10
0.6945601181102362
20
0.2205961811023622
11
0.6937893700787401
21
0.2254625984251968
0
LINE
8
BLACK
6
CONTINUOUS
10
0.6937893700787401
20
0.2254625984251968
11
0.6945601181102362
21
0.2303290157480315
0
LINE
8
BLACK
6
CONTINUOUS
10
0.6945601181102362
20
0.2303290157480315
11
0.696796968503937
21
0.2347190551181102
0
LINE
8
BLACK
6
CONTINUOUS
10
0.696796968503937
20
0.2347190551181102
11
0.7002809448818897
21
0.238203031496063
0
LINE
8
BLACK
6
CONTINUOUS
10
0.7002809448818897
20
0.238203031496063
11
0.7046709842519685
21
0.2404398818897638
0
LINE
8
BLACK
6
CONTINUOUS
10
0.7046709842519685
20
0.2404398818897638
11
0.7095374015748032
21
0.2412106299212598
0
LINE
8
BLACK
6
CONTINUOUS
10
0.7095374015748032
20
0.2412106299212598
11
0.7144038188976378
21
0.2404398818897638
0
LINE
8
BLACK
6
CONTINUOUS
10
0.7144038188976378
20
0.2404398818897638
11
0.7187938582677165
21
0.238203031496063
0
LINE
8
BLACK
6
CONTINUOUS
10
0.7187938582677165
20
0.238203031496063
11
0.7222778346456693
21
0.2347190551181102
0
LINE
8
BLACK
6
CONTINUOUS
10
0.7222778346456693
20
0.2347190551181102
11
0.7229822440944882
21
0.2333366141732283
0
LINE
8
BLACK
6
CONTINUOUS
10
0.7229822440944882
20
0.2333366141732283
11
1.1228900787401574
21
0.2333366141732283
0
LINE
8
BLACK
6
CONTINUOUS
10
1.1228900787401574
20
0.2333366141732283
11
1.1305715748031495
21
0.2410181889763779
0
LINE
8
BLACK
6
CONTINUOUS
10
1.1305715748031495
20
0.2410181889763779
11
1.1299409448818898
21
0.245
0
LINE
8
BLACK
6
CONTINUOUS
10
1.1299409448818898
20
0.245
11
1.1307116929133858
21
0.2498664173228346
0
LINE
8
BLACK
6
CONTINUOUS
10
1.1307116929133858
20
0.2498664173228346
11
1.1329485433070865
21
0.2542564566929134
0
LINE
8
BLACK
6
CONTINUOUS
10
1.1329485433070865
20
0.2542564566929134
11
1.1364325196850393
21
0.2577404330708661
0
LINE
8
BLACK
6
CONTINUOUS
10
1.1364325196850393
20
0.2577404330708661
11
1.140822559055118
21
0.2599772834645669
0
LINE
8
BLACK
6
CONTINUOUS
10
1.140822559055118
20
0.2599772834645669
11
1.1456889763779528
21
0.260748031496063
0
LINE
8
BLACK
6
CONTINUOUS
10
1.1456889763779528
20
0.260748031496063
11
1.1505553937007873
21
0.2599772834645669
0
LINE
8
BLACK
6
CONTINUOUS
10
0.2206536614173228
20
0.3312433858267717
11
0.2225695275590551
21
0.3299632283464567
0
LINE
8
BLACK
6
CONTINUOUS
10
0.2225695275590551
20
0.3299632283464567
11
0.2238496850393701
21
0.3280473622047244
0
LINE
8
BLACK
6
CONTINUOUS
10
0.2238496850393701
20
0.3280473622047244
11
0.2242992125984252
21
0.3257874015748031
0
LINE
8
BLACK
6
CONTINUOUS
10
0.2242992125984252
20
0.3257874015748031
11
0.2242992125984252
21
0.3218888582677165
0
LINE
8
BLACK
6
CONTINUOUS
10
0.2242992125984252
20
0.3218888582677165
11
0.2555677952755905
21
0.2906202755905511
0
LINE
8
BLACK
6
CONTINUOUS
10
0.2555677952755905
20
0.2906202755905511
11
0.2565470078740157
21
0.2894270866141732
0
LINE
8
BLACK
6
CONTINUOUS
10
0.2565470078740157
20
0.2894270866141732
11
0.257722716535433
21
0.2865886614173228
0
LINE
8
BLACK
6
CONTINUOUS
10
0.257722716535433
20
0.2865886614173228
11
0.2578740157480315
21
0.2850525196850394
0
LINE
8
BLACK
6
CONTINUOUS
10
0.2578740157480315
20
0.2850525196850394
11
0.2578740157480315
21
0.283444842519685
0
LINE
8
BLACK
6
CONTINUOUS
10
0.2578740157480315
20
0.283444842519685
11
0.2592564566929134
21
0.2827404330708662
0
LINE
8
BLACK
6
CONTINUOUS
10
0.2592564566929134
20
0.2827404330708662
11
0.2627404330708661
21
0.2792564566929134
0
LINE
8
BLACK
6
CONTINUOUS
10
0.2627404330708661
20
0.2792564566929134
11
0.2644478346456693
21
0.2759055118110236
0
LINE
8
BLACK
6
CONTINUOUS
10
0.2644478346456693
20
0.2759055118110236
11
0.6175542519685039
21
0.2759055118110236
0
LINE
8
BLACK
6
CONTINUOUS
10
0.6175542519685039
20
0.2759055118110236
11
0.6406168897637795
21
0.2989681889763779
0
LINE
8
BLACK
6
CONTINUOUS
10
0.6406168897637795
20
0.2989681889763779
11
0.6400231102362205
21
0.3001335826771653
0
LINE
8
BLACK
6
CONTINUOUS
10
0.6400231102362205
20
0.3001335826771653
11
0.6392523622047244
21
0.305
0
LINE
8
BLACK
6
CONTINUOUS
10
0.6392523622047244
20
0.305
11
0.6400231102362205
21
0.3098664173228347
0
LINE
8
BLACK
6
CONTINUOUS
10
0.6400231102362205
20
0.3098664173228347
11
0.6422599606299213
21
0.3142564566929134
0
LINE
8
BLACK
6
CONTINUOUS
10
0.6422599606299213
20
0.3142564566929134
11
0.645743937007874
21
0.3177404330708661
0
LINE
8
BLACK
6
CONTINUOUS
10
0.645743937007874
20
0.3177404330708661
11
0.6501339763779528
21
0.3199772834645669
0
LINE
8
BLACK
6
CONTINUOUS
10
0.6501339763779528
20
0.3199772834645669
11
0.6550003937007874
21
0.320748031496063
0
LINE
8
BLACK
6
CONTINUOUS
10
0.6550003937007874
20
0.320748031496063
11
0.659866811023622
21
0.3199772834645669
0
LINE
8
BLACK
6
CONTINUOUS
10
0.659866811023622
20
0.3199772834645669
11
0.6642568503937007
21
0.3177404330708661
0
LINE
8
BLACK
6
CONTINUOUS
10
0.6642568503937007
20
0.3177404330708661
11
0.6677408267716535
21
0.3142564566929134
0
LINE
8
BLACK
6
CONTINUOUS
10
0.6677408267716535
20
0.3142564566929134
11
0.6694482283464567
21
0.3109055118110236
0
LINE
8
BLACK
6
CONTINUOUS
10
0.6694482283464567
20
0.3109055118110236
11
0.6750261023622047
21
0.3109055118110236
0
LINE
8
BLACK
6
CONTINUOUS
10
0.6750261023622047
20
0.3109055118110236
11
0.6761782283464567
21
0.3107920472440945
0
LINE
8
BLACK
6
CONTINUOUS
10
0.6761782283464567
20
0.3107920472440945
11
0.6768580708661417
21
0.3105104330708661
0
LINE
8
BLACK
6
CONTINUOUS
10
0.6768580708661417
20
0.3105104330708661
11
0.6783070078740158
21
0.3099102755905512
0
LINE
8
BLACK
6
CONTINUOUS
10
0.6783070078740158
20
0.3099102755905512
11
0.6792019291338582
21
0.3091758267716536
0
LINE
8
BLACK
6
CONTINUOUS
10
0.6792019291338582
20
0.3091758267716536
11
0.7038298031496063
21
0.2845479527559055
0
LINE
8
BLACK
6
CONTINUOUS
10
0.7038298031496063
20
0.2845479527559055
11
0.7049952362204724
21
0.2851417322834646
0
LINE
8
BLACK
6
CONTINUOUS
10
0.7049952362204724
20
0.2851417322834646
11
0.7098616535433071
21
0.2859124803149606
0
LINE
8
BLACK
6
CONTINUOUS
10
0.7098616535433071
20
0.2859124803149606
11
0.7147280708661418
21
0.2851417322834646
0
LINE
8
BLACK
6
CONTINUOUS
10
0.7147280708661418
20
0.2851417322834646
11
0.7191181102362204
21
0.2829048818897638
0
LINE
8
BLACK
6
CONTINUOUS
10
0.7191181102362204
20
0.2829048818897638
11
0.7226020866141732
21
0.279420905511811
0
LINE
8
BLACK
6
CONTINUOUS
10
0.7226020866141732
20
0.279420905511811
11
0.7248389370078741
21
0.2750308661417323
0
LINE
8
BLACK
6
CONTINUOUS
10
0.7248389370078741
20
0.2750308661417323
11
0.7256096850393701
21
0.2701644488188976
0
LINE
8
BLACK
6
CONTINUOUS
10
0.7256096850393701
20
0.2701644488188976
11
0.7248389370078741
21
0.265298031496063
0
LINE
8
BLACK
6
CONTINUOUS
10
0.7248389370078741
20
0.265298031496063
11
0.7226020866141732
21
0.2609079921259843
0
LINE
8
BLACK
6
CONTINUOUS
10
0.7226020866141732
20
0.2609079921259843
11
0.7191181102362204
21
0.2574240157480315
0
LINE
8
BLACK
6
CONTINUOUS
10
0.7191181102362204
20
0.2574240157480315
11
0.7147280708661418
21
0.2551871653543307
0
LINE
8
BLACK
6
CONTINUOUS
10
0.7147280708661418
20
0.2551871653543307
11
0.7098616535433071
21
0.2544164173228347
0
LINE
8
BLACK
6
CONTINUOUS
10
0.7098616535433071
20
0.2544164173228347
11
0.7049952362204724
21
0.2551871653543307
0
LINE
8
BLACK
6
CONTINUOUS
10
0.7049952362204724
20
0.2551871653543307
11
0.7006051968503937
21
0.2574240157480315
0
LINE
8
BLACK
6
CONTINUOUS
10
0.7006051968503937
20
0.2574240157480315
11
0.697121220472441
21
0.2609079921259843
0
LINE
8
BLACK
6
CONTINUOUS
10
0.697121220472441
20
0.2609079921259843
11
0.6948843700787402
21
0.265298031496063
0
LINE
8
BLACK
6
CONTINUOUS
10
0.6948843700787402
20
0.265298031496063
11
0.694113622047244
21
0.2701644488188976
0
LINE
8
BLACK
6
CONTINUOUS
10
0.694113622047244
20
0.2701644488188976
11
0.6948843700787402
21
0.2750308661417323
0
LINE
8
BLACK
6
CONTINUOUS
10
0.6948843700787402
20
0.2750308661417323
11
0.6954781496062992
21
0.2761962992125984
0
LINE
8
BLACK
6
CONTINUOUS
10
0.6954781496062992
20
0.2761962992125984
11
0.6725799606299212
21
0.2990944881889764
0
LINE
8
BLACK
6
CONTINUOUS
10
0.6725799606299212
20
0.2990944881889764
11
0.6694482283464567
21
0.2990944881889764
0
LINE
8
BLACK
6
CONTINUOUS
10
0.6694482283464567
20
0.2990944881889764
11
0.6677408267716535
21
0.2957435433070866
0
LINE
8
BLACK
6
CONTINUOUS
10
0.6677408267716535
20
0.2957435433070866
11
0.6642568503937007
21
0.2922595669291339
0
LINE
8
BLACK
6
CONTINUOUS
10
0.6642568503937007
20
0.2922595669291339
11
0.659866811023622
21
0.290022716535433
0
LINE
8
BLACK
6
CONTINUOUS
10
0.659866811023622
20
0.290022716535433
11
0.6550003937007874
21
0.289251968503937
0
LINE
8
BLACK
6
CONTINUOUS
10
0.6550003937007874
20
0.289251968503937
11
0.6501339763779528
21
0.290022716535433
0
LINE
8
BLACK
6
CONTINUOUS
10
0.6501339763779528
20
0.290022716535433
11
0.6489685433070866
21
0.2906165354330709
0
LINE
8
BLACK
6
CONTINUOUS
10
0.6489685433070866
20
0.2906165354330709
11
0.6241762204724409
21
0.2658241732283464
0
LINE
8
BLACK
6
CONTINUOUS
10
0.6241762204724409
20
0.2658241732283464
11
0.6232812992125984
21
0.2650897244094488
0
LINE
8
BLACK
6
CONTINUOUS
10
0.6232812992125984
20
0.2650897244094488
11
0.6227421653543307
21
0.2648664173228346
0
LINE
8
BLACK
6
CONTINUOUS
10
0.6227421653543307
20
0.2648664173228346
11
0.6211525196850394
21
0.2642079527559055
0
LINE
8
BLACK
6
CONTINUOUS
10
0.6211525196850394
20
0.2642079527559055
11
0.6200003937007874
21
0.2640944881889764
0
LINE
8
BLACK
6
CONTINUOUS
10
0.6200003937007874
20
0.2640944881889764
11
0.2644478346456693
21
0.2640944881889764
0
LINE
8
BLACK
6
CONTINUOUS
10
0.2644478346456693
20
0.2640944881889764
11
0.2627404330708661
21
0.2607435433070866
0
LINE
8
BLACK
6
CONTINUOUS
10
0.2627404330708661
20
0.2607435433070866
11
0.2592564566929134
21
0.2572595669291339
0
LINE
8
BLACK
6
CONTINUOUS
10
0.2592564566929134
20
0.2572595669291339
11
0.2548664173228347
21
0.2550227165354331
0
LINE
8
BLACK
6
CONTINUOUS
10
0.2548664173228347
20
0.2550227165354331
11
0.25
21
0.254251968503937
0
LINE
8
BLACK
6
CONTINUOUS
10
0.25
20
0.254251968503937
11
0.2451335826771653
21
0.2550227165354331
0
LINE
8
BLACK
6
CONTINUOUS
10
0.2451335826771653
20
0.2550227165354331
11
0.2407435433070866
21
0.2572595669291339
0
LINE
8
BLACK
6
CONTINUOUS
10
0.2407435433070866
20
0.2572595669291339
11
0.2372595669291339
21
0.2607435433070866
0
LINE
8
BLACK
6
CONTINUOUS
10
0.2372595669291339
20
0.2607435433070866
11
0.2350227165354331
21
0.2651335826771654
0
LINE
8
BLACK
6
CONTINUOUS
10
0.2350227165354331
20
0.2651335826771654
11
0.234251968503937
21
0.27
0
LINE
8
BLACK
6
CONTINUOUS
10
0.234251968503937
20
0.27
11
0.2350227165354331
21
0.2748664173228346
0
LINE
8
BLACK
6
CONTINUOUS
10
0.2350227165354331
20
0.2748664173228346
11
0.2372595669291339
21
0.2792564566929134
0
LINE
8
BLACK
6
CONTINUOUS
10
0.2372595669291339
20
0.2792564566929134
11
0.2407435433070866
21
0.2827404330708662
0
LINE
8
BLACK
6
CONTINUOUS
10
0.2407435433070866
20
0.2827404330708662
11
0.2410303543307087
21
0.2828866141732284
0
LINE
8
BLACK
6
CONTINUOUS
10
0.2410303543307087
20
0.2828866141732284
11
0.2158461417322834
21
0.3080708661417323
0
LINE
8
BLACK
6
CONTINUOUS
10
0.2158461417322834
20
0.3080708661417323
11
0.1632755905511811
21
0.3080708661417323
0
LINE
8
BLACK
6
CONTINUOUS
10
0.1632755905511811
20
0.3080708661417323
11
0.1610156299212598
21
0.3085203937007874
0
LINE
8
BLACK
6
CONTINUOUS
10
0.1610156299212598
20
0.3085203937007874
11
0.1590997637795276
21
0.3098005511811023
0
LINE
8
BLACK
6
CONTINUOUS
10
0.1590997637795276
20
0.3098005511811023
11
0.1578196062992126
21
0.3117164173228346
0
LINE
8
BLACK
6
CONTINUOUS
10
0.1578196062992126
20
0.3117164173228346
11
0.1573700787401575
21
0.3139763779527559
0
LINE
8
BLACK
6
CONTINUOUS
10
0.1573700787401575
20
0.3139763779527559
11
0.1573700787401575
21
0.3257874015748031
0
LINE
8
BLACK
6
CONTINUOUS
10
0.1573700787401575
20
0.3257874015748031
11
0.1578196062992126
21
0.3280473622047244
0
LINE
8
BLACK
6
CONTINUOUS
10
0.1578196062992126
20
0.3280473622047244
11
0.1590997637795276
21
0.3299632283464567
0
LINE
8
BLACK
6
CONTINUOUS
10
0.1590997637795276
20
0.3299632283464567
11
0.1610156299212598
21
0.3312433858267717
0
LINE
8
BLACK
6
CONTINUOUS
10
0.1610156299212598
20
0.3312433858267717
11
0.1632755905511811
21
0.3316929133858267
0
LINE
8
BLACK
6
CONTINUOUS
10
0.1632755905511811
20
0.3316929133858267
11
0.2183937007874016
21
0.3316929133858267
0
LINE
8
BLACK
6
CONTINUOUS
10
0.2183937007874016
20
0.3316929133858267
11
0.2206536614173228
21
0.3312433858267717
0
LINE
8
BLACK
6
CONTINUOUS
10
0.1170711417322835
20
0.2856465748031496
11
0.1214611811023622
21
0.2834097244094488
0
LINE
8
BLACK
6
CONTINUOUS
10
0.1214611811023622
20
0.2834097244094488
11
0.124945157480315
21
0.2799257480314961
0
LINE
8
BLACK
6
CONTINUOUS
10
0.124945157480315
20
0.2799257480314961
11
0.1256495669291338
21
0.2785433070866142
0
LINE
8
BLACK
6
CONTINUOUS
10
0.1256495669291338
20
0.2785433070866142
11
0.1577616141732283
21
0.2785433070866142
0
LINE
8
BLACK
6
CONTINUOUS
10
0.1577616141732283
20
0.2785433070866142
11
0.1578196062992126
21
0.2788347637795275
0
LINE
8
BLACK
6
CONTINUOUS
10
0.1578196062992126
20
0.2788347637795275
11
0.1590997637795276
21
0.2807506299212598
0
LINE
8
BLACK
6
CONTINUOUS
10
0.1590997637795276
20
0.2807506299212598
11
0.1610156299212598
21
0.2820307874015748
0
LINE
8
BLACK
6
CONTINUOUS
10
0.1610156299212598
20
0.2820307874015748
11
0.1632755905511811
21
0.2824803149606299
0
LINE
8
BLACK
6
CONTINUOUS
10
0.1632755905511811
20
0.2824803149606299
11
0.2183937007874016
21
0.2824803149606299
0
LINE
8
BLACK
6
CONTINUOUS
10
0.2183937007874016
20
0.2824803149606299
11
0.2206536614173228
21
0.2820307874015748
0
LINE
8
BLACK
6
CONTINUOUS
10
0.2206536614173228
20
0.2820307874015748
11
0.2225695275590551
21
0.2807506299212598
0
LINE
8
BLACK
6
CONTINUOUS
10
0.2225695275590551
20
0.2807506299212598
11
0.2238496850393701
21
0.2788347637795275
0
LINE
8
BLACK
6
CONTINUOUS
10
0.2238496850393701
20
0.2788347637795275
11
0.2242992125984252
21
0.2765748031496063
0
LINE
8
BLACK
6
CONTINUOUS
10
0.2242992125984252
20
0.2765748031496063
11
0.2242992125984252
21
0.264763779527559
0
LINE
8
BLACK
6
CONTINUOUS
10
0.2242992125984252
20
0.264763779527559
11
0.2238496850393701
21
0.2625038188976378
0
LINE
8
BLACK
6
CONTINUOUS
10
0.2238496850393701
20
0.2625038188976378
11
0.2225695275590551
21
0.2605879527559055
0
LINE
8
BLACK
6
CONTINUOUS
10
0.2225695275590551
20
0.2605879527559055
11
0.2206536614173228
21
0.2593077952755906
0
LINE
8
BLACK
6
CONTINUOUS
10
0.2206536614173228
20
0.2593077952755906
11
0.2183937007874016
21
0.2588582677165354
0
LINE
8
BLACK
6
CONTINUOUS
10
0.2183937007874016
20
0.2588582677165354
11
0.1632755905511811
21
0.2588582677165354
0
LINE
8
BLACK
6
CONTINUOUS
10
0.1632755905511811
20
0.2588582677165354
11
0.1610156299212598
21
0.2593077952755906
0
LINE
8
BLACK
6
CONTINUOUS
10
0.1610156299212598
20
0.2593077952755906
11
0.1590997637795276
21
0.2605879527559055
0
LINE
8
BLACK
6
CONTINUOUS
10
0.1590997637795276
20
0.2605879527559055
11
0.1578196062992126
21
0.2625038188976378
0
LINE
8
BLACK
6
CONTINUOUS
10
0.1578196062992126
20
0.2625038188976378
11
0.1577616141732283
21
0.2627952755905512
0
LINE
8
BLACK
6
CONTINUOUS
10
0.1577616141732283
20
0.2627952755905512
11
0.1256495669291338
21
0.2627952755905512
0
LINE
8
BLACK
6
CONTINUOUS
10
0.1256495669291338
20
0.2627952755905512
11
0.124945157480315
21
0.2614128346456693
0
LINE
8
BLACK
6
CONTINUOUS
10
0.124945157480315
20
0.2614128346456693
11
0.1214611811023622
21
0.2579288582677166
0
LINE
8
BLACK
6
CONTINUOUS
10
0.1214611811023622
20
0.2579288582677166
11
0.1170711417322835
21
0.2556920078740157
0
LINE
8
BLACK
6
CONTINUOUS
10
0.1170711417322835
20
0.2556920078740157
11
0.1122047244094488
21
0.2549212598425197
0
LINE
8
BLACK
6
CONTINUOUS
10
0.1122047244094488
20
0.2549212598425197
11
0.1073383070866142
21
0.2556920078740157
0
LINE
8
BLACK
6
CONTINUOUS
10
0.1073383070866142
20
0.2556920078740157
11
0.1029482677165354
21
0.2579288582677166
0
LINE
8
BLACK
6
CONTINUOUS
10
0.1029482677165354
20
0.2579288582677166
11
0.0994642913385827
21
0.2614128346456693
0
LINE
8
BLACK
6
CONTINUOUS
10
0.0994642913385827
20
0.2614128346456693
11
0.0972274409448819
21
0.265802874015748
0
LINE
8
BLACK
6
CONTINUOUS
10
0.0972274409448819
20
0.265802874015748
11
0.0964566929133858
21
0.2706692913385827
0
LINE
8
BLACK
6
CONTINUOUS
10
0.0964566929133858
20
0.2706692913385827
11
0.0972274409448819
21
0.2755357086614173
0
LINE
8
BLACK
6
CONTINUOUS
10
0.0972274409448819
20
0.2755357086614173
11
0.0994642913385827
21
0.2799257480314961
0
LINE
8
BLACK
6
CONTINUOUS
10
0.0994642913385827
20
0.2799257480314961
11
0.1029482677165354
21
0.2834097244094488
0
LINE
8
BLACK
6
CONTINUOUS
10
0.1029482677165354
20
0.2834097244094488
11
0.1073383070866142
21
0.2856465748031496
0
LINE
8
BLACK
6
CONTINUOUS
10
0.1073383070866142
20
0.2856465748031496
11
0.1122047244094488
21
0.2864173228346457
0
LINE
8
BLACK
6
CONTINUOUS
10
0.1122047244094488
20
0.2864173228346457
11
0.1170711417322835
21
0.2856465748031496
0
LINE
8
BLACK
6
CONTINUOUS
10
0.5794887795275591
20
0.3303541338582677
11
0.5838788188976378
21
0.3281172834645669
0
LINE
8
BLACK
6
CONTINUOUS
10
0.5838788188976378
20
0.3281172834645669
11
0.5873627952755905
21
0.3246333070866141
0
LINE
8
BLACK
6
CONTINUOUS
10
0.5873627952755905
20
0.3246333070866141
11
0.5895996456692914
21
0.3202432677165354
0
LINE
8
BLACK
6
CONTINUOUS
10
0.5895996456692914
20
0.3202432677165354
11
0.5903703937007874
21
0.3153768503937008
0
LINE
8
BLACK
6
CONTINUOUS
10
0.5903703937007874
20
0.3153768503937008
11
0.5895996456692914
21
0.3105104330708661
0
LINE
8
BLACK
6
CONTINUOUS
10
0.5895996456692914
20
0.3105104330708661
11
0.5873627952755905
21
0.3061203937007874
0
LINE
8
BLACK
6
CONTINUOUS
10
0.5873627952755905
20
0.3061203937007874
11
0.5838788188976378
21
0.3026364173228346
0
LINE
8
BLACK
6
CONTINUOUS
10
0.5838788188976378
20
0.3026364173228346
11
0.5794887795275591
21
0.3003995669291338
0
LINE
8
BLACK
6
CONTINUOUS
10
0.5794887795275591
20
0.3003995669291338
11
0.5746223622047244
21
0.2996288188976378
0
LINE
8
BLACK
6
CONTINUOUS
10
0.5746223622047244
20
0.2996288188976378
11
0.5697559448818897
21
0.3003995669291338
0
LINE
8
BLACK
6
CONTINUOUS
10
0.5697559448818897
20
0.3003995669291338
11
0.565365905511811
21
0.3026364173228346
0
LINE
8
BLACK
6
CONTINUOUS
10
0.565365905511811
20
0.3026364173228346
11
0.5618819291338583
21
0.3061203937007874
0
LINE
8
BLACK
6
CONTINUOUS
10
0.5618819291338583
20
0.3061203937007874
11
0.5613896062992126
21
0.3070866141732284
0
LINE
8
BLACK
6
CONTINUOUS
10
0.5613896062992126
20
0.3070866141732284
11
0.2810226377952756
21
0.3070866141732284
0
LINE
8
BLACK
6
CONTINUOUS
10
0.2810226377952756
20
0.3070866141732284
11
0.2793152362204724
21
0.3037356692913386
0
LINE
8
BLACK
6
CONTINUOUS
10
0.2793152362204724
20
0.3037356692913386
11
0.2758312598425197
21
0.3002516929133858
0
LINE
8
BLACK
6
CONTINUOUS
10
0.2758312598425197
20
0.3002516929133858
11
0.271441220472441
21
0.298014842519685
0
LINE
8
BLACK
6
CONTINUOUS
10
0.271441220472441
20
0.298014842519685
11
0.2665748031496063
21
0.2972440944881889
0
LINE
8
BLACK
6
CONTINUOUS
10
0.2665748031496063
20
0.2972440944881889
11
0.2617083858267716
21
0.298014842519685
0
LINE
8
BLACK
6
CONTINUOUS
10
0.2617083858267716
20
0.298014842519685
11
0.2573183464566929
21
0.3002516929133858
0
LINE
8
BLACK
6
CONTINUOUS
10
0.2573183464566929
20
0.3002516929133858
11
0.2538343700787402
21
0.3037356692913386
0
LINE
8
BLACK
6
CONTINUOUS
10
0.2538343700787402
20
0.3037356692913386
11
0.2515975196850394
21
0.3081257086614173
0
LINE
8
BLACK
6
CONTINUOUS
10
0.2515975196850394
20
0.3081257086614173
11
0.2508267716535433
21
0.312992125984252
0
LINE
8
BLACK
6
CONTINUOUS
10
0.2508267716535433
20
0.312992125984252
11
0.2515975196850394
21
0.3178585433070866
0
LINE
8
BLACK
6
CONTINUOUS
10
0.2515975196850394
20
0.3178585433070866
11
0.2538343700787402
21
0.3222485826771653
0
LINE
8
BLACK
6
CONTINUOUS
10
0.2538343700787402
20
0.3222485826771653
11
0.2573183464566929
21
0.3257325590551181
0
LINE
8
BLACK
6
CONTINUOUS
10
0.2573183464566929
20
0.3257325590551181
11
0.2617083858267716
21
0.3279694094488189
0
LINE
8
BLACK
6
CONTINUOUS
10
0.2617083858267716
20
0.3279694094488189
11
0.2665748031496063
21
0.3287401574803149
0
LINE
8
BLACK
6
CONTINUOUS
10
0.2665748031496063
20
0.3287401574803149
11
0.271441220472441
21
0.3279694094488189
0
LINE
8
BLACK
6
CONTINUOUS
10
0.271441220472441
20
0.3279694094488189
11
0.2758312598425197
21
0.3257325590551181
0
LINE
8
BLACK
6
CONTINUOUS
10
0.2758312598425197
20
0.3257325590551181
11
0.2793152362204724
21
0.3222485826771653
0
LINE
8
BLACK
6
CONTINUOUS
10
0.2793152362204724
20
0.3222485826771653
11
0.2810226377952756
21
0.3188976377952756
0
LINE
8
BLACK
6
CONTINUOUS
10
0.2810226377952756
20
0.3188976377952756
11
0.5594319685039369
21
0.3188976377952756
0
LINE
8
BLACK
6
CONTINUOUS
10
0.5594319685039369
20
0.3188976377952756
11
0.5596450787401575
21
0.3202432677165354
0
LINE
8
BLACK
6
CONTINUOUS
10
0.5596450787401575
20
0.3202432677165354
11
0.5618819291338583
21
0.3246333070866141
0
LINE
8
BLACK
6
CONTINUOUS
10
0.5618819291338583
20
0.3246333070866141
11
0.565365905511811
21
0.3281172834645669
0
LINE
8
BLACK
6
CONTINUOUS
10
0.565365905511811
20
0.3281172834645669
11
0.5697559448818897
21
0.3303541338582677
0
LINE
8
BLACK
6
CONTINUOUS
10
0.5697559448818897
20
0.3303541338582677
11
0.5746223622047244
21
0.3311248818897637
0
LINE
8
BLACK
6
CONTINUOUS
10
0.5746223622047244
20
0.3311248818897637
11
0.5794887795275591
21
0.3303541338582677
0
CIRCLE
8
BLACK
10
0.4921259842519685
20
0.5905511811023622
40
0.0068897637795276
0
CIRCLE
8
BLACK
10
0.4921259842519685
20
0.
40
0.0068897637795276
0
CIRCLE
8
BLACK
10
0.0984251968503937
20
0.5905511811023622
40
0.0068897637795276
0
CIRCLE
8
BLACK
10
0.8858267716535433
20
0.
40
0.0068897637795276
0
CIRCLE
8
BLACK
10
0.8858267716535433
20
0.5905511811023622
40
0.0068897637795276
0
CIRCLE
8
BLACK
10
0.0984251968503937
20
0.
40
0.0068897637795276
0
CIRCLE
8
BLACK
10
0.165
20
0.17
40
0.0078740157480315
0
CIRCLE
8
BLACK
10
0.045
20
0.505
40
0.0078740157480315
0
CIRCLE
8
BLACK
10
0.155
20
0.475
40
0.0078740157480315
0
CIRCLE
8
BLACK
10
0.085
20
0.505
40
0.0078740157480315
0
CIRCLE
8
BLACK
10
0.125
20
0.505
40
0.0078740157480315
0
CIRCLE
8
BLACK
10
0.045
20
0.215
40
0.0078740157480315
0
CIRCLE
8
BLACK
10
0.045
20
0.09
40
0.0078740157480315
0
CIRCLE
8
BLACK
10
0.065
20
0.385
40
0.0078740157480315
0
CIRCLE
8
BLACK
10
0.135
20
0.09
40
0.0078740157480315
0
CIRCLE
8
BLACK
10
0.165
20
0.125
40
0.0078740157480315
0
CIRCLE
8
BLACK
10
0.04
20
0.35
40
0.0078740157480315
0
CIRCLE
8
BLACK
10
0.09
20
0.09
40
0.0078740157480315
0
CIRCLE
8
BLACK
10
0.2
20
0.42
40
0.0078740157480315
0
CIRCLE
8
BLACK
10
0.04
20
0.305
40
0.0078740157480315
0
CIRCLE
8
BLACK
10
0.3561417322834646
20
0.437992125984252
40
0.0078740157480315
0
CIRCLE
8
BLACK
10
0.3590944881889764
20
0.2312992125984252
40
0.0078740157480315
0
CIRCLE
8
BLACK
10
0.04
20
0.26
40
0.0078740157480315
0
CIRCLE
8
BLACK
10
0.16
20
0.42
40
0.0078740157480315
0
CIRCLE
8
BLACK
10
0.7095374015748032
20
0.2254625984251968
40
0.0078740157480315
0
CIRCLE
8
BLACK
10
1.1456889763779528
20
0.245
40
0.0078740157480315
0
CIRCLE
8
BLACK
10
0.11
20
0.37
40
0.0078740157480315
0
CIRCLE
8
BLACK
10
0.25
20
0.37
40
0.0078740157480315
0
CIRCLE
8
BLACK
10
0.1122047244094488
20
0.2706692913385827
40
0.0078740157480315
0
CIRCLE
8
BLACK
10
0.2665748031496063
20
0.312992125984252
40
0.0078740157480315
0
CIRCLE
8
BLACK
10
0.5746223622047244
20
0.3153768503937008
40
0.0078740157480315
0
CIRCLE
8
BLACK
10
0.7098616535433071
20
0.2701644488188976
40
0.0078740157480315
0
CIRCLE
8
BLACK
10
0.25
20
0.27
40
0.0078740157480315
0
CIRCLE
8
BLACK
10
0.6550003937007874
20
0.305
40
0.0078740157480315
  0
ENDSEC
  0
EOF
