  0
SECTION
  2
HEADER
  9
$ANGBASE
  50
0.0
  9
$ANGDIR
  70
1
  9
$MEASUREMENT
  70
0
  0
ENDSEC
  0
SECTION
  2
TABLES
  0
TABLE
  2
LTYPE
  70
4
  0
LTYPE
  5
40F
  2
CONTINUOUS
  70
0
  3
Solid line
  72
65
  73
0
  40
0.0
  0
LTYPE
  5
410
  2
DASHDOT
 70
0
  3
Dash Dot ____ _ ____ _
 72
65
 73
4
 40
2.0
 49
1.25
 49
-0.25
 49
0.25
 49
-0.25
  0
LTYPE
  5
411
  2
DASHED
 70
0
  3
Dashed __ __ __ __ __
 72
65
 73
2
 40
0.75
 49
0.5
 49
-0.25
  0
LTYPE
  5
43B
  2
DOTTED
 70
0
  3
Dotted .  .  .  .
 72
65
 73
2
 40
0.2
 49
0.0
 49
-0.2
  0
ENDTAB
  0
TABLE
  2
STYLE
  70
4
  0
STYLE
  2
KICAD
  70
0
  40
0
  41
1
  42
1
  50
0
  71
0
  3
isocp.shx
  0
STYLE
  2
KICADB
  70
0
  40
0
  41
1
  42
1
  50
0
  71
0
  3
isocp.shx
  0
STYLE
  2
KICADI
  70
0
  40
0
  41
1
  42
1
  50
15
  71
0
  3
isocp.shx
  0
STYLE
  2
KICADBI
  70
0
  40
0
  41
1
  42
1
  50
15
  71
0
  3
isocp.shx
  0
ENDTAB
  0
TABLE
  2
LAYER
  70
1
  0
LAYER
  2
BLACK
  70
0
  62
7
  6
CONTINUOUS
  0
ENDTAB
  0
ENDSEC
  0
SECTION
  2
ENTITIES
0
LINE
8
BLACK
6
CONTINUOUS
10
0.254866
20
0.384977
11
0.259256
21
0.38274
0
LINE
8
BLACK
6
CONTINUOUS
10
0.259256
20
0.38274
11
0.26274
21
0.379256
0
LINE
8
BLACK
6
CONTINUOUS
10
0.26274
20
0.379256
11
0.264977
21
0.374866
0
LINE
8
BLACK
6
CONTINUOUS
10
0.264977
20
0.374866
11
0.265748
21
0.37
0
LINE
8
BLACK
6
CONTINUOUS
10
0.265748
20
0.37
11
0.264977
21
0.365134
0
LINE
8
BLACK
6
CONTINUOUS
10
0.264977
20
0.365134
11
0.26274
21
0.360744
0
LINE
8
BLACK
6
CONTINUOUS
10
0.26274
20
0.360744
11
0.259256
21
0.35726
0
LINE
8
BLACK
6
CONTINUOUS
10
0.259256
20
0.35726
11
0.254866
21
0.355023
0
LINE
8
BLACK
6
CONTINUOUS
10
0.254866
20
0.355023
11
0.25
21
0.354252
0
LINE
8
BLACK
6
CONTINUOUS
10
0.25
20
0.354252
11
0.245134
21
0.355023
0
LINE
8
BLACK
6
CONTINUOUS
10
0.245134
20
0.355023
11
0.240744
21
0.35726
0
LINE
8
BLACK
6
CONTINUOUS
10
0.240744
20
0.35726
11
0.23726
21
0.360744
0
LINE
8
BLACK
6
CONTINUOUS
10
0.23726
20
0.360744
11
0.237017
21
0.36122
0
LINE
8
BLACK
6
CONTINUOUS
10
0.237017
20
0.36122
11
0.223908
21
0.36122
0
LINE
8
BLACK
6
CONTINUOUS
10
0.223908
20
0.36122
11
0.22385
21
0.360929
0
LINE
8
BLACK
6
CONTINUOUS
10
0.22385
20
0.360929
11
0.22257
21
0.359013
0
LINE
8
BLACK
6
CONTINUOUS
10
0.22257
20
0.359013
11
0.220654
21
0.357733
0
LINE
8
BLACK
6
CONTINUOUS
10
0.220654
20
0.357733
11
0.218394
21
0.357283
0
LINE
8
BLACK
6
CONTINUOUS
10
0.218394
20
0.357283
11
0.163276
21
0.357283
0
LINE
8
BLACK
6
CONTINUOUS
10
0.163276
20
0.357283
11
0.161016
21
0.357733
0
LINE
8
BLACK
6
CONTINUOUS
10
0.161016
20
0.357733
11
0.1591
21
0.359013
0
LINE
8
BLACK
6
CONTINUOUS
10
0.1591
20
0.359013
11
0.15782
21
0.360929
0
LINE
8
BLACK
6
CONTINUOUS
10
0.15782
20
0.360929
11
0.157582
21
0.362126
0
LINE
8
BLACK
6
CONTINUOUS
10
0.157582
20
0.362126
11
0.123445
21
0.362126
0
LINE
8
BLACK
6
CONTINUOUS
10
0.123445
20
0.362126
11
0.12274
21
0.360744
0
LINE
8
BLACK
6
CONTINUOUS
10
0.12274
20
0.360744
11
0.119256
21
0.35726
0
LINE
8
BLACK
6
CONTINUOUS
10
0.119256
20
0.35726
11
0.114866
21
0.355023
0
LINE
8
BLACK
6
CONTINUOUS
10
0.114866
20
0.355023
11
0.11
21
0.354252
0
LINE
8
BLACK
6
CONTINUOUS
10
0.11
20
0.354252
11
0.105134
21
0.355023
0
LINE
8
BLACK
6
CONTINUOUS
10
0.105134
20
0.355023
11
0.100744
21
0.35726
0
LINE
8
BLACK
6
CONTINUOUS
10
0.100744
20
0.35726
11
0.0972596
21
0.360744
0
LINE
8
BLACK
6
CONTINUOUS
10
0.0972596
20
0.360744
11
0.0950227
21
0.365134
0
LINE
8
BLACK
6
CONTINUOUS
10
0.0950227
20
0.365134
11
0.094252
21
0.37
0
LINE
8
BLACK
6
CONTINUOUS
10
0.094252
20
0.37
11
0.0950227
21
0.374866
0
LINE
8
BLACK
6
CONTINUOUS
10
0.0950227
20
0.374866
11
0.0972596
21
0.379256
0
LINE
8
BLACK
6
CONTINUOUS
10
0.0972596
20
0.379256
11
0.100744
21
0.38274
0
LINE
8
BLACK
6
CONTINUOUS
10
0.100744
20
0.38274
11
0.105134
21
0.384977
0
LINE
8
BLACK
6
CONTINUOUS
10
0.105134
20
0.384977
11
0.11
21
0.385748
0
LINE
8
BLACK
6
CONTINUOUS
10
0.11
20
0.385748
11
0.114866
21
0.384977
0
LINE
8
BLACK
6
CONTINUOUS
10
0.114866
20
0.384977
11
0.119256
21
0.38274
0
LINE
8
BLACK
6
CONTINUOUS
10
0.119256
20
0.38274
11
0.12274
21
0.379256
0
LINE
8
BLACK
6
CONTINUOUS
10
0.12274
20
0.379256
11
0.123445
21
0.377874
0
LINE
8
BLACK
6
CONTINUOUS
10
0.123445
20
0.377874
11
0.15823
21
0.377874
0
LINE
8
BLACK
6
CONTINUOUS
10
0.15823
20
0.377874
11
0.1591
21
0.379176
0
LINE
8
BLACK
6
CONTINUOUS
10
0.1591
20
0.379176
11
0.161016
21
0.380456
0
LINE
8
BLACK
6
CONTINUOUS
10
0.161016
20
0.380456
11
0.163276
21
0.380906
0
LINE
8
BLACK
6
CONTINUOUS
10
0.163276
20
0.380906
11
0.218394
21
0.380906
0
LINE
8
BLACK
6
CONTINUOUS
10
0.218394
20
0.380906
11
0.220654
21
0.380456
0
LINE
8
BLACK
6
CONTINUOUS
10
0.220654
20
0.380456
11
0.22257
21
0.379176
0
LINE
8
BLACK
6
CONTINUOUS
10
0.22257
20
0.379176
11
0.22385
21
0.37726
0
LINE
8
BLACK
6
CONTINUOUS
10
0.22385
20
0.37726
11
0.223908
21
0.376969
0
LINE
8
BLACK
6
CONTINUOUS
10
0.223908
20
0.376969
11
0.236094
21
0.376969
0
LINE
8
BLACK
6
CONTINUOUS
10
0.236094
20
0.376969
11
0.23726
21
0.379256
0
LINE
8
BLACK
6
CONTINUOUS
10
0.23726
20
0.379256
11
0.240744
21
0.38274
0
LINE
8
BLACK
6
CONTINUOUS
10
0.240744
20
0.38274
11
0.245134
21
0.384977
0
LINE
8
BLACK
6
CONTINUOUS
10
0.245134
20
0.384977
11
0.25
21
0.385748
0
LINE
8
BLACK
6
CONTINUOUS
10
0.25
20
0.385748
11
0.254866
21
0.384977
0
LINE
8
BLACK
6
CONTINUOUS
10
0.0341899
20
0.570165
11
0.035059
21
0.568918
0
LINE
8
BLACK
6
CONTINUOUS
10
0.035059
20
0.568918
11
0.0371544
21
0.563084
0
LINE
8
BLACK
6
CONTINUOUS
10
0.0371544
20
0.563084
11
0.0391055
21
0.559496
0
LINE
8
BLACK
6
CONTINUOUS
10
0.0391055
20
0.559496
11
0.0420652
21
0.554053
0
LINE
8
BLACK
6
CONTINUOUS
10
0.0420652
20
0.554053
11
0.0420653
21
0.554053
0
LINE
8
BLACK
6
CONTINUOUS
10
0.0420653
20
0.554053
11
0.0420653
21
0.554053
0
LINE
8
BLACK
6
CONTINUOUS
10
0.0420653
20
0.554053
11
0.0482972
21
0.545877
0
LINE
8
BLACK
6
CONTINUOUS
10
0.0482972
20
0.545877
11
0.0557042
21
0.538749
0
LINE
8
BLACK
6
CONTINUOUS
10
0.0557042
20
0.538749
11
0.0601374
21
0.535631
0
LINE
8
BLACK
6
CONTINUOUS
10
0.0601374
20
0.535631
11
0.0641125
21
0.532835
0
LINE
8
BLACK
6
CONTINUOUS
10
0.0641125
20
0.532835
11
0.0641126
21
0.532835
0
LINE
8
BLACK
6
CONTINUOUS
10
0.0641126
20
0.532835
11
0.073325
21
0.528273
0
LINE
8
BLACK
6
CONTINUOUS
10
0.073325
20
0.528273
11
0.0805881
21
0.525975
0
LINE
8
BLACK
6
CONTINUOUS
10
0.0805881
20
0.525975
11
0.0831258
21
0.525172
0
LINE
8
BLACK
6
CONTINUOUS
10
0.0831258
20
0.525172
11
0.0932852
21
0.523602
0
LINE
8
BLACK
6
CONTINUOUS
10
0.0932852
20
0.523602
11
0.100991
21
0.523602
0
LINE
8
BLACK
6
CONTINUOUS
10
0.100991
20
0.523602
11
0.100991
21
0.523602
0
LINE
8
BLACK
6
CONTINUOUS
10
0.100991
20
0.523602
11
0.108675
21
0.524192
0
LINE
8
BLACK
6
CONTINUOUS
10
0.108675
20
0.524192
11
0.108675
21
0.524192
0
LINE
8
BLACK
6
CONTINUOUS
10
0.108675
20
0.524192
11
0.108675
21
0.524192
0
LINE
8
BLACK
6
CONTINUOUS
10
0.108675
20
0.524192
11
0.11286
21
0.525172
0
LINE
8
BLACK
6
CONTINUOUS
10
0.11286
20
0.525172
11
0.118684
21
0.526535
0
LINE
8
BLACK
6
CONTINUOUS
10
0.118684
20
0.526535
11
0.128219
21
0.530377
0
LINE
8
BLACK
6
CONTINUOUS
10
0.128219
20
0.530377
11
0.132352
21
0.532835
0
LINE
8
BLACK
6
CONTINUOUS
10
0.132352
20
0.532835
11
0.137055
21
0.535631
0
LINE
8
BLACK
6
CONTINUOUS
10
0.137055
20
0.535631
11
0.137055
21
0.535631
0
LINE
8
BLACK
6
CONTINUOUS
10
0.137055
20
0.535631
11
0.137055
21
0.535631
0
LINE
8
BLACK
6
CONTINUOUS
10
0.137055
20
0.535631
11
0.144986
21
0.542171
0
LINE
8
BLACK
6
CONTINUOUS
10
0.144986
20
0.542171
11
0.151826
21
0.549846
0
LINE
8
BLACK
6
CONTINUOUS
10
0.151826
20
0.549846
11
0.157414
21
0.558474
0
LINE
8
BLACK
6
CONTINUOUS
10
0.157414
20
0.558474
11
0.161619
21
0.567855
0
LINE
8
BLACK
6
CONTINUOUS
10
0.161619
20
0.567855
11
0.161852
21
0.568705
0
LINE
8
BLACK
6
CONTINUOUS
10
0.161852
20
0.568705
11
0.163006
21
0.57033
0
LINE
8
BLACK
6
CONTINUOUS
10
0.163006
20
0.57033
11
0.164662
21
0.570846
0
LINE
8
BLACK
6
CONTINUOUS
10
0.164662
20
0.570846
11
0.283926
21
0.570846
0
LINE
8
BLACK
6
CONTINUOUS
10
0.283926
20
0.570846
11
0.285799
21
0.570165
0
LINE
8
BLACK
6
CONTINUOUS
10
0.285799
20
0.570165
11
0.286795
21
0.568439
0
LINE
8
BLACK
6
CONTINUOUS
10
0.286795
20
0.568439
11
0.286449
21
0.566476
0
LINE
8
BLACK
6
CONTINUOUS
10
0.286449
20
0.566476
11
0.285545
21
0.565511
0
LINE
8
BLACK
6
CONTINUOUS
10
0.285545
20
0.565511
11
0.283059
21
0.56385
0
LINE
8
BLACK
6
CONTINUOUS
10
0.283059
20
0.56385
11
0.283059
21
0.56385
0
LINE
8
BLACK
6
CONTINUOUS
10
0.283059
20
0.56385
11
0.27867
21
0.55946
0
LINE
8
BLACK
6
CONTINUOUS
10
0.27867
20
0.55946
11
0.27867
21
0.55946
0
LINE
8
BLACK
6
CONTINUOUS
10
0.27867
20
0.55946
11
0.275221
21
0.554298
0
LINE
8
BLACK
6
CONTINUOUS
10
0.275221
20
0.554298
11
0.272845
21
0.548563
0
LINE
8
BLACK
6
CONTINUOUS
10
0.272845
20
0.548563
11
0.272845
21
0.548563
0
LINE
8
BLACK
6
CONTINUOUS
10
0.272845
20
0.548563
11
0.271634
21
0.542474
0
LINE
8
BLACK
6
CONTINUOUS
10
0.271634
20
0.542474
11
0.271634
21
0.481148
0
LINE
8
BLACK
6
CONTINUOUS
10
0.271634
20
0.481148
11
0.272845
21
0.475059
0
LINE
8
BLACK
6
CONTINUOUS
10
0.272845
20
0.475059
11
0.272845
21
0.475059
0
LINE
8
BLACK
6
CONTINUOUS
10
0.272845
20
0.475059
11
0.275221
21
0.469324
0
LINE
8
BLACK
6
CONTINUOUS
10
0.275221
20
0.469324
11
0.275221
21
0.469324
0
LINE
8
BLACK
6
CONTINUOUS
10
0.275221
20
0.469324
11
0.275221
21
0.469324
0
LINE
8
BLACK
6
CONTINUOUS
10
0.275221
20
0.469324
11
0.27867
21
0.464162
0
LINE
8
BLACK
6
CONTINUOUS
10
0.27867
20
0.464162
11
0.283059
21
0.459772
0
LINE
8
BLACK
6
CONTINUOUS
10
0.283059
20
0.459772
11
0.288221
21
0.456323
0
LINE
8
BLACK
6
CONTINUOUS
10
0.288221
20
0.456323
11
0.288221
21
0.456323
0
LINE
8
BLACK
6
CONTINUOUS
10
0.288221
20
0.456323
11
0.288221
21
0.456323
0
LINE
8
BLACK
6
CONTINUOUS
10
0.288221
20
0.456323
11
0.293957
21
0.453947
0
LINE
8
BLACK
6
CONTINUOUS
10
0.293957
20
0.453947
11
0.293957
21
0.453947
0
LINE
8
BLACK
6
CONTINUOUS
10
0.293957
20
0.453947
11
0.300046
21
0.452736
0
LINE
8
BLACK
6
CONTINUOUS
10
0.300046
20
0.452736
11
0.300046
21
0.452736
0
LINE
8
BLACK
6
CONTINUOUS
10
0.300046
20
0.452736
11
0.350818
21
0.452736
0
LINE
8
BLACK
6
CONTINUOUS
10
0.350818
20
0.452736
11
0.351275
21
0.452969
0
LINE
8
BLACK
6
CONTINUOUS
10
0.351275
20
0.452969
11
0.356142
21
0.45374
0
LINE
8
BLACK
6
CONTINUOUS
10
0.356142
20
0.45374
11
0.361008
21
0.452969
0
LINE
8
BLACK
6
CONTINUOUS
10
0.361008
20
0.452969
11
0.361466
21
0.452736
0
LINE
8
BLACK
6
CONTINUOUS
10
0.361466
20
0.452736
11
0.369246
21
0.452736
0
LINE
8
BLACK
6
CONTINUOUS
10
0.369246
20
0.452736
11
0.369246
21
0.452736
0
LINE
8
BLACK
6
CONTINUOUS
10
0.369246
20
0.452736
11
0.375335
21
0.453947
0
LINE
8
BLACK
6
CONTINUOUS
10
0.375335
20
0.453947
11
0.38107
21
0.456323
0
LINE
8
BLACK
6
CONTINUOUS
10
0.38107
20
0.456323
11
0.386232
21
0.459772
0
LINE
8
BLACK
6
CONTINUOUS
10
0.386232
20
0.459772
11
0.390622
21
0.464162
0
LINE
8
BLACK
6
CONTINUOUS
10
0.390622
20
0.464162
11
0.394071
21
0.469324
0
LINE
8
BLACK
6
CONTINUOUS
10
0.394071
20
0.469324
11
0.396446
21
0.475059
0
LINE
8
BLACK
6
CONTINUOUS
10
0.396446
20
0.475059
11
0.397657
21
0.481148
0
LINE
8
BLACK
6
CONTINUOUS
10
0.397657
20
0.481148
11
0.397657
21
0.484252
0
LINE
8
BLACK
6
CONTINUOUS
10
0.397657
20
0.484252
11
0.397657
21
0.486846
0
LINE
8
BLACK
6
CONTINUOUS
10
0.397657
20
0.486846
11
0.397657
21
0.540779
0
LINE
8
BLACK
6
CONTINUOUS
10
0.397657
20
0.540779
11
0.397657
21
0.542474
0
LINE
8
BLACK
6
CONTINUOUS
10
0.397657
20
0.542474
11
0.396446
21
0.548563
0
LINE
8
BLACK
6
CONTINUOUS
10
0.396446
20
0.548563
11
0.396446
21
0.548563
0
LINE
8
BLACK
6
CONTINUOUS
10
0.396446
20
0.548563
11
0.394071
21
0.554298
0
LINE
8
BLACK
6
CONTINUOUS
10
0.394071
20
0.554298
11
0.394071
21
0.554298
0
LINE
8
BLACK
6
CONTINUOUS
10
0.394071
20
0.554298
11
0.394071
21
0.554298
0
LINE
8
BLACK
6
CONTINUOUS
10
0.394071
20
0.554298
11
0.390622
21
0.55946
0
LINE
8
BLACK
6
CONTINUOUS
10
0.390622
20
0.55946
11
0.386232
21
0.56385
0
LINE
8
BLACK
6
CONTINUOUS
10
0.386232
20
0.56385
11
0.383746
21
0.565511
0
LINE
8
BLACK
6
CONTINUOUS
10
0.383746
20
0.565511
11
0.382568
21
0.567118
0
LINE
8
BLACK
6
CONTINUOUS
10
0.382568
20
0.567118
11
0.382698
21
0.569106
0
LINE
8
BLACK
6
CONTINUOUS
10
0.382698
20
0.569106
11
0.384076
21
0.570546
0
LINE
8
BLACK
6
CONTINUOUS
10
0.384076
20
0.570546
11
0.385365
21
0.570846
0
LINE
8
BLACK
6
CONTINUOUS
10
0.385365
20
0.570846
11
0.426018
21
0.570846
0
LINE
8
BLACK
6
CONTINUOUS
10
0.426018
20
0.570846
11
0.427891
21
0.570165
0
LINE
8
BLACK
6
CONTINUOUS
10
0.427891
20
0.570165
11
0.42876
21
0.568918
0
LINE
8
BLACK
6
CONTINUOUS
10
0.42876
20
0.568918
11
0.430855
21
0.563084
0
LINE
8
BLACK
6
CONTINUOUS
10
0.430855
20
0.563084
11
0.432806
21
0.559496
0
LINE
8
BLACK
6
CONTINUOUS
10
0.432806
20
0.559496
11
0.435766
21
0.554053
0
LINE
8
BLACK
6
CONTINUOUS
10
0.435766
20
0.554053
11
0.435766
21
0.554053
0
LINE
8
BLACK
6
CONTINUOUS
10
0.435766
20
0.554053
11
0.435766
21
0.554053
0
LINE
8
BLACK
6
CONTINUOUS
10
0.435766
20
0.554053
11
0.441998
21
0.545877
0
LINE
8
BLACK
6
CONTINUOUS
10
0.441998
20
0.545877
11
0.449405
21
0.538749
0
LINE
8
BLACK
6
CONTINUOUS
10
0.449405
20
0.538749
11
0.453838
21
0.535631
0
LINE
8
BLACK
6
CONTINUOUS
10
0.453838
20
0.535631
11
0.457813
21
0.532835
0
LINE
8
BLACK
6
CONTINUOUS
10
0.457813
20
0.532835
11
0.457813
21
0.532835
0
LINE
8
BLACK
6
CONTINUOUS
10
0.457813
20
0.532835
11
0.467026
21
0.528273
0
LINE
8
BLACK
6
CONTINUOUS
10
0.467026
20
0.528273
11
0.474289
21
0.525975
0
LINE
8
BLACK
6
CONTINUOUS
10
0.474289
20
0.525975
11
0.476827
21
0.525172
0
LINE
8
BLACK
6
CONTINUOUS
10
0.476827
20
0.525172
11
0.486986
21
0.523602
0
LINE
8
BLACK
6
CONTINUOUS
10
0.486986
20
0.523602
11
0.494692
21
0.523602
0
LINE
8
BLACK
6
CONTINUOUS
10
0.494692
20
0.523602
11
0.494692
21
0.523602
0
LINE
8
BLACK
6
CONTINUOUS
10
0.494692
20
0.523602
11
0.502376
21
0.524192
0
LINE
8
BLACK
6
CONTINUOUS
10
0.502376
20
0.524192
11
0.502376
21
0.524192
0
LINE
8
BLACK
6
CONTINUOUS
10
0.502376
20
0.524192
11
0.502376
21
0.524192
0
LINE
8
BLACK
6
CONTINUOUS
10
0.502376
20
0.524192
11
0.506561
21
0.525172
0
LINE
8
BLACK
6
CONTINUOUS
10
0.506561
20
0.525172
11
0.512385
21
0.526535
0
LINE
8
BLACK
6
CONTINUOUS
10
0.512385
20
0.526535
11
0.52192
21
0.530377
0
LINE
8
BLACK
6
CONTINUOUS
10
0.52192
20
0.530377
11
0.526053
21
0.532835
0
LINE
8
BLACK
6
CONTINUOUS
10
0.526053
20
0.532835
11
0.530756
21
0.535631
0
LINE
8
BLACK
6
CONTINUOUS
10
0.530756
20
0.535631
11
0.530756
21
0.535631
0
LINE
8
BLACK
6
CONTINUOUS
10
0.530756
20
0.535631
11
0.530756
21
0.535631
0
LINE
8
BLACK
6
CONTINUOUS
10
0.530756
20
0.535631
11
0.538687
21
0.542171
0
LINE
8
BLACK
6
CONTINUOUS
10
0.538687
20
0.542171
11
0.545527
21
0.549846
0
LINE
8
BLACK
6
CONTINUOUS
10
0.545527
20
0.549846
11
0.551114
21
0.558474
0
LINE
8
BLACK
6
CONTINUOUS
10
0.551114
20
0.558474
11
0.55532
21
0.567855
0
LINE
8
BLACK
6
CONTINUOUS
10
0.55532
20
0.567855
11
0.555553
21
0.568705
0
LINE
8
BLACK
6
CONTINUOUS
10
0.555553
20
0.568705
11
0.556707
21
0.57033
0
LINE
8
BLACK
6
CONTINUOUS
10
0.556707
20
0.57033
11
0.558363
21
0.570846
0
LINE
8
BLACK
6
CONTINUOUS
10
0.558363
20
0.570846
11
0.819719
21
0.570846
0
LINE
8
BLACK
6
CONTINUOUS
10
0.819719
20
0.570846
11
0.821591
21
0.570165
0
LINE
8
BLACK
6
CONTINUOUS
10
0.821591
20
0.570165
11
0.822461
21
0.568918
0
LINE
8
BLACK
6
CONTINUOUS
10
0.822461
20
0.568918
11
0.824556
21
0.563084
0
LINE
8
BLACK
6
CONTINUOUS
10
0.824556
20
0.563084
11
0.826507
21
0.559496
0
LINE
8
BLACK
6
CONTINUOUS
10
0.826507
20
0.559496
11
0.829467
21
0.554053
0
LINE
8
BLACK
6
CONTINUOUS
10
0.829467
20
0.554053
11
0.829467
21
0.554053
0
LINE
8
BLACK
6
CONTINUOUS
10
0.829467
20
0.554053
11
0.829467
21
0.554053
0
LINE
8
BLACK
6
CONTINUOUS
10
0.829467
20
0.554053
11
0.835699
21
0.545877
0
LINE
8
BLACK
6
CONTINUOUS
10
0.835699
20
0.545877
11
0.843106
21
0.538749
0
LINE
8
BLACK
6
CONTINUOUS
10
0.843106
20
0.538749
11
0.847539
21
0.535631
0
LINE
8
BLACK
6
CONTINUOUS
10
0.847539
20
0.535631
11
0.851514
21
0.532835
0
LINE
8
BLACK
6
CONTINUOUS
10
0.851514
20
0.532835
11
0.851514
21
0.532835
0
LINE
8
BLACK
6
CONTINUOUS
10
0.851514
20
0.532835
11
0.860727
21
0.528273
0
LINE
8
BLACK
6
CONTINUOUS
10
0.860727
20
0.528273
11
0.86799
21
0.525975
0
LINE
8
BLACK
6
CONTINUOUS
10
0.86799
20
0.525975
11
0.870527
21
0.525172
0
LINE
8
BLACK
6
CONTINUOUS
10
0.870527
20
0.525172
11
0.880687
21
0.523602
0
LINE
8
BLACK
6
CONTINUOUS
10
0.880687
20
0.523602
11
0.888393
21
0.523602
0
LINE
8
BLACK
6
CONTINUOUS
10
0.888393
20
0.523602
11
0.888393
21
0.523602
0
LINE
8
BLACK
6
CONTINUOUS
10
0.888393
20
0.523602
11
0.896077
21
0.524192
0
LINE
8
BLACK
6
CONTINUOUS
10
0.896077
20
0.524192
11
0.896077
21
0.524192
0
LINE
8
BLACK
6
CONTINUOUS
10
0.896077
20
0.524192
11
0.896077
21
0.524192
0
LINE
8
BLACK
6
CONTINUOUS
10
0.896077
20
0.524192
11
0.900262
21
0.525172
0
LINE
8
BLACK
6
CONTINUOUS
10
0.900262
20
0.525172
11
0.906086
21
0.526535
0
LINE
8
BLACK
6
CONTINUOUS
10
0.906086
20
0.526535
11
0.915621
21
0.530377
0
LINE
8
BLACK
6
CONTINUOUS
10
0.915621
20
0.530377
11
0.919754
21
0.532835
0
LINE
8
BLACK
6
CONTINUOUS
10
0.919754
20
0.532835
11
0.924457
21
0.535631
0
LINE
8
BLACK
6
CONTINUOUS
10
0.924457
20
0.535631
11
0.924457
21
0.535631
0
LINE
8
BLACK
6
CONTINUOUS
10
0.924457
20
0.535631
11
0.924457
21
0.535631
0
LINE
8
BLACK
6
CONTINUOUS
10
0.924457
20
0.535631
11
0.932388
21
0.542171
0
LINE
8
BLACK
6
CONTINUOUS
10
0.932388
20
0.542171
11
0.939227
21
0.549846
0
LINE
8
BLACK
6
CONTINUOUS
10
0.939227
20
0.549846
11
0.944815
21
0.558474
0
LINE
8
BLACK
6
CONTINUOUS
10
0.944815
20
0.558474
11
0.94902
21
0.567855
0
LINE
8
BLACK
6
CONTINUOUS
10
0.94902
20
0.567855
11
0.949254
21
0.568705
0
LINE
8
BLACK
6
CONTINUOUS
10
0.949254
20
0.568705
11
0.950408
21
0.57033
0
LINE
8
BLACK
6
CONTINUOUS
10
0.950408
20
0.57033
11
0.952063
21
0.570846
0
LINE
8
BLACK
6
CONTINUOUS
10
0.952063
20
0.570846
11
1.15848
21
0.570846
0
LINE
8
BLACK
6
CONTINUOUS
10
1.15848
20
0.570846
11
1.16036
21
0.570165
0
LINE
8
BLACK
6
CONTINUOUS
10
1.16036
20
0.570165
11
1.16135
21
0.568439
0
LINE
8
BLACK
6
CONTINUOUS
10
1.16135
20
0.568439
11
1.1614
21
0.567933
0
LINE
8
BLACK
6
CONTINUOUS
10
1.1614
20
0.567933
11
1.1614
21
0.268443
0
LINE
8
BLACK
6
CONTINUOUS
10
1.1614
20
0.268443
11
1.16072
21
0.26657
0
LINE
8
BLACK
6
CONTINUOUS
10
1.16072
20
0.26657
11
1.15899
21
0.265574
0
LINE
8
BLACK
6
CONTINUOUS
10
1.15899
20
0.265574
11
1.15737
21
0.265751
0
LINE
8
BLACK
6
CONTINUOUS
10
1.15737
20
0.265751
11
1.15186
21
0.268033
0
LINE
8
BLACK
6
CONTINUOUS
10
1.15186
20
0.268033
11
1.15186
21
0.268033
0
LINE
8
BLACK
6
CONTINUOUS
10
1.15186
20
0.268033
11
1.14569
21
0.268846
0
LINE
8
BLACK
6
CONTINUOUS
10
1.14569
20
0.268846
11
1.13952
21
0.268033
0
LINE
8
BLACK
6
CONTINUOUS
10
1.13952
20
0.268033
11
1.13952
21
0.268033
0
LINE
8
BLACK
6
CONTINUOUS
10
1.13952
20
0.268033
11
1.13377
21
0.265651
0
LINE
8
BLACK
6
CONTINUOUS
10
1.13377
20
0.265651
11
1.12883
21
0.261862
0
LINE
8
BLACK
6
CONTINUOUS
10
1.12883
20
0.261862
11
1.12883
21
0.261861
0
LINE
8
BLACK
6
CONTINUOUS
10
1.12883
20
0.261861
11
1.12504
21
0.256923
0
LINE
8
BLACK
6
CONTINUOUS
10
1.12504
20
0.256923
11
1.12266
21
0.251172
0
LINE
8
BLACK
6
CONTINUOUS
10
1.12266
20
0.251172
11
1.12266
21
0.251172
0
LINE
8
BLACK
6
CONTINUOUS
10
1.12266
20
0.251172
11
1.12184
21
0.245
0
LINE
8
BLACK
6
CONTINUOUS
10
1.12184
20
0.245
11
1.12184
21
0.244809
0
LINE
8
BLACK
6
CONTINUOUS
10
1.12184
20
0.244809
11
1.12178
21
0.244809
0
LINE
8
BLACK
6
CONTINUOUS
10
1.12178
20
0.244809
11
1.1214
21
0.243111
0
LINE
8
BLACK
6
CONTINUOUS
10
1.1214
20
0.243111
11
1.12101
21
0.242617
0
LINE
8
BLACK
6
CONTINUOUS
10
1.12101
20
0.242617
11
1.12047
21
0.242084
0
LINE
8
BLACK
6
CONTINUOUS
10
1.12047
20
0.242084
11
1.11867
21
0.241241
0
LINE
8
BLACK
6
CONTINUOUS
10
1.11867
20
0.241241
11
1.11841
21
0.24123
0
LINE
8
BLACK
6
CONTINUOUS
10
1.11841
20
0.24123
11
0.728675
21
0.24123
0
LINE
8
BLACK
6
CONTINUOUS
10
0.728675
20
0.24123
11
0.726802
21
0.241912
0
LINE
8
BLACK
6
CONTINUOUS
10
0.726802
20
0.241912
11
0.726535
21
0.242191
0
LINE
8
BLACK
6
CONTINUOUS
10
0.726535
20
0.242191
11
0.726534
21
0.242189
0
LINE
8
BLACK
6
CONTINUOUS
10
0.726534
20
0.242189
11
0.726399
21
0.242324
0
LINE
8
BLACK
6
CONTINUOUS
10
0.726399
20
0.242324
11
0.722419
21
0.245378
0
LINE
8
BLACK
6
CONTINUOUS
10
0.722419
20
0.245378
11
0.721348
21
0.247059
0
LINE
8
BLACK
6
CONTINUOUS
10
0.721348
20
0.247059
11
0.721609
21
0.249034
0
LINE
8
BLACK
6
CONTINUOUS
10
0.721609
20
0.249034
11
0.722419
21
0.25
0
LINE
8
BLACK
6
CONTINUOUS
10
0.722419
20
0.25
11
0.722442
21
0.250018
0
LINE
8
BLACK
6
CONTINUOUS
10
0.722442
20
0.250018
11
0.726723
21
0.253303
0
LINE
8
BLACK
6
CONTINUOUS
10
0.726723
20
0.253303
11
0.730513
21
0.258242
0
LINE
8
BLACK
6
CONTINUOUS
10
0.730513
20
0.258242
11
0.732895
21
0.263993
0
LINE
8
BLACK
6
CONTINUOUS
10
0.732895
20
0.263993
11
0.733707
21
0.270164
0
LINE
8
BLACK
6
CONTINUOUS
10
0.733707
20
0.270164
11
0.732895
21
0.276336
0
LINE
8
BLACK
6
CONTINUOUS
10
0.732895
20
0.276336
11
0.730513
21
0.282087
0
LINE
8
BLACK
6
CONTINUOUS
10
0.730513
20
0.282087
11
0.728777
21
0.284349
0
LINE
8
BLACK
6
CONTINUOUS
10
0.728777
20
0.284349
11
0.726723
21
0.287026
0
LINE
8
BLACK
6
CONTINUOUS
10
0.726723
20
0.287026
11
0.726723
21
0.287026
0
LINE
8
BLACK
6
CONTINUOUS
10
0.726723
20
0.287026
11
0.721785
21
0.290815
0
LINE
8
BLACK
6
CONTINUOUS
10
0.721785
20
0.290815
11
0.716033
21
0.293198
0
LINE
8
BLACK
6
CONTINUOUS
10
0.716033
20
0.293198
11
0.710674
21
0.293903
0
LINE
8
BLACK
6
CONTINUOUS
10
0.710674
20
0.293903
11
0.709862
21
0.29401
0
LINE
8
BLACK
6
CONTINUOUS
10
0.709862
20
0.29401
11
0.709862
21
0.29401
0
LINE
8
BLACK
6
CONTINUOUS
10
0.709862
20
0.29401
11
0.707459
21
0.293694
0
LINE
8
BLACK
6
CONTINUOUS
10
0.707459
20
0.293694
11
0.705513
21
0.294125
0
LINE
8
BLACK
6
CONTINUOUS
10
0.705513
20
0.294125
11
0.705019
21
0.294522
0
LINE
8
BLACK
6
CONTINUOUS
10
0.705019
20
0.294522
11
0.686009
21
0.313532
0
LINE
8
BLACK
6
CONTINUOUS
10
0.686009
20
0.313532
11
0.68563
21
0.313999
0
LINE
8
BLACK
6
CONTINUOUS
10
0.68563
20
0.313999
11
0.685319
21
0.314475
0
LINE
8
BLACK
6
CONTINUOUS
10
0.685319
20
0.314475
11
0.684249
21
0.315308
0
LINE
8
BLACK
6
CONTINUOUS
10
0.684249
20
0.315308
11
0.684114
21
0.315427
0
LINE
8
BLACK
6
CONTINUOUS
10
0.684114
20
0.315427
11
0.683975
21
0.315566
0
LINE
8
BLACK
6
CONTINUOUS
10
0.683975
20
0.315566
11
0.683277
21
0.316065
0
LINE
8
BLACK
6
CONTINUOUS
10
0.683277
20
0.316065
11
0.681685
21
0.317304
0
LINE
8
BLACK
6
CONTINUOUS
10
0.681685
20
0.317304
11
0.681472
21
0.317419
0
LINE
8
BLACK
6
CONTINUOUS
10
0.681472
20
0.317419
11
0.681479
21
0.317431
0
LINE
8
BLACK
6
CONTINUOUS
10
0.681479
20
0.317431
11
0.681393
21
0.317475
0
LINE
8
BLACK
6
CONTINUOUS
10
0.681393
20
0.317475
11
0.681387
21
0.317462
0
LINE
8
BLACK
6
CONTINUOUS
10
0.681387
20
0.317462
11
0.68117
21
0.317569
0
LINE
8
BLACK
6
CONTINUOUS
10
0.68117
20
0.317569
11
0.679237
21
0.318144
0
LINE
8
BLACK
6
CONTINUOUS
10
0.679237
20
0.318144
11
0.677329
21
0.318799
0
LINE
8
BLACK
6
CONTINUOUS
10
0.677329
20
0.318799
11
0.677091
21
0.318839
0
LINE
8
BLACK
6
CONTINUOUS
10
0.677091
20
0.318839
11
0.677093
21
0.318853
0
LINE
8
BLACK
6
CONTINUOUS
10
0.677093
20
0.318853
11
0.676998
21
0.318867
0
LINE
8
BLACK
6
CONTINUOUS
10
0.676998
20
0.318867
11
0.676996
21
0.318853
0
LINE
8
BLACK
6
CONTINUOUS
10
0.676996
20
0.318853
11
0.676757
21
0.318883
0
LINE
8
BLACK
6
CONTINUOUS
10
0.676757
20
0.318883
11
0.676757
21
0.318883
0
LINE
8
BLACK
6
CONTINUOUS
10
0.676757
20
0.318883
11
0.676756
21
0.318883
0
LINE
8
BLACK
6
CONTINUOUS
10
0.676756
20
0.318883
11
0.675739
21
0.31884
0
LINE
8
BLACK
6
CONTINUOUS
10
0.675739
20
0.31884
11
0.67384
21
0.319444
0
LINE
8
BLACK
6
CONTINUOUS
10
0.67384
20
0.319444
11
0.673307
21
0.319978
0
LINE
8
BLACK
6
CONTINUOUS
10
0.673307
20
0.319978
11
0.671862
21
0.321861
0
LINE
8
BLACK
6
CONTINUOUS
10
0.671862
20
0.321861
11
0.671862
21
0.321862
0
LINE
8
BLACK
6
CONTINUOUS
10
0.671862
20
0.321862
11
0.666923
21
0.325651
0
LINE
8
BLACK
6
CONTINUOUS
10
0.666923
20
0.325651
11
0.661172
21
0.328033
0
LINE
8
BLACK
6
CONTINUOUS
10
0.661172
20
0.328033
11
0.655
21
0.328846
0
LINE
8
BLACK
6
CONTINUOUS
10
0.655
20
0.328846
11
0.648829
21
0.328033
0
LINE
8
BLACK
6
CONTINUOUS
10
0.648829
20
0.328033
11
0.648829
21
0.328033
0
LINE
8
BLACK
6
CONTINUOUS
10
0.648829
20
0.328033
11
0.643077
21
0.325651
0
LINE
8
BLACK
6
CONTINUOUS
10
0.643077
20
0.325651
11
0.638139
21
0.321862
0
LINE
8
BLACK
6
CONTINUOUS
10
0.638139
20
0.321862
11
0.638139
21
0.321861
0
LINE
8
BLACK
6
CONTINUOUS
10
0.638139
20
0.321861
11
0.634349
21
0.316923
0
LINE
8
BLACK
6
CONTINUOUS
10
0.634349
20
0.316923
11
0.631967
21
0.311172
0
LINE
8
BLACK
6
CONTINUOUS
10
0.631967
20
0.311172
11
0.631967
21
0.311172
0
LINE
8
BLACK
6
CONTINUOUS
10
0.631967
20
0.311172
11
0.631155
21
0.305
0
LINE
8
BLACK
6
CONTINUOUS
10
0.631155
20
0.305
11
0.631471
21
0.302598
0
LINE
8
BLACK
6
CONTINUOUS
10
0.631471
20
0.302598
11
0.63104
21
0.300652
0
LINE
8
BLACK
6
CONTINUOUS
10
0.63104
20
0.300652
11
0.630643
21
0.300157
0
LINE
8
BLACK
6
CONTINUOUS
10
0.630643
20
0.300157
11
0.615138
21
0.284653
0
LINE
8
BLACK
6
CONTINUOUS
10
0.615138
20
0.284653
11
0.613332
21
0.28381
0
LINE
8
BLACK
6
CONTINUOUS
10
0.613332
20
0.28381
11
0.613078
21
0.283799
0
LINE
8
BLACK
6
CONTINUOUS
10
0.613078
20
0.283799
11
0.270648
21
0.283799
0
LINE
8
BLACK
6
CONTINUOUS
10
0.270648
20
0.283799
11
0.268775
21
0.284481
0
LINE
8
BLACK
6
CONTINUOUS
10
0.268775
20
0.284481
11
0.268337
21
0.284939
0
LINE
8
BLACK
6
CONTINUOUS
10
0.268337
20
0.284939
11
0.268315
21
0.284967
0
LINE
8
BLACK
6
CONTINUOUS
10
0.268315
20
0.284967
11
0.267715
21
0.286868
0
LINE
8
BLACK
6
CONTINUOUS
10
0.267715
20
0.286868
11
0.268478
21
0.288709
0
LINE
8
BLACK
6
CONTINUOUS
10
0.268478
20
0.288709
11
0.270245
21
0.28963
0
LINE
8
BLACK
6
CONTINUOUS
10
0.270245
20
0.28963
11
0.272747
21
0.289959
0
LINE
8
BLACK
6
CONTINUOUS
10
0.272747
20
0.289959
11
0.278498
21
0.292341
0
LINE
8
BLACK
6
CONTINUOUS
10
0.278498
20
0.292341
11
0.283436
21
0.296131
0
LINE
8
BLACK
6
CONTINUOUS
10
0.283436
20
0.296131
11
0.283949
21
0.296799
0
LINE
8
BLACK
6
CONTINUOUS
10
0.283949
20
0.296799
11
0.284911
21
0.298053
0
LINE
8
BLACK
6
CONTINUOUS
10
0.284911
20
0.298053
11
0.286592
21
0.299124
0
LINE
8
BLACK
6
CONTINUOUS
10
0.286592
20
0.299124
11
0.287223
21
0.299193
0
LINE
8
BLACK
6
CONTINUOUS
10
0.287223
20
0.299193
11
0.555889
21
0.299193
0
LINE
8
BLACK
6
CONTINUOUS
10
0.555889
20
0.299193
11
0.557662
21
0.298591
0
LINE
8
BLACK
6
CONTINUOUS
10
0.557662
20
0.298591
11
0.560548
21
0.296376
0
LINE
8
BLACK
6
CONTINUOUS
10
0.560548
20
0.296376
11
0.562699
21
0.294726
0
LINE
8
BLACK
6
CONTINUOUS
10
0.562699
20
0.294726
11
0.568451
21
0.292344
0
LINE
8
BLACK
6
CONTINUOUS
10
0.568451
20
0.292344
11
0.574622
21
0.291531
0
LINE
8
BLACK
6
CONTINUOUS
10
0.574622
20
0.291531
11
0.580794
21
0.292344
0
LINE
8
BLACK
6
CONTINUOUS
10
0.580794
20
0.292344
11
0.586545
21
0.294726
0
LINE
8
BLACK
6
CONTINUOUS
10
0.586545
20
0.294726
11
0.591484
21
0.298515
0
LINE
8
BLACK
6
CONTINUOUS
10
0.591484
20
0.298515
11
0.595273
21
0.303454
0
LINE
8
BLACK
6
CONTINUOUS
10
0.595273
20
0.303454
11
0.597656
21
0.309205
0
LINE
8
BLACK
6
CONTINUOUS
10
0.597656
20
0.309205
11
0.598468
21
0.315377
0
LINE
8
BLACK
6
CONTINUOUS
10
0.598468
20
0.315377
11
0.597656
21
0.321549
0
LINE
8
BLACK
6
CONTINUOUS
10
0.597656
20
0.321549
11
0.595273
21
0.3273
0
LINE
8
BLACK
6
CONTINUOUS
10
0.595273
20
0.3273
11
0.593314
21
0.329854
0
LINE
8
BLACK
6
CONTINUOUS
10
0.593314
20
0.329854
11
0.591484
21
0.332238
0
LINE
8
BLACK
6
CONTINUOUS
10
0.591484
20
0.332238
11
0.591484
21
0.332238
0
LINE
8
BLACK
6
CONTINUOUS
10
0.591484
20
0.332238
11
0.586545
21
0.336028
0
LINE
8
BLACK
6
CONTINUOUS
10
0.586545
20
0.336028
11
0.580794
21
0.33841
0
LINE
8
BLACK
6
CONTINUOUS
10
0.580794
20
0.33841
11
0.574622
21
0.339223
0
LINE
8
BLACK
6
CONTINUOUS
10
0.574622
20
0.339223
11
0.568451
21
0.33841
0
LINE
8
BLACK
6
CONTINUOUS
10
0.568451
20
0.33841
11
0.568451
21
0.33841
0
LINE
8
BLACK
6
CONTINUOUS
10
0.568451
20
0.33841
11
0.562699
21
0.336028
0
LINE
8
BLACK
6
CONTINUOUS
10
0.562699
20
0.336028
11
0.557761
21
0.332238
0
LINE
8
BLACK
6
CONTINUOUS
10
0.557761
20
0.332238
11
0.557761
21
0.332238
0
LINE
8
BLACK
6
CONTINUOUS
10
0.557761
20
0.332238
11
0.554456
21
0.327931
0
LINE
8
BLACK
6
CONTINUOUS
10
0.554456
20
0.327931
11
0.552775
21
0.32686
0
LINE
8
BLACK
6
CONTINUOUS
10
0.552775
20
0.32686
11
0.552144
21
0.326791
0
LINE
8
BLACK
6
CONTINUOUS
10
0.552144
20
0.326791
11
0.287223
21
0.326791
0
LINE
8
BLACK
6
CONTINUOUS
10
0.287223
20
0.326791
11
0.28535
21
0.327473
0
LINE
8
BLACK
6
CONTINUOUS
10
0.28535
20
0.327473
11
0.284911
21
0.327931
0
LINE
8
BLACK
6
CONTINUOUS
10
0.284911
20
0.327931
11
0.283436
21
0.329854
0
LINE
8
BLACK
6
CONTINUOUS
10
0.283436
20
0.329854
11
0.283436
21
0.329854
0
LINE
8
BLACK
6
CONTINUOUS
10
0.283436
20
0.329854
11
0.278498
21
0.333643
0
LINE
8
BLACK
6
CONTINUOUS
10
0.278498
20
0.333643
11
0.272746
21
0.336025
0
LINE
8
BLACK
6
CONTINUOUS
10
0.272746
20
0.336025
11
0.266575
21
0.336838
0
LINE
8
BLACK
6
CONTINUOUS
10
0.266575
20
0.336838
11
0.260403
21
0.336025
0
LINE
8
BLACK
6
CONTINUOUS
10
0.260403
20
0.336025
11
0.260403
21
0.336025
0
LINE
8
BLACK
6
CONTINUOUS
10
0.260403
20
0.336025
11
0.254652
21
0.333643
0
LINE
8
BLACK
6
CONTINUOUS
10
0.254652
20
0.333643
11
0.249713
21
0.329854
0
LINE
8
BLACK
6
CONTINUOUS
10
0.249713
20
0.329854
11
0.249713
21
0.329854
0
LINE
8
BLACK
6
CONTINUOUS
10
0.249713
20
0.329854
11
0.245924
21
0.324915
0
LINE
8
BLACK
6
CONTINUOUS
10
0.245924
20
0.324915
11
0.243642
21
0.319406
0
LINE
8
BLACK
6
CONTINUOUS
10
0.243642
20
0.319406
11
0.242296
21
0.317937
0
LINE
8
BLACK
6
CONTINUOUS
10
0.242296
20
0.317937
11
0.24032
21
0.317677
0
LINE
8
BLACK
6
CONTINUOUS
10
0.24032
20
0.317677
11
0.23889
21
0.318461
0
LINE
8
BLACK
6
CONTINUOUS
10
0.23889
20
0.318461
11
0.233046
21
0.324305
0
LINE
8
BLACK
6
CONTINUOUS
10
0.233046
20
0.324305
11
0.232204
21
0.326111
0
LINE
8
BLACK
6
CONTINUOUS
10
0.232204
20
0.326111
11
0.232193
21
0.326365
0
LINE
8
BLACK
6
CONTINUOUS
10
0.232193
20
0.326365
11
0.232193
21
0.327097
0
LINE
8
BLACK
6
CONTINUOUS
10
0.232193
20
0.327097
11
0.232193
21
0.327097
0
LINE
8
BLACK
6
CONTINUOUS
10
0.232193
20
0.327097
11
0.231802
21
0.329779
0
LINE
8
BLACK
6
CONTINUOUS
10
0.231802
20
0.329779
11
0.229779
21
0.333917
0
LINE
8
BLACK
6
CONTINUOUS
10
0.229779
20
0.333917
11
0.226523
21
0.337173
0
LINE
8
BLACK
6
CONTINUOUS
10
0.226523
20
0.337173
11
0.226523
21
0.337173
0
LINE
8
BLACK
6
CONTINUOUS
10
0.226523
20
0.337173
11
0.222386
21
0.339196
0
LINE
8
BLACK
6
CONTINUOUS
10
0.222386
20
0.339196
11
0.219703
21
0.339587
0
LINE
8
BLACK
6
CONTINUOUS
10
0.219703
20
0.339587
11
0.219703
21
0.339587
0
LINE
8
BLACK
6
CONTINUOUS
10
0.219703
20
0.339587
11
0.161966
21
0.339587
0
LINE
8
BLACK
6
CONTINUOUS
10
0.161966
20
0.339587
11
0.161966
21
0.339587
0
LINE
8
BLACK
6
CONTINUOUS
10
0.161966
20
0.339587
11
0.159284
21
0.339196
0
LINE
8
BLACK
6
CONTINUOUS
10
0.159284
20
0.339196
11
0.159284
21
0.339196
0
LINE
8
BLACK
6
CONTINUOUS
10
0.159284
20
0.339196
11
0.155146
21
0.337173
0
LINE
8
BLACK
6
CONTINUOUS
10
0.155146
20
0.337173
11
0.15189
21
0.333917
0
LINE
8
BLACK
6
CONTINUOUS
10
0.15189
20
0.333917
11
0.149867
21
0.329779
0
LINE
8
BLACK
6
CONTINUOUS
10
0.149867
20
0.329779
11
0.149867
21
0.329779
0
LINE
8
BLACK
6
CONTINUOUS
10
0.149867
20
0.329779
11
0.149476
21
0.327097
0
LINE
8
BLACK
6
CONTINUOUS
10
0.149476
20
0.327097
11
0.149476
21
0.312667
0
LINE
8
BLACK
6
CONTINUOUS
10
0.149476
20
0.312667
11
0.149867
21
0.309985
0
LINE
8
BLACK
6
CONTINUOUS
10
0.149867
20
0.309985
11
0.149867
21
0.309984
0
LINE
8
BLACK
6
CONTINUOUS
10
0.149867
20
0.309984
11
0.15189
21
0.305847
0
LINE
8
BLACK
6
CONTINUOUS
10
0.15189
20
0.305847
11
0.15189
21
0.305847
0
LINE
8
BLACK
6
CONTINUOUS
10
0.15189
20
0.305847
11
0.155146
21
0.302591
0
LINE
8
BLACK
6
CONTINUOUS
10
0.155146
20
0.302591
11
0.159284
21
0.300568
0
LINE
8
BLACK
6
CONTINUOUS
10
0.159284
20
0.300568
11
0.161966
21
0.300177
0
LINE
8
BLACK
6
CONTINUOUS
10
0.161966
20
0.300177
11
0.21137
21
0.300177
0
LINE
8
BLACK
6
CONTINUOUS
10
0.21137
20
0.300177
11
0.213242
21
0.299496
0
LINE
8
BLACK
6
CONTINUOUS
10
0.213242
20
0.299496
11
0.21343
21
0.299324
0
LINE
8
BLACK
6
CONTINUOUS
10
0.21343
20
0.299324
11
0.217406
21
0.295347
0
LINE
8
BLACK
6
CONTINUOUS
10
0.217406
20
0.295347
11
0.218248
21
0.293541
0
LINE
8
BLACK
6
CONTINUOUS
10
0.218248
20
0.293541
11
0.217733
21
0.291616
0
LINE
8
BLACK
6
CONTINUOUS
10
0.217733
20
0.291616
11
0.2161
21
0.290473
0
LINE
8
BLACK
6
CONTINUOUS
10
0.2161
20
0.290473
11
0.215346
21
0.290374
0
LINE
8
BLACK
6
CONTINUOUS
10
0.215346
20
0.290374
11
0.161966
21
0.290374
0
LINE
8
BLACK
6
CONTINUOUS
10
0.161966
20
0.290374
11
0.159284
21
0.289983
0
LINE
8
BLACK
6
CONTINUOUS
10
0.159284
20
0.289983
11
0.159284
21
0.289983
0
LINE
8
BLACK
6
CONTINUOUS
10
0.159284
20
0.289983
11
0.155146
21
0.287961
0
LINE
8
BLACK
6
CONTINUOUS
10
0.155146
20
0.287961
11
0.154476
21
0.28729
0
LINE
8
BLACK
6
CONTINUOUS
10
0.154476
20
0.28729
11
0.15267
21
0.286448
0
LINE
8
BLACK
6
CONTINUOUS
10
0.15267
20
0.286448
11
0.152416
21
0.286437
0
LINE
8
BLACK
6
CONTINUOUS
10
0.152416
20
0.286437
11
0.131342
21
0.286437
0
LINE
8
BLACK
6
CONTINUOUS
10
0.131342
20
0.286437
11
0.12947
21
0.287119
0
LINE
8
BLACK
6
CONTINUOUS
10
0.12947
20
0.287119
11
0.129203
21
0.287397
0
LINE
8
BLACK
6
CONTINUOUS
10
0.129203
20
0.287397
11
0.129201
21
0.287396
0
LINE
8
BLACK
6
CONTINUOUS
10
0.129201
20
0.287396
11
0.129066
21
0.287531
0
LINE
8
BLACK
6
CONTINUOUS
10
0.129066
20
0.287531
11
0.124128
21
0.29132
0
LINE
8
BLACK
6
CONTINUOUS
10
0.124128
20
0.29132
11
0.118376
21
0.293703
0
LINE
8
BLACK
6
CONTINUOUS
10
0.118376
20
0.293703
11
0.112205
21
0.294515
0
LINE
8
BLACK
6
CONTINUOUS
10
0.112205
20
0.294515
11
0.106033
21
0.293703
0
LINE
8
BLACK
6
CONTINUOUS
10
0.106033
20
0.293703
11
0.106033
21
0.293703
0
LINE
8
BLACK
6
CONTINUOUS
10
0.106033
20
0.293703
11
0.100282
21
0.29132
0
LINE
8
BLACK
6
CONTINUOUS
10
0.100282
20
0.29132
11
0.0953433
21
0.287531
0
LINE
8
BLACK
6
CONTINUOUS
10
0.0953433
20
0.287531
11
0.0953431
21
0.287531
0
LINE
8
BLACK
6
CONTINUOUS
10
0.0953431
20
0.287531
11
0.0915537
21
0.282592
0
LINE
8
BLACK
6
CONTINUOUS
10
0.0915537
20
0.282592
11
0.0891715
21
0.276841
0
LINE
8
BLACK
6
CONTINUOUS
10
0.0891715
20
0.276841
11
0.0891715
21
0.276841
0
LINE
8
BLACK
6
CONTINUOUS
10
0.0891715
20
0.276841
11
0.088359
21
0.270669
0
LINE
8
BLACK
6
CONTINUOUS
10
0.088359
20
0.270669
11
0.0891715
21
0.264498
0
LINE
8
BLACK
6
CONTINUOUS
10
0.0891715
20
0.264498
11
0.0891715
21
0.264498
0
LINE
8
BLACK
6
CONTINUOUS
10
0.0891715
20
0.264498
11
0.0915537
21
0.258746
0
LINE
8
BLACK
6
CONTINUOUS
10
0.0915537
20
0.258746
11
0.0953431
21
0.253808
0
LINE
8
BLACK
6
CONTINUOUS
10
0.0953431
20
0.253808
11
0.0953433
21
0.253808
0
LINE
8
BLACK
6
CONTINUOUS
10
0.0953433
20
0.253808
11
0.0962156
21
0.253138
0
LINE
8
BLACK
6
CONTINUOUS
10
0.0962156
20
0.253138
11
0.100282
21
0.250018
0
LINE
8
BLACK
6
CONTINUOUS
10
0.100282
20
0.250018
11
0.106033
21
0.247636
0
LINE
8
BLACK
6
CONTINUOUS
10
0.106033
20
0.247636
11
0.112205
21
0.246824
0
LINE
8
BLACK
6
CONTINUOUS
10
0.112205
20
0.246824
11
0.118376
21
0.247636
0
LINE
8
BLACK
6
CONTINUOUS
10
0.118376
20
0.247636
11
0.124128
21
0.250018
0
LINE
8
BLACK
6
CONTINUOUS
10
0.124128
20
0.250018
11
0.129066
21
0.253808
0
LINE
8
BLACK
6
CONTINUOUS
10
0.129066
20
0.253808
11
0.129066
21
0.253808
0
LINE
8
BLACK
6
CONTINUOUS
10
0.129066
20
0.253808
11
0.129201
21
0.253943
0
LINE
8
BLACK
6
CONTINUOUS
10
0.129201
20
0.253943
11
0.129245
21
0.253898
0
LINE
8
BLACK
6
CONTINUOUS
10
0.129245
20
0.253898
11
0.130712
21
0.254833
0
LINE
8
BLACK
6
CONTINUOUS
10
0.130712
20
0.254833
11
0.131342
21
0.254902
0
LINE
8
BLACK
6
CONTINUOUS
10
0.131342
20
0.254902
11
0.148302
21
0.254902
0
LINE
8
BLACK
6
CONTINUOUS
10
0.148302
20
0.254902
11
0.150174
21
0.25422
0
LINE
8
BLACK
6
CONTINUOUS
10
0.150174
20
0.25422
11
0.151171
21
0.252494
0
LINE
8
BLACK
6
CONTINUOUS
10
0.151171
20
0.252494
11
0.150825
21
0.250531
0
LINE
8
BLACK
6
CONTINUOUS
10
0.150825
20
0.250531
11
0.149785
21
0.249481
0
LINE
8
BLACK
6
CONTINUOUS
10
0.149785
20
0.249481
11
0.147272
21
0.247994
0
LINE
8
BLACK
6
CONTINUOUS
10
0.147272
20
0.247994
11
0.142644
21
0.243366
0
LINE
8
BLACK
6
CONTINUOUS
10
0.142644
20
0.243366
11
0.139312
21
0.237732
0
LINE
8
BLACK
6
CONTINUOUS
10
0.139312
20
0.237732
11
0.137488
21
0.231457
0
LINE
8
BLACK
6
CONTINUOUS
10
0.137488
20
0.231457
11
0.159045
21
0.231457
0
LINE
8
BLACK
6
CONTINUOUS
10
0.159045
20
0.231457
11
0.1591
21
0.231538
0
LINE
8
BLACK
6
CONTINUOUS
10
0.1591
20
0.231538
11
0.161016
21
0.232818
0
LINE
8
BLACK
6
CONTINUOUS
10
0.161016
20
0.232818
11
0.163276
21
0.233268
0
LINE
8
BLACK
6
CONTINUOUS
10
0.163276
20
0.233268
11
0.218394
21
0.233268
0
LINE
8
BLACK
6
CONTINUOUS
10
0.218394
20
0.233268
11
0.220654
21
0.232818
0
LINE
8
BLACK
6
CONTINUOUS
10
0.220654
20
0.232818
11
0.22257
21
0.231538
0
LINE
8
BLACK
6
CONTINUOUS
10
0.22257
20
0.231538
11
0.222624
21
0.231457
0
LINE
8
BLACK
6
CONTINUOUS
10
0.222624
20
0.231457
11
0.244181
21
0.231457
0
LINE
8
BLACK
6
CONTINUOUS
10
0.244181
20
0.231457
11
0.242358
21
0.237732
0
LINE
8
BLACK
6
CONTINUOUS
10
0.242358
20
0.237732
11
0.239092
21
0.243253
0
LINE
8
BLACK
6
CONTINUOUS
10
0.239092
20
0.243253
11
0.238726
21
0.245212
0
LINE
8
BLACK
6
CONTINUOUS
10
0.238726
20
0.245212
11
0.239704
21
0.246948
0
LINE
8
BLACK
6
CONTINUOUS
10
0.239704
20
0.246948
11
0.24157
21
0.247649
0
LINE
8
BLACK
6
CONTINUOUS
10
0.24157
20
0.247649
11
0.242715
21
0.247428
0
LINE
8
BLACK
6
CONTINUOUS
10
0.242715
20
0.247428
11
0.243828
21
0.246967
0
LINE
8
BLACK
6
CONTINUOUS
10
0.243828
20
0.246967
11
0.25
21
0.246154
0
LINE
8
BLACK
6
CONTINUOUS
10
0.25
20
0.246154
11
0.256172
21
0.246967
0
LINE
8
BLACK
6
CONTINUOUS
10
0.256172
20
0.246967
11
0.261923
21
0.249349
0
LINE
8
BLACK
6
CONTINUOUS
10
0.261923
20
0.249349
11
0.266861
21
0.253139
0
LINE
8
BLACK
6
CONTINUOUS
10
0.266861
20
0.253139
11
0.267691
21
0.25422
0
LINE
8
BLACK
6
CONTINUOUS
10
0.267691
20
0.25422
11
0.268337
21
0.255061
0
LINE
8
BLACK
6
CONTINUOUS
10
0.268337
20
0.255061
11
0.270017
21
0.256132
0
LINE
8
BLACK
6
CONTINUOUS
10
0.270017
20
0.256132
11
0.270648
21
0.256201
0
LINE
8
BLACK
6
CONTINUOUS
10
0.270648
20
0.256201
11
0.618267
21
0.256201
0
LINE
8
BLACK
6
CONTINUOUS
10
0.618267
20
0.256201
11
0.618865
21
0.256139
0
LINE
8
BLACK
6
CONTINUOUS
10
0.618865
20
0.256139
11
0.619422
21
0.256022
0
LINE
8
BLACK
6
CONTINUOUS
10
0.619422
20
0.256022
11
0.620767
21
0.25619
0
LINE
8
BLACK
6
CONTINUOUS
10
0.620767
20
0.25619
11
0.620948
21
0.256201
0
LINE
8
BLACK
6
CONTINUOUS
10
0.620948
20
0.256201
11
0.621144
21
0.256201
0
LINE
8
BLACK
6
CONTINUOUS
10
0.621144
20
0.256201
11
0.621144
21
0.256201
0
LINE
8
BLACK
6
CONTINUOUS
10
0.621144
20
0.256201
11
0.62199
21
0.256342
0
LINE
8
BLACK
6
CONTINUOUS
10
0.62199
20
0.256342
11
0.623992
21
0.256592
0
LINE
8
BLACK
6
CONTINUOUS
10
0.623992
20
0.256592
11
0.623993
21
0.256592
0
LINE
8
BLACK
6
CONTINUOUS
10
0.623993
20
0.256592
11
0.624224
21
0.256661
0
LINE
8
BLACK
6
CONTINUOUS
10
0.624224
20
0.256661
11
0.624228
21
0.256647
0
LINE
8
BLACK
6
CONTINUOUS
10
0.624228
20
0.256647
11
0.624319
21
0.256676
0
LINE
8
BLACK
6
CONTINUOUS
10
0.624319
20
0.256676
11
0.624315
21
0.25669
0
LINE
8
BLACK
6
CONTINUOUS
10
0.624315
20
0.25669
11
0.624543
21
0.256768
0
LINE
8
BLACK
6
CONTINUOUS
10
0.624543
20
0.256768
11
0.624543
21
0.256768
0
LINE
8
BLACK
6
CONTINUOUS
10
0.624543
20
0.256768
11
0.62543
21
0.257248
0
LINE
8
BLACK
6
CONTINUOUS
10
0.62543
20
0.257248
11
0.626317
21
0.257728
0
LINE
8
BLACK
6
CONTINUOUS
10
0.626317
20
0.257728
11
0.62813
21
0.258614
0
LINE
8
BLACK
6
CONTINUOUS
10
0.62813
20
0.258614
11
0.628326
21
0.258755
0
LINE
8
BLACK
6
CONTINUOUS
10
0.628326
20
0.258755
11
0.628334
21
0.258743
0
LINE
8
BLACK
6
CONTINUOUS
10
0.628334
20
0.258743
11
0.628411
21
0.2588
0
LINE
8
BLACK
6
CONTINUOUS
10
0.628411
20
0.2588
11
0.628403
21
0.258812
0
LINE
8
BLACK
6
CONTINUOUS
10
0.628403
20
0.258812
11
0.628593
21
0.25896
0
LINE
8
BLACK
6
CONTINUOUS
10
0.628593
20
0.25896
11
0.628593
21
0.25896
0
LINE
8
BLACK
6
CONTINUOUS
10
0.628593
20
0.25896
11
0.629959
21
0.260444
0
LINE
8
BLACK
6
CONTINUOUS
10
0.629959
20
0.260444
11
0.650158
21
0.280642
0
LINE
8
BLACK
6
CONTINUOUS
10
0.650158
20
0.280642
11
0.651964
21
0.281484
0
LINE
8
BLACK
6
CONTINUOUS
10
0.651964
20
0.281484
11
0.652598
21
0.281471
0
LINE
8
BLACK
6
CONTINUOUS
10
0.652598
20
0.281471
11
0.655
21
0.281154
0
LINE
8
BLACK
6
CONTINUOUS
10
0.655
20
0.281154
11
0.661172
21
0.281967
0
LINE
8
BLACK
6
CONTINUOUS
10
0.661172
20
0.281967
11
0.666923
21
0.284349
0
LINE
8
BLACK
6
CONTINUOUS
10
0.666923
20
0.284349
11
0.670124
21
0.286805
0
LINE
8
BLACK
6
CONTINUOUS
10
0.670124
20
0.286805
11
0.672024
21
0.287404
0
LINE
8
BLACK
6
CONTINUOUS
10
0.672024
20
0.287404
11
0.673866
21
0.286642
0
LINE
8
BLACK
6
CONTINUOUS
10
0.673866
20
0.286642
11
0.673957
21
0.286554
0
LINE
8
BLACK
6
CONTINUOUS
10
0.673957
20
0.286554
11
0.685504
21
0.275007
0
LINE
8
BLACK
6
CONTINUOUS
10
0.685504
20
0.275007
11
0.686346
21
0.273201
0
LINE
8
BLACK
6
CONTINUOUS
10
0.686346
20
0.273201
11
0.686332
21
0.272567
0
LINE
8
BLACK
6
CONTINUOUS
10
0.686332
20
0.272567
11
0.686016
21
0.270164
0
LINE
8
BLACK
6
CONTINUOUS
10
0.686016
20
0.270164
11
0.686828
21
0.263993
0
LINE
8
BLACK
6
CONTINUOUS
10
0.686828
20
0.263993
11
0.686828
21
0.263993
0
LINE
8
BLACK
6
CONTINUOUS
10
0.686828
20
0.263993
11
0.689211
21
0.258242
0
LINE
8
BLACK
6
CONTINUOUS
10
0.689211
20
0.258242
11
0.693
21
0.253303
0
LINE
8
BLACK
6
CONTINUOUS
10
0.693
20
0.253303
11
0.693
21
0.253303
0
LINE
8
BLACK
6
CONTINUOUS
10
0.693
20
0.253303
11
0.69698
21
0.250249
0
LINE
8
BLACK
6
CONTINUOUS
10
0.69698
20
0.250249
11
0.698051
21
0.248569
0
LINE
8
BLACK
6
CONTINUOUS
10
0.698051
20
0.248569
11
0.69779
21
0.246593
0
LINE
8
BLACK
6
CONTINUOUS
10
0.69779
20
0.246593
11
0.69698
21
0.245627
0
LINE
8
BLACK
6
CONTINUOUS
10
0.69698
20
0.245627
11
0.692676
21
0.242324
0
LINE
8
BLACK
6
CONTINUOUS
10
0.692676
20
0.242324
11
0.692676
21
0.242324
0
LINE
8
BLACK
6
CONTINUOUS
10
0.692676
20
0.242324
11
0.688886
21
0.237386
0
LINE
8
BLACK
6
CONTINUOUS
10
0.688886
20
0.237386
11
0.686504
21
0.231634
0
LINE
8
BLACK
6
CONTINUOUS
10
0.686504
20
0.231634
11
0.686504
21
0.231634
0
LINE
8
BLACK
6
CONTINUOUS
10
0.686504
20
0.231634
11
0.685692
21
0.225463
0
LINE
8
BLACK
6
CONTINUOUS
10
0.685692
20
0.225463
11
0.686504
21
0.219291
0
LINE
8
BLACK
6
CONTINUOUS
10
0.686504
20
0.219291
11
0.686504
21
0.219291
0
LINE
8
BLACK
6
CONTINUOUS
10
0.686504
20
0.219291
11
0.688886
21
0.21354
0
LINE
8
BLACK
6
CONTINUOUS
10
0.688886
20
0.21354
11
0.692676
21
0.208601
0
LINE
8
BLACK
6
CONTINUOUS
10
0.692676
20
0.208601
11
0.692676
21
0.208601
0
LINE
8
BLACK
6
CONTINUOUS
10
0.692676
20
0.208601
11
0.692676
21
0.208601
0
LINE
8
BLACK
6
CONTINUOUS
10
0.692676
20
0.208601
11
0.697615
21
0.204812
0
LINE
8
BLACK
6
CONTINUOUS
10
0.697615
20
0.204812
11
0.703366
21
0.202429
0
LINE
8
BLACK
6
CONTINUOUS
10
0.703366
20
0.202429
11
0.709537
21
0.201617
0
LINE
8
BLACK
6
CONTINUOUS
10
0.709537
20
0.201617
11
0.715709
21
0.202429
0
LINE
8
BLACK
6
CONTINUOUS
10
0.715709
20
0.202429
11
0.72146
21
0.204812
0
LINE
8
BLACK
6
CONTINUOUS
10
0.72146
20
0.204812
11
0.726399
21
0.208601
0
LINE
8
BLACK
6
CONTINUOUS
10
0.726399
20
0.208601
11
0.726399
21
0.208601
0
LINE
8
BLACK
6
CONTINUOUS
10
0.726399
20
0.208601
11
0.726534
21
0.208736
0
LINE
8
BLACK
6
CONTINUOUS
10
0.726534
20
0.208736
11
0.726578
21
0.208692
0
LINE
8
BLACK
6
CONTINUOUS
10
0.726578
20
0.208692
11
0.728044
21
0.209626
0
LINE
8
BLACK
6
CONTINUOUS
10
0.728044
20
0.209626
11
0.728675
21
0.209695
0
LINE
8
BLACK
6
CONTINUOUS
10
0.728675
20
0.209695
11
1.12865
21
0.209695
0
LINE
8
BLACK
6
CONTINUOUS
10
1.12865
20
0.209695
11
1.12963
21
0.210012
0
LINE
8
BLACK
6
CONTINUOUS
10
1.12963
20
0.210012
11
1.13007
21
0.210119
0
LINE
8
BLACK
6
CONTINUOUS
10
1.13007
20
0.210119
11
1.13108
21
0.21028
0
LINE
8
BLACK
6
CONTINUOUS
10
1.13108
20
0.21028
11
1.132
21
0.210746
0
LINE
8
BLACK
6
CONTINUOUS
10
1.132
20
0.210746
11
1.13242
21
0.210921
0
LINE
8
BLACK
6
CONTINUOUS
10
1.13242
20
0.210921
11
1.1334
21
0.211238
0
LINE
8
BLACK
6
CONTINUOUS
10
1.1334
20
0.211238
11
1.13423
21
0.211842
0
LINE
8
BLACK
6
CONTINUOUS
10
1.13423
20
0.211842
11
1.13462
21
0.212081
0
LINE
8
BLACK
6
CONTINUOUS
10
1.13462
20
0.212081
11
1.13554
21
0.212547
0
LINE
8
BLACK
6
CONTINUOUS
10
1.13554
20
0.212547
11
1.13554
21
0.212547
0
LINE
8
BLACK
6
CONTINUOUS
10
1.13554
20
0.212547
11
1.13626
21
0.21327
0
LINE
8
BLACK
6
CONTINUOUS
10
1.13626
20
0.21327
11
1.13626
21
0.21327
0
LINE
8
BLACK
6
CONTINUOUS
10
1.13626
20
0.21327
11
1.13642
21
0.213436
0
LINE
8
BLACK
6
CONTINUOUS
10
1.13642
20
0.213436
11
1.13642
21
0.213436
0
LINE
8
BLACK
6
CONTINUOUS
10
1.13642
20
0.213436
11
1.14331
21
0.220318
0
LINE
8
BLACK
6
CONTINUOUS
10
1.14331
20
0.220318
11
1.14511
21
0.221161
0
LINE
8
BLACK
6
CONTINUOUS
10
1.14511
20
0.221161
11
1.1455
21
0.221152
0
LINE
8
BLACK
6
CONTINUOUS
10
1.1455
20
0.221152
11
1.1455
21
0.221154
0
LINE
8
BLACK
6
CONTINUOUS
10
1.1455
20
0.221154
11
1.14569
21
0.221154
0
LINE
8
BLACK
6
CONTINUOUS
10
1.14569
20
0.221154
11
1.14569
21
0.221154
0
LINE
8
BLACK
6
CONTINUOUS
10
1.14569
20
0.221154
11
1.14569
21
0.221154
0
LINE
8
BLACK
6
CONTINUOUS
10
1.14569
20
0.221154
11
1.15186
21
0.221967
0
LINE
8
BLACK
6
CONTINUOUS
10
1.15186
20
0.221967
11
1.15737
21
0.224249
0
LINE
8
BLACK
6
CONTINUOUS
10
1.15737
20
0.224249
11
1.15936
21
0.224335
0
LINE
8
BLACK
6
CONTINUOUS
10
1.15936
20
0.224335
11
1.16094
21
0.223122
0
LINE
8
BLACK
6
CONTINUOUS
10
1.16094
20
0.223122
11
1.1614
21
0.221557
0
LINE
8
BLACK
6
CONTINUOUS
10
1.1614
20
0.221557
11
1.1614
21
0.0226181
0
LINE
8
BLACK
6
CONTINUOUS
10
1.1614
20
0.0226181
11
1.16072
21
0.0207454
0
LINE
8
BLACK
6
CONTINUOUS
10
1.16072
20
0.0207454
11
1.15899
21
0.019749
0
LINE
8
BLACK
6
CONTINUOUS
10
1.15899
20
0.019749
11
1.15848
21
0.0197047
0
LINE
8
BLACK
6
CONTINUOUS
10
1.15848
20
0.0197047
11
0.951935
21
0.0197047
0
LINE
8
BLACK
6
CONTINUOUS
10
0.951935
20
0.0197047
11
0.950062
21
0.0203863
0
LINE
8
BLACK
6
CONTINUOUS
10
0.950062
20
0.0203863
11
0.949193
21
0.0216332
0
LINE
8
BLACK
6
CONTINUOUS
10
0.949193
20
0.0216332
11
0.947098
21
0.0274672
0
LINE
8
BLACK
6
CONTINUOUS
10
0.947098
20
0.0274672
11
0.942187
21
0.0364983
0
LINE
8
BLACK
6
CONTINUOUS
10
0.942187
20
0.0364983
11
0.935955
21
0.0446739
0
LINE
8
BLACK
6
CONTINUOUS
10
0.935955
20
0.0446739
11
0.928548
21
0.0518023
0
LINE
8
BLACK
6
CONTINUOUS
10
0.928548
20
0.0518023
11
0.926271
21
0.0534039
0
LINE
8
BLACK
6
CONTINUOUS
10
0.926271
20
0.0534039
11
0.920139
21
0.0577166
0
LINE
8
BLACK
6
CONTINUOUS
10
0.920139
20
0.0577166
11
0.920139
21
0.0577166
0
LINE
8
BLACK
6
CONTINUOUS
10
0.920139
20
0.0577166
11
0.910927
21
0.062278
0
LINE
8
BLACK
6
CONTINUOUS
10
0.910927
20
0.062278
11
0.901126
21
0.0653796
0
LINE
8
BLACK
6
CONTINUOUS
10
0.901126
20
0.0653796
11
0.890967
21
0.0669488
0
LINE
8
BLACK
6
CONTINUOUS
10
0.890967
20
0.0669488
11
0.883261
21
0.0669488
0
LINE
8
BLACK
6
CONTINUOUS
10
0.883261
20
0.0669488
11
0.880522
21
0.0667385
0
LINE
8
BLACK
6
CONTINUOUS
10
0.880522
20
0.0667385
11
0.875577
21
0.0663589
0
LINE
8
BLACK
6
CONTINUOUS
10
0.875577
20
0.0663589
11
0.875577
21
0.0663589
0
LINE
8
BLACK
6
CONTINUOUS
10
0.875577
20
0.0663589
11
0.865567
21
0.0640166
0
LINE
8
BLACK
6
CONTINUOUS
10
0.865567
20
0.0640166
11
0.856033
21
0.0601739
0
LINE
8
BLACK
6
CONTINUOUS
10
0.856033
20
0.0601739
11
0.856032
21
0.0601735
0
LINE
8
BLACK
6
CONTINUOUS
10
0.856032
20
0.0601735
11
0.847197
21
0.0549207
0
LINE
8
BLACK
6
CONTINUOUS
10
0.847197
20
0.0549207
11
0.847197
21
0.0549206
0
LINE
8
BLACK
6
CONTINUOUS
10
0.847197
20
0.0549206
11
0.839266
21
0.0483799
0
LINE
8
BLACK
6
CONTINUOUS
10
0.839266
20
0.0483799
11
0.832426
21
0.0407057
0
LINE
8
BLACK
6
CONTINUOUS
10
0.832426
20
0.0407057
11
0.832426
21
0.0407055
0
LINE
8
BLACK
6
CONTINUOUS
10
0.832426
20
0.0407055
11
0.826838
21
0.0320769
0
LINE
8
BLACK
6
CONTINUOUS
10
0.826838
20
0.0320769
11
0.826838
21
0.0320769
0
LINE
8
BLACK
6
CONTINUOUS
10
0.826838
20
0.0320769
11
0.822633
21
0.0226969
0
LINE
8
BLACK
6
CONTINUOUS
10
0.822633
20
0.0226969
11
0.822633
21
0.0226965
0
LINE
8
BLACK
6
CONTINUOUS
10
0.822633
20
0.0226965
11
0.822633
21
0.0226964
0
LINE
8
BLACK
6
CONTINUOUS
10
0.822633
20
0.0226964
11
0.822612
21
0.0226181
0
LINE
8
BLACK
6
CONTINUOUS
10
0.822612
20
0.0226181
11
0.822399
21
0.0218461
0
LINE
8
BLACK
6
CONTINUOUS
10
0.822399
20
0.0218461
11
0.821246
21
0.020221
0
LINE
8
BLACK
6
CONTINUOUS
10
0.821246
20
0.020221
11
0.81959
21
0.0197047
0
LINE
8
BLACK
6
CONTINUOUS
10
0.81959
20
0.0197047
11
0.558234
21
0.0197047
0
LINE
8
BLACK
6
CONTINUOUS
10
0.558234
20
0.0197047
11
0.556361
21
0.0203863
0
LINE
8
BLACK
6
CONTINUOUS
10
0.556361
20
0.0203863
11
0.555492
21
0.0216332
0
LINE
8
BLACK
6
CONTINUOUS
10
0.555492
20
0.0216332
11
0.553397
21
0.0274672
0
LINE
8
BLACK
6
CONTINUOUS
10
0.553397
20
0.0274672
11
0.548486
21
0.0364983
0
LINE
8
BLACK
6
CONTINUOUS
10
0.548486
20
0.0364983
11
0.542254
21
0.0446739
0
LINE
8
BLACK
6
CONTINUOUS
10
0.542254
20
0.0446739
11
0.534847
21
0.0518023
0
LINE
8
BLACK
6
CONTINUOUS
10
0.534847
20
0.0518023
11
0.53257
21
0.0534039
0
LINE
8
BLACK
6
CONTINUOUS
10
0.53257
20
0.0534039
11
0.526439
21
0.0577166
0
LINE
8
BLACK
6
CONTINUOUS
10
0.526439
20
0.0577166
11
0.526439
21
0.0577166
0
LINE
8
BLACK
6
CONTINUOUS
10
0.526439
20
0.0577166
11
0.517226
21
0.062278
0
LINE
8
BLACK
6
CONTINUOUS
10
0.517226
20
0.062278
11
0.507425
21
0.0653796
0
LINE
8
BLACK
6
CONTINUOUS
10
0.507425
20
0.0653796
11
0.497266
21
0.0669488
0
LINE
8
BLACK
6
CONTINUOUS
10
0.497266
20
0.0669488
11
0.48956
21
0.0669488
0
LINE
8
BLACK
6
CONTINUOUS
10
0.48956
20
0.0669488
11
0.486821
21
0.0667385
0
LINE
8
BLACK
6
CONTINUOUS
10
0.486821
20
0.0667385
11
0.481876
21
0.0663589
0
LINE
8
BLACK
6
CONTINUOUS
10
0.481876
20
0.0663589
11
0.481876
21
0.0663589
0
LINE
8
BLACK
6
CONTINUOUS
10
0.481876
20
0.0663589
11
0.471867
21
0.0640166
0
LINE
8
BLACK
6
CONTINUOUS
10
0.471867
20
0.0640166
11
0.462332
21
0.0601739
0
LINE
8
BLACK
6
CONTINUOUS
10
0.462332
20
0.0601739
11
0.462332
21
0.0601735
0
LINE
8
BLACK
6
CONTINUOUS
10
0.462332
20
0.0601735
11
0.453496
21
0.0549207
0
LINE
8
BLACK
6
CONTINUOUS
10
0.453496
20
0.0549207
11
0.453496
21
0.0549206
0
LINE
8
BLACK
6
CONTINUOUS
10
0.453496
20
0.0549206
11
0.445565
21
0.0483799
0
LINE
8
BLACK
6
CONTINUOUS
10
0.445565
20
0.0483799
11
0.438726
21
0.0407057
0
LINE
8
BLACK
6
CONTINUOUS
10
0.438726
20
0.0407057
11
0.438725
21
0.0407055
0
LINE
8
BLACK
6
CONTINUOUS
10
0.438725
20
0.0407055
11
0.433138
21
0.0320769
0
LINE
8
BLACK
6
CONTINUOUS
10
0.433138
20
0.0320769
11
0.433138
21
0.0320769
0
LINE
8
BLACK
6
CONTINUOUS
10
0.433138
20
0.0320769
11
0.428933
21
0.0226969
0
LINE
8
BLACK
6
CONTINUOUS
10
0.428933
20
0.0226969
11
0.428932
21
0.0226965
0
LINE
8
BLACK
6
CONTINUOUS
10
0.428932
20
0.0226965
11
0.428932
21
0.0226964
0
LINE
8
BLACK
6
CONTINUOUS
10
0.428932
20
0.0226964
11
0.428911
21
0.0226181
0
LINE
8
BLACK
6
CONTINUOUS
10
0.428911
20
0.0226181
11
0.428699
21
0.0218461
0
LINE
8
BLACK
6
CONTINUOUS
10
0.428699
20
0.0218461
11
0.427545
21
0.020221
0
LINE
8
BLACK
6
CONTINUOUS
10
0.427545
20
0.020221
11
0.425889
21
0.0197047
0
LINE
8
BLACK
6
CONTINUOUS
10
0.425889
20
0.0197047
11
0.164533
21
0.0197047
0
LINE
8
BLACK
6
CONTINUOUS
10
0.164533
20
0.0197047
11
0.162661
21
0.0203863
0
LINE
8
BLACK
6
CONTINUOUS
10
0.162661
20
0.0203863
11
0.161791
21
0.0216332
0
LINE
8
BLACK
6
CONTINUOUS
10
0.161791
20
0.0216332
11
0.159696
21
0.0274672
0
LINE
8
BLACK
6
CONTINUOUS
10
0.159696
20
0.0274672
11
0.154785
21
0.0364983
0
LINE
8
BLACK
6
CONTINUOUS
10
0.154785
20
0.0364983
11
0.148553
21
0.0446739
0
LINE
8
BLACK
6
CONTINUOUS
10
0.148553
20
0.0446739
11
0.141146
21
0.0518023
0
LINE
8
BLACK
6
CONTINUOUS
10
0.141146
20
0.0518023
11
0.138869
21
0.0534039
0
LINE
8
BLACK
6
CONTINUOUS
10
0.138869
20
0.0534039
11
0.132738
21
0.0577166
0
LINE
8
BLACK
6
CONTINUOUS
10
0.132738
20
0.0577166
11
0.132738
21
0.0577166
0
LINE
8
BLACK
6
CONTINUOUS
10
0.132738
20
0.0577166
11
0.123525
21
0.062278
0
LINE
8
BLACK
6
CONTINUOUS
10
0.123525
20
0.062278
11
0.113725
21
0.0653796
0
LINE
8
BLACK
6
CONTINUOUS
10
0.113725
20
0.0653796
11
0.103565
21
0.0669488
0
LINE
8
BLACK
6
CONTINUOUS
10
0.103565
20
0.0669488
11
0.0958592
21
0.0669488
0
LINE
8
BLACK
6
CONTINUOUS
10
0.0958592
20
0.0669488
11
0.09312
21
0.0667385
0
LINE
8
BLACK
6
CONTINUOUS
10
0.09312
20
0.0667385
11
0.0881756
21
0.0663589
0
LINE
8
BLACK
6
CONTINUOUS
10
0.0881756
20
0.0663589
11
0.088175
21
0.0663589
0
LINE
8
BLACK
6
CONTINUOUS
10
0.088175
20
0.0663589
11
0.0781658
21
0.0640166
0
LINE
8
BLACK
6
CONTINUOUS
10
0.0781658
20
0.0640166
11
0.0686315
21
0.0601739
0
LINE
8
BLACK
6
CONTINUOUS
10
0.0686315
20
0.0601739
11
0.0686308
21
0.0601735
0
LINE
8
BLACK
6
CONTINUOUS
10
0.0686308
20
0.0601735
11
0.0597951
21
0.0549207
0
LINE
8
BLACK
6
CONTINUOUS
10
0.0597951
20
0.0549207
11
0.059795
21
0.0549206
0
LINE
8
BLACK
6
CONTINUOUS
10
0.059795
20
0.0549206
11
0.0518639
21
0.0483799
0
LINE
8
BLACK
6
CONTINUOUS
10
0.0518639
20
0.0483799
11
0.0450247
21
0.0407057
0
LINE
8
BLACK
6
CONTINUOUS
10
0.0450247
20
0.0407057
11
0.0450246
21
0.0407055
0
LINE
8
BLACK
6
CONTINUOUS
10
0.0450246
20
0.0407055
11
0.0394367
21
0.0320769
0
LINE
8
BLACK
6
CONTINUOUS
10
0.0394367
20
0.0320769
11
0.0394367
21
0.0320769
0
LINE
8
BLACK
6
CONTINUOUS
10
0.0394367
20
0.0320769
11
0.0352317
21
0.0226969
0
LINE
8
BLACK
6
CONTINUOUS
10
0.0352317
20
0.0226969
11
0.0352316
21
0.0226965
0
LINE
8
BLACK
6
CONTINUOUS
10
0.0352316
20
0.0226965
11
0.0352316
21
0.0226964
0
LINE
8
BLACK
6
CONTINUOUS
10
0.0352316
20
0.0226964
11
0.0352101
21
0.0226181
0
LINE
8
BLACK
6
CONTINUOUS
10
0.0352101
20
0.0226181
11
0.0349979
21
0.0218461
0
LINE
8
BLACK
6
CONTINUOUS
10
0.0349979
20
0.0218461
11
0.0338444
21
0.020221
0
LINE
8
BLACK
6
CONTINUOUS
10
0.0338444
20
0.020221
11
0.0321887
21
0.0197047
0
LINE
8
BLACK
6
CONTINUOUS
10
0.0321887
20
0.0197047
11
0.0226181
21
0.0197047
0
LINE
8
BLACK
6
CONTINUOUS
10
0.0226181
20
0.0197047
11
0.0207454
21
0.0203863
0
LINE
8
BLACK
6
CONTINUOUS
10
0.0207454
20
0.0203863
11
0.019749
21
0.0221122
0
LINE
8
BLACK
6
CONTINUOUS
10
0.019749
20
0.0221122
11
0.0197047
21
0.0226181
0
LINE
8
BLACK
6
CONTINUOUS
10
0.0197047
20
0.0226181
11
0.0197047
21
0.106024
0
LINE
8
BLACK
6
CONTINUOUS
10
0.0197047
20
0.106024
11
0.0203863
21
0.107896
0
LINE
8
BLACK
6
CONTINUOUS
10
0.0203863
20
0.107896
11
0.0221122
21
0.108893
0
LINE
8
BLACK
6
CONTINUOUS
10
0.0221122
20
0.108893
11
0.0226181
21
0.108937
0
LINE
8
BLACK
6
CONTINUOUS
10
0.0226181
20
0.108937
11
0.0548504
21
0.108937
0
LINE
8
BLACK
6
CONTINUOUS
10
0.0548504
20
0.108937
11
0.0548504
21
0.128937
0
LINE
8
BLACK
6
CONTINUOUS
10
0.0548504
20
0.128937
11
0.0215433
21
0.128937
0
LINE
8
BLACK
6
CONTINUOUS
10
0.0215433
20
0.128937
11
0.0177767
21
0.129686
0
LINE
8
BLACK
6
CONTINUOUS
10
0.0177767
20
0.129686
11
0.0145836
21
0.13182
0
LINE
8
BLACK
6
CONTINUOUS
10
0.0145836
20
0.13182
11
0.01245
21
0.135013
0
LINE
8
BLACK
6
CONTINUOUS
10
0.01245
20
0.135013
11
0.0117008
21
0.13878
0
LINE
8
BLACK
6
CONTINUOUS
10
0.0117008
20
0.13878
11
0.0117008
21
0.158465
0
LINE
8
BLACK
6
CONTINUOUS
10
0.0117008
20
0.158465
11
0.01245
21
0.162231
0
LINE
8
BLACK
6
CONTINUOUS
10
0.01245
20
0.162231
11
0.0145836
21
0.165424
0
LINE
8
BLACK
6
CONTINUOUS
10
0.0145836
20
0.165424
11
0.0177767
21
0.167558
0
LINE
8
BLACK
6
CONTINUOUS
10
0.0177767
20
0.167558
11
0.0215433
21
0.168307
0
LINE
8
BLACK
6
CONTINUOUS
10
0.0215433
20
0.168307
11
0.0548504
21
0.168307
0
LINE
8
BLACK
6
CONTINUOUS
10
0.0548504
20
0.168307
11
0.0548504
21
0.188307
0
LINE
8
BLACK
6
CONTINUOUS
10
0.0548504
20
0.188307
11
0.0226181
21
0.188307
0
LINE
8
BLACK
6
CONTINUOUS
10
0.0226181
20
0.188307
11
0.0207454
21
0.188989
0
LINE
8
BLACK
6
CONTINUOUS
10
0.0207454
20
0.188989
11
0.019749
21
0.190715
0
LINE
8
BLACK
6
CONTINUOUS
10
0.019749
20
0.190715
11
0.0197047
21
0.19122
0
LINE
8
BLACK
6
CONTINUOUS
10
0.0197047
20
0.19122
11
0.0197047
21
0.211457
0
LINE
8
BLACK
6
CONTINUOUS
10
0.0197047
20
0.211457
11
0.0197047
21
0.37
0
LINE
8
BLACK
6
CONTINUOUS
10
0.0197047
20
0.37
11
0.0197047
21
0.399331
0
LINE
8
BLACK
6
CONTINUOUS
10
0.0197047
20
0.399331
11
0.0203863
21
0.401203
0
LINE
8
BLACK
6
CONTINUOUS
10
0.0203863
20
0.401203
11
0.0221122
21
0.4022
0
LINE
8
BLACK
6
CONTINUOUS
10
0.0221122
20
0.4022
11
0.0226181
21
0.402244
0
LINE
8
BLACK
6
CONTINUOUS
10
0.0226181
20
0.402244
11
0.0548504
21
0.402244
0
LINE
8
BLACK
6
CONTINUOUS
10
0.0548504
20
0.402244
11
0.0548504
21
0.422244
0
LINE
8
BLACK
6
CONTINUOUS
10
0.0548504
20
0.422244
11
0.0215433
21
0.422244
0
LINE
8
BLACK
6
CONTINUOUS
10
0.0215433
20
0.422244
11
0.0177767
21
0.422993
0
LINE
8
BLACK
6
CONTINUOUS
10
0.0177767
20
0.422993
11
0.0145836
21
0.425127
0
LINE
8
BLACK
6
CONTINUOUS
10
0.0145836
20
0.425127
11
0.01245
21
0.42832
0
LINE
8
BLACK
6
CONTINUOUS
10
0.01245
20
0.42832
11
0.0117008
21
0.432087
0
LINE
8
BLACK
6
CONTINUOUS
10
0.0117008
20
0.432087
11
0.0117008
21
0.451772
0
LINE
8
BLACK
6
CONTINUOUS
10
0.0117008
20
0.451772
11
0.01245
21
0.455538
0
LINE
8
BLACK
6
CONTINUOUS
10
0.01245
20
0.455538
11
0.0145836
21
0.458731
0
LINE
8
BLACK
6
CONTINUOUS
10
0.0145836
20
0.458731
11
0.0177767
21
0.460865
0
LINE
8
BLACK
6
CONTINUOUS
10
0.0177767
20
0.460865
11
0.0215433
21
0.461614
0
LINE
8
BLACK
6
CONTINUOUS
10
0.0215433
20
0.461614
11
0.0548504
21
0.461614
0
LINE
8
BLACK
6
CONTINUOUS
10
0.0548504
20
0.461614
11
0.0548504
21
0.481614
0
LINE
8
BLACK
6
CONTINUOUS
10
0.0548504
20
0.481614
11
0.0226181
21
0.481614
0
LINE
8
BLACK
6
CONTINUOUS
10
0.0226181
20
0.481614
11
0.0207454
21
0.482296
0
LINE
8
BLACK
6
CONTINUOUS
10
0.0207454
20
0.482296
11
0.019749
21
0.484022
0
LINE
8
BLACK
6
CONTINUOUS
10
0.019749
20
0.484022
11
0.0197047
21
0.484528
0
LINE
8
BLACK
6
CONTINUOUS
10
0.0197047
20
0.484528
11
0.0197047
21
0.567933
0
LINE
8
BLACK
6
CONTINUOUS
10
0.0197047
20
0.567933
11
0.0203863
21
0.569806
0
LINE
8
BLACK
6
CONTINUOUS
10
0.0203863
20
0.569806
11
0.0221122
21
0.570802
0
LINE
8
BLACK
6
CONTINUOUS
10
0.0221122
20
0.570802
11
0.0226181
21
0.570846
0
LINE
8
BLACK
6
CONTINUOUS
10
0.0226181
20
0.570846
11
0.0323172
21
0.570846
0
LINE
8
BLACK
6
CONTINUOUS
10
0.0323172
20
0.570846
11
0.0341899
21
0.570165
0
LINE
8
BLACK
6
CONTINUOUS
10
0.117251
20
0.135013
11
0.115117
21
0.13182
0
LINE
8
BLACK
6
CONTINUOUS
10
0.115117
20
0.13182
11
0.111924
21
0.129686
0
LINE
8
BLACK
6
CONTINUOUS
10
0.111924
20
0.129686
11
0.108157
21
0.128937
0
LINE
8
BLACK
6
CONTINUOUS
10
0.108157
20
0.128937
11
0.0748504
21
0.128937
0
LINE
8
BLACK
6
CONTINUOUS
10
0.0748504
20
0.128937
11
0.0748504
21
0.108937
0
LINE
8
BLACK
6
CONTINUOUS
10
0.0748504
20
0.108937
11
0.110146
21
0.108937
0
LINE
8
BLACK
6
CONTINUOUS
10
0.110146
20
0.108937
11
0.110146
21
0.108937
0
LINE
8
BLACK
6
CONTINUOUS
10
0.110146
20
0.108937
11
0.114233
21
0.109355
0
LINE
8
BLACK
6
CONTINUOUS
10
0.114233
20
0.109355
11
0.120855
21
0.111549
0
LINE
8
BLACK
6
CONTINUOUS
10
0.120855
20
0.111549
11
0.126793
21
0.115211
0
LINE
8
BLACK
6
CONTINUOUS
10
0.126793
20
0.115211
11
0.126793
21
0.115211
0
LINE
8
BLACK
6
CONTINUOUS
10
0.126793
20
0.115211
11
0.131726
21
0.120144
0
LINE
8
BLACK
6
CONTINUOUS
10
0.131726
20
0.120144
11
0.131726
21
0.120144
0
LINE
8
BLACK
6
CONTINUOUS
10
0.131726
20
0.120144
11
0.135388
21
0.126082
0
LINE
8
BLACK
6
CONTINUOUS
10
0.135388
20
0.126082
11
0.137582
21
0.132704
0
LINE
8
BLACK
6
CONTINUOUS
10
0.137582
20
0.132704
11
0.138
21
0.136791
0
LINE
8
BLACK
6
CONTINUOUS
10
0.138
20
0.136791
11
0.138
21
0.136791
0
LINE
8
BLACK
6
CONTINUOUS
10
0.138
20
0.136791
11
0.138
21
0.138622
0
LINE
8
BLACK
6
CONTINUOUS
10
0.138
20
0.138622
11
0.117969
21
0.138622
0
LINE
8
BLACK
6
CONTINUOUS
10
0.117969
20
0.138622
11
0.117251
21
0.135013
0
LINE
8
BLACK
6
CONTINUOUS
10
0.0748504
20
0.168307
11
0.108157
21
0.168307
0
LINE
8
BLACK
6
CONTINUOUS
10
0.108157
20
0.168307
11
0.111924
21
0.167558
0
LINE
8
BLACK
6
CONTINUOUS
10
0.111924
20
0.167558
11
0.115117
21
0.165424
0
LINE
8
BLACK
6
CONTINUOUS
10
0.115117
20
0.165424
11
0.117251
21
0.162231
0
LINE
8
BLACK
6
CONTINUOUS
10
0.117251
20
0.162231
11
0.117969
21
0.158622
0
LINE
8
BLACK
6
CONTINUOUS
10
0.117969
20
0.158622
11
0.138
21
0.158622
0
LINE
8
BLACK
6
CONTINUOUS
10
0.138
20
0.158622
11
0.138
21
0.160453
0
LINE
8
BLACK
6
CONTINUOUS
10
0.138
20
0.160453
11
0.138
21
0.160453
0
LINE
8
BLACK
6
CONTINUOUS
10
0.138
20
0.160453
11
0.137582
21
0.16454
0
LINE
8
BLACK
6
CONTINUOUS
10
0.137582
20
0.16454
11
0.135388
21
0.171162
0
LINE
8
BLACK
6
CONTINUOUS
10
0.135388
20
0.171162
11
0.131726
21
0.1771
0
LINE
8
BLACK
6
CONTINUOUS
10
0.131726
20
0.1771
11
0.131726
21
0.1771
0
LINE
8
BLACK
6
CONTINUOUS
10
0.131726
20
0.1771
11
0.126793
21
0.182033
0
LINE
8
BLACK
6
CONTINUOUS
10
0.126793
20
0.182033
11
0.126793
21
0.182033
0
LINE
8
BLACK
6
CONTINUOUS
10
0.126793
20
0.182033
11
0.120855
21
0.185695
0
LINE
8
BLACK
6
CONTINUOUS
10
0.120855
20
0.185695
11
0.114233
21
0.18789
0
LINE
8
BLACK
6
CONTINUOUS
10
0.114233
20
0.18789
11
0.110146
21
0.188307
0
LINE
8
BLACK
6
CONTINUOUS
10
0.110146
20
0.188307
11
0.0748504
21
0.188307
0
LINE
8
BLACK
6
CONTINUOUS
10
0.0748504
20
0.188307
11
0.0748504
21
0.168307
0
LINE
8
BLACK
6
CONTINUOUS
10
0.139312
20
0.205181
11
0.142644
21
0.199547
0
LINE
8
BLACK
6
CONTINUOUS
10
0.142644
20
0.199547
11
0.147272
21
0.194919
0
LINE
8
BLACK
6
CONTINUOUS
10
0.147272
20
0.194919
11
0.152905
21
0.191587
0
LINE
8
BLACK
6
CONTINUOUS
10
0.152905
20
0.191587
11
0.159191
21
0.189761
0
LINE
8
BLACK
6
CONTINUOUS
10
0.159191
20
0.189761
11
0.160659
21
0.189646
0
LINE
8
BLACK
6
CONTINUOUS
10
0.160659
20
0.189646
11
0.180835
21
0.189646
0
LINE
8
BLACK
6
CONTINUOUS
10
0.180835
20
0.189646
11
0.180835
21
0.189646
0
LINE
8
BLACK
6
CONTINUOUS
10
0.180835
20
0.189646
11
0.180835
21
0.209646
0
LINE
8
BLACK
6
CONTINUOUS
10
0.180835
20
0.209646
11
0.163276
21
0.209646
0
LINE
8
BLACK
6
CONTINUOUS
10
0.163276
20
0.209646
11
0.161016
21
0.210095
0
LINE
8
BLACK
6
CONTINUOUS
10
0.161016
20
0.210095
11
0.1591
21
0.211375
0
LINE
8
BLACK
6
CONTINUOUS
10
0.1591
20
0.211375
11
0.159045
21
0.211457
0
LINE
8
BLACK
6
CONTINUOUS
10
0.159045
20
0.211457
11
0.137488
21
0.211457
0
LINE
8
BLACK
6
CONTINUOUS
10
0.137488
20
0.211457
11
0.139312
21
0.205181
0
LINE
8
BLACK
6
CONTINUOUS
10
0.22257
20
0.211375
11
0.220654
21
0.210095
0
LINE
8
BLACK
6
CONTINUOUS
10
0.220654
20
0.210095
11
0.218394
21
0.209646
0
LINE
8
BLACK
6
CONTINUOUS
10
0.218394
20
0.209646
11
0.200835
21
0.209646
0
LINE
8
BLACK
6
CONTINUOUS
10
0.200835
20
0.209646
11
0.200835
21
0.189646
0
LINE
8
BLACK
6
CONTINUOUS
10
0.200835
20
0.189646
11
0.22101
21
0.189646
0
LINE
8
BLACK
6
CONTINUOUS
10
0.22101
20
0.189646
11
0.222478
21
0.189761
0
LINE
8
BLACK
6
CONTINUOUS
10
0.222478
20
0.189761
11
0.228764
21
0.191587
0
LINE
8
BLACK
6
CONTINUOUS
10
0.228764
20
0.191587
11
0.234398
21
0.194919
0
LINE
8
BLACK
6
CONTINUOUS
10
0.234398
20
0.194919
11
0.239026
21
0.199547
0
LINE
8
BLACK
6
CONTINUOUS
10
0.239026
20
0.199547
11
0.242358
21
0.205181
0
LINE
8
BLACK
6
CONTINUOUS
10
0.242358
20
0.205181
11
0.244181
21
0.211457
0
LINE
8
BLACK
6
CONTINUOUS
10
0.244181
20
0.211457
11
0.222624
21
0.211457
0
LINE
8
BLACK
6
CONTINUOUS
10
0.222624
20
0.211457
11
0.22257
21
0.211375
0
LINE
8
BLACK
6
CONTINUOUS
10
0.243828
20
0.393033
11
0.243828
21
0.393033
0
LINE
8
BLACK
6
CONTINUOUS
10
0.243828
20
0.393033
11
0.238077
21
0.390651
0
LINE
8
BLACK
6
CONTINUOUS
10
0.238077
20
0.390651
11
0.233139
21
0.386862
0
LINE
8
BLACK
6
CONTINUOUS
10
0.233139
20
0.386862
11
0.233139
21
0.386862
0
LINE
8
BLACK
6
CONTINUOUS
10
0.233139
20
0.386862
11
0.233138
21
0.386861
0
LINE
8
BLACK
6
CONTINUOUS
10
0.233138
20
0.386861
11
0.232479
21
0.386002
0
LINE
8
BLACK
6
CONTINUOUS
10
0.232479
20
0.386002
11
0.230798
21
0.384931
0
LINE
8
BLACK
6
CONTINUOUS
10
0.230798
20
0.384931
11
0.230168
21
0.384862
0
LINE
8
BLACK
6
CONTINUOUS
10
0.230168
20
0.384862
11
0.229253
21
0.384862
0
LINE
8
BLACK
6
CONTINUOUS
10
0.229253
20
0.384862
11
0.227381
21
0.385544
0
LINE
8
BLACK
6
CONTINUOUS
10
0.227381
20
0.385544
11
0.227193
21
0.385716
0
LINE
8
BLACK
6
CONTINUOUS
10
0.227193
20
0.385716
11
0.226523
21
0.386386
0
LINE
8
BLACK
6
CONTINUOUS
10
0.226523
20
0.386386
11
0.222386
21
0.388408
0
LINE
8
BLACK
6
CONTINUOUS
10
0.222386
20
0.388408
11
0.219703
21
0.388799
0
LINE
8
BLACK
6
CONTINUOUS
10
0.219703
20
0.388799
11
0.219703
21
0.388799
0
LINE
8
BLACK
6
CONTINUOUS
10
0.219703
20
0.388799
11
0.161966
21
0.388799
0
LINE
8
BLACK
6
CONTINUOUS
10
0.161966
20
0.388799
11
0.161966
21
0.388799
0
LINE
8
BLACK
6
CONTINUOUS
10
0.161966
20
0.388799
11
0.159284
21
0.388408
0
LINE
8
BLACK
6
CONTINUOUS
10
0.159284
20
0.388408
11
0.159284
21
0.388408
0
LINE
8
BLACK
6
CONTINUOUS
10
0.159284
20
0.388408
11
0.155146
21
0.386386
0
LINE
8
BLACK
6
CONTINUOUS
10
0.155146
20
0.386386
11
0.15504
21
0.38631
0
LINE
8
BLACK
6
CONTINUOUS
10
0.15504
20
0.38631
11
0.153347
21
0.385768
0
LINE
8
BLACK
6
CONTINUOUS
10
0.153347
20
0.385768
11
0.129137
21
0.385768
0
LINE
8
BLACK
6
CONTINUOUS
10
0.129137
20
0.385768
11
0.127265
21
0.386449
0
LINE
8
BLACK
6
CONTINUOUS
10
0.127265
20
0.386449
11
0.126998
21
0.386728
0
LINE
8
BLACK
6
CONTINUOUS
10
0.126998
20
0.386728
11
0.126996
21
0.386727
0
LINE
8
BLACK
6
CONTINUOUS
10
0.126996
20
0.386727
11
0.126861
21
0.386862
0
LINE
8
BLACK
6
CONTINUOUS
10
0.126861
20
0.386862
11
0.121923
21
0.390651
0
LINE
8
BLACK
6
CONTINUOUS
10
0.121923
20
0.390651
11
0.116172
21
0.393033
0
LINE
8
BLACK
6
CONTINUOUS
10
0.116172
20
0.393033
11
0.11
21
0.393846
0
LINE
8
BLACK
6
CONTINUOUS
10
0.11
20
0.393846
11
0.103828
21
0.393033
0
LINE
8
BLACK
6
CONTINUOUS
10
0.103828
20
0.393033
11
0.103828
21
0.393033
0
LINE
8
BLACK
6
CONTINUOUS
10
0.103828
20
0.393033
11
0.0980771
21
0.390651
0
LINE
8
BLACK
6
CONTINUOUS
10
0.0980771
20
0.390651
11
0.0931386
21
0.386862
0
LINE
8
BLACK
6
CONTINUOUS
10
0.0931386
20
0.386862
11
0.0931384
21
0.386861
0
LINE
8
BLACK
6
CONTINUOUS
10
0.0931384
20
0.386861
11
0.089349
21
0.381923
0
LINE
8
BLACK
6
CONTINUOUS
10
0.089349
20
0.381923
11
0.0869667
21
0.376172
0
LINE
8
BLACK
6
CONTINUOUS
10
0.0869667
20
0.376172
11
0.0869667
21
0.376172
0
LINE
8
BLACK
6
CONTINUOUS
10
0.0869667
20
0.376172
11
0.0861543
21
0.37
0
LINE
8
BLACK
6
CONTINUOUS
10
0.0861543
20
0.37
11
0.0869667
21
0.363828
0
LINE
8
BLACK
6
CONTINUOUS
10
0.0869667
20
0.363828
11
0.0869667
21
0.363828
0
LINE
8
BLACK
6
CONTINUOUS
10
0.0869667
20
0.363828
11
0.089349
21
0.358077
0
LINE
8
BLACK
6
CONTINUOUS
10
0.089349
20
0.358077
11
0.0931384
21
0.353139
0
LINE
8
BLACK
6
CONTINUOUS
10
0.0931384
20
0.353139
11
0.0931386
21
0.353138
0
LINE
8
BLACK
6
CONTINUOUS
10
0.0931386
20
0.353138
11
0.0940052
21
0.352473
0
LINE
8
BLACK
6
CONTINUOUS
10
0.0940052
20
0.352473
11
0.0980771
21
0.349349
0
LINE
8
BLACK
6
CONTINUOUS
10
0.0980771
20
0.349349
11
0.103828
21
0.346967
0
LINE
8
BLACK
6
CONTINUOUS
10
0.103828
20
0.346967
11
0.11
21
0.346154
0
LINE
8
BLACK
6
CONTINUOUS
10
0.11
20
0.346154
11
0.116172
21
0.346967
0
LINE
8
BLACK
6
CONTINUOUS
10
0.116172
20
0.346967
11
0.121923
21
0.349349
0
LINE
8
BLACK
6
CONTINUOUS
10
0.121923
20
0.349349
11
0.126861
21
0.353139
0
LINE
8
BLACK
6
CONTINUOUS
10
0.126861
20
0.353139
11
0.126862
21
0.353139
0
LINE
8
BLACK
6
CONTINUOUS
10
0.126862
20
0.353139
11
0.126996
21
0.353273
0
LINE
8
BLACK
6
CONTINUOUS
10
0.126996
20
0.353273
11
0.127041
21
0.353229
0
LINE
8
BLACK
6
CONTINUOUS
10
0.127041
20
0.353229
11
0.128507
21
0.354163
0
LINE
8
BLACK
6
CONTINUOUS
10
0.128507
20
0.354163
11
0.129137
21
0.354232
0
LINE
8
BLACK
6
CONTINUOUS
10
0.129137
20
0.354232
11
0.151511
21
0.354232
0
LINE
8
BLACK
6
CONTINUOUS
10
0.151511
20
0.354232
11
0.153383
21
0.353551
0
LINE
8
BLACK
6
CONTINUOUS
10
0.153383
20
0.353551
11
0.153571
21
0.353379
0
LINE
8
BLACK
6
CONTINUOUS
10
0.153571
20
0.353379
11
0.155146
21
0.351803
0
LINE
8
BLACK
6
CONTINUOUS
10
0.155146
20
0.351803
11
0.159284
21
0.349781
0
LINE
8
BLACK
6
CONTINUOUS
10
0.159284
20
0.349781
11
0.161966
21
0.34939
0
LINE
8
BLACK
6
CONTINUOUS
10
0.161966
20
0.34939
11
0.161966
21
0.34939
0
LINE
8
BLACK
6
CONTINUOUS
10
0.161966
20
0.34939
11
0.219703
21
0.34939
0
LINE
8
BLACK
6
CONTINUOUS
10
0.219703
20
0.34939
11
0.219703
21
0.34939
0
LINE
8
BLACK
6
CONTINUOUS
10
0.219703
20
0.34939
11
0.222386
21
0.349781
0
LINE
8
BLACK
6
CONTINUOUS
10
0.222386
20
0.349781
11
0.226523
21
0.351803
0
LINE
8
BLACK
6
CONTINUOUS
10
0.226523
20
0.351803
11
0.227193
21
0.352473
0
LINE
8
BLACK
6
CONTINUOUS
10
0.227193
20
0.352473
11
0.228999
21
0.353316
0
LINE
8
BLACK
6
CONTINUOUS
10
0.228999
20
0.353316
11
0.229253
21
0.353327
0
LINE
8
BLACK
6
CONTINUOUS
10
0.229253
20
0.353327
11
0.231904
21
0.353327
0
LINE
8
BLACK
6
CONTINUOUS
10
0.231904
20
0.353327
11
0.233678
21
0.352725
0
LINE
8
BLACK
6
CONTINUOUS
10
0.233678
20
0.352725
11
0.234879
21
0.351803
0
LINE
8
BLACK
6
CONTINUOUS
10
0.234879
20
0.351803
11
0.238077
21
0.349349
0
LINE
8
BLACK
6
CONTINUOUS
10
0.238077
20
0.349349
11
0.243828
21
0.346967
0
LINE
8
BLACK
6
CONTINUOUS
10
0.243828
20
0.346967
11
0.25
21
0.346154
0
LINE
8
BLACK
6
CONTINUOUS
10
0.25
20
0.346154
11
0.256172
21
0.346967
0
LINE
8
BLACK
6
CONTINUOUS
10
0.256172
20
0.346967
11
0.261923
21
0.349349
0
LINE
8
BLACK
6
CONTINUOUS
10
0.261923
20
0.349349
11
0.266861
21
0.353139
0
LINE
8
BLACK
6
CONTINUOUS
10
0.266861
20
0.353139
11
0.270651
21
0.358077
0
LINE
8
BLACK
6
CONTINUOUS
10
0.270651
20
0.358077
11
0.273033
21
0.363828
0
LINE
8
BLACK
6
CONTINUOUS
10
0.273033
20
0.363828
11
0.273846
21
0.37
0
LINE
8
BLACK
6
CONTINUOUS
10
0.273846
20
0.37
11
0.273033
21
0.376172
0
LINE
8
BLACK
6
CONTINUOUS
10
0.273033
20
0.376172
11
0.270651
21
0.381923
0
LINE
8
BLACK
6
CONTINUOUS
10
0.270651
20
0.381923
11
0.268396
21
0.384862
0
LINE
8
BLACK
6
CONTINUOUS
10
0.268396
20
0.384862
11
0.266862
21
0.386861
0
LINE
8
BLACK
6
CONTINUOUS
10
0.266862
20
0.386861
11
0.266861
21
0.386862
0
LINE
8
BLACK
6
CONTINUOUS
10
0.266861
20
0.386862
11
0.261923
21
0.390651
0
LINE
8
BLACK
6
CONTINUOUS
10
0.261923
20
0.390651
11
0.256172
21
0.393033
0
LINE
8
BLACK
6
CONTINUOUS
10
0.256172
20
0.393033
11
0.25
21
0.393846
0
LINE
8
BLACK
6
CONTINUOUS
10
0.25
20
0.393846
11
0.243828
21
0.393033
0
LINE
8
BLACK
6
CONTINUOUS
10
0.117251
20
0.42832
11
0.115117
21
0.425127
0
LINE
8
BLACK
6
CONTINUOUS
10
0.115117
20
0.425127
11
0.111924
21
0.422993
0
LINE
8
BLACK
6
CONTINUOUS
10
0.111924
20
0.422993
11
0.108157
21
0.422244
0
LINE
8
BLACK
6
CONTINUOUS
10
0.108157
20
0.422244
11
0.0748504
21
0.422244
0
LINE
8
BLACK
6
CONTINUOUS
10
0.0748504
20
0.422244
11
0.0748504
21
0.402244
0
LINE
8
BLACK
6
CONTINUOUS
10
0.0748504
20
0.402244
11
0.110146
21
0.402244
0
LINE
8
BLACK
6
CONTINUOUS
10
0.110146
20
0.402244
11
0.110146
21
0.402244
0
LINE
8
BLACK
6
CONTINUOUS
10
0.110146
20
0.402244
11
0.114233
21
0.402662
0
LINE
8
BLACK
6
CONTINUOUS
10
0.114233
20
0.402662
11
0.120855
21
0.404856
0
LINE
8
BLACK
6
CONTINUOUS
10
0.120855
20
0.404856
11
0.126793
21
0.408518
0
LINE
8
BLACK
6
CONTINUOUS
10
0.126793
20
0.408518
11
0.126793
21
0.408518
0
LINE
8
BLACK
6
CONTINUOUS
10
0.126793
20
0.408518
11
0.131726
21
0.413451
0
LINE
8
BLACK
6
CONTINUOUS
10
0.131726
20
0.413451
11
0.131726
21
0.413451
0
LINE
8
BLACK
6
CONTINUOUS
10
0.131726
20
0.413451
11
0.135388
21
0.419389
0
LINE
8
BLACK
6
CONTINUOUS
10
0.135388
20
0.419389
11
0.137582
21
0.426011
0
LINE
8
BLACK
6
CONTINUOUS
10
0.137582
20
0.426011
11
0.138
21
0.430098
0
LINE
8
BLACK
6
CONTINUOUS
10
0.138
20
0.430098
11
0.138
21
0.430098
0
LINE
8
BLACK
6
CONTINUOUS
10
0.138
20
0.430098
11
0.138
21
0.431929
0
LINE
8
BLACK
6
CONTINUOUS
10
0.138
20
0.431929
11
0.117969
21
0.431929
0
LINE
8
BLACK
6
CONTINUOUS
10
0.117969
20
0.431929
11
0.117251
21
0.42832
0
LINE
8
BLACK
6
CONTINUOUS
10
0.0748504
20
0.461614
11
0.108157
21
0.461614
0
LINE
8
BLACK
6
CONTINUOUS
10
0.108157
20
0.461614
11
0.111924
21
0.460865
0
LINE
8
BLACK
6
CONTINUOUS
10
0.111924
20
0.460865
11
0.115117
21
0.458731
0
LINE
8
BLACK
6
CONTINUOUS
10
0.115117
20
0.458731
11
0.117251
21
0.455538
0
LINE
8
BLACK
6
CONTINUOUS
10
0.117251
20
0.455538
11
0.117969
21
0.451929
0
LINE
8
BLACK
6
CONTINUOUS
10
0.117969
20
0.451929
11
0.138
21
0.451929
0
LINE
8
BLACK
6
CONTINUOUS
10
0.138
20
0.451929
11
0.138
21
0.45376
0
LINE
8
BLACK
6
CONTINUOUS
10
0.138
20
0.45376
11
0.138
21
0.45376
0
LINE
8
BLACK
6
CONTINUOUS
10
0.138
20
0.45376
11
0.137582
21
0.457847
0
LINE
8
BLACK
6
CONTINUOUS
10
0.137582
20
0.457847
11
0.135388
21
0.464469
0
LINE
8
BLACK
6
CONTINUOUS
10
0.135388
20
0.464469
11
0.131726
21
0.470407
0
LINE
8
BLACK
6
CONTINUOUS
10
0.131726
20
0.470407
11
0.131726
21
0.470407
0
LINE
8
BLACK
6
CONTINUOUS
10
0.131726
20
0.470407
11
0.126793
21
0.47534
0
LINE
8
BLACK
6
CONTINUOUS
10
0.126793
20
0.47534
11
0.126793
21
0.47534
0
LINE
8
BLACK
6
CONTINUOUS
10
0.126793
20
0.47534
11
0.120855
21
0.479002
0
LINE
8
BLACK
6
CONTINUOUS
10
0.120855
20
0.479002
11
0.114233
21
0.481197
0
LINE
8
BLACK
6
CONTINUOUS
10
0.114233
20
0.481197
11
0.110146
21
0.481614
0
LINE
8
BLACK
6
CONTINUOUS
10
0.110146
20
0.481614
11
0.0748504
21
0.481614
0
LINE
8
BLACK
6
CONTINUOUS
10
0.0748504
20
0.481614
11
0.0748504
21
0.461614
0
LINE
8
BLACK
6
CONTINUOUS
10
1.15056
20
0.259977
11
1.15495
21
0.25774
0
LINE
8
BLACK
6
CONTINUOUS
10
1.15495
20
0.25774
11
1.15843
21
0.254256
0
LINE
8
BLACK
6
CONTINUOUS
10
1.15843
20
0.254256
11
1.16067
21
0.249866
0
LINE
8
BLACK
6
CONTINUOUS
10
1.16067
20
0.249866
11
1.16144
21
0.245
0
LINE
8
BLACK
6
CONTINUOUS
10
1.16144
20
0.245
11
1.16067
21
0.240134
0
LINE
8
BLACK
6
CONTINUOUS
10
1.16067
20
0.240134
11
1.15843
21
0.235744
0
LINE
8
BLACK
6
CONTINUOUS
10
1.15843
20
0.235744
11
1.15495
21
0.23226
0
LINE
8
BLACK
6
CONTINUOUS
10
1.15495
20
0.23226
11
1.15056
21
0.230023
0
LINE
8
BLACK
6
CONTINUOUS
10
1.15056
20
0.230023
11
1.14569
21
0.229252
0
LINE
8
BLACK
6
CONTINUOUS
10
1.14569
20
0.229252
11
1.14171
21
0.229883
0
LINE
8
BLACK
6
CONTINUOUS
10
1.14171
20
0.229883
11
1.13172
21
0.219895
0
LINE
8
BLACK
6
CONTINUOUS
10
1.13172
20
0.219895
11
1.1306
21
0.219192
0
LINE
8
BLACK
6
CONTINUOUS
10
1.1306
20
0.219192
11
1.12957
21
0.218368
0
LINE
8
BLACK
6
CONTINUOUS
10
1.12957
20
0.218368
11
1.12913
21
0.218269
0
LINE
8
BLACK
6
CONTINUOUS
10
1.12913
20
0.218269
11
1.12875
21
0.21803
0
LINE
8
BLACK
6
CONTINUOUS
10
1.12875
20
0.21803
11
1.12744
21
0.217883
0
LINE
8
BLACK
6
CONTINUOUS
10
1.12744
20
0.217883
11
1.12615
21
0.217589
0
LINE
8
BLACK
6
CONTINUOUS
10
1.12615
20
0.217589
11
0.722982
21
0.217589
0
LINE
8
BLACK
6
CONTINUOUS
10
0.722982
20
0.217589
11
0.722278
21
0.216206
0
LINE
8
BLACK
6
CONTINUOUS
10
0.722278
20
0.216206
11
0.718794
21
0.212722
0
LINE
8
BLACK
6
CONTINUOUS
10
0.718794
20
0.212722
11
0.714404
21
0.210485
0
LINE
8
BLACK
6
CONTINUOUS
10
0.714404
20
0.210485
11
0.709537
21
0.209715
0
LINE
8
BLACK
6
CONTINUOUS
10
0.709537
20
0.209715
11
0.704671
21
0.210485
0
LINE
8
BLACK
6
CONTINUOUS
10
0.704671
20
0.210485
11
0.700281
21
0.212722
0
LINE
8
BLACK
6
CONTINUOUS
10
0.700281
20
0.212722
11
0.696797
21
0.216206
0
LINE
8
BLACK
6
CONTINUOUS
10
0.696797
20
0.216206
11
0.69456
21
0.220596
0
LINE
8
BLACK
6
CONTINUOUS
10
0.69456
20
0.220596
11
0.693789
21
0.225463
0
LINE
8
BLACK
6
CONTINUOUS
10
0.693789
20
0.225463
11
0.69456
21
0.230329
0
LINE
8
BLACK
6
CONTINUOUS
10
0.69456
20
0.230329
11
0.696797
21
0.234719
0
LINE
8
BLACK
6
CONTINUOUS
10
0.696797
20
0.234719
11
0.700281
21
0.238203
0
LINE
8
BLACK
6
CONTINUOUS
10
0.700281
20
0.238203
11
0.704671
21
0.24044
0
LINE
8
BLACK
6
CONTINUOUS
10
0.704671
20
0.24044
11
0.709537
21
0.241211
0
LINE
8
BLACK
6
CONTINUOUS
10
0.709537
20
0.241211
11
0.714404
21
0.24044
0
LINE
8
BLACK
6
CONTINUOUS
10
0.714404
20
0.24044
11
0.718794
21
0.238203
0
LINE
8
BLACK
6
CONTINUOUS
10
0.718794
20
0.238203
11
0.722278
21
0.234719
0
LINE
8
BLACK
6
CONTINUOUS
10
0.722278
20
0.234719
11
0.722982
21
0.233337
0
LINE
8
BLACK
6
CONTINUOUS
10
0.722982
20
0.233337
11
1.12289
21
0.233337
0
LINE
8
BLACK
6
CONTINUOUS
10
1.12289
20
0.233337
11
1.13057
21
0.241018
0
LINE
8
BLACK
6
CONTINUOUS
10
1.13057
20
0.241018
11
1.12994
21
0.245
0
LINE
8
BLACK
6
CONTINUOUS
10
1.12994
20
0.245
11
1.13071
21
0.249866
0
LINE
8
BLACK
6
CONTINUOUS
10
1.13071
20
0.249866
11
1.13295
21
0.254256
0
LINE
8
BLACK
6
CONTINUOUS
10
1.13295
20
0.254256
11
1.13643
21
0.25774
0
LINE
8
BLACK
6
CONTINUOUS
10
1.13643
20
0.25774
11
1.14082
21
0.259977
0
LINE
8
BLACK
6
CONTINUOUS
10
1.14082
20
0.259977
11
1.14569
21
0.260748
0
LINE
8
BLACK
6
CONTINUOUS
10
1.14569
20
0.260748
11
1.15056
21
0.259977
0
LINE
8
BLACK
6
CONTINUOUS
10
0.220654
20
0.331243
11
0.22257
21
0.329963
0
LINE
8
BLACK
6
CONTINUOUS
10
0.22257
20
0.329963
11
0.22385
21
0.328047
0
LINE
8
BLACK
6
CONTINUOUS
10
0.22385
20
0.328047
11
0.224299
21
0.325787
0
LINE
8
BLACK
6
CONTINUOUS
10
0.224299
20
0.325787
11
0.224299
21
0.321889
0
LINE
8
BLACK
6
CONTINUOUS
10
0.224299
20
0.321889
11
0.255568
21
0.29062
0
LINE
8
BLACK
6
CONTINUOUS
10
0.255568
20
0.29062
11
0.256271
21
0.289502
0
LINE
8
BLACK
6
CONTINUOUS
10
0.256271
20
0.289502
11
0.257094
21
0.288469
0
LINE
8
BLACK
6
CONTINUOUS
10
0.257094
20
0.288469
11
0.257194
21
0.288032
0
LINE
8
BLACK
6
CONTINUOUS
10
0.257194
20
0.288032
11
0.257432
21
0.287653
0
LINE
8
BLACK
6
CONTINUOUS
10
0.257432
20
0.287653
11
0.25758
21
0.28634
0
LINE
8
BLACK
6
CONTINUOUS
10
0.25758
20
0.28634
11
0.257874
21
0.285053
0
LINE
8
BLACK
6
CONTINUOUS
10
0.257874
20
0.285053
11
0.257874
21
0.283445
0
LINE
8
BLACK
6
CONTINUOUS
10
0.257874
20
0.283445
11
0.259256
21
0.28274
0
LINE
8
BLACK
6
CONTINUOUS
10
0.259256
20
0.28274
11
0.26274
21
0.279256
0
LINE
8
BLACK
6
CONTINUOUS
10
0.26274
20
0.279256
11
0.264448
21
0.275906
0
LINE
8
BLACK
6
CONTINUOUS
10
0.264448
20
0.275906
11
0.617554
21
0.275906
0
LINE
8
BLACK
6
CONTINUOUS
10
0.617554
20
0.275906
11
0.640617
21
0.298968
0
LINE
8
BLACK
6
CONTINUOUS
10
0.640617
20
0.298968
11
0.640023
21
0.300134
0
LINE
8
BLACK
6
CONTINUOUS
10
0.640023
20
0.300134
11
0.639252
21
0.305
0
LINE
8
BLACK
6
CONTINUOUS
10
0.639252
20
0.305
11
0.640023
21
0.309866
0
LINE
8
BLACK
6
CONTINUOUS
10
0.640023
20
0.309866
11
0.64226
21
0.314256
0
LINE
8
BLACK
6
CONTINUOUS
10
0.64226
20
0.314256
11
0.645744
21
0.31774
0
LINE
8
BLACK
6
CONTINUOUS
10
0.645744
20
0.31774
11
0.650134
21
0.319977
0
LINE
8
BLACK
6
CONTINUOUS
10
0.650134
20
0.319977
11
0.655
21
0.320748
0
LINE
8
BLACK
6
CONTINUOUS
10
0.655
20
0.320748
11
0.659867
21
0.319977
0
LINE
8
BLACK
6
CONTINUOUS
10
0.659867
20
0.319977
11
0.664257
21
0.31774
0
LINE
8
BLACK
6
CONTINUOUS
10
0.664257
20
0.31774
11
0.667741
21
0.314256
0
LINE
8
BLACK
6
CONTINUOUS
10
0.667741
20
0.314256
11
0.669448
21
0.310906
0
LINE
8
BLACK
6
CONTINUOUS
10
0.669448
20
0.310906
11
0.675026
21
0.310906
0
LINE
8
BLACK
6
CONTINUOUS
10
0.675026
20
0.310906
11
0.675777
21
0.310704
0
LINE
8
BLACK
6
CONTINUOUS
10
0.675777
20
0.310704
11
0.676555
21
0.310704
0
LINE
8
BLACK
6
CONTINUOUS
10
0.676555
20
0.310704
11
0.677228
21
0.310316
0
LINE
8
BLACK
6
CONTINUOUS
10
0.677228
20
0.310316
11
0.677979
21
0.310114
0
LINE
8
BLACK
6
CONTINUOUS
10
0.677979
20
0.310114
11
0.678529
21
0.309565
0
LINE
8
BLACK
6
CONTINUOUS
10
0.678529
20
0.309565
11
0.679202
21
0.309176
0
LINE
8
BLACK
6
CONTINUOUS
10
0.679202
20
0.309176
11
0.70383
21
0.284548
0
LINE
8
BLACK
6
CONTINUOUS
10
0.70383
20
0.284548
11
0.704995
21
0.285142
0
LINE
8
BLACK
6
CONTINUOUS
10
0.704995
20
0.285142
11
0.709862
21
0.285912
0
LINE
8
BLACK
6
CONTINUOUS
10
0.709862
20
0.285912
11
0.714728
21
0.285142
0
LINE
8
BLACK
6
CONTINUOUS
10
0.714728
20
0.285142
11
0.719118
21
0.282905
0
LINE
8
BLACK
6
CONTINUOUS
10
0.719118
20
0.282905
11
0.722602
21
0.279421
0
LINE
8
BLACK
6
CONTINUOUS
10
0.722602
20
0.279421
11
0.724839
21
0.275031
0
LINE
8
BLACK
6
CONTINUOUS
10
0.724839
20
0.275031
11
0.72561
21
0.270164
0
LINE
8
BLACK
6
CONTINUOUS
10
0.72561
20
0.270164
11
0.724839
21
0.265298
0
LINE
8
BLACK
6
CONTINUOUS
10
0.724839
20
0.265298
11
0.722602
21
0.260908
0
LINE
8
BLACK
6
CONTINUOUS
10
0.722602
20
0.260908
11
0.719118
21
0.257424
0
LINE
8
BLACK
6
CONTINUOUS
10
0.719118
20
0.257424
11
0.714728
21
0.255187
0
LINE
8
BLACK
6
CONTINUOUS
10
0.714728
20
0.255187
11
0.709862
21
0.254416
0
LINE
8
BLACK
6
CONTINUOUS
10
0.709862
20
0.254416
11
0.704995
21
0.255187
0
LINE
8
BLACK
6
CONTINUOUS
10
0.704995
20
0.255187
11
0.700605
21
0.257424
0
LINE
8
BLACK
6
CONTINUOUS
10
0.700605
20
0.257424
11
0.697121
21
0.260908
0
LINE
8
BLACK
6
CONTINUOUS
10
0.697121
20
0.260908
11
0.694884
21
0.265298
0
LINE
8
BLACK
6
CONTINUOUS
10
0.694884
20
0.265298
11
0.694114
21
0.270164
0
LINE
8
BLACK
6
CONTINUOUS
10
0.694114
20
0.270164
11
0.694884
21
0.275031
0
LINE
8
BLACK
6
CONTINUOUS
10
0.694884
20
0.275031
11
0.695478
21
0.276196
0
LINE
8
BLACK
6
CONTINUOUS
10
0.695478
20
0.276196
11
0.67258
21
0.299094
0
LINE
8
BLACK
6
CONTINUOUS
10
0.67258
20
0.299094
11
0.669448
21
0.299094
0
LINE
8
BLACK
6
CONTINUOUS
10
0.669448
20
0.299094
11
0.667741
21
0.295744
0
LINE
8
BLACK
6
CONTINUOUS
10
0.667741
20
0.295744
11
0.664257
21
0.29226
0
LINE
8
BLACK
6
CONTINUOUS
10
0.664257
20
0.29226
11
0.659867
21
0.290023
0
LINE
8
BLACK
6
CONTINUOUS
10
0.659867
20
0.290023
11
0.655
21
0.289252
0
LINE
8
BLACK
6
CONTINUOUS
10
0.655
20
0.289252
11
0.650134
21
0.290023
0
LINE
8
BLACK
6
CONTINUOUS
10
0.650134
20
0.290023
11
0.648969
21
0.290617
0
LINE
8
BLACK
6
CONTINUOUS
10
0.648969
20
0.290617
11
0.624176
21
0.265824
0
LINE
8
BLACK
6
CONTINUOUS
10
0.624176
20
0.265824
11
0.623503
21
0.265435
0
LINE
8
BLACK
6
CONTINUOUS
10
0.623503
20
0.265435
11
0.622953
21
0.264886
0
LINE
8
BLACK
6
CONTINUOUS
10
0.622953
20
0.264886
11
0.622202
21
0.264684
0
LINE
8
BLACK
6
CONTINUOUS
10
0.622202
20
0.264684
11
0.621529
21
0.264296
0
LINE
8
BLACK
6
CONTINUOUS
10
0.621529
20
0.264296
11
0.620751
21
0.264296
0
LINE
8
BLACK
6
CONTINUOUS
10
0.620751
20
0.264296
11
0.62
21
0.264094
0
LINE
8
BLACK
6
CONTINUOUS
10
0.62
20
0.264094
11
0.264448
21
0.264094
0
LINE
8
BLACK
6
CONTINUOUS
10
0.264448
20
0.264094
11
0.26274
21
0.260744
0
LINE
8
BLACK
6
CONTINUOUS
10
0.26274
20
0.260744
11
0.259256
21
0.25726
0
LINE
8
BLACK
6
CONTINUOUS
10
0.259256
20
0.25726
11
0.254866
21
0.255023
0
LINE
8
BLACK
6
CONTINUOUS
10
0.254866
20
0.255023
11
0.25
21
0.254252
0
LINE
8
BLACK
6
CONTINUOUS
10
0.25
20
0.254252
11
0.245134
21
0.255023
0
LINE
8
BLACK
6
CONTINUOUS
10
0.245134
20
0.255023
11
0.240744
21
0.25726
0
LINE
8
BLACK
6
CONTINUOUS
10
0.240744
20
0.25726
11
0.23726
21
0.260744
0
LINE
8
BLACK
6
CONTINUOUS
10
0.23726
20
0.260744
11
0.235023
21
0.265134
0
LINE
8
BLACK
6
CONTINUOUS
10
0.235023
20
0.265134
11
0.234252
21
0.27
0
LINE
8
BLACK
6
CONTINUOUS
10
0.234252
20
0.27
11
0.235023
21
0.274866
0
LINE
8
BLACK
6
CONTINUOUS
10
0.235023
20
0.274866
11
0.23726
21
0.279256
0
LINE
8
BLACK
6
CONTINUOUS
10
0.23726
20
0.279256
11
0.240744
21
0.28274
0
LINE
8
BLACK
6
CONTINUOUS
10
0.240744
20
0.28274
11
0.24103
21
0.282887
0
LINE
8
BLACK
6
CONTINUOUS
10
0.24103
20
0.282887
11
0.215846
21
0.308071
0
LINE
8
BLACK
6
CONTINUOUS
10
0.215846
20
0.308071
11
0.163276
21
0.308071
0
LINE
8
BLACK
6
CONTINUOUS
10
0.163276
20
0.308071
11
0.161016
21
0.30852
0
LINE
8
BLACK
6
CONTINUOUS
10
0.161016
20
0.30852
11
0.1591
21
0.309801
0
LINE
8
BLACK
6
CONTINUOUS
10
0.1591
20
0.309801
11
0.15782
21
0.311716
0
LINE
8
BLACK
6
CONTINUOUS
10
0.15782
20
0.311716
11
0.15737
21
0.313976
0
LINE
8
BLACK
6
CONTINUOUS
10
0.15737
20
0.313976
11
0.15737
21
0.325787
0
LINE
8
BLACK
6
CONTINUOUS
10
0.15737
20
0.325787
11
0.15782
21
0.328047
0
LINE
8
BLACK
6
CONTINUOUS
10
0.15782
20
0.328047
11
0.1591
21
0.329963
0
LINE
8
BLACK
6
CONTINUOUS
10
0.1591
20
0.329963
11
0.161016
21
0.331243
0
LINE
8
BLACK
6
CONTINUOUS
10
0.161016
20
0.331243
11
0.163276
21
0.331693
0
LINE
8
BLACK
6
CONTINUOUS
10
0.163276
20
0.331693
11
0.218394
21
0.331693
0
LINE
8
BLACK
6
CONTINUOUS
10
0.218394
20
0.331693
11
0.220654
21
0.331243
0
LINE
8
BLACK
6
CONTINUOUS
10
0.117071
20
0.285647
11
0.121461
21
0.28341
0
LINE
8
BLACK
6
CONTINUOUS
10
0.121461
20
0.28341
11
0.124945
21
0.279926
0
LINE
8
BLACK
6
CONTINUOUS
10
0.124945
20
0.279926
11
0.12565
21
0.278543
0
LINE
8
BLACK
6
CONTINUOUS
10
0.12565
20
0.278543
11
0.157762
21
0.278543
0
LINE
8
BLACK
6
CONTINUOUS
10
0.157762
20
0.278543
11
0.15782
21
0.278835
0
LINE
8
BLACK
6
CONTINUOUS
10
0.15782
20
0.278835
11
0.1591
21
0.280751
0
LINE
8
BLACK
6
CONTINUOUS
10
0.1591
20
0.280751
11
0.161016
21
0.282031
0
LINE
8
BLACK
6
CONTINUOUS
10
0.161016
20
0.282031
11
0.163276
21
0.28248
0
LINE
8
BLACK
6
CONTINUOUS
10
0.163276
20
0.28248
11
0.218394
21
0.28248
0
LINE
8
BLACK
6
CONTINUOUS
10
0.218394
20
0.28248
11
0.220654
21
0.282031
0
LINE
8
BLACK
6
CONTINUOUS
10
0.220654
20
0.282031
11
0.22257
21
0.280751
0
LINE
8
BLACK
6
CONTINUOUS
10
0.22257
20
0.280751
11
0.22385
21
0.278835
0
LINE
8
BLACK
6
CONTINUOUS
10
0.22385
20
0.278835
11
0.224299
21
0.276575
0
LINE
8
BLACK
6
CONTINUOUS
10
0.224299
20
0.276575
11
0.224299
21
0.264764
0
LINE
8
BLACK
6
CONTINUOUS
10
0.224299
20
0.264764
11
0.22385
21
0.262504
0
LINE
8
BLACK
6
CONTINUOUS
10
0.22385
20
0.262504
11
0.22257
21
0.260588
0
LINE
8
BLACK
6
CONTINUOUS
10
0.22257
20
0.260588
11
0.220654
21
0.259308
0
LINE
8
BLACK
6
CONTINUOUS
10
0.220654
20
0.259308
11
0.218394
21
0.258858
0
LINE
8
BLACK
6
CONTINUOUS
10
0.218394
20
0.258858
11
0.163276
21
0.258858
0
LINE
8
BLACK
6
CONTINUOUS
10
0.163276
20
0.258858
11
0.161016
21
0.259308
0
LINE
8
BLACK
6
CONTINUOUS
10
0.161016
20
0.259308
11
0.1591
21
0.260588
0
LINE
8
BLACK
6
CONTINUOUS
10
0.1591
20
0.260588
11
0.15782
21
0.262504
0
LINE
8
BLACK
6
CONTINUOUS
10
0.15782
20
0.262504
11
0.157762
21
0.262795
0
LINE
8
BLACK
6
CONTINUOUS
10
0.157762
20
0.262795
11
0.12565
21
0.262795
0
LINE
8
BLACK
6
CONTINUOUS
10
0.12565
20
0.262795
11
0.124945
21
0.261413
0
LINE
8
BLACK
6
CONTINUOUS
10
0.124945
20
0.261413
11
0.121461
21
0.257929
0
LINE
8
BLACK
6
CONTINUOUS
10
0.121461
20
0.257929
11
0.117071
21
0.255692
0
LINE
8
BLACK
6
CONTINUOUS
10
0.117071
20
0.255692
11
0.112205
21
0.254921
0
LINE
8
BLACK
6
CONTINUOUS
10
0.112205
20
0.254921
11
0.107338
21
0.255692
0
LINE
8
BLACK
6
CONTINUOUS
10
0.107338
20
0.255692
11
0.102948
21
0.257929
0
LINE
8
BLACK
6
CONTINUOUS
10
0.102948
20
0.257929
11
0.0994643
21
0.261413
0
LINE
8
BLACK
6
CONTINUOUS
10
0.0994643
20
0.261413
11
0.0972274
21
0.265803
0
LINE
8
BLACK
6
CONTINUOUS
10
0.0972274
20
0.265803
11
0.0964567
21
0.270669
0
LINE
8
BLACK
6
CONTINUOUS
10
0.0964567
20
0.270669
11
0.0972274
21
0.275536
0
LINE
8
BLACK
6
CONTINUOUS
10
0.0972274
20
0.275536
11
0.0994643
21
0.279926
0
LINE
8
BLACK
6
CONTINUOUS
10
0.0994643
20
0.279926
11
0.102948
21
0.28341
0
LINE
8
BLACK
6
CONTINUOUS
10
0.102948
20
0.28341
11
0.107338
21
0.285647
0
LINE
8
BLACK
6
CONTINUOUS
10
0.107338
20
0.285647
11
0.112205
21
0.286417
0
LINE
8
BLACK
6
CONTINUOUS
10
0.112205
20
0.286417
11
0.117071
21
0.285647
0
LINE
8
BLACK
6
CONTINUOUS
10
0.579489
20
0.330354
11
0.583879
21
0.328117
0
LINE
8
BLACK
6
CONTINUOUS
10
0.583879
20
0.328117
11
0.587363
21
0.324633
0
LINE
8
BLACK
6
CONTINUOUS
10
0.587363
20
0.324633
11
0.5896
21
0.320243
0
LINE
8
BLACK
6
CONTINUOUS
10
0.5896
20
0.320243
11
0.59037
21
0.315377
0
LINE
8
BLACK
6
CONTINUOUS
10
0.59037
20
0.315377
11
0.5896
21
0.31051
0
LINE
8
BLACK
6
CONTINUOUS
10
0.5896
20
0.31051
11
0.587363
21
0.30612
0
LINE
8
BLACK
6
CONTINUOUS
10
0.587363
20
0.30612
11
0.583879
21
0.302636
0
LINE
8
BLACK
6
CONTINUOUS
10
0.583879
20
0.302636
11
0.579489
21
0.3004
0
LINE
8
BLACK
6
CONTINUOUS
10
0.579489
20
0.3004
11
0.574622
21
0.299629
0
LINE
8
BLACK
6
CONTINUOUS
10
0.574622
20
0.299629
11
0.569756
21
0.3004
0
LINE
8
BLACK
6
CONTINUOUS
10
0.569756
20
0.3004
11
0.565366
21
0.302636
0
LINE
8
BLACK
6
CONTINUOUS
10
0.565366
20
0.302636
11
0.561882
21
0.30612
0
LINE
8
BLACK
6
CONTINUOUS
10
0.561882
20
0.30612
11
0.56139
21
0.307087
0
LINE
8
BLACK
6
CONTINUOUS
10
0.56139
20
0.307087
11
0.281023
21
0.307087
0
LINE
8
BLACK
6
CONTINUOUS
10
0.281023
20
0.307087
11
0.279315
21
0.303736
0
LINE
8
BLACK
6
CONTINUOUS
10
0.279315
20
0.303736
11
0.275831
21
0.300252
0
LINE
8
BLACK
6
CONTINUOUS
10
0.275831
20
0.300252
11
0.271441
21
0.298015
0
LINE
8
BLACK
6
CONTINUOUS
10
0.271441
20
0.298015
11
0.266575
21
0.297244
0
LINE
8
BLACK
6
CONTINUOUS
10
0.266575
20
0.297244
11
0.261708
21
0.298015
0
LINE
8
BLACK
6
CONTINUOUS
10
0.261708
20
0.298015
11
0.257318
21
0.300252
0
LINE
8
BLACK
6
CONTINUOUS
10
0.257318
20
0.300252
11
0.253834
21
0.303736
0
LINE
8
BLACK
6
CONTINUOUS
10
0.253834
20
0.303736
11
0.251598
21
0.308126
0
LINE
8
BLACK
6
CONTINUOUS
10
0.251598
20
0.308126
11
0.250827
21
0.312992
0
LINE
8
BLACK
6
CONTINUOUS
10
0.250827
20
0.312992
11
0.251598
21
0.317859
0
LINE
8
BLACK
6
CONTINUOUS
10
0.251598
20
0.317859
11
0.253834
21
0.322249
0
LINE
8
BLACK
6
CONTINUOUS
10
0.253834
20
0.322249
11
0.257318
21
0.325733
0
LINE
8
BLACK
6
CONTINUOUS
10
0.257318
20
0.325733
11
0.261708
21
0.327969
0
LINE
8
BLACK
6
CONTINUOUS
10
0.261708
20
0.327969
11
0.266575
21
0.32874
0
LINE
8
BLACK
6
CONTINUOUS
10
0.266575
20
0.32874
11
0.271441
21
0.327969
0
LINE
8
BLACK
6
CONTINUOUS
10
0.271441
20
0.327969
11
0.275831
21
0.325733
0
LINE
8
BLACK
6
CONTINUOUS
10
0.275831
20
0.325733
11
0.279315
21
0.322249
0
LINE
8
BLACK
6
CONTINUOUS
10
0.279315
20
0.322249
11
0.281023
21
0.318898
0
LINE
8
BLACK
6
CONTINUOUS
10
0.281023
20
0.318898
11
0.559432
21
0.318898
0
LINE
8
BLACK
6
CONTINUOUS
10
0.559432
20
0.318898
11
0.559645
21
0.320243
0
LINE
8
BLACK
6
CONTINUOUS
10
0.559645
20
0.320243
11
0.561882
21
0.324633
0
LINE
8
BLACK
6
CONTINUOUS
10
0.561882
20
0.324633
11
0.565366
21
0.328117
0
LINE
8
BLACK
6
CONTINUOUS
10
0.565366
20
0.328117
11
0.569756
21
0.330354
0
LINE
8
BLACK
6
CONTINUOUS
10
0.569756
20
0.330354
11
0.574622
21
0.331125
0
LINE
8
BLACK
6
CONTINUOUS
10
0.574622
20
0.331125
11
0.579489
21
0.330354
0
CIRCLE
8
BLACK
10
0.492126
20
0.590551
40
0.00688976
0
CIRCLE
8
BLACK
10
0.492126
20
0
40
0.00688976
0
CIRCLE
8
BLACK
10
0.0984252
20
0.590551
40
0.00688976
0
CIRCLE
8
BLACK
10
0.885827
20
0
40
0.00688976
0
CIRCLE
8
BLACK
10
0.885827
20
0.590551
40
0.00688976
0
CIRCLE
8
BLACK
10
0.0984252
20
0
40
0.00688976
0
CIRCLE
8
BLACK
10
0.165
20
0.17
40
0.00787402
0
CIRCLE
8
BLACK
10
0.045
20
0.505
40
0.00787402
0
CIRCLE
8
BLACK
10
0.155
20
0.475
40
0.00787402
0
CIRCLE
8
BLACK
10
0.085
20
0.505
40
0.00787402
0
CIRCLE
8
BLACK
10
0.125
20
0.505
40
0.00787402
0
CIRCLE
8
BLACK
10
0.045
20
0.215
40
0.00787402
0
CIRCLE
8
BLACK
10
0.045
20
0.09
40
0.00787402
0
CIRCLE
8
BLACK
10
0.065
20
0.385
40
0.00787402
0
CIRCLE
8
BLACK
10
0.135
20
0.09
40
0.00787402
0
CIRCLE
8
BLACK
10
0.165
20
0.125
40
0.00787402
0
CIRCLE
8
BLACK
10
0.04
20
0.35
40
0.00787402
0
CIRCLE
8
BLACK
10
0.09
20
0.09
40
0.00787402
0
CIRCLE
8
BLACK
10
0.2
20
0.42
40
0.00787402
0
CIRCLE
8
BLACK
10
0.04
20
0.305
40
0.00787402
0
CIRCLE
8
BLACK
10
0.356142
20
0.437992
40
0.00787402
0
CIRCLE
8
BLACK
10
0.359094
20
0.231299
40
0.00787402
0
CIRCLE
8
BLACK
10
0.04
20
0.26
40
0.00787402
0
CIRCLE
8
BLACK
10
0.16
20
0.42
40
0.00787402
0
CIRCLE
8
BLACK
10
0.709537
20
0.225463
40
0.00787402
0
CIRCLE
8
BLACK
10
1.14569
20
0.245
40
0.00787402
0
CIRCLE
8
BLACK
10
0.11
20
0.37
40
0.00787402
0
CIRCLE
8
BLACK
10
0.25
20
0.37
40
0.00787402
0
CIRCLE
8
BLACK
10
0.112205
20
0.270669
40
0.00787402
0
CIRCLE
8
BLACK
10
0.266575
20
0.312992
40
0.00787402
0
CIRCLE
8
BLACK
10
0.574622
20
0.315377
40
0.00787402
0
CIRCLE
8
BLACK
10
0.709862
20
0.270164
40
0.00787402
0
CIRCLE
8
BLACK
10
0.25
20
0.27
40
0.00787402
0
CIRCLE
8
BLACK
10
0.655
20
0.305
40
0.00787402
  0
ENDSEC
  0
EOF
