  0
SECTION
  2
HEADER
  9
$ANGBASE
  50
0.0
  9
$ANGDIR
  70
1
  9
$MEASUREMENT
  70
0
  0
ENDSEC
  0
SECTION
  2
TABLES
  0
TABLE
  2
LTYPE
  70
4
  0
LTYPE
  5
40F
  2
CONTINUOUS
  70
0
  3
Solid line
  72
65
  73
0
  40
0.0
  0
LTYPE
  5
410
  2
DASHDOT
 70
0
  3
Dash Dot ____ _ ____ _
 72
65
 73
4
 40
2.0
 49
1.25
 49
-0.25
 49
0.25
 49
-0.25
  0
LTYPE
  5
411
  2
DASHED
 70
0
  3
Dashed __ __ __ __ __
 72
65
 73
2
 40
0.75
 49
0.5
 49
-0.25
  0
LTYPE
  5
43B
  2
DOTTED
 70
0
  3
Dotted .  .  .  .
 72
65
 73
2
 40
0.2
 49
0.0
 49
-0.2
  0
ENDTAB
  0
TABLE
  2
STYLE
  70
4
  0
STYLE
  2
KICAD
  70
0
  40
0
  41
1
  42
1
  50
0
  71
0
  3
isocp.shx
  0
STYLE
  2
KICADB
  70
0
  40
0
  41
1
  42
1
  50
0
  71
0
  3
isocp.shx
  0
STYLE
  2
KICADI
  70
0
  40
0
  41
1
  42
1
  50
15
  71
0
  3
isocp.shx
  0
STYLE
  2
KICADBI
  70
0
  40
0
  41
1
  42
1
  50
15
  71
0
  3
isocp.shx
  0
ENDTAB
  0
TABLE
  2
LAYER
  70
1
  0
LAYER
  2
BLACK
  70
0
  62
7
  6
CONTINUOUS
  0
ENDTAB
  0
ENDSEC
  0
SECTION
  2
ENTITIES
0
LINE
8
BLACK
6
CONTINUOUS
10
0.125527
20
0.284952
11
0.125591
21
0.284953
0
LINE
8
BLACK
6
CONTINUOUS
10
0.125591
20
0.284953
11
0.131216
21
0.283079
0
LINE
8
BLACK
6
CONTINUOUS
10
0.131216
20
0.283079
11
0.132117
21
0.28259
0
LINE
8
BLACK
6
CONTINUOUS
10
0.132117
20
0.28259
11
0.13221
21
0.28244
0
LINE
8
BLACK
6
CONTINUOUS
10
0.13221
20
0.28244
11
0.13237
21
0.282365
0
LINE
8
BLACK
6
CONTINUOUS
10
0.13237
20
0.282365
11
0.136119
21
0.278616
0
LINE
8
BLACK
6
CONTINUOUS
10
0.136119
20
0.278616
11
0.136708
21
0.277776
0
LINE
8
BLACK
6
CONTINUOUS
10
0.136708
20
0.277776
11
0.136723
21
0.2776
0
LINE
8
BLACK
6
CONTINUOUS
10
0.136723
20
0.2776
11
0.136833
21
0.277462
0
LINE
8
BLACK
6
CONTINUOUS
10
0.136833
20
0.277462
11
0.138707
21
0.271837
0
LINE
8
BLACK
6
CONTINUOUS
10
0.138707
20
0.271837
11
0.138837
21
0.270964
0
LINE
8
BLACK
6
CONTINUOUS
10
0.138837
20
0.270964
11
0.138859
21
0.270904
0
LINE
8
BLACK
6
CONTINUOUS
10
0.138859
20
0.270904
11
0.138859
21
0.267154
0
LINE
8
BLACK
6
CONTINUOUS
10
0.138859
20
0.267154
11
0.138681
21
0.266144
0
LINE
8
BLACK
6
CONTINUOUS
10
0.138681
20
0.266144
11
0.137383
21
0.264597
0
LINE
8
BLACK
6
CONTINUOUS
10
0.137383
20
0.264597
11
0.135394
21
0.264246
0
LINE
8
BLACK
6
CONTINUOUS
10
0.135394
20
0.264246
11
0.133644
21
0.265256
0
LINE
8
BLACK
6
CONTINUOUS
10
0.133644
20
0.265256
11
0.132954
21
0.267154
0
LINE
8
BLACK
6
CONTINUOUS
10
0.132954
20
0.267154
11
0.132954
21
0.270425
0
LINE
8
BLACK
6
CONTINUOUS
10
0.132954
20
0.270425
11
0.131451
21
0.274933
0
LINE
8
BLACK
6
CONTINUOUS
10
0.131451
20
0.274933
11
0.128687
21
0.277697
0
LINE
8
BLACK
6
CONTINUOUS
10
0.128687
20
0.277697
11
0.124179
21
0.279199
0
LINE
8
BLACK
6
CONTINUOUS
10
0.124179
20
0.279199
11
0.0965362
21
0.279199
0
LINE
8
BLACK
6
CONTINUOUS
10
0.0965362
20
0.279199
11
0.0955263
21
0.279378
0
LINE
8
BLACK
6
CONTINUOUS
10
0.0955263
20
0.279378
11
0.093979
21
0.280676
0
LINE
8
BLACK
6
CONTINUOUS
10
0.093979
20
0.280676
11
0.0936283
21
0.282665
0
LINE
8
BLACK
6
CONTINUOUS
10
0.0936283
20
0.282665
11
0.0946382
21
0.284414
0
LINE
8
BLACK
6
CONTINUOUS
10
0.0946382
20
0.284414
11
0.0965362
21
0.285105
0
LINE
8
BLACK
6
CONTINUOUS
10
0.0965362
20
0.285105
11
0.124658
21
0.285105
0
LINE
8
BLACK
6
CONTINUOUS
10
0.124658
20
0.285105
11
0.125527
21
0.284952
0
LINE
8
BLACK
6
CONTINUOUS
10
0.108654
20
0.324322
11
0.108719
21
0.324324
0
LINE
8
BLACK
6
CONTINUOUS
10
0.108719
20
0.324324
11
0.114343
21
0.322449
0
LINE
8
BLACK
6
CONTINUOUS
10
0.114343
20
0.322449
11
0.115245
21
0.321961
0
LINE
8
BLACK
6
CONTINUOUS
10
0.115245
20
0.321961
11
0.115337
21
0.32181
0
LINE
8
BLACK
6
CONTINUOUS
10
0.115337
20
0.32181
11
0.115497
21
0.321735
0
LINE
8
BLACK
6
CONTINUOUS
10
0.115497
20
0.321735
11
0.132954
21
0.304279
0
LINE
8
BLACK
6
CONTINUOUS
10
0.132954
20
0.304279
11
0.132954
21
0.321522
0
LINE
8
BLACK
6
CONTINUOUS
10
0.132954
20
0.321522
11
0.133132
21
0.322532
0
LINE
8
BLACK
6
CONTINUOUS
10
0.133132
20
0.322532
11
0.13443
21
0.324079
0
LINE
8
BLACK
6
CONTINUOUS
10
0.13443
20
0.324079
11
0.136419
21
0.32443
0
LINE
8
BLACK
6
CONTINUOUS
10
0.136419
20
0.32443
11
0.138168
21
0.32342
0
LINE
8
BLACK
6
CONTINUOUS
10
0.138168
20
0.32342
11
0.138859
21
0.321522
0
LINE
8
BLACK
6
CONTINUOUS
10
0.138859
20
0.321522
11
0.138859
21
0.29715
0
LINE
8
BLACK
6
CONTINUOUS
10
0.138859
20
0.29715
11
0.138747
21
0.296516
0
LINE
8
BLACK
6
CONTINUOUS
10
0.138747
20
0.296516
11
0.138758
21
0.296386
0
LINE
8
BLACK
6
CONTINUOUS
10
0.138758
20
0.296386
11
0.138713
21
0.296321
0
LINE
8
BLACK
6
CONTINUOUS
10
0.138713
20
0.296321
11
0.138681
21
0.29614
0
LINE
8
BLACK
6
CONTINUOUS
10
0.138681
20
0.29614
11
0.13811
21
0.29546
0
LINE
8
BLACK
6
CONTINUOUS
10
0.13811
20
0.29546
11
0.1376
21
0.294732
0
LINE
8
BLACK
6
CONTINUOUS
10
0.1376
20
0.294732
11
0.137469
21
0.294697
0
LINE
8
BLACK
6
CONTINUOUS
10
0.137469
20
0.294697
11
0.137383
21
0.294593
0
LINE
8
BLACK
6
CONTINUOUS
10
0.137383
20
0.294593
11
0.136507
21
0.294439
0
LINE
8
BLACK
6
CONTINUOUS
10
0.136507
20
0.294439
11
0.135649
21
0.294209
0
LINE
8
BLACK
6
CONTINUOUS
10
0.135649
20
0.294209
11
0.135527
21
0.294266
0
LINE
8
BLACK
6
CONTINUOUS
10
0.135527
20
0.294266
11
0.135394
21
0.294242
0
LINE
8
BLACK
6
CONTINUOUS
10
0.135394
20
0.294242
11
0.134624
21
0.294687
0
LINE
8
BLACK
6
CONTINUOUS
10
0.134624
20
0.294687
11
0.133818
21
0.295062
0
LINE
8
BLACK
6
CONTINUOUS
10
0.133818
20
0.295062
11
0.111814
21
0.317067
0
LINE
8
BLACK
6
CONTINUOUS
10
0.111814
20
0.317067
11
0.107306
21
0.31857
0
LINE
8
BLACK
6
CONTINUOUS
10
0.107306
20
0.31857
11
0.104732
21
0.31857
0
LINE
8
BLACK
6
CONTINUOUS
10
0.104732
20
0.31857
11
0.102035
21
0.317221
0
LINE
8
BLACK
6
CONTINUOUS
10
0.102035
20
0.317221
11
0.100838
21
0.316024
0
LINE
8
BLACK
6
CONTINUOUS
10
0.100838
20
0.316024
11
0.0994889
21
0.313326
0
LINE
8
BLACK
6
CONTINUOUS
10
0.0994889
20
0.313326
11
0.0994889
21
0.305346
0
LINE
8
BLACK
6
CONTINUOUS
10
0.0994889
20
0.305346
11
0.100838
21
0.302649
0
LINE
8
BLACK
6
CONTINUOUS
10
0.100838
20
0.302649
11
0.102374
21
0.301113
0
LINE
8
BLACK
6
CONTINUOUS
10
0.102374
20
0.301113
11
0.102962
21
0.300273
0
LINE
8
BLACK
6
CONTINUOUS
10
0.102962
20
0.300273
11
0.103138
21
0.298261
0
LINE
8
BLACK
6
CONTINUOUS
10
0.103138
20
0.298261
11
0.101979
21
0.296606
0
LINE
8
BLACK
6
CONTINUOUS
10
0.101979
20
0.296606
11
0.100028
21
0.296084
0
LINE
8
BLACK
6
CONTINUOUS
10
0.100028
20
0.296084
11
0.0981978
21
0.296937
0
LINE
8
BLACK
6
CONTINUOUS
10
0.0981978
20
0.296937
11
0.096323
21
0.298812
0
LINE
8
BLACK
6
CONTINUOUS
10
0.096323
20
0.298812
11
0.0958167
21
0.299535
0
LINE
8
BLACK
6
CONTINUOUS
10
0.0958167
20
0.299535
11
0.0957699
21
0.299579
0
LINE
8
BLACK
6
CONTINUOUS
10
0.0957699
20
0.299579
11
0.0938952
21
0.303329
0
LINE
8
BLACK
6
CONTINUOUS
10
0.0938952
20
0.303329
11
0.0936028
21
0.304312
0
LINE
8
BLACK
6
CONTINUOUS
10
0.0936028
20
0.304312
11
0.0936438
21
0.304484
0
LINE
8
BLACK
6
CONTINUOUS
10
0.0936438
20
0.304484
11
0.0935834
21
0.304649
0
LINE
8
BLACK
6
CONTINUOUS
10
0.0935834
20
0.304649
11
0.0935834
21
0.314023
0
LINE
8
BLACK
6
CONTINUOUS
10
0.0935834
20
0.314023
11
0.0937615
21
0.315033
0
LINE
8
BLACK
6
CONTINUOUS
10
0.0937615
20
0.315033
11
0.093875
21
0.315168
0
LINE
8
BLACK
6
CONTINUOUS
10
0.093875
20
0.315168
11
0.0938952
21
0.315344
0
LINE
8
BLACK
6
CONTINUOUS
10
0.0938952
20
0.315344
11
0.0957699
21
0.319093
0
LINE
8
BLACK
6
CONTINUOUS
10
0.0957699
20
0.319093
11
0.0962958
21
0.319802
0
LINE
8
BLACK
6
CONTINUOUS
10
0.0962958
20
0.319802
11
0.096323
21
0.319861
0
LINE
8
BLACK
6
CONTINUOUS
10
0.096323
20
0.319861
11
0.0981978
21
0.321735
0
LINE
8
BLACK
6
CONTINUOUS
10
0.0981978
20
0.321735
11
0.0989209
21
0.322242
0
LINE
8
BLACK
6
CONTINUOUS
10
0.0989209
20
0.322242
11
0.0989652
21
0.322289
0
LINE
8
BLACK
6
CONTINUOUS
10
0.0989652
20
0.322289
11
0.102715
21
0.324163
0
LINE
8
BLACK
6
CONTINUOUS
10
0.102715
20
0.324163
11
0.103698
21
0.324456
0
LINE
8
BLACK
6
CONTINUOUS
10
0.103698
20
0.324456
11
0.103869
21
0.324415
0
LINE
8
BLACK
6
CONTINUOUS
10
0.103869
20
0.324415
11
0.104035
21
0.324475
0
LINE
8
BLACK
6
CONTINUOUS
10
0.104035
20
0.324475
11
0.107785
21
0.324475
0
LINE
8
BLACK
6
CONTINUOUS
10
0.107785
20
0.324475
11
0.108654
21
0.324322
0
LINE
8
BLACK
6
CONTINUOUS
10
0.180992
20
0.459646
11
0.182384
21
0.459069
0
LINE
8
BLACK
6
CONTINUOUS
10
0.182384
20
0.459069
11
0.182961
21
0.457677
0
LINE
8
BLACK
6
CONTINUOUS
10
0.182961
20
0.457677
11
0.182961
21
0.132874
0
LINE
8
BLACK
6
CONTINUOUS
10
0.182961
20
0.132874
11
0.182384
21
0.131482
0
LINE
8
BLACK
6
CONTINUOUS
10
0.182384
20
0.131482
11
0.180992
21
0.130906
0
LINE
8
BLACK
6
CONTINUOUS
10
0.180992
20
0.130906
11
0.0215433
21
0.130906
0
LINE
8
BLACK
6
CONTINUOUS
10
0.0215433
20
0.130906
11
0.0201514
21
0.131482
0
LINE
8
BLACK
6
CONTINUOUS
10
0.0201514
20
0.131482
11
0.0195748
21
0.132874
0
LINE
8
BLACK
6
CONTINUOUS
10
0.0195748
20
0.132874
11
0.0195748
21
0.457677
0
LINE
8
BLACK
6
CONTINUOUS
10
0.0195748
20
0.457677
11
0.0201514
21
0.459069
0
LINE
8
BLACK
6
CONTINUOUS
10
0.0201514
20
0.459069
11
0.0215433
21
0.459646
0
LINE
8
BLACK
6
CONTINUOUS
10
0.0215433
20
0.459646
11
0.180992
21
0.459646
0
LINE
8
BLACK
6
CONTINUOUS
10
0.0235118
20
0.455709
11
0.0235118
21
0.134843
0
LINE
8
BLACK
6
CONTINUOUS
10
0.0235118
20
0.134843
11
0.179024
21
0.134843
0
LINE
8
BLACK
6
CONTINUOUS
10
0.179024
20
0.134843
11
0.179024
21
0.348391
0
LINE
8
BLACK
6
CONTINUOUS
10
0.179024
20
0.348391
11
0.152017
21
0.367487
0
LINE
8
BLACK
6
CONTINUOUS
10
0.152017
20
0.367487
11
0.151835
21
0.367776
0
LINE
8
BLACK
6
CONTINUOUS
10
0.151835
20
0.367776
11
0.151546
21
0.367958
0
LINE
8
BLACK
6
CONTINUOUS
10
0.151546
20
0.367958
11
0.151448
21
0.368388
0
LINE
8
BLACK
6
CONTINUOUS
10
0.151448
20
0.368388
11
0.151213
21
0.368762
0
LINE
8
BLACK
6
CONTINUOUS
10
0.151213
20
0.368762
11
0.151289
21
0.369094
0
LINE
8
BLACK
6
CONTINUOUS
10
0.151289
20
0.369094
11
0.151213
21
0.369427
0
LINE
8
BLACK
6
CONTINUOUS
10
0.151213
20
0.369427
11
0.151448
21
0.369801
0
LINE
8
BLACK
6
CONTINUOUS
10
0.151448
20
0.369801
11
0.151546
21
0.370231
0
LINE
8
BLACK
6
CONTINUOUS
10
0.151546
20
0.370231
11
0.151835
21
0.370413
0
LINE
8
BLACK
6
CONTINUOUS
10
0.151835
20
0.370413
11
0.152017
21
0.370702
0
LINE
8
BLACK
6
CONTINUOUS
10
0.152017
20
0.370702
11
0.179024
21
0.389799
0
LINE
8
BLACK
6
CONTINUOUS
10
0.179024
20
0.389799
11
0.179024
21
0.455709
0
LINE
8
BLACK
6
CONTINUOUS
10
0.179024
20
0.455709
11
0.0235118
21
0.455709
0
LINE
8
BLACK
6
CONTINUOUS
10
0.156563
20
0.369094
11
0.179024
21
0.353212
0
LINE
8
BLACK
6
CONTINUOUS
10
0.179024
20
0.353212
11
0.179024
21
0.384977
0
LINE
8
BLACK
6
CONTINUOUS
10
0.179024
20
0.384977
11
0.156563
21
0.369094
0
LINE
8
BLACK
6
CONTINUOUS
10
0.428987
20
0.533736
11
0.42978
21
0.531879
0
LINE
8
BLACK
6
CONTINUOUS
10
0.42978
20
0.531879
11
0.429194
21
0.529946
0
LINE
8
BLACK
6
CONTINUOUS
10
0.429194
20
0.529946
11
0.413857
21
0.509497
0
LINE
8
BLACK
6
CONTINUOUS
10
0.413857
20
0.509497
11
0.42892
21
0.494435
0
LINE
8
BLACK
6
CONTINUOUS
10
0.42892
20
0.494435
11
0.429508
21
0.493595
0
LINE
8
BLACK
6
CONTINUOUS
10
0.429508
20
0.493595
11
0.429684
21
0.491583
0
LINE
8
BLACK
6
CONTINUOUS
10
0.429684
20
0.491583
11
0.428525
21
0.489928
0
LINE
8
BLACK
6
CONTINUOUS
10
0.428525
20
0.489928
11
0.426574
21
0.489406
0
LINE
8
BLACK
6
CONTINUOUS
10
0.426574
20
0.489406
11
0.424744
21
0.490259
0
LINE
8
BLACK
6
CONTINUOUS
10
0.424744
20
0.490259
11
0.407287
21
0.507716
0
LINE
8
BLACK
6
CONTINUOUS
10
0.407287
20
0.507716
11
0.407287
21
0.492347
0
LINE
8
BLACK
6
CONTINUOUS
10
0.407287
20
0.492347
11
0.407109
21
0.491337
0
LINE
8
BLACK
6
CONTINUOUS
10
0.407109
20
0.491337
11
0.405811
21
0.48979
0
LINE
8
BLACK
6
CONTINUOUS
10
0.405811
20
0.48979
11
0.403822
21
0.489439
0
LINE
8
BLACK
6
CONTINUOUS
10
0.403822
20
0.489439
11
0.402073
21
0.490449
0
LINE
8
BLACK
6
CONTINUOUS
10
0.402073
20
0.490449
11
0.401382
21
0.492347
0
LINE
8
BLACK
6
CONTINUOUS
10
0.401382
20
0.492347
11
0.401382
21
0.531717
0
LINE
8
BLACK
6
CONTINUOUS
10
0.401382
20
0.531717
11
0.40156
21
0.532727
0
LINE
8
BLACK
6
CONTINUOUS
10
0.40156
20
0.532727
11
0.402858
21
0.534274
0
LINE
8
BLACK
6
CONTINUOUS
10
0.402858
20
0.534274
11
0.404847
21
0.534625
0
LINE
8
BLACK
6
CONTINUOUS
10
0.404847
20
0.534625
11
0.406596
21
0.533615
0
LINE
8
BLACK
6
CONTINUOUS
10
0.406596
20
0.533615
11
0.407287
21
0.531717
0
LINE
8
BLACK
6
CONTINUOUS
10
0.407287
20
0.531717
11
0.407287
21
0.516067
0
LINE
8
BLACK
6
CONTINUOUS
10
0.407287
20
0.516067
11
0.409639
21
0.513715
0
LINE
8
BLACK
6
CONTINUOUS
10
0.409639
20
0.513715
11
0.424469
21
0.533489
0
LINE
8
BLACK
6
CONTINUOUS
10
0.424469
20
0.533489
11
0.425218
21
0.53419
0
LINE
8
BLACK
6
CONTINUOUS
10
0.425218
20
0.53419
11
0.427185
21
0.534649
0
LINE
8
BLACK
6
CONTINUOUS
10
0.427185
20
0.534649
11
0.428987
21
0.533736
  0
ENDSEC
  0
EOF
