<?xml version='1.0' encoding='ASCII' standalone='yes'?>
<svg xmlns:svg="http://www.w3.org/2000/svg" xmlns="http://www.w3.org/2000/svg" xmlns:xlink="http://www.w3.org/1999/xlink" version="1.1" width="297.0022mm" height="210.0072mm" viewBox="0.0000 0.0000 297.0022 210.0072">
<title>SVG Image created as TFCO201-F_Fab.svg date 2023/10/01 20:18:18 </title>
  <desc>Image generated by PCBNEW </desc>
<g style="fill:#848484; fill-opacity:1.0000;stroke:#848484; stroke-opacity:1.0000; stroke-linecap:round; stroke-linejoin:round;" transform="translate(0 0) scale(1 1)">
</g>
<g style="fill:#848484; fill-opacity:0.0;  stroke:#848484; stroke-width:0.0000; stroke-opacity:1;  stroke-linecap:round; stroke-linejoin:round;">
</g>
<g style="fill:#848484; fill-opacity:0.0;  stroke:#848484; stroke-width:1.4776; stroke-opacity:1;  stroke-linecap:round; stroke-linejoin:round;">
<g transform="rotate(-90.000000 30.2646 105.0036)">
<text x="30.2646" y="109.9290" textLength="19.3497" font-size="13.1343" lengthAdjust="spacingAndGlyphs" text-anchor="middle" opacity="0.01" style="font-family:monospace">J2</text>
</g>
<g class="stroked-text"><desc>J2</desc>
<path d="M24.8941 108.2872 L31.9304 108.2872 "/>
<path d="M31.9304 108.2872 L33.3376 108.7563 "/>
<path d="M33.3376 108.7563 L34.2758 109.6944 "/>
<path d="M34.2758 109.6944 L34.7449 111.1017 "/>
<path d="M34.7449 111.1017 L34.7449 112.0398 "/>
<path d="M25.8323 104.0654 L25.3632 103.5963 "/>
<path d="M25.3632 103.5963 L24.8941 102.6582 "/>
<path d="M24.8941 102.6582 L24.8941 100.3128 "/>
<path d="M24.8941 100.3128 L25.3632 99.3746 "/>
<path d="M25.3632 99.3746 L25.8323 98.9055 "/>
<path d="M25.8323 98.9055 L26.7705 98.4364 "/>
<path d="M26.7705 98.4364 L27.7086 98.4364 "/>
<path d="M27.7086 98.4364 L29.1159 98.9055 "/>
<path d="M29.1159 98.9055 L34.7449 104.5345 "/>
<path d="M34.7449 104.5345 L34.7449 98.4364 "/>
</g><g transform="rotate(-180.000000 104.4880 50.3241)">
<text x="104.4880" y="55.2494" transform="scale(-1 1) translate(-208.975938 0)" textLength="12.3134" font-size="13.1343" lengthAdjust="spacingAndGlyphs" text-anchor="middle" opacity="0.01" style="font-family:monospace">K</text>
</g>
<g class="stroked-text"><desc>K</desc>
<path d="M101.9080 45.8438 L101.9080 55.6945 "/>
<path d="M107.5370 45.8438 L103.3153 51.4728 "/>
<path d="M107.5370 55.6945 L101.9080 50.0655 "/>
</g></g>
<g style="fill:#848484; fill-opacity:0.0;  stroke:#848484; stroke-width:0.9851; stroke-opacity:1;  stroke-linecap:round; stroke-linejoin:round;">
<path d="M46.0258 64.3693 L6.1302 64.3693 "/>
<path d="M46.0258 64.3693 L46.0258 145.6379 "/>
<path d="M6.1302 64.3693 L6.1302 145.6379 "/>
<path d="M46.0258 81.6081 L39.0602 86.5334 "/>
<path d="M39.0602 86.5334 L46.0258 91.4588 "/>
<path d="M46.0258 145.6379 L6.1302 145.6379 "/>
<g>
</g>
<g>
</g>
<g>
</g>
<g>
</g>
<g>
</g>
<g>
</g>
<g>
</g>
<g>
</g>
<g>
</g>
<g>
</g>
<g>
</g>
<g>
</g>
<g>
</g>
<g>
</g>
<g>
</g>
<g>
</g>
<g>
</g>
<g>
</g>
<g>
</g>
<g>
</g>
<g>
</g>
<g>
</g>
<g>
</g>
</g> 
<svg:g><svg:g><svg:title>SVG Image created as TFCO201-Edge_Cuts.svg date 2023/10/01 20:18:18 </svg:title>
  <svg:desc>Image generated by PCBNEW </svg:desc>
<svg:g style="fill:#C2C200; fill-opacity:1.0000;stroke:#C2C200; stroke-opacity:1.0000; stroke-linecap:round; stroke-linejoin:round;" transform="translate(0 0) scale(1 1)">
</svg:g>
<svg:g style="fill:#C2C200; fill-opacity:0.0;  stroke:#C2C200; stroke-width:0.0000; stroke-opacity:1;  stroke-linecap:round; stroke-linejoin:round;">
</svg:g>
<svg:g style="fill:#C2C200; fill-opacity:0.0;  stroke:#C2C200; stroke-width:1.4776; stroke-opacity:1;  stroke-linecap:round; stroke-linejoin:round;">
<svg:path style="fill:#C2C200; fill-opacity:0.0;  stroke:#C2C200; stroke-width:1.4776; stroke-opacity:1;  stroke-linecap:round; stroke-linejoin:round;fill:none" d="M 0.7399,31.1230 296.2623,31.1230 296.2623,178.8842 0.7399,178.8842 Z"/> 
</svg:g>
<svg:g style="fill:#C2C200; fill-opacity:0.0;  stroke:#C2C200; stroke-width:0.4925; stroke-opacity:1;  stroke-linecap:round; stroke-linejoin:round;">
<svg:path d="M73.6354 57.7200 L73.6354 43.9290 "/>
<svg:path d="M76.5907 40.9737 L92.3518 40.9737 "/>
<svg:path d="M92.3518 60.6752 L76.5907 60.6752 "/>
<svg:path d="M95.3071 43.9290 L95.3071 57.7200 "/>
<svg:path d="M76.5907 40.9737 A2.9552 2.9552 0.0 0 0 73.6354 43.9290"/>
<svg:path d="M73.6354 57.7200 A2.9552 2.9552 0.0 0 0 76.5907 60.6752"/>
<svg:path d="M95.3071 43.9290 A2.9552 2.9552 0.0 0 0 92.3518 40.9737"/>
<svg:path d="M92.3518 60.6752 A2.9552 2.9552 0.0 0 0 95.3071 57.7200"/>
<svg:g>
</svg:g>
<svg:g>
</svg:g>
<svg:g>
</svg:g>
<svg:g>
</svg:g>
<svg:g>
</svg:g>
<svg:g>
</svg:g>
<svg:g>
</svg:g>
<svg:g>
</svg:g>
<svg:g>
</svg:g>
<svg:g>
</svg:g>
<svg:g>
</svg:g>
<svg:g>
</svg:g>
<svg:g>
</svg:g>
<svg:g>
</svg:g>
<svg:g>
</svg:g>
<svg:g>
</svg:g>
<svg:g>
</svg:g>
<svg:g>
</svg:g>
<svg:g>
</svg:g>
<svg:g>
</svg:g>
<svg:g>
</svg:g>
<svg:g>
</svg:g>
<svg:g>
</svg:g>
</svg:g> 
</svg:g></svg:g></svg>
