<?xml version='1.0' encoding='ASCII' standalone='yes'?>
<svg xmlns:svg="http://www.w3.org/2000/svg" xmlns="http://www.w3.org/2000/svg" xmlns:xlink="http://www.w3.org/1999/xlink" version="1.1" width="297.0022mm" height="210.0072mm" viewBox="0.0000 0.0000 297.0022 210.0072">
<title>SVG Image created as TFCO201-B_Fab.svg date 2023/10/01 20:38:27 </title>
  <desc>Image generated by PCBNEW </desc>
<g style="fill:#000084; fill-opacity:1.0000;stroke:#000084; stroke-opacity:1.0000; stroke-linecap:round; stroke-linejoin:round;" transform="translate(0 0) scale(1 1)">
</g>
<g style="fill:#000084; fill-opacity:0.0;  stroke:#000084; stroke-width:0.0000; stroke-opacity:1;  stroke-linecap:round; stroke-linejoin:round;">
</g>
<g style="fill:#000084; fill-opacity:0.01;  stroke:#000084; stroke-width:1.4776; stroke-opacity:1;  stroke-linecap:round; stroke-linejoin:round;">
<text x="194.2657" y="56.5793" transform="scale(-1 1) translate(-388.531387 0)" textLength="14.4412" font-size="16.6806" lengthAdjust="spacingAndGlyphs" text-anchor="middle" opacity="0.01" style="font-family:monospace">K</text>
<g class="stroked-text"><desc>K</desc>
<path d="M190.9891 56.0348 L190.9891 43.5244 "/>
<path d="M198.1380 56.0348 L192.7764 48.8860 "/>
<path d="M198.1380 43.5244 L190.9891 50.6732 "/>
</g></g>
<g style="fill:#000084; fill-opacity:0.0;  stroke:#000084; stroke-width:0.5910; stroke-opacity:1;  stroke-linecap:round; stroke-linejoin:round;">
<g transform="rotate(-90.000000 179.9151 126.0891)">
<text x="179.9151" y="128.0593" transform="scale(-1 1) translate(-359.830253 0)" textLength="8.6780" font-size="5.2537" lengthAdjust="spacingAndGlyphs" text-anchor="middle" opacity="0.01" style="font-family:monospace">C4</text>
</g>
<g class="stroked-text"><desc>C4</desc>
<path d="M178.4983 125.4324 L178.3106 125.2448 "/>
<path d="M178.3106 125.2448 L178.1230 124.6819 "/>
<path d="M178.1230 124.6819 L178.1230 124.3066 "/>
<path d="M178.1230 124.3066 L178.3106 123.7437 "/>
<path d="M178.3106 123.7437 L178.6859 123.3684 "/>
<path d="M178.6859 123.3684 L179.0612 123.1808 "/>
<path d="M179.0612 123.1808 L179.8117 122.9932 "/>
<path d="M179.8117 122.9932 L180.3746 122.9932 "/>
<path d="M180.3746 122.9932 L181.1251 123.1808 "/>
<path d="M181.1251 123.1808 L181.5004 123.3684 "/>
<path d="M181.5004 123.3684 L181.8757 123.7437 "/>
<path d="M181.8757 123.7437 L182.0633 124.3066 "/>
<path d="M182.0633 124.3066 L182.0633 124.6819 "/>
<path d="M182.0633 124.6819 L181.8757 125.2448 "/>
<path d="M181.8757 125.2448 L181.6880 125.4324 "/>
<path d="M180.7499 128.8098 L178.1230 128.8098 "/>
<path d="M182.2509 127.8716 L179.4364 126.9335 "/>
<path d="M179.4364 126.9335 L179.4364 129.3727 "/>
</g></g>
<g style="fill:#000084; fill-opacity:0.0;  stroke:#000084; stroke-width:1.4776; stroke-opacity:1;  stroke-linecap:round; stroke-linejoin:round;">
<g transform="rotate(-90.000000 217.9390 83.5881)">
<text x="217.9390" y="88.5134" transform="scale(-1 1) translate(-435.878014 0)" textLength="21.6951" font-size="13.1343" lengthAdjust="spacingAndGlyphs" text-anchor="middle" opacity="0.01" style="font-family:monospace">D1</text>
</g>
<g class="stroked-text"><desc>D1</desc>
<path d="M213.4587 76.3173 L223.3094 76.3173 "/>
<path d="M223.3094 76.3173 L223.3094 78.6627 "/>
<path d="M223.3094 78.6627 L222.8404 80.0699 "/>
<path d="M222.8404 80.0699 L221.9022 81.0081 "/>
<path d="M221.9022 81.0081 L220.9640 81.4772 "/>
<path d="M220.9640 81.4772 L219.0877 81.9463 "/>
<path d="M219.0877 81.9463 L217.6805 81.9463 "/>
<path d="M217.6805 81.9463 L215.8041 81.4772 "/>
<path d="M215.8041 81.4772 L214.8660 81.0081 "/>
<path d="M214.8660 81.0081 L213.9278 80.0699 "/>
<path d="M213.9278 80.0699 L213.4587 78.6627 "/>
<path d="M213.4587 78.6627 L213.4587 76.3173 "/>
<path d="M213.4587 91.3279 L213.4587 85.6990 "/>
<path d="M213.4587 88.5134 L223.3094 88.5134 "/>
<path d="M223.3094 88.5134 L221.9022 87.5753 "/>
<path d="M221.9022 87.5753 L220.9640 86.6371 "/>
<path d="M220.9640 86.6371 L220.4950 85.6990 "/>
</g><g transform="rotate(-90.000000 266.7376 105.0036)">
<text x="266.7376" y="109.9290" transform="scale(-1 1) translate(-533.475268 0)" textLength="19.3497" font-size="13.1343" lengthAdjust="spacingAndGlyphs" text-anchor="middle" opacity="0.01" style="font-family:monospace">J1</text>
</g>
<g class="stroked-text"><desc>J1</desc>
<path d="M272.1081 101.7200 L265.0718 101.7200 "/>
<path d="M265.0718 101.7200 L263.6646 101.2509 "/>
<path d="M263.6646 101.2509 L262.7264 100.3128 "/>
<path d="M262.7264 100.3128 L262.2573 98.9055 "/>
<path d="M262.2573 98.9055 L262.2573 97.9673 "/>
<path d="M262.2573 111.5708 L262.2573 105.9418 "/>
<path d="M262.2573 108.7563 L272.1081 108.7563 "/>
<path d="M272.1081 108.7563 L270.7008 107.8181 "/>
<path d="M270.7008 107.8181 L269.7627 106.8799 "/>
<path d="M269.7627 106.8799 L269.2936 105.9418 "/>
</g></g>
<g style="fill:#000084; fill-opacity:0.0;  stroke:#000084; stroke-width:0.5910; stroke-opacity:1;  stroke-linecap:round; stroke-linejoin:round;">
<g transform="rotate(-90.000000 131.1244 131.3445)">
<text x="131.1244" y="133.3146" transform="scale(-1 1) translate(-262.248761 0)" textLength="8.6780" font-size="5.2537" lengthAdjust="spacingAndGlyphs" text-anchor="middle" opacity="0.01" style="font-family:monospace">C5</text>
</g>
<g class="stroked-text"><desc>C5</desc>
<path d="M129.7075 130.6878 L129.5199 130.5001 "/>
<path d="M129.5199 130.5001 L129.3323 129.9372 "/>
<path d="M129.3323 129.9372 L129.3323 129.5620 "/>
<path d="M129.3323 129.5620 L129.5199 128.9991 "/>
<path d="M129.5199 128.9991 L129.8952 128.6238 "/>
<path d="M129.8952 128.6238 L130.2704 128.4362 "/>
<path d="M130.2704 128.4362 L131.0210 128.2485 "/>
<path d="M131.0210 128.2485 L131.5839 128.2485 "/>
<path d="M131.5839 128.2485 L132.3344 128.4362 "/>
<path d="M132.3344 128.4362 L132.7097 128.6238 "/>
<path d="M132.7097 128.6238 L133.0849 128.9991 "/>
<path d="M133.0849 128.9991 L133.2726 129.5620 "/>
<path d="M133.2726 129.5620 L133.2726 129.9372 "/>
<path d="M133.2726 129.9372 L133.0849 130.5001 "/>
<path d="M133.0849 130.5001 L132.8973 130.6878 "/>
<path d="M133.2726 134.2528 L133.2726 132.3765 "/>
<path d="M133.2726 132.3765 L131.3962 132.1888 "/>
<path d="M131.3962 132.1888 L131.5839 132.3765 "/>
<path d="M131.5839 132.3765 L131.7715 132.7517 "/>
<path d="M131.7715 132.7517 L131.7715 133.6899 "/>
<path d="M131.7715 133.6899 L131.5839 134.0652 "/>
<path d="M131.5839 134.0652 L131.3962 134.2528 "/>
<path d="M131.3962 134.2528 L131.0210 134.4404 "/>
<path d="M131.0210 134.4404 L130.0828 134.4404 "/>
<path d="M130.0828 134.4404 L129.7075 134.2528 "/>
<path d="M129.7075 134.2528 L129.5199 134.0652 "/>
<path d="M129.5199 134.0652 L129.3323 133.6899 "/>
<path d="M129.3323 133.6899 L129.3323 132.7517 "/>
<path d="M129.3323 132.7517 L129.5199 132.3765 "/>
<path d="M129.5199 132.3765 L129.7075 132.1888 "/>
</g><g transform="rotate(-90.000000 169.2271 82.8394)">
<text x="169.2271" y="84.8096" transform="scale(-1 1) translate(-338.454134 0)" textLength="8.6780" font-size="5.2537" lengthAdjust="spacingAndGlyphs" text-anchor="middle" opacity="0.01" style="font-family:monospace">C1</text>
</g>
<g class="stroked-text"><desc>C1</desc>
<path d="M167.8102 82.1827 L167.6226 81.9951 "/>
<path d="M167.6226 81.9951 L167.4350 81.4322 "/>
<path d="M167.4350 81.4322 L167.4350 81.0569 "/>
<path d="M167.4350 81.0569 L167.6226 80.4940 "/>
<path d="M167.6226 80.4940 L167.9979 80.1187 "/>
<path d="M167.9979 80.1187 L168.3731 79.9311 "/>
<path d="M168.3731 79.9311 L169.1236 79.7435 "/>
<path d="M169.1236 79.7435 L169.6865 79.7435 "/>
<path d="M169.6865 79.7435 L170.4371 79.9311 "/>
<path d="M170.4371 79.9311 L170.8123 80.1187 "/>
<path d="M170.8123 80.1187 L171.1876 80.4940 "/>
<path d="M171.1876 80.4940 L171.3752 81.0569 "/>
<path d="M171.3752 81.0569 L171.3752 81.4322 "/>
<path d="M171.3752 81.4322 L171.1876 81.9951 "/>
<path d="M171.1876 81.9951 L171.0000 82.1827 "/>
<path d="M167.4350 85.9354 L167.4350 83.6838 "/>
<path d="M167.4350 84.8096 L171.3752 84.8096 "/>
<path d="M171.3752 84.8096 L170.8123 84.4343 "/>
<path d="M170.8123 84.4343 L170.4371 84.0590 "/>
<path d="M170.4371 84.0590 L170.2494 83.6838 "/>
</g></g>
<g style="fill:#000084; fill-opacity:0.0;  stroke:#000084; stroke-width:1.0759; stroke-opacity:1;  stroke-linecap:round; stroke-linejoin:round;">
<g transform="rotate(-90.000000 189.4605 81.8396)">
<text x="189.4605" y="84.3041" transform="scale(-1 1) translate(-378.920999 0)" textLength="11.8654" font-size="6.5722" lengthAdjust="spacingAndGlyphs" text-anchor="middle" opacity="0.01" style="font-family:monospace">C3</text>
</g>
<g class="stroked-text"><desc>C3</desc>
<path d="M187.7056 81.0180 L187.4709 80.7833 "/>
<path d="M187.4709 80.7833 L187.2362 80.0792 "/>
<path d="M187.2362 80.0792 L187.2362 79.6097 "/>
<path d="M187.2362 79.6097 L187.4709 78.9056 "/>
<path d="M187.4709 78.9056 L187.9403 78.4361 "/>
<path d="M187.9403 78.4361 L188.4098 78.2014 "/>
<path d="M188.4098 78.2014 L189.3486 77.9667 "/>
<path d="M189.3486 77.9667 L190.0528 77.9667 "/>
<path d="M190.0528 77.9667 L190.9917 78.2014 "/>
<path d="M190.9917 78.2014 L191.4611 78.4361 "/>
<path d="M191.4611 78.4361 L191.9305 78.9056 "/>
<path d="M191.9305 78.9056 L192.1653 79.6097 "/>
<path d="M192.1653 79.6097 L192.1653 80.0792 "/>
<path d="M192.1653 80.0792 L191.9305 80.7833 "/>
<path d="M191.9305 80.7833 L191.6958 81.0180 "/>
<path d="M192.1653 82.6611 L192.1653 85.7124 "/>
<path d="M192.1653 85.7124 L190.2875 84.0694 "/>
<path d="M190.2875 84.0694 L190.2875 84.7736 "/>
<path d="M190.2875 84.7736 L190.0528 85.2430 "/>
<path d="M190.0528 85.2430 L189.8181 85.4777 "/>
<path d="M189.8181 85.4777 L189.3486 85.7124 "/>
<path d="M189.3486 85.7124 L188.1750 85.7124 "/>
<path d="M188.1750 85.7124 L187.7056 85.4777 "/>
<path d="M187.7056 85.4777 L187.4709 85.2430 "/>
<path d="M187.4709 85.2430 L187.2362 84.7736 "/>
<path d="M187.2362 84.7736 L187.2362 83.3652 "/>
<path d="M187.2362 83.3652 L187.4709 82.8958 "/>
<path d="M187.4709 82.8958 L187.7056 82.6611 "/>
</g></g>
<g style="fill:#000084; fill-opacity:0.01;  stroke:#000084; stroke-width:0.7388; stroke-opacity:1;  stroke-linecap:round; stroke-linejoin:round;">
<text x="207.4381" y="121.2967" transform="scale(-1 1) translate(-414.876223 0)" textLength="11.0821" font-size="6.5672" lengthAdjust="spacingAndGlyphs" text-anchor="middle" opacity="0.01" style="font-family:monospace">U3</text>
<g class="stroked-text"><desc>U3</desc>
<path d="M203.6855 116.1488 L203.6855 120.1360 "/>
<path d="M203.6855 120.1360 L203.9200 120.6051 "/>
<path d="M203.9200 120.6051 L204.1545 120.8397 "/>
<path d="M204.1545 120.8397 L204.6236 121.0742 "/>
<path d="M204.6236 121.0742 L205.5618 121.0742 "/>
<path d="M205.5618 121.0742 L206.0309 120.8397 "/>
<path d="M206.0309 120.8397 L206.2654 120.6051 "/>
<path d="M206.2654 120.6051 L206.4999 120.1360 "/>
<path d="M206.4999 120.1360 L206.4999 116.1488 "/>
<path d="M208.3763 116.1488 L211.4253 116.1488 "/>
<path d="M211.4253 116.1488 L209.7835 118.0252 "/>
<path d="M209.7835 118.0252 L210.4872 118.0252 "/>
<path d="M210.4872 118.0252 L210.9562 118.2597 "/>
<path d="M210.9562 118.2597 L211.1908 118.4942 "/>
<path d="M211.1908 118.4942 L211.4253 118.9633 "/>
<path d="M211.4253 118.9633 L211.4253 120.1360 "/>
<path d="M211.4253 120.1360 L211.1908 120.6051 "/>
<path d="M211.1908 120.6051 L210.9562 120.8397 "/>
<path d="M210.9562 120.8397 L210.4872 121.0742 "/>
<path d="M210.4872 121.0742 L209.0799 121.0742 "/>
<path d="M209.0799 121.0742 L208.6108 120.8397 "/>
<path d="M208.6108 120.8397 L208.3763 120.6051 "/>
</g></g>
<g style="fill:#000084; fill-opacity:0.0;  stroke:#000084; stroke-width:0.5910; stroke-opacity:1;  stroke-linecap:round; stroke-linejoin:round;">
<g transform="rotate(-90.000000 132.3754 82.5537)">
<text x="132.3754" y="84.5239" transform="scale(-1 1) translate(-264.750850 0)" textLength="8.6780" font-size="5.2537" lengthAdjust="spacingAndGlyphs" text-anchor="middle" opacity="0.01" style="font-family:monospace">R3</text>
</g>
<g class="stroked-text"><desc>R3</desc>
<path d="M130.5833 81.8970 L132.4596 80.5836 "/>
<path d="M130.5833 79.6454 L134.5236 79.6454 "/>
<path d="M134.5236 79.6454 L134.5236 81.1465 "/>
<path d="M134.5236 81.1465 L134.3360 81.5218 "/>
<path d="M134.3360 81.5218 L134.1483 81.7094 "/>
<path d="M134.1483 81.7094 L133.7731 81.8970 "/>
<path d="M133.7731 81.8970 L133.2102 81.8970 "/>
<path d="M133.2102 81.8970 L132.8349 81.7094 "/>
<path d="M132.8349 81.7094 L132.6473 81.5218 "/>
<path d="M132.6473 81.5218 L132.4596 81.1465 "/>
<path d="M132.4596 81.1465 L132.4596 79.6454 "/>
<path d="M134.5236 83.2105 L134.5236 85.6497 "/>
<path d="M134.5236 85.6497 L133.0225 84.3363 "/>
<path d="M133.0225 84.3363 L133.0225 84.8992 "/>
<path d="M133.0225 84.8992 L132.8349 85.2744 "/>
<path d="M132.8349 85.2744 L132.6473 85.4621 "/>
<path d="M132.6473 85.4621 L132.2720 85.6497 "/>
<path d="M132.2720 85.6497 L131.3338 85.6497 "/>
<path d="M131.3338 85.6497 L130.9586 85.4621 "/>
<path d="M130.9586 85.4621 L130.7709 85.2744 "/>
<path d="M130.7709 85.2744 L130.5833 84.8992 "/>
<path d="M130.5833 84.8992 L130.5833 83.7734 "/>
<path d="M130.5833 83.7734 L130.7709 83.3981 "/>
<path d="M130.7709 83.3981 L130.9586 83.2105 "/>
</g><g transform="rotate(-90.000000 151.1411 82.5537)">
<text x="151.1411" y="84.5239" transform="scale(-1 1) translate(-302.282193 0)" textLength="12.4307" font-size="5.2537" lengthAdjust="spacingAndGlyphs" text-anchor="middle" opacity="0.01" style="font-family:monospace">R10</text>
</g>
<g class="stroked-text"><desc>R10</desc>
<path d="M149.3490 80.0207 L151.2253 78.7073 "/>
<path d="M149.3490 77.7691 L153.2893 77.7691 "/>
<path d="M153.2893 77.7691 L153.2893 79.2702 "/>
<path d="M153.2893 79.2702 L153.1016 79.6454 "/>
<path d="M153.1016 79.6454 L152.9140 79.8331 "/>
<path d="M152.9140 79.8331 L152.5387 80.0207 "/>
<path d="M152.5387 80.0207 L151.9758 80.0207 "/>
<path d="M151.9758 80.0207 L151.6006 79.8331 "/>
<path d="M151.6006 79.8331 L151.4129 79.6454 "/>
<path d="M151.4129 79.6454 L151.2253 79.2702 "/>
<path d="M151.2253 79.2702 L151.2253 77.7691 "/>
<path d="M149.3490 83.7734 L149.3490 81.5218 "/>
<path d="M149.3490 82.6476 L153.2893 82.6476 "/>
<path d="M153.2893 82.6476 L152.7264 82.2723 "/>
<path d="M152.7264 82.2723 L152.3511 81.8970 "/>
<path d="M152.3511 81.8970 L152.1635 81.5218 "/>
<path d="M153.2893 86.2126 L153.2893 86.5879 "/>
<path d="M153.2893 86.5879 L153.1016 86.9631 "/>
<path d="M153.1016 86.9631 L152.9140 87.1508 "/>
<path d="M152.9140 87.1508 L152.5387 87.3384 "/>
<path d="M152.5387 87.3384 L151.7882 87.5260 "/>
<path d="M151.7882 87.5260 L150.8500 87.5260 "/>
<path d="M150.8500 87.5260 L150.0995 87.3384 "/>
<path d="M150.0995 87.3384 L149.7242 87.1508 "/>
<path d="M149.7242 87.1508 L149.5366 86.9631 "/>
<path d="M149.5366 86.9631 L149.3490 86.5879 "/>
<path d="M149.3490 86.5879 L149.3490 86.2126 "/>
<path d="M149.3490 86.2126 L149.5366 85.8373 "/>
<path d="M149.5366 85.8373 L149.7242 85.6497 "/>
<path d="M149.7242 85.6497 L150.0995 85.4621 "/>
<path d="M150.0995 85.4621 L150.8500 85.2744 "/>
<path d="M150.8500 85.2744 L151.7882 85.2744 "/>
<path d="M151.7882 85.2744 L152.5387 85.4621 "/>
<path d="M152.5387 85.4621 L152.9140 85.6497 "/>
<path d="M152.9140 85.6497 L153.1016 85.8373 "/>
<path d="M153.1016 85.8373 L153.2893 86.2126 "/>
</g></g>
<g style="fill:#000084; fill-opacity:0.0;  stroke:#000084; stroke-width:1.4776; stroke-opacity:1;  stroke-linecap:round; stroke-linejoin:round;">
<g transform="rotate(-90.000000 120.6629 105.0036)">
<text x="120.6629" y="109.9290" transform="scale(-1 1) translate(-241.325776 0)" textLength="103.7846" font-size="13.1343" lengthAdjust="spacingAndGlyphs" text-anchor="middle" opacity="0.01" style="font-family:monospace">SCD41-D-R2</text>
</g>
<g class="stroked-text"><desc>SCD41-D-R2</desc>
<path d="M116.6517 56.2189 L116.1826 57.6262 "/>
<path d="M116.1826 57.6262 L116.1826 59.9716 "/>
<path d="M116.1826 59.9716 L116.6517 60.9098 "/>
<path d="M116.6517 60.9098 L117.1208 61.3789 "/>
<path d="M117.1208 61.3789 L118.0589 61.8479 "/>
<path d="M118.0589 61.8479 L118.9971 61.8479 "/>
<path d="M118.9971 61.8479 L119.9353 61.3789 "/>
<path d="M119.9353 61.3789 L120.4043 60.9098 "/>
<path d="M120.4043 60.9098 L120.8734 59.9716 "/>
<path d="M120.8734 59.9716 L121.3425 58.0953 "/>
<path d="M121.3425 58.0953 L121.8116 57.1571 "/>
<path d="M121.8116 57.1571 L122.2807 56.6880 "/>
<path d="M122.2807 56.6880 L123.2188 56.2189 "/>
<path d="M123.2188 56.2189 L124.1570 56.2189 "/>
<path d="M124.1570 56.2189 L125.0952 56.6880 "/>
<path d="M125.0952 56.6880 L125.5642 57.1571 "/>
<path d="M125.5642 57.1571 L126.0333 58.0953 "/>
<path d="M126.0333 58.0953 L126.0333 60.4407 "/>
<path d="M126.0333 60.4407 L125.5642 61.8479 "/>
<path d="M117.1208 71.6987 L116.6517 71.2296 "/>
<path d="M116.6517 71.2296 L116.1826 69.8224 "/>
<path d="M116.1826 69.8224 L116.1826 68.8842 "/>
<path d="M116.1826 68.8842 L116.6517 67.4769 "/>
<path d="M116.6517 67.4769 L117.5898 66.5388 "/>
<path d="M117.5898 66.5388 L118.5280 66.0697 "/>
<path d="M118.5280 66.0697 L120.4043 65.6006 "/>
<path d="M120.4043 65.6006 L121.8116 65.6006 "/>
<path d="M121.8116 65.6006 L123.6879 66.0697 "/>
<path d="M123.6879 66.0697 L124.6261 66.5388 "/>
<path d="M124.6261 66.5388 L125.5642 67.4769 "/>
<path d="M125.5642 67.4769 L126.0333 68.8842 "/>
<path d="M126.0333 68.8842 L126.0333 69.8224 "/>
<path d="M126.0333 69.8224 L125.5642 71.2296 "/>
<path d="M125.5642 71.2296 L125.0952 71.6987 "/>
<path d="M116.1826 75.9204 L126.0333 75.9204 "/>
<path d="M126.0333 75.9204 L126.0333 78.2659 "/>
<path d="M126.0333 78.2659 L125.5642 79.6731 "/>
<path d="M125.5642 79.6731 L124.6261 80.6113 "/>
<path d="M124.6261 80.6113 L123.6879 81.0803 "/>
<path d="M123.6879 81.0803 L121.8116 81.5494 "/>
<path d="M121.8116 81.5494 L120.4043 81.5494 "/>
<path d="M120.4043 81.5494 L118.5280 81.0803 "/>
<path d="M118.5280 81.0803 L117.5898 80.6113 "/>
<path d="M117.5898 80.6113 L116.6517 79.6731 "/>
<path d="M116.6517 79.6731 L116.1826 78.2659 "/>
<path d="M116.1826 78.2659 L116.1826 75.9204 "/>
<path d="M122.7497 89.9929 L116.1826 89.9929 "/>
<path d="M126.5024 87.6475 L119.4662 85.3021 "/>
<path d="M119.4662 85.3021 L119.4662 91.4002 "/>
<path d="M116.1826 100.3128 L116.1826 94.6838 "/>
<path d="M116.1826 97.4983 L126.0333 97.4983 "/>
<path d="M126.0333 97.4983 L124.6261 96.5601 "/>
<path d="M124.6261 96.5601 L123.6879 95.6219 "/>
<path d="M123.6879 95.6219 L123.2188 94.6838 "/>
<path d="M119.9353 104.5345 L119.9353 112.0398 "/>
<path d="M116.1826 116.7307 L126.0333 116.7307 "/>
<path d="M126.0333 116.7307 L126.0333 119.0761 "/>
<path d="M126.0333 119.0761 L125.5642 120.4833 "/>
<path d="M125.5642 120.4833 L124.6261 121.4215 "/>
<path d="M124.6261 121.4215 L123.6879 121.8906 "/>
<path d="M123.6879 121.8906 L121.8116 122.3597 "/>
<path d="M121.8116 122.3597 L120.4043 122.3597 "/>
<path d="M120.4043 122.3597 L118.5280 121.8906 "/>
<path d="M118.5280 121.8906 L117.5898 121.4215 "/>
<path d="M117.5898 121.4215 L116.6517 120.4833 "/>
<path d="M116.6517 120.4833 L116.1826 119.0761 "/>
<path d="M116.1826 119.0761 L116.1826 116.7307 "/>
<path d="M119.9353 126.5814 L119.9353 134.0868 "/>
<path d="M116.1826 144.4066 L120.8734 141.1230 "/>
<path d="M116.1826 138.7776 L126.0333 138.7776 "/>
<path d="M126.0333 138.7776 L126.0333 142.5302 "/>
<path d="M126.0333 142.5302 L125.5642 143.4684 "/>
<path d="M125.5642 143.4684 L125.0952 143.9375 "/>
<path d="M125.0952 143.9375 L124.1570 144.4066 "/>
<path d="M124.1570 144.4066 L122.7497 144.4066 "/>
<path d="M122.7497 144.4066 L121.8116 143.9375 "/>
<path d="M121.8116 143.9375 L121.3425 143.4684 "/>
<path d="M121.3425 143.4684 L120.8734 142.5302 "/>
<path d="M120.8734 142.5302 L120.8734 138.7776 "/>
<path d="M125.0952 148.1592 L125.5642 148.6283 "/>
<path d="M125.5642 148.6283 L126.0333 149.5665 "/>
<path d="M126.0333 149.5665 L126.0333 151.9119 "/>
<path d="M126.0333 151.9119 L125.5642 152.8501 "/>
<path d="M125.5642 152.8501 L125.0952 153.3192 "/>
<path d="M125.0952 153.3192 L124.1570 153.7882 "/>
<path d="M124.1570 153.7882 L123.2188 153.7882 "/>
<path d="M123.2188 153.7882 L121.8116 153.3192 "/>
<path d="M121.8116 153.3192 L116.1826 147.6902 "/>
<path d="M116.1826 147.6902 L116.1826 153.7882 "/>
</g><g transform="rotate(-90.000000 61.0659 105.0036)">
<text x="61.0659" y="109.9290" transform="scale(-1 1) translate(-122.131746 0)" textLength="22.1642" font-size="13.1343" lengthAdjust="spacingAndGlyphs" text-anchor="middle" opacity="0.01" style="font-family:monospace">U2</text>
</g>
<g class="stroked-text"><desc>U2</desc>
<path d="M66.4363 97.4983 L58.4619 97.4983 "/>
<path d="M58.4619 97.4983 L57.5237 97.9673 "/>
<path d="M57.5237 97.9673 L57.0546 98.4364 "/>
<path d="M57.0546 98.4364 L56.5856 99.3746 "/>
<path d="M56.5856 99.3746 L56.5856 101.2509 "/>
<path d="M56.5856 101.2509 L57.0546 102.1891 "/>
<path d="M57.0546 102.1891 L57.5237 102.6582 "/>
<path d="M57.5237 102.6582 L58.4619 103.1273 "/>
<path d="M58.4619 103.1273 L66.4363 103.1273 "/>
<path d="M65.4981 107.3490 L65.9672 107.8181 "/>
<path d="M65.9672 107.8181 L66.4363 108.7563 "/>
<path d="M66.4363 108.7563 L66.4363 111.1017 "/>
<path d="M66.4363 111.1017 L65.9672 112.0398 "/>
<path d="M65.9672 112.0398 L65.4981 112.5089 "/>
<path d="M65.4981 112.5089 L64.5600 112.9780 "/>
<path d="M64.5600 112.9780 L63.6218 112.9780 "/>
<path d="M63.6218 112.9780 L62.2146 112.5089 "/>
<path d="M62.2146 112.5089 L56.5856 106.8799 "/>
<path d="M56.5856 106.8799 L56.5856 112.9780 "/>
</g></g>
<g style="fill:#000084; fill-opacity:0.0;  stroke:#000084; stroke-width:0.5910; stroke-opacity:1;  stroke-linecap:round; stroke-linejoin:round;">
<g transform="rotate(-90.000000 223.1599 81.8543)">
<text x="223.1599" y="83.8245" transform="scale(-1 1) translate(-446.319805 0)" textLength="8.6780" font-size="5.2537" lengthAdjust="spacingAndGlyphs" text-anchor="middle" opacity="0.01" style="font-family:monospace">R1</text>
</g>
<g class="stroked-text"><desc>R1</desc>
<path d="M221.3678 81.1976 L223.2441 79.8842 "/>
<path d="M221.3678 78.9460 L225.3081 78.9460 "/>
<path d="M225.3081 78.9460 L225.3081 80.4471 "/>
<path d="M225.3081 80.4471 L225.1204 80.8224 "/>
<path d="M225.1204 80.8224 L224.9328 81.0100 "/>
<path d="M224.9328 81.0100 L224.5575 81.1976 "/>
<path d="M224.5575 81.1976 L223.9947 81.1976 "/>
<path d="M223.9947 81.1976 L223.6194 81.0100 "/>
<path d="M223.6194 81.0100 L223.4318 80.8224 "/>
<path d="M223.4318 80.8224 L223.2441 80.4471 "/>
<path d="M223.2441 80.4471 L223.2441 78.9460 "/>
<path d="M221.3678 84.9503 L221.3678 82.6987 "/>
<path d="M221.3678 83.8245 L225.3081 83.8245 "/>
<path d="M225.3081 83.8245 L224.7452 83.4492 "/>
<path d="M224.7452 83.4492 L224.3699 83.0740 "/>
<path d="M224.3699 83.0740 L224.1823 82.6987 "/>
</g></g>
<g style="fill:#000084; fill-opacity:0.0;  stroke:#000084; stroke-width:1.4776; stroke-opacity:1;  stroke-linecap:round; stroke-linejoin:round;">
<path d="M237.1578 39.0036 L237.1578 62.6454 "/>
<path d="M237.1578 62.6454 L187.9041 62.6454 "/>
<path d="M187.9041 39.0036 L237.1578 39.0036 "/>
<path d="M187.9041 62.6454 L187.9041 39.0036 "/>
</g>
<g style="fill:#000084; fill-opacity:0.0;  stroke:#000084; stroke-width:0.9851; stroke-opacity:1;  stroke-linecap:round; stroke-linejoin:round;">
<path d="M183.8554 133.9697 L175.9748 133.9697 "/>
<path d="M175.9748 133.9697 L175.9748 118.2085 "/>
<path d="M183.8554 118.2085 L183.8554 133.9697 "/>
<path d="M175.9748 118.2085 L183.8554 118.2085 "/>
<path d="M211.3390 88.9961 L202.4733 88.9961 "/>
<path d="M202.4733 88.9961 L202.4733 76.1902 "/>
<path d="M208.8763 84.5633 L204.9360 84.5633 "/>
<path d="M206.9062 84.5633 L206.9062 86.0409 "/>
<path d="M206.9062 84.5633 L208.8763 81.6081 "/>
<path d="M208.8763 81.6081 L204.9360 81.6081 "/>
<path d="M206.9062 81.6081 L206.9062 80.1305 "/>
<path d="M204.9360 81.6081 L206.9062 84.5633 "/>
<path d="M211.3390 76.1902 L211.3390 88.9961 "/>
<path d="M202.4733 76.1902 L211.3390 76.1902 "/>
<path d="M290.8720 145.6379 L290.8720 64.3693 "/>
<path d="M250.9764 145.6379 L290.8720 145.6379 "/>
<path d="M250.9764 145.6379 L250.9764 64.3693 "/>
<path d="M250.9764 128.3991 L257.9420 123.4737 "/>
<path d="M257.9420 123.4737 L250.9764 118.5484 "/>
<path d="M250.9764 64.3693 L290.8720 64.3693 "/>
<path d="M127.1841 123.4639 L135.0647 123.4639 "/>
<path d="M135.0647 123.4639 L135.0647 139.2251 "/>
<path d="M127.1841 139.2251 L127.1841 123.4639 "/>
<path d="M135.0647 139.2251 L127.1841 139.2251 "/>
<path d="M173.1674 90.7200 L165.2868 90.7200 "/>
<path d="M165.2868 90.7200 L165.2868 74.9588 "/>
<path d="M173.1674 74.9588 L173.1674 90.7200 "/>
<path d="M165.2868 74.9588 L173.1674 74.9588 "/>
</g>
<g style="fill:#000084; fill-opacity:0.0;  stroke:#000084; stroke-width:1.4776; stroke-opacity:1;  stroke-linecap:round; stroke-linejoin:round;">
<path d="M197.1736 96.3743 L182.1611 96.3743 "/>
<path d="M182.1611 96.3743 L182.1611 86.3660 "/>
<path d="M197.1736 86.3660 L197.1736 96.3743 "/>
<path d="M182.1611 76.3576 L182.1611 66.3493 "/>
<path d="M197.1736 66.3493 L197.1736 76.3576 "/>
<path d="M182.1611 66.3493 L197.1736 66.3493 "/>
</g>
<g style="fill:#000084; fill-opacity:0.0;  stroke:#000084; stroke-width:0.9851; stroke-opacity:1;  stroke-linecap:round; stroke-linejoin:round;">
<path d="M198.5724 127.6997 L222.7068 127.6997 "/>
<path d="M198.5724 127.6997 L192.1695 121.2967 "/>
<path d="M222.7068 109.9684 L222.7068 127.6997 "/>
<path d="M192.1695 109.9684 L192.1695 121.2967 "/>
<path d="M192.1695 109.9684 L222.7068 109.9684 "/>
<path d="M128.4351 74.6731 L136.3157 74.6731 "/>
<path d="M136.3157 74.6731 L136.3157 90.4343 "/>
<path d="M128.4351 90.4343 L128.4351 74.6731 "/>
<path d="M136.3157 90.4343 L128.4351 90.4343 "/>
<path d="M147.2008 74.6731 L155.0814 74.6731 "/>
<path d="M155.0814 74.6731 L155.0814 90.4343 "/>
<path d="M147.2008 90.4343 L147.2008 74.6731 "/>
<path d="M155.0814 90.4343 L147.2008 90.4343 "/>
<path d="M110.8121 154.7499 L21.1704 154.7499 "/>
<path d="M21.1704 154.7499 L11.3196 144.8991 "/>
<path d="M11.3196 144.8991 L11.3196 55.2573 "/>
<path d="M110.8121 55.2573 L110.8121 154.7499 "/>
<path d="M11.3196 55.2573 L110.8121 55.2573 "/>
<path d="M227.1002 89.7349 L219.2196 89.7349 "/>
<path d="M219.2196 89.7349 L219.2196 73.9737 "/>
<path d="M227.1002 73.9737 L227.1002 89.7349 "/>
<path d="M219.2196 73.9737 L227.1002 73.9737 "/>
<g>
</g>
<g>
</g>
<g>
</g>
<g>
</g>
<g>
</g>
<g>
</g>
<g>
</g>
<g>
</g>
<g>
</g>
<g>
</g>
<g>
</g>
<g>
</g>
<g>
</g>
<g>
</g>
<g>
</g>
<g>
</g>
<g>
</g>
<g>
</g>
<g>
</g>
<g>
</g>
<g>
</g>
<g>
</g>
<g>
</g>
</g> 
<svg:g><svg:g><svg:title>SVG Image created as TFCO201-Edge_Cuts.svg date 2023/10/01 20:38:27 </svg:title>
  <svg:desc>Image generated by PCBNEW </svg:desc>
<svg:g style="fill:#C2C200; fill-opacity:1.0000;stroke:#C2C200; stroke-opacity:1.0000; stroke-linecap:round; stroke-linejoin:round;" transform="translate(0 0) scale(1 1)">
</svg:g>
<svg:g style="fill:#C2C200; fill-opacity:0.0;  stroke:#C2C200; stroke-width:0.0000; stroke-opacity:1;  stroke-linecap:round; stroke-linejoin:round;">
</svg:g>
<svg:g style="fill:#C2C200; fill-opacity:0.0;  stroke:#C2C200; stroke-width:1.4776; stroke-opacity:1;  stroke-linecap:round; stroke-linejoin:round;">
<svg:path style="fill:#C2C200; fill-opacity:0.0;  stroke:#C2C200; stroke-width:1.4776; stroke-opacity:1;  stroke-linecap:round; stroke-linejoin:round;fill:none" d="M 296.2623,31.1230 0.7399,31.1230 0.7399,178.8842 296.2623,178.8842 Z"/> 
</svg:g>
<svg:g style="fill:#C2C200; fill-opacity:0.0;  stroke:#C2C200; stroke-width:0.4925; stroke-opacity:1;  stroke-linecap:round; stroke-linejoin:round;">
<svg:path d="M223.3668 57.7200 L223.3668 43.9290 "/>
<svg:path d="M220.4115 40.9737 L204.6504 40.9737 "/>
<svg:path d="M204.6504 60.6752 L220.4115 60.6752 "/>
<svg:path d="M201.6951 43.9290 L201.6951 57.7200 "/>
<svg:path d="M223.3668 43.9290 A2.9552 2.9552 0.0 0 0 220.4115 40.9737"/>
<svg:path d="M220.4115 60.6752 A2.9552 2.9552 0.0 0 0 223.3668 57.7200"/>
<svg:path d="M204.6504 40.9737 A2.9552 2.9552 0.0 0 0 201.6951 43.9290"/>
<svg:path d="M201.6951 57.7200 A2.9552 2.9552 0.0 0 0 204.6504 60.6752"/>
<svg:g>
</svg:g>
<svg:g>
</svg:g>
<svg:g>
</svg:g>
<svg:g>
</svg:g>
<svg:g>
</svg:g>
<svg:g>
</svg:g>
<svg:g>
</svg:g>
<svg:g>
</svg:g>
<svg:g>
</svg:g>
<svg:g>
</svg:g>
<svg:g>
</svg:g>
<svg:g>
</svg:g>
<svg:g>
</svg:g>
<svg:g>
</svg:g>
<svg:g>
</svg:g>
<svg:g>
</svg:g>
<svg:g>
</svg:g>
<svg:g>
</svg:g>
<svg:g>
</svg:g>
<svg:g>
</svg:g>
<svg:g>
</svg:g>
<svg:g>
</svg:g>
<svg:g>
</svg:g>
</svg:g> 
</svg:g></svg:g></svg>
