%TF.GenerationSoftware,KiCad,Pcbnew,8.0.6+1*%
%TF.CreationDate,2025-01-11T17:19:36+00:00*%
%TF.ProjectId,TFCO201,5446434f-3230-4312-9e6b-696361645f70,rev?*%
%TF.SameCoordinates,Original*%
%TF.FileFunction,Copper,L1,Top*%
%TF.FilePolarity,Positive*%
%FSLAX46Y46*%
G04 Gerber Fmt 4.6, Leading zero omitted, Abs format (unit mm)*
G04 Created by KiCad (PCBNEW 8.0.6+1) date 2025-01-11 17:19:36*
%MOMM*%
%LPD*%
G01*
G04 APERTURE LIST*
G04 Aperture macros list*
%AMRoundRect*
0 Rectangle with rounded corners*
0 $1 Rounding radius*
0 $2 $3 $4 $5 $6 $7 $8 $9 X,Y pos of 4 corners*
0 Add a 4 corners polygon primitive as box body*
4,1,4,$2,$3,$4,$5,$6,$7,$8,$9,$2,$3,0*
0 Add four circle primitives for the rounded corners*
1,1,$1+$1,$2,$3*
1,1,$1+$1,$4,$5*
1,1,$1+$1,$6,$7*
1,1,$1+$1,$8,$9*
0 Add four rect primitives between the rounded corners*
20,1,$1+$1,$2,$3,$4,$5,0*
20,1,$1+$1,$4,$5,$6,$7,0*
20,1,$1+$1,$6,$7,$8,$9,0*
20,1,$1+$1,$8,$9,$2,$3,0*%
G04 Aperture macros list end*
%TA.AperFunction,SMDPad,CuDef*%
%ADD10RoundRect,0.150000X-0.700000X0.150000X-0.700000X-0.150000X0.700000X-0.150000X0.700000X0.150000X0*%
%TD*%
%TA.AperFunction,SMDPad,CuDef*%
%ADD11RoundRect,0.250000X-1.100000X0.250000X-1.100000X-0.250000X1.100000X-0.250000X1.100000X0.250000X0*%
%TD*%
%TA.AperFunction,ViaPad*%
%ADD12C,0.800000*%
%TD*%
%TA.AperFunction,Conductor*%
%ADD13C,0.400000*%
%TD*%
%TA.AperFunction,Conductor*%
%ADD14C,0.300000*%
%TD*%
G04 APERTURE END LIST*
D10*
%TO.P,J2,1*%
%TO.N,+5V*%
X4847200Y9375000D03*
%TO.P,J2,2*%
%TO.N,/SCL*%
X4847200Y8125000D03*
%TO.P,J2,3*%
%TO.N,/SDA*%
X4847200Y6875000D03*
%TO.P,J2,4*%
%TO.N,GND*%
X4847200Y5625000D03*
D11*
%TO.P,J2,MP*%
X1647200Y11225000D03*
X1647200Y3775000D03*
%TD*%
D12*
%TO.N,GND*%
X4191000Y4318000D03*
X1143000Y12827000D03*
X3937000Y12065000D03*
X2159000Y12827000D03*
X3175000Y12827000D03*
X1143000Y5461000D03*
X1143000Y2286000D03*
X1651000Y9779000D03*
X3429000Y2286000D03*
X4191000Y3175000D03*
X1016000Y8890000D03*
X2286000Y2286000D03*
X5080000Y10668000D03*
X1016000Y7747000D03*
X9046000Y11125000D03*
X9121000Y5875000D03*
X1016000Y6604000D03*
X4064000Y10668000D03*
%TO.N,+3V3*%
X18022250Y5726750D03*
X29100500Y6223000D03*
%TO.N,+5V*%
X2794000Y9398000D03*
X6350000Y9398000D03*
%TO.N,/SDA*%
X2850000Y6875000D03*
X6771000Y7950000D03*
X14595408Y8010572D03*
%TO.N,/SCL*%
X18030486Y6862177D03*
X6350000Y6858000D03*
X16637010Y7747000D03*
%TD*%
D13*
%TO.N,GND*%
X5537000Y11125000D02*
X5080000Y10668000D01*
X6796000Y5625000D02*
X4650000Y5625000D01*
X9046000Y11125000D02*
X5537000Y11125000D01*
X9121000Y5875000D02*
X7046000Y5875000D01*
X7046000Y5875000D02*
X6796000Y5625000D01*
%TO.N,+3V3*%
X28604250Y5726750D02*
X18022250Y5726750D01*
X29100500Y6223000D02*
X28604250Y5726750D01*
%TO.N,+5V*%
X4627000Y9398000D02*
X4650000Y9375000D01*
X6327000Y9375000D02*
X6350000Y9398000D01*
X4650000Y9375000D02*
X6327000Y9375000D01*
X2794000Y9398000D02*
X4627000Y9398000D01*
%TO.N,/SDA*%
X4650000Y6875000D02*
X2850000Y6875000D01*
D14*
X6771000Y7950000D02*
X14534836Y7950000D01*
X14534836Y7950000D02*
X14595408Y8010572D01*
%TO.N,/SCL*%
X15748010Y6858000D02*
X16637010Y7747000D01*
X16637010Y7747000D02*
X17145663Y7747000D01*
D13*
X4650000Y8125000D02*
X5465334Y8125000D01*
D14*
X17145663Y7747000D02*
X18030486Y6862177D01*
X6350000Y6858000D02*
X15748010Y6858000D01*
D13*
X6350000Y7240334D02*
X6350000Y6858000D01*
X5465334Y8125000D02*
X6350000Y7240334D01*
%TD*%
%TA.AperFunction,Conductor*%
%TO.N,GND*%
G36*
X869587Y14477826D02*
G01*
X885628Y14453818D01*
X886289Y14452222D01*
X886290Y14452219D01*
X922843Y14363971D01*
X971591Y14246283D01*
X971594Y14246275D01*
X1083049Y14053230D01*
X1083053Y14053224D01*
X1218747Y13876382D01*
X1376381Y13718748D01*
X1553223Y13583054D01*
X1553226Y13583052D01*
X1746274Y13471595D01*
X1952219Y13386290D01*
X2167537Y13328596D01*
X2388543Y13299500D01*
X2388545Y13299500D01*
X2611455Y13299500D01*
X2611457Y13299500D01*
X2832463Y13328596D01*
X3047781Y13386290D01*
X3253726Y13471595D01*
X3446774Y13583052D01*
X3542309Y13656359D01*
X3623618Y13718748D01*
X3623619Y13718750D01*
X3623624Y13718753D01*
X3781247Y13876376D01*
X3825074Y13933492D01*
X3916946Y14053224D01*
X3916948Y14053226D01*
X4028405Y14246274D01*
X4113710Y14452219D01*
X4113710Y14452222D01*
X4114372Y14453818D01*
X4154420Y14493867D01*
X4182739Y14499500D01*
X7211729Y14499500D01*
X7264055Y14477826D01*
X7285729Y14425500D01*
X7264055Y14373174D01*
X7252841Y14363971D01*
X7189711Y14321790D01*
X7189710Y14321788D01*
X7078212Y14210290D01*
X7078210Y14210289D01*
X6990603Y14079175D01*
X6930264Y13933502D01*
X6930261Y13933492D01*
X6899500Y13778841D01*
X6899500Y12221160D01*
X6930261Y12066509D01*
X6930264Y12066499D01*
X6990603Y11920826D01*
X6990605Y11920823D01*
X6990606Y11920821D01*
X7078211Y11789711D01*
X7189711Y11678211D01*
X7320821Y11590606D01*
X7320826Y11590604D01*
X7320825Y11590604D01*
X7466498Y11530265D01*
X7466503Y11530263D01*
X7621158Y11499500D01*
X7621160Y11499500D01*
X9378840Y11499500D01*
X9378842Y11499500D01*
X9533497Y11530263D01*
X9679179Y11590606D01*
X9810289Y11678211D01*
X9921789Y11789711D01*
X10009394Y11920821D01*
X10069737Y12066503D01*
X10100500Y12221158D01*
X10100500Y12300000D01*
X10100500Y12365892D01*
X10100500Y13765892D01*
X10100500Y13778842D01*
X10069737Y13933497D01*
X10020144Y14053226D01*
X10009396Y14079175D01*
X10009395Y14079177D01*
X10009394Y14079179D01*
X9921789Y14210289D01*
X9810289Y14321789D01*
X9747158Y14363972D01*
X9715693Y14411063D01*
X9726742Y14466612D01*
X9773834Y14498078D01*
X9788271Y14499500D01*
X10817261Y14499500D01*
X10869587Y14477826D01*
X10885628Y14453818D01*
X10886289Y14452222D01*
X10886290Y14452219D01*
X10922843Y14363971D01*
X10971591Y14246283D01*
X10971594Y14246275D01*
X11083049Y14053230D01*
X11083053Y14053224D01*
X11218747Y13876382D01*
X11376381Y13718748D01*
X11553223Y13583054D01*
X11553226Y13583052D01*
X11746274Y13471595D01*
X11952219Y13386290D01*
X12167537Y13328596D01*
X12388543Y13299500D01*
X12388545Y13299500D01*
X12611455Y13299500D01*
X12611457Y13299500D01*
X12832463Y13328596D01*
X13047781Y13386290D01*
X13253726Y13471595D01*
X13446774Y13583052D01*
X13542309Y13656359D01*
X13623618Y13718748D01*
X13623619Y13718750D01*
X13623624Y13718753D01*
X13781247Y13876376D01*
X13825074Y13933492D01*
X13916946Y14053224D01*
X13916948Y14053226D01*
X14028405Y14246274D01*
X14113710Y14452219D01*
X14113710Y14452222D01*
X14114372Y14453818D01*
X14154420Y14493867D01*
X14182739Y14499500D01*
X20817261Y14499500D01*
X20869587Y14477826D01*
X20885628Y14453818D01*
X20886289Y14452222D01*
X20886290Y14452219D01*
X20922843Y14363971D01*
X20971591Y14246283D01*
X20971594Y14246275D01*
X21083049Y14053230D01*
X21083053Y14053224D01*
X21218747Y13876382D01*
X21376381Y13718748D01*
X21553223Y13583054D01*
X21553226Y13583052D01*
X21746274Y13471595D01*
X21952219Y13386290D01*
X22167537Y13328596D01*
X22388543Y13299500D01*
X22388545Y13299500D01*
X22611455Y13299500D01*
X22611457Y13299500D01*
X22832463Y13328596D01*
X23047781Y13386290D01*
X23253726Y13471595D01*
X23446774Y13583052D01*
X23542309Y13656359D01*
X23623618Y13718748D01*
X23623619Y13718750D01*
X23623624Y13718753D01*
X23781247Y13876376D01*
X23825074Y13933492D01*
X23916946Y14053224D01*
X23916948Y14053226D01*
X24028405Y14246274D01*
X24113710Y14452219D01*
X24113710Y14452222D01*
X24114372Y14453818D01*
X24154420Y14493867D01*
X24182739Y14499500D01*
X29425500Y14499500D01*
X29477826Y14477826D01*
X29499500Y14425500D01*
X29499500Y6818455D01*
X29477826Y6766129D01*
X29425500Y6744455D01*
X29397182Y6750088D01*
X29257264Y6808044D01*
X29257260Y6808045D01*
X29100500Y6828682D01*
X28943739Y6808045D01*
X28943738Y6808045D01*
X28797658Y6747536D01*
X28672220Y6651285D01*
X28672215Y6651280D01*
X28575964Y6525842D01*
X28515455Y6379762D01*
X28515455Y6379761D01*
X28494818Y6223001D01*
X28494818Y6218151D01*
X28492938Y6218151D01*
X28479958Y6169745D01*
X28473588Y6162482D01*
X28460033Y6148928D01*
X28407711Y6127250D01*
X18508342Y6127250D01*
X18456016Y6148924D01*
X18451571Y6153992D01*
X18450527Y6155037D01*
X18349449Y6232596D01*
X18321130Y6281645D01*
X18335789Y6336352D01*
X18349449Y6350012D01*
X18350038Y6350464D01*
X18458768Y6433895D01*
X18555022Y6559336D01*
X18615530Y6705415D01*
X18636168Y6862177D01*
X18615530Y7018939D01*
X18555022Y7165018D01*
X18498890Y7238171D01*
X18458770Y7290457D01*
X18458765Y7290462D01*
X18333327Y7386713D01*
X18187247Y7447222D01*
X18051123Y7465143D01*
X18030486Y7467859D01*
X18030485Y7467859D01*
X17969462Y7459826D01*
X17914755Y7474485D01*
X17907478Y7480867D01*
X17360875Y8027470D01*
X17280952Y8073614D01*
X17278643Y8074233D01*
X17274644Y8075304D01*
X17191809Y8097500D01*
X17191807Y8097500D01*
X17161469Y8097500D01*
X17109143Y8119174D01*
X17102761Y8126452D01*
X17065294Y8175280D01*
X17065289Y8175285D01*
X16939851Y8271536D01*
X16793771Y8332045D01*
X16637010Y8352682D01*
X16480249Y8332045D01*
X16480248Y8332045D01*
X16334168Y8271536D01*
X16208730Y8175285D01*
X16208725Y8175280D01*
X16112474Y8049842D01*
X16051965Y7903762D01*
X16051965Y7903761D01*
X16031328Y7747000D01*
X16039361Y7685978D01*
X16024702Y7631271D01*
X16018320Y7623994D01*
X15624502Y7230174D01*
X15572176Y7208500D01*
X6874459Y7208500D01*
X6822133Y7230174D01*
X6815757Y7237444D01*
X6815199Y7238171D01*
X6800533Y7292876D01*
X6828845Y7341929D01*
X6864241Y7356594D01*
X6927762Y7364956D01*
X7073841Y7425464D01*
X7199282Y7521718D01*
X7212316Y7538705D01*
X7236751Y7570548D01*
X7285800Y7598867D01*
X7295459Y7599500D01*
X14119578Y7599500D01*
X14164626Y7584208D01*
X14237931Y7527959D01*
X14292567Y7486036D01*
X14438646Y7425528D01*
X14595408Y7404890D01*
X14752170Y7425528D01*
X14898249Y7486036D01*
X15023690Y7582290D01*
X15119944Y7707731D01*
X15180452Y7853810D01*
X15201090Y8010572D01*
X15180452Y8167334D01*
X15119944Y8313413D01*
X15070170Y8378280D01*
X15023692Y8438852D01*
X15023687Y8438857D01*
X14898249Y8535108D01*
X14752169Y8595617D01*
X14595408Y8616254D01*
X14438647Y8595617D01*
X14438646Y8595617D01*
X14292566Y8535108D01*
X14167128Y8438857D01*
X14167123Y8438852D01*
X14083178Y8329452D01*
X14034129Y8301133D01*
X14024470Y8300500D01*
X7295459Y8300500D01*
X7243133Y8322174D01*
X7236751Y8329452D01*
X7199284Y8378280D01*
X7199279Y8378285D01*
X7073841Y8474536D01*
X6927761Y8535045D01*
X6771000Y8555682D01*
X6614239Y8535045D01*
X6614238Y8535045D01*
X6468158Y8474536D01*
X6342720Y8378285D01*
X6342715Y8378280D01*
X6246464Y8252842D01*
X6188506Y8112921D01*
X6148457Y8072873D01*
X6091820Y8072873D01*
X6067813Y8088914D01*
X5919374Y8237353D01*
X5897700Y8289679D01*
X5897700Y8308254D01*
X5897700Y8308260D01*
X5887773Y8376393D01*
X5836398Y8481483D01*
X5753683Y8564198D01*
X5753682Y8564199D01*
X5648594Y8615573D01*
X5580464Y8625500D01*
X5580460Y8625500D01*
X4113940Y8625500D01*
X4113935Y8625500D01*
X4045806Y8615573D01*
X4045805Y8615573D01*
X3940717Y8564199D01*
X3858001Y8481483D01*
X3806627Y8376395D01*
X3806627Y8376394D01*
X3796700Y8308265D01*
X3796700Y7941736D01*
X3806627Y7873607D01*
X3806627Y7873606D01*
X3858001Y7768518D01*
X3858002Y7768517D01*
X3940717Y7685802D01*
X4045807Y7634427D01*
X4113940Y7624500D01*
X5368789Y7624500D01*
X5421115Y7602826D01*
X5522115Y7501826D01*
X5543789Y7449500D01*
X5522115Y7397174D01*
X5469789Y7375500D01*
X4113935Y7375500D01*
X4045806Y7365573D01*
X4045805Y7365573D01*
X3940717Y7314199D01*
X3923693Y7297174D01*
X3871367Y7275500D01*
X3336092Y7275500D01*
X3283766Y7297174D01*
X3279321Y7302242D01*
X3278277Y7303287D01*
X3152841Y7399536D01*
X3006761Y7460045D01*
X2850000Y7480682D01*
X2693239Y7460045D01*
X2693238Y7460045D01*
X2547158Y7399536D01*
X2421720Y7303285D01*
X2421715Y7303280D01*
X2325464Y7177842D01*
X2264955Y7031762D01*
X2264955Y7031761D01*
X2244318Y6875000D01*
X2264955Y6718240D01*
X2264955Y6718239D01*
X2325464Y6572159D01*
X2421715Y6446721D01*
X2421720Y6446716D01*
X2502897Y6384427D01*
X2547159Y6350464D01*
X2693238Y6289956D01*
X2850000Y6269318D01*
X3006762Y6289956D01*
X3152841Y6350464D01*
X3278282Y6446718D01*
X3278285Y6446723D01*
X3281707Y6450144D01*
X3283037Y6448814D01*
X3326435Y6473867D01*
X3336092Y6474500D01*
X3766866Y6474500D01*
X3819192Y6452826D01*
X3840866Y6400500D01*
X3819192Y6348174D01*
X3804535Y6336805D01*
X3740701Y6299055D01*
X3623145Y6181499D01*
X3538518Y6038402D01*
X3492207Y5879000D01*
X6202192Y5879000D01*
X6155881Y6038402D01*
X6072949Y6178632D01*
X6064969Y6234704D01*
X6098975Y6279996D01*
X6155047Y6287976D01*
X6164961Y6284669D01*
X6193238Y6272956D01*
X6350000Y6252318D01*
X6506762Y6272956D01*
X6652841Y6333464D01*
X6778282Y6429718D01*
X6812159Y6473867D01*
X6815751Y6478548D01*
X6864800Y6506867D01*
X6874459Y6507500D01*
X15794156Y6507500D01*
X15794156Y6507501D01*
X15883298Y6531386D01*
X15963222Y6577530D01*
X16514002Y7128312D01*
X16566327Y7149985D01*
X16575984Y7149353D01*
X16637010Y7141318D01*
X16793772Y7161956D01*
X16939851Y7222464D01*
X17021147Y7284845D01*
X17075851Y7299503D01*
X17118519Y7278462D01*
X17411796Y6985185D01*
X17433470Y6932859D01*
X17432837Y6923201D01*
X17424804Y6862178D01*
X17445441Y6705417D01*
X17445441Y6705416D01*
X17505950Y6559336D01*
X17602201Y6433898D01*
X17602206Y6433893D01*
X17703286Y6356332D01*
X17731605Y6307283D01*
X17716946Y6252576D01*
X17703287Y6238916D01*
X17593967Y6155032D01*
X17593965Y6155030D01*
X17497714Y6029592D01*
X17437205Y5883512D01*
X17437205Y5883511D01*
X17416568Y5726750D01*
X17437205Y5569990D01*
X17437205Y5569989D01*
X17497714Y5423909D01*
X17593965Y5298471D01*
X17593970Y5298466D01*
X17593973Y5298464D01*
X17719409Y5202214D01*
X17865488Y5141706D01*
X18022250Y5121068D01*
X18179012Y5141706D01*
X18325091Y5202214D01*
X18450532Y5298468D01*
X18450535Y5298473D01*
X18453957Y5301894D01*
X18455287Y5300564D01*
X18498685Y5325617D01*
X18508342Y5326250D01*
X28656976Y5326250D01*
X28656977Y5326250D01*
X28758838Y5353543D01*
X28850163Y5406270D01*
X29039977Y5596086D01*
X29092302Y5617759D01*
X29099024Y5617318D01*
X29100499Y5617318D01*
X29100499Y5617319D01*
X29100500Y5617318D01*
X29257262Y5637956D01*
X29397182Y5695913D01*
X29453818Y5695913D01*
X29493867Y5655865D01*
X29499500Y5627546D01*
X29499500Y574500D01*
X29477826Y522174D01*
X29425500Y500500D01*
X24182739Y500500D01*
X24130413Y522174D01*
X24114372Y546182D01*
X24102642Y574500D01*
X24028405Y753726D01*
X23916948Y946774D01*
X23916946Y946777D01*
X23781252Y1123619D01*
X23623618Y1281253D01*
X23446776Y1416947D01*
X23446770Y1416951D01*
X23253725Y1528406D01*
X23253717Y1528409D01*
X23047782Y1613710D01*
X22832461Y1671405D01*
X22669647Y1692840D01*
X22611457Y1700500D01*
X22388543Y1700500D01*
X22337122Y1693731D01*
X22167538Y1671405D01*
X21952217Y1613710D01*
X21746282Y1528409D01*
X21746274Y1528406D01*
X21553229Y1416951D01*
X21553223Y1416947D01*
X21376381Y1281253D01*
X21218747Y1123619D01*
X21083053Y946777D01*
X21083049Y946771D01*
X20971594Y753726D01*
X20971591Y753718D01*
X20913302Y612995D01*
X20897358Y574500D01*
X20885628Y546182D01*
X20845580Y506133D01*
X20817261Y500500D01*
X14182739Y500500D01*
X14130413Y522174D01*
X14114372Y546182D01*
X14102642Y574500D01*
X14028405Y753726D01*
X13916948Y946774D01*
X13916946Y946777D01*
X13781252Y1123619D01*
X13623618Y1281253D01*
X13446776Y1416947D01*
X13446770Y1416951D01*
X13253725Y1528406D01*
X13253717Y1528409D01*
X13047782Y1613710D01*
X12832461Y1671405D01*
X12669647Y1692840D01*
X12611457Y1700500D01*
X12388543Y1700500D01*
X12337122Y1693731D01*
X12167538Y1671405D01*
X11952217Y1613710D01*
X11746282Y1528409D01*
X11746274Y1528406D01*
X11553229Y1416951D01*
X11553223Y1416947D01*
X11376381Y1281253D01*
X11218747Y1123619D01*
X11083053Y946777D01*
X11083049Y946771D01*
X10971594Y753726D01*
X10971591Y753718D01*
X10913302Y612995D01*
X10897358Y574500D01*
X10885628Y546182D01*
X10845580Y506133D01*
X10817261Y500500D01*
X4182739Y500500D01*
X4130413Y522174D01*
X4114372Y546182D01*
X4102642Y574500D01*
X4028405Y753726D01*
X3916948Y946774D01*
X3916946Y946777D01*
X3781252Y1123619D01*
X3623618Y1281253D01*
X3446776Y1416947D01*
X3446770Y1416951D01*
X3253725Y1528406D01*
X3253717Y1528409D01*
X3047782Y1613710D01*
X2832461Y1671405D01*
X2669647Y1692840D01*
X2611457Y1700500D01*
X2388543Y1700500D01*
X2337122Y1693731D01*
X2167538Y1671405D01*
X1952217Y1613710D01*
X1746282Y1528409D01*
X1746274Y1528406D01*
X1553229Y1416951D01*
X1553223Y1416947D01*
X1376381Y1281253D01*
X1218747Y1123619D01*
X1083053Y946777D01*
X1083049Y946771D01*
X971594Y753726D01*
X971591Y753718D01*
X913302Y612995D01*
X897358Y574500D01*
X885628Y546182D01*
X845580Y506133D01*
X817261Y500500D01*
X574500Y500500D01*
X522174Y522174D01*
X500500Y574500D01*
X500500Y2693000D01*
X522174Y2745326D01*
X574500Y2767000D01*
X1393200Y2767000D01*
X1901200Y2767000D01*
X2797703Y2767000D01*
X2797704Y2767001D01*
X2901525Y2777607D01*
X3069724Y2833343D01*
X3220538Y2926366D01*
X3220542Y2926368D01*
X3345832Y3051658D01*
X3345834Y3051662D01*
X3438857Y3202476D01*
X3494593Y3370675D01*
X3505199Y3474496D01*
X3505200Y3474498D01*
X3505200Y3521000D01*
X1901200Y3521000D01*
X1901200Y2767000D01*
X1393200Y2767000D01*
X1393200Y4029000D01*
X1901200Y4029000D01*
X3505200Y4029000D01*
X3505200Y4075503D01*
X3505199Y4075505D01*
X3494593Y4179326D01*
X3438857Y4347525D01*
X3345834Y4498339D01*
X3345832Y4498342D01*
X3220542Y4623632D01*
X3220538Y4623635D01*
X3069724Y4716658D01*
X2901525Y4772394D01*
X2797704Y4783000D01*
X1901200Y4783000D01*
X1901200Y4029000D01*
X1393200Y4029000D01*
X1393200Y4783000D01*
X574500Y4783000D01*
X522174Y4804674D01*
X500500Y4857000D01*
X500500Y5371000D01*
X3492207Y5371000D01*
X3538518Y5211599D01*
X3623145Y5068502D01*
X3740701Y4950946D01*
X3883798Y4866319D01*
X4043445Y4819936D01*
X4080743Y4817001D01*
X4593200Y4817001D01*
X5101200Y4817001D01*
X5613655Y4817001D01*
X5613656Y4817002D01*
X5650952Y4819936D01*
X5810601Y4866319D01*
X5953698Y4950946D01*
X6071254Y5068502D01*
X6155881Y5211599D01*
X6202193Y5371000D01*
X5101200Y5371000D01*
X5101200Y4817001D01*
X4593200Y4817001D01*
X4593200Y5371000D01*
X3492207Y5371000D01*
X500500Y5371000D01*
X500500Y9398000D01*
X2188318Y9398000D01*
X2208955Y9241240D01*
X2208955Y9241239D01*
X2269464Y9095159D01*
X2365715Y8969721D01*
X2365720Y8969716D01*
X2387732Y8952826D01*
X2491159Y8873464D01*
X2637238Y8812956D01*
X2794000Y8792318D01*
X2950762Y8812956D01*
X3096841Y8873464D01*
X3222282Y8969718D01*
X3222285Y8969723D01*
X3225707Y8973144D01*
X3227037Y8971814D01*
X3270435Y8996867D01*
X3280092Y8997500D01*
X3848367Y8997500D01*
X3900693Y8975826D01*
X3940717Y8935802D01*
X4045807Y8884427D01*
X4113940Y8874500D01*
X4113946Y8874500D01*
X5580454Y8874500D01*
X5580460Y8874500D01*
X5648593Y8884427D01*
X5753683Y8935802D01*
X5770707Y8952826D01*
X5823033Y8974500D01*
X5890366Y8974500D01*
X5935414Y8959208D01*
X5965918Y8935802D01*
X6047159Y8873464D01*
X6193238Y8812956D01*
X6350000Y8792318D01*
X6506762Y8812956D01*
X6652841Y8873464D01*
X6778282Y8969718D01*
X6874536Y9095159D01*
X6935044Y9241238D01*
X6955682Y9398000D01*
X6935044Y9554762D01*
X6874536Y9700841D01*
X6816763Y9776133D01*
X6778284Y9826280D01*
X6778279Y9826285D01*
X6652841Y9922536D01*
X6506761Y9983045D01*
X6350000Y10003682D01*
X6193239Y9983045D01*
X6193238Y9983045D01*
X6047158Y9922536D01*
X5921720Y9826285D01*
X5921719Y9826284D01*
X5921716Y9826280D01*
X5904966Y9804452D01*
X5855919Y9776133D01*
X5846259Y9775500D01*
X5823033Y9775500D01*
X5770707Y9797174D01*
X5753682Y9814199D01*
X5648594Y9865573D01*
X5580464Y9875500D01*
X5580460Y9875500D01*
X4113940Y9875500D01*
X4113935Y9875500D01*
X4045806Y9865573D01*
X4045805Y9865573D01*
X3940717Y9814199D01*
X3938022Y9812274D01*
X3895024Y9798500D01*
X3280092Y9798500D01*
X3227766Y9820174D01*
X3223321Y9825242D01*
X3222277Y9826287D01*
X3096841Y9922536D01*
X2950761Y9983045D01*
X2794000Y10003682D01*
X2637239Y9983045D01*
X2637238Y9983045D01*
X2491158Y9922536D01*
X2365720Y9826285D01*
X2365715Y9826280D01*
X2269464Y9700842D01*
X2208955Y9554762D01*
X2208955Y9554761D01*
X2188318Y9398000D01*
X500500Y9398000D01*
X500500Y10143000D01*
X522174Y10195326D01*
X574500Y10217000D01*
X1393200Y10217000D01*
X1901200Y10217000D01*
X2797703Y10217000D01*
X2797704Y10217001D01*
X2901525Y10227607D01*
X3069724Y10283343D01*
X3220538Y10376366D01*
X3220542Y10376368D01*
X3345832Y10501658D01*
X3345834Y10501662D01*
X3438857Y10652476D01*
X3494593Y10820675D01*
X3505199Y10924496D01*
X3505200Y10924498D01*
X3505200Y10971000D01*
X1901200Y10971000D01*
X1901200Y10217000D01*
X1393200Y10217000D01*
X1393200Y11479000D01*
X1901200Y11479000D01*
X3505200Y11479000D01*
X3505200Y11525503D01*
X3505199Y11525505D01*
X3494593Y11629326D01*
X3438857Y11797525D01*
X3345834Y11948339D01*
X3345832Y11948342D01*
X3220542Y12073632D01*
X3220538Y12073635D01*
X3069724Y12166658D01*
X2901525Y12222394D01*
X2797704Y12233000D01*
X1901200Y12233000D01*
X1901200Y11479000D01*
X1393200Y11479000D01*
X1393200Y12233000D01*
X574500Y12233000D01*
X522174Y12254674D01*
X500500Y12307000D01*
X500500Y14425500D01*
X522174Y14477826D01*
X574500Y14499500D01*
X817261Y14499500D01*
X869587Y14477826D01*
G37*
%TD.AperFunction*%
%TD*%
M02*
