%TF.GenerationSoftware,KiCad,Pcbnew,8.0.6+1*%
%TF.CreationDate,2025-01-11T17:19:36+00:00*%
%TF.ProjectId,TFCO201,5446434f-3230-4312-9e6b-696361645f70,rev?*%
%TF.SameCoordinates,Original*%
%TF.FileFunction,Copper,L2,Bot*%
%TF.FilePolarity,Positive*%
%FSLAX46Y46*%
G04 Gerber Fmt 4.6, Leading zero omitted, Abs format (unit mm)*
G04 Created by KiCad (PCBNEW 8.0.6+1) date 2025-01-11 17:19:36*
%MOMM*%
%LPD*%
G01*
G04 APERTURE LIST*
G04 Aperture macros list*
%AMRoundRect*
0 Rectangle with rounded corners*
0 $1 Rounding radius*
0 $2 $3 $4 $5 $6 $7 $8 $9 X,Y pos of 4 corners*
0 Add a 4 corners polygon primitive as box body*
4,1,4,$2,$3,$4,$5,$6,$7,$8,$9,$2,$3,0*
0 Add four circle primitives for the rounded corners*
1,1,$1+$1,$2,$3*
1,1,$1+$1,$4,$5*
1,1,$1+$1,$6,$7*
1,1,$1+$1,$8,$9*
0 Add four rect primitives between the rounded corners*
20,1,$1+$1,$2,$3,$4,$5,0*
20,1,$1+$1,$4,$5,$6,$7,0*
20,1,$1+$1,$6,$7,$8,$9,0*
20,1,$1+$1,$8,$9,$2,$3,0*%
G04 Aperture macros list end*
%TA.AperFunction,SMDPad,CuDef*%
%ADD10RoundRect,0.166667X0.458333X0.583333X-0.458333X0.583333X-0.458333X-0.583333X0.458333X-0.583333X0*%
%TD*%
%TA.AperFunction,SMDPad,CuDef*%
%ADD11RoundRect,0.166667X-0.458333X-0.583333X0.458333X-0.583333X0.458333X0.583333X-0.458333X0.583333X0*%
%TD*%
%TA.AperFunction,SMDPad,CuDef*%
%ADD12RoundRect,0.218750X0.256250X-0.218750X0.256250X0.218750X-0.256250X0.218750X-0.256250X-0.218750X0*%
%TD*%
%TA.AperFunction,SMDPad,CuDef*%
%ADD13R,0.700000X0.600000*%
%TD*%
%TA.AperFunction,SMDPad,CuDef*%
%ADD14RoundRect,0.150000X0.700000X-0.150000X0.700000X0.150000X-0.700000X0.150000X-0.700000X-0.150000X0*%
%TD*%
%TA.AperFunction,SMDPad,CuDef*%
%ADD15RoundRect,0.250000X1.100000X-0.250000X1.100000X0.250000X-1.100000X0.250000X-1.100000X-0.250000X0*%
%TD*%
%TA.AperFunction,SMDPad,CuDef*%
%ADD16RoundRect,0.218750X-0.256250X0.218750X-0.256250X-0.218750X0.256250X-0.218750X0.256250X0.218750X0*%
%TD*%
%TA.AperFunction,SMDPad,CuDef*%
%ADD17R,1.397000X0.889000*%
%TD*%
%TA.AperFunction,SMDPad,CuDef*%
%ADD18R,0.650000X1.060000*%
%TD*%
%TA.AperFunction,SMDPad,CuDef*%
%ADD19RoundRect,0.212500X0.212500X-0.737500X0.212500X0.737500X-0.212500X0.737500X-0.212500X-0.737500X0*%
%TD*%
%TA.AperFunction,SMDPad,CuDef*%
%ADD20RoundRect,0.212500X0.737500X-0.212500X0.737500X0.212500X-0.737500X0.212500X-0.737500X-0.212500X0*%
%TD*%
%TA.AperFunction,SMDPad,CuDef*%
%ADD21R,4.800000X4.800000*%
%TD*%
%TA.AperFunction,ViaPad*%
%ADD22C,0.800000*%
%TD*%
%TA.AperFunction,Conductor*%
%ADD23C,0.400000*%
%TD*%
%TA.AperFunction,Conductor*%
%ADD24C,0.300000*%
%TD*%
G04 APERTURE END LIST*
D10*
%TO.P,D2,1,K*%
%TO.N,GND*%
X10300000Y13000000D03*
D11*
%TO.P,D2,2,A*%
%TO.N,Net-(D2-A)*%
X6700000Y13000000D03*
%TD*%
D12*
%TO.P,C4,1*%
%TO.N,+5V*%
X11811000Y4572000D03*
%TO.P,C4,2*%
%TO.N,GND*%
X11811000Y6147000D03*
%TD*%
D13*
%TO.P,D1,1,K*%
%TO.N,+5V*%
X9071000Y9075000D03*
%TO.P,D1,2,A*%
%TO.N,GND*%
X9071000Y10475000D03*
%TD*%
D14*
%TO.P,J1,1*%
%TO.N,+5V*%
X4847200Y5625000D03*
%TO.P,J1,2*%
%TO.N,/SCL*%
X4847200Y6875000D03*
%TO.P,J1,3*%
%TO.N,/SDA*%
X4847200Y8125000D03*
%TO.P,J1,4*%
%TO.N,GND*%
X4847200Y9375000D03*
D15*
%TO.P,J1,MP*%
X1647200Y3775000D03*
X1647200Y11225000D03*
%TD*%
D16*
%TO.P,C5,1*%
%TO.N,+3V3*%
X16764000Y5613500D03*
%TO.P,C5,2*%
%TO.N,GND*%
X16764000Y4038500D03*
%TD*%
D12*
%TO.P,C1,1*%
%TO.N,+3V3*%
X12896000Y8962500D03*
%TO.P,C1,2*%
%TO.N,GND*%
X12896000Y10537500D03*
%TD*%
D17*
%TO.P,C3,1*%
%TO.N,+5V*%
X10821000Y8947500D03*
%TO.P,C3,2*%
%TO.N,GND*%
X10821000Y10852500D03*
%TD*%
D18*
%TO.P,U3,1,VIN*%
%TO.N,+5V*%
X9967000Y4996000D03*
%TO.P,U3,2,GND*%
%TO.N,GND*%
X9017000Y4996000D03*
%TO.P,U3,3,EN*%
%TO.N,+5V*%
X8067000Y4996000D03*
%TO.P,U3,4,NC*%
%TO.N,unconnected-(U3-NC-Pad4)*%
X8067000Y7196000D03*
%TO.P,U3,5,VOUT*%
%TO.N,+3V3*%
X9967000Y7196000D03*
%TD*%
D16*
%TO.P,R3,1*%
%TO.N,+3V3*%
X16637000Y10566500D03*
%TO.P,R3,2*%
%TO.N,/SCL*%
X16637000Y8991500D03*
%TD*%
%TO.P,R10,1*%
%TO.N,+3V3*%
X14732000Y10566500D03*
%TO.P,R10,2*%
%TO.N,/SDA*%
X14732000Y8991500D03*
%TD*%
D19*
%TO.P,U2,1*%
%TO.N,N/C*%
X26376000Y3350000D03*
%TO.P,U2,2*%
X25126000Y3350000D03*
%TO.P,U2,3*%
X23876000Y3350000D03*
%TO.P,U2,4*%
X22626000Y3350000D03*
%TO.P,U2,5*%
X21376000Y3350000D03*
D20*
%TO.P,U2,6,GND*%
%TO.N,GND*%
X19726000Y5000000D03*
%TO.P,U2,7,VDD*%
%TO.N,+3V3*%
X19726000Y6250000D03*
%TO.P,U2,8*%
%TO.N,N/C*%
X19726000Y7500000D03*
%TO.P,U2,9,SCL*%
%TO.N,/SCL*%
X19726000Y8750000D03*
%TO.P,U2,10,SDA*%
%TO.N,/SDA*%
X19726000Y10000000D03*
D19*
%TO.P,U2,11*%
%TO.N,N/C*%
X21376000Y11650000D03*
%TO.P,U2,12*%
X22626000Y11650000D03*
%TO.P,U2,13*%
X23876000Y11650000D03*
%TO.P,U2,14*%
X25126000Y11650000D03*
%TO.P,U2,15*%
X26376000Y11650000D03*
D20*
%TO.P,U2,16*%
X28026000Y10000000D03*
%TO.P,U2,17*%
X28026000Y8750000D03*
%TO.P,U2,18*%
X28026000Y7500000D03*
%TO.P,U2,19,VDD*%
%TO.N,+3V3*%
X28026000Y6250000D03*
%TO.P,U2,20,GND*%
%TO.N,GND*%
X28026000Y5000000D03*
D21*
%TO.P,U2,21,GND*%
X23876000Y7500000D03*
%TD*%
D12*
%TO.P,R1,1*%
%TO.N,+5V*%
X7421000Y9062500D03*
%TO.P,R1,2*%
%TO.N,Net-(D2-A)*%
X7421000Y10637500D03*
%TD*%
D22*
%TO.N,GND*%
X4191000Y4318000D03*
X1143000Y12827000D03*
X3937000Y12065000D03*
X2159000Y12827000D03*
X3175000Y12827000D03*
X1143000Y5461000D03*
X1143000Y2286000D03*
X1651000Y9779000D03*
X3429000Y2286000D03*
X4191000Y3175000D03*
X1016000Y8890000D03*
X2286000Y2286000D03*
X5080000Y10668000D03*
X1016000Y7747000D03*
X9046000Y11125000D03*
X9121000Y5875000D03*
X1016000Y6604000D03*
X4064000Y10668000D03*
%TO.N,+3V3*%
X18022250Y5726750D03*
X29100500Y6223000D03*
%TO.N,+5V*%
X2794000Y9398000D03*
X6350000Y9398000D03*
%TO.N,/SDA*%
X2850000Y6875000D03*
X6771000Y7950000D03*
X14595408Y8010572D03*
%TO.N,/SCL*%
X18030486Y6862177D03*
X6350000Y6858000D03*
X16637010Y7747000D03*
%TD*%
D23*
%TO.N,GND*%
X9071000Y10475000D02*
X9448500Y10852500D01*
X19726000Y3851000D02*
X19726000Y5000000D01*
X9121000Y5875000D02*
X9393000Y6147000D01*
X14884500Y4038500D02*
X16764000Y4038500D01*
X9448500Y10852500D02*
X10821000Y10852500D01*
X26376000Y5000000D02*
X28026000Y5000000D01*
X17018000Y3784500D02*
X19659500Y3784500D01*
X4627000Y9398000D02*
X4650000Y9375000D01*
X9017000Y5771000D02*
X9121000Y5875000D01*
X19659500Y3784500D02*
X19726000Y3851000D01*
X21376000Y5000000D02*
X23876000Y7500000D01*
X10575000Y11098500D02*
X10821000Y10852500D01*
X12983983Y4974017D02*
X13948983Y4974017D01*
X9071000Y11100000D02*
X9046000Y11125000D01*
X11811000Y6147000D02*
X12983983Y4974017D01*
X11768500Y10852500D02*
X12096000Y10525000D01*
X19726000Y5000000D02*
X21376000Y5000000D01*
X13948983Y4974017D02*
X14884500Y4038500D01*
X12096000Y10525000D02*
X12883500Y10525000D01*
X16764000Y4038500D02*
X17018000Y3784500D01*
X9393000Y6147000D02*
X11811000Y6147000D01*
X10575000Y13000000D02*
X10575000Y11098500D01*
X12883500Y10525000D02*
X12896000Y10537500D01*
X9017000Y4996000D02*
X9017000Y5771000D01*
X23876000Y7500000D02*
X26376000Y5000000D01*
X9071000Y10475000D02*
X9071000Y11100000D01*
X10821000Y10852500D02*
X11768500Y10852500D01*
D24*
%TO.N,Net-(D2-A)*%
X6425000Y11633500D02*
X7421000Y10637500D01*
X6425000Y13000000D02*
X6425000Y11633500D01*
D23*
%TO.N,+3V3*%
X9967000Y7196000D02*
X11767000Y7196000D01*
X29073500Y6250000D02*
X28026000Y6250000D01*
X17909000Y5613500D02*
X18545500Y6250000D01*
X16764000Y5613500D02*
X17909000Y5613500D01*
X18545500Y6250000D02*
X19726000Y6250000D01*
X13128000Y8962500D02*
X14732000Y10566500D01*
X12896000Y8325000D02*
X15607500Y5613500D01*
X12896000Y8325000D02*
X12896000Y8962500D01*
X29100500Y6223000D02*
X29073500Y6250000D01*
X12896000Y8962500D02*
X13128000Y8962500D01*
X14732000Y10566500D02*
X16637000Y10566500D01*
X15607500Y5613500D02*
X16764000Y5613500D01*
X11767000Y7196000D02*
X12896000Y8325000D01*
%TO.N,+5V*%
X9071000Y9075000D02*
X10693500Y9075000D01*
X4650000Y5625000D02*
X2757000Y5625000D01*
X9058500Y9062500D02*
X9071000Y9075000D01*
X9711000Y3810000D02*
X10287000Y3810000D01*
X8067000Y4996000D02*
X8067000Y4125000D01*
X9711000Y3810000D02*
X9967000Y4066000D01*
X8382000Y3810000D02*
X9711000Y3810000D01*
X4650000Y5625000D02*
X6186000Y5625000D01*
X7085500Y9398000D02*
X7421000Y9062500D01*
X10668000Y3810000D02*
X11049000Y3810000D01*
X1975000Y6407000D02*
X1975000Y8579000D01*
X6186000Y5625000D02*
X6815000Y4996000D01*
X10693500Y9075000D02*
X10821000Y8947500D01*
X7421000Y9062500D02*
X9058500Y9062500D01*
X8067000Y4125000D02*
X8382000Y3810000D01*
X2757000Y5625000D02*
X1975000Y6407000D01*
X1975000Y8579000D02*
X2794000Y9398000D01*
X10287000Y3810000D02*
X10668000Y3810000D01*
X9967000Y4257000D02*
X9967000Y4130000D01*
X6350000Y9398000D02*
X7085500Y9398000D01*
D24*
X11811000Y4572000D02*
X12192000Y4572000D01*
D23*
X9967000Y4066000D02*
X9967000Y4257000D01*
X9967000Y4130000D02*
X10287000Y3810000D01*
X9967000Y4257000D02*
X9967000Y4996000D01*
X11811000Y4572000D02*
X11049000Y3810000D01*
X6815000Y4996000D02*
X8067000Y4996000D01*
D24*
%TO.N,/SDA*%
X14732000Y8991500D02*
X14732000Y8147164D01*
X15735980Y6870000D02*
X14595408Y8010572D01*
D23*
X6596000Y8125000D02*
X6771000Y7950000D01*
D24*
X19726000Y10000000D02*
X18515500Y10000000D01*
D23*
X3045000Y8125000D02*
X2850000Y7930000D01*
X4650000Y8125000D02*
X3045000Y8125000D01*
X2850000Y7930000D02*
X2850000Y6875000D01*
D24*
X14732000Y8147164D02*
X14595408Y8010572D01*
X17514002Y7436339D02*
X16947663Y6870000D01*
X16947663Y6870000D02*
X15735980Y6870000D01*
X17514002Y8998502D02*
X17514002Y7436339D01*
D23*
X4650000Y8125000D02*
X6596000Y8125000D01*
D24*
X18515500Y10000000D02*
X17514002Y8998502D01*
D23*
%TO.N,/SCL*%
X6350000Y6858000D02*
X6333000Y6875000D01*
D24*
X19726000Y8750000D02*
X18529000Y8750000D01*
X18030486Y8251486D02*
X18030486Y6862177D01*
D23*
X6333000Y6875000D02*
X4650000Y6875000D01*
D24*
X18529000Y8750000D02*
X18030486Y8251486D01*
X16637010Y7747000D02*
X16637010Y8991490D01*
X16637010Y8991490D02*
X16637000Y8991500D01*
%TD*%
%TA.AperFunction,Conductor*%
%TO.N,GND*%
G36*
X869587Y14477826D02*
G01*
X885628Y14453818D01*
X886289Y14452222D01*
X886290Y14452219D01*
X922843Y14363971D01*
X971591Y14246283D01*
X971594Y14246275D01*
X1083049Y14053230D01*
X1083053Y14053224D01*
X1218747Y13876382D01*
X1376381Y13718748D01*
X1553223Y13583054D01*
X1553229Y13583050D01*
X1562714Y13577574D01*
X1746274Y13471595D01*
X1952219Y13386290D01*
X2167537Y13328596D01*
X2388543Y13299500D01*
X2388545Y13299500D01*
X2611455Y13299500D01*
X2611457Y13299500D01*
X2832463Y13328596D01*
X3047781Y13386290D01*
X3253726Y13471595D01*
X3446774Y13583052D01*
X3585566Y13689550D01*
X3623618Y13718748D01*
X3623619Y13718750D01*
X3623624Y13718753D01*
X3781247Y13876376D01*
X3825074Y13933492D01*
X3916946Y14053224D01*
X3916948Y14053226D01*
X4028405Y14246274D01*
X4113710Y14452219D01*
X4113710Y14452222D01*
X4114372Y14453818D01*
X4154420Y14493867D01*
X4182739Y14499500D01*
X7211729Y14499500D01*
X7264055Y14477826D01*
X7285729Y14425500D01*
X7264055Y14373174D01*
X7252841Y14363971D01*
X7189711Y14321790D01*
X7189710Y14321788D01*
X7078212Y14210290D01*
X7078210Y14210289D01*
X6990603Y14079175D01*
X6956228Y13996182D01*
X6916180Y13956133D01*
X6887861Y13950500D01*
X6206815Y13950500D01*
X6135450Y13940102D01*
X6025365Y13886284D01*
X5938716Y13799635D01*
X5884898Y13689550D01*
X5874500Y13618185D01*
X5874500Y12381816D01*
X5884898Y12310451D01*
X5938716Y12200366D01*
X5938717Y12200365D01*
X6025365Y12113717D01*
X6032998Y12109986D01*
X6070489Y12067535D01*
X6074500Y12043504D01*
X6074500Y11587354D01*
X6088901Y11533610D01*
X6088901Y11533609D01*
X6098384Y11498217D01*
X6098386Y11498212D01*
X6144530Y11418288D01*
X6723826Y10838992D01*
X6745500Y10786666D01*
X6745500Y10385754D01*
X6761049Y10287580D01*
X6821340Y10169251D01*
X6915250Y10075341D01*
X6966840Y10049055D01*
X7033579Y10015050D01*
X7033579Y10015049D01*
X7131753Y9999500D01*
X7131754Y9999500D01*
X7710247Y9999500D01*
X7808420Y10015049D01*
X7926751Y10075342D01*
X8020658Y10169249D01*
X8073066Y10272107D01*
X8116133Y10308888D01*
X8172595Y10304445D01*
X8209378Y10261377D01*
X8213000Y10238510D01*
X8213000Y10126410D01*
X8219505Y10065907D01*
X8219506Y10065902D01*
X8270552Y9929040D01*
X8270553Y9929039D01*
X8358096Y9812097D01*
X8475038Y9724554D01*
X8475039Y9724553D01*
X8601538Y9677372D01*
X8642991Y9638779D01*
X8645012Y9582178D01*
X8616792Y9546510D01*
X8576447Y9519552D01*
X8560636Y9495888D01*
X8513544Y9464422D01*
X8499107Y9463000D01*
X8100526Y9463000D01*
X8048200Y9484674D01*
X8034592Y9503405D01*
X8020659Y9530750D01*
X7926749Y9624660D01*
X7808420Y9684951D01*
X7808420Y9684952D01*
X7710247Y9700500D01*
X7710246Y9700500D01*
X7379964Y9700500D01*
X7334910Y9715796D01*
X7331410Y9718483D01*
X7240092Y9771205D01*
X7240088Y9771207D01*
X7138227Y9798500D01*
X7138226Y9798500D01*
X6836092Y9798500D01*
X6783766Y9820174D01*
X6779321Y9825242D01*
X6778277Y9826287D01*
X6652841Y9922536D01*
X6506761Y9983045D01*
X6350000Y10003682D01*
X6193238Y9983045D01*
X6116215Y9951141D01*
X6059578Y9951141D01*
X6035571Y9967182D01*
X5953698Y10049055D01*
X5810601Y10133682D01*
X5650954Y10180065D01*
X5613656Y10183000D01*
X5101200Y10183000D01*
X5101200Y9195000D01*
X5079526Y9142674D01*
X5027200Y9121000D01*
X4667200Y9121000D01*
X4614874Y9142674D01*
X4593200Y9195000D01*
X4593200Y10183000D01*
X4080745Y10183000D01*
X4080743Y10182999D01*
X4043447Y10180065D01*
X3883798Y10133682D01*
X3740701Y10049055D01*
X3623145Y9931499D01*
X3538518Y9788402D01*
X3491668Y9627147D01*
X3456255Y9582946D01*
X3399960Y9576731D01*
X3355759Y9612144D01*
X3352239Y9619475D01*
X3318536Y9700841D01*
X3222284Y9826280D01*
X3222279Y9826285D01*
X3096841Y9922536D01*
X2950761Y9983045D01*
X2794000Y10003682D01*
X2637239Y9983045D01*
X2637238Y9983045D01*
X2491158Y9922536D01*
X2365720Y9826285D01*
X2365715Y9826280D01*
X2269464Y9700842D01*
X2208955Y9554762D01*
X2208955Y9554761D01*
X2188318Y9398001D01*
X2188318Y9393151D01*
X2186436Y9393151D01*
X2173459Y9344748D01*
X2167084Y9337479D01*
X1654518Y8824912D01*
X1601795Y8733593D01*
X1601791Y8733584D01*
X1582610Y8662001D01*
X1582611Y8662000D01*
X1582611Y8661999D01*
X1574500Y8631727D01*
X1574500Y6459727D01*
X1574500Y6354273D01*
X1596288Y6272956D01*
X1601793Y6252412D01*
X1601795Y6252408D01*
X1654517Y6161091D01*
X1654518Y6161090D01*
X1654520Y6161087D01*
X2511087Y5304520D01*
X2602412Y5251793D01*
X2704273Y5224500D01*
X2809727Y5224500D01*
X3871367Y5224500D01*
X3923693Y5202826D01*
X3940717Y5185802D01*
X4045807Y5134427D01*
X4113940Y5124500D01*
X4113946Y5124500D01*
X5580454Y5124500D01*
X5580460Y5124500D01*
X5648593Y5134427D01*
X5753683Y5185802D01*
X5770707Y5202826D01*
X5823033Y5224500D01*
X5989455Y5224500D01*
X6041781Y5202826D01*
X6494519Y4750088D01*
X6494520Y4750087D01*
X6569087Y4675520D01*
X6660413Y4622793D01*
X6762270Y4595501D01*
X6762271Y4595500D01*
X6762273Y4595500D01*
X7467500Y4595500D01*
X7519826Y4573826D01*
X7541500Y4521500D01*
X7541500Y4446252D01*
X7546847Y4419371D01*
X7553133Y4387768D01*
X7570845Y4361261D01*
X7597448Y4321448D01*
X7621060Y4305671D01*
X7633613Y4297283D01*
X7665078Y4250191D01*
X7666500Y4235755D01*
X7666500Y4177727D01*
X7666500Y4072273D01*
X7683228Y4009842D01*
X7693793Y3970412D01*
X7693795Y3970408D01*
X7746517Y3879091D01*
X7746518Y3879090D01*
X7746520Y3879087D01*
X8136087Y3489520D01*
X8136089Y3489519D01*
X8136090Y3489518D01*
X8162109Y3474496D01*
X8227412Y3436793D01*
X8329273Y3409500D01*
X8329274Y3409500D01*
X11101726Y3409500D01*
X11101727Y3409500D01*
X11203588Y3436793D01*
X11294913Y3489520D01*
X11576722Y3771330D01*
X15781001Y3771330D01*
X15791169Y3671788D01*
X15791170Y3671783D01*
X15844606Y3510523D01*
X15933794Y3365927D01*
X16053926Y3245795D01*
X16198522Y3156607D01*
X16359785Y3103170D01*
X16459331Y3093001D01*
X17018000Y3093001D01*
X17068665Y3093001D01*
X17068670Y3093002D01*
X17168212Y3103170D01*
X17168217Y3103171D01*
X17329477Y3156607D01*
X17474073Y3245795D01*
X17594205Y3365927D01*
X17683393Y3510523D01*
X17736830Y3671786D01*
X17746999Y3771331D01*
X17747000Y3771333D01*
X17747000Y3784500D01*
X17018000Y3784500D01*
X17018000Y3093001D01*
X16459331Y3093001D01*
X16509999Y3093002D01*
X16510000Y3093002D01*
X16510000Y3784500D01*
X15781001Y3784500D01*
X15781001Y3771330D01*
X11576722Y3771330D01*
X11717718Y3912327D01*
X11770044Y3934000D01*
X12100247Y3934000D01*
X12198420Y3949549D01*
X12316751Y4009842D01*
X12410658Y4103749D01*
X12470951Y4222080D01*
X12486500Y4320254D01*
X12486500Y4361261D01*
X12496414Y4398261D01*
X12518613Y4436711D01*
X12518614Y4436712D01*
X12542499Y4525854D01*
X12542500Y4525854D01*
X12542500Y4618146D01*
X12542499Y4618147D01*
X12541254Y4622792D01*
X12518614Y4707288D01*
X12496414Y4745740D01*
X12486500Y4782740D01*
X12486500Y4823747D01*
X12481233Y4857000D01*
X12470951Y4921920D01*
X12410658Y5040251D01*
X12318092Y5132817D01*
X12296418Y5185143D01*
X12318092Y5237469D01*
X12347144Y5255388D01*
X12376479Y5265108D01*
X12521073Y5354295D01*
X12641205Y5474427D01*
X12730393Y5619023D01*
X12783830Y5780286D01*
X12793999Y5879831D01*
X12794000Y5879833D01*
X12794000Y5893000D01*
X10828001Y5893000D01*
X10828001Y5879830D01*
X10838169Y5780288D01*
X10838170Y5780283D01*
X10891606Y5619023D01*
X10980794Y5474427D01*
X11100926Y5354295D01*
X11245523Y5265107D01*
X11274856Y5255387D01*
X11317709Y5218356D01*
X11321825Y5161868D01*
X11303907Y5132817D01*
X11211340Y5040250D01*
X11151049Y4921921D01*
X11151048Y4921921D01*
X11135500Y4823747D01*
X11135500Y4493545D01*
X11113826Y4441219D01*
X10904781Y4232174D01*
X10852455Y4210500D01*
X10500863Y4210500D01*
X10448537Y4232174D01*
X10426863Y4284500D01*
X10439335Y4325613D01*
X10447328Y4337575D01*
X10480867Y4387769D01*
X10492500Y4446252D01*
X10492500Y5545748D01*
X10480867Y5604231D01*
X10472122Y5617318D01*
X10457088Y5639818D01*
X10436552Y5670552D01*
X10414343Y5685392D01*
X10370232Y5714867D01*
X10370233Y5714867D01*
X10340989Y5720684D01*
X10311748Y5726500D01*
X9860782Y5726500D01*
X9808456Y5748174D01*
X9795847Y5767791D01*
X9794982Y5767318D01*
X9792446Y5771962D01*
X9704903Y5888904D01*
X9587961Y5976447D01*
X9587960Y5976448D01*
X9451098Y6027494D01*
X9451093Y6027495D01*
X9390591Y6034000D01*
X9271000Y6034000D01*
X9271000Y4816000D01*
X9249326Y4763674D01*
X9197000Y4742000D01*
X8837000Y4742000D01*
X8784674Y4763674D01*
X8763000Y4816000D01*
X8763000Y6034000D01*
X8643409Y6034000D01*
X8582906Y6027495D01*
X8582901Y6027494D01*
X8446039Y5976448D01*
X8446038Y5976447D01*
X8329096Y5888904D01*
X8241553Y5771962D01*
X8239018Y5767318D01*
X8236843Y5768506D01*
X8203953Y5733184D01*
X8173218Y5726500D01*
X7722252Y5726500D01*
X7693010Y5720684D01*
X7663767Y5714867D01*
X7597449Y5670553D01*
X7597447Y5670551D01*
X7553133Y5604233D01*
X7541500Y5545747D01*
X7541500Y5470500D01*
X7519826Y5418174D01*
X7467500Y5396500D01*
X7011545Y5396500D01*
X6959219Y5418174D01*
X6706840Y5670553D01*
X6431913Y5945480D01*
X6431910Y5945482D01*
X6431909Y5945483D01*
X6340592Y5998205D01*
X6340588Y5998207D01*
X6281646Y6014000D01*
X6238727Y6025500D01*
X6238726Y6025500D01*
X5823033Y6025500D01*
X5770707Y6047174D01*
X5753682Y6064199D01*
X5648594Y6115573D01*
X5580464Y6125500D01*
X5580460Y6125500D01*
X4113940Y6125500D01*
X4113935Y6125500D01*
X4045806Y6115573D01*
X4045805Y6115573D01*
X3940717Y6064199D01*
X3923693Y6047174D01*
X3871367Y6025500D01*
X2953545Y6025500D01*
X2901219Y6047174D01*
X2805066Y6143327D01*
X2783392Y6195653D01*
X2805066Y6247979D01*
X2847733Y6269020D01*
X2849998Y6269319D01*
X2850000Y6269318D01*
X3006762Y6289956D01*
X3152841Y6350464D01*
X3278282Y6446718D01*
X3374536Y6572159D01*
X3435044Y6718238D01*
X3455682Y6875000D01*
X3435044Y7031762D01*
X3374536Y7177841D01*
X3324500Y7243050D01*
X3278286Y7303278D01*
X3274856Y7306707D01*
X3276183Y7308035D01*
X3251131Y7351453D01*
X3250500Y7361093D01*
X3250500Y7650500D01*
X3272174Y7702826D01*
X3324500Y7724500D01*
X3871367Y7724500D01*
X3923693Y7702826D01*
X3940717Y7685802D01*
X4045807Y7634427D01*
X4113940Y7624500D01*
X4113946Y7624500D01*
X5580454Y7624500D01*
X5580460Y7624500D01*
X5648593Y7634427D01*
X5753683Y7685802D01*
X5770707Y7702826D01*
X5823033Y7724500D01*
X6164983Y7724500D01*
X6217309Y7702826D01*
X6233350Y7678818D01*
X6246463Y7647160D01*
X6305806Y7569822D01*
X6320465Y7515115D01*
X6292146Y7466066D01*
X6256757Y7451407D01*
X6193239Y7443045D01*
X6193238Y7443045D01*
X6047158Y7382536D01*
X5927595Y7290792D01*
X5882547Y7275500D01*
X5823033Y7275500D01*
X5770707Y7297174D01*
X5753682Y7314199D01*
X5648594Y7365573D01*
X5580464Y7375500D01*
X5580460Y7375500D01*
X4113940Y7375500D01*
X4113935Y7375500D01*
X4045806Y7365573D01*
X4045805Y7365573D01*
X3940717Y7314199D01*
X3858001Y7231483D01*
X3806627Y7126395D01*
X3806627Y7126394D01*
X3796700Y7058265D01*
X3796700Y6691736D01*
X3806627Y6623607D01*
X3806627Y6623606D01*
X3858001Y6518518D01*
X3858002Y6518517D01*
X3940717Y6435802D01*
X4045807Y6384427D01*
X4113940Y6374500D01*
X4113946Y6374500D01*
X5580454Y6374500D01*
X5580460Y6374500D01*
X5648593Y6384427D01*
X5753683Y6435802D01*
X5770707Y6452826D01*
X5823033Y6474500D01*
X5850863Y6474500D01*
X5903189Y6452826D01*
X5909572Y6445547D01*
X5921716Y6429720D01*
X5921720Y6429716D01*
X5993678Y6374501D01*
X6047159Y6333464D01*
X6193238Y6272956D01*
X6350000Y6252318D01*
X6506762Y6272956D01*
X6652841Y6333464D01*
X6778282Y6429718D01*
X6874536Y6555159D01*
X6935044Y6701238D01*
X6955682Y6858000D01*
X6935044Y7014762D01*
X6874536Y7160841D01*
X6820331Y7231483D01*
X6815193Y7238179D01*
X6800534Y7292886D01*
X6828853Y7341935D01*
X6864241Y7356594D01*
X6927762Y7364956D01*
X7073841Y7425464D01*
X7199282Y7521718D01*
X7295536Y7647159D01*
X7336373Y7745748D01*
X7541500Y7745748D01*
X7541500Y6646252D01*
X7549255Y6607264D01*
X7553133Y6587768D01*
X7582608Y6543657D01*
X7597448Y6521448D01*
X7637025Y6495003D01*
X7663767Y6477134D01*
X7663768Y6477134D01*
X7663769Y6477133D01*
X7722252Y6465500D01*
X7722254Y6465500D01*
X8411746Y6465500D01*
X8411748Y6465500D01*
X8470231Y6477133D01*
X8536552Y6521448D01*
X8580867Y6587769D01*
X8592500Y6646252D01*
X8592500Y7745748D01*
X8580867Y7804231D01*
X8536552Y7870552D01*
X8494733Y7898495D01*
X8470232Y7914867D01*
X8470233Y7914867D01*
X8440989Y7920684D01*
X8411748Y7926500D01*
X7722252Y7926500D01*
X7693010Y7920684D01*
X7663767Y7914867D01*
X7597449Y7870553D01*
X7597447Y7870551D01*
X7553133Y7804233D01*
X7550946Y7793238D01*
X7541500Y7745748D01*
X7336373Y7745748D01*
X7356044Y7793238D01*
X7376682Y7950000D01*
X7356044Y8106762D01*
X7295536Y8252841D01*
X7281249Y8271460D01*
X7255167Y8305452D01*
X7240508Y8360159D01*
X7268827Y8409208D01*
X7313875Y8424500D01*
X7710247Y8424500D01*
X7808420Y8440049D01*
X7926751Y8500342D01*
X8020658Y8594249D01*
X8029998Y8612580D01*
X8034592Y8621595D01*
X8077659Y8658378D01*
X8100526Y8662000D01*
X8515812Y8662000D01*
X8568138Y8640326D01*
X8575317Y8631579D01*
X8576445Y8630451D01*
X8576446Y8630450D01*
X8576448Y8630448D01*
X8621268Y8600500D01*
X8642767Y8586134D01*
X8642768Y8586134D01*
X8642769Y8586133D01*
X8701252Y8574500D01*
X8701254Y8574500D01*
X9440746Y8574500D01*
X9440748Y8574500D01*
X9499231Y8586133D01*
X9565552Y8630448D01*
X9573012Y8641614D01*
X9620104Y8673078D01*
X9634540Y8674500D01*
X9848000Y8674500D01*
X9900326Y8652826D01*
X9922000Y8600500D01*
X9922000Y8483254D01*
X9933633Y8424768D01*
X9944647Y8408285D01*
X9977948Y8358448D01*
X10000635Y8343289D01*
X10044267Y8314134D01*
X10044268Y8314134D01*
X10044269Y8314133D01*
X10102752Y8302500D01*
X10102754Y8302500D01*
X11539246Y8302500D01*
X11539248Y8302500D01*
X11597731Y8314133D01*
X11664052Y8358448D01*
X11708367Y8424769D01*
X11720000Y8483252D01*
X11720000Y9411748D01*
X11708367Y9470231D01*
X11704846Y9475500D01*
X11686200Y9503405D01*
X11664052Y9536552D01*
X11640382Y9552368D01*
X11597732Y9580867D01*
X11597733Y9580867D01*
X11568489Y9586684D01*
X11539248Y9592500D01*
X10102752Y9592500D01*
X10073510Y9586684D01*
X10044267Y9580867D01*
X9977950Y9536555D01*
X9977949Y9536553D01*
X9977948Y9536552D01*
X9959127Y9508386D01*
X9912037Y9476922D01*
X9897601Y9475500D01*
X9634540Y9475500D01*
X9582214Y9497174D01*
X9573012Y9508387D01*
X9565552Y9519552D01*
X9525206Y9546511D01*
X9493743Y9593603D01*
X9504793Y9649152D01*
X9540461Y9677372D01*
X9666960Y9724553D01*
X9666961Y9724554D01*
X9783904Y9812097D01*
X9783905Y9812098D01*
X9856047Y9908468D01*
X9904755Y9937369D01*
X9941147Y9933456D01*
X10013401Y9906507D01*
X10013406Y9906506D01*
X10073909Y9900000D01*
X10567000Y9900000D01*
X10567000Y11032500D01*
X10588674Y11084826D01*
X10641000Y11106500D01*
X11001000Y11106500D01*
X11053326Y11084826D01*
X11075000Y11032500D01*
X11075000Y9900000D01*
X11568091Y9900000D01*
X11628593Y9906506D01*
X11628598Y9906507D01*
X11765460Y9957553D01*
X11765461Y9957554D01*
X11867017Y10033578D01*
X11921895Y10047585D01*
X11970604Y10018685D01*
X11974347Y10013186D01*
X12065794Y9864927D01*
X12185926Y9744795D01*
X12330523Y9655607D01*
X12359856Y9645887D01*
X12402709Y9608856D01*
X12406825Y9552368D01*
X12388907Y9523317D01*
X12296340Y9430750D01*
X12236049Y9312421D01*
X12236048Y9312421D01*
X12220500Y9214247D01*
X12220500Y8710754D01*
X12236049Y8612580D01*
X12296340Y8494251D01*
X12345272Y8445319D01*
X12366946Y8392993D01*
X12345272Y8340667D01*
X11622781Y7618174D01*
X11570455Y7596500D01*
X10566500Y7596500D01*
X10514174Y7618174D01*
X10492500Y7670500D01*
X10492500Y7745747D01*
X10489942Y7758607D01*
X10480867Y7804231D01*
X10436552Y7870552D01*
X10394733Y7898495D01*
X10370232Y7914867D01*
X10370233Y7914867D01*
X10340989Y7920684D01*
X10311748Y7926500D01*
X9622252Y7926500D01*
X9593010Y7920684D01*
X9563767Y7914867D01*
X9497449Y7870553D01*
X9497447Y7870551D01*
X9453133Y7804233D01*
X9450946Y7793238D01*
X9441500Y7745748D01*
X9441500Y6646252D01*
X9449255Y6607264D01*
X9453133Y6587768D01*
X9482608Y6543657D01*
X9497448Y6521448D01*
X9537025Y6495003D01*
X9563767Y6477134D01*
X9563768Y6477134D01*
X9563769Y6477133D01*
X9622252Y6465500D01*
X9622254Y6465500D01*
X10311746Y6465500D01*
X10311748Y6465500D01*
X10370231Y6477133D01*
X10436552Y6521448D01*
X10480867Y6587769D01*
X10492500Y6646252D01*
X10492500Y6721500D01*
X10514174Y6773826D01*
X10566500Y6795500D01*
X10833357Y6795500D01*
X10885683Y6773826D01*
X10907357Y6721500D01*
X10896340Y6682653D01*
X10891607Y6674981D01*
X10891607Y6674980D01*
X10838169Y6513715D01*
X10828000Y6414170D01*
X10828000Y6401000D01*
X12793999Y6401000D01*
X12793999Y6414165D01*
X12793998Y6414171D01*
X12783830Y6513713D01*
X12783829Y6513718D01*
X12730393Y6674978D01*
X12641205Y6819574D01*
X12521073Y6939706D01*
X12376478Y7028893D01*
X12332482Y7043472D01*
X12289630Y7080505D01*
X12285515Y7136993D01*
X12303429Y7166037D01*
X12843676Y7706284D01*
X12895999Y7727956D01*
X12948325Y7706282D01*
X15361587Y5293020D01*
X15361589Y5293019D01*
X15361590Y5293018D01*
X15409933Y5265107D01*
X15452912Y5240293D01*
X15554773Y5213000D01*
X16084474Y5213000D01*
X16136800Y5191326D01*
X16150408Y5172595D01*
X16164340Y5145251D01*
X16256907Y5052684D01*
X16278581Y5000358D01*
X16256907Y4948032D01*
X16227858Y4930114D01*
X16198521Y4920393D01*
X16053926Y4831206D01*
X15933794Y4711074D01*
X15844606Y4566478D01*
X15791169Y4405215D01*
X15781000Y4305670D01*
X15781000Y4292500D01*
X17746999Y4292500D01*
X17746999Y4305665D01*
X17746998Y4305671D01*
X17736830Y4405213D01*
X17736829Y4405218D01*
X17683393Y4566478D01*
X17594205Y4711074D01*
X17565787Y4739492D01*
X18268000Y4739492D01*
X18278081Y4640809D01*
X18331060Y4480932D01*
X18419481Y4337579D01*
X18419484Y4337575D01*
X18538575Y4218484D01*
X18538578Y4218482D01*
X18681931Y4130061D01*
X18841808Y4077082D01*
X18940491Y4067001D01*
X18940493Y4067000D01*
X19472000Y4067000D01*
X19472000Y4746000D01*
X18268000Y4746000D01*
X18268000Y4739492D01*
X17565787Y4739492D01*
X17474073Y4831206D01*
X17329477Y4920394D01*
X17300142Y4930114D01*
X17257289Y4967147D01*
X17253174Y5023634D01*
X17271090Y5052682D01*
X17363658Y5145249D01*
X17377592Y5172595D01*
X17420659Y5209378D01*
X17443526Y5213000D01*
X17680899Y5213000D01*
X17714858Y5203901D01*
X17714929Y5204070D01*
X17716212Y5203539D01*
X17717897Y5203087D01*
X17719407Y5202215D01*
X17719408Y5202215D01*
X17719409Y5202214D01*
X17865488Y5141706D01*
X18022250Y5121068D01*
X18179012Y5141706D01*
X18325091Y5202214D01*
X18372651Y5238709D01*
X18417699Y5254000D01*
X19906000Y5254000D01*
X19958326Y5232326D01*
X19980000Y5180000D01*
X19980000Y4067000D01*
X20511507Y4067000D01*
X20511508Y4067001D01*
X20610191Y4077082D01*
X20610193Y4077082D01*
X20653223Y4091341D01*
X20709710Y4087226D01*
X20746744Y4044374D01*
X20750500Y4021097D01*
X20750500Y2579998D01*
X20765818Y2483286D01*
X20765818Y2483285D01*
X20825211Y2366719D01*
X20917719Y2274211D01*
X21034285Y2214818D01*
X21130997Y2199500D01*
X21621002Y2199501D01*
X21717715Y2214818D01*
X21834281Y2274211D01*
X21926789Y2366719D01*
X21935065Y2382963D01*
X21978132Y2419745D01*
X22034595Y2415302D01*
X22066934Y2382963D01*
X22075211Y2366719D01*
X22167719Y2274211D01*
X22284285Y2214818D01*
X22380997Y2199500D01*
X22871002Y2199501D01*
X22967715Y2214818D01*
X23084281Y2274211D01*
X23176789Y2366719D01*
X23185065Y2382963D01*
X23228132Y2419745D01*
X23284595Y2415302D01*
X23316934Y2382963D01*
X23325211Y2366719D01*
X23417719Y2274211D01*
X23534285Y2214818D01*
X23630997Y2199500D01*
X24121002Y2199501D01*
X24217715Y2214818D01*
X24334281Y2274211D01*
X24426789Y2366719D01*
X24435065Y2382963D01*
X24478132Y2419745D01*
X24534595Y2415302D01*
X24566934Y2382963D01*
X24575211Y2366719D01*
X24667719Y2274211D01*
X24784285Y2214818D01*
X24880997Y2199500D01*
X25371002Y2199501D01*
X25467715Y2214818D01*
X25584281Y2274211D01*
X25676789Y2366719D01*
X25685065Y2382963D01*
X25728132Y2419745D01*
X25784595Y2415302D01*
X25816934Y2382963D01*
X25825211Y2366719D01*
X25917719Y2274211D01*
X26034285Y2214818D01*
X26130997Y2199500D01*
X26621002Y2199501D01*
X26717715Y2214818D01*
X26834281Y2274211D01*
X26926789Y2366719D01*
X26986182Y2483285D01*
X27001500Y2579997D01*
X27001499Y4021099D01*
X27023173Y4073424D01*
X27075499Y4095098D01*
X27098777Y4091341D01*
X27141801Y4077084D01*
X27141808Y4077082D01*
X27240491Y4067001D01*
X27240493Y4067000D01*
X27772000Y4067000D01*
X27772000Y5180000D01*
X27793674Y5232326D01*
X27846000Y5254000D01*
X28206000Y5254000D01*
X28258326Y5232326D01*
X28280000Y5180000D01*
X28280000Y4067000D01*
X28811507Y4067000D01*
X28811508Y4067001D01*
X28910191Y4077082D01*
X29070068Y4130061D01*
X29213421Y4218482D01*
X29213425Y4218484D01*
X29332516Y4337575D01*
X29332518Y4337579D01*
X29362517Y4386214D01*
X29408434Y4419371D01*
X29464348Y4410349D01*
X29497505Y4364432D01*
X29499500Y4347366D01*
X29499500Y574500D01*
X29477826Y522174D01*
X29425500Y500500D01*
X24182739Y500500D01*
X24130413Y522174D01*
X24114372Y546182D01*
X24102642Y574500D01*
X24028405Y753726D01*
X23916948Y946774D01*
X23916946Y946777D01*
X23781252Y1123619D01*
X23623618Y1281253D01*
X23446776Y1416947D01*
X23446770Y1416951D01*
X23253725Y1528406D01*
X23253717Y1528409D01*
X23047782Y1613710D01*
X22832461Y1671405D01*
X22669647Y1692840D01*
X22611457Y1700500D01*
X22388543Y1700500D01*
X22337122Y1693731D01*
X22167538Y1671405D01*
X21952217Y1613710D01*
X21746282Y1528409D01*
X21746274Y1528406D01*
X21553229Y1416951D01*
X21553223Y1416947D01*
X21376381Y1281253D01*
X21218747Y1123619D01*
X21083053Y946777D01*
X21083049Y946771D01*
X20971594Y753726D01*
X20971591Y753718D01*
X20913302Y612995D01*
X20897358Y574500D01*
X20885628Y546182D01*
X20845580Y506133D01*
X20817261Y500500D01*
X14182739Y500500D01*
X14130413Y522174D01*
X14114372Y546182D01*
X14102642Y574500D01*
X14028405Y753726D01*
X13916948Y946774D01*
X13916946Y946777D01*
X13781252Y1123619D01*
X13623618Y1281253D01*
X13446776Y1416947D01*
X13446770Y1416951D01*
X13253725Y1528406D01*
X13253717Y1528409D01*
X13047782Y1613710D01*
X12832461Y1671405D01*
X12669647Y1692840D01*
X12611457Y1700500D01*
X12388543Y1700500D01*
X12337122Y1693731D01*
X12167538Y1671405D01*
X11952217Y1613710D01*
X11746282Y1528409D01*
X11746274Y1528406D01*
X11553229Y1416951D01*
X11553223Y1416947D01*
X11376381Y1281253D01*
X11218747Y1123619D01*
X11083053Y946777D01*
X11083049Y946771D01*
X10971594Y753726D01*
X10971591Y753718D01*
X10913302Y612995D01*
X10897358Y574500D01*
X10885628Y546182D01*
X10845580Y506133D01*
X10817261Y500500D01*
X4182739Y500500D01*
X4130413Y522174D01*
X4114372Y546182D01*
X4102642Y574500D01*
X4028405Y753726D01*
X3916948Y946774D01*
X3916946Y946777D01*
X3781252Y1123619D01*
X3623618Y1281253D01*
X3446776Y1416947D01*
X3446770Y1416951D01*
X3253725Y1528406D01*
X3253717Y1528409D01*
X3047782Y1613710D01*
X2832461Y1671405D01*
X2669647Y1692840D01*
X2611457Y1700500D01*
X2388543Y1700500D01*
X2337122Y1693731D01*
X2167538Y1671405D01*
X1952217Y1613710D01*
X1746282Y1528409D01*
X1746274Y1528406D01*
X1553229Y1416951D01*
X1553223Y1416947D01*
X1376381Y1281253D01*
X1218747Y1123619D01*
X1083053Y946777D01*
X1083049Y946771D01*
X971594Y753726D01*
X971591Y753718D01*
X913302Y612995D01*
X897358Y574500D01*
X885628Y546182D01*
X845580Y506133D01*
X817261Y500500D01*
X574500Y500500D01*
X522174Y522174D01*
X500500Y574500D01*
X500500Y2693000D01*
X522174Y2745326D01*
X574500Y2767000D01*
X1393200Y2767000D01*
X1901200Y2767000D01*
X2797703Y2767000D01*
X2797704Y2767001D01*
X2901525Y2777607D01*
X3069724Y2833343D01*
X3220538Y2926366D01*
X3220542Y2926368D01*
X3345832Y3051658D01*
X3345834Y3051662D01*
X3438857Y3202476D01*
X3494593Y3370675D01*
X3505199Y3474496D01*
X3505200Y3474498D01*
X3505200Y3521000D01*
X1901200Y3521000D01*
X1901200Y2767000D01*
X1393200Y2767000D01*
X1393200Y4029000D01*
X1901200Y4029000D01*
X3505200Y4029000D01*
X3505200Y4075503D01*
X3505199Y4075505D01*
X3494593Y4179326D01*
X3438857Y4347525D01*
X3345834Y4498339D01*
X3345832Y4498342D01*
X3220542Y4623632D01*
X3220538Y4623635D01*
X3069724Y4716658D01*
X2901525Y4772394D01*
X2797704Y4783000D01*
X1901200Y4783000D01*
X1901200Y4029000D01*
X1393200Y4029000D01*
X1393200Y4783000D01*
X574500Y4783000D01*
X522174Y4804674D01*
X500500Y4857000D01*
X500500Y10143000D01*
X522174Y10195326D01*
X574500Y10217000D01*
X1393200Y10217000D01*
X1901200Y10217000D01*
X2797703Y10217000D01*
X2797704Y10217001D01*
X2901525Y10227607D01*
X3069724Y10283343D01*
X3220538Y10376366D01*
X3220542Y10376368D01*
X3345832Y10501658D01*
X3345834Y10501662D01*
X3438857Y10652476D01*
X3494593Y10820675D01*
X3505199Y10924496D01*
X3505200Y10924498D01*
X3505200Y10971000D01*
X1901200Y10971000D01*
X1901200Y10217000D01*
X1393200Y10217000D01*
X1393200Y11479000D01*
X1901200Y11479000D01*
X3505200Y11479000D01*
X3505200Y11525503D01*
X3505199Y11525505D01*
X3494593Y11629326D01*
X3438857Y11797525D01*
X3345834Y11948339D01*
X3345832Y11948342D01*
X3220542Y12073632D01*
X3220538Y12073635D01*
X3069724Y12166658D01*
X2901525Y12222394D01*
X2797704Y12233000D01*
X1901200Y12233000D01*
X1901200Y11479000D01*
X1393200Y11479000D01*
X1393200Y12233000D01*
X574500Y12233000D01*
X522174Y12254674D01*
X500500Y12307000D01*
X500500Y14425500D01*
X522174Y14477826D01*
X574500Y14499500D01*
X817261Y14499500D01*
X869587Y14477826D01*
G37*
%TD.AperFunction*%
%TA.AperFunction,Conductor*%
G36*
X10869587Y14477826D02*
G01*
X10885628Y14453818D01*
X10886289Y14452222D01*
X10886290Y14452219D01*
X10925912Y14356563D01*
X10925912Y14299926D01*
X10885863Y14259878D01*
X10850849Y14254549D01*
X10812871Y14258000D01*
X10554000Y14258000D01*
X10554000Y13254000D01*
X11433000Y13254000D01*
X11433000Y13525248D01*
X11454674Y13577574D01*
X11507000Y13599248D01*
X11551132Y13584267D01*
X11551218Y13584394D01*
X11551695Y13584076D01*
X11552049Y13583955D01*
X11553226Y13583052D01*
X11746274Y13471595D01*
X11952219Y13386290D01*
X12167537Y13328596D01*
X12388543Y13299500D01*
X12388545Y13299500D01*
X12611455Y13299500D01*
X12611457Y13299500D01*
X12832463Y13328596D01*
X13047781Y13386290D01*
X13253726Y13471595D01*
X13446774Y13583052D01*
X13585566Y13689550D01*
X13623618Y13718748D01*
X13623619Y13718750D01*
X13623624Y13718753D01*
X13781247Y13876376D01*
X13825074Y13933492D01*
X13916946Y14053224D01*
X13916948Y14053226D01*
X14028405Y14246274D01*
X14113710Y14452219D01*
X14113710Y14452222D01*
X14114372Y14453818D01*
X14154420Y14493867D01*
X14182739Y14499500D01*
X20817261Y14499500D01*
X20869587Y14477826D01*
X20885628Y14453818D01*
X20886289Y14452222D01*
X20886290Y14452219D01*
X20922843Y14363971D01*
X20971591Y14246283D01*
X20971594Y14246275D01*
X21083049Y14053230D01*
X21083053Y14053224D01*
X21218747Y13876382D01*
X21376381Y13718748D01*
X21553223Y13583054D01*
X21553229Y13583050D01*
X21562714Y13577574D01*
X21746274Y13471595D01*
X21952219Y13386290D01*
X22167537Y13328596D01*
X22388543Y13299500D01*
X22388545Y13299500D01*
X22611455Y13299500D01*
X22611457Y13299500D01*
X22832463Y13328596D01*
X23047781Y13386290D01*
X23253726Y13471595D01*
X23446774Y13583052D01*
X23585566Y13689550D01*
X23623618Y13718748D01*
X23623619Y13718750D01*
X23623624Y13718753D01*
X23781247Y13876376D01*
X23825074Y13933492D01*
X23916946Y14053224D01*
X23916948Y14053226D01*
X24028405Y14246274D01*
X24113710Y14452219D01*
X24113710Y14452222D01*
X24114372Y14453818D01*
X24154420Y14493867D01*
X24182739Y14499500D01*
X29425500Y14499500D01*
X29477826Y14477826D01*
X29499500Y14425500D01*
X29499500Y6818455D01*
X29477826Y6766129D01*
X29425500Y6744455D01*
X29397182Y6750088D01*
X29257264Y6808044D01*
X29257260Y6808045D01*
X29124265Y6825554D01*
X29100500Y6828682D01*
X29100499Y6828682D01*
X29072779Y6825033D01*
X29018072Y6839693D01*
X28989754Y6888742D01*
X29004414Y6943449D01*
X29010787Y6950718D01*
X29101789Y7041719D01*
X29161182Y7158285D01*
X29176500Y7254997D01*
X29176499Y7745002D01*
X29161182Y7841715D01*
X29101789Y7958281D01*
X29009281Y8050789D01*
X28993037Y8059066D01*
X28956255Y8102132D01*
X28960698Y8158595D01*
X28993038Y8190935D01*
X29009281Y8199211D01*
X29101789Y8291719D01*
X29161182Y8408285D01*
X29176500Y8504997D01*
X29176499Y8995002D01*
X29161182Y9091715D01*
X29101789Y9208281D01*
X29009281Y9300789D01*
X28993037Y9309066D01*
X28956255Y9352132D01*
X28960698Y9408595D01*
X28993038Y9440935D01*
X29009281Y9449211D01*
X29101789Y9541719D01*
X29161182Y9658285D01*
X29176500Y9754997D01*
X29176499Y10245002D01*
X29161182Y10341715D01*
X29101789Y10458281D01*
X29009281Y10550789D01*
X28892714Y10610183D01*
X28796004Y10625500D01*
X27255997Y10625500D01*
X27159284Y10610182D01*
X27042718Y10550789D01*
X26950211Y10458282D01*
X26890817Y10341715D01*
X26875500Y10245005D01*
X26875500Y10156488D01*
X26853826Y10104162D01*
X26801500Y10082488D01*
X26749174Y10104162D01*
X26732166Y10130627D01*
X26726446Y10145962D01*
X26638903Y10262904D01*
X26521961Y10350447D01*
X26521960Y10350448D01*
X26506625Y10356167D01*
X26465172Y10394760D01*
X26463151Y10451361D01*
X26501744Y10492814D01*
X26532484Y10499501D01*
X26621002Y10499501D01*
X26621003Y10499501D01*
X26634225Y10501596D01*
X26717715Y10514818D01*
X26834281Y10574211D01*
X26926789Y10666719D01*
X26986182Y10783285D01*
X27001500Y10879997D01*
X27001499Y12420002D01*
X26986182Y12516715D01*
X26926789Y12633281D01*
X26834281Y12725789D01*
X26717714Y12785183D01*
X26621004Y12800500D01*
X26130997Y12800500D01*
X26034284Y12785182D01*
X25917718Y12725789D01*
X25825209Y12633280D01*
X25816934Y12617038D01*
X25773866Y12580256D01*
X25717404Y12584700D01*
X25685066Y12617038D01*
X25676790Y12633280D01*
X25584281Y12725789D01*
X25467714Y12785183D01*
X25371004Y12800500D01*
X24880997Y12800500D01*
X24784284Y12785182D01*
X24667718Y12725789D01*
X24575209Y12633280D01*
X24566934Y12617038D01*
X24523866Y12580256D01*
X24467404Y12584700D01*
X24435066Y12617038D01*
X24426790Y12633280D01*
X24334281Y12725789D01*
X24217714Y12785183D01*
X24121004Y12800500D01*
X23630997Y12800500D01*
X23534284Y12785182D01*
X23417718Y12725789D01*
X23325209Y12633280D01*
X23316934Y12617038D01*
X23273866Y12580256D01*
X23217404Y12584700D01*
X23185066Y12617038D01*
X23176790Y12633280D01*
X23084281Y12725789D01*
X22967714Y12785183D01*
X22871004Y12800500D01*
X22380997Y12800500D01*
X22284284Y12785182D01*
X22167718Y12725789D01*
X22075209Y12633280D01*
X22066934Y12617038D01*
X22023866Y12580256D01*
X21967404Y12584700D01*
X21935066Y12617038D01*
X21926790Y12633280D01*
X21834281Y12725789D01*
X21717714Y12785183D01*
X21621004Y12800500D01*
X21130997Y12800500D01*
X21034284Y12785182D01*
X20917718Y12725789D01*
X20825211Y12633282D01*
X20765817Y12516715D01*
X20750500Y12420005D01*
X20750500Y10879998D01*
X20765818Y10783286D01*
X20765818Y10783285D01*
X20825211Y10666719D01*
X20917719Y10574211D01*
X21034285Y10514818D01*
X21130997Y10499500D01*
X21219512Y10499501D01*
X21271837Y10477827D01*
X21293512Y10425502D01*
X21271838Y10373176D01*
X21245376Y10356168D01*
X21230038Y10350447D01*
X21113096Y10262904D01*
X21025553Y10145962D01*
X21019833Y10130625D01*
X20981239Y10089173D01*
X20924638Y10087152D01*
X20883186Y10125746D01*
X20876499Y10156486D01*
X20876499Y10245003D01*
X20873664Y10262904D01*
X20861182Y10341715D01*
X20801789Y10458281D01*
X20709281Y10550789D01*
X20592714Y10610183D01*
X20496004Y10625500D01*
X18955997Y10625500D01*
X18859284Y10610182D01*
X18742718Y10550789D01*
X18650210Y10458281D01*
X18615880Y10390904D01*
X18572813Y10354122D01*
X18549946Y10350500D01*
X18469354Y10350500D01*
X18380215Y10326616D01*
X18380210Y10326614D01*
X18300287Y10280470D01*
X17390670Y9370854D01*
X17338344Y9349180D01*
X17286018Y9370854D01*
X17272410Y9389585D01*
X17236659Y9459750D01*
X17142749Y9553660D01*
X17024420Y9613951D01*
X17024420Y9613952D01*
X16926247Y9629500D01*
X16926246Y9629500D01*
X16347754Y9629500D01*
X16347753Y9629500D01*
X16249579Y9613952D01*
X16249579Y9613951D01*
X16131250Y9553660D01*
X16037340Y9459750D01*
X15977049Y9341421D01*
X15977048Y9341421D01*
X15961500Y9243247D01*
X15961500Y8739754D01*
X15977049Y8641580D01*
X16037340Y8523251D01*
X16037342Y8523249D01*
X16131249Y8429342D01*
X16246107Y8370819D01*
X16282888Y8327753D01*
X16286510Y8304886D01*
X16286510Y8271460D01*
X16264836Y8219134D01*
X16257559Y8212752D01*
X16208726Y8175281D01*
X16208725Y8175280D01*
X16112474Y8049842D01*
X16051965Y7903762D01*
X16051965Y7903761D01*
X16031328Y7747000D01*
X16051965Y7590240D01*
X16051965Y7590239D01*
X16112474Y7444159D01*
X16192744Y7339548D01*
X16207403Y7284841D01*
X16179084Y7235792D01*
X16134036Y7220500D01*
X15911813Y7220500D01*
X15859487Y7242174D01*
X15214097Y7887565D01*
X15192423Y7939891D01*
X15193056Y7949550D01*
X15201090Y8010572D01*
X15180452Y8167334D01*
X15127001Y8296376D01*
X15127001Y8353014D01*
X15161771Y8390629D01*
X15237751Y8429342D01*
X15331658Y8523249D01*
X15391951Y8641580D01*
X15407500Y8739754D01*
X15407500Y9243246D01*
X15391951Y9341420D01*
X15346435Y9430750D01*
X15331659Y9459750D01*
X15237749Y9553660D01*
X15119420Y9613951D01*
X15119420Y9613952D01*
X15021247Y9629500D01*
X15021246Y9629500D01*
X14540044Y9629500D01*
X14487718Y9651174D01*
X14466044Y9703500D01*
X14487718Y9755826D01*
X14638718Y9906826D01*
X14691044Y9928500D01*
X15021247Y9928500D01*
X15119420Y9944049D01*
X15237751Y10004342D01*
X15331658Y10098249D01*
X15345592Y10125595D01*
X15388659Y10162378D01*
X15411526Y10166000D01*
X15957474Y10166000D01*
X16009800Y10144326D01*
X16023408Y10125595D01*
X16037340Y10098251D01*
X16131250Y10004341D01*
X16173046Y9983045D01*
X16249579Y9944050D01*
X16249579Y9944049D01*
X16347753Y9928500D01*
X16347754Y9928500D01*
X16926247Y9928500D01*
X17024420Y9944049D01*
X17142751Y10004342D01*
X17236658Y10098249D01*
X17296951Y10216580D01*
X17312500Y10314754D01*
X17312500Y10818246D01*
X17296951Y10916420D01*
X17266804Y10975586D01*
X17236659Y11034750D01*
X17142749Y11128660D01*
X17024420Y11188951D01*
X17024420Y11188952D01*
X16926247Y11204500D01*
X16926246Y11204500D01*
X16347754Y11204500D01*
X16347753Y11204500D01*
X16249579Y11188952D01*
X16249579Y11188951D01*
X16131250Y11128660D01*
X16037340Y11034750D01*
X16023408Y11007405D01*
X15980341Y10970622D01*
X15957474Y10967000D01*
X15411526Y10967000D01*
X15359200Y10988674D01*
X15345592Y11007405D01*
X15331659Y11034750D01*
X15237749Y11128660D01*
X15119420Y11188951D01*
X15119420Y11188952D01*
X15021247Y11204500D01*
X15021246Y11204500D01*
X14442754Y11204500D01*
X14442753Y11204500D01*
X14344579Y11188952D01*
X14344579Y11188951D01*
X14226250Y11128660D01*
X14132340Y11034750D01*
X14072049Y10916421D01*
X14072048Y10916421D01*
X14056500Y10818247D01*
X14056500Y10488046D01*
X14034826Y10435720D01*
X13904279Y10305174D01*
X13851953Y10283500D01*
X12716000Y10283500D01*
X12663674Y10305174D01*
X12642000Y10357500D01*
X12642000Y10791500D01*
X13150000Y10791500D01*
X13878999Y10791500D01*
X13878999Y10804665D01*
X13878998Y10804671D01*
X13868830Y10904213D01*
X13868829Y10904218D01*
X13815393Y11065478D01*
X13726205Y11210074D01*
X13606073Y11330206D01*
X13461477Y11419394D01*
X13300214Y11472831D01*
X13200669Y11483000D01*
X13150000Y11483000D01*
X13150000Y10791500D01*
X12642000Y10791500D01*
X12642000Y11483000D01*
X12641999Y11483001D01*
X12591336Y11483000D01*
X12591328Y11482999D01*
X12491787Y11472831D01*
X12491782Y11472830D01*
X12330522Y11419394D01*
X12185925Y11330206D01*
X12153679Y11297959D01*
X12101353Y11276286D01*
X12049027Y11297961D01*
X12028637Y11343719D01*
X12027712Y11343619D01*
X12020994Y11406094D01*
X12020993Y11406099D01*
X11969947Y11542961D01*
X11969946Y11542962D01*
X11882403Y11659904D01*
X11765461Y11747447D01*
X11765460Y11747448D01*
X11628598Y11798494D01*
X11628593Y11798495D01*
X11568091Y11805000D01*
X11279441Y11805000D01*
X11227115Y11826674D01*
X11205441Y11879000D01*
X11227115Y11931326D01*
X11293319Y11997531D01*
X11378082Y12137747D01*
X11426821Y12294158D01*
X11426823Y12294168D01*
X11432999Y12362131D01*
X11433000Y12362140D01*
X11433000Y12746000D01*
X10174500Y12746000D01*
X10122174Y12767674D01*
X10100500Y12820000D01*
X10100500Y13778841D01*
X10079128Y13886283D01*
X10069737Y13933497D01*
X10051633Y13977205D01*
X10046000Y14005523D01*
X10046000Y14258000D01*
X9904730Y14258000D01*
X9852404Y14279674D01*
X9810288Y14321790D01*
X9747159Y14363971D01*
X9715693Y14411063D01*
X9726742Y14466612D01*
X9773834Y14498078D01*
X9788271Y14499500D01*
X10817261Y14499500D01*
X10869587Y14477826D01*
G37*
%TD.AperFunction*%
%TA.AperFunction,Conductor*%
G36*
X6940187Y12027826D02*
G01*
X6956228Y12003818D01*
X6990603Y11920826D01*
X7072341Y11798495D01*
X7078211Y11789711D01*
X7189711Y11678211D01*
X7320821Y11590606D01*
X7320826Y11590604D01*
X7320825Y11590604D01*
X7458425Y11533609D01*
X7466503Y11530263D01*
X7621158Y11499500D01*
X7621160Y11499500D01*
X9378840Y11499500D01*
X9378842Y11499500D01*
X9533497Y11530263D01*
X9534696Y11530761D01*
X9535134Y11530761D01*
X9536973Y11531318D01*
X9537142Y11530761D01*
X9591332Y11530770D01*
X9631387Y11490728D01*
X9632360Y11436539D01*
X9621005Y11406095D01*
X9621005Y11406094D01*
X9614288Y11343619D01*
X9613506Y11343704D01*
X9590045Y11294718D01*
X9536626Y11275898D01*
X9532707Y11276214D01*
X9469591Y11283000D01*
X9325000Y11283000D01*
X9325000Y10295000D01*
X9303326Y10242674D01*
X9251000Y10221000D01*
X8891000Y10221000D01*
X8838674Y10242674D01*
X8817000Y10295000D01*
X8817000Y11283000D01*
X8672409Y11283000D01*
X8611906Y11276495D01*
X8611901Y11276494D01*
X8475039Y11225448D01*
X8475038Y11225447D01*
X8358096Y11137904D01*
X8270553Y11020962D01*
X8232119Y10917916D01*
X8193525Y10876464D01*
X8136924Y10874443D01*
X8095472Y10913037D01*
X8089697Y10932199D01*
X8080951Y10987420D01*
X8020658Y11105751D01*
X7926751Y11199658D01*
X7926749Y11199660D01*
X7808420Y11259951D01*
X7808420Y11259952D01*
X7710247Y11275500D01*
X7710246Y11275500D01*
X7309334Y11275500D01*
X7257008Y11297174D01*
X6797174Y11757008D01*
X6775500Y11809334D01*
X6775500Y11975500D01*
X6797174Y12027826D01*
X6849500Y12049500D01*
X6887861Y12049500D01*
X6940187Y12027826D01*
G37*
%TD.AperFunction*%
%TD*%
M02*
