%TF.GenerationSoftware,KiCad,Pcbnew,7.0.7-7.0.7~ubuntu23.04.1*%
%TF.CreationDate,2023-10-01T20:37:26+00:00*%
%TF.ProjectId,TFCO201,5446434f-3230-4312-9e6b-696361645f70,rev?*%
%TF.SameCoordinates,Original*%
%TF.FileFunction,Paste,Bot*%
%TF.FilePolarity,Positive*%
%FSLAX46Y46*%
G04 Gerber Fmt 4.6, Leading zero omitted, Abs format (unit mm)*
G04 Created by KiCad (PCBNEW 7.0.7-7.0.7~ubuntu23.04.1) date 2023-10-01 20:37:26*
%MOMM*%
%LPD*%
G01*
G04 APERTURE LIST*
G04 Aperture macros list*
%AMRoundRect*
0 Rectangle with rounded corners*
0 $1 Rounding radius*
0 $2 $3 $4 $5 $6 $7 $8 $9 X,Y pos of 4 corners*
0 Add a 4 corners polygon primitive as box body*
4,1,4,$2,$3,$4,$5,$6,$7,$8,$9,$2,$3,0*
0 Add four circle primitives for the rounded corners*
1,1,$1+$1,$2,$3*
1,1,$1+$1,$4,$5*
1,1,$1+$1,$6,$7*
1,1,$1+$1,$8,$9*
0 Add four rect primitives between the rounded corners*
20,1,$1+$1,$2,$3,$4,$5,0*
20,1,$1+$1,$4,$5,$6,$7,0*
20,1,$1+$1,$6,$7,$8,$9,0*
20,1,$1+$1,$8,$9,$2,$3,0*%
G04 Aperture macros list end*
%ADD10RoundRect,0.166667X0.458333X0.583333X-0.458333X0.583333X-0.458333X-0.583333X0.458333X-0.583333X0*%
%ADD11RoundRect,0.166667X-0.458333X-0.583333X0.458333X-0.583333X0.458333X0.583333X-0.458333X0.583333X0*%
%ADD12RoundRect,0.218750X0.256250X-0.218750X0.256250X0.218750X-0.256250X0.218750X-0.256250X-0.218750X0*%
%ADD13R,0.700000X0.600000*%
%ADD14RoundRect,0.150000X0.700000X-0.150000X0.700000X0.150000X-0.700000X0.150000X-0.700000X-0.150000X0*%
%ADD15RoundRect,0.250000X1.100000X-0.250000X1.100000X0.250000X-1.100000X0.250000X-1.100000X-0.250000X0*%
%ADD16RoundRect,0.218750X-0.256250X0.218750X-0.256250X-0.218750X0.256250X-0.218750X0.256250X0.218750X0*%
%ADD17R,1.397000X0.889000*%
%ADD18R,0.650000X1.060000*%
%ADD19RoundRect,0.250001X0.714999X-0.714999X0.714999X0.714999X-0.714999X0.714999X-0.714999X-0.714999X0*%
%ADD20RoundRect,0.212500X0.212500X-0.737500X0.212500X0.737500X-0.212500X0.737500X-0.212500X-0.737500X0*%
%ADD21RoundRect,0.212500X0.737500X-0.212500X0.737500X0.212500X-0.737500X0.212500X-0.737500X-0.212500X0*%
G04 APERTURE END LIST*
D10*
%TO.C,D2*%
X10300000Y13000000D03*
D11*
X6700000Y13000000D03*
%TD*%
D12*
%TO.C,C4*%
X11811000Y4572000D03*
X11811000Y6147000D03*
%TD*%
D13*
%TO.C,D1*%
X9071000Y9075000D03*
X9071000Y10475000D03*
%TD*%
D14*
%TO.C,J1*%
X4847200Y5625000D03*
X4847200Y6875000D03*
X4847200Y8125000D03*
X4847200Y9375000D03*
D15*
X1647200Y3775000D03*
X1647200Y11225000D03*
%TD*%
D16*
%TO.C,C5*%
X16764000Y5613500D03*
X16764000Y4038500D03*
%TD*%
D12*
%TO.C,C1*%
X12896000Y8962500D03*
X12896000Y10537500D03*
%TD*%
D17*
%TO.C,C3*%
X10821000Y8947500D03*
X10821000Y10852500D03*
%TD*%
D18*
%TO.C,U3*%
X9967000Y4996000D03*
X9017000Y4996000D03*
X8067000Y4996000D03*
X8067000Y7196000D03*
X9967000Y7196000D03*
%TD*%
D16*
%TO.C,R3*%
X16637000Y10566500D03*
X16637000Y8991500D03*
%TD*%
%TO.C,R10*%
X14732000Y10566500D03*
X14732000Y8991500D03*
%TD*%
D19*
%TO.C,U2*%
X22676000Y6300000D03*
X25076000Y6300000D03*
X22676000Y8700000D03*
X25076000Y8700000D03*
D20*
X26376000Y3350000D03*
X25126000Y3350000D03*
X23876000Y3350000D03*
X22626000Y3350000D03*
X21376000Y3350000D03*
D21*
X19726000Y5000000D03*
X19726000Y6250000D03*
X19726000Y7500000D03*
X19726000Y8750000D03*
X19726000Y10000000D03*
D20*
X21376000Y11650000D03*
X22626000Y11650000D03*
X23876000Y11650000D03*
X25126000Y11650000D03*
X26376000Y11650000D03*
D21*
X28026000Y10000000D03*
X28026000Y8750000D03*
X28026000Y7500000D03*
X28026000Y6250000D03*
X28026000Y5000000D03*
%TD*%
D12*
%TO.C,R1*%
X7421000Y9062500D03*
X7421000Y10637500D03*
%TD*%
M02*
