M48
; DRILL file {KiCad 7.0.7-7.0.7~ubuntu23.04.1} date Sun Oct  1 20:37:26 2023
; FORMAT={3:3/ absolute / metric / suppress leading zeros}
; #@! TF.CreationDate,2023-10-01T20:37:26+00:00
; #@! TF.GenerationSoftware,Kicad,Pcbnew,7.0.7-7.0.7~ubuntu23.04.1
; #@! TF.FileFunction,Plated,1,2,PTH
FMAT,2
METRIC,TZ
; #@! TA.AperFunction,Plated,PTH,ViaDrill
T1C0.400
%
G90
G05
T1
X1016Y8890
X1016Y7747
X1016Y6604
X1143Y12827
X1143Y5461
X1143Y2286
X1651Y9779
X2159Y12827
X2286Y2286
X2794Y9398
X2850Y6875
X3175Y12827
X3429Y2286
X3937Y12065
X4064Y10668
X4191Y4318
X4191Y3175
X5080Y10668
X6350Y9398
X6350Y6858
X6771Y7950
X9046Y11125
X9121Y5875
X14595Y8011
X16637Y7747
X18022Y5727
X18030Y6862
X29101Y6223
T0
M30
