%TF.GenerationSoftware,KiCad,Pcbnew,7.0.7-7.0.7~ubuntu23.04.1*%
%TF.CreationDate,2023-10-01T20:17:35+00:00*%
%TF.ProjectId,TFCO201,5446434f-3230-4312-9e6b-696361645f70,rev?*%
%TF.SameCoordinates,Original*%
%TF.FileFunction,Copper,L1,Top*%
%TF.FilePolarity,Positive*%
%FSLAX46Y46*%
G04 Gerber Fmt 4.6, Leading zero omitted, Abs format (unit mm)*
G04 Created by KiCad (PCBNEW 7.0.7-7.0.7~ubuntu23.04.1) date 2023-10-01 20:17:35*
%MOMM*%
%LPD*%
G01*
G04 APERTURE LIST*
G04 Aperture macros list*
%AMRoundRect*
0 Rectangle with rounded corners*
0 $1 Rounding radius*
0 $2 $3 $4 $5 $6 $7 $8 $9 X,Y pos of 4 corners*
0 Add a 4 corners polygon primitive as box body*
4,1,4,$2,$3,$4,$5,$6,$7,$8,$9,$2,$3,0*
0 Add four circle primitives for the rounded corners*
1,1,$1+$1,$2,$3*
1,1,$1+$1,$4,$5*
1,1,$1+$1,$6,$7*
1,1,$1+$1,$8,$9*
0 Add four rect primitives between the rounded corners*
20,1,$1+$1,$2,$3,$4,$5,0*
20,1,$1+$1,$4,$5,$6,$7,0*
20,1,$1+$1,$6,$7,$8,$9,0*
20,1,$1+$1,$8,$9,$2,$3,0*%
G04 Aperture macros list end*
%TA.AperFunction,SMDPad,CuDef*%
%ADD10RoundRect,0.150000X-0.700000X0.150000X-0.700000X-0.150000X0.700000X-0.150000X0.700000X0.150000X0*%
%TD*%
%TA.AperFunction,SMDPad,CuDef*%
%ADD11RoundRect,0.250000X-1.100000X0.250000X-1.100000X-0.250000X1.100000X-0.250000X1.100000X0.250000X0*%
%TD*%
%TA.AperFunction,ViaPad*%
%ADD12C,0.800000*%
%TD*%
%TA.AperFunction,Conductor*%
%ADD13C,0.400000*%
%TD*%
%TA.AperFunction,Conductor*%
%ADD14C,0.300000*%
%TD*%
G04 APERTURE END LIST*
D10*
%TO.P,J2,1*%
%TO.N,+5V*%
X4847200Y9375000D03*
%TO.P,J2,2*%
%TO.N,/SCL*%
X4847200Y8125000D03*
%TO.P,J2,3*%
%TO.N,/SDA*%
X4847200Y6875000D03*
%TO.P,J2,4*%
%TO.N,GND*%
X4847200Y5625000D03*
D11*
%TO.P,J2,MP*%
X1647200Y11225000D03*
X1647200Y3775000D03*
%TD*%
D12*
%TO.N,GND*%
X4191000Y4318000D03*
X1143000Y12827000D03*
X3937000Y12065000D03*
X2159000Y12827000D03*
X3175000Y12827000D03*
X1143000Y5461000D03*
X1143000Y2286000D03*
X1651000Y9779000D03*
X3429000Y2286000D03*
X4191000Y3175000D03*
X1016000Y8890000D03*
X2286000Y2286000D03*
X5080000Y10668000D03*
X1016000Y7747000D03*
X9046000Y11125000D03*
X9121000Y5875000D03*
X1016000Y6604000D03*
X4064000Y10668000D03*
%TO.N,+3V3*%
X18022250Y5726750D03*
X29100500Y6223000D03*
%TO.N,+5V*%
X2794000Y9398000D03*
X6350000Y9398000D03*
%TO.N,/SDA*%
X2850000Y6875000D03*
X6771000Y7950000D03*
X14595408Y8010572D03*
%TO.N,/SCL*%
X18030486Y6862177D03*
X6350000Y6858000D03*
X16637010Y7747000D03*
%TD*%
D13*
%TO.N,GND*%
X5537000Y11125000D02*
X5080000Y10668000D01*
X6796000Y5625000D02*
X4650000Y5625000D01*
X9046000Y11125000D02*
X5537000Y11125000D01*
X9121000Y5875000D02*
X7046000Y5875000D01*
X7046000Y5875000D02*
X6796000Y5625000D01*
%TO.N,+3V3*%
X28604250Y5726750D02*
X18022250Y5726750D01*
X29100500Y6223000D02*
X28604250Y5726750D01*
%TO.N,+5V*%
X4627000Y9398000D02*
X4650000Y9375000D01*
X6327000Y9375000D02*
X6350000Y9398000D01*
X4650000Y9375000D02*
X6327000Y9375000D01*
X2794000Y9398000D02*
X4627000Y9398000D01*
%TO.N,/SDA*%
X4650000Y6875000D02*
X2850000Y6875000D01*
D14*
X6771000Y7950000D02*
X14534836Y7950000D01*
X14534836Y7950000D02*
X14595408Y8010572D01*
%TO.N,/SCL*%
X15748010Y6858000D02*
X16637010Y7747000D01*
X16637010Y7747000D02*
X17145663Y7747000D01*
D13*
X4650000Y8125000D02*
X5465334Y8125000D01*
D14*
X17145663Y7747000D02*
X18030486Y6862177D01*
X6350000Y6858000D02*
X15748010Y6858000D01*
D13*
X6350000Y7240334D02*
X6350000Y6858000D01*
X5465334Y8125000D02*
X6350000Y7240334D01*
%TD*%
%TA.AperFunction,Conductor*%
%TO.N,GND*%
G36*
X868423Y14482187D02*
G01*
X890499Y14450517D01*
X943721Y14302332D01*
X993279Y14211195D01*
X1068456Y14072947D01*
X1068458Y14072944D01*
X1068459Y14072943D01*
X1226750Y13865284D01*
X1414886Y13684222D01*
X1527491Y13605018D01*
X1628457Y13534000D01*
X1628459Y13533999D01*
X1862456Y13418139D01*
X2046937Y13359758D01*
X2111395Y13339359D01*
X2369445Y13299500D01*
X2565172Y13299500D01*
X2565177Y13299500D01*
X2760344Y13314484D01*
X2760350Y13314486D01*
X2760354Y13314486D01*
X2866647Y13339360D01*
X3014586Y13373979D01*
X3256766Y13471586D01*
X3361752Y13534001D01*
X3481204Y13605015D01*
X3481205Y13605017D01*
X3481208Y13605018D01*
X3682652Y13771148D01*
X3856375Y13966080D01*
X3998306Y14185247D01*
X4105118Y14423511D01*
X4111053Y14445110D01*
X4140352Y14486387D01*
X4182408Y14499500D01*
X7211729Y14499500D01*
X7259295Y14482187D01*
X7284605Y14438350D01*
X7275815Y14388500D01*
X7252841Y14363971D01*
X7189711Y14321790D01*
X7078210Y14210289D01*
X6990603Y14079175D01*
X6930264Y13933502D01*
X6930261Y13933492D01*
X6899500Y13778841D01*
X6899500Y12221160D01*
X6930261Y12066509D01*
X6930264Y12066499D01*
X6990603Y11920826D01*
X6990605Y11920823D01*
X6990606Y11920821D01*
X7078211Y11789711D01*
X7189711Y11678211D01*
X7320821Y11590606D01*
X7320826Y11590604D01*
X7320825Y11590604D01*
X7466498Y11530265D01*
X7466503Y11530263D01*
X7621158Y11499500D01*
X7621160Y11499500D01*
X9378840Y11499500D01*
X9378842Y11499500D01*
X9533497Y11530263D01*
X9679179Y11590606D01*
X9810289Y11678211D01*
X9921789Y11789711D01*
X10009394Y11920821D01*
X10069737Y12066503D01*
X10100500Y12221158D01*
X10100500Y12300000D01*
X10100500Y12365892D01*
X10100500Y13735799D01*
X10100500Y13735800D01*
X10100500Y13778842D01*
X10069737Y13933497D01*
X10069735Y13933502D01*
X10009396Y14079175D01*
X10009395Y14079177D01*
X10009394Y14079179D01*
X9921789Y14210289D01*
X9810289Y14321789D01*
X9747158Y14363972D01*
X9717227Y14404793D01*
X9720538Y14455303D01*
X9755542Y14491869D01*
X9788271Y14499500D01*
X10820857Y14499500D01*
X10868423Y14482187D01*
X10890499Y14450517D01*
X10943721Y14302332D01*
X10993279Y14211195D01*
X11068456Y14072947D01*
X11068458Y14072944D01*
X11068459Y14072943D01*
X11226750Y13865284D01*
X11414886Y13684222D01*
X11527491Y13605018D01*
X11628457Y13534000D01*
X11628459Y13533999D01*
X11862456Y13418139D01*
X12046937Y13359758D01*
X12111395Y13339359D01*
X12369445Y13299500D01*
X12565172Y13299500D01*
X12565177Y13299500D01*
X12760344Y13314484D01*
X12760350Y13314486D01*
X12760354Y13314486D01*
X12866647Y13339360D01*
X13014586Y13373979D01*
X13256766Y13471586D01*
X13361752Y13534001D01*
X13481204Y13605015D01*
X13481205Y13605017D01*
X13481208Y13605018D01*
X13682652Y13771148D01*
X13856375Y13966080D01*
X13998306Y14185247D01*
X14105118Y14423511D01*
X14111053Y14445110D01*
X14140352Y14486387D01*
X14182408Y14499500D01*
X20820857Y14499500D01*
X20868423Y14482187D01*
X20890499Y14450517D01*
X20943721Y14302332D01*
X20993279Y14211195D01*
X21068456Y14072947D01*
X21068458Y14072944D01*
X21068459Y14072943D01*
X21226750Y13865284D01*
X21414886Y13684222D01*
X21527491Y13605018D01*
X21628457Y13534000D01*
X21628459Y13533999D01*
X21862456Y13418139D01*
X22046937Y13359758D01*
X22111395Y13339359D01*
X22369445Y13299500D01*
X22565172Y13299500D01*
X22565177Y13299500D01*
X22760344Y13314484D01*
X22760350Y13314486D01*
X22760354Y13314486D01*
X22866647Y13339360D01*
X23014586Y13373979D01*
X23256766Y13471586D01*
X23361752Y13534001D01*
X23481204Y13605015D01*
X23481205Y13605017D01*
X23481208Y13605018D01*
X23682652Y13771148D01*
X23856375Y13966080D01*
X23998306Y14185247D01*
X24105118Y14423511D01*
X24111053Y14445110D01*
X24140352Y14486387D01*
X24182408Y14499500D01*
X29425500Y14499500D01*
X29473066Y14482187D01*
X29498376Y14438350D01*
X29499500Y14425500D01*
X29499500Y6818455D01*
X29482187Y6770889D01*
X29438350Y6745579D01*
X29397182Y6750088D01*
X29257264Y6808044D01*
X29257260Y6808045D01*
X29100500Y6828682D01*
X28943739Y6808045D01*
X28943738Y6808045D01*
X28797658Y6747536D01*
X28672220Y6651285D01*
X28672215Y6651280D01*
X28575964Y6525842D01*
X28515455Y6379762D01*
X28515455Y6379761D01*
X28494818Y6223001D01*
X28494818Y6218151D01*
X28493229Y6218151D01*
X28483661Y6175032D01*
X28473588Y6162482D01*
X28460033Y6148927D01*
X28414161Y6127532D01*
X28407706Y6127250D01*
X18508342Y6127250D01*
X18460776Y6144563D01*
X18453995Y6151645D01*
X18453957Y6151606D01*
X18450527Y6155037D01*
X18349449Y6232596D01*
X18322251Y6275287D01*
X18328858Y6325473D01*
X18349449Y6350012D01*
X18350038Y6350464D01*
X18458768Y6433895D01*
X18555022Y6559336D01*
X18615530Y6705415D01*
X18636168Y6862177D01*
X18615530Y7018939D01*
X18555022Y7165018D01*
X18510942Y7222464D01*
X18458770Y7290457D01*
X18458765Y7290462D01*
X18333327Y7386713D01*
X18187247Y7447222D01*
X18051122Y7465143D01*
X18030486Y7467859D01*
X18030485Y7467859D01*
X17969461Y7459826D01*
X17920042Y7470783D01*
X17907477Y7480867D01*
X17424633Y7963712D01*
X17415008Y7975564D01*
X17407100Y7987669D01*
X17379932Y8008814D01*
X17376501Y8011844D01*
X17372970Y8015375D01*
X17355224Y8028045D01*
X17314789Y8059517D01*
X17309399Y8062434D01*
X17309568Y8062748D01*
X17307393Y8063868D01*
X17307237Y8063547D01*
X17301725Y8066242D01*
X17252617Y8080862D01*
X17204152Y8097501D01*
X17198106Y8098509D01*
X17198164Y8098862D01*
X17195746Y8099214D01*
X17195702Y8098858D01*
X17189618Y8099617D01*
X17189617Y8099617D01*
X17189615Y8099617D01*
X17163770Y8098548D01*
X17115529Y8113881D01*
X17102005Y8127437D01*
X17065294Y8175280D01*
X17065289Y8175285D01*
X16939851Y8271536D01*
X16793771Y8332045D01*
X16637010Y8352682D01*
X16480249Y8332045D01*
X16480248Y8332045D01*
X16334168Y8271536D01*
X16208730Y8175285D01*
X16208725Y8175280D01*
X16112474Y8049842D01*
X16051965Y7903762D01*
X16051965Y7903761D01*
X16031328Y7747000D01*
X16039361Y7685978D01*
X16028405Y7636559D01*
X16018320Y7623994D01*
X15624502Y7230174D01*
X15578626Y7208782D01*
X15572176Y7208500D01*
X6874459Y7208500D01*
X6826893Y7225813D01*
X6815757Y7237444D01*
X6815199Y7238171D01*
X6799971Y7286445D01*
X6819336Y7333213D01*
X6864229Y7356592D01*
X6927762Y7364956D01*
X7073841Y7425464D01*
X7199282Y7521718D01*
X7212316Y7538705D01*
X7236751Y7570548D01*
X7279442Y7597746D01*
X7295459Y7599500D01*
X14119578Y7599500D01*
X14164626Y7584208D01*
X14237931Y7527959D01*
X14292567Y7486036D01*
X14438646Y7425528D01*
X14595408Y7404890D01*
X14752170Y7425528D01*
X14898249Y7486036D01*
X15023690Y7582290D01*
X15119944Y7707731D01*
X15180452Y7853810D01*
X15201090Y8010572D01*
X15180452Y8167334D01*
X15119944Y8313413D01*
X15070170Y8378280D01*
X15023692Y8438852D01*
X15023687Y8438857D01*
X14898249Y8535108D01*
X14752169Y8595617D01*
X14595408Y8616254D01*
X14438647Y8595617D01*
X14438646Y8595617D01*
X14292566Y8535108D01*
X14167128Y8438857D01*
X14167123Y8438852D01*
X14083178Y8329452D01*
X14040486Y8302254D01*
X14024470Y8300500D01*
X7295459Y8300500D01*
X7247893Y8317813D01*
X7236751Y8329452D01*
X7199284Y8378280D01*
X7199279Y8378285D01*
X7073841Y8474536D01*
X6927761Y8535045D01*
X6771000Y8555682D01*
X6614239Y8535045D01*
X6614238Y8535045D01*
X6468158Y8474536D01*
X6342720Y8378285D01*
X6342715Y8378280D01*
X6246464Y8252842D01*
X6188506Y8112921D01*
X6154308Y8075601D01*
X6104122Y8068994D01*
X6067813Y8088914D01*
X5919374Y8237353D01*
X5897982Y8283229D01*
X5897700Y8289679D01*
X5897700Y8308254D01*
X5897700Y8308260D01*
X5887773Y8376393D01*
X5836398Y8481483D01*
X5753683Y8564198D01*
X5753682Y8564199D01*
X5648594Y8615573D01*
X5580464Y8625500D01*
X5580460Y8625500D01*
X4113940Y8625500D01*
X4113935Y8625500D01*
X4045806Y8615573D01*
X4045805Y8615573D01*
X3940717Y8564199D01*
X3858001Y8481483D01*
X3806627Y8376395D01*
X3806627Y8376394D01*
X3796700Y8308265D01*
X3796700Y7941736D01*
X3806627Y7873607D01*
X3806627Y7873606D01*
X3858001Y7768518D01*
X3858001Y7768517D01*
X3858002Y7768517D01*
X3940717Y7685802D01*
X4045807Y7634427D01*
X4113940Y7624500D01*
X5368789Y7624500D01*
X5416355Y7607187D01*
X5421115Y7602826D01*
X5522115Y7501826D01*
X5543507Y7455950D01*
X5530406Y7407055D01*
X5488942Y7378021D01*
X5469789Y7375500D01*
X4113935Y7375500D01*
X4045806Y7365573D01*
X4045805Y7365573D01*
X3940717Y7314199D01*
X3923693Y7297174D01*
X3877817Y7275782D01*
X3871367Y7275500D01*
X3336092Y7275500D01*
X3288526Y7292813D01*
X3281745Y7299895D01*
X3281707Y7299856D01*
X3278277Y7303287D01*
X3152841Y7399536D01*
X3006761Y7460045D01*
X2850000Y7480682D01*
X2693239Y7460045D01*
X2693238Y7460045D01*
X2547158Y7399536D01*
X2421720Y7303285D01*
X2421715Y7303280D01*
X2325464Y7177842D01*
X2264955Y7031762D01*
X2264955Y7031761D01*
X2244318Y6875000D01*
X2264955Y6718240D01*
X2264955Y6718239D01*
X2325464Y6572159D01*
X2421715Y6446721D01*
X2421720Y6446716D01*
X2443875Y6429716D01*
X2547159Y6350464D01*
X2693238Y6289956D01*
X2850000Y6269318D01*
X3006762Y6289956D01*
X3152841Y6350464D01*
X3278282Y6446718D01*
X3278285Y6446723D01*
X3281707Y6450144D01*
X3282831Y6449020D01*
X3320077Y6472746D01*
X3336092Y6474500D01*
X3766866Y6474500D01*
X3814432Y6457187D01*
X3839742Y6413350D01*
X3830952Y6363500D01*
X3804535Y6336805D01*
X3740701Y6299055D01*
X3623145Y6181499D01*
X3538518Y6038402D01*
X3492207Y5879000D01*
X6202192Y5879000D01*
X6155881Y6038402D01*
X6072949Y6178632D01*
X6063638Y6228387D01*
X6088487Y6272487D01*
X6135869Y6290297D01*
X6164962Y6284669D01*
X6193238Y6272956D01*
X6350000Y6252318D01*
X6506762Y6272956D01*
X6652841Y6333464D01*
X6778282Y6429718D01*
X6799360Y6457187D01*
X6815751Y6478548D01*
X6858442Y6505746D01*
X6874459Y6507500D01*
X15703985Y6507500D01*
X15719169Y6505926D01*
X15733325Y6502957D01*
X15767491Y6507217D01*
X15772071Y6507500D01*
X15777045Y6507500D01*
X15777050Y6507500D01*
X15798550Y6511088D01*
X15849403Y6517427D01*
X15849411Y6517432D01*
X15855278Y6519177D01*
X15855381Y6518830D01*
X15857706Y6519575D01*
X15857589Y6519916D01*
X15863389Y6521908D01*
X15863391Y6521908D01*
X15885922Y6534102D01*
X15908455Y6546296D01*
X15954494Y6568802D01*
X15959486Y6572366D01*
X15959694Y6572074D01*
X15961650Y6573532D01*
X15961429Y6573816D01*
X15966263Y6577580D01*
X15966268Y6577582D01*
X16000967Y6615276D01*
X16514002Y7128313D01*
X16559877Y7149704D01*
X16575981Y7149354D01*
X16637010Y7141318D01*
X16793772Y7161956D01*
X16939851Y7222464D01*
X17021148Y7284846D01*
X17069420Y7300066D01*
X17116186Y7280695D01*
X17118519Y7278462D01*
X17411796Y6985185D01*
X17433188Y6939309D01*
X17432837Y6923201D01*
X17424804Y6862178D01*
X17445441Y6705417D01*
X17445441Y6705416D01*
X17505950Y6559336D01*
X17602201Y6433898D01*
X17602206Y6433893D01*
X17703286Y6356332D01*
X17730484Y6313641D01*
X17723877Y6263455D01*
X17703287Y6238916D01*
X17593967Y6155032D01*
X17593965Y6155030D01*
X17497714Y6029592D01*
X17437205Y5883512D01*
X17437205Y5883511D01*
X17416568Y5726751D01*
X17437205Y5569990D01*
X17437205Y5569989D01*
X17497714Y5423909D01*
X17593965Y5298471D01*
X17593970Y5298466D01*
X17593973Y5298464D01*
X17719409Y5202214D01*
X17865488Y5141706D01*
X18022250Y5121068D01*
X18179012Y5141706D01*
X18325091Y5202214D01*
X18450532Y5298468D01*
X18450535Y5298473D01*
X18453957Y5301894D01*
X18455081Y5300770D01*
X18492327Y5324496D01*
X18508342Y5326250D01*
X28667683Y5326250D01*
X28692503Y5334316D01*
X28703782Y5337023D01*
X28729554Y5341104D01*
X28752803Y5352952D01*
X28763522Y5357391D01*
X28788340Y5365454D01*
X28809448Y5380791D01*
X28819350Y5386858D01*
X28842590Y5398699D01*
X28842592Y5398700D01*
X28860939Y5417048D01*
X28860944Y5417052D01*
X28865156Y5421265D01*
X28865159Y5421266D01*
X29039978Y5596086D01*
X29085852Y5617477D01*
X29095650Y5617263D01*
X29095650Y5617318D01*
X29100499Y5617318D01*
X29100499Y5617319D01*
X29100500Y5617318D01*
X29257262Y5637956D01*
X29397182Y5695914D01*
X29447752Y5698121D01*
X29487911Y5667306D01*
X29499500Y5627546D01*
X29499500Y574500D01*
X29482187Y526934D01*
X29438350Y501624D01*
X29425500Y500500D01*
X24179143Y500500D01*
X24131577Y517813D01*
X24109500Y549484D01*
X24056279Y697668D01*
X23931541Y927057D01*
X23773250Y1134716D01*
X23585114Y1315778D01*
X23527279Y1356458D01*
X23371542Y1466001D01*
X23371540Y1466002D01*
X23137543Y1581862D01*
X22888606Y1660641D01*
X22630555Y1700500D01*
X22434823Y1700500D01*
X22365249Y1695159D01*
X22239660Y1685517D01*
X22239645Y1685515D01*
X21985412Y1626021D01*
X21743239Y1528417D01*
X21743222Y1528408D01*
X21518795Y1394986D01*
X21518792Y1394983D01*
X21317344Y1228849D01*
X21143628Y1033925D01*
X21143624Y1033919D01*
X21001693Y814753D01*
X21001693Y814752D01*
X20894886Y576500D01*
X20894883Y576492D01*
X20894882Y576489D01*
X20894336Y574500D01*
X20888947Y554891D01*
X20859648Y513613D01*
X20817592Y500500D01*
X14179143Y500500D01*
X14131577Y517813D01*
X14109500Y549484D01*
X14056279Y697668D01*
X13931541Y927057D01*
X13773250Y1134716D01*
X13585114Y1315778D01*
X13527279Y1356458D01*
X13371542Y1466001D01*
X13371540Y1466002D01*
X13137543Y1581862D01*
X12888606Y1660641D01*
X12630555Y1700500D01*
X12434823Y1700500D01*
X12365249Y1695159D01*
X12239660Y1685517D01*
X12239645Y1685515D01*
X11985412Y1626021D01*
X11743239Y1528417D01*
X11743222Y1528408D01*
X11518795Y1394986D01*
X11518792Y1394983D01*
X11317344Y1228849D01*
X11143628Y1033925D01*
X11143624Y1033919D01*
X11001693Y814753D01*
X11001693Y814752D01*
X10894886Y576500D01*
X10894883Y576492D01*
X10894882Y576489D01*
X10894336Y574500D01*
X10888947Y554891D01*
X10859648Y513613D01*
X10817592Y500500D01*
X4179143Y500500D01*
X4131577Y517813D01*
X4109500Y549484D01*
X4056279Y697668D01*
X3931541Y927057D01*
X3773250Y1134716D01*
X3585114Y1315778D01*
X3527279Y1356458D01*
X3371542Y1466001D01*
X3371540Y1466002D01*
X3137543Y1581862D01*
X2888606Y1660641D01*
X2630555Y1700500D01*
X2434823Y1700500D01*
X2365249Y1695159D01*
X2239660Y1685517D01*
X2239645Y1685515D01*
X1985412Y1626021D01*
X1743239Y1528417D01*
X1743222Y1528408D01*
X1518795Y1394986D01*
X1518792Y1394983D01*
X1317344Y1228849D01*
X1143628Y1033925D01*
X1143624Y1033919D01*
X1001693Y814753D01*
X1001693Y814752D01*
X894886Y576500D01*
X894883Y576492D01*
X894882Y576489D01*
X894336Y574500D01*
X888947Y554891D01*
X859648Y513613D01*
X817592Y500500D01*
X574500Y500500D01*
X526934Y517813D01*
X501624Y561650D01*
X500500Y574500D01*
X500500Y2693000D01*
X517813Y2740566D01*
X561650Y2765876D01*
X574500Y2767000D01*
X1393199Y2767000D01*
X1393199Y3521000D01*
X1901200Y3521000D01*
X1901200Y2767000D01*
X2797703Y2767000D01*
X2797704Y2767001D01*
X2901525Y2777607D01*
X3069724Y2833343D01*
X3220538Y2926366D01*
X3220542Y2926368D01*
X3345832Y3051658D01*
X3345834Y3051662D01*
X3438857Y3202476D01*
X3494593Y3370675D01*
X3505199Y3474496D01*
X3505200Y3474498D01*
X3505200Y3521000D01*
X1901200Y3521000D01*
X1393199Y3521000D01*
X1393200Y4783000D01*
X1901200Y4783000D01*
X1901200Y4029000D01*
X3505200Y4029000D01*
X3505200Y4075503D01*
X3505199Y4075505D01*
X3494593Y4179326D01*
X3438857Y4347525D01*
X3345834Y4498339D01*
X3345832Y4498342D01*
X3220542Y4623632D01*
X3220538Y4623635D01*
X3069724Y4716658D01*
X2901525Y4772394D01*
X2797704Y4783000D01*
X1901200Y4783000D01*
X1393200Y4783000D01*
X574500Y4783000D01*
X526934Y4800313D01*
X501624Y4844150D01*
X500500Y4857000D01*
X500500Y5371000D01*
X3492207Y5371000D01*
X3538518Y5211599D01*
X3623145Y5068502D01*
X3740701Y4950946D01*
X3883798Y4866319D01*
X4043446Y4819936D01*
X4080742Y4817000D01*
X4593199Y4817001D01*
X4593200Y4817002D01*
X4593200Y5371000D01*
X5101200Y5371000D01*
X5101200Y4817001D01*
X5613655Y4817001D01*
X5650952Y4819936D01*
X5810601Y4866319D01*
X5953698Y4950946D01*
X6071254Y5068502D01*
X6155881Y5211599D01*
X6202193Y5371000D01*
X5101200Y5371000D01*
X4593200Y5371000D01*
X3492207Y5371000D01*
X500500Y5371000D01*
X500500Y9398000D01*
X2188318Y9398000D01*
X2208955Y9241240D01*
X2208955Y9241239D01*
X2269464Y9095159D01*
X2365715Y8969721D01*
X2365720Y8969716D01*
X2387732Y8952826D01*
X2491159Y8873464D01*
X2637238Y8812956D01*
X2794000Y8792318D01*
X2950762Y8812956D01*
X3096841Y8873464D01*
X3222282Y8969718D01*
X3222285Y8969723D01*
X3225707Y8973144D01*
X3226831Y8972020D01*
X3264077Y8995746D01*
X3280092Y8997500D01*
X3848367Y8997500D01*
X3895933Y8980187D01*
X3900693Y8975826D01*
X3940717Y8935802D01*
X4045807Y8884427D01*
X4113940Y8874500D01*
X4113946Y8874500D01*
X5580454Y8874500D01*
X5580460Y8874500D01*
X5648593Y8884427D01*
X5753683Y8935802D01*
X5770707Y8952827D01*
X5816583Y8974218D01*
X5823033Y8974500D01*
X5890366Y8974500D01*
X5935414Y8959208D01*
X5965918Y8935802D01*
X6047159Y8873464D01*
X6193238Y8812956D01*
X6350000Y8792318D01*
X6506762Y8812956D01*
X6652841Y8873464D01*
X6778282Y8969718D01*
X6874536Y9095159D01*
X6935044Y9241238D01*
X6955682Y9398000D01*
X6935044Y9554762D01*
X6874536Y9700841D01*
X6817248Y9775500D01*
X6778284Y9826280D01*
X6778279Y9826285D01*
X6652841Y9922536D01*
X6506761Y9983045D01*
X6350000Y10003682D01*
X6193239Y9983045D01*
X6193238Y9983045D01*
X6047158Y9922536D01*
X5921720Y9826285D01*
X5921719Y9826284D01*
X5921716Y9826280D01*
X5904966Y9804452D01*
X5862276Y9777254D01*
X5846259Y9775500D01*
X5823033Y9775500D01*
X5775467Y9792813D01*
X5770707Y9797174D01*
X5753682Y9814199D01*
X5648594Y9865573D01*
X5580464Y9875500D01*
X5580460Y9875500D01*
X4113940Y9875500D01*
X4113935Y9875500D01*
X4045806Y9865573D01*
X4045805Y9865573D01*
X3940717Y9814199D01*
X3938022Y9812274D01*
X3895024Y9798500D01*
X3280092Y9798500D01*
X3232526Y9815813D01*
X3225745Y9822895D01*
X3225707Y9822856D01*
X3222277Y9826287D01*
X3096841Y9922536D01*
X2950761Y9983045D01*
X2794000Y10003682D01*
X2637239Y9983045D01*
X2637238Y9983045D01*
X2491158Y9922536D01*
X2365720Y9826285D01*
X2365715Y9826280D01*
X2269464Y9700842D01*
X2208955Y9554762D01*
X2208955Y9554761D01*
X2188318Y9398000D01*
X500500Y9398000D01*
X500500Y10143000D01*
X517813Y10190566D01*
X561650Y10215876D01*
X574500Y10217000D01*
X1393199Y10217000D01*
X1393199Y10971000D01*
X1901200Y10971000D01*
X1901200Y10217000D01*
X2797703Y10217000D01*
X2797704Y10217001D01*
X2901525Y10227607D01*
X3069724Y10283343D01*
X3220538Y10376366D01*
X3220542Y10376368D01*
X3345832Y10501658D01*
X3345834Y10501662D01*
X3438857Y10652476D01*
X3494593Y10820675D01*
X3505199Y10924496D01*
X3505200Y10924498D01*
X3505200Y10971000D01*
X1901200Y10971000D01*
X1393199Y10971000D01*
X1393200Y12233000D01*
X1901200Y12233000D01*
X1901200Y11479000D01*
X3505200Y11479000D01*
X3505200Y11525503D01*
X3505199Y11525505D01*
X3494593Y11629326D01*
X3438857Y11797525D01*
X3345834Y11948339D01*
X3345832Y11948342D01*
X3220542Y12073632D01*
X3220538Y12073635D01*
X3069724Y12166658D01*
X2901525Y12222394D01*
X2797704Y12233000D01*
X1901200Y12233000D01*
X1393200Y12233000D01*
X574500Y12233000D01*
X526934Y12250313D01*
X501624Y12294150D01*
X500500Y12307000D01*
X500500Y14425500D01*
X517813Y14473066D01*
X561650Y14498376D01*
X574500Y14499500D01*
X820857Y14499500D01*
X868423Y14482187D01*
G37*
%TD.AperFunction*%
%TD*%
M02*
